<svg xmlns="http://www.w3.org/2000/svg" width="280" height="100" fill="#020202" xmlns:v="https://vecta.io/nano"><path d="M56.447 61.7h-1.62v5.917c.468.063 1.028.063 1.838.063 2.147 0 4.048-.84 4.048-3.053 0-2.085-1.9-2.927-4.266-2.927zM79.3 53.45c-.935 0-1.6.06-1.933.154v6.2c.406.094.874.124 1.6.124 2.523 0 4.08-1.277 4.08-3.396 0-1.93-1.34-3.08-3.737-3.08zm-.518-17.163c-13.966 0-26.446 1.57-34.703 4.03 7.52-3.533 19.238-6.783 32.748-8.742 10.453-1.516 20.246-1.997 28.188-1.596V-.242H0v32.694c7.657 1.5 17.312 2.383 27.82 2.383 13.967 0 26.447-1.57 34.703-4.033-7.518 3.532-19.234 6.785-32.75 8.744C18.63 41.16 8.196 41.617 0 41.063v59.18h105.016V38.378c-7.4-1.313-16.436-2.1-26.234-2.1zm-28.888-4.532a5.38 5.38 0 0 1-5.38-5.379c0-2.97 2.4-5.38 5.38-5.38a5.38 5.38 0 0 1 5.38 5.379 5.38 5.38 0 0 1-5.38 5.379zM38.13 70.983l-.34-8.036c-.095-2.522-.187-5.573-.187-8.628h-.063c-.688 2.68-1.558 5.67-2.367 8.13l-2.555 8.2H28.9l-2.243-8.097c-.684-2.492-1.37-5.482-1.9-8.224h-.062l-.344 8.7-.404 7.974h-4.392L20.905 50h6.324l2.053 7.008a88.88 88.88 0 0 1 1.776 7.505h.124c.562-2.43 1.275-5.2 1.993-7.536L35.4 50h6.227l1.123 20.992h-4.6zM63.517 69.3c-1.527 1.217-4.08 1.9-8.254 1.9-2.335 0-4.08-.157-5.14-.3V50.27c1.245-.218 3.737-.437 6.136-.437 2.896 0 4.672.28 6.23 1.185a4.54 4.54 0 0 1 2.49 4.143c0 1.837-1.1 3.55-3.458 4.452v.063c2.4.622 4.175 2.46 4.175 5.14 0 1.93-.873 3.426-2.18 4.484zm22.3-7.942C84.2 62.853 81.8 63.57 79 63.57c-.624 0-1.185-.03-1.622-.125v7.538h-4.7V50.27c1.463-.247 3.517-.437 6.415-.437 2.927 0 5.015.563 6.415 1.684 1.37 1.06 2.243 2.8 2.243 4.857s-.655 3.832-1.932 4.984zm-25.602-5.636c0-1.588-1.213-2.43-3.363-2.43-1.06 0-1.65.062-2.024.124v4.892h1.557c2.523 0 3.83-1.03 3.83-2.587zM140.608 16.6l-.02-9.425-4.3 7.764h-1.524l-4.275-7.563V16.6h-3.174V.9h2.798l5.466 9.762L140.962.9h2.776l.04 15.7h-3.17zM149.33.9h3.38v15.7h-3.38V.9zm20.24 12.782V16.6h-11.3V.9h11.04v2.918h-7.68v3.4h6.78v2.828h-6.78v3.636h7.95zm4.75 2.592a5.26 5.26 0 0 1-2.036-1.695l1.878-2.423c.794 1.15 1.697 1.727 2.714 1.727 1.378 0 2.065-.867 2.065-2.603V3.808h-5.134V.9h8.493v10.188c0 1.93-.445 3.377-1.335 4.343s-2.2 1.447-3.925 1.447c-.985 0-1.894-.2-2.72-.594zm14.858.09c-1.08-.337-1.945-.774-2.6-1.313l1.15-2.738c.626.493 1.37.9 2.23 1.2s1.725.45 2.588.45c.96 0 1.67-.153 2.128-.46s.7-.714.7-1.223c0-.374-.137-.685-.4-.93s-.618-.445-1.043-.594-.997-.315-1.722-.494c-1.112-.284-2.024-.568-2.733-.853s-1.317-.74-1.827-1.37-.76-1.467-.76-2.514a4.62 4.62 0 0 1 .688-2.48c.458-.74 1.15-1.327 2.076-1.762s2.056-.65 3.4-.65a10.46 10.46 0 0 1 2.734.36c.9.24 1.668.582 2.336 1.03l-1.042 2.76c-1.35-.822-2.7-1.234-4.05-1.234-.945 0-1.645.166-2.098.494s-.676.763-.676 1.3.26.94.782 1.2 1.317.52 2.4.774c1.112.285 2.022.57 2.734.854s1.317.732 1.826 1.346.76 1.443.76 2.5c0 .898-.23 1.716-.697 2.458s-1.165 1.328-2.1 1.76-2.066.65-3.4.65c-1.15.002-2.268-.167-3.346-.503zm19.27-5.936l-1.96 2.2V16.6h-3.36V.9h3.36v7.338L212.955.9h3.758l-6.052 7.002 6.406 8.707h-3.945l-4.675-6.172zm21.183 2.805h-6.785l-1.292 3.366h-3.466L224.602.9h3.338l6.53 15.7h-3.548l-1.292-3.366zm-1.066-2.76L226.25 4.46l-2.315 6.014h4.63zm-88.56 28.708c.47.666.7 1.484.7 2.457 0 1.376-.497 2.436-1.492 3.175s-2.444 1.1-4.35 1.1h-7.555v-15.7h7.138c1.778 0 3.147.367 4.1 1.1s1.43 1.727 1.43 2.984c0 .763-.17 1.443-.512 2.042a3.7 3.7 0 0 1-1.43 1.413c.837.285 1.488.76 1.963 1.426zm-9.328-6.228v3.703h3.36c.834 0 1.467-.157 1.898-.47s.646-.778.646-1.393-.216-1.072-.646-1.38-1.064-.46-1.898-.46h-3.36zm5.956 9.76c.452-.313.68-.8.68-1.458 0-1.3-.9-1.953-2.692-1.953h-3.944v3.882h3.944c.888.001 1.56-.157 2-.47zm8.734-12.5h3.38V45.92h-3.38V30.213zm21.62 8.967c.472.666.708 1.484.708 2.457 0 1.376-.497 2.436-1.493 3.175s-2.444 1.1-4.35 1.1h-7.554v-15.7h7.136c1.782 0 3.147.367 4.1 1.1s1.43 1.727 1.43 2.984c0 .763-.17 1.443-.512 2.042s-.817 1.07-1.43 1.413c.835.285 1.5.76 1.963 1.426zm-9.33-6.228v3.703h3.36c.835 0 1.468-.157 1.898-.47s.647-.778.647-1.393-.217-1.072-.647-1.38-1.063-.46-1.898-.46h-3.36zm5.958 9.76c.45-.313.678-.8.678-1.458 0-1.3-.896-1.953-2.7-1.953h-3.944v3.882h3.944c.888.001 1.56-.157 2.013-.47zm8.735-12.5h3.38V42.96h7.323v2.962h-10.704v-15.7zm14.692 0h3.38V45.92h-3.38V30.213zm11.902 14.923c-1.217-.704-2.17-1.672-2.857-2.906s-1.033-2.622-1.033-4.163.344-2.93 1.033-4.163 1.64-2.204 2.857-2.905 2.586-1.056 4.102-1.056 2.88.352 4.1 1.056a7.61 7.61 0 0 1 2.859 2.905c.695 1.234 1.044 2.623 1.044 4.163s-.35 2.93-1.044 4.163a7.62 7.62 0 0 1-2.859 2.906c-1.2.703-2.573 1.055-4.1 1.055s-2.883-.352-4.102-1.055zm6.44-2.68c.696-.427 1.24-1.022 1.638-1.785s.593-1.63.593-2.603-.196-1.84-.593-2.603-.94-1.358-1.638-1.784-1.476-.64-2.338-.64a4.38 4.38 0 0 0-2.338.641 4.46 4.46 0 0 0-1.638 1.784c-.396.763-.594 1.63-.594 2.603s.198 1.84.594 2.603.943 1.358 1.638 1.785a4.38 4.38 0 0 0 2.338.64c.862 0 1.64-.214 2.338-.64zm13.104-9.28h-4.674v-2.962h12.73v2.962h-4.673V45.92h-3.382V33.175zm23.267 9.83v2.917h-11.3V30.213h11.04v2.918h-7.68v3.4h6.782v2.827h-6.782v3.636h7.95zm10.1-3.254l-1.96 2.2v3.972h-3.358v-15.71h3.358v7.338l6.468-7.338h3.76l-6.053 7.002 6.407 8.707h-3.945l-4.675-6.172zm21.182 2.805h-6.785l-1.3 3.366h-3.466l6.514-15.708h3.337l6.532 15.708h-3.55l-1.292-3.366zm-1.064-2.76l-2.316-6.014-2.315 6.014h4.63zM137 60.234c.95.462 1.684 1.12 2.2 1.973s.77 1.863.77 3.03c0 1.153-.258 2.158-.77 3.02s-1.25 1.518-2.2 1.973-2.078.686-3.37.686h-2.943v4.33h-3.38v-15.7h6.323c1.293 0 2.418.232 3.37.696zm-1.243 7c.528-.472.793-1.14.793-2.008 0-.884-.265-1.56-.793-2.03s-1.3-.706-2.315-.706h-2.756v5.452h2.756c1.015 0 1.786-.234 2.315-.707zm10.255 6.406c-1.16-1.24-1.742-3.014-1.742-5.318v-8.795h3.38v8.66c0 2.813 1.087 4.22 3.255 4.22 1.058 0 1.865-.34 2.422-1.02s.835-1.747.835-3.198v-8.66h3.337v8.795c0 2.305-.58 4.078-1.742 5.318s-2.785 1.864-4.873 1.864-3.7-.62-4.873-1.865zm29.603-5.148c.472.666.7 1.486.7 2.457 0 1.376-.5 2.436-1.493 3.175s-2.446 1.112-4.35 1.112h-7.554V59.538h7.138c1.778 0 3.146.367 4.098 1.1s1.432 1.727 1.432 2.984c0 .762-.17 1.442-.514 2.04a3.68 3.68 0 0 1-1.428 1.415c.833.284 1.488.76 1.962 1.424zm-9.328-6.227v3.703h3.36c.835 0 1.467-.156 1.9-.472s.646-.778.646-1.393-.215-1.073-.646-1.38-1.064-.46-1.9-.46h-3.36zm5.956 9.76c.453-.313.68-.8.68-1.458 0-1.302-.897-1.953-2.692-1.953h-3.943v3.882h3.943c.9 0 1.56-.156 2.012-.47zm8.735-12.497h3.38v12.745h7.324v2.963h-10.704V59.538zm14.692 0h3.38v15.708h-3.38V59.538zm11.883 14.934c-1.202-.695-2.15-1.66-2.837-2.896s-1.034-2.63-1.034-4.186.345-2.948 1.034-4.185 1.635-2.198 2.837-2.895 2.557-1.043 4.06-1.043c1.266 0 2.4.24 3.432.718s1.88 1.168 2.577 2.064l-2.17 2.155c-.988-1.23-2.2-1.842-3.674-1.842-.904 0-1.7.214-2.418.64s-1.265 1.02-1.66 1.784-.595 1.63-.595 2.603.198 1.84.595 2.604a4.4 4.4 0 0 0 1.66 1.784c.7.427 1.514.64 2.418.64 1.463 0 2.686-.622 3.674-1.863l2.17 2.153c-.696.914-1.558 1.6-2.587 2.087s-2.177.72-3.443.72c-1.5.002-2.835-.348-4.04-1.042zm26.26-2.19v2.963h-12.77V72.9l8.013-10.4h-7.847v-2.962h12.3v2.355l-7.993 10.4h8.307zm17.654-12.745v15.708h-2.774l-7.28-9.538v9.538h-3.342V59.538h2.798l7.262 9.536v-9.536h3.337zm15.17 12.342h-6.782l-1.294 3.367h-3.464l6.512-15.708h3.34l6.53 15.708h-3.546l-1.295-3.367zm-1.064-2.76l-2.315-6.014-2.317 6.014h4.632zm-124.01 21.443l-3.344 8.948h-1.552l-2.584-6.787-2.616 6.787h-1.553l-3.327-8.948h1.536l2.602 7.124 2.7-7.124h1.366l2.65 7.16 2.668-7.16h1.453zm11.125 5.015h-7.26c.1.788.448 1.422 1.04 1.898s1.325.718 2.2.718c1.07 0 1.932-.36 2.584-1.08l.897 1.05a3.86 3.86 0 0 1-1.515 1.08c-.615.248-1.272.37-2.016.37-.945 0-1.784-.194-2.516-.583a4.15 4.15 0 0 1-1.698-1.63c-.4-.7-.6-1.486-.6-2.363 0-.867.194-1.65.583-2.348a4.17 4.17 0 0 1 1.604-1.628c.68-.388 1.448-.584 2.304-.584s1.62.194 2.288.584 1.193.93 1.57 1.628.565 1.497.565 2.397a3.63 3.63 0 0 1-.032.491zm-6.34-3.023c-.523.475-.83 1.093-.92 1.856h5.74c-.092-.753-.397-1.368-.92-1.847s-1.175-.718-1.95-.718-1.426.238-1.95.7zm33.472-4.86l-3.95 11.817h-1.774l-3.226-9.438-3.224 9.438h-1.806l-3.95-11.817h1.737l3.2 9.605 3.326-9.605h1.552l3.26 9.656 3.26-9.656h1.604zm5.98 3.2c.552-.27 1.22-.405 2-.405v1.57c-.1-.01-.214-.017-.372-.017-.877 0-1.568.262-2.067.785s-.753 1.27-.753 2.237v4.457h-1.62v-8.948h1.556v1.503a2.74 2.74 0 0 1 1.248-1.182zm7.038 8.138a4.29 4.29 0 0 1-1.662-1.63c-.4-.692-.6-1.478-.6-2.354s.2-1.663.6-2.356a4.23 4.23 0 0 1 1.662-1.62c.71-.4 1.5-.584 2.397-.584s1.685.194 2.4.584 1.255.927 1.654 1.62.6 1.48.6 2.356-.2 1.662-.6 2.354-.95 1.234-1.654 1.63-1.5.6-2.4.6-1.688-.197-2.397-.6zm3.942-1.224c.457-.264.812-.635 1.073-1.115s.388-1.025.388-1.645-.13-1.17-.388-1.646a2.74 2.74 0 0 0-1.073-1.106 3.09 3.09 0 0 0-1.545-.388c-.572 0-1.1.13-1.545.388a2.81 2.81 0 0 0-1.08 1.106c-.265.477-.398 1.026-.398 1.646s.134 1.167.398 1.645a2.84 2.84 0 0 0 1.08 1.115c.455.264.972.396 1.545.396s1.1-.132 1.545-.396zm8.492 1.224c-.716-.396-1.275-.938-1.68-1.63s-.607-1.478-.607-2.354.203-1.663.607-2.356.965-1.23 1.68-1.62 1.528-.584 2.44-.584c.8 0 1.533.164 2.168.5a3.49 3.49 0 0 1 1.479 1.419l-1.232.793c-.282-.428-.632-.75-1.046-.963s-.88-.32-1.386-.32c-.585 0-1.1.13-1.58.388a2.76 2.76 0 0 0-1.097 1.106c-.265.476-.398 1.026-.398 1.646 0 .63.133 1.185.398 1.662s.63.848 1.097 1.105.994.4 1.58.4a2.99 2.99 0 0 0 1.386-.32 2.76 2.76 0 0 0 1.046-.963l1.232.776a3.54 3.54 0 0 1-1.479 1.427c-.635.333-1.36.5-2.168.5-.9 0-1.725-.197-2.44-.6zm8.096-4.34l4.476-3.408.725.978-4.474 3.394-.727-.964zm1.8-7.7h1.62V99.5h-1.62V86.983zm12.638 4.407c.657.608.988 1.514.988 2.72v5.402h-1.538V98.33c-.27.417-.654.734-1.155.954s-1.095.33-1.78.33c-1.002 0-1.805-.243-2.405-.727s-.904-1.12-.904-1.907.287-1.422.862-1.9 1.485-.716 2.733-.716h2.567v-.322c0-.697-.202-1.23-.608-1.604s-1.002-.558-1.8-.558a4.75 4.75 0 0 0-1.554.262c-.506.175-.936.408-1.284.702l-.674-1.216c.462-.372 1.013-.656 1.654-.854s1.32-.296 2.042-.296c1.238.002 2.187.305 2.846.914zm-1.614 6.558a2.36 2.36 0 0 0 .98-1.173v-1.25h-2.5c-1.373 0-2.06.462-2.06 1.385 0 .45.174.806.522 1.064s.834.388 1.453.388 1.154-.137 1.604-.414zm20.664-7.385l-3.342 8.948h-1.554l-2.582-6.787-2.618 6.787h-1.553l-3.324-8.948h1.535l2.6 7.124 2.7-7.124h1.367l2.652 7.16 2.666-7.16h1.452zm3.344-2.026a.99.99 0 0 1-.314-.743 1.02 1.02 0 0 1 .314-.75c.206-.2.467-.313.783-.313s.577.1.784.295a.97.97 0 0 1 .313.735c0 .304-.104.56-.313.767a1.07 1.07 0 0 1-.784.313c-.314 0-.577-.1-.783-.304zm-.028 2.026h1.62v8.948h-1.62v-8.948zm14.748 0v8.948h-1.535v-1.35c-.325.46-.757.817-1.292 1.07a4.01 4.01 0 0 1-1.747.38c-1.2 0-2.13-.33-2.82-1s-1.028-1.627-1.028-2.9v-5.15h1.62v4.963c0 .868.208 1.523.626 1.97s1.014.667 1.788.667c.856 0 1.53-.26 2.027-.777s.743-1.25.743-2.196v-4.625h1.618z"/></svg>