<svg id="Group_25" data-name="Group 25" xmlns="http://www.w3.org/2000/svg" width="844.471" height="1619.027" viewBox="0 0 844.471 1619.027">
  <path id="Path_17" data-name="Path 17" d="M483.065,207.1C294.508,337.008,186.234,504.521,186.234,681.021v321.946H62.325V681.021C62.325,457.13,199.1,239.779,449.84,80.535l33.248-21.089,33.2,21.089C767.025,239.779,903.8,457.13,903.8,681.021v321.946H779.918V681.021c0-176.5-108.274-344.012-296.853-473.922Z" transform="translate(-60.829 -59.446)" fill="#f53c37" fill-rule="evenodd"/>
  <path id="Path_18" data-name="Path 18" d="M62.062,821.052V346.778L181.853,242.371V643.205L481.926,330.757,786.741,644.439V243.366l119.792,103.2V821.052H786.577L482.4,503.7,181.853,821.03H62.062Z" transform="translate(-62.062 797.976)" fill="#f53c37" fill-rule="evenodd"/>
  <rect id="Rectangle_1" data-name="Rectangle 1" width="470.742" height="115.952" transform="translate(58.556 563.587)" fill="#f53c37"/>
</svg>
