<svg xmlns="http://www.w3.org/2000/svg" width="635.327" height="1218.054" viewBox="0 0 635.327 1218.054">
  <g id="Group_2" data-name="Group 2" opacity="">
    <path id="Path_17" data-name="Path 17" d="M378.863,170.531C237.005,268.267,155.546,394.293,155.546,527.08V769.292H62.325V527.08c0-168.442,102.9-331.963,291.542-451.768L378.88,59.446,403.86,75.312C592.5,195.117,695.4,358.638,695.4,527.08V769.292H602.2V527.08c0-132.787-81.459-258.813-223.334-356.549Z" transform="translate(-61.2 -59.446)" fill="#FFD525" fill-rule="evenodd"/>
    <path id="Path_18" data-name="Path 18" d="M62.062,677.734V320.92l90.123-78.549V543.933L377.941,308.867,607.265,544.861V243.12l90.124,77.642V677.734H607.141L378.3,438.98,152.185,677.718H62.062Z" transform="translate(-62.062 540.32)" fill="#FFD525" fill-rule="evenodd"/>
    <rect id="Rectangle_1" data-name="Rectangle 1" width="354.157" height="87.235" transform="translate(44.054 424.008)" fill="#FFD525"/>
  </g>
</svg>
