<svg xmlns="http://www.w3.org/2000/svg" width="14.126" height="14.153" viewBox="0 0 14.126 14.153">
  <path id="Icon_feather-phone" data-name="Icon feather-phone" d="M16.293,12.846v1.98a1.32,1.32,0,0,1-1.439,1.32,13.06,13.06,0,0,1-5.7-2.026A12.869,12.869,0,0,1,5.2,10.16,13.06,13.06,0,0,1,3.173,4.439,1.32,1.32,0,0,1,4.486,3h1.98a1.32,1.32,0,0,1,1.32,1.135,8.474,8.474,0,0,0,.462,1.854,1.32,1.32,0,0,1-.3,1.392l-.838.838a10.559,10.559,0,0,0,3.96,3.96l.838-.838a1.32,1.32,0,0,1,1.392-.3,8.474,8.474,0,0,0,1.854.462,1.32,1.32,0,0,1,1.135,1.34Z" transform="translate(-2.667 -2.5)" fill="none" stroke="#f63d37" stroke-linecap="round" stroke-linejoin="round" stroke-width="1"/>
</svg>
