<svg xmlns="http://www.w3.org/2000/svg" width="14.794" height="14.794" viewBox="0 0 14.794 14.794">
  <g id="Icon_feather-sun" data-name="Icon feather-sun" transform="translate(0.5 0.5)">
    <path id="Path_1028" data-name="Path 1028" d="M16.77,13.635A3.135,3.135,0,1,1,13.635,10.5,3.135,3.135,0,0,1,16.77,13.635Z" transform="translate(-6.738 -6.738)" fill="none" stroke="#fff" stroke-linecap="round" stroke-linejoin="round" stroke-width="1"/>
    <path id="Path_1029" data-name="Path 1029" d="M18,1.5V2.754" transform="translate(-11.103 -1.5)" fill="none" stroke="#fff" stroke-linecap="round" stroke-linejoin="round" stroke-width="1"/>
    <path id="Path_1030" data-name="Path 1030" d="M18,31.5v1.254" transform="translate(-11.103 -18.96)" fill="none" stroke="#fff" stroke-linecap="round" stroke-linejoin="round" stroke-width="1"/>
    <path id="Path_1031" data-name="Path 1031" d="M6.33,6.33l.89.89" transform="translate(-4.311 -4.311)" fill="none" stroke="#fff" stroke-linecap="round" stroke-linejoin="round" stroke-width="1"/>
    <path id="Path_1032" data-name="Path 1032" d="M27.54,27.54l.89.89" transform="translate(-16.655 -16.655)" fill="none" stroke="#fff" stroke-linecap="round" stroke-linejoin="round" stroke-width="1"/>
    <path id="Path_1033" data-name="Path 1033" d="M1.5,18H2.754" transform="translate(-1.5 -11.103)" fill="none" stroke="#fff" stroke-linecap="round" stroke-linejoin="round" stroke-width="1"/>
    <path id="Path_1034" data-name="Path 1034" d="M31.5,18h1.254" transform="translate(-18.96 -11.103)" fill="none" stroke="#fff" stroke-linecap="round" stroke-linejoin="round" stroke-width="1"/>
    <path id="Path_1035" data-name="Path 1035" d="M6.33,28.43l.89-.89" transform="translate(-4.311 -16.655)" fill="none" stroke="#fff" stroke-linecap="round" stroke-linejoin="round" stroke-width="1"/>
    <path id="Path_1036" data-name="Path 1036" d="M27.54,7.22l.89-.89" transform="translate(-16.655 -4.311)" fill="none" stroke="#fff" stroke-linecap="round" stroke-linejoin="round" stroke-width="1"/>
  </g>
</svg>
