<?xml version="1.0" encoding="UTF-8" standalone="no"?><!DOCTYPE svg PUBLIC "-//W3C//DTD SVG 1.1//EN" "http://www.w3.org/Graphics/SVG/1.1/DTD/svg11.dtd"><svg width="100%" height="100%" viewBox="0 0 10688 10000" version="1.1" xmlns="http://www.w3.org/2000/svg" xmlns:xlink="http://www.w3.org/1999/xlink" xml:space="preserve" xmlns:serif="http://www.serif.com/" style="fill-rule:evenodd;clip-rule:evenodd;stroke-linecap:round;stroke-linejoin:round;"><rect id="Artboard1" x="0" y="0" width="10685.6" height="9996.96" style="fill:none;"/><g id="Artboard11" serif:id="Artboard1"><path id="Path_1182" d="M2815.13,4461.89c1386.95,0.571 2528.05,1141.67 2528.62,2528.62c-0.567,1386.94 -1141.67,2528.05 -2528.62,2528.62c-1386.94,-0.57 -2528.05,-1141.67 -2528.62,-2528.62c0.571,-1386.94 1141.67,-2528.05 2528.62,-2528.62Z" style="fill:none;fill-rule:nonzero;stroke:#000;stroke-width:52.08px;stroke-dasharray:234.38,390.63,0,0;"/><path id="Path_1184" d="M4349.37,8244.98l-761.809,-761.812l-761.812,761.812l761.812,761.813l761.809,-761.813Z" style="fill:#fff;stroke:#f53c37;stroke-width:52.08px;"/><path id="Path_1185" d="M1387.89,3644.55l1437.86,0" style="fill:none;fill-rule:nonzero;stroke:#000;stroke-width:52.08px;"/><path id="Path_1186" d="M1387.89,3972.26l1437.86,-0" style="fill:none;fill-rule:nonzero;stroke:#000;stroke-width:52.08px;"/><path id="Path_1187" d="M1387.89,4299.93l1437.86,0" style="fill:none;fill-rule:nonzero;stroke:#000;stroke-width:52.08px;"/><path id="Path_1188" d="M9015.98,7234.07c314.512,0.154 573.267,258.912 573.425,573.421c-0.158,314.512 -258.913,573.267 -573.425,573.425c-314.521,-0.129 -573.292,-258.9 -573.425,-573.425c0.133,-314.521 258.904,-573.292 573.425,-573.421Z" style="fill:none;fill-rule:nonzero;stroke:#000;stroke-width:52.08px;"/><path id="Path_1189" d="M3190.09,2103.46l-133.821,325.896l268.6,227.992l-351.309,-26.575l-133.82,325.9l-83.292,-342.342l-351.308,-26.529l299.82,-185.017l-83.291,-342.341l268.6,227.991l299.821,-184.975Z" style="fill:#f53c37;stroke:#fff;stroke-width:52.08px;"/><g><path id="Path_1194" d="M7550.47,2060.44l-3396.64,-0l0,2361.69l744.116,-446.442l2652.52,-0l-0,-1915.25Z" style="fill:#fff;fill-rule:nonzero;stroke:#212829;stroke-width:59.81px;stroke-linecap:butt;stroke-linejoin:miter;stroke-miterlimit:10;"/><path id="Path_1195" d="M7247.58,2865.19l-595.439,0" style="fill:none;fill-rule:nonzero;stroke:#f00;stroke-width:59.81px;stroke-linecap:butt;stroke-linejoin:miter;stroke-miterlimit:10;"/><path id="Path_1196" d="M6428.79,2865.19l-740.326,0" style="fill:none;fill-rule:nonzero;stroke:#f00;stroke-width:59.81px;stroke-linecap:butt;stroke-linejoin:miter;stroke-miterlimit:10;"/><path id="Path_1197" d="M7247.58,2567.47l-2664.14,0" style="fill:none;fill-rule:nonzero;stroke:#f00;stroke-width:59.81px;stroke-linecap:butt;stroke-linejoin:miter;stroke-miterlimit:10;"/><path id="Path_11971" serif:id="Path_1197" d="M7247.58,3158.69l-2664.14,0" style="fill:none;fill-rule:nonzero;stroke:#f00;stroke-width:59.81px;stroke-linecap:butt;stroke-linejoin:miter;stroke-miterlimit:10;"/><path id="Path_11972" serif:id="Path_1197" d="M7247.58,3465.68l-2664.14,-0" style="fill:none;fill-rule:nonzero;stroke:#f00;stroke-width:59.81px;stroke-linecap:butt;stroke-linejoin:miter;stroke-miterlimit:10;"/></g><g><path id="Path_11941" serif:id="Path_1194" d="M8859.08,1497.01l-3396.64,0l0,2361.69l744.116,-446.441l2652.52,-0l-0,-1915.25Z" style="fill:#fff;fill-rule:nonzero;stroke:#212829;stroke-width:59.81px;stroke-linecap:butt;stroke-linejoin:miter;stroke-miterlimit:10;"/><path id="Path_11951" serif:id="Path_1195" d="M8556.2,2301.76l-595.439,-0" style="fill:none;fill-rule:nonzero;stroke:#f00;stroke-width:59.81px;stroke-linecap:butt;stroke-linejoin:miter;stroke-miterlimit:10;"/><path id="Path_11961" serif:id="Path_1196" d="M7737.4,2301.76l-740.326,-0" style="fill:none;fill-rule:nonzero;stroke:#f00;stroke-width:59.81px;stroke-linecap:butt;stroke-linejoin:miter;stroke-miterlimit:10;"/><path id="Path_11973" serif:id="Path_1197" d="M8556.2,2004.03l-2664.14,-0" style="fill:none;fill-rule:nonzero;stroke:#f00;stroke-width:59.81px;stroke-linecap:butt;stroke-linejoin:miter;stroke-miterlimit:10;"/><path id="Path_11974" serif:id="Path_1197" d="M8556.2,2595.26l-2664.14,-0" style="fill:none;fill-rule:nonzero;stroke:#f00;stroke-width:59.81px;stroke-linecap:butt;stroke-linejoin:miter;stroke-miterlimit:10;"/><path id="Path_11975" serif:id="Path_1197" d="M8556.2,2902.25l-2664.14,0" style="fill:none;fill-rule:nonzero;stroke:#f00;stroke-width:59.81px;stroke-linecap:butt;stroke-linejoin:miter;stroke-miterlimit:10;"/></g><g><path id="Path_11942" serif:id="Path_1194" d="M9749.67,842.703l-3396.64,-0l0,2361.69l744.116,-446.442l2652.52,0l-0,-1915.25Z" style="fill:#fff;fill-rule:nonzero;stroke:#212829;stroke-width:59.81px;stroke-linecap:butt;stroke-linejoin:miter;stroke-miterlimit:10;"/><g><path id="Path_11952" serif:id="Path_1195" d="M9446.78,1647.45l-265.588,0" style="fill:none;fill-rule:nonzero;stroke:#f00;stroke-width:46.31px;stroke-linecap:butt;stroke-linejoin:miter;stroke-miterlimit:10;"/><path id="Path_11962" serif:id="Path_1196" d="M9081.57,1647.45l-330.214,0" style="fill:none;fill-rule:nonzero;stroke:#f00;stroke-width:46.31px;stroke-linecap:butt;stroke-linejoin:miter;stroke-miterlimit:10;"/><path id="Path_11976" serif:id="Path_1197" d="M9446.78,1349.73l-1188.31,0" style="fill:none;fill-rule:nonzero;stroke:#f00;stroke-width:46.31px;stroke-linecap:butt;stroke-linejoin:miter;stroke-miterlimit:10;"/><path id="Path_11977" serif:id="Path_1197" d="M9446.78,1940.95l-1188.31,0" style="fill:none;fill-rule:nonzero;stroke:#f00;stroke-width:46.31px;stroke-linecap:butt;stroke-linejoin:miter;stroke-miterlimit:10;"/><path id="Path_11978" serif:id="Path_1197" d="M9446.78,2247.94l-1188.31,-0" style="fill:none;fill-rule:nonzero;stroke:#f00;stroke-width:46.31px;stroke-linecap:butt;stroke-linejoin:miter;stroke-miterlimit:10;"/></g></g><g><path d="M3976.35,5483.98c0,-122.921 116.893,-187.31 336.067,-187.31c119.982,-0 213.531,11.709 292.459,35.123l0,222.428l409.399,-0l2.926,-540.597c-160.837,-102.13 -403.552,-160.491 -722.201,-160.491c-633.84,0 -855.639,233.441 -855.639,636.701c0,852.918 1098.07,491.035 1098.07,867.503c0,113.762 -93.511,166.267 -338.986,166.267c-157.937,0 -280.706,-17.502 -359.629,-40.837l-0,-224.607l-409.402,-0l-2.923,566.01c160.834,102.135 444.479,166.334 771.863,166.334c525.855,-0 876.066,-180.924 876.066,-665.254c0,-841.27 -1098.07,-499.162 -1098.07,-841.27Z" style="fill:#f53c37;fill-rule:nonzero;"/><path d="M6506.06,6324.85l0,169.551l-494.187,0l-0,-368.336l660.011,0l0,-408.491l-660.011,-0l-0,-374.177l494.187,0l0,166.626l397.72,-0l2.923,-627.685l-1615.81,0l-5.841,408.492c58.409,-0 131.419,5.846 189.827,14.615l-0,1226.91c-58.408,8.769 -131.418,14.614 -189.827,14.614l5.841,408.492l1615.81,-0l-2.923,-630.61l-397.72,-0Z" style="fill:#f53c37;fill-rule:nonzero;"/><path d="M8135.19,6990.51c671.761,-0 1051.16,-455.236 1051.16,-1068.68c-0,-613.452 -379.401,-1068.69 -1051.16,-1068.69c-671.766,0 -1051.16,455.236 -1051.16,1068.69c0,613.447 379.398,1068.68 1051.16,1068.68Zm0,-478.581c-353.498,-0 -502.493,-245.389 -502.493,-590.102c0,-344.713 157.76,-590.107 502.493,-590.107c353.499,0 502.491,245.394 502.491,590.107c-0,344.713 -148.992,590.102 -502.491,590.102Z" style="fill:#f53c37;fill-rule:nonzero;"/></g><g><path d="M7000.33,1602.47l0,-446.469l-143.976,-0c-39.579,31.664 -102.908,62.537 -147.239,79.161l26.124,121.908c41.163,-15.832 92.618,-38.789 119.533,-60.162l0,305.562l-102.91,0l0,115.477l336.337,0l0,-115.477l-87.869,0Z" style="fill:#f53c37;fill-rule:nonzero;"/><path d="M7358.19,1727.45c164.653,0 231.102,-115.482 231.102,-289.68c0,-174.2 -66.449,-289.682 -231.102,-289.682c-164.651,0 -231.101,115.482 -231.101,289.682c0,174.198 66.45,289.68 231.101,289.68Zm0,-121.809c-60.196,-0 -87.126,-45.927 -87.126,-167.871c-0,-121.944 29.306,-167.872 87.126,-167.872c60.197,-0 87.128,45.928 87.128,167.872c-0,121.944 -26.931,167.871 -87.128,167.871Z" style="fill:#f53c37;fill-rule:nonzero;"/></g></g></svg>