<?xml version="1.0" encoding="UTF-8" standalone="no"?><!DOCTYPE svg PUBLIC "-//W3C//DTD SVG 1.1//EN" "http://www.w3.org/Graphics/SVG/1.1/DTD/svg11.dtd"><svg width="100%" height="100%" viewBox="0 0 1142 953" version="1.1" xmlns="http://www.w3.org/2000/svg" xmlns:xlink="http://www.w3.org/1999/xlink" xml:space="preserve" xmlns:serif="http://www.serif.com/" style="fill-rule:evenodd;clip-rule:evenodd;stroke-linecap:round;stroke-linejoin:round;"><g id="Group_169"><path id="Path_1369" d="M280.596,397.575c150.479,0.073 274.28,123.883 274.342,274.362c-0.071,150.474 -123.869,274.273 -274.342,274.346c-150.475,-0.07 -274.275,-123.871 -274.346,-274.346c0.062,-150.481 123.865,-274.291 274.346,-274.362Z" style="fill:none;fill-rule:nonzero;stroke:#000;stroke-width:8.33px;stroke-dasharray:25,41.67,0,0;"/><g id="Group_170"><g id="Group_169-2"><g id="_144"><g transform="matrix(0.885523,0.464595,-0.464595,0.885523,169.269,-258.962)"><text x="610.123px" y="214.001px" style="font-family:'CorporativeSlab-Black', 'Corporative Slab';font-weight:900;font-size:254.167px;">144</text></g></g></g></g><path id="Path_1370" d="M494.8,206.05l-14,34.104l28.104,23.854l-36.758,-2.779l-14.004,34.1l-8.717,-35.833l-36.758,-2.779l31.37,-19.359l-8.716,-35.833l28.108,23.858l31.371,-19.333Z" style="fill:none;fill-rule:nonzero;stroke:#000;stroke-width:8.33px;"/><path id="Path_1371" d="M747.013,385.904l130.8,0" style="fill:none;fill-rule:nonzero;stroke:#000;stroke-width:12.5px;"/><path id="Path_1372" d="M747.013,415.717l130.8,-0" style="fill:none;fill-rule:nonzero;stroke:#000;stroke-width:12.5px;"/><path id="Path_1373" d="M747.013,445.529l130.8,0" style="fill:none;fill-rule:nonzero;stroke:#000;stroke-width:12.5px;"/><rect id="Path_1374" x="192.654" y="323.271" width="724.583" height="503.017" style="fill:#fff;stroke:#000;stroke-width:8.33px;"/><rect id="Path_1375" x="216.042" y="346.067" width="677.796" height="457.425" style="fill:#fff;stroke:#000;stroke-width:8.33px;"/><rect id="Path_1376" x="262.208" y="444.933" width="132.45" height="37.846" style="fill:#f53c37;"/><rect id="Path_1435" x="420.4" y="444.933" width="132.45" height="37.846" style="fill:#f53c37;"/><rect id="Path_1436" x="578.592" y="444.933" width="177.388" height="37.846" style="fill:#f53c37;"/><rect id="Path_1377" x="262.208" y="510.45" width="448.833" height="37.846" style="fill:#f53c37;"/><rect id="Path_1378" x="262.208" y="579.767" width="171.913" height="37.846" style="fill:#f53c37;"/><rect id="Path_1434" x="449.708" y="579.767" width="261.333" height="37.846" style="fill:#f53c37;"/><rect id="Path_1379" x="262.208" y="373.104" width="181.554" height="28.654" style="fill:none;fill-rule:nonzero;stroke:#000;stroke-width:8.33px;"/><rect id="Path_1380" x="262.208" y="652.683" width="448.833" height="28.654" style="fill:#fff;stroke:#000;stroke-width:8.33px;"/><rect id="Path_1381" x="262.208" y="721.933" width="448.833" height="28.654" style="fill:#fff;stroke:#000;stroke-width:8.33px;"/><path id="Path_1382" d="M475.013,375.033c5.396,0 9.837,4.441 9.837,9.838c-0.002,5.396 -4.442,9.835 -9.837,9.837c-5.396,-0.002 -9.836,-4.441 -9.838,-9.837c0,-5.397 4.441,-9.838 9.838,-9.838Z" style="fill:none;fill-rule:nonzero;stroke:#000;stroke-width:8.33px;"/><path id="Path_1383" d="M482.179,391.608l10.15,10.15" style="fill:none;fill-rule:nonzero;stroke:#000;stroke-width:8.33px;"/><path id="Path_1384" d="M812.054,456.567c2.499,-6.817 8.938,-11.444 16.196,-11.638c8.964,0.109 16.291,7.489 16.333,16.454l0,0.45c-0.042,9.137 -7.53,16.651 -16.666,16.725c-7.176,-0.205 -13.513,-4.854 -15.863,-11.637l-16.621,-0l0,10.346l-11.17,-0l-0,-10.346l-6.934,-0l0,-10.346l34.725,-0.008Zm15.779,10.75c3.056,-0.014 5.566,-2.524 5.58,-5.579c-0.016,-3.048 -2.515,-5.553 -5.563,-5.576c-3.055,0.014 -5.566,2.524 -5.579,5.58c0.022,3.051 2.528,5.554 5.579,5.575l-0.017,-0Z" style="fill-rule:nonzero;"/><g id="Group_172"><g id="Group_171"><g id="_"><g transform="matrix(0.885523,0.464595,-0.464595,0.885523,360.144,-313.968)"><text x="817.179px" y="573.825px" style="font-family:'CorporativeSlab-Black', 'Corporative Slab';font-weight:900;font-size:258.333px;fill:#f53c37;">%</text></g></g></g></g></g></svg>