<?xml version="1.0" encoding="UTF-8" standalone="no"?><!DOCTYPE svg PUBLIC "-//W3C//DTD SVG 1.1//EN" "http://www.w3.org/Graphics/SVG/1.1/DTD/svg11.dtd"><svg width="100%" height="100%" viewBox="0 0 1137 911" version="1.1" xmlns="http://www.w3.org/2000/svg" xmlns:xlink="http://www.w3.org/1999/xlink" xml:space="preserve" xmlns:serif="http://www.serif.com/" style="fill-rule:evenodd;clip-rule:evenodd;stroke-linecap:round;stroke-linejoin:round;"><g id="Group_178"><path id="Path_1415" d="M569.567,309.567c162.977,0.075 297.064,134.16 297.141,297.137c-0.075,162.979 -134.163,297.066 -297.141,297.142c-162.977,-0.078 -297.062,-134.165 -297.138,-297.142c0.078,-162.975 134.162,-297.06 297.138,-297.137Z" style="fill:none;fill-rule:nonzero;stroke:#fff;stroke-width:8.33px;stroke-dasharray:25,41.67,0,0;"/><path id="Path_1416" d="M119.267,615.446l-56.509,-56.509l-56.508,56.509l56.508,56.508l56.509,-56.508Z" style="fill:none;fill-rule:nonzero;stroke:#f53c37;stroke-width:8.33px;"/><path id="Path_1417" d="M588.783,737.683l141.667,0" style="fill:none;fill-rule:nonzero;stroke:#000;stroke-width:8.33px;"/><path id="Path_1418" d="M588.783,769.971l141.667,-0" style="fill:none;fill-rule:nonzero;stroke:#000;stroke-width:8.33px;"/><path id="Path_1419" d="M588.783,802.263l141.667,-0" style="fill:none;fill-rule:nonzero;stroke:#000;stroke-width:8.33px;"/><path id="Path_1420" d="M1028.93,601.258c30.991,0.016 56.488,25.513 56.504,56.505c-0.013,30.992 -25.511,56.492 -56.504,56.508c-30.994,-0.014 -56.494,-25.514 -56.508,-56.508c0.016,-30.993 25.515,-56.491 56.508,-56.505Z" style="fill:none;fill-rule:nonzero;stroke:#fff;stroke-width:8.33px;"/><g id="Group_175"><g id="Group_174"><g id="_10"><g transform="matrix(0.897482,-0.441052,0.441052,0.897482,-182.8,276.135)"><text x="502.59px" y="531.287px" style="font-family:'CorporativeSlab-Black', 'Corporative Slab';font-weight:900;font-size:387.5px;fill:#fff;">10</text></g></g></g></g><path id="Path_1421" d="M129.521,269.9l268.379,-0l0,253.063l-99.4,-95.9l-168.979,-0l-0,-157.163Z" style="fill-rule:nonzero;stroke:#fff;stroke-width:8.33px;stroke-linecap:butt;stroke-linejoin:miter;stroke-miterlimit:10;"/><path id="Path_1422" d="M930.121,357.538l-268.379,-0l-0,253.062l99.379,-95.9l169,0l-0,-157.162Z" style="fill-rule:nonzero;stroke:#fff;stroke-width:8.33px;stroke-linecap:butt;stroke-linejoin:miter;stroke-miterlimit:10;"/><path id="Path_1423" d="M452.079,579.033l-268.379,0l0,253.067l99.4,-95.904l168.979,-0l0,-157.163Z" style="fill-rule:nonzero;stroke:#fff;stroke-width:8.33px;stroke-linecap:butt;stroke-linejoin:miter;stroke-miterlimit:10;"/><path id="Path_1424" d="M159.35,374.679l129.213,0" style="fill:none;fill-rule:nonzero;stroke:#f00;stroke-width:12.5px;stroke-linecap:butt;stroke-linejoin:miter;stroke-miterlimit:10;"/><path id="Path_1425" d="M850.6,462.317l-79.521,-0" style="fill:none;fill-rule:nonzero;stroke:#f00;stroke-width:12.5px;stroke-linecap:butt;stroke-linejoin:miter;stroke-miterlimit:10;"/><path id="Path_1426" d="M417.175,683.808l-124.137,0" style="fill:none;fill-rule:nonzero;stroke:#f00;stroke-width:12.5px;stroke-linecap:butt;stroke-linejoin:miter;stroke-miterlimit:10;"/><path id="Path_1427" d="M308.438,374.679l59.641,0" style="fill:none;fill-rule:nonzero;stroke:#f00;stroke-width:12.5px;stroke-linecap:butt;stroke-linejoin:miter;stroke-miterlimit:10;"/><path id="Path_1428" d="M751.196,462.317l-59.638,-0" style="fill:none;fill-rule:nonzero;stroke:#f00;stroke-width:12.5px;stroke-linecap:butt;stroke-linejoin:miter;stroke-miterlimit:10;"/><path id="Path_1429" d="M273.158,683.808l-59.637,0" style="fill:none;fill-rule:nonzero;stroke:#f00;stroke-width:12.5px;stroke-linecap:butt;stroke-linejoin:miter;stroke-miterlimit:10;"/><path id="Path_1430" d="M159.35,322.288l159.038,-0" style="fill:none;fill-rule:nonzero;stroke:#f00;stroke-width:12.5px;stroke-linecap:butt;stroke-linejoin:miter;stroke-miterlimit:10;"/><path id="Path_1431" d="M890.433,409.929l-198.875,0" style="fill:none;fill-rule:nonzero;stroke:#f00;stroke-width:12.5px;stroke-linecap:butt;stroke-linejoin:miter;stroke-miterlimit:10;"/><path id="Path_1432" d="M317.875,631.413l-104.354,-0" style="fill:none;fill-rule:nonzero;stroke:#f00;stroke-width:12.5px;stroke-linecap:butt;stroke-linejoin:miter;stroke-miterlimit:10;"/><path id="Path_1433" d="M403.825,631.413l-59.642,-0" style="fill:none;fill-rule:nonzero;stroke:#f00;stroke-width:12.5px;stroke-linecap:butt;stroke-linejoin:miter;stroke-miterlimit:10;"/><g id="Group_177"><g id="Group_176"><g id="x"><g transform="matrix(0.995818,0.0913626,-0.0913626,0.995818,38.9401,-78.6403)"><text x="878.42px" y="386.003px" style="font-family:'CorporativeSlab-Black', 'Corporative Slab';font-weight:900;font-size:387.5px;fill:#f53c37;">x</text></g></g></g></g></g></svg>