<?xml version="1.0" encoding="UTF-8" standalone="no"?><!DOCTYPE svg PUBLIC "-//W3C//DTD SVG 1.1//EN" "http://www.w3.org/Graphics/SVG/1.1/DTD/svg11.dtd"><svg width="100%" height="100%" viewBox="0 0 185559 173613" version="1.1" xmlns="http://www.w3.org/2000/svg" xmlns:xlink="http://www.w3.org/1999/xlink" xml:space="preserve" xmlns:serif="http://www.serif.com/" style="fill-rule:evenodd;clip-rule:evenodd;stroke-linecap:round;stroke-linejoin:round;stroke-miterlimit:1.5;"><g id="Artboard1"><path d="M123615,153888l13815.3,-19045.4l10110.2,16231.2l29800.6,-78798.2" style="fill:none;stroke:#000;stroke-width:833.33px;"/><path id="Path_1466" d="M40594.1,6876.66c17757.6,8.484 32367.4,14618.2 32375.8,32375.8c-8.329,17757.8 -14618.1,32367.7 -32375.8,32376.2c-17758.2,-7.708 -32369,-14617.8 -32377.2,-32376.2c8.483,-17758.2 14619,-32368.1 32377.2,-32375.8Z" style="fill:none;fill-rule:nonzero;stroke:#000;stroke-width:844.04px;stroke-miterlimit:4;stroke-dasharray:2532.08,4220.17,0,0;"/><path id="Path_1465" d="M40399.4,115404c14165,4.996 25819.5,11659.5 25824.5,25824.5c-4.996,14165 -11659.5,25819.5 -25824.5,25824.5c-14165,-4.97 -25819.5,-11659.4 -25824.5,-25824.5c5,-14165 11659.5,-25819.5 25824.5,-25824.5Z" style="fill:none;fill-rule:nonzero;stroke:#000;stroke-width:1241.54px;stroke-miterlimit:4;"/><g><path d="M149594,92189.7c5470.57,0 9921.91,4451.34 9921.91,9922.34c-0,5471 -4451.34,9922.34 -9921.91,9922.34c-5471.46,-0 -9922.34,-4451.34 -9922.34,-9922.34c0,-5471 4450.88,-9922.34 9922.34,-9922.34Zm19864.4,18634.3l1786.84,-0l-22.342,-7078.13l-4421.1,-1102.53c5.271,-176.233 8.777,-353.777 8.777,-531.322c-0,-583.925 -29.38,-1161.27 -86.371,-1730.73l4332.11,-1407.64l-467.332,-6937.85l-1786.84,-0l-4337.34,1408.95c-575.591,-984.165 -1246.33,-1906.07 -1999.48,-2753.91l2773.23,-4231.72l-4314.12,-3998.49l-1786.87,0l-2564.95,3913.88c-1058.71,-471.264 -2173.5,-838.608 -3331.27,-1089.37l0,-4555.22l-7295.12,-0l-0,4555.22c-744.374,160.888 -1470.78,369.991 -2175.7,624.261l-2414.16,-3863.03l-6186.9,3865.65l2419.43,3871.35c-539.655,525.639 -1045.55,1085.87 -1512.85,1677.7l-4101.51,-2000.33l-3197.99,6556.46l4094.03,1996.39c-177.986,726.833 -309.937,1470.78 -391.92,2229.61l-4531.1,476.522l762.354,7254.79l4530.67,-476.084c238.041,721.591 521.675,1421.68 849.577,2097.66l-3591.66,2806.09l4491.24,5748.08l3596.93,-2809.59c578.225,481.342 1188.01,926.305 1826.29,1330.05l-1559.76,4286.51l6854.52,2494.83l1558.46,-4280.81c739.1,99.95 1492.25,154.306 2258.1,156.941l947.349,4457.04l1787.27,-0l5347.85,-1516.36l-946.922,-4457.04c690.458,-312.117 1356.35,-669.399 1994.63,-1066.13l3168.64,3280.84l1787.27,-0l3460.61,-5066.81l-3169.52,-3282.16c419.089,-624.704 797.86,-1277.89 1133.66,-1956.5l4423.31,1102.97l-0.033,-0.02Z" style="fill:#f53c37;fill-rule:nonzero;stroke:#000;stroke-width:794.05px;stroke-linecap:butt;stroke-miterlimit:2;"/><path d="M151380,92189.7c5471,0 9922.34,4451.34 9922.34,9922.34c0,5471 -4451.34,9922.34 -9922.34,9922.34c-5471.43,-0 -9922.34,-4451.34 -9922.34,-9922.34c0,-5471 4450.91,-9922.34 9922.34,-9922.34Zm19864.4,18634.3l1764.92,-7078.13l-4421.1,-1102.53c5.271,-176.233 8.776,-353.777 8.776,-531.322c-0,-583.925 -29.379,-1161.27 -86.799,-1730.73l4332.53,-1407.64l-2254.6,-6937.85l-4336.91,1408.95c-576.018,-984.165 -1246.76,-1906.07 -1999.88,-2753.91l2773.63,-4231.72l-6101.4,-3998.49l-2564.55,3913.88c-1058.68,-471.264 -2173.93,-838.608 -3331.69,-1089.37l-0,-4555.22l-7295.12,-0l0,4555.22c-743.943,160.888 -1470.33,369.991 -2175.7,624.261l-2414.18,-3863.03l-6186.43,3865.65l2419.43,3871.35c-540.086,525.639 -1045.98,1085.87 -1512.85,1677.7l-4101.51,-2000.33l-3197.99,6556.46l4094.03,1996.39c-177.986,726.833 -310.378,1470.78 -392.346,2229.61l-4531.1,476.522l762.78,7254.79l4530.25,-476.084c238.483,721.591 522.118,1421.68 850.036,2097.66l-3591.68,2806.09l4491.24,5748.08l3596.48,-2809.59c578.224,481.342 1188.45,926.305 1826.74,1330.05l-1559.76,4286.51l6854.52,2494.83l1558.02,-4280.81c739.554,99.95 1492.25,154.306 2258.11,156.941l947.778,4457.04l7135.09,-1516.36l-947.348,-4457.04c690.458,-312.117 1356.35,-669.399 1995.09,-1066.13l3168.61,3280.84l5247.46,-5066.81l-3168.64,-3282.16c418.662,-624.704 797.429,-1277.89 1132.8,-1956.5l4423.27,1102.97l-0.015,-0.02Z" style="fill:#fff;fill-rule:nonzero;stroke:#000;stroke-width:794.05px;stroke-linecap:butt;stroke-miterlimit:2;"/></g><g><path d="M19863.9,96668.6c2841.79,0 5154.12,2312.33 5154.12,5154.34c0,2842.01 -2312.33,5154.34 -5154.12,5154.34c-2842.25,-0 -5154.34,-2312.33 -5154.34,-5154.34c-0,-2842.01 2312.09,-5154.34 5154.34,-5154.34Zm10318.9,9679.92l928.207,0l-11.606,-3676.87l-2296.62,-572.727c2.738,-91.548 4.559,-183.776 4.559,-276.006c0,-303.33 -15.261,-603.242 -44.867,-899.061l2250.39,-731.226l-242.765,-3603.99l-928.207,-0l-2253.11,731.907c-299.001,-511.243 -647.428,-990.143 -1038.66,-1430.57l1440.6,-2198.24l-2241.05,-2077.09l-928.222,0l-1332.41,2033.14c-549.966,-244.807 -1129.07,-435.63 -1730.49,-565.894l-0,-2366.29l-3789.58,-0l0,2366.29c-386.679,83.576 -764.022,192.199 -1130.21,324.284l-1254.08,-2006.72l-3213.9,2008.08l1256.82,2011.05c-280.334,273.053 -543.128,564.074 -785.879,871.513l-2130.61,-1039.11l-1661.25,3405.87l2126.72,1037.06c-92.458,377.566 -161.003,764.021 -203.59,1158.21l-2353.76,247.539l396.019,3768.64l2353.54,-247.31c123.655,374.843 270.994,738.517 441.329,1089.67l-1865.76,1457.67l2333.06,2985.95l1868.49,-1459.49c300.37,250.042 617.135,481.187 948.702,690.92l-810.244,2226.71l3560.71,1295.98l809.57,-2223.74c383.939,51.921 775.176,80.157 1173.01,81.526l492.118,2315.29l928.429,0l2778.04,-787.699l-491.896,-2315.29c358.671,-162.135 704.582,-347.732 1036.15,-553.824l1646.01,1704.3l928.429,-0l1797.68,-2632.05l-1646.47,-1704.98c217.703,-324.514 414.463,-663.822 588.899,-1016.34l2297.77,572.957l-0.016,-0.011Z" style="fill:#f53c37;fill-rule:nonzero;stroke:#000;stroke-width:412.49px;stroke-linecap:butt;stroke-miterlimit:2;"/><path d="M20792,96668.6c2842.01,0 5154.34,2312.33 5154.34,5154.34c0,2842.01 -2312.33,5154.34 -5154.34,5154.34c-2842.23,-0 -5154.34,-2312.33 -5154.34,-5154.34c-0,-2842.01 2312.11,-5154.34 5154.34,-5154.34Zm10318.9,9679.92l916.823,-3676.87l-2296.62,-572.727c2.738,-91.548 4.559,-183.776 4.559,-276.006c-0,-303.33 -15.262,-603.242 -45.089,-899.061l2250.61,-731.226l-1171.19,-3603.99l-2252.89,731.907c-299.223,-511.243 -647.65,-990.143 -1038.87,-1430.57l1440.81,-2198.24l-3169.48,-2077.09l-1332.2,2033.14c-549.952,-244.807 -1129.29,-435.63 -1730.71,-565.894l-0,-2366.29l-3789.58,-0l0,2366.29c-386.455,83.576 -763.792,192.199 -1130.21,324.284l-1254.09,-2006.72l-3213.66,2008.08l1256.82,2011.05c-280.557,273.053 -543.351,564.074 -785.878,871.513l-2130.61,-1039.11l-1661.25,3405.87l2126.72,1037.06c-92.458,377.566 -161.231,764.021 -203.811,1158.21l-2353.76,247.539l396.24,3768.64l2353.32,-247.31c123.884,374.843 271.224,738.517 441.567,1089.67l-1865.76,1457.67l2333.06,2985.95l1868.26,-1459.49c300.37,250.042 617.364,481.187 948.932,690.92l-810.244,2226.71l3560.71,1295.98l809.34,-2223.74c384.175,51.921 775.177,80.157 1173.01,81.526l492.341,2315.29l3706.46,-787.699l-492.118,-2315.29c358.671,-162.135 704.582,-347.732 1036.39,-553.824l1645.99,1704.3l2725.89,-2632.05l-1646.01,-1704.98c217.482,-324.514 414.24,-663.822 588.454,-1016.34l2297.75,572.957l-0.008,-0.011Z" style="fill:#fff;fill-rule:nonzero;stroke:#000;stroke-width:412.49px;stroke-linecap:butt;stroke-miterlimit:2;"/></g><g><path d="M46603.3,128620c2841.79,-0 5154.12,2312.33 5154.12,5154.34c-0,2842.01 -2312.33,5154.34 -5154.12,5154.34c-2842.25,0 -5154.34,-2312.33 -5154.34,-5154.34c0,-2842.01 2312.09,-5154.34 5154.34,-5154.34Zm10318.9,9679.92l928.207,-0l-11.606,-3676.87l-2296.62,-572.727c2.738,-91.547 4.559,-183.776 4.559,-276.005c-0,-303.33 -15.262,-603.242 -44.867,-899.062l2250.39,-731.226l-242.764,-3603.99l-928.208,0l-2253.11,731.907c-299.002,-511.242 -647.429,-990.142 -1038.67,-1430.57l1440.6,-2198.24l-2241.05,-2077.09l-928.221,-0l-1332.41,2033.14c-549.966,-244.807 -1129.07,-435.631 -1730.49,-565.895l0,-2366.29l-3789.58,0l-0,2366.29c-386.679,83.576 -764.022,192.199 -1130.21,324.284l-1254.08,-2006.72l-3213.9,2008.08l1256.82,2011.05c-280.334,273.052 -543.128,564.074 -785.878,871.513l-2130.61,-1039.11l-1661.26,3405.87l2126.72,1037.06c-92.458,377.567 -161.002,764.022 -203.59,1158.21l-2353.76,247.538l396.019,3768.64l2353.54,-247.311c123.655,374.843 270.994,738.518 441.329,1089.67l-1865.75,1457.67l2333.06,2985.95l1868.49,-1459.49c300.369,250.042 617.134,481.186 948.702,690.919l-810.244,2226.71l3560.71,1295.98l809.569,-2223.74c383.94,51.921 775.177,80.157 1173.02,81.526l492.117,2315.29l928.429,-0l2778.04,-787.699l-491.896,-2315.29c358.671,-162.135 704.582,-347.732 1036.15,-553.823l1646.01,1704.29l928.429,0l1797.68,-2632.05l-1646.47,-1704.98c217.704,-324.513 414.463,-663.822 588.899,-1016.34l2297.77,572.956l-0.017,-0.01Z" style="fill:#f53c37;fill-rule:nonzero;stroke:#000;stroke-width:416.67px;stroke-linecap:butt;stroke-miterlimit:2;"/><path d="M47531.4,128620c2842.01,-0 5154.34,2312.33 5154.34,5154.34c-0,2842.01 -2312.33,5154.34 -5154.34,5154.34c-2842.23,0 -5154.34,-2312.33 -5154.34,-5154.34c0,-2842.01 2312.11,-5154.34 5154.34,-5154.34Zm10318.9,9679.92l916.823,-3676.87l-2296.62,-572.727c2.738,-91.547 4.559,-183.776 4.559,-276.005c0,-303.33 -15.261,-603.242 -45.089,-899.062l2250.62,-731.226l-1171.19,-3603.99l-2252.89,731.907c-299.224,-511.242 -647.65,-990.142 -1038.87,-1430.57l1440.81,-2198.24l-3169.48,-2077.09l-1332.2,2033.14c-549.952,-244.807 -1129.29,-435.631 -1730.71,-565.895l0,-2366.29l-3789.58,0l-0,2366.29c-386.455,83.576 -763.792,192.199 -1130.21,324.284l-1254.09,-2006.72l-3213.66,2008.08l1256.82,2011.05c-280.557,273.052 -543.351,564.074 -785.878,871.513l-2130.61,-1039.11l-1661.26,3405.87l2126.72,1037.06c-92.458,377.567 -161.232,764.022 -203.812,1158.21l-2353.76,247.538l396.241,3768.64l2353.32,-247.311c123.884,374.843 271.223,738.518 441.566,1089.67l-1865.76,1457.67l2333.06,2985.95l1868.26,-1459.49c300.369,250.042 617.364,481.186 948.932,690.919l-810.245,2226.71l3560.71,1295.98l809.339,-2223.74c384.176,51.921 775.177,80.157 1173.02,81.526l492.341,2315.29l3706.46,-787.699l-492.117,-2315.29c358.671,-162.135 704.582,-347.732 1036.38,-553.823l1645.99,1704.29l2725.89,-2632.05l-1646.01,-1704.98c217.481,-324.513 414.239,-663.822 588.453,-1016.34l2297.75,572.956l-0.008,-0.01Z" style="fill:#fff;fill-rule:nonzero;stroke:#000;stroke-width:416.67px;stroke-linecap:butt;stroke-miterlimit:2;"/></g><g><rect x="20323.6" y="29231.2" width="130155" height="72667.3" style="fill:#fff;stroke:#000;stroke-width:416.67px;stroke-linecap:butt;stroke-miterlimit:2;"/><path d="M149165,20434.1l-127543,-0c-717.357,-0 -1299.09,546.045 -1299.09,1218.24l0,7623.57l130141,0l-0,-7623.57c-0,-672.201 -581.735,-1218.24 -1299.07,-1218.24l0.01,-0Z" style="fill-rule:nonzero;stroke:#000;stroke-width:424.28px;stroke-linecap:butt;stroke-miterlimit:2;"/><rect x="31046.4" y="24706.8" width="101718" height="3422.06" style="fill:#fff;"/><rect x="134092" y="24706.8" width="9992.97" height="3052.67" style="fill:#f53c37;"/><rect x="83036.3" y="31777.6" width="10105.4" height="1094.77"/><rect x="94629.9" y="31777.6" width="10105.4" height="1094.77"/><rect x="131187" y="31430.4" width="16318.9" height="820.14" style="fill:#f53c37;"/><rect x="134645" y="33396.2" width="12860.6" height="821.567" style="fill:#f53c37;"/><path d="M25973,22813.3c-0,435.409 -353.32,790.156 -788.717,790.156c-435.419,-0 -786.952,-354.747 -786.952,-790.156c0,-434.166 351.533,-788.554 786.952,-788.554c435.399,0 788.717,354.388 788.717,788.554Z" style="fill:#fff;fill-rule:nonzero;"/><path d="M23655.2,22813.3c-0,435.409 -353.321,790.156 -788.717,790.156c-435.42,-0 -786.952,-354.747 -786.952,-790.156c0,-434.166 351.532,-788.554 786.952,-788.554c435.398,0 788.717,354.388 788.717,788.554Z" style="fill:#fff;fill-rule:nonzero;"/><path d="M28287.4,22813.3c0,435.409 -353.32,790.156 -786.931,790.156c-437.205,-0 -788.739,-354.747 -788.739,-790.156c-0,-434.166 351.532,-788.554 788.739,-788.554c433.611,0 786.931,354.388 786.931,788.554Z" style="fill:#fff;fill-rule:nonzero;"/><rect x="22079.5" y="25944" width="2291.25" height="651.507" style="fill:#fff;"/><path d="M27836.1,27510.3l-460.383,-460.742l778.021,-779.634l-778.021,-779.088l460.383,-460.393l1240.19,1239.48l-1240.19,1240.38l-0,-0.002Z" style="fill:#fff;fill-rule:nonzero;"/><rect x="26048.1" y="25944" width="2291.25" height="651.507" style="fill:#fff;"/><rect x="48251.9" y="31777.6" width="10107.2" height="1094.77"/><rect x="59847.2" y="31777.6" width="10105.4" height="1094.77"/><rect x="71440.8" y="31777.6" width="10107.2" height="1094.77"/><rect x="35170" y="30864.9" width="10683.6" height="2921.87" style="fill:#f53c37;"/><g><rect x="32877.7" y="46224" width="50009.4" height="28044.1" style="fill:#f53c37;"/><rect x="33038.5" y="77247.8" width="49769.4" height="16925.5" style="fill:#fff;stroke:#000;stroke-width:377.8px;stroke-linecap:butt;stroke-miterlimit:2;"/><rect x="35377.3" y="79616.6" width="18008.5" height="1113.28"/><rect x="35377.3" y="82002.8" width="43693.2" height="835.403"/><rect x="35191.2" y="83953.4" width="38152.8" height="835.927"/><rect x="35039" y="87245.4" width="8758.95" height="2972.55" style="fill:#f53c37;"/><g><path d="M60341.3,62630.2l-6873.24,0l-0,-5229.59l6873.24,0l0,5229.59Zm-7432.78,-5789.84l0,6349.96l7993.74,0l-0,-6349.96l-7993.74,-0Z" style="fill:#fff;fill-rule:nonzero;"/><path d="M56233.1,58689.2c0,360.941 -293.242,653.75 -654.457,653.75c-361.235,-0 -653.04,-292.809 -653.04,-653.75c0,-360.949 291.807,-653.61 653.04,-653.61c361.217,-0 654.457,292.663 654.457,653.61Z" style="fill:#fff;fill-rule:nonzero;"/><path d="M60005.5,60192.4l-1569.58,-1222.93l-2090.85,1718.02l-1494.5,-597.653l-1045.44,473.133l0,1730.78l6200.36,-0l-0,-2101.35l0.01,0Z" style="fill:#fff;fill-rule:nonzero;"/></g></g><rect x="88873" y="92180.9" width="55305.7" height="851.904"/><rect x="88637.3" y="94170" width="48292.8" height="852.438"/><rect x="88444.6" y="96913.8" width="11086.8" height="3031.26" style="fill:#f53c37;"/><rect x="85752.2" y="37955.4" width="62185.1" height="16322"/><rect x="85401" y="57403.9" width="62185.1" height="16322"/><rect x="88293.9" y="41259.8" width="23847.9" height="1115.45" style="fill:#fff;"/><rect x="87942.5" y="60708.3" width="23847.9" height="1115.45" style="fill:#fff;"/><rect x="88293.9" y="43651.3" width="57233.7" height="838.125" style="fill:#fff;"/><rect x="87942.5" y="63099.6" width="57233.7" height="838.125" style="fill:#fff;"/><rect x="88293.9" y="45606.3" width="49790.1" height="839.699" style="fill:#fff;"/><rect x="87942.5" y="65054.6" width="49790.1" height="839.699" style="fill:#fff;"/><rect x="88293.9" y="48906.7" width="11385.2" height="2979.57" style="fill:#fff;"/><rect x="87942.5" y="68355.3" width="11385.2" height="2979.57" style="fill:#fff;"/></g><g><path d="M59773.8,149969c1599.39,-1381.61 4026.39,-1204.6 5407.23,395.291c1380.88,1599.64 1204.13,4025.12 -395.258,5406.72c-1599.39,1382.62 -4026.39,1205.37 -5407.23,-394.528c-1380.88,-1599.64 -1204.13,-4025.12 395.258,-5407.48l-0.007,0.002Zm-2733.53,-3165.2c-3809.01,3290.73 -3761.39,9412.72 565.274,12589.5c2382.92,1749.78 5679.3,1991.64 8303.35,630.638c2965.17,-1538.09 4397.2,-4423.32 4345.85,-7305.92l53323.6,-46058c2280.82,-1971.53 5237.87,-2755.9 8252.98,-2810.45c257.424,-4.536 517.344,-28.713 777.209,-73.021c4578.12,-780.987 8505.13,-3816.66 10254.4,-8119.19c716.429,-1763.52 1032.37,-3635.5 438.792,-5348.73l-4495.53,3882.72c-1294.28,1117.46 -3190.42,1186.72 -4562.03,166.158l-1108.46,-824.012c-922.074,-685.366 -1465.47,-1764.32 -1471.22,-2912.55l-3.594,-1289.21c-6.458,-1424.29 818.302,-2721.66 2108.85,-3322.2l5961.73,-2772.19c-0,-0 -4700.03,-4538.91 -11267.3,-1402.32c-2794.92,1334.98 -4661.07,5758.11 -5625.69,9009.07c-782.83,2633.11 -2310.71,4977.21 -4388.1,6772.56l-54859.3,47385.7c-2269.5,-376.002 -4679.15,183.566 -6550.63,1801.17l-0.09,0.214Z" style="fill:#fff;fill-rule:nonzero;stroke:#000;stroke-width:985.34px;stroke-linecap:butt;stroke-miterlimit:2;"/></g><path d="M91070.7,127401l13009.5,20491.4l2565.78,-7160.76l11239.6,5488.02l2455.38,-4632.15l-11029.2,-5736.13l7058.26,-4521.99l-25299.4,-3928.34l0.094,-0.024Z" style="fill:#f53c37;fill-rule:nonzero;stroke:#000;stroke-width:804.45px;stroke-linecap:butt;stroke-miterlimit:2;"/></g></svg>