<svg xmlns="http://www.w3.org/2000/svg" width="150.487" height="157.903" viewBox="0 0 150.487 157.903">
  <g id="Group_765" data-name="Group 765" transform="translate(-0.036 13.105)">
    <path id="Path_1073" data-name="Path 1073" d="M46.232-9.077,96.051.756A2.494,2.494,0,0,1,98.012,3.68L79.265,98.661a2.489,2.489,0,0,1-2.926,1.972L2.054,85.971A2.5,2.5,0,0,1,.084,83.033l14.25-72.2a2.5,2.5,0,0,1,4.9.967L5.462,81.558l69.4,13.7,17.784-90.1L45.268-4.194a2.493,2.493,0,0,1-1.96-2.924A2.494,2.494,0,0,1,46.232-9.077Z" transform="translate(0 44.118)" fill="#00534c"/>
    <path id="Path_1074" data-name="Path 1074" d="M32.583-9.044a1.98,1.98,0,0,1,1.562,2.316l-4.5,22.782a1.99,1.99,0,0,1-2.327,1.561L2.856,12.786A1.982,1.982,0,0,1,3.624,8.9l22.521,4.445L30.258-7.495A1.981,1.981,0,0,1,32.583-9.044Z" transform="translate(13.548 44.594)" fill="#00534c"/>
    <path id="Path_1075" data-name="Path 1075" d="M32.161-9.092A2.513,2.513,0,0,1,33.77-8.01a2.509,2.509,0,0,1-.731,3.452L5.061,13.589a2.491,2.491,0,0,1-2.709-4.18L30.318-8.741A2.478,2.478,0,0,1,32.161-9.092Z" transform="translate(13.075 43.937)" fill="#00534c"/>
    <path id="Path_1076" data-name="Path 1076" d="M17.932,39.435,49.3-5.706a2.512,2.512,0,0,1,3.5-.628,2.511,2.511,0,0,1,.629,3.5l-33.5,48.216a2.511,2.511,0,0,1-4.172-.069L2.346,24.577A2.511,2.511,0,1,1,6.564,21.85Z" transform="translate(21.139 70.06)" fill="#ce720b" fill-rule="evenodd"/>
    <path id="Path_1077" data-name="Path 1077" d="M10.634,28.463A36.545,36.545,0,1,1,47.179,65.008a2.512,2.512,0,0,0,0,5.024A41.568,41.568,0,1,0,5.611,28.463a2.512,2.512,0,0,0,5.024,0Z" transform="translate(61.776 0)" fill="#00534c" fill-rule="evenodd"/>
    <path id="Path_1078" data-name="Path 1078" d="M13.867,19.767V-9.81a2.513,2.513,0,0,0-2.512-2.511A2.513,2.513,0,0,0,8.843-9.81V19.767a2.512,2.512,0,0,0,5.024,0Z" transform="translate(97.599 8.696)" fill="#ce720b" fill-rule="evenodd"/>
    <path id="Path_1079" data-name="Path 1079" d="M11.355-4.849h17.57a2.513,2.513,0,0,0,2.511-2.512,2.513,2.513,0,0,0-2.511-2.512H11.355A2.514,2.514,0,0,0,8.843-7.361,2.514,2.514,0,0,0,11.355-4.849Z" transform="translate(97.599 35.824)" fill="#ce720b" fill-rule="evenodd"/>
    <path id="Path_1080" data-name="Path 1080" d="M13.751-4.849h3.426a2.513,2.513,0,0,0,2.511-2.512,2.513,2.513,0,0,0-2.511-2.512H13.751a2.514,2.514,0,0,0-2.512,2.512A2.514,2.514,0,0,0,13.751-4.849Z" transform="translate(124.149 35.824)" fill="#00534c" fill-rule="evenodd"/>
    <path id="Path_1081" data-name="Path 1081" d="M8.779-4.849H12.2a2.514,2.514,0,0,0,2.512-2.512A2.514,2.514,0,0,0,12.2-9.873H8.779A2.513,2.513,0,0,0,6.267-7.361,2.513,2.513,0,0,0,8.779-4.849Z" transform="translate(69.051 35.824)" fill="#00534c" fill-rule="evenodd"/>
    <path id="Path_1082" data-name="Path 1082" d="M8.895-5.018v3.426A2.513,2.513,0,0,0,11.407.921a2.513,2.513,0,0,0,2.511-2.512V-5.018a2.512,2.512,0,0,0-2.511-2.511A2.512,2.512,0,0,0,8.895-5.018Z" transform="translate(98.171 61.802)" fill="#00534c" fill-rule="evenodd"/>
  </g>
</svg>
