<?xml version="1.0" encoding="UTF-8" standalone="no"?><!DOCTYPE svg PUBLIC "-//W3C//DTD SVG 1.1//EN" "http://www.w3.org/Graphics/SVG/1.1/DTD/svg11.dtd"><svg width="100%" height="100%" viewBox="0 0 1620 2085" version="1.1" xmlns="http://www.w3.org/2000/svg" xmlns:xlink="http://www.w3.org/1999/xlink" xml:space="preserve" xmlns:serif="http://www.serif.com/" style="fill-rule:evenodd;clip-rule:evenodd;"><g id="Group_195"><g id="Group_190"><g id="Group_186"><g id="Group_185"><g id="Group_184"><g id="Group_183"><g id="Group_182"><path id="Path_1447" d="M869.967,1016.93c0.157,-9.127 -0.784,-18.239 -2.804,-27.141l-124.646,-0l-0,49.271l73.166,-0c-2.799,17.449 -12.609,33.018 -27.141,43.075l-0.246,1.666l39.412,30.534l2.73,0.27c25.074,-23.158 39.533,-57.237 39.533,-97.654" style="fill:#4185f4;fill-rule:nonzero;"/><path id="Path_1448" d="M742.513,1146.74c35.833,-0 65.937,-11.8 87.916,-32.159l-41.892,-32.454c-13.584,9.106 -29.677,13.748 -46.025,13.275c-34.34,-0.201 -64.887,-22.514 -75.525,-55.166l-1.558,0.133l-40.979,31.717l-0.538,1.491c22.476,44.79 68.488,73.176 118.6,73.167" style="fill:#33a753;fill-rule:nonzero;"/><path id="Path_1449" d="M666.987,1040.24c-2.899,-8.45 -4.394,-17.318 -4.424,-26.25c0.054,-8.92 1.498,-17.776 4.279,-26.25l-0.075,-1.759l-41.496,-32.225l-1.358,0.646c-9.297,18.486 -14.149,38.891 -14.167,59.583c0.018,20.693 4.87,41.097 14.166,59.584l43.075,-33.334" style="fill:#fabc04;fill-rule:nonzero;"/><path id="Path_1450" d="M742.513,932.538c19.016,-0.296 37.426,6.793 51.333,19.766l37.471,-36.583c-24.024,-22.536 -55.867,-34.913 -88.805,-34.517c-50.112,-0.009 -96.124,28.377 -118.6,73.167l42.917,33.333c10.742,-32.646 41.316,-54.932 75.683,-55.166" style="fill:#eb4234;fill-rule:nonzero;"/></g></g></g></g></g></g><path id="Path_1456" d="M1425,1182.62l-313.417,-55.029l198.954,-347.113l-243.87,71.963l-217.534,-558.75l-265.8,304.779l-43.212,-182.021l-440.121,859.3l313.129,317.475l-313.129,-317.475l483.333,-677.291l-551.179,330.179l380.975,664.583l-182.021,-770.417l309.013,-406.37l309.012,-122.763l16.934,431.775l444.47,55.029l-198.954,550.296l313.417,-148.158l-220.292,325.946l-482.566,-177.788l-309.013,262.446l698.454,-262.446l313.417,-148.15Z" style="fill:none;fill-rule:nonzero;stroke:#fff;stroke-width:8.33px;"/><circle id="Ellipse_86" cx="537.5" cy="424.192" r="29.167" style="fill:#fff;stroke:#fff;stroke-width:4.17px;stroke-linejoin:round;stroke-miterlimit:2;"/><circle id="Ellipse_87" cx="841.667" cy="295.025" r="29.167" style="fill:#fff;stroke:#fff;stroke-width:4.17px;stroke-linejoin:round;stroke-miterlimit:2;"/><circle id="Ellipse_88" cx="1304.17" cy="778.358" r="29.167" style="fill:#fff;stroke:#fff;stroke-width:4.17px;stroke-linejoin:round;stroke-miterlimit:2;"/><circle id="Ellipse_89" cx="1425" cy="1182.53" r="29.167" style="fill:#fff;stroke:#fff;stroke-width:4.17px;stroke-linejoin:round;stroke-miterlimit:2;"/><circle id="Ellipse_90" cx="1116.67" cy="1124.19" r="29.167" style="fill:#fff;stroke:#fff;stroke-width:4.17px;stroke-linejoin:round;stroke-miterlimit:2;"/><circle id="Ellipse_91" cx="912.5" cy="1399.19" r="29.167" style="fill:#fff;stroke:#fff;stroke-width:4.17px;stroke-linejoin:round;stroke-miterlimit:2;"/><circle id="Ellipse_92" cx="412.5" cy="1582.53" r="29.167" style="fill:#fff;stroke:#fff;stroke-width:4.17px;stroke-linejoin:round;stroke-miterlimit:2;"/><circle id="Ellipse_93" cx="104.167" cy="1282.53" r="29.167" style="fill:#fff;stroke:#fff;stroke-width:4.17px;stroke-linejoin:round;stroke-miterlimit:2;"/><circle id="Ellipse_94" cx="33.333" cy="932.525" r="29.167" style="fill:#fff;stroke:#fff;stroke-width:4.17px;stroke-linejoin:round;stroke-miterlimit:2;"/><circle id="Ellipse_95" cx="237.5" cy="815.858" r="29.167" style="fill:#fff;stroke:#fff;stroke-width:4.17px;stroke-linejoin:round;stroke-miterlimit:2;"/><circle id="Ellipse_96" cx="870.833" cy="728.358" r="29.167" style="fill:#fff;stroke:#fff;stroke-width:4.17px;stroke-linejoin:round;stroke-miterlimit:2;"/><path id="Path_1457" d="M609.738,1358.23c198.059,0.085 361.011,163.037 361.095,361.096c-0.084,198.06 -163.036,361.011 -361.096,361.096c-198.059,-0.085 -361.011,-163.036 -361.095,-361.096c0.084,-198.059 163.036,-361.011 361.095,-361.096Z" style="fill:none;fill-rule:nonzero;stroke:#fff;stroke-width:8.33px;stroke-linecap:round;stroke-linejoin:round;stroke-dasharray:37.5,62.5,0,0;"/><path id="Path_1458" d="M800.192,689.996l170.754,-357.463l29.067,272.5l170.762,-435.983l47.233,334.262l236.163,-497.758" style="fill:none;fill-rule:nonzero;stroke:#f63d37;stroke-width:8.33px;stroke-linecap:round;stroke-linejoin:round;"/><path id="Path_1459" d="M141.508,630.521l-68.679,-68.667l-68.662,68.667l68.662,68.675l68.679,-68.675Z" style="fill:none;fill-rule:nonzero;stroke:#f53c37;stroke-width:8.33px;stroke-linecap:round;stroke-linejoin:round;"/><path id="Path_1460" d="M104.167,1581.99c37.669,0.019 68.659,31.014 68.67,68.684c-0.025,37.66 -31.01,68.64 -68.67,68.658c-37.66,-0.018 -68.644,-30.999 -68.667,-68.658c0.011,-37.668 30.999,-68.663 68.667,-68.684Z" style="fill:#ffd525;fill-rule:nonzero;"/><path id="Path_1461" d="M1507.32,917.414l-21.81,-58.831l-62.693,2.564l49.214,-38.928l-21.802,-58.82l52.225,34.774l49.214,-38.927l-16.934,60.416l52.223,34.778l-62.691,2.561l-16.946,60.413Z" style="fill:#f63d37;"/></g></svg>