<svg xmlns="http://www.w3.org/2000/svg" width="637.741" height="453.049" viewBox="0 0 637.741 453.049">
  <g id="Group_219" data-name="Group 219" transform="translate(-1320.047 -129.832)">
    <g id="Group_169" data-name="Group 169" transform="translate(1370.405 458.47)">
      <path id="Path_1369" data-name="Path 1369" d="M178.169-240.147c97.505,0,176.667,79.162,176.667,176.667S275.674,113.189,178.169,113.189,1.5,34.027,1.5-63.48,80.662-240.147,178.169-240.147Z" transform="translate(61.72 -86.991)" fill="none" stroke="#000" stroke-linecap="round" stroke-linejoin="round" stroke-width="3" stroke-dasharray="9 15 0 0"/>
      <path id="Path_1370" data-name="Path 1370" d="M33.614,1.841,27.884,15.8l11.5,9.762L24.342,24.423,18.611,38.379l-3.567-14.66L0,22.583,12.839,14.66,9.272,0l11.5,9.763Z" transform="translate(-12.821 14.084) rotate(68)" fill="none" stroke="#000" stroke-linecap="round" stroke-linejoin="round" stroke-width="3"/>
      <path id="Path_1371" data-name="Path 1371" d="M323.689-245.224h84.23" transform="translate(152.584 84.544)" fill="none" stroke="#000" stroke-linecap="round" stroke-linejoin="round" stroke-width="3"/>
      <path id="Path_1372" data-name="Path 1372" d="M323.689-232.257h84.23" transform="translate(152.584 90.776)" fill="none" stroke="#000" stroke-linecap="round" stroke-linejoin="round" stroke-width="3"/>
      <path id="Path_1373" data-name="Path 1373" d="M323.689-219.291h84.23" transform="translate(152.584 97.007)" fill="none" stroke="#000" stroke-linecap="round" stroke-linejoin="round" stroke-width="3"/>
      <path id="Path_1374" data-name="Path 1374" d="M82.574,51.46h466.6V-272.467H82.574Z" transform="translate(36.709 71.452)" fill="#fff" stroke="#000" stroke-linecap="round" stroke-linejoin="round" stroke-width="3" fill-rule="evenodd"/>
      <path id="Path_1375" data-name="Path 1375" d="M92.747,32.015H529.223V-262.552H92.747Z" transform="translate(41.598 76.217)" fill="#fff" stroke="#000" stroke-linecap="round" stroke-linejoin="round" stroke-width="3" fill-rule="evenodd"/>
      <path id="Path_1376" data-name="Path 1376" d="M112.827-195.179h85.294v-24.373H112.827Z" transform="translate(51.248 96.882)" fill="#f53c37" fill-rule="evenodd"/>
      <path id="Path_1435" data-name="Path 1435" d="M112.827-195.179h85.294v-24.373H112.827Z" transform="translate(153.117 96.882)" fill="#f53c37" fill-rule="evenodd"/>
      <path id="Path_1436" data-name="Path 1436" d="M112.827-195.179H227.054v-24.373H112.827Z" transform="translate(254.987 96.882)" fill="#f53c37" fill-rule="evenodd"/>
      <path id="Path_1377" data-name="Path 1377" d="M112.827-166.682H401.86v-24.373H112.827Z" transform="translate(51.248 110.577)" fill="#f53c37" fill-rule="evenodd"/>
      <path id="Path_1378" data-name="Path 1378" d="M112.827-136.533H223.533v-24.373H112.827Z" transform="translate(51.248 125.066)" fill="#f53c37" fill-rule="evenodd"/>
      <path id="Path_1434" data-name="Path 1434" d="M112.827-136.533H281.116v-24.373H112.827Z" transform="translate(171.991 125.066)" fill="#f53c37" fill-rule="evenodd"/>
      <path id="Path_1379" data-name="Path 1379" d="M112.827-232.338h116.9v-18.453h-116.9Z" transform="translate(51.248 81.869)" fill="none" stroke="#000" stroke-linecap="round" stroke-linejoin="round" stroke-width="3"/>
      <path id="Path_1380" data-name="Path 1380" d="M112.827-110.738H401.86v-18.453H112.827Z" transform="translate(51.248 140.307)" fill="#fff" stroke="#000" stroke-linecap="round" stroke-linejoin="round" stroke-width="3" fill-rule="evenodd"/>
      <path id="Path_1381" data-name="Path 1381" d="M112.827-80.619H401.86V-99.072H112.827Z" transform="translate(51.248 154.782)" fill="#fff" stroke="#000" stroke-linecap="round" stroke-linejoin="round" stroke-width="3" fill-rule="evenodd"/>
      <path id="Path_1382" data-name="Path 1382" d="M207.439-249.952a6.336,6.336,0,0,1,6.334,6.334,6.337,6.337,0,0,1-6.334,6.334,6.337,6.337,0,0,1-6.334-6.334A6.336,6.336,0,0,1,207.439-249.952Z" transform="translate(93.672 82.272)" fill="none" stroke="#000" stroke-linecap="round" stroke-linejoin="round" stroke-width="3"/>
      <path id="Path_1383" data-name="Path 1383" d="M208.5-242.743l6.537,6.537" transform="translate(97.225 85.737)" fill="none" stroke="#000" stroke-linecap="round" stroke-linejoin="round" stroke-width="3"/>
    </g>
  </g>
</svg>
