<?xml version="1.0" encoding="UTF-8" standalone="no"?><!DOCTYPE svg PUBLIC "-//W3C//DTD SVG 1.1//EN" "http://www.w3.org/Graphics/SVG/1.1/DTD/svg11.dtd"><svg width="100%" height="100%" viewBox="0 0 776 733" version="1.1" xmlns="http://www.w3.org/2000/svg" xmlns:xlink="http://www.w3.org/1999/xlink" xml:space="preserve" xmlns:serif="http://www.serif.com/" style="fill-rule:evenodd;clip-rule:evenodd;stroke-linecap:round;stroke-linejoin:round;"><g id="Group_165"><path id="Path_1158" d="M5.575,726.821l129.492,-271.05l22.041,206.633l129.467,-330.612l35.833,253.466l179.08,-377.446" style="fill:none;fill-rule:nonzero;stroke:#fff;stroke-width:8.33px;"/><path id="Path_1159" d="M369.196,230.287c53.409,0.026 97.35,43.967 97.375,97.375c-0.025,53.409 -43.966,97.35 -97.375,97.375c-53.409,-0.025 -97.35,-43.966 -97.375,-97.375c0.025,-53.408 43.966,-97.349 97.375,-97.375Z" style="fill:#fff;"/><path id="Path_1160" d="M664.717,549.438l-52.084,-52.084l-52.083,52.084l52.083,52.083l52.084,-52.083Z" style="fill:none;fill-rule:nonzero;stroke:#f53c37;stroke-width:8.33px;"/><path id="Path_1161" d="M137.525,48.604l130.533,0" style="fill:none;fill-rule:nonzero;stroke:#fff;stroke-width:8.33px;"/><path id="Path_1162" d="M137.525,78.358l130.533,0" style="fill:none;fill-rule:nonzero;stroke:#fff;stroke-width:8.33px;"/><path id="Path_1163" d="M137.525,108.112l130.533,0" style="fill:none;fill-rule:nonzero;stroke:#fff;stroke-width:8.33px;"/><path id="Path_1164" d="M57.421,337.062c28.572,0 52.083,23.512 52.083,52.084c0,28.572 -23.511,52.083 -52.083,52.083c-28.572,0 -52.083,-23.511 -52.083,-52.083c-0,-28.572 23.511,-52.084 52.083,-52.084Z" style="fill:none;fill-rule:nonzero;stroke:#fff;stroke-width:8.33px;"/><path id="Path_1165" d="M757.442,212.825l-13.975,34.037l28.054,23.813l-36.692,-2.775l-13.975,34.038l-8.7,-35.755l-36.687,-2.77l31.312,-19.321l-8.7,-35.754l28.054,23.812l31.309,-19.325Z" style="fill:none;fill-rule:nonzero;stroke:#fff;stroke-width:8.33px;"/><path id="Path_1166" d="M387.05,144.85c-11.859,-1.154 -23.803,-1.154 -35.663,-0l-5.87,28.592c-11.367,1.738 -22.508,4.723 -33.221,8.9l-19.384,-21.825c-10.846,4.931 -21.189,10.902 -30.883,17.829l9.213,27.7c-8.975,7.189 -17.132,15.346 -24.321,24.321l-27.7,-9.213c-6.927,9.694 -12.898,20.037 -17.829,30.883l21.825,19.384c-4.177,10.713 -7.162,21.854 -8.9,33.221l-28.596,5.87c-1.153,11.86 -1.153,23.803 -0,35.663l28.596,5.871c1.738,11.368 4.723,22.51 8.9,33.225l-21.825,19.383c4.931,10.846 10.902,21.189 17.829,30.883l27.7,-9.212c7.189,8.975 15.346,17.131 24.321,24.321l-9.213,27.7c9.694,6.927 20.037,12.898 30.884,17.829l19.383,-21.825c10.713,4.177 21.854,7.161 33.221,8.9l5.87,28.596c11.86,1.152 23.803,1.152 35.663,-0l5.871,-28.596c11.366,-1.739 22.507,-4.723 33.221,-8.9l19.383,21.825c10.846,-4.931 21.189,-10.902 30.883,-17.829l-9.212,-27.7c8.975,-7.19 17.131,-15.346 24.321,-24.321l27.7,9.212c6.927,-9.694 12.898,-20.036 17.829,-30.883l-21.825,-19.383c4.176,-10.715 7.161,-21.857 8.9,-33.225l28.596,-5.871c1.152,-11.86 1.152,-23.803 -0,-35.663l-28.596,-5.87c-1.739,-11.367 -4.724,-22.508 -8.9,-33.221l21.825,-19.384c-4.931,-10.846 -10.902,-21.189 -17.829,-30.883l-27.7,9.213c-7.19,-8.975 -15.346,-17.132 -24.321,-24.321l9.212,-27.7c-9.694,-6.927 -20.037,-12.898 -30.883,-17.829l-19.383,21.825c-10.714,-4.177 -21.855,-7.162 -33.221,-8.9l-5.871,-28.592Zm-17.833,84.692c54.194,0.027 98.781,44.614 98.808,98.808c-0.027,54.194 -44.614,98.781 -98.808,98.808c-54.195,-0.025 -98.784,-44.613 -98.809,-98.808c0.028,-54.194 44.614,-98.781 98.809,-98.808Z" style="fill:#fff;stroke:#f00;stroke-width:8.33px;"/><path id="Path_1167" d="M594.225,4.583c-9.409,-0.868 -18.895,-0.361 -28.158,1.504c1.191,4.916 -0.573,10.1 -4.517,13.267c-9.057,2.617 -17.62,6.712 -25.342,12.121c-4.941,1.082 -10.084,-0.799 -13.162,-4.812c-7.267,6.04 -13.615,13.105 -18.846,20.975c4.321,2.633 6.74,7.548 6.192,12.579c-4.555,8.253 -7.714,17.203 -9.35,26.487c-2.729,4.261 -7.697,6.57 -12.713,5.909c-0.868,9.409 -0.361,18.895 1.504,28.158c4.916,-1.192 10.1,0.573 13.267,4.517c2.616,9.057 6.712,17.62 12.121,25.341c1.083,4.942 -0.798,10.088 -4.813,13.167c6.04,7.266 13.106,13.615 20.975,18.846c2.635,-4.319 7.55,-6.736 12.58,-6.188c8.253,4.555 17.203,7.714 26.487,9.35c4.26,2.729 6.569,7.697 5.908,12.713c9.41,0.868 18.895,0.361 28.159,-1.504c-1.193,-4.917 0.572,-10.103 4.516,-13.271c9.057,-2.615 17.62,-6.709 25.342,-12.117c4.942,-1.082 10.087,0.798 13.167,4.813c7.266,-6.041 13.615,-13.106 18.846,-20.975c-4.318,-2.635 -6.735,-7.548 -6.188,-12.575c4.555,-8.255 7.714,-17.207 9.35,-26.492c2.73,-4.259 7.697,-6.566 12.713,-5.904c0.867,-9.41 0.361,-18.895 -1.505,-28.159c-4.916,1.193 -10.102,-0.572 -13.27,-4.516c-2.616,-9.057 -6.71,-17.62 -12.117,-25.342c-1.082,-4.941 0.799,-10.084 4.812,-13.162c-6.04,-7.267 -13.106,-13.615 -20.975,-18.846c-2.632,4.319 -7.546,6.738 -12.575,6.191c-8.255,-4.555 -17.206,-7.714 -26.491,-9.35c-4.269,-2.728 -6.582,-7.703 -5.917,-12.725Zm-10.896,60.279c20.12,-1.066 37.558,14.602 38.642,34.721c1.064,20.119 -14.603,37.556 -34.721,38.642c-20.12,1.066 -37.557,-14.602 -38.642,-34.721c-1.066,-20.12 14.602,-37.557 34.721,-38.642Z" style="fill:none;fill-rule:nonzero;stroke:#fff;stroke-width:8.33px;"/><path id="Path_1168" d="M432.017,33.767c-3.37,-0.147 -6.745,0.033 -10.079,0.537c0.388,2.351 -0.161,4.762 -1.53,6.713c-3.299,0.684 -6.513,1.729 -9.583,3.116c-2.256,-0.766 -4.123,-2.389 -5.196,-4.516c-2.991,1.558 -5.823,3.403 -8.458,5.508c1.512,1.842 2.241,4.206 2.029,6.579c-2.51,2.246 -4.765,4.761 -6.725,7.5c-2.337,0.465 -4.766,-0.008 -6.758,-1.316c-1.815,2.844 -3.35,5.859 -4.584,9c2.232,0.838 4.046,2.521 5.05,4.683c-1.053,3.195 -1.752,6.497 -2.083,9.846c-1.791,1.57 -4.13,2.376 -6.508,2.241c-0.147,3.37 0.033,6.745 0.537,10.08c2.351,-0.389 4.764,0.162 6.713,1.533c0.684,3.299 1.729,6.513 3.116,9.583c-0.766,2.256 -2.389,4.123 -4.516,5.196c1.558,2.991 3.403,5.823 5.508,8.458c1.842,-1.511 4.206,-2.241 6.579,-2.029c2.245,2.511 4.76,4.766 7.5,6.725c0.465,2.338 -0.008,4.767 -1.317,6.759c2.845,1.815 5.859,3.35 9,4.583c0.84,-2.23 2.522,-4.043 4.684,-5.046c3.195,1.054 6.497,1.752 9.846,2.083c1.57,1.791 2.376,4.13 2.241,6.509c3.37,0.147 6.745,-0.033 10.079,-0.538c-0.388,-2.351 0.163,-4.763 1.534,-6.712c3.299,-0.684 6.513,-1.729 9.583,-3.117c2.255,0.767 4.12,2.39 5.192,4.517c2.991,-1.558 5.825,-3.401 8.462,-5.504c-1.512,-1.842 -2.241,-4.206 -2.029,-6.58c2.51,-2.245 4.765,-4.76 6.725,-7.5c2.336,-0.463 4.763,0.01 6.754,1.317c1.816,-2.844 3.351,-5.859 4.584,-9c-2.23,-0.839 -4.044,-2.522 -5.046,-4.683c1.054,-3.196 1.752,-6.498 2.083,-9.846c1.792,-1.57 4.13,-2.375 6.508,-2.242c0.148,-3.369 -0.032,-6.745 -0.537,-10.079c-2.351,0.388 -4.762,-0.161 -6.712,-1.529c-0.682,-3.3 -1.728,-6.514 -3.117,-9.584c0.767,-2.255 2.389,-4.122 4.517,-5.195c-1.558,-2.991 -3.401,-5.824 -5.505,-8.459c-1.842,1.512 -4.206,2.241 -6.579,2.029c-2.245,-2.51 -4.761,-4.765 -7.5,-6.725c-0.462,-2.337 0.011,-4.765 1.317,-6.758c-2.843,-1.815 -5.856,-3.35 -8.996,-4.583c-0.839,2.23 -2.522,4.043 -4.683,5.046c-3.196,-1.053 -6.498,-1.752 -9.846,-2.084c-1.578,-1.791 -2.388,-4.133 -2.254,-6.516Zm-2.75,43.15c4.929,-0.263 9.201,3.575 9.466,8.504c0.263,4.929 -3.575,9.202 -8.504,9.467c-4.928,0.26 -9.199,-3.577 -9.466,-8.505c-0.261,-4.929 3.579,-9.199 8.508,-9.462l-0.004,-0.004Z" style="fill:none;fill-rule:nonzero;stroke:#ffd525;stroke-width:8.33px;"/><path id="Path_1172" d="M638.792,324.408l-20.142,20.142l61.467,61.467c2.67,2.67 6.295,4.171 10.071,4.171c3.775,0 7.4,-1.501 10.07,-4.171c5.523,-5.526 5.523,-14.616 0,-20.142l-61.466,-61.467Z" style="fill:#fff;"/><path id="Path_1173" d="M581.654,275.796l-11.616,11.617l88.645,88.641l11.617,-11.617l-88.646,-88.641Z" style="fill:#fff;"/><path id="Path_1169" d="M501.471,89.467c60.548,0.029 110.362,49.843 110.392,110.391c-0.028,60.549 -49.843,110.365 -110.392,110.392c-60.543,-0.037 -110.35,-49.849 -110.379,-110.392c0.029,-60.543 49.836,-110.355 110.379,-110.391Z" style="fill:none;fill-rule:nonzero;stroke:#fff;stroke-width:25px;"/><path id="Path_1170" d="M501.471,89.467c60.548,0.029 110.362,49.843 110.392,110.391c-0.028,60.549 -49.843,110.365 -110.392,110.392c-60.543,-0.037 -110.35,-49.849 -110.379,-110.392c0.029,-60.543 49.836,-110.355 110.379,-110.391Z" style="fill:none;fill-rule:nonzero;stroke:#000;stroke-width:8.33px;"/><path id="Path_1171" d="M501.471,101.542c53.938,0.016 98.317,44.395 98.333,98.333c-0.016,53.938 -44.395,98.317 -98.333,98.333c-53.938,-0.016 -98.318,-44.395 -98.333,-98.333c0.015,-53.938 44.395,-98.317 98.333,-98.333Z" style="fill:#fff;"/><rect id="Path_1174" x="464.625" y="208.121" width="12.346" height="57.917" style="fill:none;fill-rule:nonzero;stroke:#000;stroke-width:8.33px;"/><rect id="Path_1175" x="487.846" y="182.854" width="12.346" height="83.183" style="fill:none;fill-rule:nonzero;stroke:#000;stroke-width:8.33px;"/><rect id="Path_1176" x="511.067" y="158.838" width="12.346" height="107.204" style="fill:none;fill-rule:nonzero;stroke:#f00;stroke-width:8.33px;"/><path id="Path_1177" d="M534.821,266.037l12.35,0l-0,-127.95l-12.346,0l-0.004,127.95Z" style="fill:none;fill-rule:nonzero;stroke:#000;stroke-width:8.33px;"/><path id="Path_1178" d="M505.196,123.592l14.583,0.87l-0.866,14.584" style="fill:none;fill-rule:nonzero;stroke:#000;stroke-width:8.33px;stroke-linejoin:miter;stroke-miterlimit:10;"/><path id="Path_1179" d="M429.75,204.358l90,-79.9" style="fill:none;fill-rule:nonzero;stroke:#000;stroke-width:8.33px;stroke-miterlimit:10;"/></g></svg>