<svg xmlns="http://www.w3.org/2000/svg" width="1160.82" height="943.954" viewBox="0 0 1160.82 943.954">
  <g id="Group_215" data-name="Group 215" transform="translate(-866.612 30.869)">
    <path id="Path_1056" data-name="Path 1056" d="M335.841,265.252l217.714-142.5L615.362-31.771l772.6-321.059" transform="translate(638.159 646.448)" fill="none" stroke="#000" stroke-linecap="round" stroke-linejoin="round" stroke-width="2"/>
    <path id="Path_1057" data-name="Path 1057" d="M146.064,338.568l266.2-73.5L650.907-184.759l554.557-334.794" transform="translate(721.08 490.396)" fill="none" stroke="#f53c37" stroke-linejoin="round" stroke-width="4"/>
    <g id="Group_77" data-name="Group 77" transform="translate(1204.5 543.139)">
      <path id="Path_1138" data-name="Path 1138" d="M121.388-298.278A119.944,119.944,0,0,1,241.275-178.391,119.944,119.944,0,0,1,121.388-58.5,119.944,119.944,0,0,1,1.5-178.391,119.944,119.944,0,0,1,121.388-298.278Z" transform="translate(-7.775 269.679)" fill="none" stroke="#000" stroke-linecap="round" stroke-linejoin="round" stroke-width="2" stroke-dasharray="9 15 0 0"/>
      <path id="Path_1140" data-name="Path 1140" d="M50.64-235.968,26.753-259.855,2.865-235.968,26.753-212.08Z" transform="translate(-9.14 134.454)" fill="none" stroke="#f53c37" stroke-linecap="round" stroke-linejoin="round" stroke-width="2"/>
      <path id="Path_1144" data-name="Path 1144" d="M165.543-351.29a23.881,23.881,0,0,1,23.87,23.87,23.88,23.88,0,0,1-23.87,23.869,23.88,23.88,0,0,1-23.87-23.869A23.881,23.881,0,0,1,165.543-351.29Z" transform="translate(-86.717 -38.248)" fill="none" stroke="#000" stroke-linecap="round" stroke-linejoin="round" stroke-width="2"/>
      <path id="Path_1145" data-name="Path 1145" d="M125.123-50.621l-4.3,10.475,8.633,7.327-11.292-.854-4.3,10.475-2.677-11-11.291-.854L109.531-41l-2.677-11,8.633,7.327Z" transform="translate(335.606 273.976)" fill="none" stroke="#000" stroke-linecap="round" stroke-linejoin="round" stroke-width="2"/>
      <path id="Path_1146" data-name="Path 1146" d="M44.64-89.289,282.084,163.545,384.249,24.777l150.024,77.111L633.852-43.118,776.7,24.777,521.212-232.194l-136.962-80.89-90.7,116.067L151.141-232.194Z" transform="translate(32.465 95.503)" fill="#fff" stroke="#000" stroke-linecap="round" stroke-linejoin="round" stroke-width="2" fill-rule="evenodd"/>
      <path id="Path_1147" data-name="Path 1147" d="M338.518-9.957,105.41-266.928" transform="translate(78.196 130.237)" fill="none" stroke="#000" stroke-linecap="round" stroke-linejoin="round" stroke-width="2"/>
      <path id="Path_1148" data-name="Path 1148" d="M488.025-43.118l-249.6-269.966" transform="translate(178.292 95.503)" fill="none" stroke="#000" stroke-linecap="round" stroke-linejoin="round" stroke-width="2"/>
      <path id="Path_1149" data-name="Path 1149" d="M427.392,52.049l-240.723-298.9" transform="translate(139.346 145.342)" fill="none" stroke="#000" stroke-linecap="round" stroke-linejoin="round" stroke-width="2"/>
      <path id="Path_1150" data-name="Path 1150" d="M286.794-190.44l-39.118-34.8,18.258-12.636,15.946,14.141,20.76-17.107,12.035,9.585-20.76,18.051,11.132,7.522Z" transform="translate(185.256 149.867)" fill="red" stroke="#000" stroke-linecap="round" stroke-linejoin="round" stroke-width="2" fill-rule="evenodd"/>
      <path id="Path_1151" data-name="Path 1151" d="M120.037-104.491c4.18,16.821,1.323,22.662,1.323,22.662l105.017-46.777L400.015-39.817l94.626-137.951,30.286,6.374c-6.013-4.574-10.545-13.179-10.545-13.179l-36.847-11.7-51.651,76.053L292.676-252.689,280-242.467l39.577,40.082-32.923,21.812-32.573,4.912-13.8-25.478a34.431,34.431,0,0,1-17.8,2.315l22.446,38.62,53.154-6.172,32.788-21.98,85.21,83.715L374.125-74.722,205.212-155.492Z" transform="translate(89.203 140.953)" fill="#fff" stroke="#000" stroke-linecap="round" stroke-linejoin="round" stroke-width="2" fill-rule="evenodd"/>
      <path id="Path_1152" data-name="Path 1152" d="M101.841-115.11c-12.993-2.76,4.556-82.767,25.818-81.249s5.315-34.169,26.577-21.262,44.8,28.911,80.489,33.44,24.3-13.5,39.486-24.23,28.619-26.2,45.443-35.547,72.255-42,106.424-23.019,40.245,22.021,60.748,36.449,32.651,46.319,49.357,67.581,50.876,43.6,77.453,57.869-30.082,20.187-30.082,20.187-63.668-6.2-72.781,24.932S447.231,12.79,447.231,12.79s-19.068-8-56.523-26.987-83.035-31.987-83.035-31.987-71.859,122.7-96.917,105.239-67.15-45.076-74.744-79.247S162.589-102.2,101.841-115.11Z" transform="translate(72.163 125.813)" fill="none" stroke="red" stroke-linecap="round" stroke-linejoin="round" stroke-width="2"/>
      <path id="Path_1153" data-name="Path 1153" d="M237.511-360.338c10.152,0,18.394,8.969,18.394,20.016s-18.394,31.636-18.394,31.636-18.394-20.589-18.394-31.636S227.359-360.338,237.511-360.338Z" transform="translate(227.259 242.912)" fill="#fff" stroke="red" stroke-linecap="round" stroke-linejoin="round" stroke-width="2" fill-rule="evenodd"/>
      <path id="Path_1154" data-name="Path 1154" d="M252.484-335.81a8.992,8.992,0,0,1,8.988,8.988,8.992,8.992,0,0,1-8.988,8.987,8.992,8.992,0,0,1-8.988-8.987A8.992,8.992,0,0,1,252.484-335.81Z" transform="translate(212.286 227.848)" fill="red" fill-rule="evenodd"/>
      <path id="Path_1155" data-name="Path 1155" d="M264.388-202.016l34.621,33.745-24.759,23.364-42.2-17.243-17.244-21.3,28.542-1.474Z" transform="translate(161.881 179.086)" fill="#ffd525" stroke="#000" stroke-linecap="round" stroke-linejoin="round" stroke-width="2" fill-rule="evenodd"/>
      <path id="Path_1156" data-name="Path 1156" d="M351.968-179.109l-51.274,70.961,10.515,9.017,29.761-28.254,27.052-23.449h15.03l10.82-10.676-20.6-21.047-9.738-11.36Z" transform="translate(225.154 182.245)" fill="#ffd525" stroke="#000" stroke-linecap="round" stroke-linejoin="round" stroke-width="2" fill-rule="evenodd"/>
      <path id="Path_1157" data-name="Path 1157" d="M201.259-167.234l43.293,45.087-27.213,25.9-30.924-25.9-30.923,20.952-16.08-20.952Z" transform="translate(103.784 205.261)" fill="#ffd525" stroke="#000" stroke-linecap="round" stroke-linejoin="round" stroke-width="2" fill-rule="evenodd"/>
      <path id="Path_1335" data-name="Path 1335" d="M237.511-360.338c10.152,0,18.394,8.969,18.394,20.016s-18.394,31.636-18.394,31.636-18.394-20.589-18.394-31.636S227.359-360.338,237.511-360.338Z" transform="translate(49.416 377.824)" fill="#fff" stroke="red" stroke-linecap="round" stroke-linejoin="round" stroke-width="2" fill-rule="evenodd"/>
      <path id="Path_1337" data-name="Path 1337" d="M237.511-360.338c10.152,0,18.394,8.969,18.394,20.016s-18.394,31.636-18.394,31.636-18.394-20.589-18.394-31.636S227.359-360.338,237.511-360.338Z" transform="translate(353.32 326.307)" fill="#fff" stroke="red" stroke-linecap="round" stroke-linejoin="round" stroke-width="2" fill-rule="evenodd"/>
      <path id="Path_1334" data-name="Path 1334" d="M252.484-335.81a8.992,8.992,0,0,1,8.988,8.988,8.992,8.992,0,0,1-8.988,8.987,8.992,8.992,0,0,1-8.988-8.987A8.992,8.992,0,0,1,252.484-335.81Z" transform="translate(34.443 362.759)" fill="red" fill-rule="evenodd"/>
      <path id="Path_1336" data-name="Path 1336" d="M252.484-335.81a8.992,8.992,0,0,1,8.988,8.988,8.992,8.992,0,0,1-8.988,8.987,8.992,8.992,0,0,1-8.988-8.987A8.992,8.992,0,0,1,252.484-335.81Z" transform="translate(338.347 311.243)" fill="red" fill-rule="evenodd"/>
    </g>
  </g>
</svg>
