<?xml version="1.0" encoding="UTF-8" standalone="no"?>
<!DOCTYPE svg PUBLIC "-//W3C//DTD SVG 1.1//EN" "http://www.w3.org/Graphics/SVG/1.1/DTD/svg11.dtd">
<svg width="100%" height="100%" viewBox="0 0 1161 944" version="1.1" xmlns="http://www.w3.org/2000/svg" xmlns:xlink="http://www.w3.org/1999/xlink" xml:space="preserve" xmlns:serif="http://www.serif.com/" style="fill-rule:evenodd;clip-rule:evenodd;stroke-linecap:round;stroke-linejoin:round;">
    <g id="Group_215" transform="matrix(1,0,0,1,-866.612,30.869)">
        <g id="Path_1056" transform="matrix(1,0,0,1,638.159,646.448)">
            <path d="M335.841,265.252L553.555,122.752L615.362,-31.771L1387.96,-352.83" style="fill:none;fill-rule:nonzero;stroke:white;stroke-width:2px;"/>
        </g>
        <g id="Path_1057" transform="matrix(1,0,0,1,721.08,490.396)">
            <path d="M146.064,338.568L412.264,265.068L650.907,-184.759L1205.46,-519.553" style="fill:none;fill-rule:nonzero;stroke:rgb(245,60,55);stroke-width:4px;stroke-linecap:butt;"/>
        </g>
        <g id="Group_77" transform="matrix(1,0,0,1,1204.5,543.139)">
            <g id="Path_1138" transform="matrix(1,0,0,1,-7.775,269.679)">
                <path d="M121.388,-298.278C187.144,-298.247 241.244,-244.147 241.275,-178.391C241.246,-112.633 187.146,-58.531 121.388,-58.5C55.63,-58.531 1.529,-112.633 1.5,-178.391C1.531,-244.148 55.631,-298.247 121.388,-298.278Z" style="fill:none;fill-rule:nonzero;stroke:white;stroke-width:2px;stroke-dasharray:9,15,0,0;"/>
            </g>
            <g id="Path_1140" transform="matrix(1,0,0,1,-9.14,134.454)">
                <path d="M50.64,-235.968L26.753,-259.855L2.865,-235.968L26.753,-212.08L50.64,-235.968Z" style="fill:none;fill-rule:nonzero;stroke:rgb(245,60,55);stroke-width:2px;"/>
            </g>
            <g id="Path_1144" transform="matrix(1,0,0,1,-86.717,-38.248)">
                <path d="M165.543,-351.29C178.635,-351.284 189.407,-340.512 189.413,-327.42C189.407,-314.328 178.635,-303.556 165.543,-303.551C152.451,-303.556 141.679,-314.328 141.673,-327.42C141.679,-340.512 152.451,-351.284 165.543,-351.29Z" style="fill:none;fill-rule:nonzero;stroke:white;stroke-width:2px;"/>
            </g>
            <g id="Path_1145" transform="matrix(1,0,0,1,335.606,273.976)">
                <path d="M125.123,-50.621L120.823,-40.146L129.456,-32.819L118.164,-33.673L113.864,-23.198L111.187,-34.198L99.896,-35.052L109.531,-41L106.854,-52L115.487,-44.673L125.123,-50.621Z" style="fill:none;fill-rule:nonzero;stroke:white;stroke-width:2px;"/>
            </g>
            <g id="Path_1146" transform="matrix(1,0,0,1,32.465,95.503)">
                <path d="M44.64,-89.289L282.084,163.545L384.249,24.777L534.273,101.888L633.852,-43.118L776.7,24.777L521.212,-232.194L384.25,-313.084L293.55,-197.017L151.141,-232.194L44.64,-89.289Z" style="fill:none;stroke:white;stroke-width:2px;"/>
            </g>
            <g id="Path_1147" transform="matrix(1,0,0,1,78.196,130.237)">
                <path d="M338.518,-9.957L105.41,-266.928" style="fill:none;fill-rule:nonzero;stroke:black;stroke-width:2px;"/>
            </g>
            <g id="Path_1148" transform="matrix(1,0,0,1,178.292,95.503)">
                <path d="M488.025,-43.118L238.425,-313.084" style="fill:none;fill-rule:nonzero;stroke:black;stroke-width:2px;"/>
            </g>
            <g id="Path_1149" transform="matrix(1,0,0,1,139.346,145.342)">
                <path d="M427.392,52.049L186.669,-246.851" style="fill:none;fill-rule:nonzero;stroke:black;stroke-width:2px;"/>
            </g>
            <g id="Path_1150" transform="matrix(1,0,0,1,185.256,149.867)">
                <path d="M286.794,-190.44L247.676,-225.24L265.934,-237.876L281.88,-223.735L302.64,-240.842L314.675,-231.257L293.915,-213.206L305.047,-205.684L286.794,-190.44Z" style="fill:rgb(255,0,0);stroke:black;stroke-width:2px;"/>
            </g>
            <g id="Path_1151" transform="matrix(1,0,0,1,89.203,140.953)">
                <path d="M120.037,-104.491C124.217,-87.67 121.36,-81.829 121.36,-81.829L226.377,-128.606L400.015,-39.817L494.641,-177.768L524.927,-171.394C518.914,-175.968 514.382,-184.573 514.382,-184.573L477.535,-196.273L425.884,-120.22L292.676,-252.689L280,-242.467L319.577,-202.385L286.654,-180.573L254.081,-175.661L240.281,-201.139C234.657,-198.807 228.514,-198.008 222.481,-198.824L244.927,-160.204L298.081,-166.376L330.869,-188.356L416.079,-104.641L374.125,-74.722L205.212,-155.492L120.037,-104.491Z" style="fill:white;stroke:black;stroke-width:2px;"/>
            </g>
            <g id="Path_1152" transform="matrix(1,0,0,1,72.163,125.813)">
                <path d="M101.841,-115.11C88.848,-117.87 106.397,-197.877 127.659,-196.359C148.921,-194.841 132.974,-230.528 154.236,-217.621C175.498,-204.714 199.036,-188.71 234.725,-184.181C270.414,-179.652 259.025,-197.681 274.211,-208.411C289.397,-219.141 302.83,-234.611 319.654,-243.958C336.478,-253.305 391.909,-285.958 426.078,-266.977C460.247,-247.996 466.323,-244.956 486.826,-230.528C507.329,-216.1 519.477,-184.209 536.183,-162.947C552.889,-141.685 587.059,-119.347 613.636,-105.078C640.213,-90.809 583.554,-84.891 583.554,-84.891C583.554,-84.891 519.886,-91.091 510.773,-59.959C501.66,-28.827 447.231,12.79 447.231,12.79C447.231,12.79 428.163,4.79 390.708,-14.197C353.253,-33.184 307.673,-46.184 307.673,-46.184C307.673,-46.184 235.814,76.516 210.756,59.055C185.698,41.594 143.606,13.979 136.012,-20.192C128.418,-54.363 162.589,-102.2 101.841,-115.11Z" style="fill:none;fill-rule:nonzero;stroke:rgb(255,0,0);stroke-width:2px;"/>
            </g>
            <g id="Path_1153" transform="matrix(1,0,0,1,227.259,242.912)">
                <path d="M237.511,-360.338C247.663,-360.338 255.905,-351.369 255.905,-340.322C255.905,-329.275 237.511,-308.686 237.511,-308.686C237.511,-308.686 219.117,-329.275 219.117,-340.322C219.117,-351.369 227.359,-360.338 237.511,-360.338Z" style="fill:white;stroke:rgb(255,0,0);stroke-width:2px;"/>
            </g>
            <g id="Path_1154" transform="matrix(1,0,0,1,212.286,227.848)">
                <path d="M252.484,-335.81C257.414,-335.808 261.47,-331.752 261.472,-326.822C261.469,-321.893 257.413,-317.837 252.484,-317.835C247.555,-317.837 243.499,-321.893 243.496,-326.822C243.498,-331.752 247.554,-335.808 252.484,-335.81Z" style="fill:rgb(255,0,0);"/>
            </g>
            <g id="Path_1155" transform="matrix(1,0,0,1,161.881,179.086)">
                <path d="M264.388,-202.016L299.009,-168.271L274.25,-144.907L232.05,-162.15L214.806,-183.45L243.348,-184.924L264.388,-202.016Z" style="fill:rgb(255,213,37);stroke:black;stroke-width:2px;"/>
            </g>
            <g id="Path_1156" transform="matrix(1,0,0,1,225.154,182.245)">
                <path d="M351.968,-179.109L300.694,-108.148L311.209,-99.131L340.97,-127.385L368.022,-150.834L383.052,-150.834L393.872,-161.51L373.272,-182.557L363.534,-193.917L351.968,-179.109Z" style="fill:rgb(255,213,37);stroke:black;stroke-width:2px;"/>
            </g>
            <g id="Path_1157" transform="matrix(1,0,0,1,103.784,205.261)">
                <path d="M201.259,-167.234L244.552,-122.147L217.339,-96.247L186.415,-122.147L155.492,-101.195L139.412,-122.147L201.259,-167.234Z" style="fill:rgb(255,213,37);stroke:black;stroke-width:2px;"/>
            </g>
            <g id="Path_1335" transform="matrix(1,0,0,1,49.416,377.824)">
                <path d="M237.511,-360.338C247.663,-360.338 255.905,-351.369 255.905,-340.322C255.905,-329.275 237.511,-308.686 237.511,-308.686C237.511,-308.686 219.117,-329.275 219.117,-340.322C219.117,-351.369 227.359,-360.338 237.511,-360.338Z" style="fill:white;stroke:rgb(255,0,0);stroke-width:2px;"/>
            </g>
            <g id="Path_1337" transform="matrix(1,0,0,1,353.32,326.307)">
                <path d="M237.511,-360.338C247.663,-360.338 255.905,-351.369 255.905,-340.322C255.905,-329.275 237.511,-308.686 237.511,-308.686C237.511,-308.686 219.117,-329.275 219.117,-340.322C219.117,-351.369 227.359,-360.338 237.511,-360.338Z" style="fill:white;stroke:rgb(255,0,0);stroke-width:2px;"/>
            </g>
            <g id="Path_1334" transform="matrix(1,0,0,1,34.443,362.759)">
                <path d="M252.484,-335.81C257.414,-335.808 261.47,-331.752 261.472,-326.822C261.469,-321.893 257.413,-317.837 252.484,-317.835C247.555,-317.837 243.499,-321.893 243.496,-326.822C243.498,-331.752 247.554,-335.808 252.484,-335.81Z" style="fill:rgb(255,0,0);"/>
            </g>
            <g id="Path_1336" transform="matrix(1,0,0,1,338.347,311.243)">
                <path d="M252.484,-335.81C257.414,-335.808 261.47,-331.752 261.472,-326.822C261.469,-321.893 257.413,-317.837 252.484,-317.835C247.555,-317.837 243.499,-321.893 243.496,-326.822C243.498,-331.752 247.554,-335.808 252.484,-335.81Z" style="fill:rgb(255,0,0);"/>
            </g>
        </g>
    </g>
</svg>
