<svg xmlns="http://www.w3.org/2000/svg" width="1414.969" height="1067.713" viewBox="0 0 1414.969 1067.713">
  <g id="Group_217" data-name="Group 217" transform="translate(23278.002 -8729.201)">
    <g id="Group_216" data-name="Group 216" transform="translate(-5707 1123.694)">
      <path id="Path_1518" data-name="Path 1518" d="M335.841,265.252l217.714-142.5L722.86-48.5,1315.14-510.747" transform="translate(-17484.375 8537.055) rotate(-20)" fill="none" stroke="#000" stroke-linecap="round" stroke-linejoin="round" stroke-width="2"/>
      <path id="Path_1182" data-name="Path 1182" d="M305.009-231.653c117.837,0,213.506,95.668,213.506,213.5S422.846,195.356,305.009,195.356,91.5,99.688,91.5-18.149,187.173-231.653,305.009-231.653Z" transform="translate(-17007.387 8270.818)" fill="none" stroke="#000" stroke-linecap="round" stroke-linejoin="round" stroke-width="3" stroke-dasharray="9 15 0 0"/>
      <path id="Path_1517" data-name="Path 1517" d="M146.064,338.568,592.191,77.07,698.862-83.444l570.945-332.2" transform="translate(-17656.555 8335.164) rotate(-8)" fill="none" stroke="#f53c37" stroke-linejoin="round" stroke-width="4"/>
      <g id="Group_215" data-name="Group 215" transform="translate(-17180.91 8154.193)">
        <path id="Path_1495" data-name="Path 1495" d="M296,102.81v16.957H155.82v16.922H484.8V119.767H344.623V102.81H539.51V-201.54h-438.4V102.81Z" transform="translate(90.25 31.998)" fill="#fff" stroke="#000" stroke-linecap="round" stroke-linejoin="round" stroke-width="3" fill-rule="evenodd"/>
        <path id="Path_1496" data-name="Path 1496" d="M108.52,82.447h410.1V-194.318H108.52Z" transform="translate(96.992 38.568)" fill="#fff" stroke="#000" stroke-linecap="round" stroke-linejoin="round" stroke-width="3" fill-rule="evenodd"/>
        <path id="Path_1497" data-name="Path 1497" d="M569.218-203.613,515.37,10.59,407.787,70.484h-239.5" transform="translate(151.37 30.112)" fill="none" stroke="#000" stroke-linecap="round" stroke-linejoin="round" stroke-width="3"/>
        <path id="Path_1498" data-name="Path 1498" d="M135.322,207.076,345.4,54.032,456.864,18.357l67.455-255.068" transform="translate(121.376)" fill="none" stroke="#f53c37" stroke-linejoin="round" stroke-width="8.669"/>
        <path id="Path_1499" data-name="Path 1499" d="M234.772-215.33l10.941-16.409,10.939,16.409Z" transform="translate(211.853 4.523)" fill="none" stroke="#000" stroke-miterlimit="10" stroke-width="3.819"/>
        <path id="Path_1500" data-name="Path 1500" d="M240.5,19.6V-223.147" transform="translate(217.066 12.34)" fill="none" stroke="#000" stroke-linejoin="round" stroke-miterlimit="10" stroke-width="3.819"/>
        <path id="Path_1501" data-name="Path 1501" d="M208.762-157.014l17.887-26.832,17.887,26.832Z" transform="translate(188.19 48.095)" fill="none" stroke="#f53c37" stroke-miterlimit="10" stroke-width="6.244"/>
        <path id="Path_1502" data-name="Path 1502" d="M218.128-4.6V-169.8" transform="translate(196.711 60.878)" fill="none" stroke="#f53c37" stroke-linejoin="round" stroke-miterlimit="10" stroke-width="6.244"/>
        <path id="Path_1503" data-name="Path 1503" d="M189.546-137.2l10.939-16.411L211.424-137.2Z" transform="translate(170.708 75.602)" fill="none" stroke="#f53c37" stroke-miterlimit="10" stroke-width="3.819"/>
        <path id="Path_1504" data-name="Path 1504" d="M195.274-2.8V-145.019" transform="translate(175.919 83.419)" fill="none" stroke="#f53c37" stroke-linejoin="round" stroke-miterlimit="10" stroke-width="3.819"/>
        <path id="Path_1505" data-name="Path 1505" d="M18.455-201.981h82.813" transform="translate(15.052 31.597)" fill="none" stroke="#f53c37" stroke-linejoin="round" stroke-miterlimit="10" stroke-width="3.819"/>
        <path id="Path_1506" data-name="Path 1506" d="M36.173-211.067h82.813" transform="translate(31.172 23.33)" fill="none" stroke="#f53c37" stroke-linejoin="round" stroke-miterlimit="10" stroke-width="3.819"/>
        <path id="Path_1507" data-name="Path 1507" d="M35.385-194.612H118.2" transform="translate(30.456 38.301)" fill="none" stroke="#f53c37" stroke-linejoin="round" stroke-miterlimit="10" stroke-width="3.819"/>
        <path id="Path_1508" data-name="Path 1508" d="M1.909-207.959H50.018" transform="translate(0 26.158)" fill="none" stroke="#f53c37" stroke-linejoin="round" stroke-miterlimit="10" stroke-width="3.819"/>
        <path id="Path_1509" data-name="Path 1509" d="M121.382-166.241h89.586V-182.5H121.382Z" transform="translate(108.694 49.323)" fill="#fff" stroke="#000" stroke-linejoin="round" stroke-miterlimit="10" stroke-width="3" fill-rule="evenodd"/>
        <path id="Path_1510" data-name="Path 1510" d="M121.382-145.184h89.586V-161.44H121.382Z" transform="translate(108.694 68.48)" fill="#fff" stroke="#000" stroke-linejoin="round" stroke-miterlimit="10" stroke-width="3" fill-rule="evenodd"/>
        <path id="Path_1511" data-name="Path 1511" d="M121.382-124.126h89.586v-16.256H121.382Z" transform="translate(108.694 87.638)" fill="#fff" stroke="#000" stroke-linejoin="round" stroke-miterlimit="10" stroke-width="3" fill-rule="evenodd"/>
        <path id="Path_1512" data-name="Path 1512" d="M121.382-103.069h89.586v-16.256H121.382Z" transform="translate(108.694 106.795)" fill="#fff" stroke="#000" stroke-linejoin="round" stroke-miterlimit="10" stroke-width="3" fill-rule="evenodd"/>
        <path id="Path_1513" data-name="Path 1513" d="M123.9-223.882a38.729,38.729,0,0,1,38.711,38.709A38.729,38.729,0,0,1,123.9-146.462a38.728,38.728,0,0,1-38.711-38.711A38.728,38.728,0,0,1,123.9-223.882Z" transform="translate(75.766 11.672)" fill="#fff" stroke="#000" stroke-linejoin="round" stroke-miterlimit="10" stroke-width="3" fill-rule="evenodd"/>
        <path id="Path_1514" data-name="Path 1514" d="M110.354-216.513l-4.895,24.636,24.371,13.37" transform="translate(94.207 18.376)" fill="none" stroke="#000" stroke-linejoin="round" stroke-miterlimit="10" stroke-width="3"/>
        <path id="Path_1515" data-name="Path 1515" d="M105.459-218.491v-11.317" transform="translate(94.207 6.28)" fill="none" stroke="#000" stroke-linejoin="round" stroke-miterlimit="10" stroke-width="3"/>
        <path id="Path_1516" data-name="Path 1516" d="M97.531-229.808h30.284" transform="translate(86.994 6.28)" fill="none" stroke="#000" stroke-linejoin="round" stroke-miterlimit="10" stroke-width="3"/>
      </g>
      <g id="Group_196" data-name="Group 196" transform="translate(-17445.338 8553.373) rotate(-90)">
        <path id="Path_1185" data-name="Path 1185" d="M47.69-51.46H153.241" transform="translate(39.508 227.996)" fill="none" stroke="#000" stroke-linecap="round" stroke-linejoin="round" stroke-width="3"/>
        <path id="Path_1186" data-name="Path 1186" d="M47.69-38.493H153.241" transform="translate(39.508 239.087)" fill="none" stroke="#000" stroke-linecap="round" stroke-linejoin="round" stroke-width="3"/>
        <path id="Path_1187" data-name="Path 1187" d="M47.69-25.527H153.241" transform="translate(39.508 250.177)" fill="none" stroke="#000" stroke-linecap="round" stroke-linejoin="round" stroke-width="3"/>
      </g>
      <path id="Path_1188" data-name="Path 1188" d="M292.59-54.957a17.338,17.338,0,0,1,17.33,17.33A17.339,17.339,0,0,1,292.59-20.3a17.338,17.338,0,0,1-17.33-17.33A17.338,17.338,0,0,1,292.59-54.957Z" transform="translate(-17590.244 7929.785)" fill="none" stroke="#000" stroke-linecap="round" stroke-linejoin="round" stroke-width="3"/>
      <path id="Path_1189" data-name="Path 1189" d="M303.91-257.676l-6.659,16.214,13.364,11.343-17.479-1.322-6.658,16.215-4.144-17.032-17.479-1.321,14.918-9.2-4.144-17.032,13.363,11.343Z" transform="translate(-16959.805 8129.678)" fill="red" stroke="#000" stroke-linecap="round" stroke-linejoin="round" stroke-width="3" fill-rule="evenodd"/>
    </g>
  </g>
</svg>
