<svg xmlns="http://www.w3.org/2000/svg" width="545.255" height="514.33" viewBox="0 0 545.255 514.33">
  <g id="Group_368" data-name="Group 368" transform="translate(-1264 -212.163)">
    <g id="Group_323" data-name="Group 323" transform="translate(1264 842.665)">
      <path id="Path_2518" data-name="Path 2518" d="M89.787-580.215H547.033v-48.55H89.787Z" transform="translate(-16.629)" fill="#fff" stroke="#f53c37" stroke-linecap="round" stroke-linejoin="round" stroke-width="3.472" fill-rule="evenodd"/>
      <path id="Path_2519" data-name="Path 2519" d="M62.652-312.173h169.19v-157.5H62.652Z" transform="translate(-11.603 -29.464)" fill="#fff" stroke="#f53c37" stroke-linecap="round" stroke-linejoin="round" stroke-width="3.472" fill-rule="evenodd"/>
      <path id="Path_2520" data-name="Path 2520" d="M135.8-434.861h37.979v-8.459H135.8Z" transform="translate(-25.151 -34.345)" fill-rule="evenodd"/>
      <path id="Path_2521" data-name="Path 2521" d="M135.8-369.849h37.979v-8.459H135.8Z" transform="translate(-25.151 -46.385)" fill-rule="evenodd"/>
      <path id="Path_2522" data-name="Path 2522" d="M135.8-304.837h37.979V-313.3H135.8Z" transform="translate(-25.151 -58.426)" fill-rule="evenodd"/>
      <path id="Path_2523" data-name="Path 2523" d="M166.733-592.858H504.185v-12.921H166.733Z" transform="translate(-30.879 -4.257)" fill-rule="evenodd"/>
      <path id="Path_2524" data-name="Path 2524" d="M98.463-455.949a13.815,13.815,0,0,1,13.808,13.808,13.815,13.815,0,0,1-13.808,13.808,13.814,13.814,0,0,1-13.808-13.808A13.815,13.815,0,0,1,98.463-455.949Z" transform="translate(-15.678 -32.006)" fill-rule="evenodd"/>
      <path id="Path_2525" data-name="Path 2525" d="M98.463-390.937a13.815,13.815,0,0,1,13.808,13.808A13.815,13.815,0,0,1,98.463-363.32a13.815,13.815,0,0,1-13.808-13.808A13.815,13.815,0,0,1,98.463-390.937Z" transform="translate(-15.678 -44.047)" fill-rule="evenodd"/>
      <path id="Path_2526" data-name="Path 2526" d="M98.463-325.924a13.815,13.815,0,0,1,13.808,13.808,13.815,13.815,0,0,1-13.808,13.808,13.815,13.815,0,0,1-13.808-13.808A13.814,13.814,0,0,1,98.463-325.924Z" transform="translate(-15.678 -56.087)" fill-rule="evenodd"/>
      <path id="Path_2527" data-name="Path 2527" d="M129.393-615.669A13.814,13.814,0,0,1,143.2-601.861a13.815,13.815,0,0,1-13.808,13.808,13.815,13.815,0,0,1-13.808-13.808A13.815,13.815,0,0,1,129.393-615.669Z" transform="translate(-21.407 -2.426)" fill-rule="evenodd"/>
      <path id="Path_2528" data-name="Path 2528" d="M170.1-41.385H549.112V-216.876H170.1Z" transform="translate(-31.503 -76.283)" fill="#fff" stroke="#000" stroke-linejoin="round" stroke-width="2.991"/>
      <path id="Path_2529" data-name="Path 2529" d="M428.958-10.192l50.888-38.26,50.891,38.26Z" transform="translate(-79.444 -107.476)" fill="#fff" stroke="#000" stroke-linejoin="round" stroke-width="2.991"/>
      <path id="Path_2530" data-name="Path 2530" d="M264.259-17.6,358.5-88.443,452.733-17.6Z" transform="translate(-48.941 -100.069)"/>
      <path id="Path_2531" data-name="Path 2531" d="M192.95-13.115l68-51.121,68,51.121Z" transform="translate(-35.735 -104.552)" fill="#f53c37"/>
      <path id="Path_2532" data-name="Path 2532" d="M124.423-83.293H198.86v-4.523H124.423Z" transform="translate(-23.043 -100.185)"/>
      <path id="Path_2533" data-name="Path 2533" d="M158.306-55.54h74.437v-4.523H158.306Z" transform="translate(-29.319 -105.325)"/>
      <path id="Path_2534" data-name="Path 2534" d="M89.787-69.417h55.829v-4.523H89.787Z" transform="translate(-16.629 -102.755)"/>
      <path id="Path_2535" data-name="Path 2535" d="M141.2-155.434a25.707,25.707,0,0,1-25.706,25.706,25.708,25.708,0,0,1-25.708-25.706,25.708,25.708,0,0,1,25.708-25.707A25.707,25.707,0,0,1,141.2-155.434Z" transform="translate(-16.629 -82.901)" fill="#f53c37"/>
      <path id="Path_2536" data-name="Path 2536" d="M125.324-142.825a11.29,11.29,0,0,1-8.063,3.379,11.3,11.3,0,0,1-8.064-3.379c-5.857,2.355-9.876,7.637-9.876,13.23,0,.035,0,.071,0,.111a25.612,25.612,0,0,0,17.936,7.3,25.609,25.609,0,0,0,17.935-7.3c0-.04,0-.076,0-.111C135.2-135.188,131.182-140.47,125.324-142.825Z" transform="translate(-18.394 -89.998)" fill="#fff"/>
      <path id="Path_2537" data-name="Path 2537" d="M119.428-162.9a8.4,8.4,0,0,0-8.4,8.4,8.4,8.4,0,0,0,8.4,8.4,8.4,8.4,0,0,0,8.4-8.4A8.4,8.4,0,0,0,119.428-162.9Z" transform="translate(-20.562 -86.28)" fill="#fff"/>
      <path id="Path_2538" data-name="Path 2538" d="M232.575-348.3l-11.066,6.389,15.8,27.193-8.013,4.7,12.073,20.889,3.39-1.957,3.874,6.71,3.39-1.957,3.874,6.71,3.39-1.957,4.032,6.984,34.295-19.8-4.032-6.984,3.389-1.957-5.9-10.212,3.39-1.957-13.973-24.069-3.206,1.851-1.957-3.39-6.6,3.811-1.957-3.389-10.793,6.231-1.957-3.39-10.168,5.871Z" transform="translate(-26.028 -31.481)" fill="#fff" fill-rule="evenodd"/>
      <path id="Path_2539" data-name="Path 2539" d="M227.11-353.34l-6.868,3.966,1.957,3.389,6.868-3.965Zm36.2,6.457-10.793,6.231-1.957-3.389-10.168,5.87-7.931-13.736-3.389,1.957,17.792,30.818,3.39-1.957-7.9-13.692,10.168-5.871,7.9,13.692,3.39-1.957-5.948-10.3,7.4-4.274Zm1.957,3.39,7.979,13.821,3.39-1.957-6.022-10.431,3.211-1.854-1.957-3.39ZM232.61-320.123l-6.779,3.914,1.956,3.388-3.38,1.952,12.064,20.895,3.389-1.957L227.8-312.825l6.77-3.909,9.913,17.17,3.389-1.957L222.2-345.985l-3.389,1.957Zm14.513,32.945-3.874-6.71-3.39,1.957,3.874,6.71Zm7.264,4.753-3.874-6.71-3.39,1.957,3.875,6.71Zm24.6-59.956-1.957-3.388-3.211,1.854,1.957,3.39,3.206-1.851,13.916,24.1-3.333,1.924,5.9,10.212-3.389,1.957L296.1-297.2l3.389-1.957-4.032-6.984,3.39-1.957-5.9-10.212,3.332-1.924-13.916-24.1ZM261.81-277.4l-4.032-6.984-3.39,1.957,4.032,6.984Zm34.332-19.821L261.8-277.392l1.957,3.39L298.1-293.829Z" transform="translate(-24.524 -28.671)" fill="#140e16" fill-rule="evenodd"/>
      <path id="Path_2540" data-name="Path 2540" d="M406.577-387.434l72.649-125.84,62.951,36.346-72.64,125.84Z" transform="translate(-75.299 -21.389)" fill="#fbb928"/>
      <path id="Path_2541" data-name="Path 2541" d="M630.817-392.386,558.123-518.269A36.344,36.344,0,0,0,509-533.415a36.352,36.352,0,0,0-15.145,49.121c.411.779.85,1.539,1.315,2.29l72.694,125.885a36.349,36.349,0,0,0,49.47,13.964,36.349,36.349,0,0,0,13.965-49.47c-.161-.287-.323-.564-.483-.841v.081Z" transform="translate(-90.682 -16.877)" fill="#4d7cbe"/>
      <path id="Path_2542" data-name="Path 2542" d="M437.389-381.48a36.347,36.347,0,0,1,36.347,36.346,36.347,36.347,0,0,1-36.347,36.347,36.347,36.347,0,0,1-36.346-36.347,36.347,36.347,0,0,1,36.346-36.346" transform="translate(-74.274 -45.798)" fill="#2db061"/>
      <path id="Path_2543" data-name="Path 2543" d="M0-420.147H102.1v-95.045H0Z" transform="translate(0 -21.034)" fill="#f53c37" fill-rule="evenodd"/>
    </g>
  </g>
</svg>
