<?xml version="1.0" encoding="UTF-8" standalone="no"?><!DOCTYPE svg PUBLIC "-//W3C//DTD SVG 1.1//EN" "http://www.w3.org/Graphics/SVG/1.1/DTD/svg11.dtd"><svg width="100%" height="100%" viewBox="0 0 1311 881" version="1.1" xmlns="http://www.w3.org/2000/svg" xmlns:xlink="http://www.w3.org/1999/xlink" xml:space="preserve" xmlns:serif="http://www.serif.com/" style="fill-rule:evenodd;clip-rule:evenodd;stroke-linecap:round;stroke-linejoin:round;"><g id="Group_173"><path id="Path_1386" d="M809.654,682.725l0,26.596l-219.871,-0l0,26.542l516.009,-0l-0,-26.542l-219.871,-0l-0,-26.596l305.683,0l0,-477.379l-687.637,-0l-0,477.379l305.687,0Z" style="fill:#fff;stroke:#000;stroke-width:8.33px;"/><rect id="Path_1387" x="526.167" y="226.983" width="643.242" height="434.108" style="fill:#fff;stroke:#000;stroke-width:8.33px;"/><path id="Path_1388" d="M438.933,254.879c-0.002,-21.686 -17.847,-39.529 -39.533,-39.529l-353.617,0c-21.685,-0 -39.531,17.843 -39.533,39.529l0,441.45c0,21.688 17.846,39.534 39.533,39.534l353.617,-0c21.687,-0 39.533,-17.846 39.533,-39.534l0,-441.45Z" style="fill:#fff;stroke:#000;stroke-width:8.33px;"/><path id="Path_1389" d="M393.829,294.587c0,-10.48 -4.168,-20.543 -11.579,-27.954c-7.411,-7.411 -17.473,-11.579 -27.954,-11.579l-263.409,0c-10.48,0 -20.543,4.168 -27.954,11.579c-7.411,7.411 -11.579,17.474 -11.579,27.954l0,247.809c-0,10.481 4.168,20.543 11.579,27.954c7.411,7.412 17.473,11.58 27.954,11.579l263.413,0c10.481,0.001 20.544,-4.167 27.954,-11.579c7.412,-7.411 11.58,-17.473 11.579,-27.954l-0.004,-247.809Z" style="fill:#fff;stroke:#000;stroke-width:8.33px;"/><path id="Path_1390" d="M874.967,478.625l-39.063,0" style="fill:none;fill-rule:nonzero;stroke:#f53c37;stroke-width:8.33px;stroke-linecap:butt;"/><path id="Path_1391" d="M925.588,409.163l-133.467,-0" style="fill:none;fill-rule:nonzero;stroke:#f53c37;stroke-width:8.33px;stroke-linecap:butt;"/><path id="Path_1392" d="M911.15,430.954l-113.879,0" style="fill:none;fill-rule:nonzero;stroke:#f53c37;stroke-width:8.33px;stroke-linecap:butt;"/><path id="Path_1393" d="M834.821,452.379l-0,-65.037" style="fill:none;fill-rule:nonzero;stroke:#f53c37;stroke-width:8.33px;stroke-linecap:butt;"/><path id="Path_1394" d="M878.325,452.379l0,-65.037" style="fill:none;fill-rule:nonzero;stroke:#f53c37;stroke-width:8.33px;stroke-linecap:butt;"/><path id="Path_1395" d="M779.588,387.713l158.308,-0l-37.329,65.037l-94.375,0l-26.604,-65.037Z" style="fill:none;fill-rule:nonzero;stroke:#f53c37;stroke-width:8.33px;"/><path id="Path_1396" d="M888.237,465.35c-7.28,0.005 -13.268,5.995 -13.27,13.275c0.002,7.279 5.991,13.269 13.27,13.271c7.281,-0.002 13.271,-5.991 13.275,-13.271c-0.004,-7.281 -5.994,-13.27 -13.274,-13.275Z" style="fill:none;fill-rule:nonzero;stroke:#f53c37;stroke-width:8.33px;"/><path id="Path_1397" d="M822.633,465.35c-7.28,0.005 -13.268,5.995 -13.271,13.275c0.003,7.279 5.992,13.269 13.271,13.271c7.28,-0.002 13.269,-5.992 13.271,-13.271c-0.002,-7.28 -5.991,-13.27 -13.271,-13.275Z" style="fill:none;fill-rule:nonzero;stroke:#f53c37;stroke-width:8.33px;"/><path id="Path_1398" d="M797.2,387.712l-15.696,-42.629l-35.121,0" style="fill:none;fill-rule:nonzero;stroke:#f53c37;stroke-width:8.33px;"/><path id="Path_1399" d="M471.8,661.471l103.933,-126.35l168.75,93.942l375.65,-0" style="fill:none;fill-rule:nonzero;stroke:#000;stroke-width:8.33px;"/><path id="Path_1400" d="M556.346,629.063l93.825,-95.309l278.75,68.379l367.462,-458.45" style="fill:none;fill-rule:nonzero;stroke:#f53c37;stroke-width:36.12px;stroke-linecap:butt;"/><path id="Path_1401" d="M576.483,806.025l-67.971,-67.954l-67.975,67.954l67.975,67.975l67.971,-67.975Z" style="fill:none;fill-rule:nonzero;stroke:#f53c37;stroke-width:8.33px;"/><path id="Path_1402" d="M166.954,6.267c37.278,0.016 67.95,30.68 67.975,67.958c-0.016,37.284 -30.691,67.959 -67.975,67.975c-37.282,-0.018 -67.955,-30.693 -67.971,-67.975c0.025,-37.276 30.695,-67.94 67.971,-67.958Z" style="fill:none;fill-rule:nonzero;stroke:#000;stroke-width:8.33px;"/><path id="Path_1403" d="M296.804,410.483l-139.166,0l24.583,61.25l90,0l24.583,-61.25Z" style="fill:none;fill-rule:nonzero;stroke:#000;stroke-width:8.33px;"/><path id="Path_1404" d="M195.096,410.483l-0,61.25" style="fill:none;fill-rule:nonzero;stroke:#000;stroke-width:8.33px;"/><path id="Path_1405" d="M228.233,410.483l0,61.25" style="fill:none;fill-rule:nonzero;stroke:#000;stroke-width:8.33px;"/><path id="Path_1406" d="M261.371,410.483l-0,61.25" style="fill:none;fill-rule:nonzero;stroke:#000;stroke-width:8.33px;"/><path id="Path_1407" d="M287.558,433.508l-118.654,0" style="fill:none;fill-rule:nonzero;stroke:#000;stroke-width:8.33px;"/><path id="Path_1408" d="M279.025,454.767l-103.608,-0" style="fill:none;fill-rule:nonzero;stroke:#000;stroke-width:8.33px;"/><path id="Path_1409" d="M251.629,410.467l-14.312,-52.63" style="fill:none;fill-rule:nonzero;stroke:#000;stroke-width:8.33px;"/><path id="Path_1410" d="M204.838,410.467l14.312,-52.63" style="fill:none;fill-rule:nonzero;stroke:#000;stroke-width:8.33px;"/><path id="Path_1411" d="M227.221,323.35c0.082,-173.916 143.167,-317.001 317.083,-317.083c194.938,-0 328.367,140.179 317.083,335.121" style="fill:none;fill-rule:nonzero;stroke:#f53c37;stroke-width:8.33px;"/><path id="Path_1412" d="M910.792,279.088l-49.413,62.283l-49.408,-62.284" style="fill:none;fill-rule:nonzero;stroke:#f53c37;stroke-width:8.33px;"/><rect id="Path_1413" x="74.292" y="619.242" width="53.087" height="41.85" style="fill:none;fill-rule:nonzero;stroke:#000;stroke-width:8.33px;"/><rect id="Path_1414" x="279.292" y="629.708" width="99.167" height="20.925" style="fill:none;fill-rule:nonzero;stroke:#000;stroke-width:8.33px;"/></g></svg>