<?xml version="1.0" encoding="UTF-8" standalone="no"?><!DOCTYPE svg PUBLIC "-//W3C//DTD SVG 1.1//EN" "http://www.w3.org/Graphics/SVG/1.1/DTD/svg11.dtd"><svg width="100%" height="100%" viewBox="0 0 44534 41667" version="1.1" xmlns="http://www.w3.org/2000/svg" xmlns:xlink="http://www.w3.org/1999/xlink" xml:space="preserve" xmlns:serif="http://www.serif.com/" style="fill-rule:evenodd;clip-rule:evenodd;stroke-linecap:round;stroke-linejoin:round;"><g id="Artboard1"></g><rect id="Artboard2" x="0" y="0" width="44533.3" height="41666.7" style="fill:none;"/><g id="Artboard21" serif:id="Artboard2"><path id="Path_1462" d="M28831.8,10055.7l-18920.9,-0l0,22236.8l32031.1,0l0,-14307.9" style="fill:none;fill-rule:nonzero;stroke:#000;stroke-width:366.37px;"/><path id="Path_1463" d="M28660.7,11063.3l-17715.8,0l0,20221.4l29963.1,-0l0,-16240.6" style="fill:none;fill-rule:nonzero;stroke:#000;stroke-width:366.37px;"/><rect id="Path_1464" x="14460.2" y="14618.6" width="18980.1" height="1422.01" style="fill:none;fill-rule:nonzero;stroke:#f00;stroke-width:366.37px;"/><rect id="Path_14641" serif:id="Path_1464" x="23166.9" y="33402.3" width="6627.17" height="2830.88" style="fill:none;fill-rule:nonzero;stroke:#f00;stroke-width:366.37px;"/><rect id="Path_14642" serif:id="Path_1464" x="29783.4" y="33402.3" width="6627.17" height="2830.88" style="fill:none;fill-rule:nonzero;stroke:#f00;stroke-width:366.37px;"/><rect id="Path_14643" serif:id="Path_1464" x="27588.3" y="30571.4" width="6627.17" height="2830.88" style="fill:none;fill-rule:nonzero;stroke:#f00;stroke-width:366.37px;"/><rect id="Path_14644" serif:id="Path_1464" x="33206.4" y="36261.8" width="6627.17" height="2830.88" style="fill:none;fill-rule:nonzero;stroke:#f00;stroke-width:366.37px;"/><rect id="Path_14645" serif:id="Path_1464" x="26579.2" y="36261.8" width="6627.17" height="2830.88" style="fill:none;fill-rule:nonzero;stroke:#f00;stroke-width:366.37px;"/><rect id="Path_14646" serif:id="Path_1464" x="19952.1" y="36261.8" width="6627.17" height="2830.88" style="fill:none;fill-rule:nonzero;stroke:#f00;stroke-width:366.37px;"/><rect id="Path_14647" serif:id="Path_1464" x="14460.2" y="17542.2" width="18980.1" height="789.87" style="fill:none;fill-rule:nonzero;stroke:#121212;stroke-width:296.35px;"/><rect id="Path_14648" serif:id="Path_1464" x="14460.2" y="19391.8" width="18980.1" height="789.87" style="fill:none;fill-rule:nonzero;stroke:#121212;stroke-width:296.35px;"/><rect id="Path_14649" serif:id="Path_1464" x="14460.2" y="21241.4" width="18980.1" height="789.87" style="fill:none;fill-rule:nonzero;stroke:#121212;stroke-width:296.35px;"/><rect id="Path_146410" serif:id="Path_1464" x="14460.2" y="23091" width="18980.1" height="789.87" style="fill:none;fill-rule:nonzero;stroke:#121212;stroke-width:296.35px;"/><rect id="Path_146411" serif:id="Path_1464" x="14460.2" y="24940.6" width="18980.1" height="789.87" style="fill:none;fill-rule:nonzero;stroke:#121212;stroke-width:296.35px;"/><rect id="Path_146412" serif:id="Path_1464" x="14460.2" y="26790.2" width="18980.1" height="789.87" style="fill:none;fill-rule:nonzero;stroke:#121212;stroke-width:296.35px;"/><path id="Path_1465" d="M5986.84,2202.96c1520.05,0.536 2770.7,1251.18 2771.24,2771.24c-0.536,1520.05 -1251.18,2770.7 -2771.24,2771.24c-1520.05,-0.535 -2770.7,-1251.18 -2771.24,-2771.24c0.535,-1520.05 1251.18,-2770.7 2771.24,-2771.24Z" style="fill:none;fill-rule:nonzero;stroke:#000;stroke-width:366.37px;"/><path id="Path_1466" d="M8605.59,4475.15c3328.53,1.59 6067.01,2740.07 6068.6,6068.6c-1.561,3328.55 -2740.05,6067.06 -6068.6,6068.65c-3328.65,-1.445 -6067.3,-2740 -6068.86,-6068.65c1.59,-3328.63 2740.23,-6067.15 6068.86,-6068.6Z" style="fill:none;fill-rule:nonzero;stroke:#000;stroke-width:326.78px;stroke-dasharray:980.35,1633.92,0,0;"/><path id="Path_1468" d="M3372.19,34644.7l6947.64,0" style="fill:none;fill-rule:nonzero;stroke:#000;stroke-width:366.37px;"/><path id="Path_1469" d="M3372.19,36228.2l6947.64,-0" style="fill:none;fill-rule:nonzero;stroke:#000;stroke-width:366.37px;"/><path id="Path_1470" d="M3372.19,37811.8l6947.64,0" style="fill:none;fill-rule:nonzero;stroke:#000;stroke-width:366.37px;"/><path d="M35210.6,23367.9l580.217,-386.811l580.216,386.811" style="fill:none;stroke:#121212;stroke-width:257.87px;stroke-linejoin:miter;stroke-miterlimit:10;"/><path d="M35790.9,29572.9l-0,-6591.81" style="fill:none;stroke:#121212;stroke-width:257.87px;stroke-miterlimit:1.5;"/><path d="M37193.1,21715.8l580.217,-386.811l580.217,386.811" style="fill:none;stroke:#f53c37;stroke-width:257.87px;stroke-linejoin:miter;stroke-miterlimit:10;"/><path d="M37773.3,27920.8c-0,0 -0,-5583.85 -0,-6591.81" style="fill:none;stroke:#f53c37;stroke-width:257.87px;stroke-miterlimit:1.5;"/><path id="Path_1480" d="M37691.3,15396.1c0.49,-14.037 0.736,-28.082 0.736,-42.128c-0,-645.777 -518.702,-1182.82 -1164.09,-1205.25c-14.035,-0.49 -28.079,-0.736 -42.123,-0.736c-645.689,0 -1182.64,518.666 -1205.01,1163.97c-0.494,14.08 -0.741,28.166 -0.741,42.254c0,645.599 518.521,1182.51 1163.73,1205c14.081,0.494 28.169,0.741 42.258,0.741c645.687,-0 1182.68,-518.558 1205.24,-1163.85Z" style="fill:none;fill-rule:nonzero;stroke:#121212;stroke-width:366.37px;"/><path id="Path_1481" d="M37417.9,16119.5l772.435,828.245c59.418,64.16 55.843,165.739 -7.939,225.563c-64.129,59.676 -165.957,56.152 -225.807,-7.815l-772.068,-828.368" style="fill:none;fill-rule:nonzero;stroke:#121212;stroke-width:366.37px;"/><g><path d="M42015.9,11670.8c0,-0 -915.186,1872.37 -3342.42,1872.37c-2427.24,0 -4127.85,-1872.37 -4127.85,-1872.37" style="fill:none;stroke:#f53c37;stroke-width:402.23px;stroke-miterlimit:1.5;"/><path d="M40790,10275.6l-6810.89,-0l0,-973.964l6391.45,-0" style="fill:none;stroke:#f53c37;stroke-width:402.23px;stroke-miterlimit:1.5;"/><path d="M39005.7,4704.15c0,-0 -3878.96,-479.885 -4460.12,3620.67" style="fill:none;stroke:#f53c37;stroke-width:402.23px;stroke-miterlimit:1.5;"/><path d="M42940,11670.8l-12854.8,-0l2114.64,-1762.2c0,-0 323.071,-5433.46 5081.02,-5433.46c5518.37,0 5051.65,5868.16 5051.65,5868.16l607.483,592.75l-0,734.749Z" style="fill:none;stroke:#f53c37;stroke-width:402.23px;stroke-miterlimit:1.5;"/></g></g></svg>