<?xml version="1.0" encoding="UTF-8" standalone="no"?><!DOCTYPE svg PUBLIC "-//W3C//DTD SVG 1.1//EN" "http://www.w3.org/Graphics/SVG/1.1/DTD/svg11.dtd"><svg width="100%" height="100%" viewBox="0 0 21475 13367" version="1.1" xmlns="http://www.w3.org/2000/svg" xmlns:xlink="http://www.w3.org/1999/xlink" xml:space="preserve" xmlns:serif="http://www.serif.com/" style="fill-rule:evenodd;clip-rule:evenodd;stroke-linecap:round;stroke-linejoin:round;"><g id="Group_215"><g><g id="Group_137"><path id="Path_1322" d="M18255.9,7908.28l-1516.88,4405.32l3058.32,1053.06l1516.88,-4405.32l-3058.32,-1053.06Z" style="fill:none;stroke:#fff;stroke-width:40.56px;"/><path id="Path_1351" d="M18458.6,8803.68l2144.68,738.475" style="fill:none;fill-rule:nonzero;stroke:#fff;stroke-width:40.56px;stroke-linecap:butt;stroke-linejoin:miter;"/><path id="Path_1352" d="M18258.7,9384.21l2144.69,738.476" style="fill:none;fill-rule:nonzero;stroke:#f63d37;stroke-width:40.56px;stroke-linecap:butt;stroke-linejoin:miter;"/><path id="Path_1353" d="M18058.8,9964.76l2144.68,738.475" style="fill:none;fill-rule:nonzero;stroke:#fff;stroke-width:40.56px;stroke-linecap:butt;stroke-linejoin:miter;"/><path id="Path_1354" d="M17849.8,10571.7l2144.69,738.472" style="fill:none;fill-rule:nonzero;stroke:#fff;stroke-width:40.56px;stroke-linecap:butt;stroke-linejoin:miter;"/><path id="Path_1355" d="M17649.9,11152.3l2144.69,738.475" style="fill:none;fill-rule:nonzero;stroke:#fff;stroke-width:40.56px;stroke-linecap:butt;stroke-linejoin:miter;"/><path id="Path_1356" d="M17450,11732.8l2144.68,738.475" style="fill:none;fill-rule:nonzero;stroke:#fff;stroke-width:40.56px;stroke-linecap:butt;stroke-linejoin:miter;"/></g><g id="Group_129"><path id="Path_1322-2" d="M18139,2582.19l729.738,3754.17l2606.25,-506.602l-729.738,-3754.17l-2606.25,506.602Z" style="fill:none;stroke:#fff;stroke-width:40.56px;"/><path id="Path_1351-2" d="M18650.6,3135.49l1827.68,-355.266" style="fill:none;fill-rule:nonzero;stroke:#fff;stroke-width:40.56px;stroke-linecap:butt;stroke-linejoin:miter;"/><path id="Path_1352-2" d="M18746.7,3630.24l1827.68,-355.265" style="fill:none;fill-rule:nonzero;stroke:#fff;stroke-width:40.56px;stroke-linecap:butt;stroke-linejoin:miter;"/><path id="Path_1353-2" d="M18842.9,4124.98l1827.68,-355.266" style="fill:none;fill-rule:nonzero;stroke:#fff;stroke-width:40.56px;stroke-linecap:butt;stroke-linejoin:miter;"/><path id="Path_1354-2" d="M18943.4,4642.21l1827.68,-355.265" style="fill:none;fill-rule:nonzero;stroke:#fff;stroke-width:40.56px;stroke-linecap:butt;stroke-linejoin:miter;"/><path id="Path_1355-2" d="M19039.6,5136.95l1827.68,-355.265" style="fill:none;fill-rule:nonzero;stroke:#f63d37;stroke-width:40.56px;stroke-linecap:butt;stroke-linejoin:miter;"/><path id="Path_1356-2" d="M19135.8,5631.66l1827.68,-355.262" style="fill:none;fill-rule:nonzero;stroke:#fff;stroke-width:40.56px;stroke-linecap:butt;stroke-linejoin:miter;"/></g><path id="Path_1349" d="M1256.87,10598.5l-49.303,-207.712l-212.789,-17.283l182.321,-111.073l-49.264,-207.712l161.979,139.07l182.32,-111.074l-82.207,197.019l161.969,139.079l-212.79,-17.287l-82.236,196.973Z" style="fill:none;stroke:#fff;stroke-width:27.03px;"/><path id="Path_1056" d="M2117.02,13366.7l4071.78,-3299.51l835.535,-2088.92l13914,-8165.82" style="fill:none;fill-rule:nonzero;stroke:#fff;stroke-width:27.03px;"/><path id="Path_1057" d="M0,11993.5l6629.91,-2044.67l3226.09,-6080.98l7496.75,-4525.92" style="fill:none;fill-rule:nonzero;stroke:#f53c37;stroke-width:54.08px;stroke-linecap:butt;"/><path id="Path_1333" d="M8188.02,522.616c593.056,-159.003 1211.91,198.17 1370.91,791.226c159.01,593.06 -198.16,1211.92 -791.223,1370.93c-593.059,159.009 -1211.92,-198.161 -1370.93,-791.223c-0,-0.004 -0.003,-0.01 -0.003,-0.013c-158.689,-593.031 198.361,-1211.66 791.239,-1370.92Z" style="fill-opacity:0;fill-rule:nonzero;stroke:#fff;stroke-width:27.03px;"/><path id="Path_1350" d="M1650.89,6218.3l-174.389,-174.388l-174.388,174.388l174.388,174.388l174.389,-174.388Z" style="fill:#ffd525;fill-rule:nonzero;"/><g id="Group_136"><path id="Path_1357" d="M3838.11,8599.38l0,1299.78" style="fill:none;fill-rule:nonzero;stroke:#fff;stroke-width:40.56px;"/><path id="Path_1358" d="M3541.86,8599.38l0,1299.78" style="fill:none;fill-rule:nonzero;stroke:#fff;stroke-width:40.56px;"/><path id="Path_1359" d="M3245.64,8599.38l-0,1299.78" style="fill:none;fill-rule:nonzero;stroke:#fff;stroke-width:40.56px;"/></g></g></g></svg>