<?xml version="1.0" encoding="UTF-8" standalone="no"?><!DOCTYPE svg PUBLIC "-//W3C//DTD SVG 1.1//EN" "http://www.w3.org/Graphics/SVG/1.1/DTD/svg11.dtd"><svg width="100%" height="100%" viewBox="0 0 7596 4338" version="1.1" xmlns="http://www.w3.org/2000/svg" xmlns:xlink="http://www.w3.org/1999/xlink" xml:space="preserve" xmlns:serif="http://www.serif.com/" style="fill-rule:evenodd;clip-rule:evenodd;stroke-linecap:round;stroke-linejoin:round;"><g id="Group_213"><g id="Group_137"><path id="Path_1322" d="M6595.49,2647.44l-467.532,1357.81l942.635,324.575l467.532,-1357.81l-942.635,-324.575Z" style="fill:#fff;stroke:#fff;stroke-width:12.5px;"/><path id="Path_1351" d="M6657.96,2923.42l661.035,227.613" style="fill:none;fill-rule:nonzero;stroke:#000;stroke-width:12.5px;stroke-linecap:butt;stroke-linejoin:miter;"/><path id="Path_1352" d="M6596.35,3102.35l661.036,227.613" style="fill:none;fill-rule:nonzero;stroke:#f63d37;stroke-width:12.5px;stroke-linecap:butt;stroke-linejoin:miter;"/><path id="Path_1353" d="M6534.74,3281.29l661.035,227.613" style="fill:none;fill-rule:nonzero;stroke:#000;stroke-width:12.5px;stroke-linecap:butt;stroke-linejoin:miter;"/><path id="Path_1354" d="M6470.32,3468.36l661.036,227.612" style="fill:none;fill-rule:nonzero;stroke:#000;stroke-width:12.5px;stroke-linecap:butt;stroke-linejoin:miter;"/><path id="Path_1355" d="M6408.71,3647.3l661.036,227.613" style="fill:none;fill-rule:nonzero;stroke:#000;stroke-width:12.5px;stroke-linecap:butt;stroke-linejoin:miter;"/><path id="Path_1356" d="M6347.1,3826.24l661.035,227.613" style="fill:none;fill-rule:nonzero;stroke:#000;stroke-width:12.5px;stroke-linecap:butt;stroke-linejoin:miter;"/></g><g id="Group_129"><path id="Path_1322-2" d="M6559.47,1005.83l224.92,1157.11l803.298,-156.145l-224.92,-1157.11l-803.298,156.145Z" style="fill:#fff;stroke:#fff;stroke-width:12.5px;"/><path id="Path_1351-2" d="M6717.14,1176.37l563.328,-109.5" style="fill:none;fill-rule:nonzero;stroke:#000;stroke-width:12.5px;stroke-linecap:butt;stroke-linejoin:miter;"/><path id="Path_1352-2" d="M6746.78,1328.86l563.327,-109.5" style="fill:none;fill-rule:nonzero;stroke:#000;stroke-width:12.5px;stroke-linecap:butt;stroke-linejoin:miter;"/><path id="Path_1353-2" d="M6776.42,1481.35l563.327,-109.5" style="fill:none;fill-rule:nonzero;stroke:#000;stroke-width:12.5px;stroke-linecap:butt;stroke-linejoin:miter;"/><path id="Path_1354-2" d="M6807.41,1640.77l563.327,-109.5" style="fill:none;fill-rule:nonzero;stroke:#000;stroke-width:12.5px;stroke-linecap:butt;stroke-linejoin:miter;"/><path id="Path_1355-2" d="M6837.05,1793.26l563.327,-109.5" style="fill:none;fill-rule:nonzero;stroke:#f63d37;stroke-width:12.5px;stroke-linecap:butt;stroke-linejoin:miter;"/><path id="Path_1356-2" d="M6866.69,1945.74l563.327,-109.499" style="fill:none;fill-rule:nonzero;stroke:#000;stroke-width:12.5px;stroke-linecap:butt;stroke-linejoin:miter;"/></g><path id="Path_1349" d="M113.746,2837.67l-15.196,-64.021l-65.586,-5.327l56.195,-34.235l-15.184,-64.021l49.925,42.864l56.195,-34.235l-25.338,60.725l49.922,42.867l-65.586,-5.328l-25.347,60.711Z" style="fill:#fff;stroke:#fff;stroke-width:8.33px;"/><path id="Path_1056" d="M1969.03,3906.6l907.142,-593.75l257.529,-643.846l4288.58,-2516.87" style="fill:none;fill-rule:nonzero;stroke:#fff;stroke-width:8.33px;"/><path id="Path_1057" d="M1902.96,3582.64l1109.17,-306.25l994.346,-1874.28l2310.65,-1394.98" style="fill:none;fill-rule:nonzero;stroke:#f53c37;stroke-width:16.67px;stroke-linecap:butt;"/><path id="Path_1333" d="M3492.37,371.028c182.792,-49.008 373.535,61.08 422.544,243.872c49.01,182.793 -61.077,373.538 -243.871,422.548c-182.793,49.01 -373.538,-61.077 -422.548,-243.871c-0,-0.001 -0.001,-0.003 -0.001,-0.004c-48.911,-182.784 61.139,-373.458 243.876,-422.545Z" style="fill-opacity:0;fill-rule:nonzero;stroke:#fff;stroke-width:8.33px;"/><path id="Path_1350" d="M260.488,1127.08l-53.75,-53.75l-53.75,53.75l53.75,53.75l53.75,-53.75Z" style="fill:#ffd525;fill-rule:nonzero;"/><g id="Group_136"><path id="Path_1357" d="M2151.64,2860.45l-0,400.617" style="fill:none;fill-rule:nonzero;stroke:#fff;stroke-width:12.5px;"/><path id="Path_1358" d="M2060.33,2860.45l0,400.617" style="fill:none;fill-rule:nonzero;stroke:#fff;stroke-width:12.5px;"/><path id="Path_1359" d="M1969.03,2860.45l0,400.617" style="fill:none;fill-rule:nonzero;stroke:#fff;stroke-width:12.5px;"/></g></g></svg>