<?xml version="1.0" encoding="UTF-8" standalone="no"?><!DOCTYPE svg PUBLIC "-//W3C//DTD SVG 1.1//EN" "http://www.w3.org/Graphics/SVG/1.1/DTD/svg11.dtd"><svg width="100%" height="100%" viewBox="0 0 89480 55696" version="1.1" xmlns="http://www.w3.org/2000/svg" xmlns:xlink="http://www.w3.org/1999/xlink" xml:space="preserve" xmlns:serif="http://www.serif.com/" style="fill-rule:evenodd;clip-rule:evenodd;stroke-linecap:round;stroke-linejoin:round;"><g id="Group_215"><g id="Group_137"><path id="Path_1322" d="M71218.3,30804.2l-6320.33,18355.5l12743,4387.75l6320.33,-18355.5l-12743,-4387.75Z" style="fill:none;stroke:#fff;stroke-width:169px;"/><path id="Path_1351" d="M72062.9,34535.1l8936.17,3076.98" style="fill:none;fill-rule:nonzero;stroke:#fff;stroke-width:169px;stroke-linecap:butt;stroke-linejoin:miter;"/><path id="Path_1352" d="M71230,36953.9l8936.21,3076.98" style="fill:none;fill-rule:nonzero;stroke:#f63d37;stroke-width:169px;stroke-linecap:butt;stroke-linejoin:miter;"/><path id="Path_1353" d="M70397.1,39372.9l8936.17,3076.98" style="fill:none;fill-rule:nonzero;stroke:#fff;stroke-width:169px;stroke-linecap:butt;stroke-linejoin:miter;"/><path id="Path_1354" d="M69526.2,41901.8l8936.21,3076.97" style="fill:none;fill-rule:nonzero;stroke:#fff;stroke-width:169px;stroke-linecap:butt;stroke-linejoin:miter;"/><path id="Path_1355" d="M68693.3,44321l8936.21,3076.98" style="fill:none;fill-rule:nonzero;stroke:#fff;stroke-width:169px;stroke-linecap:butt;stroke-linejoin:miter;"/><path id="Path_1356" d="M67860.4,46739.7l8936.17,3076.98" style="fill:none;fill-rule:nonzero;stroke:#fff;stroke-width:169px;stroke-linecap:butt;stroke-linejoin:miter;"/></g><g id="Group_129"><path id="Path_1322-2" d="M72303.1,10759.1l3040.58,15642.4l10859.4,-2110.84l-3040.58,-15642.4l-10859.4,2110.84Z" style="fill:none;stroke:#fff;stroke-width:169px;"/><path id="Path_1351-2" d="M74434.8,13064.5l7615.33,-1480.28" style="fill:none;fill-rule:nonzero;stroke:#fff;stroke-width:169px;stroke-linecap:butt;stroke-linejoin:miter;"/><path id="Path_1352-2" d="M74835.2,15126l7615.33,-1480.27" style="fill:none;fill-rule:nonzero;stroke:#fff;stroke-width:169px;stroke-linecap:butt;stroke-linejoin:miter;"/><path id="Path_1353-2" d="M75236,17187.4l7615.33,-1480.28" style="fill:none;fill-rule:nonzero;stroke:#fff;stroke-width:169px;stroke-linecap:butt;stroke-linejoin:miter;"/><path id="Path_1354-2" d="M75654.8,19342.5l7615.33,-1480.27" style="fill:none;fill-rule:nonzero;stroke:#fff;stroke-width:169px;stroke-linecap:butt;stroke-linejoin:miter;"/><path id="Path_1355-2" d="M76055.6,21404l7615.33,-1480.27" style="fill:none;fill-rule:nonzero;stroke:#f63d37;stroke-width:169px;stroke-linecap:butt;stroke-linejoin:miter;"/><path id="Path_1356-2" d="M76456.5,23465.2l7615.33,-1480.26" style="fill:none;fill-rule:nonzero;stroke:#fff;stroke-width:169px;stroke-linecap:butt;stroke-linejoin:miter;"/></g><path id="Path_1349" d="M5236.96,44160.4l-205.429,-865.467l-886.621,-72.012l759.671,-462.805l-205.266,-865.466l674.912,579.458l759.667,-462.808l-342.53,820.912l674.871,579.496l-886.625,-72.029l-342.65,820.721Z" style="fill:none;stroke:#fff;stroke-width:112.63px;"/><path id="Path_1056" d="M8820.92,55694.6l16965.8,-13748l3481.4,-8703.83l57975,-34024.2" style="fill:none;fill-rule:nonzero;stroke:#fff;stroke-width:112.63px;"/><path id="Path_1333" d="M34116.8,2177.57c2471.07,-662.513 5049.62,825.708 5712.12,3296.78c662.542,2471.08 -825.667,5049.67 -3296.76,5712.21c-2471.08,662.538 -5049.67,-825.671 -5712.21,-3296.76c0,-0.016 -0.012,-0.041 -0.012,-0.054c-661.204,-2470.96 826.504,-5048.58 3296.83,-5712.17l0.029,-0Z" style="fill-opacity:0;fill-rule:nonzero;stroke:#fff;stroke-width:112.63px;"/><path id="Path_1350" d="M6878.71,25909.6l-726.62,-726.616l-726.617,726.616l726.617,726.617l726.62,-726.617Z" style="fill:#ffd525;fill-rule:nonzero;"/><g id="Group_136"><path id="Path_1357" d="M15992.1,35830.8l0,5415.75" style="fill:none;fill-rule:nonzero;stroke:#fff;stroke-width:169px;"/><path id="Path_1358" d="M14757.8,35830.8l0,5415.75" style="fill:none;fill-rule:nonzero;stroke:#fff;stroke-width:169px;"/><path id="Path_1359" d="M13523.5,35830.8l0,5415.75" style="fill:none;fill-rule:nonzero;stroke:#fff;stroke-width:169px;"/></g><path id="Path_1057" d="M2423.97,56690.8l25200.7,-15237.3l13442,-25337.4l31236.5,-18858" style="fill:none;fill-rule:nonzero;stroke:#f53c37;stroke-width:225.33px;stroke-linecap:butt;"/></g></svg>