<?xml version="1.0" encoding="UTF-8" standalone="no"?><!DOCTYPE svg PUBLIC "-//W3C//DTD SVG 1.1//EN" "http://www.w3.org/Graphics/SVG/1.1/DTD/svg11.dtd"><svg width="100%" height="100%" viewBox="0 0 44534 41667" version="1.1" xmlns="http://www.w3.org/2000/svg" xmlns:xlink="http://www.w3.org/1999/xlink" xml:space="preserve" xmlns:serif="http://www.serif.com/" style="fill-rule:evenodd;clip-rule:evenodd;stroke-linejoin:round;stroke-miterlimit:2;"><g id="Artboard1"><path d="M19675.6,15195.6l-4720.27,-0l0,-10210.7c0,-742.207 607.296,-1349.48 1349.47,-1349.48c742.171,-0 1349.47,607.271 1349.47,1349.48l2021.33,10210.7Z" style="fill-rule:nonzero;stroke:#000;stroke-width:161.96px;"/><path d="M32577.6,6651.03l-5746.58,-5746.58l-5746.58,5746.58l5746.58,5746.58l5746.58,-5746.58Z" style="fill:none;stroke:#000;stroke-width:183.6px;stroke-linecap:round;stroke-miterlimit:1.5;"/><path id="Path_1465" d="M13386.3,7690.51c5219.26,1.841 9513.52,4296.07 9515.37,9515.37c-1.841,5219.27 -4296.07,9513.52 -9515.37,9515.37c-5219.27,-1.832 -9513.52,-4296.07 -9515.37,-9515.37c1.841,-5219.26 4296.08,-9513.52 9515.37,-9515.37Z" style="fill:none;fill-rule:nonzero;stroke:#000;stroke-width:297.97px;stroke-linecap:round;stroke-miterlimit:4;"/><path id="Path_1066" d="M9900.62,34897.9l-602.49,1466.58l1208.64,1025.78l-1580.49,-119.41l-602.181,1466.43l-374.822,-1540.35l-1580.8,-119.564l1349.15,-832.523l-374.596,-1540.43l1208.64,1025.93l1348.93,-832.444l0.015,-0.001Z" style="fill:none;fill-rule:nonzero;stroke:#000;stroke-width:229.35px;stroke-linecap:round;stroke-miterlimit:4;"/><path id="Path_1466" d="M35271.5,13860.4c4261.83,2.036 7768.17,3508.37 7770.2,7770.2c-1.998,4261.86 -3508.35,7768.24 -7770.2,7770.28c-4261.98,-1.85 -7768.55,-3508.27 -7770.53,-7770.28c2.036,-4261.96 3508.57,-7768.35 7770.53,-7770.2Z" style="fill:none;fill-rule:nonzero;stroke:#000;stroke-width:202.57px;stroke-linecap:round;stroke-miterlimit:4;stroke-dasharray:607.7,1012.84,0,0;"/><path d="M25368.2,8576.54c0,-489.013 -397.017,-886.03 -886.03,-886.03l-14820.8,-0c-489.014,-0 -886.031,397.017 -886.031,886.03l0,9303.32c0,489.014 397.017,886.031 886.031,886.031l14820.8,-0c489.013,-0 886.03,-397.017 886.03,-886.031l0,-9303.32Z" style="fill:#fff;"/><clipPath id="_clip1"><path d="M25368.2,8576.54c0,-489.013 -397.017,-886.03 -886.03,-886.03l-14820.8,-0c-489.014,-0 -886.031,397.017 -886.031,886.03l0,9303.32c0,489.014 397.017,886.031 886.031,886.031l14820.8,-0c489.013,-0 886.03,-397.017 886.03,-886.031l0,-9303.32Z"/></clipPath><g clip-path="url(#_clip1)"><path d="M7798.86,18210.5c-0,-0 12072.1,-4461.75 16186.9,-4238.22c4114.87,223.535 5183.3,3199.75 5183.3,3199.75l-0,2827.41l-22031,0l660.742,-1788.94Z" style="fill:#f63d37;"/><path d="M26288.6,17468.8c0,0 -9893.23,-4455.74 -13265.4,-4232.51c-3372.2,223.233 -4247.79,3195.44 -4247.79,3195.44l0,2823.6l18054.7,-0l-541.487,-1786.54Z"/><circle cx="20741" cy="10223" r="1579.7" style="fill:#fff;stroke:#000;stroke-width:88.32px;stroke-linecap:round;stroke-miterlimit:1.5;"/></g><path d="M25368.2,8576.54c0,-489.013 -397.017,-886.03 -886.03,-886.03l-14820.8,-0c-489.014,-0 -886.031,397.017 -886.031,886.03l0,9303.32c0,489.014 397.017,886.031 886.031,886.031l14820.8,-0c489.013,-0 886.03,-397.017 886.03,-886.031l0,-9303.32Z" style="fill:none;stroke:#000;stroke-width:142.5px;stroke-linecap:round;stroke-miterlimit:1.5;"/><rect x="21027.3" y="20036.9" width="10426.2" height="482.299" style="fill:#f53c37;"/><rect x="27479.9" y="28394.6" width="7482.27" height="482.299" style="fill:#f53c37;"/><rect x="27479.9" y="34264.8" width="7482.27" height="482.299"/><rect x="21027.3" y="21330.2" width="10426.2" height="201.71" style="fill:#f53c37;"/><rect x="27479.9" y="29688" width="7482.27" height="201.71" style="fill:#f53c37;"/><rect x="27479.9" y="35558.1" width="7482.27" height="201.71"/><rect x="21027.3" y="22207.1" width="10426.2" height="201.71" style="fill:#f53c37;"/><rect x="27479.9" y="30564.8" width="7482.27" height="201.71" style="fill:#f53c37;"/><rect x="27479.9" y="36435" width="7482.27" height="201.71"/><rect x="21027.3" y="23083.9" width="10426.2" height="201.71" style="fill:#f53c37;"/><rect x="27479.9" y="31441.6" width="7482.27" height="201.71" style="fill:#f53c37;"/><rect x="27479.9" y="37311.8" width="7482.27" height="201.71"/><rect x="21027.3" y="23960.7" width="7980.74" height="201.71" style="fill:#f53c37;"/><rect x="27479.9" y="26531.3" width="7980.74" height="201.71" style="fill:#f53c37;"/><rect x="27479.9" y="32318.5" width="5727.32" height="201.71" style="fill:#f53c37;"/><rect x="27479.9" y="38188.7" width="5727.32" height="201.71"/><path d="M7082.18,9615.09l2584.21,3308.81l4264.97,-7430.71" style="fill:none;stroke:#ef3e31;stroke-width:1212.7px;stroke-linecap:round;stroke-miterlimit:1.5;"/><g><path d="M9538.83,26119.1l-6014.49,0c-1263.17,0 -2296.72,1033.5 -2296.72,2296.69l-0,192.245c-0,1263.17 1033.56,2296.67 2296.72,2296.67l3747.9,-0l1256.75,989.886l0,-989.886l1009.84,-0c1263.17,-0 2296.72,-1033.5 2296.72,-2296.67l-0,-192.245c-0,-1263.19 -1033.55,-2296.69 -2296.72,-2296.69Z" style="fill:#f53c37;fill-rule:nonzero;"/><path d="M4758.73,28451.4c0,228.545 -185.284,413.81 -413.731,413.81c-228.642,-0 -413.928,-185.265 -413.928,-413.81c-0,-228.564 185.286,-413.831 413.928,-413.831c228.447,0 413.731,185.267 413.731,413.831Z" style="fill:#fff;fill-rule:nonzero;"/><path d="M6945.42,28451.4c0,228.545 -185.286,413.81 -413.734,413.81c-228.642,-0 -413.928,-185.265 -413.928,-413.81c-0,-228.564 185.286,-413.831 413.928,-413.831c228.448,0 413.734,185.267 413.734,413.831Z" style="fill:#fff;fill-rule:nonzero;"/><path d="M9132.1,28451.4c-0,228.545 -185.287,413.81 -413.929,413.81c-228.447,-0 -413.734,-185.265 -413.734,-413.81c0,-228.564 185.287,-413.831 413.734,-413.831c228.642,0 413.929,185.267 413.929,413.831Z" style="fill:#fff;fill-rule:nonzero;"/></g><g><path d="M10815.3,26120.9l-1269.86,3409.74l4541.31,9931.48l9443.41,-4318.09l-5611.14,-12271.4l-7103.73,3248.24Z" style="fill:#fff;fill-rule:nonzero;stroke:#000;stroke-width:183.64px;"/><path d="M9545.41,29530.7l2137.93,-1141.81l-868.07,-2267.94l-524.011,2858.28l-745.844,551.463Z" style="fill-rule:nonzero;"/><path d="M11267.1,28273.4l-451.835,-2152.46l-1269.86,3409.74l1721.69,-1257.28Z" style="fill:#fff;fill-rule:nonzero;stroke:#000;stroke-width:183.64px;"/><path d="M14946.4,30408.8l-2435.86,1113.84l-343.531,-751.294l2435.89,-1113.85l343.499,751.303Z" style="fill-rule:nonzero;"/><path d="M16186.4,29841.8l-1007.52,460.576l-343.446,-751.14l1007.47,-460.739l343.499,751.303Z" style="fill-rule:nonzero;"/><path d="M18555.8,28758.3l-2147.93,982.114l-343.463,-751.136l2147.89,-982.28l343.498,751.302Z" style="fill-rule:nonzero;"/><path d="M16382.8,31260.1l-3111.2,1422.55l-343.496,-751.129l3111.19,-1422.73l343.501,751.302Z" style="fill-rule:nonzero;"/><path d="M18935.5,30092.8l-2275.83,1040.78l-343.666,-751.265l2276.03,-1040.65l343.464,751.136Z" style="fill-rule:nonzero;"/><path d="M19506,31340.1l-3591.14,1642.24l-343.498,-751.301l3591.01,-1642.04l343.627,751.101Z" style="fill-rule:nonzero;"/></g><g><path d="M28006.3,20180.4l-741.93,-57.228l429.147,567.957c141.794,-6.572 328.927,-93.894 312.783,-510.729Z" style="fill:#f53c37;fill-rule:nonzero;stroke:#000;stroke-width:183.64px;"/><path d="M29084.1,20891.5l-25.434,-28.823l25.434,28.823Z" style="fill:#f7c263;fill-rule:nonzero;stroke:#000;stroke-width:183.64px;"/><path d="M28006.3,20180.4c16.144,416.835 -170.989,504.157 -312.783,510.729l762.613,1009.56c60.394,80.041 132.846,149.695 213.895,207.84c117.519,-42.663 228.842,-115.773 233.677,-242.11c9.901,-270.543 -157.012,-611.899 -157.012,-611.899c-0,-0 290.153,210.403 382.68,88.543c68.804,-90.293 -3.351,-200.39 -45.341,-251.516l-25.434,-28.823l25.434,28.823c31.868,21.912 96.088,30.698 207.04,-91.13c88.058,-96.787 89.629,-309.991 48.155,-511.658c-34.164,-6.299 -68.629,-10.786 -103.572,-13.636l-1229.35,-94.725Z" style="fill:#fff;fill-rule:nonzero;stroke:#000;stroke-width:183.64px;"/><path d="M38205.7,27115.4l484.578,264.843c238.061,130.41 537.088,42.879 667.309,-195.367l392.046,-716.917c130.232,-238.236 42.699,-536.905 -195.531,-667.132l-484.409,-265.025l-863.993,1579.6Z" style="fill:#f53c37;fill-rule:nonzero;stroke:#000;stroke-width:183.64px;"/><path d="M29636.3,20394.2c-93.047,-50.844 -193.283,-86.432 -297.046,-105.47c41.474,201.667 39.903,414.871 -48.155,511.658c-110.952,121.828 -175.172,113.042 -207.04,91.13c41.99,51.126 114.145,161.223 45.341,251.516c-92.527,121.86 -382.68,-88.543 -382.68,-88.543c-0,-0 166.913,341.356 157.012,611.899c-4.835,126.337 -116.158,199.447 -233.677,242.11c32.819,23.495 66.682,45.867 102.426,65.111l9174.54,5000.21l863.811,-1579.77l-9174.53,-4999.85Z" style="fill:#fff;fill-rule:nonzero;stroke:#000;stroke-width:183.64px;"/><path d="M37947,26973.8l258.697,141.561l863.993,-1579.6l-258.879,-141.731l-863.811,1579.77Z" style="fill-rule:nonzero;stroke:#000;stroke-width:183.64px;"/><path d="M29636.3,20394.2c-93.047,-50.844 -193.283,-86.432 -297.046,-105.47c41.474,201.667 39.903,414.871 -48.155,511.658c-21.333,23.359 -40.54,40.673 -58.583,55.245c106.58,60.268 212.838,117.105 315.633,167.948c746.74,368.909 8266.38,4590.43 8938.21,4963.95l324.468,-593.474l-9174.53,-4999.85Z" style="fill-rule:nonzero;stroke:#000;stroke-width:183.64px;"/><path d="M39635.5,26676.9l114.178,-208.939c130.232,-238.236 42.699,-536.905 -195.531,-667.132l-484.409,-265.025l-321.277,587.037c243.833,130.552 609.925,339.741 887.039,554.059Z" style="fill:#f53c37;fill-rule:nonzero;stroke:#000;stroke-width:183.64px;"/></g><rect x="21388.3" y="9483.84" width="3148.06" height="341.045" style="fill-rule:nonzero;"/><g><g><path d="M26535.3,14707.7l-915.358,-10186.7c-44.155,-487.052 -478.724,-885.561 -965.706,-885.561l-8349.35,0c487.096,0 921.665,398.509 965.706,885.561l32,353.458l-6.652,0l890.01,9833.26c44.156,487.097 478.725,885.652 965.821,885.652l8349.24,-0c-487.097,-0 -921.664,-398.555 -965.707,-885.652Z" style="fill:#fff;fill-rule:nonzero;stroke:#000;stroke-width:161.96px;"/><path d="M22356.8,8987.54l-3575.41,-0l-34.521,-381.696l3575.41,0l34.523,381.696Z" style="fill-rule:nonzero;"/><path d="M25289.4,8987.54l-1892.42,-0l-34.523,-381.696l1892.42,0l34.523,381.696Z" style="fill-rule:nonzero;"/><path d="M23155.8,9818.37l-4299.12,0l-34.522,-381.695l4299.12,0l34.522,381.695Z" style="fill-rule:nonzero;"/><path d="M25439.7,10649.3l-6507.86,0l-34.523,-381.695l6507.86,-0l34.522,381.695Z" style="fill-rule:nonzero;"/><path d="M25515,11480.1l-6507.86,0l-34.523,-381.695l6507.86,-0l34.522,381.695Z" style="fill-rule:nonzero;"/><path d="M25590.2,12311.1l-6507.86,-0l-34.638,-381.696l6507.97,0l34.523,381.696Z" style="fill-rule:nonzero;"/><path d="M25665.4,13141.9l-6507.97,-0l-34.522,-381.696l6507.86,0l34.637,381.696Z" style="fill-rule:nonzero;"/></g></g></g></svg>