<?xml version="1.0" encoding="UTF-8" standalone="no"?><!DOCTYPE svg PUBLIC "-//W3C//DTD SVG 1.1//EN" "http://www.w3.org/Graphics/SVG/1.1/DTD/svg11.dtd"><svg width="100%" height="100%" viewBox="0 0 185559 173613" version="1.1" xmlns="http://www.w3.org/2000/svg" xmlns:xlink="http://www.w3.org/1999/xlink" xml:space="preserve" xmlns:serif="http://www.serif.com/" style="fill-rule:evenodd;clip-rule:evenodd;stroke-linecap:round;stroke-linejoin:round;"><g id="Artboard1"><path id="Path_1466" d="M38702.4,59034.1c17757.6,8.484 32367.4,14618.2 32375.8,32375.8c-8.329,17757.8 -14618.1,32367.7 -32375.8,32376.2c-17758.2,-7.708 -32369,-14617.8 -32377.2,-32376.2c8.483,-17758.2 14619,-32368.1 32377.2,-32375.8Z" style="fill:none;fill-rule:nonzero;stroke:#000;stroke-width:844.04px;stroke-dasharray:2532.08,4220.17,0,0;"/><path d="M126365,41860.2l-23944.1,-23944.1l-23944.1,23944.1l23944.1,23944.1l23944.1,-23944.1Z" style="fill:none;stroke:#000;stroke-width:765px;stroke-miterlimit:1.5;"/><path id="Path_1465" d="M96902.7,112728c14165,4.996 25819.5,11659.5 25824.5,25824.5c-4.995,14165 -11659.5,25819.5 -25824.5,25824.5c-14165,-4.971 -25819.5,-11659.4 -25824.5,-25824.5c5,-14165 11659.5,-25819.5 25824.5,-25824.5Z" style="fill:none;fill-rule:nonzero;stroke:#000;stroke-width:1241.54px;"/><path d="M128048,103108c-2429.45,4242.87 -9255.8,13171.3 -9922.46,8511.27c-335.312,-2331.2 -13926.8,-11790.4 -11546.6,-18900.4c601.002,-1794.23 8165.2,-8319.55 12886.7,-10094.7c8825.17,-3320.69 15804.5,-2167.85 15774.4,-1567.12c-84.528,1667.81 -1740.51,4569.15 -2791.26,4958.4c-545.527,205.244 -13282.4,5372.16 -14292.5,8297.45c139.939,103.214 12066.1,4990.12 9891.7,8795.09l0.002,0.004Z" style="fill:#fff;fill-rule:nonzero;stroke:#000;stroke-width:753.79px;stroke-linecap:butt;stroke-miterlimit:2;"/><path d="M143188,157381c691.112,-4996.08 1639.99,-14714.8 2984.02,-19260.2c1670.47,-5658.83 6443.04,-20099.2 6655.08,-24220.5c390.241,-7833.29 -4344.33,-14704.8 -23250.2,-19230.4c-9338.71,-2235.29 -12464.7,6547.83 -14100.1,12247.6c-964.246,3356.18 -8848.5,34669.3 -9118,42640.8c-80.95,2281.07 4580.08,4997.08 11142.2,6538c13174.6,3093.2 25628.3,1701.91 25687,1284.51l-0.016,0.116Z" style="fill:#fff;fill-rule:nonzero;stroke:#000;stroke-width:997.38px;stroke-linecap:butt;stroke-miterlimit:2;"/><path d="M149141,147899c0,0 -7610.17,-1234.14 -8201.29,325.758c-591.221,1559.9 -2470.37,5048 -1596.96,5183.92c867.709,134.438 1908.14,-2604.55 1908.14,-2604.55c-0,0 -923.271,3894.46 -498.771,4251.67c424.342,357.771 896.008,-124.783 896.008,-124.783c0,-0 357.996,595.108 892.675,737.77c534.838,142.096 2101.05,-2779.02 2101.05,-2779.02c0,-0 7592.54,2456.4 7793.17,-1859.23c200.804,-4316.21 -3294,-3131.53 -3294,-3131.53l-0.013,-0.008Z" style="fill:#fff;fill-rule:nonzero;stroke:#000;stroke-width:997.38px;stroke-linecap:butt;stroke-miterlimit:2;"/><path d="M145353,116373c-3012.93,-5557.54 -2197.08,-15717.4 3900.29,-12824.5c3051.73,1445.46 12763.5,11404.8 19226.2,19089.7c1630.58,1939.65 3130.53,3843.08 4370.42,5589.54c4506.62,6354.62 5220,11041.1 3382.96,16933.6c-3430.49,11015.9 -24404,9783.1 -25093,9298.43c-1912.07,-1346.48 -3790.3,-6466.38 -3374.58,-7773.29c212.083,-680.933 13722.8,-8745.1 13722.8,-8745.1c0,0 -1949.68,-2173.92 -4582.88,-5365.38c-239.704,56.45 -8846.58,-11223.3 -11552.2,-16203l0.004,0.041Z" style="fill:#fff;fill-rule:nonzero;stroke:#000;stroke-width:997.38px;stroke-linecap:butt;stroke-miterlimit:2;"/><path d="M139758,98151.8c733.975,194.863 1275.7,827.334 1347.75,1586.05c71.437,762.179 61.117,1861.18 -255.25,3291.27c-679.696,3049 -11897.7,23648.8 -14227,28627.4c-2329.25,4978.62 -2771.3,5805.79 -3697.3,5703.21c-925.938,-102.583 1581.27,-19535 3213.69,-27433.5c1632.58,-7899.08 3684.99,-14149.8 7080.12,-13390.9c2341.64,523.321 5069.71,1229.13 6537.96,1616.54l-0.017,0.025Z" style="fill:#fff;fill-rule:nonzero;"/><path d="M165983,143414c63.625,9.854 130.117,1.204 188.5,-31.212c148.275,-77.725 206.284,-261.263 128.604,-409.538c-1108.2,-2099.82 -4471.17,-5130.67 -4611.33,-5258.42c-124.754,-112.33 -315.929,-101.663 -429.925,22.25c-114.175,125.066 -102.412,317.037 22.433,428.787c36.609,31.146 3425.38,3086.72 4477.54,5089.58c45.55,88.217 131.604,144.192 224.179,158.538l0,0.008Z" style="fill-rule:nonzero;stroke:#000;stroke-width:414.67px;stroke-linecap:butt;stroke-miterlimit:2;"/><path d="M120694,154293l76.637,2.392c168.263,-15.388 291.904,-163.288 276.288,-330.379c-485.05,-5127.38 9500.39,-52865.7 9533.73,-53004.4c42.912,-162.166 -55.958,-326.758 -221.408,-367.791c-165.538,-40.463 -328.884,58.033 -366.009,221.104c-141.846,571.567 -10046.3,47978.2 -9553.43,53208.2c13.77,140.742 121.154,250.388 254.191,270.996l0.009,-0.071Z" style="fill-rule:nonzero;stroke:#000;stroke-width:241.88px;stroke-linecap:butt;stroke-miterlimit:2;"/><path d="M144333,89027.3c0,-0 -102.212,793.617 -304.562,1659.02c-480.496,2054.95 -3437.63,3417.69 -3938.58,3174.44c-495.604,-241.004 -1827.52,-5937.54 -1408.4,-6782.38c419.417,-845.366 2728.63,-763.787 3339.27,-207.604c610.346,556.7 2312.26,2156.54 2312.26,2156.54l0,-0.017Z" style="fill:#f53c37;fill-rule:nonzero;stroke:#000;stroke-width:997.38px;stroke-linecap:butt;stroke-miterlimit:2;"/><path d="M134095,97237.3c1138.6,1483.14 5602.38,1079.45 5812.79,180.275l-219.191,-8067.5l-2775.03,1012.45l-840.625,1411.09l-984.412,1651.2l-1351.79,2607.82c-621.154,835.542 28.733,770.371 358.279,1204.68l-0.016,-0.012Z" style="fill:#fff;fill-rule:nonzero;stroke:#000;stroke-width:997.38px;stroke-linecap:butt;stroke-miterlimit:2;"/><path d="M135241,93260.6c2424.43,849.046 3883.4,-776.258 3883.4,-776.258l-2528.28,-587.25l-1355.12,1363.51Z" style="fill-rule:nonzero;"/><path d="M140501,91203.5c-511.796,1091.08 -1792.26,1711.4 -3054.27,1404.37c-985.537,-238.913 -1499.89,-374.771 -2439.98,-1219.51c-778.071,-701.592 -645.137,-1832.05 144.004,-2952.38c1018.66,-1454.34 2374.66,-2503.12 3127.84,-3025.06c428.217,-292.912 876.775,-438.17 1296.91,-455.67c154.754,-5.355 311.904,43.641 431.571,136.558c817.304,623.483 1616.87,1530.39 1518.05,2821.27l-529.908,1734.08c118.366,-129.175 226.379,-268.621 329.496,-412.913c263.137,-368.75 736.395,-859.279 1095.15,-202.721c519.3,954.05 -731.821,2764.66 -1756.05,2270.66c-62.788,-30.342 -116.8,-63.363 -162.809,-98.667Z" style="fill:#fff;fill-rule:nonzero;stroke:#000;stroke-width:997.38px;stroke-linecap:butt;stroke-miterlimit:2;"/><path d="M141975,87702.7c-49.792,-2.53 -2025.08,-968.021 -2696.91,-1891.63c-666.483,-921.379 -582.083,-2464.77 -334.112,-2420.09c247.675,45.2 454.267,504.979 454.267,504.979c-0,-0 -489.421,-1130.76 102.079,-1253.32c586.266,-125.4 976.679,425.729 1311.74,670.929c0,0 -67.1,-504.583 299.809,-350.141c361.437,152.141 2678.62,1648.3 3744.47,2767.63c1065.78,1119.31 138.012,3036.8 -556.971,3586.44c-694.975,549.625 -2324.38,-1614.8 -2324.38,-1614.8Z" style="fill:#f53c37;fill-rule:nonzero;stroke:#000;stroke-width:997.38px;stroke-linecap:butt;stroke-miterlimit:2;"/><g transform="matrix(0.956449,-0.291898,0.291898,0.956449,1.93434e+07,-5.17667e+07)"><text x="-3.35884e+07px" y="4.39465e+07px" style="font-family:'CorporativeSlab-Black', 'Corporative Slab';font-weight:900;font-size:81775px;fill:#f53c37;">?</text></g><g transform="matrix(0.980501,0.196516,-0.196516,0.980501,-2.53554e+07,1.2926e+07)"><text x="2.24602e+07px" y="-1.76191e+07px" style="font-family:'CorporativeSlab-Black', 'Corporative Slab';font-weight:900;font-size:62967px;fill:#f53c37;">?</text></g><g><path d="M134836,80968.1c-0,-0 5108.76,-1432.87 5633.72,-411.863c525.019,1021 2080.02,3260.96 1493.23,3421.47c-582.983,159.082 -1506.44,-1633.48 -1506.44,-1633.48c0,-0 932.752,2591.81 670.094,2868.94c-262.502,277.504 -622.397,-15.998 -622.397,-15.998c-0,0 -198.767,434.673 -553.371,573.612c-354.758,138.559 -1651.87,-1737.87 -1651.87,-1737.87c-0,0 -5002.12,2267.35 -5473.3,-668.384c-471.324,-2936.13 2010.3,-2396.42 2010.3,-2396.42l0.03,-0Z" style="fill:#fff;fill-rule:nonzero;stroke:#000;stroke-width:686.41px;stroke-linecap:butt;stroke-miterlimit:2;"/></g><g><path d="M90627.3,84891.4c246.949,-1303.02 -610.444,-2561.39 -1913.46,-2808.34l-39491.2,-7484.42c-1303.02,-246.949 -2561.39,610.444 -2808.34,1913.46l-4698.12,24789.5c-246.949,1303.02 610.445,2561.39 1913.46,2808.34l39491.2,7484.42c1303.02,246.948 2561.39,-610.445 2808.34,-1913.46l4698.12,-24789.5Z" style="fill:#fff;"/><g><clipPath id="_clip1"><path d="M90627.3,84891.4c246.949,-1303.02 -610.444,-2561.39 -1913.46,-2808.34l-39491.2,-7484.42c-1303.02,-246.949 -2561.39,610.444 -2808.34,1913.46l-4698.12,24789.5c-246.949,1303.02 610.445,2561.39 1913.46,2808.34l39491.2,7484.42c1303.02,246.948 2561.39,-610.445 2808.34,-1913.46l4698.12,-24789.5Z"/></clipPath><g clip-path="url(#_clip1)"><path d="M38947.2,101689c0,-0 34420.3,-5792.36 45271.6,-3118.8c10851.5,2673.61 12195.5,11143.5 12195.5,11143.5l-1427.83,7533.87l-58703.4,-11125.5l2664.01,-4433.11l0.154,0.03Z" style="fill:#f63d37;"/><path d="M88589.2,109050c-0,0 -24111.2,-16868.7 -33209.4,-17976.8c-9098.24,-1108.12 -12932.3,6369.4 -12932.3,6369.4l-1425.9,7523.72l48108.2,9117.52l-540.645,-5033.83l-0.066,0.015Z"/><path d="M78264,82732.6c2323.14,440.285 3851.79,2683.84 3411.5,5006.98c-440.285,2323.14 -2683.84,3851.79 -5006.98,3411.5c-2323.14,-440.284 -3851.79,-2683.84 -3411.5,-5006.98c440.284,-2323.14 2683.84,-3851.79 5006.98,-3411.5Z" style="fill:#fff;stroke:#000;stroke-width:416.67px;stroke-miterlimit:1.5;"/></g></g><path d="M90627.3,84891.4c246.949,-1303.02 -610.444,-2561.39 -1913.46,-2808.34l-39491.2,-7484.42c-1303.02,-246.949 -2561.39,610.444 -2808.34,1913.46l-4698.12,24789.5c-246.949,1303.02 610.445,2561.39 1913.46,2808.34l39491.2,7484.42c1303.02,246.948 2561.39,-610.445 2808.34,-1913.46l4698.12,-24789.5Z" style="fill:none;stroke:#000;stroke-width:386.46px;stroke-miterlimit:1.5;"/></g><g><path d="M62446.2,63383c-270.283,-1298.38 -1543.84,-2133.06 -2842.21,-1862.78l-39350.6,8191.64c-1298.38,270.283 -2133.06,1543.84 -1862.78,2842.21l5142.06,24701.2c270.283,1298.38 1543.84,2133.06 2842.22,1862.78l39350.6,-8191.64c1298.38,-270.283 2133.06,-1543.84 1862.77,-2842.22l-5142.06,-24701.2Z" style="fill:#fff;"/><g><clipPath id="_clip2"><path d="M62446.2,63383c-270.283,-1298.38 -1543.84,-2133.06 -2842.21,-1862.78l-39350.6,8191.64c-1298.38,270.283 -2133.06,1543.84 -1862.78,2842.21l5142.06,24701.2c270.283,1298.38 1543.84,2133.06 2842.22,1862.78l39350.6,-8191.64c1298.38,-270.283 2133.06,-1543.84 1862.77,-2842.22l-5142.06,-24701.2Z"/></clipPath><g clip-path="url(#_clip2)"><path d="M21122.7,98672.8c-0,0 29586.5,-18518.8 40635.2,-20199.6c11048.9,-1680.83 15530.7,5630.77 15530.7,5630.77l1562.74,7507.04l-58494.4,12176.8l765.564,-5115.01l0.154,-0.032Z" style="fill:#f63d37;"/><path d="M69804.8,86484.1c-0,-0 -28730.2,-6362.31 -37560.3,-3905.77c-8830.13,2456.56 -9512.13,10832 -9512.13,10832l1560.64,7496.93l47936.9,-9979.05l-2425.14,-4444.15l-0.055,0.04Z"/><path d="M50197.4,66117.7c2314.87,-481.887 4585.49,1006.26 5067.37,3321.14c481.888,2314.87 -1006.26,4585.48 -3321.13,5067.37c-2314.87,481.887 -4585.48,-1006.26 -5067.37,-3321.14c-481.887,-2314.87 1006.26,-4585.48 3321.13,-5067.37Z" style="fill:#fff;stroke:#000;stroke-width:416.67px;stroke-miterlimit:1.5;"/></g></g><path d="M62446.2,63383c-270.283,-1298.38 -1543.84,-2133.06 -2842.21,-1862.78l-39350.6,8191.64c-1298.38,270.283 -2133.06,1543.84 -1862.78,2842.21l5142.06,24701.2c270.283,1298.38 1543.84,2133.06 2842.22,1862.78l39350.6,-8191.64c1298.38,-270.283 2133.06,-1543.84 1862.77,-2842.22l-5142.06,-24701.2Z" style="fill:none;stroke:#000;stroke-width:386.46px;stroke-miterlimit:1.5;"/></g><g><path d="M54048.4,133513l-42673.3,-8139.06l-376.5,1974l42673.3,8139.06l376.5,-1974Z" style="fill:#f53c37;"/><path d="M53038.8,138806l-42673.3,-8139.06l-157.462,825.576l42673.3,8139.06l157.462,-825.576Z" style="fill:#f53c37;"/><path d="M52354.3,142395l-42673.3,-8139.06l-157.462,825.576l42673.3,8139.06l157.462,-825.576Z" style="fill:#f53c37;"/><path d="M51669.8,145984l-42673.3,-8139.06l-157.462,825.576l42673.3,8139.06l157.462,-825.576Z" style="fill:#f53c37;"/><path d="M40976.4,147664l-32664.3,-6230.05l-157.462,825.576l32664.3,6230.05l157.462,-825.576Z" style="fill:#f53c37;"/><g><path d="M39827.4,131409l-2991.96,-813.404l1313.08,2659.59c585.477,83.791 1419.56,-127.526 1678.88,-1846.19Z" style="fill:#f53c37;fill-rule:nonzero;stroke:#000;stroke-width:765.17px;stroke-linecap:butt;stroke-miterlimit:2;"/><path d="M43683.6,135161l-81.599,-137.824l81.599,137.824Z" style="fill:#f7c263;fill-rule:nonzero;stroke:#000;stroke-width:765.17px;stroke-linecap:butt;stroke-miterlimit:2;"/><path d="M39827.4,131409c-259.32,1718.66 -1093.4,1929.98 -1678.88,1846.19l2333.19,4727.34c184.703,374.744 426.867,716.389 713.201,1017.64c514.296,-82.875 1027,-295.203 1145.41,-808.512c251.719,-1099.57 -164.962,-2627 -164.962,-2627c-0,-0 1023.32,1087.66 1497.15,661.13c352.092,-315.848 688.047,-379.662 556.097,-621.694l-81.598,-137.824l81.598,137.824c113.327,114.561 -176.017,-242.474 373.2,-654.489c435.967,-327.397 608.831,-1198.79 596.511,-2056.57c-134.912,-52.451 -272.471,-97.72 -413.264,-136.663l-4957.64,-1347.37l-0.01,0.006Z" style="fill:#fff;fill-rule:nonzero;stroke:#000;stroke-width:765.17px;stroke-linecap:butt;stroke-miterlimit:2;"/><path d="M76158.7,167755l1776.58,1462.25c872.554,719.592 2164.77,594.769 2883.73,-278.69l2164.25,-2628.22c719,-873.409 593.889,-2164.16 -279.499,-2883.13l-1775.74,-1462.86l-4769.32,5790.66l0.001,-0.008Z" style="fill:#f53c37;fill-rule:nonzero;stroke:#000;stroke-width:765.17px;stroke-linecap:butt;stroke-miterlimit:2;"/><path d="M46331.9,133557c-341.14,-280.734 -723.613,-504.64 -1133.44,-663.561c12.32,857.776 -160.544,1729.17 -596.511,2056.57c-549.217,412.015 -805.203,325.923 -918.53,211.362c131.949,242.032 341.326,748.973 -10.767,1064.82c-473.831,426.529 -1497.15,-661.13 -1497.15,-661.13c0,-0 416.681,1527.43 164.962,2627c-118.412,513.309 -631.116,725.637 -1145.41,808.512c115.984,121.782 237.117,239.783 368.39,346.449l33647,27627.3l4768.7,-5791.5l-33647.3,-27625.8l-0.008,-0.006Z" style="fill:#fff;fill-rule:nonzero;stroke:#000;stroke-width:765.17px;stroke-linecap:butt;stroke-miterlimit:2;"/><path d="M75210.4,166974l948.309,781.341l4769.32,-5790.66l-948.922,-782.179l-4768.7,5791.5Z" style="fill-rule:nonzero;stroke:#000;stroke-width:765.17px;stroke-linecap:butt;stroke-miterlimit:2;"/><path d="M46331.9,133557c-341.14,-280.734 -723.613,-504.64 -1133.44,-663.561c12.32,857.776 -160.544,1729.17 -596.511,2056.57c-105.548,78.953 -197.676,134.823 -282.9,180.38c389.173,329.87 779.706,645.446 1160.74,933.786c2768.34,2092.83 30249.9,25241.1 32708,27294.4l1791.3,-2175.73l-33647.2,-27625.8l0.017,-0.026Z" style="fill-rule:nonzero;stroke:#000;stroke-width:765.17px;stroke-linecap:butt;stroke-miterlimit:2;"/><path d="M82353,167077c-0,-0 630.423,-766.033 630.423,-766.033c719,-873.409 593.889,-2164.16 -279.5,-2883.13l-1775.74,-1462.86l-1773.21,2151.88c896.067,724.679 2231.14,1866.65 3198.03,2960.16Z" style="fill:#f53c37;fill-rule:nonzero;stroke:#000;stroke-width:765.17px;stroke-linecap:butt;stroke-miterlimit:2;"/></g></g><g><path d="M134032,47771.6l-12738.7,4598.39l-9947.06,-27555.8c-723.043,-2003.01 324.286,-4233.49 2327.21,-4956.5c2002.91,-723.008 4233.43,324.229 4956.48,2327.24l15402.1,25586.7Z" style="fill-rule:nonzero;stroke:#000;stroke-width:464.69px;stroke-linecap:butt;stroke-miterlimit:2;"/><path d="M141586,27621.9l-8495.74,3066.78l332.239,920.386l8495.74,-3066.78l-332.239,-920.386Z"/><g><g><path d="M152069,39772.3l-12394,-26599.3c-593.638,-1271.4 -2154.64,-1923.52 -3468.87,-1449.11l-22532.6,8133.77c1314.54,-474.519 2875.54,177.597 3468.87,1449.11l430.69,922.71l-17.952,6.481l11981.3,25670.2c593.685,1271.52 2154.73,1923.76 3469.27,1449.24l22532.3,-8133.66c-1314.54,474.52 -2875.58,-177.723 -3468.96,-1449.36l-0.028,-0.044Z" style="fill:#fff;fill-rule:nonzero;stroke:#000;stroke-width:464.69px;stroke-linecap:butt;stroke-miterlimit:2;"/><path d="M135220,28405.8l-9649.04,3483.1l-465.003,-996.462l9649.03,-3483.09l465.008,996.46Z" style="fill-rule:nonzero;"/><path d="M143134,25548.9l-5107.11,1843.56l-465.009,-996.459l5107.11,-1843.56l465.009,996.459Z" style="fill-rule:nonzero;"/><path d="M138186,29869.6l-11602.1,4188.12l-465.005,-996.458l11602.1,-4188.12l465.005,996.457Z" style="fill-rule:nonzero;"/><path d="M145159,29887.1l-17562.9,6339.83l-465.007,-996.457l17562.9,-6339.83l465.005,996.458l0.003,-0.001Z" style="fill-rule:nonzero;"/><path d="M146171,32055.9l-17562.9,6339.83l-465.008,-996.457l17562.9,-6339.83l465.005,996.458l0.002,-0.001Z" style="fill-rule:nonzero;"/><path d="M147184,34225.2l-17562.9,6339.83l-465.319,-996.347l17563.2,-6339.94l465.008,996.46l0.014,-0.005Z" style="fill-rule:nonzero;"/><path d="M148196,36394.1l-17563.2,6339.94l-465.006,-996.46l17562.9,-6339.83l465.316,996.348Z" style="fill-rule:nonzero;"/></g></g></g></g></svg>