<?xml version="1.0" encoding="UTF-8" standalone="no"?><!DOCTYPE svg PUBLIC "-//W3C//DTD SVG 1.1//EN" "http://www.w3.org/Graphics/SVG/1.1/DTD/svg11.dtd"><svg width="100%" height="100%" viewBox="0 0 773163 723388" version="1.1" xmlns="http://www.w3.org/2000/svg" xmlns:xlink="http://www.w3.org/1999/xlink" xml:space="preserve" xmlns:serif="http://www.serif.com/" style="fill-rule:evenodd;clip-rule:evenodd;stroke-linecap:round;stroke-linejoin:round;"><g id="Artboard1"><path id="Path_1466" d="M161260,245975c73990,35.35 134864,60909.2 134899,134899c-34.704,73990.8 -60908.8,134865 -134899,134901c-73992.5,-32.117 -134871,-60907.5 -134905,-134901c35.346,-73992.5 60912.5,-134867 134905,-134899Z" style="fill:none;fill-rule:nonzero;stroke:#000;stroke-width:3516.83px;stroke-dasharray:10550.3,17584,0,0;"/><path d="M526521,174418l-99767.1,-99767.1l-99767.1,99767.1l99767.1,99767.1l99767.1,-99767.1Z" style="fill:none;stroke:#000;stroke-width:3187.5px;stroke-miterlimit:1.5;"/><path id="Path_1465" d="M403761,469700c59020.8,20.817 107581,48581.2 107602,107602c-20.812,59020.8 -48581.2,107581 -107602,107602c-59020.8,-20.713 -107581,-48580.8 -107602,-107602c20.833,-59020.8 48581.2,-107581 107602,-107602Z" style="fill:none;fill-rule:nonzero;stroke:#000;stroke-width:5173.08px;"/><path d="M533533,429617c-10122.7,17678.6 -38565.8,54880.4 -41343.6,35463.6c-1397.13,-9713.33 -58028.3,-49126.7 -48110.8,-78751.7c2504.18,-7475.96 34021.7,-34664.8 53694.6,-42061.2c36771.5,-13836.2 65852.1,-9032.71 65726.7,-6529.67c-352.2,6949.21 -7252.12,19038.1 -11630.2,20660c-2273.03,855.184 -55343.3,22384 -59552.1,34572.7c583.08,430.058 50275.4,20792.2 41215.4,36646.2l0.008,0.017l0.075,0.025Z" style="fill:#fff;fill-rule:nonzero;stroke:#000;stroke-width:3140.79px;stroke-linecap:butt;stroke-miterlimit:2;"/><path d="M596617,655754c2879.63,-20817 6833.29,-61311.7 12433.4,-80250.8c6960.29,-23578.5 26846,-83746.7 27729.5,-100919c1626.01,-32638.7 -18101.4,-61270 -96875.8,-80126.7c-38911.3,-9313.71 -51936.2,27282.6 -58750.4,51031.7c-4017.69,13984.1 -36868.8,144455 -37991.7,177670c-337.292,9504.46 19083.7,20821.2 46425.8,27241.7c54894.2,12888.3 106785,7091.29 107029,5352.12l-0.067,0.483l0.067,0.309Z" style="fill:#fff;fill-rule:nonzero;stroke:#000;stroke-width:4155.75px;stroke-linecap:butt;stroke-miterlimit:2;"/><path d="M621421,616246c0,0 -31709,-5142.25 -34172,1357.33c-2463.42,6499.58 -10293.2,21033.3 -6654,21599.7c3615.45,560.158 7950.58,-10852.3 7950.58,-10852.3c0,0 -3846.96,16226.9 -2078.21,17715.3c1768.09,1490.71 3733.37,-519.929 3733.37,-519.929c0,-0 1491.65,2479.62 3719.48,3074.04c2228.49,592.066 8754.38,-11579.2 8754.38,-11579.2c0,-0 31635.6,10235 32471.5,-7746.79c836.683,-17984.2 -13725,-13048 -13725,-13048l-0.054,-0.033l-0.038,0.012Z" style="fill:#fff;fill-rule:nonzero;stroke:#000;stroke-width:4155.75px;stroke-linecap:butt;stroke-miterlimit:2;"/><path d="M605638,484888c-12553.9,-23156.4 -9154.5,-65489.2 16251.2,-53435.4c12715.5,6022.75 53181.2,47520 80109.2,79540.4c6794.08,8081.88 13043.9,16012.8 18210.1,23289.8c18777.6,26477.6 21750,46004.6 14095.7,70556.7c-14293.7,45899.6 -101683,40762.9 -104554,38743.5c-7966.96,-5610.33 -15792.9,-26943.2 -14060.8,-32388.7c883.68,-2837.22 57178.3,-36437.9 57178.3,-36437.9c-0,-0 -8123.67,-9058 -19095.3,-22355.8c-998.766,235.208 -36860.8,-46763.8 -48134.2,-67512.5l0.016,0.171l-0.058,-0.171Z" style="fill:#fff;fill-rule:nonzero;stroke:#000;stroke-width:4155.75px;stroke-linecap:butt;stroke-miterlimit:2;"/><path d="M582325,408966c3058.23,811.93 5315.42,3447.22 5615.62,6608.54c297.654,3175.75 254.654,7754.92 -1063.54,13713.6c-2832.07,12704.2 -49573.8,98536.7 -59279.2,119281c-9705.21,20744.2 -11547.1,24190.8 -15405.4,23763.4c-3858.08,-427.429 6588.62,-81395.8 13390.4,-114306c6802.42,-32912.8 15354.1,-58957.5 29500.5,-55795.4c9756.83,2180.5 21123.8,5121.38 27241.5,6735.58l-0.071,0.104l0.196,-0.396Z" style="fill:#fff;fill-rule:nonzero;"/><path d="M691596,597558c265.105,41.059 542.155,5.017 785.417,-130.05c617.813,-323.854 859.517,-1088.6 535.85,-1706.41c-4617.5,-8749.25 -18629.9,-21377.8 -19213.9,-21910.1c-519.808,-468.042 -1316.37,-423.596 -1791.35,92.708c-475.729,521.108 -426.717,1320.99 93.471,1786.61c152.537,129.775 14272.4,12861.3 18656.4,21206.6c189.792,367.571 548.35,600.8 934.08,660.575l-0,0.033l-0.005,0.029Z" style="fill-rule:nonzero;stroke:#000;stroke-width:1727.79px;stroke-linecap:butt;stroke-miterlimit:2;"/><path d="M502892,642888l319.321,9.967c701.095,-64.117 1216.27,-680.367 1151.2,-1376.58c-2021.04,-21364.1 39585,-220274 39723.9,-220852c178.801,-675.692 -233.158,-1361.49 -922.533,-1532.46c-689.741,-168.595 -1370.35,241.805 -1525.04,921.267c-591.025,2381.53 -41859.6,199909 -39806,221701c57.375,586.425 504.809,1043.28 1059.13,1129.15l0.037,-0.295l-0.033,-0.213Z" style="fill-rule:nonzero;stroke:#000;stroke-width:1007.83px;stroke-linecap:butt;stroke-miterlimit:2;"/><path d="M601388,370947c0,0 -425.883,3306.74 -1269.01,6912.58c-2002.07,8562.29 -14323.5,14240.4 -16410.8,13226.8c-2065.02,-1004.18 -7614.67,-24739.8 -5868.33,-28259.9c1747.57,-3522.36 11369.3,-3182.45 13913.6,-865.016c2543.11,2319.58 9634.42,8985.58 9634.42,8985.58l0,-0.071l0.05,0.004Z" style="fill:#f53c37;fill-rule:nonzero;stroke:#000;stroke-width:4155.75px;stroke-linecap:butt;stroke-miterlimit:2;"/><path d="M558729,405155c4744.17,6179.75 23343.2,4497.71 24220,751.145l-913.296,-33614.6l-11562.6,4218.54l-3502.6,5879.54l-4101.72,6880l-5632.46,10865.9c-2588.14,3481.43 119.721,3209.88 1492.83,5019.5l-0.066,-0.05l-0.021,-0.012Z" style="fill:#fff;fill-rule:nonzero;stroke:#000;stroke-width:4155.75px;stroke-linecap:butt;stroke-miterlimit:2;"/><path d="M563504,388586c10101.8,3537.69 16180.8,-3234.41 16180.8,-3234.41l-10534.5,-2446.88l-5646.33,5681.29l-0,-0.009Z" style="fill-rule:nonzero;"/><path d="M585421,380015c-2132.48,4546.17 -7467.75,7130.83 -12726.1,5851.54c-4106.4,-995.471 -6249.54,-1561.55 -10166.6,-5081.29c-3241.96,-2923.3 -2688.07,-7633.54 600.017,-12301.6c4244.42,-6059.75 9894.42,-10429.7 13032.7,-12604.4c1784.24,-1220.47 3653.23,-1825.71 5403.79,-1898.62c644.808,-22.312 1299.6,181.838 1798.21,568.992c3405.43,2597.85 6736.96,6376.62 6325.21,11755.3l-2207.95,7225.33c493.191,-538.229 943.246,-1119.25 1372.9,-1720.47c1096.4,-1536.46 3068.31,-3580.33 4563.12,-844.671c2163.75,3975.21 -3049.25,11519.4 -7316.88,9461.08c-261.617,-126.425 -486.667,-264.013 -678.371,-411.113l-0.017,-0.071Z" style="fill:#fff;fill-rule:nonzero;stroke:#000;stroke-width:4155.75px;stroke-linecap:butt;stroke-miterlimit:2;"/><path d="M591562,365428c-207.467,-10.542 -8437.83,-4033.42 -11237.1,-7881.79c-2777.01,-3839.08 -2425.35,-10269.9 -1392.13,-10083.7c1031.98,188.333 1892.78,2104.08 1892.78,2104.08c-0,-0 -2039.25,-4711.5 425.329,-5222.17c2442.78,-522.5 4069.5,1773.87 5465.58,2795.54c0,-0 -279.583,-2102.43 1249.2,-1458.92c1505.99,633.921 11160.9,6867.92 15602,11531.8c4440.75,4663.79 575.05,12653.3 -2320.71,14943.5c-2895.73,2290.11 -9684.92,-6728.33 -9684.92,-6728.33l0.033,0.013Z" style="fill:#f53c37;fill-rule:nonzero;stroke:#000;stroke-width:4155.75px;stroke-linecap:butt;stroke-miterlimit:2;"/><g><path d="M227535,199522l49209.4,-15018.2l-1443.15,-15234.3c19315.7,-18363.5 45696.2,-52064.1 33065,-93452.1c-14415.1,-47233.4 -54089.7,-58259.1 -101328,-43842.5c-38129.1,11636.6 -63186.6,34587.8 -68394.6,73552.8l50553.1,-109.786c1053.91,-11721.4 10426.5,-24200.4 27698.6,-29471.7c19553.4,-5967.49 33010.1,3106.7 38878.1,22334.2c7260.45,23790 -5364.71,45455.2 -42928.9,72950.4l14690.3,28291.1Zm51749,70417.7c20193.2,-6162.74 30148,-24875.6 23981.6,-45080.8c-6156.46,-20172.6 -24861.1,-30129.9 -45054.3,-23967.2c-20193.2,6162.74 -30150.1,24867.3 -23987.4,45060.5c6160.13,20184.6 24866.9,30150.2 45060.1,23987.5Z" style="fill:#f53c37;fill-rule:nonzero;"/></g><g><path d="M597893,217988l38844.3,7785.32l4583.79,-10854.8c19799.5,-5397.01 49988.3,-18612.2 56536.2,-51282.6c7472.7,-37284.5 -15398.7,-59244.7 -52687,-66718.1c-30097.9,-6032.34 -55465,378.516 -73222.1,24893l34312,18382.9c4994.08,-7561.64 15904.3,-12599.6 29538.4,-9867.04c15434.8,3093.51 21244.5,14158.4 18202.6,29335.9c-3763.76,18779 -20233,28857.2 -55738,33782.3l-370.182,24543.2Zm9372.6,66632.9c15939.8,3194.72 29520.8,-5856.85 32717.4,-21806.1c3191.47,-15923.6 -5853.67,-29503.3 -21793.5,-32698c-15939.8,-3194.72 -29519.2,5850.48 -32713.9,21790.3c-3193.37,15933.1 5850.18,29519.1 21790,32713.9Z" style="fill:#f53c37;fill-rule:nonzero;"/></g><g><path d="M561817,337367c-0,0 21286.5,-5970.29 23473.8,-1716.1c2187.58,4254.17 8666.75,13587.3 6221.79,14256.1c-2429.1,662.841 -6276.83,-6806.17 -6276.83,-6806.17c0,-0 3886.47,10799.2 2792.06,11953.9c-1093.76,1156.27 -2593.32,-66.659 -2593.32,-66.659c-0,0 -828.196,1811.14 -2305.71,2390.05c-1478.16,577.329 -6882.79,-7241.12 -6882.79,-7241.12c-0,0 -20842.2,9447.29 -22805.4,-2784.93c-1963.85,-12233.9 8376.25,-9985.08 8376.25,-9985.08l0.125,-0l0.017,-0.03Z" style="fill:#fff;fill-rule:nonzero;stroke:#000;stroke-width:2860.04px;stroke-linecap:butt;stroke-miterlimit:2;"/></g><g><path d="M377614,353714c1028.95,-5429.25 -2543.52,-10672.5 -7972.75,-11701.4l-164547,-31185.1c-5429.25,-1028.95 -10672.5,2543.52 -11701.4,7972.75l-19575.5,103290c-1028.95,5429.25 2543.52,10672.5 7972.75,11701.4l164547,31185.1c5429.25,1028.95 10672.5,-2543.52 11701.4,-7972.75l19575.5,-103290Z" style="fill:#fff;"/><g><g><clipPath id="_clip1"><path d="M377614,353714c1028.95,-5429.25 -2543.52,-10672.5 -7972.75,-11701.4l-164547,-31185.1c-5429.25,-1028.95 -10672.5,2543.52 -11701.4,7972.75l-19575.5,103290c-1028.95,5429.25 2543.52,10672.5 7972.75,11701.4l164547,31185.1c5429.25,1028.95 10672.5,-2543.52 11701.4,-7972.75l19575.5,-103290Z"/></clipPath><g clip-path="url(#_clip1)"><path d="M162280,423704c0,-0 143418,-24134.8 188632,-12995c45214.6,11140 50814.6,46431.2 50814.6,46431.2l-5949.29,31391.1l-244598,-46356.2l11100,-18471.3l0.642,0.125l-0.142,0.042Z" style="fill:#f63d37;"/><path d="M369122,454375c-0,0 -100463,-70286.2 -138372,-74903.3c-37909.3,-4617.17 -53884.6,26539.2 -53884.6,26539.2l-5941.25,31348.8l200451,37989.7l-2252.69,-20974.3l-0.275,0.062l0.463,-0.104Z"/><path d="M326100,344719c9679.75,1834.52 16049.1,11182.7 14214.6,20862.4c-1834.52,9679.75 -11182.7,16049.1 -20862.4,14214.6c-9679.75,-1834.52 -16049.1,-11182.7 -14214.6,-20862.4c1834.52,-9679.75 11182.7,-16049.1 20862.4,-14214.6Z" style="fill:#fff;stroke:#000;stroke-width:1736.13px;stroke-miterlimit:1.5;"/></g></g></g><path d="M377614,353714c1028.95,-5429.25 -2543.52,-10672.5 -7972.75,-11701.4l-164547,-31185.1c-5429.25,-1028.95 -10672.5,2543.52 -11701.4,7972.75l-19575.5,103290c-1028.95,5429.25 2543.52,10672.5 7972.75,11701.4l164547,31185.1c5429.25,1028.95 10672.5,-2543.52 11701.4,-7972.75l19575.5,-103290Z" style="fill:none;stroke:#000;stroke-width:1610.25px;stroke-miterlimit:1.5;"/></g><g><path d="M260192,264096c-1126.18,-5409.92 -6432.67,-8887.75 -11842.5,-7761.58l-163961,34131.8c-5409.92,1126.18 -8887.75,6432.67 -7761.58,11842.5l21425.2,102922c1126.18,5409.92 6432.67,8887.75 11842.6,7761.58l163961,-34131.8c5409.92,-1126.18 8887.75,-6432.67 7761.54,-11842.6l-21425.2,-102922l0,0.041Z" style="fill:#fff;"/><g><g><clipPath id="_clip2"><path d="M260192,264096c-1126.18,-5409.92 -6432.67,-8887.75 -11842.5,-7761.58l-163961,34131.8c-5409.92,1126.18 -8887.75,6432.67 -7761.58,11842.5l21425.2,102922c1126.18,5409.92 6432.67,8887.75 11842.6,7761.58l163961,-34131.8c5409.92,-1126.18 8887.75,-6432.67 7761.54,-11842.6l-21425.2,-102922l0,0.041Z"/></clipPath><g clip-path="url(#_clip2)"><path d="M88011.2,411137c0,-0 123277,-77161.7 169313,-84165c46037.1,-7003.46 64711.2,23461.5 64711.2,23461.5l6511.42,31279.3l-243727,50736.7l3189.85,-21312.5l0.642,-0.134l0.175,0.134Z" style="fill:#f63d37;"/><path d="M290853,360350c0,-0 -119709,-26509.6 -156501,-16274c-36792.2,10235.7 -39633.9,45133.3 -39633.9,45133.3l6502.67,31237.2l199737,-41579.4l-10104.8,-18517.3l-0.229,0.167l0.354,-0Z"/><path d="M209156,275490c9645.29,-2007.86 19106.2,4192.75 21114,13838.1c2007.87,9645.29 -4192.75,19106.2 -13838,21114c-9645.29,2007.86 -19106.2,-4192.75 -21114,-13838.1c-2007.86,-9645.29 4192.75,-19106.2 13838,-21114Z" style="fill:#fff;stroke:#000;stroke-width:1736.13px;stroke-miterlimit:1.5;"/></g></g></g><path d="M260192,264096c-1126.18,-5409.92 -6432.67,-8887.75 -11842.5,-7761.58l-163961,34131.8c-5409.92,1126.18 -8887.75,6432.67 -7761.58,11842.5l21425.2,102922c1126.18,5409.92 6432.67,8887.75 11842.6,7761.58l163961,-34131.8c5409.92,-1126.18 8887.75,-6432.67 7761.54,-11842.6l-21425.2,-102922l0,0.041Z" style="fill:none;stroke:#000;stroke-width:1610.25px;stroke-miterlimit:1.5;"/></g><g><path d="M225202,556304l-177805,-33912.8l-1568.75,8225l177805,33912.8l1568.75,-8225Z" style="fill:#f53c37;"/><path d="M220995,578358l-177805,-33912.8l-656.091,3439.9l177805,33912.8l656.092,-3439.9Z" style="fill:#f53c37;"/><path d="M218143,593312l-177805,-33912.8l-656.092,3439.9l177805,33912.8l656.092,-3439.9Z" style="fill:#f53c37;"/><path d="M215291,608267l-177805,-33912.8l-656.092,3439.9l177805,33912.8l656.091,-3439.9Z" style="fill:#f53c37;"/><path d="M170735,615267l-136101,-25958.5l-656.092,3439.9l136101,25958.5l656.092,-3439.9Z" style="fill:#f53c37;"/><g><path d="M165948,547538l-12466.5,-3389.18l5471.17,11081.6c2439.49,349.129 5914.83,-531.359 6995.33,-7692.46l0,0.017Z" style="fill:#f53c37;fill-rule:nonzero;stroke:#000;stroke-width:3188.21px;stroke-linecap:butt;stroke-miterlimit:2;"/><path d="M182015,563171l-339.996,-574.266l339.996,574.266Z" style="fill:#f7c263;fill-rule:nonzero;stroke:#000;stroke-width:3188.21px;stroke-linecap:butt;stroke-miterlimit:2;"/><path d="M165948,547538c-1080.5,7161.08 -4555.83,8041.58 -6995.33,7692.46l9721.62,19697.2c769.596,1561.43 1778.61,2984.95 2971.67,4240.17c2142.9,-345.312 4279.17,-1230.01 4772.54,-3368.8c1048.83,-4581.54 -687.341,-10945.8 -687.341,-10945.8c-0,-0 4263.83,4531.92 6238.12,2754.71c1467.05,-1316.03 2866.86,-1581.92 2317.07,-2590.39l-339.991,-574.266l339.991,574.266c472.196,477.338 -733.404,-1010.31 1555,-2727.04c1816.53,-1364.15 2536.8,-4994.96 2485.46,-8569.04c-562.133,-218.546 -1135.3,-407.166 -1721.93,-569.429l-20656.8,-5614.04l-0.041,0.025l-0.013,-0.033Z" style="fill:#fff;fill-rule:nonzero;stroke:#000;stroke-width:3188.21px;stroke-linecap:butt;stroke-miterlimit:2;"/><path d="M317328,698979l7402.42,6092.71c3635.64,2998.3 9019.88,2478.2 12015.5,-1161.21l9017.71,-10950.9c2995.83,-3639.2 2474.54,-9017.33 -1164.58,-12013l-7398.92,-6095.25l-19872.2,24127.8l0.004,-0.033l-0.008,-0.008Z" style="fill:#f53c37;fill-rule:nonzero;stroke:#000;stroke-width:3188.21px;stroke-linecap:butt;stroke-miterlimit:2;"/><path d="M193050,556488c-1421.42,-1169.73 -3015.05,-2102.67 -4722.67,-2764.84c51.333,3574.07 -668.934,7204.88 -2485.46,8569.04c-2288.4,1716.73 -3355.01,1358.01 -3827.21,880.675c549.787,1008.47 1422.19,3120.72 -44.863,4436.75c-1974.3,1777.2 -6238.12,-2754.71 -6238.12,-2754.71c0,-0 1736.17,6364.29 687.342,10945.8c-493.383,2138.79 -2629.65,3023.49 -4772.54,3368.8c483.267,507.425 987.988,999.096 1534.96,1443.54l140196,115114l19869.6,-24131.2l-140197,-115108l-0.033,-0.025l0.266,-0.067Z" style="fill:#fff;fill-rule:nonzero;stroke:#000;stroke-width:3188.21px;stroke-linecap:butt;stroke-miterlimit:2;"/><path d="M313377,695725l3951.29,3255.59l19872.2,-24127.8l-3953.84,-3259.08l-19869.6,24131.2l-0.029,-0.008Z" style="fill-rule:nonzero;stroke:#000;stroke-width:3188.21px;stroke-linecap:butt;stroke-miterlimit:2;"/><path d="M193050,556488c-1421.42,-1169.73 -3015.05,-2102.67 -4722.67,-2764.84c51.333,3574.07 -668.934,7204.88 -2485.46,8569.04c-439.783,328.971 -823.65,561.763 -1178.75,751.584c1621.55,1374.46 3248.78,2689.36 4836.42,3890.78c11534.8,8720.12 126041,105171 136283,113727l7463.75,-9065.54l-140197,-115108l0.071,-0.109l-0.025,-0.079Z" style="fill-rule:nonzero;stroke:#000;stroke-width:3188.21px;stroke-linecap:butt;stroke-miterlimit:2;"/><path d="M343138,696154l2626.76,-3191.8c2995.83,-3639.2 2474.54,-9017.33 -1164.58,-12013l-7398.92,-6095.25l-7388.38,8966.17c3733.61,3019.49 9296.42,7777.71 13325.1,12334l-0.012,-0.071Z" style="fill:#f53c37;fill-rule:nonzero;stroke:#000;stroke-width:3188.21px;stroke-linecap:butt;stroke-miterlimit:2;"/></g></g><g><path d="M558467,199048l-53077.9,19160l-41446.1,-114816c-3012.68,-8345.88 1351.19,-17639.5 9696.71,-20652.1c8345.46,-3012.53 17639.3,1350.95 20652,9696.83l64175.4,106611l-0.125,-0.125Z" style="fill-rule:nonzero;stroke:#000;stroke-width:1936.21px;stroke-linecap:butt;stroke-miterlimit:2;"/><path d="M589942,115091l-35398.9,12778.2l1384.33,3834.94l35398.9,-12778.2l-1384.33,-3834.94Z"/><g><g><path d="M633621,165718l-51641.7,-110830c-2473.49,-5297.5 -8977.67,-8014.67 -14453.6,-6037.96l-93885.8,33890.7c5477.25,-1977.16 11981.4,739.988 14453.6,6037.96l1794.54,3844.62l-74.8,27.005l49922.1,106959c2473.69,5298 8978.04,8015.67 14455.3,6038.5l93884.6,-33890.2c-5477.25,1977.17 -11981.6,-740.512 -14454,-6039l-0.116,-0.183l-0.084,-0.154Z" style="fill:#fff;fill-rule:nonzero;stroke:#000;stroke-width:1936.21px;stroke-linecap:butt;stroke-miterlimit:2;"/><path d="M563417,118358l-40204.3,14512.9l-1937.51,-4151.93l40204.3,-14512.9l1937.53,4151.92l0.021,-0.033Z" style="fill-rule:nonzero;"/><path d="M596392,106454l-21279.6,7681.5l-1937.54,-4151.91l21279.6,-7681.5l1937.54,4151.91Z" style="fill-rule:nonzero;"/><path d="M575775,124457l-48342.1,17450.5l-1937.52,-4151.91l48342.1,-17450.5l1937.52,4151.9l0,0.005Z" style="fill-rule:nonzero;"/><path d="M604829,124530l-73178.8,26416l-1937.53,-4151.9l73178.8,-26416l1937.52,4151.91l0.013,-0.005l-0.004,0Z" style="fill-rule:nonzero;"/><path d="M609046,133566l-73178.8,26416l-1937.53,-4151.9l73178.8,-26416l1937.52,4151.91l0.008,-0.004l0.004,0Z" style="fill-rule:nonzero;"/><path d="M613267,142605l-73178.8,26416l-1938.83,-4151.45l73180,-26416.4l1937.53,4151.92l0.058,-0.02l-0.012,0.008Z" style="fill-rule:nonzero;"/><path d="M617483,151642l-73180,26416.4l-1937.53,-4151.92l73178.8,-26416l1938.82,4151.45l-0.042,0.008Z" style="fill-rule:nonzero;"/></g></g></g></g></svg>