<?xml version="1.0" encoding="UTF-8" standalone="no"?><!DOCTYPE svg PUBLIC "-//W3C//DTD SVG 1.1//EN" "http://www.w3.org/Graphics/SVG/1.1/DTD/svg11.dtd"><svg width="100%" height="100%" viewBox="0 0 44534 41667" version="1.1" xmlns="http://www.w3.org/2000/svg" xmlns:xlink="http://www.w3.org/1999/xlink" xml:space="preserve" xmlns:serif="http://www.serif.com/" style="fill-rule:evenodd;clip-rule:evenodd;stroke-linecap:round;stroke-miterlimit:10;"><g id="Artboard1"><path d="M10384.8,3801.82l345.123,-236.536l351.08,227.599" style="fill:none;stroke:#f53c37;stroke-width:154.72px;"/><path d="M22288.1,17627.2c0,-0 -11348.5,380.025 -11558.1,-14061.9" style="fill:none;stroke:#f53c37;stroke-width:154.72px;stroke-linejoin:round;stroke-miterlimit:1.5;"/><path id="Path_1466" d="M9788.03,9857.91c4261.83,2.036 7768.17,3508.37 7770.2,7770.2c-1.999,4261.86 -3508.35,7768.25 -7770.2,7770.28c-4261.98,-1.85 -7768.55,-3508.27 -7770.53,-7770.28c2.036,-4261.96 3508.57,-7768.35 7770.53,-7770.2Z" style="fill:none;fill-rule:nonzero;stroke:#000;stroke-width:202.57px;stroke-linejoin:round;stroke-miterlimit:4;stroke-dasharray:607.7,1012.84,0,0;"/><g><rect x="7538.85" y="16563.8" width="15909.2" height="1689.24" style="fill:#fff;stroke:#f53c37;stroke-width:125.85px;stroke-linejoin:round;stroke-miterlimit:1.5;"/><rect x="2869.81" y="31705.3" width="15909.2" height="3180.74" style="fill:#fff;stroke:#f53c37;stroke-width:125.85px;stroke-linejoin:round;stroke-miterlimit:1.5;"/><rect x="6378.87" y="24161.4" width="15909.2" height="7127.19" style="fill:#fff;stroke:#f53c37;stroke-width:125.85px;stroke-linejoin:round;stroke-miterlimit:1.5;"/><rect x="8624.55" y="25086.7" width="2423.36" height="294.329" style="stroke:#000;stroke-width:125.85px;stroke-linejoin:round;stroke-miterlimit:1.5;"/><rect x="5115.49" y="32693" width="2423.36" height="294.329" style="stroke:#000;stroke-width:125.85px;stroke-linejoin:round;stroke-miterlimit:1.5;"/><rect x="8624.55" y="25742.6" width="1321.44" height="153.784" style="stroke:#000;stroke-width:125.85px;stroke-linejoin:round;stroke-miterlimit:1.5;"/><rect x="5115.49" y="33348.8" width="1321.44" height="153.784" style="stroke:#000;stroke-width:125.85px;stroke-linejoin:round;stroke-miterlimit:1.5;"/><rect x="9720.25" y="17215.5" width="11741.2" height="449.574" style="stroke:#000;stroke-width:125.85px;stroke-linejoin:round;stroke-miterlimit:1.5;"/><rect x="8560.26" y="26830.3" width="11741.2" height="449.574" style="stroke:#000;stroke-width:125.85px;stroke-linejoin:round;stroke-miterlimit:1.5;"/><rect x="5051.2" y="34019.7" width="11741.2" height="449.574" style="stroke:#000;stroke-width:125.85px;stroke-linejoin:round;stroke-miterlimit:1.5;"/><rect x="8560.26" y="27705.1" width="9129.2" height="449.574" style="stroke:#000;stroke-width:125.85px;stroke-linejoin:round;stroke-miterlimit:1.5;"/><rect x="8560.26" y="28664.4" width="9129.2" height="449.574" style="stroke:#000;stroke-width:125.85px;stroke-linejoin:round;stroke-miterlimit:1.5;"/><rect x="8560.26" y="29623.7" width="9129.2" height="449.574" style="stroke:#000;stroke-width:125.85px;stroke-linejoin:round;stroke-miterlimit:1.5;"/><circle cx="7654.96" cy="25491.5" r="480.429" style="stroke:#000;stroke-width:125.85px;stroke-linejoin:round;stroke-miterlimit:1.5;"/><circle cx="4145.9" cy="33097.8" r="480.429" style="stroke:#000;stroke-width:125.85px;stroke-linejoin:round;stroke-miterlimit:1.5;"/><circle cx="8750.66" cy="17415.5" r="480.429" style="stroke:#000;stroke-width:125.85px;stroke-linejoin:round;stroke-miterlimit:1.5;"/><rect x="10921.8" y="18803.8" width="15909.2" height="4901.87" style="fill:#fff;stroke:#f53c37;stroke-width:125.85px;stroke-linejoin:round;stroke-miterlimit:1.5;"/><rect x="13167.5" y="19791.4" width="2423.36" height="294.329" style="stroke:#000;stroke-width:125.85px;stroke-linejoin:round;stroke-miterlimit:1.5;"/><rect x="13167.5" y="20447.3" width="1321.44" height="153.784" style="stroke:#000;stroke-width:125.85px;stroke-linejoin:round;stroke-miterlimit:1.5;"/><rect x="13103.2" y="21535" width="11741.2" height="449.574" style="stroke:#000;stroke-width:125.85px;stroke-linejoin:round;stroke-miterlimit:1.5;"/><rect x="13103.2" y="22409.8" width="9129.2" height="449.574" style="stroke:#000;stroke-width:125.85px;stroke-linejoin:round;stroke-miterlimit:1.5;"/><circle cx="12197.9" cy="20196.3" r="480.429" style="stroke:#000;stroke-width:125.85px;stroke-linejoin:round;stroke-miterlimit:1.5;"/></g><path d="M32577.6,6651.03l-5746.58,-5746.58l-5746.58,5746.58l5746.58,5746.58l5746.58,-5746.58Z" style="fill:none;stroke:#000;stroke-width:183.6px;stroke-linejoin:round;stroke-miterlimit:1.5;"/><path id="Path_1465" d="M34604.7,11430.3c3399.59,1.199 6196.68,2798.27 6197.88,6197.88c-1.199,3399.59 -2798.27,6196.68 -6197.88,6197.88c-3399.59,-1.193 -6196.68,-2798.26 -6197.88,-6197.88c1.2,-3399.59 2798.27,-6196.68 6197.88,-6197.88Z" style="fill:none;fill-rule:nonzero;stroke:#000;stroke-width:297.97px;stroke-linejoin:round;stroke-miterlimit:4;"/><path d="M31654.6,18094.4c-0,-0 -537.574,-1153.54 -0,-873.558c537.574,279.987 1198.34,2486.28 1198.34,2486.28c0,0 -828.759,-1052.75 -1198.34,-1612.72Z" style="fill:#fffcff;"/><path d="M31400,18213c5.828,12.505 12.569,24.565 20.169,36.08c373.897,566.51 1212.07,1631.74 1212.07,1631.74c83.445,105.998 230.456,137.712 350.18,75.542c119.723,-62.169 178.348,-200.666 139.644,-329.897c0,-0 -332.736,-1108.65 -721.131,-1872.5c-195.706,-384.888 -422.059,-681.035 -616.55,-782.332c-182.334,-94.966 -315.74,-83.814 -400.982,-52.656c-130.281,47.622 -225.62,156.718 -245.127,336.754c-10.81,99.769 7.844,240.02 47.949,386.334c74.161,270.553 213.777,570.928 213.777,570.928Zm254.621,-118.658c-0,-0 -537.574,-1153.54 -0,-873.558c537.574,279.987 1198.34,2486.28 1198.34,2486.28c0,0 -828.759,-1052.75 -1198.34,-1612.72Z"/><path d="M27251.9,23829.4c470.948,-1074.75 1217.06,-3666.88 223.24,-3129.51c-497.419,268.471 -4036.03,3638.13 -5066.86,5113.08c-260.083,372.28 -498.751,738.096 -695.193,1074.41c-713.976,1223.73 -809.043,2138.95 -476.629,3303.02c620.81,2176.2 1672.9,2803.27 1784.43,2711.62c309.509,-254.627 595.019,-1249.12 519.924,-1507.35c-38.38,-134.518 97.82,-2547.7 97.82,-2547.7c-0,0 311.69,-416.646 731.407,-1029.43c39.899,12.234 2458.9,-3025.15 2881.86,-3988.14Z" style="fill:#fff;fill-rule:nonzero;stroke:#000;stroke-width:180.91px;stroke-linecap:butt;stroke-linejoin:round;stroke-miterlimit:2;"/><path d="M32416.6,36773l-25.833,-1521.62l-471.569,-167.885c-811.609,17.275 -1897.28,5.026 -2941.69,-117.548c-2044.11,-240.07 -5043.1,-741.103 -5043.1,-741.103c0,-0 15.447,561.958 2266.35,1357.52c1587.77,561.177 4583.71,989.09 6215.84,1190.64Z" style="fill-rule:nonzero;"/><path d="M32477.9,35569.7c165.867,-1199.06 393.598,-3531.55 716.164,-4622.45c400.912,-1358.12 1546.33,-4823.8 1597.22,-5812.92c93.658,-1879.99 -1042.64,-3529.16 -5580.05,-4615.29c-2241.29,-536.469 -2991.53,1571.48 -3384.02,2939.43c-231.419,805.482 -2123.64,8320.63 -2188.32,10233.8c-19.428,547.457 1099.22,1199.3 2674.12,1569.12c3161.91,742.367 6150.79,408.458 6164.89,308.282Z" style="fill:#fff;fill-rule:nonzero;stroke:#000;stroke-width:239.37px;stroke-linecap:butt;stroke-linejoin:round;stroke-miterlimit:2;"/><path d="M31805.2,36048.3c-0,0 -1826.44,-296.194 -1968.31,78.182c-141.893,374.375 -592.889,1211.52 -383.271,1244.14c208.25,32.265 457.953,-625.091 457.953,-625.091c-0,-0 -221.585,934.67 -119.705,1020.4c101.842,85.865 215.042,-29.948 215.042,-29.948c0,-0 85.919,142.826 214.242,177.065c128.361,34.103 504.251,-666.965 504.251,-666.965c-0,-0 1822.21,589.537 1870.36,-446.214c48.193,-1035.89 -790.559,-751.567 -790.559,-751.567Z" style="fill:#fff;fill-rule:nonzero;stroke:#000;stroke-width:239.37px;stroke-linecap:butt;stroke-linejoin:round;stroke-miterlimit:2;"/><path d="M32997.6,25727.9c-723.103,-1333.81 -527.299,-3772.17 936.069,-3077.87c732.416,346.91 3063.24,2737.16 4614.28,4581.52c391.338,465.517 751.328,922.34 1048.9,1341.49c1081.59,1525.11 1252.8,2649.87 811.91,4064.06c-823.318,2643.82 -7958.49,5102.17 -8123.85,4985.85c-458.897,-323.156 -909.673,-1551.93 -809.9,-1865.59c50.9,-163.424 5395.01,-4853.05 5395.01,-4853.05c-0,0 -467.924,-521.74 -1099.89,-1287.69c-57.529,13.548 -2123.18,-2693.59 -2772.53,-3888.73Z" style="fill:#fff;fill-rule:nonzero;stroke:#000;stroke-width:239.37px;stroke-linecap:butt;stroke-linejoin:round;stroke-miterlimit:2;"/><path d="M31654.9,21354.8c176.154,46.767 306.169,198.56 323.46,380.651c17.145,182.923 14.668,446.683 -61.26,789.904c-163.127,731.761 -2855.45,5675.7 -3414.47,6870.57c-559.02,1194.87 -665.111,1393.39 -887.352,1368.77c-222.225,-24.62 379.505,-4688.4 771.286,-6584.05c391.82,-1895.78 884.398,-3395.94 1699.23,-3213.82c561.994,125.597 1216.73,294.991 1569.11,387.969Z" style="fill:#fff;fill-rule:nonzero;"/><path d="M32752.8,19164.9c0,-0 -24.531,190.468 -73.095,398.165c-115.319,493.187 -825.032,820.245 -945.258,761.865c-118.945,-57.841 -438.604,-1425.01 -338.015,-1627.77c100.66,-202.888 654.871,-183.309 801.425,-49.825c146.483,133.608 554.943,517.569 554.943,517.569Z" style="fill:#f53c37;fill-rule:nonzero;stroke:#000;stroke-width:239.37px;stroke-linecap:butt;stroke-linejoin:round;stroke-miterlimit:2;"/><path d="M30295.7,21135.3c273.263,355.954 1344.57,259.069 1395.07,43.266l-52.606,-1936.2l-666.008,242.987l-201.75,338.661l-236.259,396.288l-324.43,625.877c-149.077,200.53 6.896,184.889 85.987,289.124Z" style="fill:#fff;fill-rule:nonzero;stroke:#000;stroke-width:239.37px;stroke-linecap:butt;stroke-linejoin:round;stroke-miterlimit:2;"/><path d="M30570.6,20180.9c581.864,203.771 932.016,-186.302 932.016,-186.302l-606.786,-140.94l-325.23,327.242Z" style="fill-rule:nonzero;"/><path d="M31833,19687.2c-122.831,261.859 -430.143,410.737 -733.025,337.048c-236.529,-57.339 -359.975,-89.945 -585.596,-292.683c-186.737,-168.382 -154.833,-439.691 34.561,-708.571c244.479,-349.041 569.919,-600.749 750.682,-726.015c102.772,-70.299 210.426,-105.161 311.258,-109.361c37.141,-1.285 74.857,10.474 103.577,32.774c196.153,149.636 388.049,367.293 364.332,677.104l-127.178,416.178c28.408,-31.002 54.331,-64.469 79.079,-99.099c63.153,-88.5 176.735,-206.227 262.836,-48.653c124.632,228.972 -175.637,663.519 -421.452,544.958c-15.069,-7.282 -28.032,-15.207 -39.074,-23.68Z" style="fill:#fff;fill-rule:nonzero;stroke:#000;stroke-width:239.37px;stroke-linecap:butt;stroke-linejoin:round;stroke-miterlimit:2;"/><path d="M32186.9,18847c-11.95,-0.607 -486.02,-232.325 -647.257,-453.991c-159.956,-221.131 -139.7,-591.545 -80.187,-580.822c59.442,10.848 109.024,121.195 109.024,121.195c-0,-0 -117.461,-271.383 24.499,-300.797c140.704,-30.096 234.403,102.175 314.818,161.023c-0,-0 -16.104,-121.1 71.954,-84.034c86.745,36.514 642.868,395.592 898.673,664.232c255.788,268.634 33.123,728.833 -133.673,860.746c-166.794,131.91 -557.851,-387.552 -557.851,-387.552Z" style="fill:#f53c37;fill-rule:nonzero;stroke:#000;stroke-width:239.37px;stroke-linecap:butt;stroke-linejoin:round;stroke-miterlimit:2;"/><path d="M37948.8,32217.8c15.27,2.365 31.228,0.289 45.24,-7.491c35.586,-18.654 49.508,-62.703 30.865,-98.289c-265.969,-503.957 -1073.08,-1231.36 -1106.72,-1262.02c-29.941,-26.959 -75.823,-24.399 -103.182,5.34c-27.402,30.016 -24.579,76.089 5.384,102.909c8.786,7.475 822.092,740.814 1074.61,1221.5c10.932,21.172 31.585,34.606 53.803,38.049Z" style="fill-rule:nonzero;stroke:#000;stroke-width:99.52px;stroke-linecap:butt;stroke-linejoin:round;stroke-miterlimit:2;"/><path d="M26946,35653.7l18.393,0.574c40.383,-3.693 70.057,-39.189 66.309,-79.291c-116.412,-1230.57 2413.43,-13512.8 2421.43,-13546.1c10.299,-38.92 -13.43,-78.422 -53.138,-88.27c-39.729,-9.711 -78.932,13.928 -87.842,53.065c-34.043,137.176 -2544.45,12339.8 -2426.16,13595c3.305,33.778 29.077,60.093 61.006,65.039Z" style="fill-rule:nonzero;stroke:#000;stroke-width:58.05px;stroke-linecap:butt;stroke-linejoin:round;stroke-miterlimit:2;"/><g><path d="M23515.9,31733c-0,0 1564.21,333.657 1561.2,679.713c-2.992,346.061 98.036,1161.79 -81.056,1122.38c-177.878,-39.257 -173.074,-647.072 -173.074,-647.072c0,0 -114.347,822.413 -223.285,859.556c-108.949,37.265 -163.857,-91.505 -163.857,-91.505c-0,0 -113.969,88.142 -228.076,75.519c-114.095,-12.746 -197.253,-695.313 -197.253,-695.313c0,-0 -1652.71,-96.011 -1366.98,-945.514c285.748,-849.627 872.373,-357.768 872.373,-357.768Z" style="fill:#fff;fill-rule:nonzero;stroke:#000;stroke-width:206.91px;stroke-linecap:butt;stroke-linejoin:round;stroke-miterlimit:2;"/></g><path d="M31957,17239.1c0,0 1075.15,-369.582 1489.53,694.367c414.38,1063.95 -683.166,1601.52 -683.166,1601.52l-806.361,-2295.89Z" style="fill:#fffcff;"/><path d="M31865.7,16973.5c-70.763,24.325 -128.897,75.876 -161.509,143.222c-32.613,67.346 -37.008,144.921 -12.213,215.52l806.361,2295.89c26.592,75.713 84.296,136.439 158.554,166.859c74.259,30.42 157.982,27.628 230.05,-7.67c-0,-0 1326.2,-659.549 821.362,-1955.75c-512.51,-1315.9 -1842.61,-858.072 -1842.61,-858.072Zm91.318,265.654c0,0 1075.15,-369.582 1489.53,694.367c414.38,1063.95 -683.166,1601.52 -683.166,1601.52l-806.361,-2295.89Z"/><g><path d="M4141.66,5191.6l-607.65,-0" style="fill:none;stroke:#000;stroke-width:121.85px;stroke-linejoin:round;stroke-miterlimit:1.5;"/><path d="M4141.66,5554.06l-607.65,-0" style="fill:none;stroke:#000;stroke-width:121.85px;stroke-linejoin:round;stroke-miterlimit:1.5;"/><path d="M4141.66,5916.52l-607.65,0" style="fill:none;stroke:#000;stroke-width:121.85px;stroke-linejoin:round;stroke-miterlimit:1.5;"/><path d="M4141.66,6278.98l-607.65,0" style="fill:none;stroke:#000;stroke-width:121.85px;stroke-linejoin:round;stroke-miterlimit:1.5;"/><path d="M4141.66,6641.44l-2124.16,0" style="fill:none;stroke:#f53c37;stroke-width:121.85px;stroke-linejoin:round;stroke-miterlimit:1.5;"/><path d="M4141.66,7003.89l-607.65,0" style="fill:none;stroke:#000;stroke-width:121.85px;stroke-linejoin:round;stroke-miterlimit:1.5;"/><path d="M4141.66,7366.35l-607.65,0" style="fill:none;stroke:#000;stroke-width:121.85px;stroke-linejoin:round;stroke-miterlimit:1.5;"/><path d="M4141.66,7728.81l-607.65,0" style="fill:none;stroke:#000;stroke-width:121.85px;stroke-linejoin:round;stroke-miterlimit:1.5;"/><path d="M4141.66,8091.27l-607.65,-0" style="fill:none;stroke:#000;stroke-width:121.85px;stroke-linejoin:round;stroke-miterlimit:1.5;"/><path d="M4141.66,8453.73l-607.65,-0" style="fill:none;stroke:#000;stroke-width:121.85px;stroke-linejoin:round;stroke-miterlimit:1.5;"/><path d="M4141.66,8816.18l-607.65,-0" style="fill:none;stroke:#000;stroke-width:121.85px;stroke-linejoin:round;stroke-miterlimit:1.5;"/><path d="M4141.66,9178.64l-607.65,-0" style="fill:none;stroke:#000;stroke-width:121.85px;stroke-linejoin:round;stroke-miterlimit:1.5;"/><path d="M4141.66,9541.1l-607.65,-0" style="fill:none;stroke:#000;stroke-width:121.85px;stroke-linejoin:round;stroke-miterlimit:1.5;"/><path d="M4141.66,9903.56l-607.65,-0" style="fill:none;stroke:#000;stroke-width:121.85px;stroke-linejoin:round;stroke-miterlimit:1.5;"/><path d="M5630.21,10266l-2124.16,0" style="fill:none;stroke:#f53c37;stroke-width:121.85px;stroke-linejoin:round;stroke-miterlimit:1.5;"/><path d="M4141.66,10628.5l-607.65,0" style="fill:none;stroke:#000;stroke-width:121.85px;stroke-linejoin:round;stroke-miterlimit:1.5;"/><path d="M4141.66,10990.9l-607.65,0" style="fill:none;stroke:#000;stroke-width:121.85px;stroke-linejoin:round;stroke-miterlimit:1.5;"/><path d="M4141.66,11353.4l-607.65,0" style="fill:none;stroke:#000;stroke-width:121.85px;stroke-linejoin:round;stroke-miterlimit:1.5;"/><path d="M4141.66,11715.8l-607.65,0" style="fill:none;stroke:#000;stroke-width:121.85px;stroke-linejoin:round;stroke-miterlimit:1.5;"/><path d="M4141.66,12078.3l-607.65,-0" style="fill:none;stroke:#000;stroke-width:121.85px;stroke-linejoin:round;stroke-miterlimit:1.5;"/><path d="M4141.66,12440.8l-607.65,-0" style="fill:none;stroke:#000;stroke-width:121.85px;stroke-linejoin:round;stroke-miterlimit:1.5;"/><path d="M4141.66,12803.2l-607.65,-0" style="fill:none;stroke:#000;stroke-width:121.85px;stroke-linejoin:round;stroke-miterlimit:1.5;"/><path d="M4141.66,13165.7l-607.65,-0" style="fill:none;stroke:#000;stroke-width:121.85px;stroke-linejoin:round;stroke-miterlimit:1.5;"/><path d="M4141.66,13528.1l-2124.16,-0" style="fill:none;stroke:#f53c37;stroke-width:121.85px;stroke-linejoin:round;stroke-miterlimit:1.5;"/><path d="M4141.66,13890.6l-607.65,-0" style="fill:none;stroke:#000;stroke-width:121.85px;stroke-linejoin:round;stroke-miterlimit:1.5;"/><path d="M4141.66,14253.1l-607.65,0" style="fill:none;stroke:#000;stroke-width:121.85px;stroke-linejoin:round;stroke-miterlimit:1.5;"/><path d="M4141.66,14615.5l-607.65,0" style="fill:none;stroke:#000;stroke-width:121.85px;stroke-linejoin:round;stroke-miterlimit:1.5;"/><path d="M4141.66,14978l-607.65,0" style="fill:none;stroke:#000;stroke-width:121.85px;stroke-linejoin:round;stroke-miterlimit:1.5;"/><path d="M4141.66,15340.4l-607.65,0" style="fill:none;stroke:#000;stroke-width:121.85px;stroke-linejoin:round;stroke-miterlimit:1.5;"/><path d="M4141.66,15702.9l-607.65,0" style="fill:none;stroke:#000;stroke-width:121.85px;stroke-linejoin:round;stroke-miterlimit:1.5;"/><path d="M4141.66,16065.3l-607.65,0" style="fill:none;stroke:#000;stroke-width:121.85px;stroke-linejoin:round;stroke-miterlimit:1.5;"/><path d="M5630.21,16427.8l-2124.16,-0" style="fill:none;stroke:#f53c37;stroke-width:121.85px;stroke-linejoin:round;stroke-miterlimit:1.5;"/><path d="M4141.66,16790.3l-607.65,-0" style="fill:none;stroke:#000;stroke-width:121.85px;stroke-linejoin:round;stroke-miterlimit:1.5;"/><path d="M4141.66,17152.7l-607.65,-0" style="fill:none;stroke:#000;stroke-width:121.85px;stroke-linejoin:round;stroke-miterlimit:1.5;"/><path d="M4141.66,17515.2l-607.65,-0" style="fill:none;stroke:#000;stroke-width:121.85px;stroke-linejoin:round;stroke-miterlimit:1.5;"/><path d="M4141.66,17877.6l-607.65,-0" style="fill:none;stroke:#000;stroke-width:121.85px;stroke-linejoin:round;stroke-miterlimit:1.5;"/><path d="M4141.66,18240.1l-607.65,0" style="fill:none;stroke:#000;stroke-width:121.85px;stroke-linejoin:round;stroke-miterlimit:1.5;"/><path d="M4141.66,18602.6l-607.65,0" style="fill:none;stroke:#000;stroke-width:121.85px;stroke-linejoin:round;stroke-miterlimit:1.5;"/><path d="M4141.66,18965l-607.65,0" style="fill:none;stroke:#000;stroke-width:121.85px;stroke-linejoin:round;stroke-miterlimit:1.5;"/><path d="M4141.66,19327.5l-2124.16,0" style="fill:none;stroke:#f53c37;stroke-width:121.85px;stroke-linejoin:round;stroke-miterlimit:1.5;"/><path d="M4141.66,19689.9l-607.65,0" style="fill:none;stroke:#000;stroke-width:121.85px;stroke-linejoin:round;stroke-miterlimit:1.5;"/><path d="M4141.66,20052.4l-607.65,0" style="fill:none;stroke:#000;stroke-width:121.85px;stroke-linejoin:round;stroke-miterlimit:1.5;"/><path d="M4141.66,20414.8l-607.65,-0" style="fill:none;stroke:#000;stroke-width:121.85px;stroke-linejoin:round;stroke-miterlimit:1.5;"/><path d="M4141.66,20777.3l-607.65,-0" style="fill:none;stroke:#000;stroke-width:121.85px;stroke-linejoin:round;stroke-miterlimit:1.5;"/><path d="M4141.66,21139.8l-607.65,-0" style="fill:none;stroke:#000;stroke-width:121.85px;stroke-linejoin:round;stroke-miterlimit:1.5;"/><path d="M4141.66,21502.2l-607.65,-0" style="fill:none;stroke:#000;stroke-width:121.85px;stroke-linejoin:round;stroke-miterlimit:1.5;"/><path d="M5630.21,21864.7l-2124.16,-0" style="fill:none;stroke:#f53c37;stroke-width:121.85px;stroke-linejoin:round;stroke-miterlimit:1.5;"/><path d="M4141.66,22227.1l-607.65,-0" style="fill:none;stroke:#000;stroke-width:121.85px;stroke-linejoin:round;stroke-miterlimit:1.5;"/><path d="M4141.66,22589.6l-607.65,0" style="fill:none;stroke:#000;stroke-width:121.85px;stroke-linejoin:round;stroke-miterlimit:1.5;"/><path d="M4141.66,22952l-607.65,0" style="fill:none;stroke:#000;stroke-width:121.85px;stroke-linejoin:round;stroke-miterlimit:1.5;"/><path d="M4141.66,23314.5l-607.65,0" style="fill:none;stroke:#000;stroke-width:121.85px;stroke-linejoin:round;stroke-miterlimit:1.5;"/><path d="M4141.66,23677l-607.65,0" style="fill:none;stroke:#000;stroke-width:121.85px;stroke-linejoin:round;stroke-miterlimit:1.5;"/><path d="M4141.66,24039.4l-607.65,0" style="fill:none;stroke:#000;stroke-width:121.85px;stroke-linejoin:round;stroke-miterlimit:1.5;"/><path d="M4141.66,24401.9l-607.65,-0" style="fill:none;stroke:#000;stroke-width:121.85px;stroke-linejoin:round;stroke-miterlimit:1.5;"/><path d="M4141.66,24764.3l-2124.16,-0" style="fill:none;stroke:#f53c37;stroke-width:121.85px;stroke-linejoin:round;stroke-miterlimit:1.5;"/><path d="M4141.66,25126.8l-607.65,-0" style="fill:none;stroke:#000;stroke-width:121.85px;stroke-linejoin:round;stroke-miterlimit:1.5;"/><path d="M4141.66,25489.3l-607.65,-0" style="fill:none;stroke:#000;stroke-width:121.85px;stroke-linejoin:round;stroke-miterlimit:1.5;"/><path d="M4141.66,25851.7l-607.65,-0" style="fill:none;stroke:#000;stroke-width:121.85px;stroke-linejoin:round;stroke-miterlimit:1.5;"/><path d="M4141.66,26214.2l-607.65,-0" style="fill:none;stroke:#000;stroke-width:121.85px;stroke-linejoin:round;stroke-miterlimit:1.5;"/><path d="M4141.66,26576.6l-607.65,0" style="fill:none;stroke:#000;stroke-width:121.85px;stroke-linejoin:round;stroke-miterlimit:1.5;"/><path d="M4141.66,26939.1l-607.65,0" style="fill:none;stroke:#000;stroke-width:121.85px;stroke-linejoin:round;stroke-miterlimit:1.5;"/><path d="M4141.66,27301.5l-607.65,0" style="fill:none;stroke:#000;stroke-width:121.85px;stroke-linejoin:round;stroke-miterlimit:1.5;"/><path d="M4141.66,27664l-607.65,0" style="fill:none;stroke:#000;stroke-width:121.85px;stroke-linejoin:round;stroke-miterlimit:1.5;"/><path d="M5630.21,28026.5l-2124.16,0" style="fill:none;stroke:#f53c37;stroke-width:121.85px;stroke-linejoin:round;stroke-miterlimit:1.5;"/><path d="M4141.66,28388.9l-607.65,0" style="fill:none;stroke:#000;stroke-width:121.85px;stroke-linejoin:round;stroke-miterlimit:1.5;"/><path d="M4141.66,28751.4l-607.65,-0" style="fill:none;stroke:#000;stroke-width:121.85px;stroke-linejoin:round;stroke-miterlimit:1.5;"/><path d="M4141.66,29113.8l-607.65,-0" style="fill:none;stroke:#000;stroke-width:121.85px;stroke-linejoin:round;stroke-miterlimit:1.5;"/><path d="M4141.66,29476.3l-607.65,-0" style="fill:none;stroke:#000;stroke-width:121.85px;stroke-linejoin:round;stroke-miterlimit:1.5;"/><path d="M4141.66,29838.8l-607.65,-0" style="fill:none;stroke:#000;stroke-width:121.85px;stroke-linejoin:round;stroke-miterlimit:1.5;"/><path d="M4141.66,30201.2l-607.65,-0" style="fill:none;stroke:#000;stroke-width:121.85px;stroke-linejoin:round;stroke-miterlimit:1.5;"/><path d="M4141.66,30563.7l-607.65,0" style="fill:none;stroke:#000;stroke-width:121.85px;stroke-linejoin:round;stroke-miterlimit:1.5;"/><path d="M4141.66,30926.1l-607.65,0" style="fill:none;stroke:#000;stroke-width:121.85px;stroke-linejoin:round;stroke-miterlimit:1.5;"/><path d="M4141.66,31288.6l-607.65,0" style="fill:none;stroke:#000;stroke-width:121.85px;stroke-linejoin:round;stroke-miterlimit:1.5;"/></g></g></svg>