<?xml version="1.0" encoding="UTF-8" standalone="no"?><!DOCTYPE svg PUBLIC "-//W3C//DTD SVG 1.1//EN" "http://www.w3.org/Graphics/SVG/1.1/DTD/svg11.dtd"><svg width="100%" height="100%" viewBox="0 0 456 595" version="1.1" xmlns="http://www.w3.org/2000/svg" xmlns:xlink="http://www.w3.org/1999/xlink" xml:space="preserve" xmlns:serif="http://www.serif.com/" style="fill-rule:evenodd;clip-rule:evenodd;stroke-linecap:round;stroke-linejoin:round;"><g id="Group_343"><path id="Path_2665" d="M341.664,574.391c62.5,0 113.241,4.341 113.241,9.687c0,5.346 -50.742,9.686 -113.241,9.686c-62.499,0 -113.241,-4.339 -113.241,-9.686c-0,-5.347 50.742,-9.687 113.241,-9.687Z" style="stroke:#fff;stroke-width:2px;"/><path id="Path_2666" d="M339.097,264.713c-6.6,18.852 -30.238,56.21 -65.791,44.9c-20.3,-6.457 -53.977,-54.47 -45.653,-57.15c8.324,-2.68 45.025,33.278 55.125,32.926c9.839,-0.343 39.438,-30.65 47.187,-32.809c12.805,-3.566 10.386,8.554 9.132,12.133Z" style="fill-rule:nonzero;stroke:#fff;stroke-width:1px;stroke-linecap:butt;stroke-miterlimit:2;"/><path id="Path_2667" d="M123.724,141.525l156.379,-33.912l28.476,132.921c0,0 -138.107,39.56 -144.022,40.592c-5.915,1.032 -9.357,-0.944 -12.113,-5.55l-28.72,-134.051Z" style="fill:#f53c37;fill-rule:nonzero;stroke:#000;stroke-width:3px;stroke-linecap:butt;"/><path id="Path_2668" d="M162.086,278.114l-0.417,0.091c-3.615,0.766 -7.223,-1.571 -8,-5.184l-27.889,-130.164c-0.199,-0.929 -1.127,-1.53 -2.056,-1.332c-0.929,0.2 -1.529,1.13 -1.329,2.059l27.885,130.16c1.176,5.472 6.64,9.012 12.115,7.848l0.418,-0.088l-0.727,-3.39Z" style="fill-rule:nonzero;"/><path id="Path_2669" d="M119.312,288.381l143.859,-126.64l-58.634,-66.608l-143.86,126.635l58.635,66.613Z" style="fill:#fff;fill-rule:nonzero;stroke:#000;stroke-width:3px;stroke-linecap:butt;"/><path id="Path_2670" d="M199.366,217.906l6.531,-31.525l32.1,-2.482l-38.631,34.007Z" style="fill:#fff;fill-rule:nonzero;stroke:#000;stroke-width:1.32px;stroke-linecap:butt;"/><path id="Path_2671" d="M148.431,262.743l12.1,-58.376l59.439,-4.6l-71.539,62.976Z" style="fill-rule:nonzero;"/><path id="Path_2672" d="M126.378,282.157l8.729,-42.119l42.889,-3.316l-51.618,45.435Z" style="fill:#f53c37;fill-rule:nonzero;"/><path id="Path_2673" d="M126.865,51.053l-91.807,-0c-19.211,0.056 -35.001,15.846 -35.058,35.057l-0,2.935c0.057,19.211 15.847,35.001 35.058,35.057l57.209,-0l19.184,15.11l0,-15.11l15.415,-0c19.21,-0.057 35.001,-15.847 35.058,-35.057l-0,-2.935c-0.057,-19.211 -15.848,-35.001 -35.059,-35.057Z" style="fill:#f53c37;fill-rule:nonzero;"/><path id="Path_2674" d="M53.9,86.654c0,3.464 -2.851,6.315 -6.315,6.316c-0,0 -0.001,0 -0.001,0c-3.465,0 -6.316,-2.851 -6.317,-6.316c0.001,-3.465 2.852,-6.316 6.317,-6.316c0,-0 0.001,-0 0.001,-0c3.464,0.001 6.315,2.852 6.315,6.316Z" style="fill:#fff;fill-rule:nonzero;"/><path id="Path_2675" d="M87.278,86.654c0,3.464 -2.851,6.315 -6.315,6.316c-0.001,0 -0.001,0 -0.002,0c-3.465,0 -6.316,-2.851 -6.316,-6.316c-0,-3.465 2.851,-6.316 6.316,-6.316c0.001,-0 0.001,-0 0.002,-0c3.464,0.001 6.315,2.852 6.315,6.316Z" style="fill:#fff;fill-rule:nonzero;"/><path id="Path_2676" d="M120.656,86.654c0,3.465 -2.851,6.316 -6.316,6.316c-0.001,0 -0.001,0 -0.002,0c-3.464,0 -6.315,-2.851 -6.315,-6.315l-0,-0.002c-0,-3.464 2.851,-6.315 6.315,-6.315c0.001,-0 0.001,-0 0.002,-0c3.465,-0 6.316,2.851 6.316,6.316Z" style="fill:#fff;fill-rule:nonzero;"/><path id="Path_2677" d="M146.349,51.082l-19.384,52.047l69.32,151.6l144.147,-65.912l-85.65,-187.314l-108.433,49.579Z" style="fill:#fff;fill-rule:nonzero;stroke:#000;stroke-width:3px;stroke-linecap:butt;"/><path id="Path_2678" d="M126.965,103.129l32.634,-17.429l-13.25,-34.618l-8,43.629l-11.384,8.418Z" style="fill-rule:nonzero;"/><path id="Path_2679" d="M153.245,83.938l-6.9,-32.856l-19.384,52.047l26.284,-19.191Z" style="fill:#fff;fill-rule:nonzero;stroke:#000;stroke-width:3px;stroke-linecap:butt;"/><path id="Path_2680" d="M209.406,116.534l-37.182,17l-5.244,-11.469l37.182,-17l5.244,11.469Z" style="fill-rule:nonzero;"/><path id="Path_2681" d="M228.335,107.88l-15.379,7.03l-5.243,-11.466l15.379,-7.033l5.243,11.469Z" style="fill-rule:nonzero;"/><path id="Path_2682" d="M264.502,91.34l-32.787,14.991l-5.243,-11.466l32.787,-14.994l5.243,11.469Z" style="fill-rule:nonzero;"/><path id="Path_2683" d="M231.333,129.529l-47.49,21.714l-5.243,-11.465l47.49,-21.717l5.243,11.468Z" style="fill-rule:nonzero;"/><path id="Path_2684" d="M270.299,111.71l-34.741,15.886l-5.246,-11.467l34.746,-15.885l5.241,11.466Z" style="fill-rule:nonzero;"/><path id="Path_2685" d="M216.294,159.425l-23.745,10.86l-5.244,-11.468l23.746,-10.858l5.243,11.466Z" style="fill:#e7f1f1;fill-rule:nonzero;"/><path id="Path_2686" d="M279.006,130.749l-54.816,25.068l-5.243,-11.468l54.809,-25.064l5.25,11.464Z" style="fill-rule:nonzero;"/><path id="Path_2687" d="M327.659,32.82l-1.727,-11.228l-6.951,8.353c0.591,2.083 2.538,4.562 8.678,2.875Z" style="fill:#f53c37;fill-rule:nonzero;stroke:#000;stroke-width:3px;stroke-linecap:butt;"/><path id="Path_2688" d="M320.831,51.308l0.34,-0.478l-0.34,0.478Z" style="fill:#f6c262;fill-rule:nonzero;stroke:#000;stroke-width:3px;stroke-linecap:butt;"/><path id="Path_2689" d="M327.658,32.82c-6.14,1.687 -8.087,-0.792 -8.678,-2.876l-12.357,14.842c-0.975,1.174 -1.766,2.489 -2.347,3.9c1.043,1.6 2.516,3 4.41,2.632c4.056,-0.792 8.551,-4.459 8.551,-4.459c0,0 -2.12,5.044 0.013,6c1.581,0.709 2.967,-0.746 3.581,-1.547l0.34,-0.478l-0.34,0.478c-0.215,0.549 -0.122,1.535 2.073,2.761c1.745,0.973 4.92,0.256 7.773,-1.061c-0.025,-0.53 -0.078,-1.059 -0.157,-1.587l-2.862,-18.605Z" style="fill:#fff;fill-rule:nonzero;stroke:#000;stroke-width:3px;stroke-linecap:butt;"/><path id="Path_2690" d="M259.997,208.507l-2.254,8.123c-0.183,0.655 -0.275,1.332 -0.275,2.013c-0,3.36 2.258,6.329 5.496,7.227l12.018,3.338c0.654,0.182 1.33,0.274 2.008,0.274c3.361,-0 6.33,-2.259 7.228,-5.497l2.257,-8.121l-26.478,-7.357Z" style="fill:#f53c37;fill-rule:nonzero;stroke:#000;stroke-width:3px;stroke-linecap:butt;"/><path id="Path_2691" d="M330.141,57.79c0.432,-1.555 0.613,-3.17 0.536,-4.782c-2.854,1.318 -6.029,2.034 -7.773,1.061c-2.2,-1.226 -2.288,-2.212 -2.073,-2.761c-0.614,0.8 -2,2.257 -3.581,1.547c-2.133,-0.952 -0.013,-6 -0.013,-6c0,0 -4.494,3.666 -8.551,4.459c-1.894,0.367 -3.368,-1.034 -4.41,-2.632c-0.24,0.569 -0.445,1.153 -0.612,1.748l-42.461,153.741l26.481,7.353l42.457,-153.734Z" style="fill:#fff;fill-rule:nonzero;stroke:#000;stroke-width:3px;stroke-linecap:butt;"/><path id="Path_2692" d="M261.203,204.17l-1.205,4.336l26.476,7.357l1.207,-4.34l-26.478,-7.353Z" style="fill-rule:nonzero;stroke:#000;stroke-width:3px;stroke-linecap:butt;"/><path id="Path_2693" d="M330.141,57.79c0.432,-1.555 0.613,-3.17 0.536,-4.782c-2.854,1.318 -6.029,2.034 -7.773,1.061c-0.358,-0.2 -0.701,-0.427 -1.024,-0.679c-0.526,1.794 -1,3.57 -1.4,5.276c-2.89,12.381 -39.524,138.813 -42.742,150.1l9.947,2.761l42.456,-153.737Z" style="fill-rule:nonzero;stroke:#000;stroke-width:3px;stroke-linecap:butt;"/><path id="Path_2694" d="M271.48,228.236l3.5,0.971c0.654,0.182 1.33,0.274 2.008,0.274c3.361,-0 6.33,-2.259 7.228,-5.497l2.257,-8.121l-9.842,-2.737c-1.327,5.161 -3.049,10.213 -5.151,15.11Z" style="fill:#f53c37;fill-rule:nonzero;stroke:#000;stroke-width:3px;stroke-linecap:butt;"/><path id="Path_2695" d="M319.382,123.077l-76.574,16.444c-1.9,0.407 -3.483,-0.611 -3.537,-2.274l-0.183,-5.66c-0.053,-1.664 -1.636,-2.679 -3.537,-2.271l-45.444,9.759c-1.833,0.337 -3.216,1.886 -3.343,3.746l0.182,5.663c-0.126,1.861 -1.508,3.412 -3.342,3.75l-16.006,3.437c0.4,0.187 1.724,0.645 1.739,1.118l3.658,113.8c0.155,4.813 -4.192,9.69 -9.69,10.871l150.949,-32.419l0.415,-0.09l0.419,-0.089c5.506,-1.182 9.844,-6.049 9.69,-10.873l-3.659,-113.8c-0.057,-0.669 -0.624,-1.189 -1.295,-1.189c-0.151,-0 -0.3,0.026 -0.442,0.077Z" style="fill:#f53c37;fill-rule:nonzero;stroke:#000;stroke-width:3px;stroke-linecap:butt;"/><path id="Path_2696" d="M168.649,155.767c-0.332,-0.145 -0.702,-0.177 -1.054,-0.092c-0.375,0.084 -0.723,0.263 -1.009,0.52c-0.394,0.328 -0.626,0.813 -0.634,1.326l3.658,113.8c0.1,3.181 -2.556,5.729 -6.188,6.509l-1.339,0.283l0.309,3.479l0.911,-0.127c5.5,-1.181 9.845,-6.058 9.69,-10.871l-3.658,-113.8c-0.008,-0.446 -0.277,-0.849 -0.686,-1.027Z" style="fill-rule:nonzero;"/><path id="Path_2697" d="M338.779,221.279c0,0 -1.567,-4.06 0.7,-6.926c2.267,-2.866 6.217,0.238 9.677,2.029c3.46,1.791 5.96,1.3 7.754,7.637c1.794,6.337 2.626,11.709 8.119,16.484c5.493,4.775 11.823,5.613 11.823,11.822c0,6.209 -6.089,9.792 -3.344,14.327c2.745,4.535 11.583,9.2 7.284,16.722c-4.299,7.522 -14.31,15.877 -29.546,11.583c-15.236,-4.294 -20.009,-34.749 -19.174,-41.079c0.835,-6.33 7.208,-30.227 6.707,-32.599Z" style="fill:#f53c37;fill-rule:nonzero;stroke:#000;stroke-width:3px;stroke-linecap:butt;"/><path id="Path_2698" d="M278.935,566.409c-1.915,1.867 -8.492,11.634 -11.609,11.733c-2.058,-0.015 -4.11,-0.238 -6.123,-0.668c1.776,-1.464 10.991,-13.457 8.886,-31.457l13.411,1.7c-0,0 -2.129,15.051 -1.7,15.946c-1.252,-0.114 -1.684,1.595 -2.865,2.746Z" style="fill-rule:nonzero;stroke:#fff;stroke-width:3px;stroke-linecap:butt;"/><path id="Path_2699" d="M253.705,581.378c1.011,-1.041 2.921,-2.218 6.462,-3.306c0.381,-0.132 0.732,-0.336 1.036,-0.6c2.013,0.43 4.065,0.653 6.123,0.668c3.117,-0.1 9.694,-9.866 11.609,-11.733c1.181,-1.152 1.614,-2.86 2.864,-2.745c0.968,2.013 2.5,5.614 2.283,7.8c-0.317,3.156 -1.263,11.621 -1.661,14.983l-3.952,-0.274l0.3,-8.243c0,0 -3.053,-0.531 -4.372,1.126c-0.572,0.868 -0.981,1.833 -1.207,2.848c-0.666,2.326 -2.952,3.833 -5.352,3.528l-12.429,-0.852c-1.605,-0.116 -2.706,-2.167 -1.704,-3.2Z" style="fill-rule:nonzero;stroke:#fff;stroke-width:3px;stroke-linecap:butt;"/><path id="Path_2700" d="M407.009,565.617c-1.542,1.935 -6.192,11.887 -9.253,12.148c-2.068,0.091 -4.139,-0.024 -6.184,-0.343c1.477,-1.529 8.316,-13.809 2.81,-31.408l13.586,0.976c-0,0 0.754,14.918 1.349,15.779c-1.255,-0.047 -1.358,1.653 -2.308,2.848Z" style="fill-rule:nonzero;stroke:#fff;stroke-width:3px;stroke-linecap:butt;"/><path id="Path_2701" d="M384.896,581.654c0.8,-1.079 2.467,-2.334 5.763,-3.588c0.347,-0.145 0.659,-0.364 0.912,-0.642c2.045,0.319 4.116,0.434 6.184,0.343c3.061,-0.261 7.711,-10.213 9.253,-12.148c0.95,-1.195 1.053,-2.895 2.308,-2.848c1.34,1.931 3.546,5.4 3.742,7.558c0.287,3.122 0.96,11.5 1.2,14.829l-3.961,-0.064l-1.263,-8.127c0,0 -3.122,-0.364 -4.115,1.336c-0.402,0.902 -0.625,1.873 -0.655,2.86c-0.189,2.338 -2.043,3.8 -4.621,3.755l-12.46,-0.205c-1.602,-0.028 -3.083,-1.989 -2.287,-3.059Z" style="fill-rule:nonzero;stroke:#fff;stroke-width:3px;stroke-linecap:butt;"/><path id="Path_2702" d="M275.089,505.301c4.5,-48.828 16.559,-97.386 18.43,-107.115c4.916,-25.589 15.531,-66.645 15.531,-66.645l35.549,1.7l-29.062,228.977c-8.422,2.285 -17.072,3.627 -25.79,4c-10.851,0.355 -29.85,-7.172 -29.85,-7.172c0,0 14.22,-43.22 15.192,-53.745Z" style="fill-rule:nonzero;stroke:#fff;stroke-width:1px;stroke-linecap:butt;stroke-miterlimit:2;"/><path id="Path_2703" d="M317.511,337.323l44.237,224.894c8.572,2.266 17.362,3.607 26.219,4c10.893,0.355 29.083,-7.172 29.083,-7.172c-0,0 -29.366,-153.856 -30.333,-163.962c-2.707,-28.193 -2.112,-58.219 -22.729,-73.192c-6.766,-4.912 -13.57,7.955 -24.189,13.647c-10.324,5.54 -22.288,1.785 -22.288,1.785Z" style="fill:#fff;fill-rule:nonzero;stroke:#000;stroke-width:3px;stroke-linecap:butt;"/><path id="Path_2704" d="M306.549,341.403c1.512,-6.037 2.5,-9.861 2.5,-9.861l34.466,1.645c0.3,-0.214 0.587,-0.433 0.877,-0.65c9.506,0.788 18.751,1.156 24.964,0.466c0,-0 -5.176,7.691 -25.94,9.553c-12.294,0.971 -24.658,0.585 -36.867,-1.153Z" style="fill-rule:nonzero;stroke:#000;stroke-width:1px;stroke-linecap:butt;"/><path id="Path_2705" d="M312.506,263.617c3.738,-8.879 16.79,-21.137 30.954,-17.98c8.577,1.91 16.854,11.476 16.969,16.135c0.3,12.088 1.062,29.2 1.323,36.376c0.275,7.6 6.9,22.926 11.841,32.4c-9.631,6.705 -38.958,16.1 -66.32,1.532c12.889,-30.867 -0,-56.033 5.233,-68.463Z" style="fill:#fff;fill-rule:nonzero;stroke:#000;stroke-width:3px;stroke-linecap:butt;"/><path id="Path_2706" d="M346.749,231.822l1,10.524l0.973,5.9c0.115,2.233 -6.381,5.344 -10.024,2.664c-1.067,-0.784 -0.749,-3.865 0.123,-6.224l3.079,-11.812l4.849,-1.052Z" style="fill:#fff;fill-rule:nonzero;stroke:#000;stroke-width:3px;stroke-linecap:butt;"/><path id="Path_2707" d="M340.137,239.63l1.336,-5.129l4.067,-0.994c0,-0 -0.924,5.828 -5.403,6.123Z" style="fill-rule:nonzero;"/><path id="Path_2708" d="M354.031,273.296c0,0 -12.172,24.28 -19.19,31.118c-5.536,5.393 -22.039,11.112 -22.92,9.911c-1.805,-2.457 15.918,-15.316 14.27,-17.481l27.84,-23.548Z" style="fill-rule:nonzero;"/><path id="Path_2709" d="M357.261,266.459c-3.846,10.986 -17.517,27.532 -31.92,37.793c-10.313,7.348 -19.034,11.826 -33.866,7.11c-20.305,-6.458 -53.978,-54.472 -45.654,-57.151c8.324,-2.679 45.025,33.278 55.124,32.925c9.84,-0.343 39.438,-30.65 47.189,-32.808c12.8,-3.571 10.379,8.547 9.127,12.131Z" style="fill:#fff;fill-rule:nonzero;stroke:#000;stroke-width:3px;stroke-linecap:butt;"/><path id="Path_2710" d="M246.934,254.209c0,0 -7.068,-0.264 -8.915,-0.674c-1.847,-0.41 -6.072,-2.081 -4.083,0.8c1.989,2.881 5.513,2.07 4.64,4.532c-0.873,2.462 -6.9,5.75 -9.133,7.2c-4.562,2.972 -0.163,3.968 5.618,4.186c5.781,0.218 17.352,-6.991 18.454,-10.918c1.298,-4.629 -6.581,-5.126 -6.581,-5.126Z" style="fill:#fff;fill-rule:nonzero;stroke:#000;stroke-width:3px;stroke-linecap:butt;"/><path id="Path_2711" d="M348.559,231.255c-0.723,3.097 -3.3,5.438 -6.452,5.861c-5.181,0.62 -7.768,-0.352 -7.862,-5.188c-0.056,-2.836 2.351,-8.013 3.31,-10.016c0.844,-2.089 2.966,-3.392 5.211,-3.2c1.906,0.241 -0.377,2.669 3.765,5.61l1.728,3.483c0.214,-0.323 0.401,-0.664 0.559,-1.018c0.368,-0.8 1.105,-1.905 2.021,-0.774c1.184,1.458 -0.414,4.899 -2.28,5.242Z" style="fill:#fff;fill-rule:nonzero;stroke:#000;stroke-width:3px;stroke-linecap:butt;"/></g></svg>