<svg xmlns="http://www.w3.org/2000/svg" width="455.904" height="594.764" viewBox="0 0 455.904 594.764">
  <g id="Group_343" data-name="Group 343" transform="translate(-19.568 636.356)">
    <path id="Path_2665" data-name="Path 2665" d="M377.273-21.734c62.5,0,113.241,4.341,113.241,9.687S439.772-2.361,377.273-2.361,264.032-6.7,264.032-12.047,314.774-21.734,377.273-21.734Z" transform="translate(-16.041 -40.231)" stroke="#fff" stroke-linecap="round" stroke-linejoin="round" stroke-width="2" fill-rule="evenodd"/>
    <path id="Path_2666" data-name="Path 2666" d="M374.561-354.056c-6.6,18.852-30.238,56.21-65.791,44.9-20.3-6.457-53.977-54.47-45.653-57.15s45.025,33.278,55.125,32.926c9.839-.343,39.438-30.65,47.187-32.809C378.234-369.755,375.815-357.635,374.561-354.056Z" transform="translate(-15.896 -17.587)"/>
    <path id="Path_2667" data-name="Path 2667" d="M151.981-487.379,308.36-521.291,336.836-388.37S198.729-348.81,192.814-347.778s-9.357-.944-12.113-5.55Z" transform="translate(-8.689 -7.452)" fill="#f53c37" stroke="#000" stroke-linejoin="round" stroke-width="3"/>
    <path id="Path_2668" data-name="Path 2668" d="M190.247-348.411l-.417.091a6.751,6.751,0,0,1-8-5.184L153.941-483.668A1.734,1.734,0,0,0,151.885-485a1.733,1.733,0,0,0-1.329,2.059l27.885,130.16a10.218,10.218,0,0,0,12.115,7.848l.418-.088Z" transform="translate(-8.593 -9.831)"/>
    <path id="Path_2669" data-name="Path 2669" d="M143.141-341.4,287-468.04l-58.634-66.608L84.506-408.013Z" transform="translate(-4.261 -6.575)" fill="#fff" stroke="#000" stroke-linejoin="round" stroke-width="3"/>
    <path id="Path_2670" data-name="Path 2670" d="M232.935-405.641l6.531-31.525,32.1-2.482Z" transform="translate(-14.001 -12.809)" fill="#fff" stroke="#000" stroke-linejoin="round" stroke-width="1.319"/>
    <path id="Path_2671" data-name="Path 2671" d="M178.423-359.689l12.1-58.376,59.439-4.6Z" transform="translate(-10.424 -13.924)"/>
    <path id="Path_2672" data-name="Path 2672" d="M154.821-337.681,163.55-379.8l42.889-3.316Z" transform="translate(-8.875 -16.518)" fill="#f53c37"/>
    <path id="Path_2673" data-name="Path 2673" d="M146.433-581.823H54.626a35.161,35.161,0,0,0-35.058,35.057v2.935a35.161,35.161,0,0,0,35.058,35.057h57.209l19.184,15.11v-15.11h15.415a35.162,35.162,0,0,0,35.058-35.057v-2.935A35.161,35.161,0,0,0,146.433-581.823Z" transform="translate(0 -3.48)" fill="#f53c37"/>
    <path id="Path_2674" data-name="Path 2674" d="M76.366-544.166a6.316,6.316,0,0,1-6.315,6.316,6.317,6.317,0,0,1-6.318-6.316,6.317,6.317,0,0,1,6.318-6.316A6.316,6.316,0,0,1,76.366-544.166Z" transform="translate(-2.898 -5.536)" fill="#fff"/>
    <path id="Path_2675" data-name="Path 2675" d="M112.088-544.166a6.316,6.316,0,0,1-6.315,6.316,6.316,6.316,0,0,1-6.318-6.316,6.316,6.316,0,0,1,6.318-6.316A6.316,6.316,0,0,1,112.088-544.166Z" transform="translate(-5.242 -5.536)" fill="#fff"/>
    <path id="Path_2676" data-name="Path 2676" d="M147.81-544.166a6.316,6.316,0,0,1-6.318,6.316,6.315,6.315,0,0,1-6.315-6.316,6.315,6.315,0,0,1,6.315-6.316A6.316,6.316,0,0,1,147.81-544.166Z" transform="translate(-7.586 -5.536)" fill="#fff"/>
    <path id="Path_2677" data-name="Path 2677" d="M174.833-585.274l-19.384,52.047,69.32,151.6,144.147-65.912-85.65-187.314Z" transform="translate(-8.916 0)" fill="#fff" stroke="#000" stroke-linejoin="round" stroke-width="3"/>
    <path id="Path_2678" data-name="Path 2678" d="M155.449-529.745l32.634-17.429-13.25-34.618-8,43.629Z" transform="translate(-8.916 -3.482)"/>
    <path id="Path_2679" data-name="Path 2679" d="M181.729-548.936l-6.9-32.856-19.384,52.047Z" transform="translate(-8.916 -3.482)" fill="#fff" stroke="#000" stroke-linejoin="round" stroke-width="3"/>
    <path id="Path_2680" data-name="Path 2680" d="M240.7-512.549l-37.182,17-5.244-11.469,37.182-17Z" transform="translate(-11.726 -7.273)"/>
    <path id="Path_2681" data-name="Path 2681" d="M262.49-521.811l-15.379,7.03-5.243-11.466,15.379-7.033Z" transform="translate(-14.587 -6.665)"/>
    <path id="Path_2682" data-name="Path 2682" d="M299.974-539.512l-32.787,14.991-5.243-11.466,32.787-14.994Z" transform="translate(-15.904 -5.504)"/>
    <path id="Path_2683" data-name="Path 2683" d="M263.443-498.642l-47.49,21.714-5.243-11.465L258.2-510.11Z" transform="translate(-12.542 -8.185)"/>
    <path id="Path_2684" data-name="Path 2684" d="M306.041-517.712,271.3-501.826l-5.246-11.467L300.8-529.178Z" transform="translate(-16.174 -6.934)"/>
    <path id="Path_2685" data-name="Path 2685" d="M249.016-466.646l-23.745,10.86-5.244-11.468,23.746-10.858Z" transform="translate(-13.154 -10.285)" fill="#e7f1f1"/>
    <path id="Path_2686" data-name="Path 2686" d="M313.95-497.336l-54.816,25.068-5.243-11.468L308.7-508.8Z" transform="translate(-15.376 -8.271)"/>
    <path id="Path_2687" data-name="Path 2687" d="M369.627-602.125,367.9-613.353,360.949-605C361.54-602.917,363.487-600.438,369.627-602.125Z" transform="translate(-22.4 -1.411)" fill="#f53c37" stroke="#000" stroke-linejoin="round" stroke-width="3"/>
    <path id="Path_2688" data-name="Path 2688" d="M362.929-581.584l.34-.478Z" transform="translate(-22.53 -3.464)" fill="#f6c262" stroke="#000" stroke-linejoin="round" stroke-width="3"/>
    <path id="Path_2689" data-name="Path 2689" d="M368.594-601.539c-6.14,1.687-8.087-.792-8.678-2.876l-12.357,14.842a15.131,15.131,0,0,0-2.347,3.9c1.043,1.6,2.516,3,4.41,2.632,4.056-.792,8.551-4.459,8.551-4.459s-2.12,5.044.013,6c1.581.709,2.967-.746,3.581-1.547l.34-.478-.34.478c-.215.549-.122,1.535,2.073,2.761,1.745.973,4.92.256,7.773-1.061q-.038-.795-.157-1.587Z" transform="translate(-21.368 -1.997)" fill="#fff" stroke="#000" stroke-linejoin="round" stroke-width="3"/>
    <path id="Path_2690" data-name="Path 2690" d="M297.646-413.312l-2.254,8.123a7.5,7.5,0,0,0,5.221,9.24l12.018,3.338a7.5,7.5,0,0,0,9.236-5.223l2.257-8.121Z" transform="translate(-18.081 -14.537)" fill="#f53c37" stroke="#000" stroke-linejoin="round" stroke-width="3"/>
    <path id="Path_2691" data-name="Path 2691" d="M368.052-575.381a15.187,15.187,0,0,0,.536-4.782c-2.854,1.318-6.029,2.034-7.773,1.061-2.2-1.226-2.288-2.212-2.073-2.761-.614.8-2,2.257-3.581,1.547-2.133-.952-.013-6-.013-6s-4.494,3.666-8.551,4.459c-1.894.367-3.368-1.034-4.41-2.632a14.785,14.785,0,0,0-.612,1.748L299.114-429l26.481,7.353Z" transform="translate(-18.343 -3.185)" fill="#fff" stroke="#000" stroke-linejoin="round" stroke-width="3"/>
    <path id="Path_2692" data-name="Path 2692" d="M299.029-417.953l-1.205,4.336L324.3-406.26l1.207-4.34Z" transform="translate(-18.258 -14.233)" stroke="#000" stroke-linejoin="round" stroke-width="3"/>
    <path id="Path_2693" data-name="Path 2693" d="M369.213-574.949a15.186,15.186,0,0,0,.536-4.782c-2.854,1.318-6.029,2.034-7.773,1.061a7.963,7.963,0,0,1-1.024-.679c-.526,1.794-1,3.57-1.4,5.276-2.89,12.381-39.524,138.813-42.742,150.1l9.947,2.761Z" transform="translate(-19.504 -3.617)" stroke="#000" stroke-linejoin="round" stroke-width="3"/>
    <path id="Path_2694" data-name="Path 2694" d="M310.113-393.258l3.5.971a7.5,7.5,0,0,0,9.236-5.223l2.257-8.121-9.842-2.737A103.923,103.923,0,0,1,310.113-393.258Z" transform="translate(-19.065 -14.862)" fill="#f53c37" stroke="#000" stroke-linejoin="round" stroke-width="3"/>
    <path id="Path_2695" data-name="Path 2695" d="M350.418-504.744,273.844-488.3c-1.9.407-3.483-.611-3.537-2.274l-.183-5.66c-.053-1.664-1.636-2.679-3.537-2.271l-45.444,9.759A4.093,4.093,0,0,0,217.8-485l.182,5.663a4.094,4.094,0,0,1-3.342,3.75l-16.006,3.437c.4.187,1.724.645,1.739,1.118l3.658,113.8c.155,4.813-4.192,9.69-9.69,10.871l150.949-32.419.415-.09.419-.089c5.506-1.182,9.844-6.049,9.69-10.873l-3.659-113.8A1.3,1.3,0,0,0,350.418-504.744Z" transform="translate(-11.468 -8.535)" fill="#f53c37" stroke="#000" stroke-linejoin="round" stroke-width="3"/>
    <path id="Path_2696" data-name="Path 2696" d="M199.6-469.765a1.659,1.659,0,0,0-1.054-.092,2.244,2.244,0,0,0-1.009.52,1.759,1.759,0,0,0-.634,1.326l3.658,113.8c.1,3.181-2.556,5.729-6.188,6.509l-1.339.283.309,3.479.911-.127c5.5-1.181,9.845-6.058,9.69-10.871l-3.658-113.8A1.143,1.143,0,0,0,199.6-469.765Z" transform="translate(-11.383 -10.824)"/>
    <path id="Path_2697" data-name="Path 2697" d="M381.66-400.211s-1.567-4.06.7-6.926,6.217.238,9.677,2.029,5.96,1.3,7.754,7.637,2.626,11.709,8.119,16.484,11.823,5.613,11.823,11.822-6.089,9.792-3.344,14.327,11.583,9.2,7.284,16.722-14.31,15.877-29.546,11.583-20.009-34.749-19.174-41.079S382.161-397.839,381.66-400.211Z" transform="translate(-23.313 -14.866)" fill="#f53c37" stroke="#000" stroke-linejoin="round" stroke-width="3"/>
    <path id="Path_2698" data-name="Path 2698" d="M316.846-31.708c-1.915,1.867-8.492,11.634-11.609,11.733a30.38,30.38,0,0,1-6.123-.668C300.89-22.107,310.105-34.1,308-52.1l13.411,1.7s-2.129,15.051-1.7,15.946C318.459-34.568,318.027-32.859,316.846-31.708Z" transform="translate(-18.343 -38.239)" fill="#fff" stroke="#000" stroke-linejoin="round" stroke-width="3"/>
    <path id="Path_2699" data-name="Path 2699" d="M291.062-15.5c1.011-1.041,2.921-2.218,6.462-3.306a3.148,3.148,0,0,0,1.036-.6,30.38,30.38,0,0,0,6.123.668c3.117-.1,9.694-9.866,11.609-11.733,1.181-1.152,1.614-2.86,2.864-2.745.968,2.013,2.5,5.614,2.283,7.8-.317,3.156-1.263,11.621-1.661,14.983l-3.952-.274.3-8.243s-3.053-.531-4.372,1.126a8.568,8.568,0,0,0-1.207,2.848,4.922,4.922,0,0,1-5.352,3.528L292.766-12.3C291.161-12.416,290.06-14.467,291.062-15.5Z" transform="translate(-17.789 -39.478)" fill="#fff" stroke="#000" stroke-linejoin="round" stroke-width="3"/>
    <path id="Path_2700" data-name="Path 2700" d="M454.075-32.5c-1.542,1.935-6.192,11.887-9.253,12.148a31.23,31.23,0,0,1-6.184-.343c1.477-1.529,8.316-13.809,2.81-31.408l13.586.976s.754,14.918,1.349,15.779C455.128-35.395,455.025-33.695,454.075-32.5Z" transform="translate(-27.498 -38.239)" fill="#fff" stroke="#000" stroke-linejoin="round" stroke-width="3"/>
    <path id="Path_2701" data-name="Path 2701" d="M431.478-15.287c.8-1.079,2.467-2.334,5.763-3.588a2.576,2.576,0,0,0,.912-.642,31.23,31.23,0,0,0,6.184.343c3.061-.261,7.711-10.213,9.253-12.148.95-1.195,1.053-2.895,2.308-2.848,1.34,1.931,3.546,5.4,3.742,7.558.287,3.122.96,11.5,1.2,14.829l-3.961-.064-1.263-8.127s-3.122-.364-4.115,1.336a7.6,7.6,0,0,0-.655,2.86c-.189,2.338-2.043,3.8-4.621,3.755l-12.46-.205C432.163-12.256,430.682-14.217,431.478-15.287Z" transform="translate(-27.014 -39.415)" fill="#fff" stroke="#000" stroke-linejoin="round" stroke-width="3"/>
    <path id="Path_2702" data-name="Path 2702" d="M312.908-107.878c4.5-48.828,16.559-97.386,18.43-107.115,4.916-25.589,15.531-66.645,15.531-66.645l35.549,1.7L353.356-50.961a117.69,117.69,0,0,1-25.79,4c-10.851.355-29.85-7.172-29.85-7.172S311.936-97.353,312.908-107.878Z" transform="translate(-18.251 -23.177)"/>
    <path id="Path_2703" data-name="Path 2703" d="M359.376-276.61,403.613-51.716a124.072,124.072,0,0,0,26.219,4c10.893.355,29.083-7.172,29.083-7.172s-29.366-153.856-30.333-163.962c-2.707-28.193-2.112-58.219-22.729-73.192-6.766-4.912-13.57,7.955-24.189,13.647C371.34-272.855,359.376-276.61,359.376-276.61Z" transform="translate(-22.297 -22.423)" fill="#fff" stroke="#000" stroke-linejoin="round" stroke-width="3"/>
    <path id="Path_2704" data-name="Path 2704" d="M347.644-271.776c1.512-6.037,2.5-9.861,2.5-9.861l34.466,1.645c.3-.214.587-.433.877-.65,9.506.788,18.751,1.156,24.964.466,0,0-5.176,7.691-25.94,9.553A167.843,167.843,0,0,1,347.644-271.776Z" transform="translate(-21.527 -23.177)" stroke="#000" stroke-linejoin="round" stroke-width="1"/>
    <path id="Path_2705" data-name="Path 2705" d="M353.652-355.63c3.738-8.879,16.79-21.137,30.954-17.98,8.577,1.91,16.854,11.476,16.969,16.135.3,12.088,1.062,29.2,1.323,36.376.275,7.6,6.9,22.926,11.841,32.4-9.631,6.705-38.958,16.1-66.32,1.532C361.308-318.034,348.419-343.2,353.652-355.63Z" transform="translate(-21.578 -17.109)" fill="#fff" stroke="#000" stroke-linejoin="round" stroke-width="3"/>
    <path id="Path_2706" data-name="Path 2706" d="M390.054-388.36l1,10.524.973,5.9c.115,2.233-6.381,5.344-10.024,2.664-1.067-.784-.749-3.865.123-6.224l3.079-11.812Z" transform="translate(-23.737 -16.174)" fill="#fff" stroke="#000" stroke-linejoin="round" stroke-width="3"/>
    <path id="Path_2707" data-name="Path 2707" d="M383.591-380.433l1.336-5.129,4.067-.994S388.07-380.728,383.591-380.433Z" transform="translate(-23.886 -16.293)"/>
    <path id="Path_2708" data-name="Path 2708" d="M395.494-343.973s-12.172,24.28-19.19,31.118c-5.536,5.393-22.039,11.112-22.92,9.911-1.805-2.457,15.918-15.316,14.27-17.481Z" transform="translate(-21.895 -19.087)"/>
    <path id="Path_2709" data-name="Path 2709" d="M394-352.188c-3.846,10.986-17.517,27.532-31.92,37.793-10.313,7.348-19.034,11.826-33.866,7.11-20.305-6.458-53.978-54.472-45.654-57.151s45.025,33.278,55.124,32.925c9.84-.343,39.438-30.65,47.189-32.808C397.673-367.89,395.252-355.772,394-352.188Z" transform="translate(-17.171 -17.709)" fill="#fff" stroke="#000" stroke-linejoin="round" stroke-width="3"/>
    <path id="Path_2710" data-name="Path 2710" d="M282.482-364.508s-7.068-.264-8.915-.674-6.072-2.081-4.083.8,5.513,2.07,4.64,4.532-6.9,5.75-9.133,7.2c-4.562,2.972-.163,3.968,5.618,4.186s17.352-6.991,18.454-10.918C290.361-364.011,282.482-364.508,282.482-364.508Z" transform="translate(-15.98 -17.639)" fill="#fff" stroke="#000" stroke-linejoin="round" stroke-width="3"/>
    <path id="Path_2711" data-name="Path 2711" d="M391.6-389.85a7.674,7.674,0,0,1-6.452,5.861c-5.181.62-7.768-.352-7.862-5.188-.056-2.836,2.351-8.013,3.31-10.016a5.146,5.146,0,0,1,5.211-3.2c1.906.241-.377,2.669,3.765,5.61L391.3-393.3a6.934,6.934,0,0,0,.559-1.018c.368-.8,1.105-1.905,2.021-.774C395.064-393.634,393.466-390.193,391.6-389.85Z" transform="translate(-23.473 -15.251)" fill="#fff" stroke="#000" stroke-linejoin="round" stroke-width="3"/>
  </g>
</svg>
