<svg xmlns="http://www.w3.org/2000/svg" width="59.674" height="59.674" viewBox="0 0 59.674 59.674">
  <g id="Group_238" data-name="Group 238" transform="translate(0 45)">
    <path id="Path_1681" data-name="Path 1681" d="M58.348-15.163ZM29.837,14.674A29.871,29.871,0,0,1,0-15.163,29.871,29.871,0,0,1,29.837-45,29.871,29.871,0,0,1,59.674-15.163,29.871,29.871,0,0,1,29.837,14.674Z" fill="#f53c37"/>
    <path id="Path_1682" data-name="Path 1682" d="M13.1-12.095l-.338,5.739L18.5-6.694,37.926-26.122l-5.4-5.4ZM12.059-4.987a.663.663,0,0,1-.468-.195.662.662,0,0,1-.194-.507l.4-6.737a.668.668,0,0,1,.194-.43L32.06-32.926a.662.662,0,0,1,.468-.194.668.668,0,0,1,.469.194l6.335,6.336a.661.661,0,0,1,.194.468.662.662,0,0,1-.194.469L19.26-5.577a.663.663,0,0,1-.43.192l-6.731.4Z" transform="translate(3.716 3.874)" fill="#fff"/>
    <path id="Path_1683" data-name="Path 1683" d="M30.979-23.4a.661.661,0,0,1-.468-.194l-5.7-5.7a.661.661,0,0,1,0-.938.661.661,0,0,1,.938,0l5.7,5.7a.664.664,0,0,1,0,.938A.666.666,0,0,1,30.979-23.4Z" transform="translate(8.028 4.753)" fill="#fff"/>
    <path id="Path_1684" data-name="Path 1684" d="M15.538-11.2a.66.66,0,0,1-.469-.194.664.664,0,0,1,0-.938l15.67-15.67a.664.664,0,0,1,.938,0,.664.664,0,0,1,0,.938L16.008-11.4A.66.66,0,0,1,15.538-11.2Z" transform="translate(4.85 5.478)" fill="#fff"/>
    <path id="Path_1685" data-name="Path 1685" d="M12.637-14.891q-.135,0-.275.012c-.089.009-.164.037-.249.049l-.194,3.269,3.136-.19c.027-.118.057-.237.073-.363A2.44,2.44,0,0,0,12.637-14.891Z" transform="translate(3.887 9.818)" fill="#fff"/>
    <path id="Path_1686" data-name="Path 1686" d="M36.909-11.74H22.1a.662.662,0,0,1-.663-.663.662.662,0,0,1,.663-.663h14.81a.662.662,0,0,1,.663.663A.663.663,0,0,1,36.909-11.74Z" transform="translate(6.99 10.413)" fill="#fff"/>
  </g>
</svg>
