<svg xmlns="http://www.w3.org/2000/svg" width="91.346" height="91.068" viewBox="0 0 91.346 91.068">
  <g id="Group_348" data-name="Group 348" transform="translate(0 297.468)">
    <path id="Path_2731" data-name="Path 2731" d="M51.17-295.828a38.281,38.281,0,0,1,38.262,38.262A38.28,38.28,0,0,1,51.17-219.3a38.28,38.28,0,0,1-38.262-38.262A38.281,38.281,0,0,1,51.17-295.828Z" transform="translate(-8.377)" fill="#fff" stroke="#000" stroke-linecap="round" stroke-linejoin="round" stroke-width="3.28" fill-rule="evenodd"/>
    <path id="Path_2732" data-name="Path 2732" d="M169.162-173.984l-.083-2.656-25.775.8.083,2.656Z" transform="translate(-99.645 -83.423)" fill-rule="evenodd"/>
    <path id="Path_2733" data-name="Path 2733" d="M139.249-225.09l-2.656.1.648,17.9,2.655-.1Z" transform="translate(-94.948 -49.511)" fill-rule="evenodd"/>
    <path id="Path_2734" data-name="Path 2734" d="M136.674-272.849h2.246v-3.9h-2.246Z" transform="translate(-95.004 -13.353)" fill-rule="evenodd"/>
    <path id="Path_2735" data-name="Path 2735" d="M235-170.658h3.9V-172.9H235Z" transform="translate(-163.828 -86.037)" fill-rule="evenodd"/>
    <path id="Path_2736" data-name="Path 2736" d="M32.829-170.658h3.9V-172.9h-3.9Z" transform="translate(-22.32 -86.037)" fill-rule="evenodd"/>
    <path id="Path_2737" data-name="Path 2737" d="M188.365-263.084l-1.945-1.123-1.951,3.379,1.945,1.123Z" transform="translate(-128.457 -22.132)" fill-rule="evenodd"/>
    <path id="Path_2738" data-name="Path 2738" d="M48.75-222.3l1.123-1.945-3.379-1.95-1.123,1.945Z" transform="translate(-31.099 -48.736)" fill-rule="evenodd"/>
    <path id="Path_2739" data-name="Path 2739" d="M209-246.3l-1.588-1.588-2.759,2.759,1.588,1.588Z" transform="translate(-142.584 -33.556)" fill-rule="evenodd"/>
    <path id="Path_2740" data-name="Path 2740" d="M64.453-243.538l1.588-1.588-2.759-2.759L61.694-246.3Z" transform="translate(-42.524 -33.556)" fill-rule="evenodd"/>
    <path id="Path_2741" data-name="Path 2741" d="M164.462-273.471l-2.17-.582-1.01,3.769,2.17.581Z" transform="translate(-112.228 -15.241)" fill-rule="evenodd"/>
    <path id="Path_2742" data-name="Path 2742" d="M39.295-197.443l.581-2.17-3.768-1.01-.581,2.17Z" transform="translate(-24.208 -66.636)" fill-rule="evenodd"/>
    <path id="Path_2743" data-name="Path 2743" d="M111.126-274.053l-2.17.582,1.01,3.768,2.17-.581Z" transform="translate(-75.604 -15.241)" fill-rule="evenodd"/>
    <path id="Path_2744" data-name="Path 2744" d="M235.162-198.453l-.582-2.17-3.768,1.01.581,2.17Z" transform="translate(-160.894 -66.636)" fill-rule="evenodd"/>
    <path id="Path_2745" data-name="Path 2745" d="M85.327-264.207l-1.945,1.123,1.951,3.379,1.945-1.123Z" transform="translate(-57.703 -22.132)" fill-rule="evenodd"/>
    <path id="Path_2746" data-name="Path 2746" d="M224.962-224.252l-1.123-1.945-3.379,1.95,1.123,1.945Z" transform="translate(-153.648 -48.736)" fill-rule="evenodd"/>
    <path id="Path_2747" data-name="Path 2747" d="M136.674-70.513h2.246v-3.9h-2.246Z" transform="translate(-95.004 -154.972)" fill-rule="evenodd"/>
    <path id="Path_2748" data-name="Path 2748" d="M32.829-170.5h3.9v-2.246h-3.9Z" transform="translate(-22.32 -86.149)" fill-rule="evenodd"/>
    <path id="Path_2749" data-name="Path 2749" d="M235-170.5h3.9v-2.246H235Z" transform="translate(-163.828 -86.149)" fill-rule="evenodd"/>
    <path id="Path_2750" data-name="Path 2750" d="M83.382-85.58l1.945,1.123,1.951-3.379-1.945-1.123Z" transform="translate(-57.703 -144.793)" fill-rule="evenodd"/>
    <path id="Path_2751" data-name="Path 2751" d="M221.583-124.95,220.46-123l3.379,1.951L224.962-123Z" transform="translate(-153.648 -119.602)" fill-rule="evenodd"/>
    <path id="Path_2752" data-name="Path 2752" d="M61.694-102.006l1.588,1.588,2.759-2.759-1.588-1.588Z" transform="translate(-42.524 -133.73)" fill-rule="evenodd"/>
    <path id="Path_2753" data-name="Path 2753" d="M206.241-104.765l-1.588,1.588,2.759,2.759L209-102.006Z" transform="translate(-142.584 -133.73)" fill-rule="evenodd"/>
    <path id="Path_2754" data-name="Path 2754" d="M108.956-74.838l2.17.581,1.01-3.768-2.17-.581Z" transform="translate(-75.604 -152.039)" fill-rule="evenodd"/>
    <path id="Path_2755" data-name="Path 2755" d="M231.393-148.136l-.581,2.17,3.768,1.01.582-2.17Z" transform="translate(-160.894 -103.373)" fill-rule="evenodd"/>
    <path id="Path_2756" data-name="Path 2756" d="M162.292-74.257l2.17-.581-1.01-3.769-2.17.581Z" transform="translate(-112.228 -152.039)" fill-rule="evenodd"/>
    <path id="Path_2757" data-name="Path 2757" d="M35.526-147.126l.581,2.17,3.768-1.01-.581-2.17Z" transform="translate(-24.208 -103.373)" fill-rule="evenodd"/>
    <path id="Path_2758" data-name="Path 2758" d="M186.42-84.457l1.945-1.123-1.951-3.379-1.945,1.123Z" transform="translate(-128.457 -144.793)" fill-rule="evenodd"/>
    <path id="Path_2759" data-name="Path 2759" d="M45.371-123l1.123,1.945L49.873-123,48.75-124.95Z" transform="translate(-31.099 -119.602)" fill-rule="evenodd"/>
    <path id="Path_2760" data-name="Path 2760" d="M136.028-53.839a8.868,8.868,0,0,0,8.865,8.87,8.869,8.869,0,0,0,8.87-8.87,8.869,8.869,0,0,0-8.87-8.865A8.868,8.868,0,0,0,136.028-53.839Z" transform="translate(-94.552 -163.169)" stroke="#fff" stroke-linejoin="round" stroke-width="1.878"/>
    <path id="Path_2761" data-name="Path 2761" d="M1.756-28.176A8.082,8.082,0,0,1,.939-31.71a8.144,8.144,0,0,1,8.144-8.143,8.146,8.146,0,0,1,8.144,8.143,8.082,8.082,0,0,1-.817,3.534Z" transform="translate(0 -179.163)" fill="#f53c37" stroke="#fff" stroke-linejoin="round" stroke-width="1.878"/>
    <path id="Path_2762" data-name="Path 2762" d="M31.441-67.658a9.629,9.629,0,0,1-.066-1.054,8.865,8.865,0,0,1,8.865-8.865,8.828,8.828,0,0,1,3.861.892,11.108,11.108,0,0,1,10.66-8A11.11,11.11,0,0,1,65.72-75.369a11.881,11.881,0,0,1,7.1,4.128,5.927,5.927,0,0,1,1.848-.294,5.993,5.993,0,0,1,5.995,5.992,5.991,5.991,0,0,1-5.871,5.986l0,.005H31.914l-.013-.031c-.111.008-.22.031-.331.031a4.057,4.057,0,0,1-4.061-4.058A4.051,4.051,0,0,1,31.441-67.658Z" transform="translate(-18.597 -147.787)" stroke="#fff" stroke-linejoin="round" stroke-width="1.878"/>
    <path id="Path_2763" data-name="Path 2763" d="M163.011-48.13a8.564,8.564,0,0,0-4.556,1.312,13.1,13.1,0,0,0-13.1-12.98,13.093,13.093,0,0,0-12.286,8.576,13.054,13.054,0,0,0-4.465-.8,13.1,13.1,0,0,0-12.228,8.408,7.022,7.022,0,0,0,4.162,1.47l.005.006H171.1l.015-.038c.031,0,.061.005.089.009A8.616,8.616,0,0,0,163.011-48.13Z" transform="translate(-80.799 -165.203)" fill="#f53c37" stroke="#fff" stroke-linejoin="round" stroke-width="1.878"/>
    <path id="Path_2764" data-name="Path 2764" d="M121.775-15.411a4.48,4.48,0,0,0,.291-1.578,4.553,4.553,0,0,0-4.546-4.558A4.553,4.553,0,0,0,112.961-17a4.549,4.549,0,0,0,.286,1.579Z" transform="translate(-78.407 -191.976)" fill="#f53c37" stroke="#fff" stroke-linejoin="round" stroke-width="1.878"/>
  </g>
</svg>
