<svg xmlns="http://www.w3.org/2000/svg" width="401.077" height="614.119" viewBox="0 0 401.077 614.119">
  <g id="Group_318" data-name="Group 318" transform="translate(0 328.118)">
    <path id="Path_2414" data-name="Path 2414" d="M144.2-19.248c79.589,0,144.2,8.08,144.2,18.033S223.794,16.818,144.2,16.818,0,8.738,0-1.215,64.616-19.248,144.2-19.248Z" transform="translate(0 269.182)" fill-rule="evenodd"/>
    <path id="Path_2415" data-name="Path 2415" d="M53.159-10.8C56.078-16.377,56.2-25.373,56.316-25.8c.514-1.847,4.85-2.491,6.026,1.88,2.316,8.618,10.871-1.774,9.773,1.339-3.268,9.272-4.124,25.02-7.508,25.329C57.4,3.4,29.732,7.889,30.126,4.08,30.362,1.792,51.219-7.087,53.159-10.8Z" transform="translate(26.32 262.22)" stroke="#fff" stroke-linejoin="round" stroke-width="1.602"/>
    <path id="Path_2416" data-name="Path 2416" d="M127.338,4.25c-3.914-1.832-4.328-5.368-5.929-8.753-.109-.228-.639-5.045-.633-5.427.021-1.659-6.345-28.2-8.661-24.807-4.566,6.686-8.125,18.143-7.941,20.988.547,8.463-2.972,21.808.15,22.812C110.976,11.2,142.2,14.27,142.871,11,143.276,9.037,134.106,7.418,127.338,4.25Z" transform="translate(90.014 255.387)" stroke="#fff" stroke-linejoin="round" stroke-width="1.602"/>
    <path id="Path_2417" data-name="Path 2417" d="M84.309-200.466c.957-1.705,111.451-22.868,116.357-18.85,0,0-12.2,360.547-18.946,365.411s-22.75,7.307-26.3-.316c-9.6-20.62-11.937-245.135-10.229-279.684-2.016,10.844-66.59,273.068-71.881,279.684s-23.214,4.412-29.387,0c-3.62-2.587,16.339-125.531,23.9-216.2C74.117-145.871,79.331-191.588,84.309-200.466Z" transform="translate(38.001 93.923)" fill="#fff" stroke="#000" stroke-linejoin="round" stroke-width="1.602"/>
    <path id="Path_2418" data-name="Path 2418" d="M111.57-218.927c.956-1.7,37-3.511,41.909.506,0,0-12.2,360.547-18.946,365.411s-22.75,7.307-26.3-.316C98.637,126.054,96.3-98.461,98.006-133.01,95.99-122.167,106.591-210.049,111.57-218.927Z" transform="translate(85.187 93.028)"/>
    <path id="Path_2419" data-name="Path 2419" d="M113.462-303.536c33.649-.811,84.178,74.753,84.178,74.753s65.85-1.941,82.979-4.036c6.122-.748,4.394,19.491-3.877,27.7-12.641,12.553-51.076,35.9-79.1,37.26C156.248-165.848,68.4-302.449,113.462-303.536Z" transform="translate(88.195 20.77)"/>
    <path id="Path_2420" data-name="Path 2420" d="M141.432-110.93c-.631.112-1.269.23-1.917.348q-3.747.7-7.863,1.523c-9.682,1.969-68.231,5.262-68.659,2.947-1.634-8.854,6.932-86.783,6.932-86.783s-4.473-71.076-3.216-75.7c5.931-21.839,15.326-31,73.25-35.718,28.618-2.331,37.732,23.692,39.955,41.281,1.306,10.358,1.553,75.369,1.553,75.369s1.574,38.851,3.7,55.22C187.439-114.889,177.126-117.359,141.432-110.93Z" transform="translate(54.862 19.966)" fill="#fff" stroke="#000" stroke-linejoin="round" stroke-width="1.602"/>
    <path id="Path_2421" data-name="Path 2421" d="M91.327-320.122c-.469,2.863,1.321,18.153,2.905,18.757s14.913-8.588,16.217-11.869-3.4-8.82-5.99-8.874" transform="translate(79.734 4.547)" fill="#f53c37" stroke="#000" stroke-linejoin="round" stroke-width="1.602"/>
    <path id="Path_2422" data-name="Path 2422" d="M101.026-302.118a11.135,11.135,0,0,1-6.272-10.347l6.55,4.484Z" transform="translate(82.781 12.973)" fill="#c66b66"/>
    <path id="Path_2423" data-name="Path 2423" d="M98.731-314.434l2.777-4.7c2.692-2.891,6.394-2.957,9.476-2.41a2.048,2.048,0,0,1,1.2.691,7.483,7.483,0,0,1,1.656,3.86,39.1,39.1,0,0,1-.352,13.289c-.9,4.085-3.159,6.723-6.36,6.414l-.058-.006,2.728,8.106c1.478,2.813-.442,2.312-1.651,3.468-4.125,3.944-14.793.637-15.014-2.174l1.131-24.251.1.051c-.853-2.267-.192-5.685,1.831-6.689,2.049-1.016,2.377,1.04,2.382,2.423A10.814,10.814,0,0,0,98.731-314.434Z" transform="translate(81.377 4.807)" fill="#fff" stroke="#000" stroke-linejoin="round" stroke-width="1.602"/>
    <path id="Path_2424" data-name="Path 2424" d="M101.267-317c.138.094,6.167,1.861,9.736,1s6.427-4.675,5.693-5.057-2.19.3-2.19.3,3.526-1.705,2.25-3.155-3.375-.913-4.741-.993c0,0,1.175-1.062-.069-1.415a67.849,67.849,0,0,0-15.2-.819c-4.978.551-5.658,9.562-5.482,12.255" transform="translate(79.723)" fill="#f53c37" stroke="#000" stroke-linejoin="round" stroke-width="1.602"/>
    <path id="Path_2425" data-name="Path 2425" d="M110.19-121.719c-.382,2.925-1,5.811-1.165,8.754-.631.114-1.27.232-1.917.349.152-3.5.986-6.909,1.338-10.386a29.953,29.953,0,0,0-1.282-11.175,85.752,85.752,0,0,1-2.724-10.75,91.99,91.99,0,0,1-.759-11.1c-.279-13.6,1.284-27.176,2.458-40.7,1.091-12.519,2.265-25.435.18-37.916-1.1-6.554-2.79-12.978-3.693-19.575a95.442,95.442,0,0,1-.931-18.086c.268-4.93.77-9.85.68-14.8-.079-4.265-.4-9.39-3.266-12.822-.778-.929.557-2.279,1.342-1.34,3.3,3.946,3.758,9.551,3.825,14.486.073,5.464-.6,10.891-.77,16.341a100.65,100.65,0,0,0,1.523,19.515c1.055,6.388,2.809,12.665,3.594,19.1,1.557,12.792.229,25.785-.89,38.557-1.209,13.823-2.758,27.734-1.992,41.628a53.613,53.613,0,0,0,1.329,10.175c.815,3.24,1.928,6.4,2.661,9.669A28.442,28.442,0,0,1,110.19-121.719Z" transform="translate(86.395 22.483)"/>
    <path id="Path_2426" data-name="Path 2426" d="M106.874-297.48s3.6-5.035,3.793-8.631c4.053,1.046,5.818,13.6,5.818,13.6l-9.218-3.27-5.95,5.689s-9.7-6.8-10.786-9.457c-.228-.557,4.163-8.151,5.106-6.658C98.649-301.438,106.874-297.48,106.874-297.48Z" transform="translate(79.097 18.272)" fill="#fff" stroke="#000" stroke-linejoin="round" stroke-width="1.602"/>
    <path id="Path_2427" data-name="Path 2427" d="M153.27-264.782c-3.806,7.165-1.072,15.506-1.589,23.156-.094,1.366,2.02,1.671,2.115.3.5-7.411-2.23-15.719,1.441-22.632C155.882-265.172,153.911-265.987,153.27-264.782Z" transform="translate(132.125 54.12)" fill="#fff"/>
    <path id="Path_2428" data-name="Path 2428" d="M94.747-312.465a24.381,24.381,0,0,0,10.677,5.162,9.73,9.73,0,0,0,4.58,0,4.836,4.836,0,0,1-4.289,1.844c-3.84-.373-5.2-1.246-7.774-2.972A8.365,8.365,0,0,1,94.747-312.465Z" transform="translate(82.789 12.973)"/>
    <path id="Path_2429" data-name="Path 2429" d="M59.895-185.822s.346,8.73.377,11.915c.032,3.315-3.02-2.863-3.02-2.863a30.124,30.124,0,0,0-.358,7.726,1.267,1.267,0,0,1-1.681,1.338,57.445,57.445,0,0,1-8.023-3.352c-3.078-1.778-6.058-7.4-4.824-9.794s1.728-11.046,7.242-14.43S58.378-191.488,59.895-185.822Z" transform="translate(36.769 114.604)" fill="#fff" stroke="#000" stroke-linejoin="round" stroke-width="1.602"/>
    <path id="Path_2430" data-name="Path 2430" d="M38.29-197.709a27.355,27.355,0,0,1-.04-3.1c1.612-37.069,63.8-94.51,63.8-94.51,11.574-5.382,20.085,7.8,19.278,21.715s-27.057,60.493-41.514,85.094l-.028.047c.194,15.751-1.413,62.24-9.4,83.683-2.7,7.248-13.643,1.527-19.393.3C37.238-107.434,29.541-166.836,38.29-197.709Z" transform="translate(30.21 26.877)" fill="#fff" stroke="#000" stroke-linejoin="round" stroke-width="1.602"/>
    <path id="Path_2431" data-name="Path 2431" d="M61.213-174.15c1.46-11.694,2.872-20.966,4.254-27.67l116.353-3.555s-4.81,8.574-40.7,15.506C116.709-185.159,81.346-178.155,61.213-174.15Z" transform="translate(53.487 106.547)"/>
    <path id="Path_2432" data-name="Path 2432" d="M197.341-262.812s19.1,2.831,22.941,4.75c3.821,1.919,10.311,4.726,9.978,5.775s-9.581-1.836-9.581-1.836-1.848,6.564-4.829,7.855a4.336,4.336,0,0,1-4.889-.808s-12.024-.371-15.255-6.034C192.45-258.767,197.341-262.812,197.341-262.812Z" transform="translate(170.028 56.359)" fill="#fff" stroke="#000" stroke-linejoin="round" stroke-width="1.602"/>
  </g>
</svg>
