<?xml version="1.0" encoding="UTF-8" standalone="no"?><!DOCTYPE svg PUBLIC "-//W3C//DTD SVG 1.1//EN" "http://www.w3.org/Graphics/SVG/1.1/DTD/svg11.dtd"><svg width="100%" height="100%" viewBox="0 0 402 615" version="1.1" xmlns="http://www.w3.org/2000/svg" xmlns:xlink="http://www.w3.org/1999/xlink" xml:space="preserve" xmlns:serif="http://www.serif.com/" style="fill-rule:evenodd;clip-rule:evenodd;stroke-linejoin:round;stroke-miterlimit:2;"><g id="Group_318"><path id="Path_2414" d="M144.2,578.052c79.589,-0 144.2,8.08 144.2,18.033c-0,9.953 -64.606,18.033 -144.2,18.033c-79.594,-0 -144.2,-8.08 -144.2,-18.033c0,-9.953 64.616,-18.033 144.2,-18.033Z" style="stroke:#fff;stroke-width:1px;"/><path id="Path_2415" d="M79.479,579.538c2.919,-5.577 3.041,-14.573 3.157,-15c0.514,-1.847 4.85,-2.491 6.026,1.88c2.316,8.618 10.871,-1.774 9.773,1.339c-3.268,9.272 -4.124,25.02 -7.508,25.329c-7.207,0.652 -34.875,5.141 -34.481,1.332c0.236,-2.288 21.093,-11.167 23.033,-14.88Z" style="fill-rule:nonzero;stroke:#fff;stroke-width:1.6px;stroke-miterlimit:4;"/><path id="Path_2416" d="M217.352,587.755c-3.914,-1.832 -4.328,-5.368 -5.929,-8.753c-0.109,-0.228 -0.639,-5.045 -0.633,-5.427c0.021,-1.659 -6.345,-28.2 -8.661,-24.807c-4.566,6.686 -8.125,18.143 -7.941,20.988c0.547,8.463 -2.972,21.808 0.15,22.812c6.652,2.137 37.876,5.207 38.547,1.937c0.405,-1.963 -8.765,-3.582 -15.533,-6.75Z" style="fill-rule:nonzero;stroke:#fff;stroke-width:1.6px;stroke-miterlimit:4;"/><path id="Path_2417" d="M122.31,221.575c0.957,-1.705 111.451,-22.868 116.357,-18.85c0,-0 -12.2,360.547 -18.946,365.411c-6.746,4.864 -22.75,7.307 -26.3,-0.316c-9.6,-20.62 -11.937,-245.135 -10.229,-279.684c-2.016,10.844 -66.59,273.068 -71.881,279.684c-5.291,6.616 -23.214,4.412 -29.387,0c-3.62,-2.587 16.339,-125.531 23.9,-216.2c6.294,-75.45 11.508,-121.167 16.486,-130.045Z" style="fill:#fff;fill-rule:nonzero;stroke:#000;stroke-width:1.6px;stroke-miterlimit:4;"/><path id="Path_2418" d="M196.757,202.219c0.956,-1.7 37,-3.511 41.909,0.506c0,0 -12.2,360.547 -18.946,365.411c-6.746,4.864 -22.75,7.307 -26.3,-0.316c-9.596,-20.62 -11.933,-245.135 -10.227,-279.684c-2.016,10.843 8.585,-77.039 13.564,-85.917Z" style="fill-rule:nonzero;stroke:#fff;stroke-width:1px;"/><path id="Path_2419" d="M201.657,45.352c33.649,-0.811 84.178,74.753 84.178,74.753c-0,-0 65.85,-1.941 82.979,-4.036c6.122,-0.748 4.394,19.491 -3.877,27.7c-12.641,12.553 -51.076,35.9 -79.1,37.26c-41.394,2.011 -129.242,-134.59 -84.18,-135.677Z" style="fill-rule:nonzero;stroke:#fff;stroke-width:1px;"/><path id="Path_2420" d="M196.294,237.154c-0.631,0.112 -1.269,0.23 -1.917,0.348c-2.498,0.467 -5.119,0.974 -7.863,1.523c-9.682,1.969 -68.231,5.262 -68.659,2.947c-1.634,-8.854 6.932,-86.783 6.932,-86.783c-0,-0 -4.473,-71.076 -3.216,-75.7c5.931,-21.839 15.326,-31 73.25,-35.718c28.618,-2.331 37.732,23.692 39.955,41.281c1.306,10.358 1.553,75.369 1.553,75.369c-0,-0 1.574,38.851 3.7,55.22c2.272,17.554 -8.041,15.084 -43.735,21.513Z" style="fill:#fff;fill-rule:nonzero;stroke:#000;stroke-width:1.6px;stroke-miterlimit:4;"/><path id="Path_2421" d="M171.061,12.543c-0.469,2.863 1.321,18.153 2.905,18.757c1.584,0.604 14.913,-8.588 16.217,-11.869c1.304,-3.281 -3.4,-8.82 -5.99,-8.874" style="fill:#f53c37;fill-rule:nonzero;stroke:#000;stroke-width:1.6px;stroke-miterlimit:4;"/><path id="Path_2422" d="M183.807,38.973c-3.938,-1.91 -6.401,-5.972 -6.272,-10.347l6.55,4.484l-0.278,5.863Z" style="fill:#c66b66;fill-rule:nonzero;"/><path id="Path_2423" d="M180.108,18.491l2.777,-4.7c2.692,-2.891 6.394,-2.957 9.476,-2.41c0.468,0.084 0.892,0.328 1.2,0.691c0.909,1.102 1.484,2.442 1.656,3.86c0.642,4.417 0.523,8.912 -0.352,13.289c-0.9,4.085 -3.159,6.723 -6.36,6.414l-0.058,-0.006l2.728,8.106c1.478,2.813 -0.442,2.312 -1.651,3.468c-4.125,3.944 -14.793,0.637 -15.014,-2.174l1.131,-24.251l0.1,0.051c-0.853,-2.267 -0.192,-5.685 1.831,-6.689c2.049,-1.016 2.377,1.04 2.382,2.423c-0.006,0.646 0.045,1.291 0.154,1.928Z" style="fill:#fff;fill-rule:nonzero;stroke:#000;stroke-width:1.6px;stroke-miterlimit:4;"/><path id="Path_2424" d="M180.99,11.118c0.138,0.094 6.167,1.861 9.736,1c3.569,-0.861 6.427,-4.675 5.693,-5.057c-0.734,-0.382 -2.19,0.3 -2.19,0.3c-0,-0 3.526,-1.705 2.25,-3.155c-1.276,-1.45 -3.375,-0.913 -4.741,-0.993c0,0 1.175,-1.062 -0.069,-1.415c-5.02,-0.842 -10.119,-1.117 -15.2,-0.819c-4.978,0.551 -5.658,9.562 -5.482,12.255" style="fill:#f53c37;fill-rule:nonzero;stroke:#000;stroke-width:1.6px;stroke-miterlimit:4;"/><path id="Path_2425" d="M196.585,228.882c-0.382,2.925 -1,5.811 -1.165,8.754c-0.631,0.114 -1.27,0.232 -1.917,0.349c0.152,-3.5 0.986,-6.909 1.338,-10.386c0.282,-3.772 -0.153,-7.564 -1.282,-11.175c-1.139,-3.521 -2.049,-7.112 -2.724,-10.75c-0.477,-3.681 -0.73,-7.388 -0.759,-11.1c-0.279,-13.6 1.284,-27.176 2.458,-40.7c1.091,-12.519 2.265,-25.435 0.18,-37.916c-1.1,-6.554 -2.79,-12.978 -3.693,-19.575c-0.883,-5.986 -1.195,-12.041 -0.931,-18.086c0.268,-4.93 0.77,-9.85 0.68,-14.8c-0.079,-4.265 -0.4,-9.39 -3.266,-12.822c-0.778,-0.929 0.557,-2.279 1.342,-1.34c3.3,3.946 3.758,9.551 3.825,14.486c0.073,5.464 -0.6,10.891 -0.77,16.341c-0.128,6.539 0.382,13.075 1.523,19.515c1.055,6.388 2.809,12.665 3.594,19.1c1.557,12.792 0.229,25.785 -0.89,38.557c-1.209,13.823 -2.758,27.734 -1.992,41.628c0.117,3.426 0.562,6.834 1.329,10.175c0.815,3.24 1.928,6.4 2.661,9.669c0.752,3.304 0.908,6.717 0.459,10.076Z" style="fill-rule:nonzero;"/><path id="Path_2426" d="M185.971,48.91c0,-0 3.6,-5.035 3.793,-8.631c4.053,1.046 5.818,13.6 5.818,13.6l-9.218,-3.27l-5.95,5.689c-0,0 -9.7,-6.8 -10.786,-9.457c-0.228,-0.557 4.163,-8.151 5.106,-6.658c3.012,4.769 11.237,8.727 11.237,8.727Z" style="fill:#fff;fill-rule:nonzero;stroke:#000;stroke-width:1.6px;stroke-miterlimit:4;"/><path id="Path_2427" d="M285.395,117.456c-3.806,7.165 -1.072,15.506 -1.589,23.156c-0.094,1.366 2.02,1.671 2.115,0.3c0.5,-7.411 -2.23,-15.719 1.441,-22.632c0.645,-1.214 -1.326,-2.029 -1.967,-0.824Z" style="fill:#fff;fill-rule:nonzero;"/><path id="Path_2428" d="M177.536,28.626c3.08,2.573 6.748,4.346 10.677,5.162c1.505,0.364 3.075,0.364 4.58,0c-1.018,1.308 -2.639,2.006 -4.289,1.844c-3.84,-0.373 -5.2,-1.246 -7.774,-2.972c-1.462,-0.976 -2.58,-2.387 -3.194,-4.034Z" style="fill-rule:nonzero;"/><path id="Path_2429" d="M96.664,256.9c0,0 0.346,8.73 0.377,11.915c0.032,3.315 -3.02,-2.863 -3.02,-2.863c-0.451,2.549 -0.571,5.146 -0.358,7.726c0.005,0.048 0.008,0.095 0.008,0.143c0,0.695 -0.572,1.267 -1.267,1.267c-0.144,0 -0.286,-0.024 -0.422,-0.072c-2.755,-0.913 -5.437,-2.034 -8.023,-3.352c-3.078,-1.778 -6.058,-7.4 -4.824,-9.794c1.234,-2.394 1.728,-11.046 7.242,-14.43c5.514,-3.384 8.77,3.794 10.287,9.46Z" style="fill:#fff;fill-rule:nonzero;stroke:#000;stroke-width:1.6px;stroke-miterlimit:4;"/><path id="Path_2430" d="M68.5,157.286c-0.072,-1.032 -0.085,-2.067 -0.04,-3.1c1.612,-37.069 63.8,-94.51 63.8,-94.51c11.574,-5.382 20.085,7.8 19.278,21.715c-0.807,13.915 -27.057,60.493 -41.514,85.094l-0.028,0.047c0.194,15.751 -1.413,62.24 -9.4,83.683c-2.7,7.248 -13.643,1.527 -19.393,0.3c-13.755,-2.954 -21.452,-62.356 -12.703,-93.229Z" style="fill:#fff;fill-rule:nonzero;stroke:#000;stroke-width:1.6px;stroke-miterlimit:4;"/><path id="Path_2431" d="M114.7,260.515c1.46,-11.694 2.872,-20.966 4.254,-27.67l116.353,-3.555c-0,0 -4.81,8.574 -40.7,15.506c-24.411,4.71 -59.774,11.714 -79.907,15.719Z" style="fill-rule:nonzero;"/><path id="Path_2432" d="M367.369,121.665c0,-0 19.1,2.831 22.941,4.75c3.821,1.919 10.311,4.726 9.978,5.775c-0.333,1.049 -9.581,-1.836 -9.581,-1.836c0,-0 -1.848,6.564 -4.829,7.855c-1.634,0.778 -3.592,0.455 -4.889,-0.808c-1.297,-1.263 -12.024,-0.371 -15.255,-6.034c-3.256,-5.657 1.635,-9.702 1.635,-9.702Z" style="fill-rule:nonzero;stroke:#fff;stroke-width:1.6px;stroke-miterlimit:4;"/></g></svg>