<?xml version="1.0" encoding="UTF-8" standalone="no"?><!DOCTYPE svg PUBLIC "-//W3C//DTD SVG 1.1//EN" "http://www.w3.org/Graphics/SVG/1.1/DTD/svg11.dtd"><svg width="100%" height="100%" viewBox="0 0 44534 41667" version="1.1" xmlns="http://www.w3.org/2000/svg" xmlns:xlink="http://www.w3.org/1999/xlink" xml:space="preserve" xmlns:serif="http://www.serif.com/" style="fill-rule:evenodd;clip-rule:evenodd;stroke-linecap:round;stroke-linejoin:round;"><g id="Artboard1"><path id="Path_1465" d="M38637.1,30853.2c2348.86,0.828 4281.44,1933.39 4282.27,4282.27c-0.828,2348.86 -1933.39,4281.44 -4282.27,4282.27c-2348.86,-0.825 -4281.44,-1933.39 -4282.27,-4282.27c0.829,-2348.86 1933.39,-4281.44 4282.27,-4282.27Z" style="fill:none;fill-rule:nonzero;stroke:#000;stroke-width:192.26px;"/><path id="Path_1466" d="M9384.46,3919.58c4261.83,2.036 7768.17,3508.37 7770.2,7770.2c-1.999,4261.86 -3508.35,7768.25 -7770.2,7770.28c-4261.98,-1.85 -7768.55,-3508.27 -7770.53,-7770.28c2.036,-4261.96 3508.57,-7768.35 7770.53,-7770.2Z" style="fill:none;fill-rule:nonzero;stroke:#000;stroke-width:202.57px;stroke-dasharray:607.7,1012.84,0,0;"/><rect x="3513.97" y="13494.3" width="29792.9" height="1850.6" style="fill:#f63d37;"/><rect x="10686.6" y="17156.3" width="13426" height="1425.57" style="fill:#fff;stroke:#f53c37;stroke-width:101.91px;stroke-miterlimit:1.5;"/><rect x="10686.6" y="19046.7" width="13426" height="4136.75" style="fill:#fff;stroke:#f53c37;stroke-width:101.91px;stroke-miterlimit:1.5;"/><rect x="10686.6" y="29934.4" width="13426" height="2684.27" style="fill:#fff;stroke:#f53c37;stroke-width:101.91px;stroke-miterlimit:1.5;"/><rect x="24452.1" y="17156.3" width="4967.9" height="4624.77" style="fill:#fff;stroke:#f63d37;stroke-width:101.91px;stroke-miterlimit:1.5;"/><rect x="22842.8" y="20593.4" width="4967.9" height="4624.77" style="fill:#f63d37;stroke:#f53c37;stroke-width:101.91px;stroke-miterlimit:1.5;"/><rect x="31814.3" y="23699.4" width="2997.85" height="2790.79" style="fill:#f63d37;"/><rect x="28778.2" y="29260.3" width="4967.9" height="4624.77" style="fill:#fff;stroke:#f63d37;stroke-width:101.91px;stroke-miterlimit:1.5;"/><rect x="8053.82" y="14035" width="10473.7" height="769.122" style="fill:#fff;"/><rect x="20614.5" y="14295.4" width="1115.18" height="248.388" style="fill:#fff;"/><rect x="8314.06" y="18050.2" width="1115.18" height="248.388"/><rect x="12581.8" y="19880.1" width="2045.1" height="248.388"/><rect x="12581.8" y="30767.9" width="2045.1" height="248.388"/><rect x="12581.8" y="20433.6" width="1115.18" height="129.78"/><rect x="12581.8" y="31321.4" width="1115.18" height="129.78"/><rect x="12527.5" y="17706.2" width="9908.52" height="379.401"/><rect x="12527.5" y="21351.5" width="9908.52" height="379.401"/><rect x="12527.5" y="31887.6" width="9908.52" height="379.401"/><rect x="12527.5" y="22089.8" width="7704.25" height="379.401"/><rect x="8314.06" y="19674.2" width="1115.18" height="248.388"/><rect x="8314.06" y="21298.2" width="1115.18" height="248.388"/><rect x="8314.06" y="22922.2" width="1115.18" height="248.388"/><rect x="8314.06" y="24546.2" width="1115.18" height="248.388"/><rect x="8314.06" y="26170.3" width="1115.18" height="248.388"/><rect x="23521" y="14295.4" width="1115.18" height="248.388" style="fill:#fff;"/><rect x="26427.6" y="14295.4" width="1115.18" height="248.388" style="fill:#fff;"/><rect x="29334.1" y="14295.4" width="1115.18" height="248.388" style="fill:#fff;"/><circle cx="19796.3" cy="14398.7" r="405.44" style="fill:#fff;"/><circle cx="7495.81" cy="18153.5" r="405.44"/><circle cx="11763.5" cy="20221.8" r="405.44"/><circle cx="11763.5" cy="31109.5" r="405.44"/><circle cx="11709.3" cy="17875" r="405.44"/><circle cx="7495.81" cy="19777.5" r="405.44"/><circle cx="7495.81" cy="21401.5" r="405.44"/><circle cx="7495.81" cy="23025.5" r="405.44"/><circle cx="7495.81" cy="24649.6" r="405.44"/><circle cx="7495.81" cy="26273.6" r="405.44"/><circle cx="18079.2" cy="14419.6" r="178.171" style="fill:none;stroke:#000;stroke-width:101.91px;stroke-miterlimit:1.5;"/><path d="M18210.5,14555.8l126.67,124.492" style="fill:none;stroke:#000;stroke-width:101.91px;stroke-miterlimit:1.5;"/><path d="M31242.7,17156.3l-0,15028.7" style="fill:none;stroke:#f53c37;stroke-width:101.91px;stroke-miterlimit:1.5;"/><g><path d="M24922.2,23268.4l-394.895,-993.606l-318.282,41.045l-355.576,952.561c-32.48,5.145 -73.508,8.574 -107.699,8.574l3.42,239.216l516.269,-0l3.422,-239.216c-30.774,0 -64.964,-1.715 -94.026,-6.859l23.933,-70.314l379.824,0l23.933,70.314c-29.061,5.144 -63.251,6.859 -94.024,6.859l3.421,239.216l516.269,-0l3.42,-239.216c-35.901,0 -76.929,-3.429 -109.409,-8.574Zm-643.071,-307.814l102.703,-304.416l109.55,304.416l-212.253,0Z" style="fill:#fff;fill-rule:nonzero;"/><path d="M25951.7,23278.7l0,-906.467c0,-39.299 -30.764,-70.055 -70.071,-70.055l-340.245,-0l-3.423,223.823c29.096,1.718 70.173,5.135 106.116,10.261l-0,164.374c-46.213,-13.67 -102.693,-22.213 -174.578,-22.213c-242.828,0 -406.892,164.041 -406.892,437.711c-0,280.48 160.646,420.599 355.546,420.599c119.808,0 212.231,-49.554 277.194,-121.323c54.688,95.691 145.265,117.905 222.171,117.905c80.358,0 109.431,-10.252 126.533,-13.67l3.421,-230.678c-37.625,-0 -64.988,-3.423 -95.772,-10.267Zm-461.662,5.136c-75.308,0 -119.808,-51.337 -119.808,-167.702c-0,-140.323 61.615,-184.814 143.769,-184.814c53.058,0 97.558,15.4 130.078,35.935l-0,135.189c-0,123.21 -71.886,181.392 -154.039,181.392Z" style="fill:#fff;fill-rule:nonzero;"/><path d="M26425.4,22934.5c0,-34.037 30.821,-51.056 89.039,-51.056c41.211,0 68.631,5.136 89.197,10.27l-0,61.559l272.242,-0l5.132,-199.939c-75.333,-37.595 -166.08,-76.901 -369.919,-76.901c-270.26,0 -383.053,102.535 -383.053,270.004c0,314.387 473.727,206.124 473.727,317.838c0,37.969 -34.244,51.775 -101.024,51.775c-41.203,0 -68.62,-5.133 -89.183,-10.267l0,-49.59l-272.24,0l-5.134,201.649c77.047,37.596 169.506,76.901 369.907,76.901c280.538,0 403.587,-102.534 403.587,-268.298c0,-344.156 -482.278,-221.465 -482.278,-333.945Z" style="fill:#fff;fill-rule:nonzero;"/></g><g><path d="M33069.1,25313.6l-238.297,-599.585l-192.065,24.769l-214.57,574.816c-19.6,3.105 -44.358,5.175 -64.991,5.175l2.064,144.353l311.539,-0l2.065,-144.353c-18.57,-0 -39.202,-1.035 -56.739,-4.14l14.443,-42.43l229.202,0l14.442,42.43c-17.537,3.105 -38.169,4.14 -56.738,4.14l2.064,144.353l311.539,-0l2.064,-144.353c-21.664,-0 -46.422,-2.07 -66.022,-5.175Zm-388.057,-185.748l61.975,-183.698l66.108,183.698l-128.083,0Z" style="fill:#fff;fill-rule:nonzero;"/><path d="M33690.3,25319.8l-0,-547.001c-0,-23.715 -18.565,-42.275 -42.284,-42.275l-205.319,0l-2.065,135.065c17.557,1.037 42.345,3.099 64.035,6.192l-0,99.19c-27.887,-8.249 -61.97,-13.404 -105.348,-13.404c-146.533,0 -245.537,98.99 -245.537,264.134c0,169.254 96.941,253.808 214.552,253.808c72.298,-0 128.07,-29.904 167.271,-73.212c33.002,57.745 87.66,71.149 134.068,71.149c48.491,0 66.036,-6.186 76.356,-8.249l2.064,-139.201c-22.705,-0 -39.217,-2.065 -57.793,-6.196Zm-278.587,3.1c-45.444,-0 -72.297,-30.979 -72.297,-101.199c-0,-84.677 37.181,-111.525 86.756,-111.525c32.017,0 58.871,9.293 78.495,21.685l-0,81.579c-0,74.35 -43.379,109.46 -92.954,109.46Z" style="fill:#fff;fill-rule:nonzero;"/><path d="M33976.2,25112.1c-0,-20.539 18.598,-30.809 53.73,-30.809c24.868,-0 41.415,3.099 53.825,6.197l-0,37.147l164.283,0l3.096,-120.651c-45.459,-22.687 -100.22,-46.406 -223.225,-46.406c-163.087,0 -231.151,61.874 -231.151,162.933c0,189.714 285.868,124.383 285.868,191.797c-0,22.912 -20.665,31.243 -60.962,31.243c-24.864,0 -41.409,-3.098 -53.817,-6.196l-0,-29.924l-164.282,-0l-3.098,121.684c46.493,22.687 102.288,46.405 223.218,46.405c169.289,-0 243.542,-61.874 243.542,-161.903c0,-207.679 -291.027,-133.641 -291.027,-201.517Z" style="fill:#fff;fill-rule:nonzero;"/></g><rect x="3973.63" y="24225.6" width="13426" height="6014.73" style="fill:#f53c37;stroke:#f53c37;stroke-width:101.91px;stroke-miterlimit:1.5;"/><g><path d="M10120,27740.9l-553.09,-1391.64l-445.785,57.488l-498.021,1334.16c-45.492,7.206 -102.956,12.01 -150.843,12.01l4.789,335.045l723.087,-0l4.793,-335.045c-43.102,0 -90.988,-2.402 -131.692,-9.608l33.521,-98.48l531.981,-0l33.52,98.48c-40.703,7.206 -88.59,9.608 -131.689,9.608l4.79,335.045l723.087,-0l4.79,-335.045c-50.282,0 -107.746,-4.804 -153.238,-12.01Zm-900.686,-431.123l143.846,-426.366l153.436,426.366l-297.282,-0Z" style="fill:#fff;fill-rule:nonzero;"/><path d="M11562,27755.3l-0,-1269.6c-0,-55.042 -43.089,-98.119 -98.142,-98.119l-476.547,-0l-4.795,313.486c40.752,2.407 98.285,7.193 148.626,14.372l0,230.222c-64.725,-19.147 -143.831,-31.111 -244.513,-31.111c-340.105,-0 -569.894,229.755 -569.894,613.057c0,392.841 225.002,589.092 497.979,589.092c167.802,-0 297.25,-69.406 388.237,-169.925c76.597,134.025 203.459,165.138 311.173,165.138c112.549,0 153.27,-14.36 177.223,-19.146l4.79,-323.089c-52.696,0 -91.022,-4.793 -134.137,-14.38Zm-646.605,7.194c-105.476,0 -167.802,-71.903 -167.802,-234.884c-0,-196.535 86.298,-258.85 201.363,-258.85c74.312,0 136.639,21.569 182.186,50.331l0,189.345c0,172.568 -100.682,254.058 -215.747,254.058Z" style="fill:#fff;fill-rule:nonzero;"/><path d="M12225.5,27273.2c0,-47.672 43.168,-71.509 124.709,-71.509c57.718,0 96.124,7.194 124.928,14.384l-0,86.219l381.302,0l7.188,-280.033c-105.511,-52.656 -232.612,-107.708 -518.109,-107.708c-378.526,-0 -536.503,143.609 -536.503,378.168c-0,440.329 663.502,288.696 663.502,445.163c-0,53.179 -47.963,72.517 -141.494,72.517c-57.709,-0 -96.11,-7.19 -124.91,-14.381l0,-69.455l-381.3,-0l-7.19,282.43c107.911,52.656 237.41,107.707 518.092,107.707c392.921,-0 565.264,-143.61 565.264,-375.778c-0,-482.026 -675.479,-310.184 -675.479,-467.724Z" style="fill:#fff;fill-rule:nonzero;"/></g><g><g><path d="M14896.2,25930.8l-597.974,345.24l853.569,1469.42l-432.99,254.202l652.368,1128.81l183.167,-105.751l209.336,362.58l183.146,-105.74l209.347,362.601l183.167,-105.752l217.886,377.389l1853.15,-1069.92l-217.885,-377.389l183.156,-105.745l-318.581,-551.799l183.156,-105.746l-755.033,-1300.62l-173.246,100.024l-105.745,-183.157l-356.673,205.925l-105.746,-183.157l-583.206,336.714l-105.745,-183.156l-549.459,317.23l-609.17,-882.193Z" style="fill:#fff;"/><path d="M14682.2,25810.1l-371.149,214.283l105.746,183.156l371.149,-214.282l-105.746,-183.157Zm1955.86,348.89l-583.206,336.714l-105.739,-183.146l-549.46,317.23l-428.554,-742.277l-183.156,105.746l961.448,1665.28l183.157,-105.746l-427.155,-739.854l549.459,-317.23l427.155,739.854l183.157,-105.746l-321.41,-556.697l400.049,-230.969l-105.745,-183.156Zm105.745,183.156l431.172,746.812l183.167,-105.752l-325.426,-563.654l173.506,-100.174l-105.746,-183.157l-356.673,205.925Zm-1764.36,1262.86l-366.323,211.497l105.709,183.094l-182.657,105.457l651.879,1129.09l183.146,-105.74l-651.843,-1129.03l365.835,-211.215l535.674,927.815l183.136,-105.733l-1387.2,-2402.71l-183.136,105.734l745.784,1291.74Zm784.257,1780.23l-209.336,-362.58l-183.167,105.751l209.336,362.58l183.167,-105.751Zm392.493,256.861l-209.347,-362.601l-183.146,105.74l209.347,362.6l183.146,-105.739Zm1329.26,-3239.8l-105.709,-183.095l-173.516,100.18l105.745,183.157l173.246,-100.024l751.945,1302.41l-180.068,103.963l318.581,551.799l-183.156,105.745l217.885,377.389l183.157,-105.746l-217.886,-377.388l183.157,-105.746l-318.582,-551.799l180.068,-103.962l-751.98,-1302.47l-182.887,105.59Zm-928.202,3511.44l-217.886,-377.389l-183.167,105.752l217.886,377.388l183.167,-105.751Zm1855.16,-1071.08l-1855.67,1071.37l105.758,183.177l1855.67,-1071.37l-105.758,-183.178Z" style="fill:#140f15;"/></g></g><ellipse cx="35501.6" cy="10549.6" rx="5136.25" ry="5104.79" style="fill:#fff;"/><g><path id="Icon_awesome-facebook" d="M40637.8,10524.6c-0.523,-2817.32 -2318.97,-5135.35 -5136.3,-5135.35c-2817.68,-0 -5136.3,2318.61 -5136.3,5136.3c0,2515.95 1848.62,4680.04 4333.66,5073.2l0,-3589.35l-1304.84,0l-0,-1484.8l1304.84,0l0,-1131.65c0,-1287.16 765.82,-1998.2 1939.88,-1998.2c384.838,5.37 768.772,38.84 1148.73,100.145l-0,1262.43l-648.003,0c-32.327,-4.286 -64.899,-6.433 -97.51,-6.433c-407.191,-0 -742.255,335.066 -742.255,742.255c-0,22.108 0.988,44.204 2.961,66.225l0,965.229l1424.43,-0l-227.685,1484.8l-1195.27,0l-0,3589.36c2485.03,-393.908 4333.39,-2558.09 4333.66,-5074.15l0.019,0l-0.014,-0.003Z" style="fill:#4267b2;fill-rule:nonzero;"/></g></g></svg>