<svg xmlns="http://www.w3.org/2000/svg" width="115.5" height="110.444" viewBox="0 0 115.5 110.444">
  <g id="Group_319" data-name="Group 319" transform="translate(0 110.444)">
    <path id="Path_2433" data-name="Path 2433" d="M55.521-80.58A25.02,25.02,0,0,1,80.512-55.589,25.02,25.02,0,0,1,55.521-30.6,25.02,25.02,0,0,1,30.53-55.589,25.02,25.02,0,0,1,55.521-80.58Zm50.033,46.935h4.5L110-51.473,98.863-54.25c.013-.444.022-.891.022-1.338q0-2.206-.217-4.359l10.911-3.545L108.4-80.968h-4.5L92.977-77.419a43.556,43.556,0,0,0-5.036-6.936l6.985-10.659L84.06-105.085h-4.5L73.1-95.227a43.019,43.019,0,0,0-8.391-2.744v-11.473H46.334v11.473a42.79,42.79,0,0,0-5.48,1.572l-6.081-9.73L19.19-96.392l6.094,9.751a43.734,43.734,0,0,0-3.81,4.226l-10.33-5.038L3.088-70.94,13.4-65.912a43.033,43.033,0,0,0-.987,5.616L1-59.1,2.92-40.823l11.412-1.2a42.862,42.862,0,0,0,2.14,5.283L7.425-29.671,18.737-15.193,27.8-22.27a43.717,43.717,0,0,0,4.6,3.35l-3.929,10.8L45.733-1.839l3.925-10.782a43.545,43.545,0,0,0,5.688.4L57.732-1h4.5L75.7-4.819,73.318-16.045a43.342,43.342,0,0,0,5.024-2.685l7.981,8.264h4.5l8.716-12.762L91.558-31.5a43.369,43.369,0,0,0,2.855-4.928Z" fill="#f53c37" stroke="#000" stroke-linejoin="round" stroke-width="2"/>
    <path id="Path_2434" data-name="Path 2434" d="M60.022-80.58A25.021,25.021,0,0,1,85.014-55.589,25.021,25.021,0,0,1,60.022-30.6,25.02,25.02,0,0,1,35.03-55.589,25.02,25.02,0,0,1,60.022-80.58Zm50.033,46.935L114.5-51.473,103.365-54.25c.013-.444.022-.891.022-1.338a43.331,43.331,0,0,0-.219-4.359l10.913-3.545L108.4-80.968,97.479-77.419a43.644,43.644,0,0,0-5.037-6.936l6.986-10.659L84.06-105.085,77.6-95.227a43.025,43.025,0,0,0-8.392-2.744v-11.473H50.834v11.473a42.892,42.892,0,0,0-5.48,1.572l-6.081-9.73L23.692-96.392l6.094,9.751a43.447,43.447,0,0,0-3.811,4.226L15.644-87.454,7.59-70.94,17.9-65.912a43.035,43.035,0,0,0-.988,5.616L5.5-59.1,7.422-40.823l11.41-1.2a43.057,43.057,0,0,0,2.141,5.283l-9.046,7.068L23.239-15.193,32.3-22.27a43.743,43.743,0,0,0,4.6,3.35L32.97-8.123,50.235-1.839l3.924-10.782a43.556,43.556,0,0,0,5.688.4L62.234-1,80.205-4.819,77.819-16.045a43.464,43.464,0,0,0,5.025-2.685l7.981,8.264,13.217-12.762L96.061-31.5a43.34,43.34,0,0,0,2.853-4.928Z" fill="#fff" stroke="#000" stroke-linejoin="round" stroke-width="2"/>
  </g>
</svg>
