<svg xmlns="http://www.w3.org/2000/svg" xmlns:xlink="http://www.w3.org/1999/xlink" width="260.034" height="151.384" viewBox="0 0 260.034 151.384">
  <defs>
    <clipPath id="clip-path">
      <path id="Path_2553" data-name="Path 2553" d="M94.619-105.616h75.589V-181.2H94.619Z" transform="translate(-94.619 181.205)" fill="none" clip-rule="evenodd"/>
    </clipPath>
    <clipPath id="clip-path-2">
      <rect id="Rectangle_248" data-name="Rectangle 248" width="75.589" height="75.589" fill="none"/>
    </clipPath>
  </defs>
  <g id="Group_330" data-name="Group 330" transform="translate(0 174.917)">
    <path id="Path_2544" data-name="Path 2544" d="M140.87-39.359H259.993" transform="translate(-17.928 -18.422)" fill="none" stroke="#000" stroke-linecap="round" stroke-linejoin="round" stroke-width="5.941"/>
    <path id="Path_2545" data-name="Path 2545" d="M2.825-63.043H96.25" transform="translate(0 -15.346)" fill="none" stroke="#f53c37" stroke-linecap="round" stroke-linejoin="round" stroke-width="5.65"/>
    <path id="Path_2546" data-name="Path 2546" d="M30.577-107.793a6.662,6.662,0,0,0,6.672,6.644,6.657,6.657,0,0,0,6.643-6.666,6.655,6.655,0,0,0-6.665-6.642A6.659,6.659,0,0,0,30.577-107.793Z" transform="translate(-3.604 -8.669)"/>
    <path id="Path_2547" data-name="Path 2547" d="M164.894-8.63a6.662,6.662,0,0,0,6.672,6.644,6.657,6.657,0,0,0,6.643-6.665,6.656,6.656,0,0,0-6.665-6.642A6.659,6.659,0,0,0,164.894-8.63Z" transform="translate(-21.048 -21.547)"/>
    <path id="Path_2548" data-name="Path 2548" d="M229.451-149.6a6.635,6.635,0,0,0,6.635,6.636,6.635,6.635,0,0,0,6.636-6.636,6.635,6.635,0,0,0-6.636-6.636A6.635,6.635,0,0,0,229.451-149.6Z" transform="translate(-29.432 -3.243)" fill="#f53c37"/>
    <g id="Group_329" data-name="Group 329" transform="translate(82.698 -174.917)" clip-path="url(#clip-path)">
      <g id="Group_328" data-name="Group 328" transform="translate(0 0)">
        <g id="Group_327" data-name="Group 327">
          <g id="Group_326" data-name="Group 326" style="isolation: isolate">
            <g id="Group_325" data-name="Group 325">
              <g id="Group_324" data-name="Group 324" clip-path="url(#clip-path-2)">
                <path id="Path_2549" data-name="Path 2549" d="M96.033-61.217a43.788,43.788,0,0,0-.6-7.149H59.845v14.2H80.223a17.546,17.546,0,0,1-7.559,11.275v9.449H84.821C91.939-40.021,96.033-49.721,96.033-61.217Z" transform="translate(-21.248 99.862)" fill="#4185f4"/>
                <path id="Path_2550" data-name="Path 2550" d="M41.276-16.835c10.2,0,18.74-3.4,24.976-9.165L54.095-35.449A22.8,22.8,0,0,1,41.276-31.8a22.571,22.571,0,0,1-21.2-15.622H7.545v9.732A37.738,37.738,0,0,0,41.276-16.835Z" transform="translate(-2.679 92.424)" fill="#33a753"/>
                <path id="Path_2551" data-name="Path 2551" d="M17.843-60.715a21.931,21.931,0,0,1-1.2-7.212,22.785,22.785,0,0,1,1.2-7.212v-9.732H5.308A37.356,37.356,0,0,0,1.245-67.928,37.356,37.356,0,0,0,5.308-50.983Z" transform="translate(-0.442 105.722)" fill="#fabc04"/>
                <path id="Path_2552" data-name="Path 2552" d="M41.276-102.24A20.505,20.505,0,0,1,55.764-96.57l10.771-10.771A36.134,36.134,0,0,0,41.276-117.2,37.738,37.738,0,0,0,7.545-96.35L20.08-86.618A22.571,22.571,0,0,1,41.276-102.24Z" transform="translate(-2.679 117.2)" fill="#e94234"/>
              </g>
            </g>
          </g>
        </g>
      </g>
    </g>
    <path id="Path_2554" data-name="Path 2554" d="M289.4-98.788H242.328V-72.6H271.17Z" transform="translate(-31.105 -10.704)" fill="none" stroke="#f53c37" stroke-linecap="round" stroke-linejoin="round" stroke-width="3.472"/>
    <path id="Path_2555" data-name="Path 2555" d="M242.328-92.161h42.929" transform="translate(-31.105 -11.564)" fill="none" stroke="#f53c37" stroke-linecap="round" stroke-linejoin="round" stroke-width="3.472"/>
    <path id="Path_2556" data-name="Path 2556" d="M242.328-83.735h37.038" transform="translate(-31.105 -12.659)" fill="none" stroke="#f53c37" stroke-linecap="round" stroke-linejoin="round" stroke-width="3.472"/>
    <path id="Path_2557" data-name="Path 2557" d="M242.328-75.309h32.148" transform="translate(-31.105 -13.753)" fill="none" stroke="#f53c37" stroke-linecap="round" stroke-linejoin="round" stroke-width="3.472"/>
    <path id="Path_2558" data-name="Path 2558" d="M275.422-98.647v26.065" transform="translate(-35.403 -10.722)" fill="none" stroke="#f53c37" stroke-linecap="round" stroke-linejoin="round" stroke-width="3.472"/>
    <path id="Path_2559" data-name="Path 2559" d="M262.34-98.647v26.065" transform="translate(-33.704 -10.722)" fill="none" stroke="#f53c37" stroke-linecap="round" stroke-linejoin="round" stroke-width="3.472"/>
    <path id="Path_2560" data-name="Path 2560" d="M249.257-98.647v26.065" transform="translate(-32.005 -10.722)" fill="none" stroke="#f53c37" stroke-linecap="round" stroke-linejoin="round" stroke-width="3.472"/>
    <path id="Path_2561" data-name="Path 2561" d="M235.307-113.381h6.109v22.423" transform="translate(-30.193 -8.808)" fill="none" stroke="#f53c37" stroke-linecap="round" stroke-linejoin="round" stroke-width="3.472"/>
    <path id="Path_2562" data-name="Path 2562" d="M246.788-62.563a4.463,4.463,0,0,1,4.461,4.461,4.463,4.463,0,0,1-4.461,4.461,4.463,4.463,0,0,1-4.46-4.461A4.463,4.463,0,0,1,246.788-62.563Z" transform="translate(-31.105 -15.408)" fill="none" stroke="#f53c37" stroke-linecap="round" stroke-linejoin="round" stroke-width="3.472"/>
    <path id="Path_2563" data-name="Path 2563" d="M271.521-62.563a4.463,4.463,0,0,1,4.46,4.461,4.463,4.463,0,0,1-4.46,4.461,4.463,4.463,0,0,1-4.46-4.461A4.463,4.463,0,0,1,271.521-62.563Z" transform="translate(-34.317 -15.408)" fill="none" stroke="#f53c37" stroke-linecap="round" stroke-linejoin="round" stroke-width="3.472"/>
  </g>
</svg>
