<svg xmlns="http://www.w3.org/2000/svg" width="907.734" height="744.82" viewBox="0 0 907.734 744.82">
  <g id="Group_322" data-name="Group 322" transform="translate(0 1043.215)">
    <path id="Path_2435" data-name="Path 2435" d="M393.012-734.438c96.325,0,174.529,78.2,174.529,174.53s-78.2,174.529-174.529,174.529-174.53-78.2-174.53-174.529S296.687-734.438,393.012-734.438Z" transform="translate(-62.663 -87.75)" fill="none" stroke="#f53c37" stroke-linecap="round" stroke-linejoin="round" stroke-width="5.65"/>
    <path id="Path_2436" data-name="Path 2436" d="M746.632-664.795c96.326,0,174.532,78.2,174.532,174.529s-78.206,174.53-174.532,174.53S572.1-393.94,572.1-490.266,650.306-664.795,746.632-664.795Z" transform="translate(-164.085 -107.725)" fill="none" stroke="#f53c37" stroke-linecap="round" stroke-linejoin="round" stroke-width="5.65"/>
    <path id="Path_2437" data-name="Path 2437" d="M637.729-1040.39c96.326,0,174.53,78.2,174.53,174.529s-78.2,174.53-174.53,174.53-174.53-78.2-174.53-174.53S541.4-1040.39,637.729-1040.39Z" transform="translate(-132.851 0)" fill="none" stroke="#f53c37" stroke-linecap="round" stroke-linejoin="round" stroke-width="5.65"/>
    <path id="Path_2438" data-name="Path 2438" d="M1164.515-116.2c-31.038,0-56.235,2.319-56.235,5.176s25.2,5.176,56.235,5.176,56.242-2.319,56.242-5.176S1195.553-116.2,1164.515-116.2Z" transform="translate(-317.866 -265.067)" fill-rule="evenodd"/>
    <path id="Path_2439" data-name="Path 2439" d="M72.747-18.776c-40.15,0-72.747,3-72.747,6.7s32.6,6.7,72.747,6.7,72.747-3,72.747-6.7S112.9-18.776,72.747-18.776Z" transform="translate(0 -293.01)" fill-rule="evenodd"/>
    <path id="Path_2440" data-name="Path 2440" d="M150.2-400.536c2.908.094,17.423,23.82,26.255,36.517,9.365-2.341,26.372-1.776,44.038-3.169.547-.043.891,1.033,1.113,2.46a8.072,8.072,0,0,1-5.155,8.785c-9.758,3.647-29.952,10.724-40.112,10.854-2.864.678-6.4-.106-10.513-3.448-8.376-6.8-20.295-34.021-21.05-36.767C142.4-393.959,146.305-400.663,150.2-400.536Z" transform="translate(-41.316 -183.517)"/>
    <path id="Path_2441" data-name="Path 2441" d="M259.682-383.36l-5.153-4.223L273.6-410.851l5.152,4.223Z" transform="translate(-73.002 -180.559)" fill="#fff" stroke="#000" stroke-linejoin="round" stroke-width="2.074"/>
    <path id="Path_2442" data-name="Path 2442" d="M344.346-448.853c-16.184,19.746-45,22.053-64.748,5.868s-23.062-44.824-6.877-64.57a46.356,46.356,0,0,1,65.163-6.461A46.355,46.355,0,0,1,344.346-448.853Zm5.055,4.144a52.9,52.9,0,0,0-7.374-74.362,52.9,52.9,0,0,0-74.361,7.373,52.9,52.9,0,0,0,7.374,74.361A52.9,52.9,0,0,0,349.4-444.709Z" transform="translate(-73.342 -146.093)"/>
    <path id="Path_2443" data-name="Path 2443" d="M339.2-455.509a46.356,46.356,0,0,1-65.163,6.461,46.355,46.355,0,0,1-6.46-65.163,46.356,46.356,0,0,1,65.163-6.46A46.356,46.356,0,0,1,339.2-455.509Zm5.055,4.144a52.9,52.9,0,0,0-7.374-74.361,52.9,52.9,0,0,0-74.361,7.372,52.9,52.9,0,0,0,7.374,74.362A52.9,52.9,0,0,0,344.256-451.365Z" transform="translate(-71.867 -144.184)" fill="#fff" stroke="#000" stroke-linejoin="round" stroke-width="2.074"/>
    <path id="Path_2444" data-name="Path 2444" d="M246.2-384.374a11.056,11.056,0,0,0-15.485,1.785l-26.906,33.917a11.051,11.051,0,0,0,1.785,15.483,11.054,11.054,0,0,0,15.485-1.782l26.906-33.919A11.054,11.054,0,0,0,246.2-384.374Z" transform="translate(-57.774 -187.471)" fill="#fff" stroke="#000" stroke-linejoin="round" stroke-width="2.074"/>
    <path id="Path_2445" data-name="Path 2445" d="M367.168-456.313a23.4,23.4,0,0,1-2.641,12.323,41.217,41.217,0,0,1-7.577,9.719c-2.286,2.3-5.539-1.536-3.274-3.816,4.657-4.681,8.9-10.383,8.549-17.327a2.6,2.6,0,0,1,2.02-2.922A2.526,2.526,0,0,1,367.168-456.313Z" transform="translate(-101.218 -166.93)" fill="#fff" stroke="#000" stroke-linejoin="round" stroke-width="2.074"/>
    <path id="Path_2446" data-name="Path 2446" d="M372.574-471.793a2.522,2.522,0,0,1-.271.929,2.546,2.546,0,0,1-.422,1.161,1.927,1.927,0,0,1-.7.655,1.879,1.879,0,0,1-.914.386,2.536,2.536,0,0,1-1.879-.406,2.578,2.578,0,0,1-1.042-1.616,3.682,3.682,0,0,1,.121-1.757,2.666,2.666,0,0,1,.543-1.006,1.874,1.874,0,0,1,.7-.655,1.909,1.909,0,0,1,.914-.387,1.891,1.891,0,0,1,.991.04,1.888,1.888,0,0,1,.888.367,2.52,2.52,0,0,1,1.042,1.616C372.554-472.242,372.564-472.017,372.574-471.793Z" transform="translate(-105.342 -162.293)" fill="#fff" stroke="#000" stroke-linejoin="round" stroke-width="2.074"/>
    <path id="Path_2447" data-name="Path 2447" d="M141.809-444.132c3.472,2.868.067,8.407.155,9.732s1.667,1.682,1.958,2.744-.849,2.6-.849,2.6a1.481,1.481,0,0,1,1.767,1.361c.124,1.608-1.036,3.893-4.844,5.581s-11.536-.335-13.4-1.533-6.919-5.942-3.6-14.487a8.876,8.876,0,0,1,10.724-5.815S136.384-448.61,141.809-444.132Z" transform="translate(-34.962 -170.455)" fill="#f53c37" stroke="#000" stroke-linejoin="round" stroke-width="2.074"/>
    <path id="Path_2448" data-name="Path 2448" d="M158.6-22.791c-3.4-1.464-3.974-5.424-5.423-8.27-.089-.192-14.239-1.463-14.879-.456-3.88,6.107-1.915,12.639.777,13.414,5.739,1.654,32.423,3.479,32.926.674C172.3-19.111,164.428-20.262,158.6-22.791Z" transform="translate(-39.041 -289.246)" stroke="#fff" stroke-linejoin="round" stroke-width="2.074"/>
    <path id="Path_2449" data-name="Path 2449" d="M35.462-22.3c3.4-1.911,7.982-9.353,9.431-12.389.089-.2,10.231.072,10.871,1,3.88,5.6,1.915,12.387-.777,13.516S45-17.275,37.964-15.994c-7.98,1.452-15.636.658-15.9-.8C21.765-18.434,29.634-19,35.462-22.3Z" transform="translate(-6.325 -288.428)" stroke="#fff" stroke-linejoin="round" stroke-width="2.074"/>
    <path id="Path_2450" data-name="Path 2450" d="M87.177-311.4c3.972-14.38,41.12-26.988,46.638-6.453,1.7,6.3,8.359,11.172,10.542,32.671,3.877,38.161-10.855,167.21-14.114,169.558s-15.379,4.71-16.19.731c-1.041-5.1.362-138.171,1.189-154.865-.974,5.239-44.921,150.94-47.478,154.134s-11.5,0-15.652-2.714c-1.2-.788,25.719-133.734,25.719-133.734S83.159-296.872,87.177-311.4Z" transform="translate(-14.935 -204.14)" fill="#fff" stroke="#000" stroke-linejoin="round" stroke-width="2.074"/>
    <path id="Path_2451" data-name="Path 2451" d="M140.017-260.553c-.974,5.239,7.84-37.7,22.521-35.877.372,1.385,1.3-.518,1.752,0,1.615,1.838,3.14,3.678,4.843,20.453,3.877,38.161-10.855,167.21-14.114,169.558s-15.379,4.71-16.19.731C137.787-110.789,139.191-243.859,140.017-260.553Z" transform="translate(-39.711 -213.349)"/>
    <path id="Path_2452" data-name="Path 2452" d="M156.324-294.542a73.679,73.679,0,0,0-2.952-8.04c-3.7.981-10.855,2.8-15.964,3.66-7.183,1.2-36.414,5.028-36.414,5.028s3.1,2.463,14.8,2.468,25.35-.114,29.319-.627C149.794-292.657,153.923-293.4,156.324-294.542Z" transform="translate(-28.966 -211.611)" stroke="#fff" stroke-linejoin="round" stroke-width="2.074"/>
    <path id="Path_2453" data-name="Path 2453" d="M96.176-325.991c2.233-32.486,3.683-56.828,7.971-67.552,3.243-8.109,11.121-12.77,22.042-12.61,11.838.174,13.976,7.209,18.678,13.569,9.309,12.6,3.5,20.551,4.16,41.7.169,5.4,3.649,21.973,3.649,21.973s-3.732,2.657-12.384,3.229c-1.936.126-6.292.425-7.633.683C116.554-321.928,95.886-321.787,96.176-325.991Z" transform="translate(-27.584 -181.905)" fill="#fff" stroke="#000" stroke-linejoin="round" stroke-width="2.074"/>
    <path id="Path_2454" data-name="Path 2454" d="M115.807-395.048c6.183,1.772,20.516,21.213,31,32.581,8.956-3.6,30.47-7.241,47.782-11.039,1.547-.339,3.659,6.872,3.659,6.872s-35.422,20.89-48.967,22.936c-2.743,1.065-6.353.77-10.886-1.978-9.227-5.591-29.182-31.857-30.306-34.474C104.548-388.4,111.083-396.4,115.807-395.048Z" transform="translate(-30.712 -185.048)" fill="#fff" stroke="#000" stroke-linejoin="round" stroke-width="2.074"/>
    <path id="Path_2455" data-name="Path 2455" d="M100.792-270.348a.71.71,0,0,1-.555-.269.707.707,0,0,1,.122-.987,19.711,19.711,0,0,0,7.014-11.871.7.7,0,0,1,.785-.608.7.7,0,0,1,.612.782,20.883,20.883,0,0,1-7.546,12.807A.7.7,0,0,1,100.792-270.348Z" transform="translate(-28.707 -216.915)"/>
    <path id="Path_2456" data-name="Path 2456" d="M133.1-406.032s2.809-.1,4.1,1.17,3.632,7.874,1.553,8.356-15.309-4.1-14.968-6.15S127.543-406.65,133.1-406.032Z" transform="translate(-35.501 -181.907)" fill="#f53c37" stroke="#000" stroke-linejoin="round" stroke-width="2.074"/>
    <path id="Path_2457" data-name="Path 2457" d="M131.374-424.112,129.421-409.8c-.215,1.789,6.118,5.655,9.2,3.705.9-.571-1.65-5.138-1.65-5.138l-.6-10.109Z" transform="translate(-37.118 -176.755)" fill="#fff" stroke="#000" stroke-linejoin="round" stroke-width="2.074"/>
    <path id="Path_2458" data-name="Path 2458" d="M131.093-428.146a6.192,6.192,0,0,0,4.664,5.259c4.1.947,6.259.393,6.753-3.475.291-2.268-1.187-6.627-1.78-8.315a4.151,4.151,0,0,0-3.9-3.02c-1.548.028.071,2.172-3.5,4.169l-1.687,2.639a5.717,5.717,0,0,1-.358-.863c-.228-.674-.719-1.623-1.553-.8C128.649-431.48,129.63-428.587,131.093-428.146Z" transform="translate(-37.076 -172.859)" fill="#fff" stroke="#000" stroke-linejoin="round" stroke-width="2.074"/>
    <path id="Path_2459" data-name="Path 2459" d="M133.759-419.824c.077.092,2.456,3.831,4.161,4.853l-.057-2.616c2.658.508,4.394.232,5.295-1.43a19.913,19.913,0,0,1-4.91.489A18.357,18.357,0,0,1,133.759-419.824Z" transform="translate(-38.364 -177.985)"/>
    <path id="Path_2460" data-name="Path 2460" d="M155.54-342.959a.3.3,0,0,0,.322-.235c.65-3.116,4.892-5.952,4.937-5.981a.3.3,0,0,0,.081-.411.3.3,0,0,0-.41-.083c-.18.121-4.489,3-5.188,6.356a.3.3,0,0,0,.229.351Z" transform="translate(-44.535 -198.092)" stroke="#000" stroke-linejoin="round" stroke-width="2.074"/>
    <path id="Path_2461" data-name="Path 2461" d="M230.941-366.65a47.526,47.526,0,0,0,4.787-1.532c1.184-.558,3.782-2.325,2.878-.079s-3.4,2.233-2.443,3.761,5.53,2.832,7.254,3.475c3.526,1.313.711,2.652-3.155,3.676s-9.969.237-11.578-4.483S230.941-366.65,230.941-366.65Z" transform="translate(-65.477 -192.456)" fill="#fff" stroke="#000" stroke-linejoin="round" stroke-width="2.074"/>
    <path id="Path_2462" data-name="Path 2462" d="M1141.238-119.906c2.66-1.162,3-3.53,4.129-5.775.079-.152.514-3.375.514-3.634.014-1.112,3.231-4.065,4.728-1.749,2.953,4.566,6.19-2.567,6.019-.663-.513,5.673,2.089,14.822-.021,15.441-4.5,1.322-25.511,2.858-25.91.653C1130.462-116.958,1136.638-117.892,1141.238-119.906Z" transform="translate(-324.294 -260.519)" stroke="#fffbff" stroke-linejoin="round" stroke-width="2.433"/>
    <path id="Path_2463" data-name="Path 2463" d="M1204.578-119.906c2.66-1.162,3-3.53,4.13-5.775.078-.152.513-3.375.52-3.634.007-1.112,3.224-4.065,4.721-1.749,2.953,4.566,6.191-2.567,6.019-.663-.514,5.673,2.1,14.822-.021,15.441-4.5,1.322-25.511,2.858-25.91.653C1193.8-116.958,1199.985-117.892,1204.578-119.906Z" transform="translate(-342.461 -260.519)" stroke="#fffbff" stroke-linejoin="round" stroke-width="2.433"/>
    <path id="Path_2464" data-name="Path 2464" d="M1188.481-418.785c-5.306-11.726-45.673-26.936-56.32-29.444-.778,11.807-6.226,19.163-12.666,31.9-9.008,17.8,15.654,197.013,15.654,197.013h22.094L1151.7-385.756l28.884,166.439h21.2S1194.571-405.336,1188.481-418.785Z" transform="translate(-320.515 -169.838)" fill="#fff" stroke="#000" stroke-linejoin="round" stroke-width="1.839"/>
    <path id="Path_2465" data-name="Path 2465" d="M1151.7-385.756s-8.894-59.965-19.541-62.473c-.778,11.807-6.226,19.163-12.666,31.9-9.008,17.8,15.654,197.013,15.654,197.013h22.094Z" transform="translate(-320.515 -169.838)"/>
    <path id="Path_2466" data-name="Path 2466" d="M1123.519-529.639c1.626,21.06-28.948,70.933-54.2,70.681-13.979-.139-21.046-23.745-24.313-41.964-3.074-17.164-4.764-29.766.093-30.3,7.538-.826,28.192,43.412,28.192,43.412s25.853-41.712,39.361-47.448C1124.324-540.207,1123.19-533.911,1123.519-529.639Z" transform="translate(-298.872 -144.358)"/>
    <path id="Path_2467" data-name="Path 2467" d="M1193.682-384.881l-67.532,1.568s8.522,35.5,35.973,37.617c10.591.815,27.572-15.981,33.748-15.739C1195.4-366.943,1194.16-380.606,1193.682-384.881Z" transform="translate(-322.992 -188.007)"/>
    <path id="Path_2468" data-name="Path 2468" d="M1192-470.848c1.783-25.889,6.469-40.188,4-49.023-3.174-11.33-19.741-19.054-29.227-20.37-7.8-1.083-26.958-.424-33.9,4.437-11.133,7.8-17.652,104.368-17.652,104.368s9.143,6.043,34.64,9.292c33.22,4.238,44.467,0,44.467,0S1189.886-440.142,1192-470.848Z" transform="translate(-319.86 -143.32)" fill="#fff" stroke="#000" stroke-linejoin="round" stroke-width="1.839"/>
    <path id="Path_2469" data-name="Path 2469" d="M1207.174-508.854s30.7,46.252,19.227,68.746c-4.814,9.438-20.547-1.4-17.894,19.055-19.406-3.274-40.274-15.626-38.148-21.4,2.617-7.118,50.365-6.494,50.365-6.494s-6.561-22.9-10.726-28.088c-1.569-1.953-1.048,15.27-2.261,12.929-5.213-10.025-10.755-22.732-10.284-30.634C1198.217-507.388,1207.174-508.854,1207.174-508.854Z" transform="translate(-335.629 -152.45)"/>
    <path id="Path_2470" data-name="Path 2470" d="M1211.184-517.111s41.857,56.341,30.382,78.835c-12.338,24.191-70.684-2.966-67.2-12.434,2.617-7.118,46.022-6.493,46.022-6.493s-19.805-31.146-18.928-45.793C1202.227-515.645,1211.184-517.111,1211.184-517.111Z" transform="translate(-336.779 -150.082)" fill="#fff" stroke="#000" stroke-linejoin="round" stroke-width="1.839"/>
    <path id="Path_2471" data-name="Path 2471" d="M1175.523-430.349a19.782,19.782,0,0,1-3.159-4.957c-.749-1.969-1.212-6.514-2-5.024s.414,6.805-.678,7.293-9.386-4.857-10.7-3.85-.606,6.179,3.759,9.022,8.031,5,10.455,3.016S1175.523-430.349,1175.523-430.349Z" transform="translate(-332.241 -172.019)" fill="#fff" stroke="#000" stroke-linejoin="round" stroke-width="1.839"/>
    <path id="Path_2472" data-name="Path 2472" d="M1079.5-462.039l-.385-.1a.777.777,0,0,1-.285-1.054c2.625-4.524,4.5-5.718,4.578-5.765a.772.772,0,0,1,1.063.252.769.769,0,0,1-.242,1.054c-.05.032-1.69,1.146-4.065,5.233A.768.768,0,0,1,1079.5-462.039Z" transform="translate(-309.391 -163.859)" fill="#fff"/>
    <path id="Path_2473" data-name="Path 2473" d="M1251.58-423a.77.77,0,0,1-.685-.428c-2.66-5.316-12.431-9.234-12.531-9.271a.783.783,0,0,1-.435-1,.777.777,0,0,1,1.006-.432c.421.168,10.413,4.175,13.337,10.015a.772.772,0,0,1-.342,1.036Z" transform="translate(-355.037 -173.864)"/>
    <path id="Path_2474" data-name="Path 2474" d="M1173.972-587.122s1.07-3.6,4.436-3.186,4.022,5.526,5.727,6.409,2.4.008,2.774,1.256-1.248,1.754-1.248,1.754a7.893,7.893,0,0,1,.97,4.2c-.186,2.266-2.91,3.005-3.052,3.858s1.063.947.235,3.071-5.406,3.232-6.975,3-7.667-7.988-8.494-9.793S1166.127-587.906,1173.972-587.122Z" transform="translate(-334.905 -129.079)" fill="#f53c37" stroke="#000" stroke-linejoin="round" stroke-width="1.839"/>
    <path id="Path_2475" data-name="Path 2475" d="M1170.6-562.844a25.819,25.819,0,0,1-2.774-.673c-2.218-.64-3.024-3-2.546-5.964a28,28,0,0,1,3.281-8.961c1.056-1.867,2.553-2.985,4.151-2.856.228,1.731,3.074,4.739,6.518,6.662l-.606,1.3c.121-.166.214-.308.278-.405.514-.8,1.177-2,1.961-.548.82,1.516-.364,3.487-1.6,4.323l.892,18.952c-.414,1.888-8.53,4.128-10.955,1.065C1168.736-550.514,1169.777-557.69,1170.6-562.844Zm6.561-7.347c.007.014.021.028.029.042l-.057.021Z" transform="translate(-334.176 -131.67)" fill="#fff" stroke="#000" stroke-linejoin="round" stroke-width="1.839"/>
    <path id="Path_2476" data-name="Path 2476" d="M1039.893-526.779a3.038,3.038,0,0,0-1.74-3.255c-3.452-1.563-10.541-4.322-15.034-2.934-2.632.815-9.87,1.353-9.35,2.515s7.253.184,7.31.535a6.129,6.129,0,0,0,2.8,5.482c3.06,1.87,12.409,4.157,14.171,2.575C1039.066-522.772,1039.615-525.033,1039.893-526.779Z" transform="translate(-290.753 -145.425)" fill="#fff" stroke="#000" stroke-linejoin="round" stroke-width="1.839"/>
    <path id="Path_2477" data-name="Path 2477" d="M1171.754-538.227l10.363-3.087,1.248,3.433-7.888,5-4.244-3.008-4.914,1.364,1.162-4.369,1.455-2.418Z" transform="translate(-334.513 -143.14)" fill="#fff" stroke="#000" stroke-linejoin="round" stroke-width="1.839"/>
    <path id="Path_2478" data-name="Path 2478" d="M596.951-814.856h-8.128v4.917h5.028v.285c0,2.07-1.071,3.57-4.923,3.57-3.246,0-5.815-2.07-5.815-7.6,0-4.958,3.1-7.028,6.956-7.028a11.4,11.4,0,0,1,3.642.464v2.748h5l.036-6.454c-1.964-1.817-4.82-2.458-8.675-2.458-8.206,0-13.8,4.1-13.8,13.193,0,8.2,4.7,12.906,11.981,12.906a9.051,9.051,0,0,0,6.562-2.316l.284,1.888h4.7v-11.552C599.8-813.859,598.8-814.856,596.951-814.856Z" transform="translate(-165.281 -61.372)"/>
    <path id="Path_2479" data-name="Path 2479" d="M621.775-797.013c5.813,0,9.555-3.207,9.555-8.913s-3.741-8.984-9.555-8.984-9.554,3.206-9.554,8.984C612.221-800.22,615.962-797.013,621.775-797.013Zm0-5.273c-2.105,0-2.891-1.5-2.891-3.639s.785-3.711,2.891-3.711,2.891,1.57,2.891,3.711S623.881-802.287,621.775-802.287Z" transform="translate(-175.592 -64.67)"/>
    <path id="Path_2480" data-name="Path 2480" d="M650.775-797.013c5.813,0,9.555-3.207,9.555-8.913s-3.741-8.984-9.555-8.984-9.554,3.206-9.554,8.984C641.221-800.22,644.962-797.013,650.775-797.013Zm0-5.273c-2.105,0-2.891-1.5-2.891-3.639s.785-3.711,2.891-3.711,2.891,1.57,2.891,3.711S652.881-802.287,650.775-802.287Z" transform="translate(-183.909 -64.67)"/>
    <path id="Path_2481" data-name="Path 2481" d="M682.779-803.564h-5.745c-.713,0-1.07-.358-1.07-.966a1.506,1.506,0,0,1,.143-.715,15.623,15.623,0,0,0,2.675.214c5.207,0,8.129-1.995,8.129-5.666a4.922,4.922,0,0,0-1.568-3.78,3.7,3.7,0,0,1,2.352-.713l-.642-4.921c-2.922.071-5.167,1.034-6.165,3.887a13.019,13.019,0,0,0-2.106-.143c-5.241,0-8.163,2.244-8.163,5.739a4.715,4.715,0,0,0,1.888,3.994,4.757,4.757,0,0,0-1.961,3.674,4.084,4.084,0,0,0,.82,2.637,4.165,4.165,0,0,0-1.5,3.282c0,2.959,2.6,4.883,8.983,4.883,7.63,0,9.626-3.1,9.626-6.347C688.48-801.6,686.77-803.564,682.779-803.564Zm-4-9.24a1.908,1.908,0,0,1,1.964,2.142,1.891,1.891,0,0,1-1.964,2.142,1.9,1.9,0,0,1-2-2.142A1.916,1.916,0,0,1,678.783-812.8Zm.143,16.622c-2.712,0-3.639-.75-3.639-1.822a1.657,1.657,0,0,1,.143-.75h5.745c1.106,0,1.535.285,1.535,1.036C682.708-796.861,681.674-796.182,678.926-796.182Z" transform="translate(-192.126 -63.179)"/>
    <path id="Path_2482" data-name="Path 2482" d="M702.913-800.24a18.176,18.176,0,0,0,3.637-.321l.071-4.845a10.844,10.844,0,0,1-2.425-.214v-18.83a1.445,1.445,0,0,0-1.461-1.461h-7.093l-.071,4.667c.606.036,1.462.107,2.211.214v15.94C697.782-800.952,699.563-800.24,702.913-800.24Z" transform="translate(-199.497 -61.515)"/>
    <path id="Path_2483" data-name="Path 2483" d="M719.406-804.573h10.841v-1.674c0-5.065-2.958-8.663-8.52-8.663-5.35,0-8.806,3.562-8.806,8.627,0,5.564,3.065,9.269,9.627,9.269,3.922,0,6.772-1.354,7.414-2l-1.639-4.636a10.419,10.419,0,0,1-5.418,1.429C720.763-802.215,719.763-803.037,719.406-804.573Zm2.249-5.527c1.321,0,2.035.715,2.178,2.358H719.37C719.621-809.458,720.37-810.1,721.655-810.1Z" transform="translate(-204.473 -64.67)"/>
    <path id="Path_2484" data-name="Path 2484" d="M771.651-805.993l-8.234-20.717-6.636.856-7.414,19.862a15.367,15.367,0,0,1-2.245.179l.071,4.988h10.765l.071-4.988a11.731,11.731,0,0,1-1.961-.143l.5-1.466h7.92l.5,1.466a11.72,11.72,0,0,1-1.961.143l.071,4.988h10.765l.071-4.988A15.464,15.464,0,0,1,771.651-805.993Zm-13.409-6.418,2.141-6.347,2.284,6.347Z" transform="translate(-214.282 -61.286)"/>
    <path id="Path_2485" data-name="Path 2485" d="M804.159-805.548v-18.9a1.445,1.445,0,0,0-1.461-1.461H795.6l-.071,4.667c.607.036,1.464.107,2.213.214v3.427a12.777,12.777,0,0,0-3.64-.463c-5.064,0-8.484,3.42-8.484,9.127,0,5.848,3.349,8.77,7.413,8.77a7.577,7.577,0,0,0,5.78-2.53,4.981,4.981,0,0,0,4.633,2.458,9.592,9.592,0,0,0,2.638-.285l.071-4.81A8.57,8.57,0,0,1,804.159-805.548Zm-9.626.107c-1.571,0-2.5-1.07-2.5-3.5,0-2.926,1.285-3.853,3-3.853a5.082,5.082,0,0,1,2.712.749v2.819C797.745-806.655,796.246-805.441,794.533-805.441Z" transform="translate(-225.324 -61.515)"/>
    <path id="Path_2486" data-name="Path 2486" d="M822.971-809.571c0-.71.643-1.064,1.857-1.064a7.337,7.337,0,0,1,1.86.214v1.284h5.677l.107-4.169c-1.571-.784-3.463-1.6-7.713-1.6-5.636,0-7.987,2.138-7.987,5.63,0,6.555,9.878,4.3,9.878,6.627,0,.792-.715,1.08-2.107,1.08a7.333,7.333,0,0,1-1.859-.214v-1.034h-5.677l-.107,4.2a15.476,15.476,0,0,0,7.713,1.6c5.85,0,8.415-2.138,8.415-5.594C833.027-809.784,822.971-807.225,822.971-809.571Z" transform="translate(-234.259 -64.67)"/>
    <path id="Path_2487" data-name="Path 2487" d="M757.443-446.047c0-1.5,1.427-2.286,4.1-2.286a12.493,12.493,0,0,1,3.571.429v2.716h5l.036-6.6c-1.963-1.247-4.927-1.96-8.819-1.96-7.739,0-10.448,2.85-10.448,7.774,0,10.414,13.408,6,13.408,10.592,0,1.389-1.142,2.03-4.139,2.03a16.291,16.291,0,0,1-4.391-.5v-2.743h-5l-.036,6.911c1.963,1.247,5.427,2.031,9.425,2.031,6.421,0,10.7-2.209,10.7-8.123C770.851-446.047,757.443-441.869,757.443-446.047Z" transform="translate(-215.317 -168.255)"/>
    <path id="Path_2488" data-name="Path 2488" d="M790.954-424.352c5.812,0,9.555-3.207,9.555-8.913s-3.742-8.984-9.555-8.984-9.555,3.206-9.555,8.984C781.4-427.559,785.141-424.352,790.954-424.352Zm0-5.273c-2.105,0-2.891-1.5-2.891-3.639s.785-3.711,2.891-3.711,2.891,1.57,2.891,3.711S793.059-429.626,790.954-429.626Z" transform="translate(-224.114 -171.553)"/>
    <path id="Path_2489" data-name="Path 2489" d="M825.934-431.2a11.78,11.78,0,0,1-5.713,1.5c-2.287,0-3.286-1.356-3.286-3.855,0-2.461,1.214-3.424,2.893-3.424a2.783,2.783,0,0,1,1.75.464v1.712h5.676l.107-4.491c-1.143-1.426-3.249-2.958-7.5-2.958-6.029,0-9.415,3.6-9.415,8.7,0,6.277,3.35,9.2,9.486,9.2,3.571,0,5.927-.785,7.569-1.924Z" transform="translate(-232.445 -171.553)"/>
    <path id="Path_2490" data-name="Path 2490" d="M842.139-446.936a3.538,3.538,0,0,0,3.849-3.706,3.538,3.538,0,0,0-3.849-3.706,3.574,3.574,0,0,0-3.849,3.706A3.574,3.574,0,0,0,842.139-446.936Zm3.386,13.662V-443.9a1.445,1.445,0,0,0-1.461-1.461H836.97L836.9-440.7c.606.036,1.462.107,2.211.214v7.207a11.555,11.555,0,0,1-2,.178l.071,4.845H847.45l.071-4.845A11.556,11.556,0,0,1,845.524-433.274Z" transform="translate(-240.032 -168.083)"/>
    <path id="Path_2491" data-name="Path 2491" d="M870.7-429.733v-5.67c0-4.709-2.708-6.846-8.414-6.846-5.6,0-7.166,2.244-7.985,5.06l5.7,1c.143-.786.714-1.428,2.213-1.428,1.428,0,2.284.678,2.284,2.143v.571a15.286,15.286,0,0,0-2.712-.213c-5.349,0-7.986,2.137-7.986,5.42s2.138,5.345,6.058,5.345a7.961,7.961,0,0,0,5.638-1.889c.784,1.14,2.174,1.782,4.241,1.782a15.168,15.168,0,0,0,2.888-.25l.071-4.81A8.977,8.977,0,0,1,870.7-429.733ZM861.57-428.7c-1.142,0-1.713-.429-1.713-1.357,0-1,.571-1.678,2.427-1.678a15.852,15.852,0,0,1,2.213.178A2.637,2.637,0,0,1,861.57-428.7Z" transform="translate(-244.879 -171.553)"/>
    <path id="Path_2492" data-name="Path 2492" d="M887.491-427.578a18.162,18.162,0,0,0,3.637-.321l.071-4.845a10.847,10.847,0,0,1-2.425-.214v-18.83a1.445,1.445,0,0,0-1.461-1.461H880.22l-.071,4.667c.606.036,1.462.107,2.211.214v15.94C882.36-428.292,884.141-427.578,887.491-427.578Z" transform="translate(-252.436 -168.398)"/>
    <path id="Path_2493" data-name="Path 2493" d="M779.421-383.1l-.713-14.946a12.452,12.452,0,0,1,2.318-.214l-.071-4.988H770.724L764.7-389.986l-5.743-13.263H748.366l-.071,4.988a16.485,16.485,0,0,1,2.318.178l-.571,14.981a16.08,16.08,0,0,1-2.318.178l.071,4.988h11.051l.071-4.988a17.352,17.352,0,0,1-2.319-.178l.357-10.094,5.422,11.909h4.566l5.422-11.945.428,10.13a16,16,0,0,1-2.283.178l.071,4.988h11.051l.071-4.988A16.832,16.832,0,0,1,779.421-383.1Z" transform="translate(-214.455 -182.739)"/>
    <path id="Path_2494" data-name="Path 2494" d="M803.71-381.912h10.84v-1.674c0-5.065-2.958-8.663-8.521-8.663-5.349,0-8.806,3.562-8.806,8.627,0,5.564,3.065,9.269,9.627,9.269,3.922,0,6.773-1.354,7.414-2l-1.639-4.636a10.42,10.42,0,0,1-5.418,1.429C805.066-379.554,804.066-380.376,803.71-381.912Zm2.249-5.527c1.321,0,2.035.714,2.177,2.358h-4.462C803.924-386.8,804.673-387.439,805.958-387.439Z" transform="translate(-228.652 -185.894)"/>
    <path id="Path_2495" data-name="Path 2495" d="M842.413-382.887v-18.9a1.445,1.445,0,0,0-1.461-1.461h-7.094l-.071,4.667c.606.036,1.463.107,2.212.214v3.427a12.767,12.767,0,0,0-3.64-.463c-5.063,0-8.484,3.42-8.484,9.127,0,5.848,3.35,8.77,7.414,8.77a7.575,7.575,0,0,0,5.78-2.53,4.98,4.98,0,0,0,4.633,2.459,9.587,9.587,0,0,0,2.638-.285l.071-4.81A8.572,8.572,0,0,1,842.413-382.887Zm-9.626.107c-1.57,0-2.5-1.07-2.5-3.5,0-2.926,1.284-3.853,3-3.853a5.082,5.082,0,0,1,2.712.749v2.819C836-383.994,834.5-382.78,832.787-382.78Z" transform="translate(-236.296 -182.739)"/>
    <path id="Path_2496" data-name="Path 2496" d="M860.364-396.936a3.538,3.538,0,0,0,3.849-3.706,3.538,3.538,0,0,0-3.849-3.706,3.574,3.574,0,0,0-3.849,3.706A3.574,3.574,0,0,0,860.364-396.936Zm3.386,13.662V-393.9a1.445,1.445,0,0,0-1.461-1.461H855.2l-.071,4.667c.606.036,1.462.107,2.211.214v7.208a11.554,11.554,0,0,1-2,.178l.071,4.845h10.266l.071-4.845A11.551,11.551,0,0,1,863.749-383.274Z" transform="translate(-245.259 -182.423)"/>
    <path id="Path_2497" data-name="Path 2497" d="M888.922-379.733v-5.67c0-4.709-2.708-6.846-8.413-6.846-5.6,0-7.166,2.244-7.986,5.06l5.7,1c.143-.786.714-1.428,2.213-1.428,1.428,0,2.284.678,2.284,2.143v.57a15.29,15.29,0,0,0-2.712-.213c-5.349,0-7.986,2.137-7.986,5.42s2.138,5.345,6.058,5.345a7.962,7.962,0,0,0,5.638-1.889c.784,1.14,2.174,1.781,4.241,1.781a15.168,15.168,0,0,0,2.888-.25l.071-4.81A8.979,8.979,0,0,1,888.922-379.733Zm-9.127,1.035c-1.142,0-1.713-.429-1.713-1.357,0-1,.571-1.678,2.427-1.678a15.848,15.848,0,0,1,2.213.178A2.637,2.637,0,0,1,879.795-378.7Z" transform="translate(-250.106 -185.894)"/>
    <path id="Path_2498" data-name="Path 2498" d="M425.607-500.314c0-1.5,1.427-2.287,4.1-2.287a12.5,12.5,0,0,1,3.571.429v2.716h5l.036-6.6c-1.963-1.247-4.927-1.96-8.819-1.96-7.739,0-10.448,2.851-10.448,7.774,0,10.415,13.408,6,13.408,10.592,0,1.389-1.142,2.03-4.139,2.03a16.293,16.293,0,0,1-4.391-.5v-2.743h-5l-.036,6.912c1.963,1.247,5.427,2.031,9.425,2.031,6.421,0,10.7-2.209,10.7-8.123C439.015-500.314,425.607-496.137,425.607-500.314Z" transform="translate(-120.143 -152.69)"/>
    <path id="Path_2499" data-name="Path 2499" d="M465.622-489.9v2.07h-6.034v-4.5h8.059v-4.988h-8.059v-4.569h6.034v2.035h4.856l.036-7.665h-19.73l-.071,4.988a16.915,16.915,0,0,1,2.318.178v14.981a16.915,16.915,0,0,1-2.318.178l.071,4.988h19.73l-.036-7.7Z" transform="translate(-129.269 -152.834)"/>
    <path id="Path_2500" data-name="Path 2500" d="M494.348-481.919c8.2,0,12.835-5.559,12.835-13.049s-4.633-13.049-12.835-13.049-12.835,5.559-12.835,13.049S486.146-481.919,494.348-481.919Zm0-5.844c-4.316,0-6.136-3-6.136-7.205s1.926-7.205,6.136-7.205c4.316,0,6.136,3,6.136,7.205S498.664-487.762,494.348-487.762Z" transform="translate(-138.103 -152.69)"/>
    <path id="Path_2501" data-name="Path 2501" d="M449.081-553.715c-3.149-2.712-2.9-3.423-3.969-5.614-.071-.149-.438-3.321-.438-3.574.009-1.1-3.112-3.947-4.645-1.63-3.023,4.565-6.544-2.271-6.414-.394.388,5.589-1.917,14.531.162,15.1,4.434,1.213,25.529,5.8,25.969,3.612C460.01-547.527,452.792-550.522,449.081-553.715Z" transform="translate(-124.159 -136.228)" stroke="#fff" stroke-linejoin="round" stroke-width="2.466"/>
    <path id="Path_2502" data-name="Path 2502" d="M494.441-557.752c-3.383-2.417-3.194-3.149-4.462-5.235-.084-.14-.735-3.268-.754-3.522-.091-1.093-3.46-3.649-4.776-1.2-2.6,4.823-6.722-1.669-6.424.187.891,5.532-.6,14.646,1.523,15.025,4.524.807,25.945,3.472,26.187,1.254C505.882-552.576,498.422-554.906,494.441-557.752Z" transform="translate(-137.099 -135.275)" stroke="#fff" stroke-linejoin="round" stroke-width="2.466"/>
    <path id="Path_2503" data-name="Path 2503" d="M382.327-761.362s-54.505,2.284-27.257,25.736c20.17,17.359,74.97,12.072,77.831,14.293,3.587,2.793,1.806,13.29,3.211,32.327,2.752,37.274.245,60.079.549,67.389.127,3.035,17.8,1.63,17.8,1.63s18.575-83.119,14.209-111.3C465.842-749.524,419.2-757.974,382.327-761.362Z" transform="translate(-99.65 -80.028)" stroke="#fff" stroke-linejoin="round" stroke-width="2.466"/>
    <path id="Path_2504" data-name="Path 2504" d="M349.367-755.53s34.142,4.868,59.929,13.672c37.643,10.43,3.338,124.07,3.338,124.07s-15.137,4.6-19.124.993c.245-3.407-.747-67.467-2.932-86.566-.385-3.363.2-2.625-1.474-6.144-7.823.09-47.269-6.016-57.593-9.53-22.528-7.667-17.5-40.029-17.5-40.029Z" transform="translate(-89.925 -80.687)" fill="#fff" stroke="#000" stroke-linejoin="round" stroke-width="2.466"/>
    <path id="Path_2505" data-name="Path 2505" d="M370.606-884.641c11.7-11.32,42.277,26.984,59.826,28.6,8.334.773,35.894-30.837,43.091-26.7s4.125,39.843-29.832,49.328S352.316-866.952,370.606-884.641Z" transform="translate(-105.286 -44.071)" fill="#fff" stroke="#000" stroke-linejoin="round" stroke-width="3"/>
    <path id="Path_2506" data-name="Path 2506" d="M514.123-884.284c1.536-1.624,4.022-1.7,6.929-3.728,1.114-.777,1.55.132-.385,2.216-.521.563-1.352.959-1.177,1.326.327.675,1.509.494,6.371-1.184,1.316-.455,1.384,1.042,1.339,1.82a3.464,3.464,0,0,1-1.351,2.515c-2.265,1.864-8.892,4.256-11.137,2.788a3.787,3.787,0,0,1-1.224-1.306A3.8,3.8,0,0,1,514.123-884.284Z" transform="translate(-147.144 -43.625)" fill="#fff" stroke="#000" stroke-linejoin="round" stroke-width="3"/>
    <path id="Path_2507" data-name="Path 2507" d="M394.723-870.556s8.744,18.775,11.113,33.5a96.117,96.117,0,0,1-15.141-9.906Z" transform="translate(-112.056 -48.71)" fill="#311d69" stroke="#000" stroke-linejoin="round" stroke-width="3"/>
    <path id="Path_2508" data-name="Path 2508" d="M310.5-838.442c-1.259-10.266-3.1-23.848-1.315-37.344,2.235-16.93,54.467-24.042,73.281-6.449,8.311,7.774,2.5,61.215,4.259,65.519,2.058,5.024,6.548,22.576,5.121,26.158-6.122,15.383-76.052,7.076-80.272-3.242C307.111-804.728,311.4-831.15,310.5-838.442Z" transform="translate(-88.466 -42.433)" stroke="#000" stroke-linejoin="round" stroke-width="3"/>
    <path id="Path_2509" data-name="Path 2509" d="M450.744-848.851c3.242-1.629,7.9-5.126,13.178-9.407-1.444,5.973-6.883,25.9-16.9,34.258a70.729,70.729,0,0,1-20.694-4.838Z" transform="translate(-122.274 -52.237)" stroke="#fff" stroke-linejoin="round" stroke-width="3"/>
    <path id="Path_2510" data-name="Path 2510" d="M368.358-915.745s2.269-3.962.372-6.765c-2.745-4.062-7.056-2.708-10.032-1.284-.83.4-6.327,1.624-5.614,7.287a9.1,9.1,0,0,0,1.793,3.647l1.739,5.522S366.644-910.592,368.358-915.745Z" transform="translate(-101.25 -33.035)" fill="#f53c37" stroke="#000" stroke-linejoin="round" stroke-width="3"/>
    <path id="Path_2511" data-name="Path 2511" d="M358.232-906.053l-2.986,12.85c.155,1.811,7.444,4.883,10.08,2.321.772-.75-.521-11.8-.521-11.8Z" transform="translate(-101.888 -38.529)" fill="#fff" stroke="#000" stroke-linejoin="round" stroke-width="3"/>
    <path id="Path_2512" data-name="Path 2512" d="M367.331-892.636c-.066-1.084-.16-2.227-.256-3.283l-5.361-.657S363.1-893.926,367.331-892.636Z" transform="translate(-103.743 -41.247)" stroke="#000" stroke-linejoin="round" stroke-width="3"/>
    <path id="Path_2513" data-name="Path 2513" d="M309.189-875.593c1.118-8.465,14.742-14.48,30.435-16.174-1.4,14.035-5.065,52.6-4.863,69.634.25,21.017,18.161,32.108,32.931,34.073,8.4,1.114,13.5,1.928,15.993,3.617-20.053,6.536-68.612-.615-72.108-9.163-4.466-10.928-.178-37.35-1.073-44.642C309.245-848.514,307.407-862.1,309.189-875.593Z" transform="translate(-88.466 -42.627)" fill="#fff" stroke="#000" stroke-linejoin="round" stroke-width="3"/>
    <path id="Path_2514" data-name="Path 2514" d="M314.243-879.012c11.7-11.32,45.79,27.433,63.34,29.053,8.334.772,41.892-36.537,49.088-32.395s-1.872,45.539-35.828,55.024S295.953-861.323,314.243-879.012Z" transform="translate(-89.167 -45.235)" fill="#fff" stroke="#000" stroke-linejoin="round" stroke-width="3"/>
    <path id="Path_2515" data-name="Path 2515" d="M471.031-885.379c1.537-1.629,4.023-1.7,6.929-3.732,1.115-.778,1.55.132-.384,2.216-.521.563-1.353.958-1.177,1.326.327.675,1.51.494,6.371-1.184,1.316-.455,1.384,1.042,1.339,1.819a3.449,3.449,0,0,1-1.351,2.515c-2.264,1.863-8.892,4.255-11.136,2.789a3.76,3.76,0,0,1-1.225-1.307A3.8,3.8,0,0,1,471.031-885.379Z" transform="translate(-134.784 -43.309)" fill="#fff" stroke="#000" stroke-linejoin="round" stroke-width="3"/>
    <path id="Path_2516" data-name="Path 2516" d="M362.363-888.537a18.972,18.972,0,0,0,1.394-1.548,24.466,24.466,0,0,0,1.177-2.4s.422-.457.7,0a41.177,41.177,0,0,1,2.181,5.358c-.076.3-1.941,3.758-2.434,3.834s-1.73-2.345-2.841-2.245-2.91,3.207-4.482,3.383-4.728-5.476-5.006-7.093,1.558-5.107,2.294-5.382c.133-.053.8,2.649,2.712,4.068A15.045,15.045,0,0,0,362.363-888.537Z" transform="translate(-101.251 -41.806)" fill="#fff" stroke="#000" stroke-linejoin="round" stroke-width="3"/>
    <path id="Path_2517" data-name="Path 2517" d="M359.454-907.994l-.281.957a4.612,4.612,0,0,0,3.44,5.435,12.786,12.786,0,0,0,5.643.053c2.045-.317,3.038-2.316,2.955-5.007a25.154,25.154,0,0,0-1.878-8.348c-1.548-3.8-6.295-4.016-8.03.61l-.734,2.5c-.048-.159-.092-.32-.132-.483-.213-.862-.73-2.1-1.857-1.155C357.234-912.3,357.93-909.028,359.454-907.994Z" transform="translate(-102.639 -35.171)" fill="#fff" stroke="#000" stroke-linejoin="round" stroke-width="3"/>
  </g>
</svg>
