<svg xmlns="http://www.w3.org/2000/svg" width="1236.892" height="769.696" viewBox="0 0 1236.892 769.696">
  <g id="Group_215" data-name="Group 215" transform="translate(-754.586 -92.404)">
    <path id="Path_1040" data-name="Path 1040" d="M75.051,41.378,268.7,41.06V84.522H240.752v24.412H360.527V84.522h-26.3V41.06l206.012.318V-281.571H75.051Z" transform="translate(1448.949 474.688)" fill="none" stroke="#000" stroke-linecap="round" stroke-linejoin="round" stroke-width="2" fill-rule="evenodd"/>
    <path id="Path_1041" data-name="Path 1041" d="M85.224,22.022H520.383V-271.656H85.224Z" transform="translate(1453.791 479.408)" fill="none" stroke="#000" stroke-linecap="round" stroke-linejoin="round" stroke-width="2" fill-rule="evenodd"/>
    <path id="Path_1056" data-name="Path 1056" d="M117.841,214.237,330.8-2.087,697.1,31.521l638-584.152" transform="translate(638.159 646.448)" fill="none" stroke="#000" stroke-linecap="round" stroke-linejoin="round" stroke-width="2"/>
    <path id="Path_1057" data-name="Path 1057" d="M146.064,338.568,269.409,213.278,586.747,131.7l682.7-370.81" transform="translate(721.08 490.396)" fill="none" stroke="#f53c37" stroke-linejoin="round" stroke-width="4"/>
    <path id="Path_1039" data-name="Path 1039" d="M2.278-304.984,24.548-351.6l3.791,35.537,22.27-56.859,6.16,43.592,30.8-64.914" transform="translate(1320.434 662.589)" fill="none" stroke="#000" stroke-linecap="round" stroke-linejoin="round" stroke-width="2"/>
    <g id="Group_107" data-name="Group 107" transform="matrix(0.875, 0.485, -0.485, 0.875, -5.757, -528.099)">
      <path id="Path_1047" data-name="Path 1047" d="M328.819-214.464l-9.855,9.855" transform="translate(1339.426 587.361)" fill="none" stroke="#000" stroke-linejoin="round" stroke-width="2"/>
      <path id="Path_1048" data-name="Path 1048" d="M325.9-242.815,291.185-208.1" transform="translate(1337.584 585.409)" fill="none" stroke="#000" stroke-linejoin="round" stroke-width="2"/>
      <path id="Path_1049" data-name="Path 1049" d="M327.321-234.256l-28.73,28.729" transform="translate(1338.023 585.999)" fill="none" stroke="#000" stroke-linejoin="round" stroke-width="2"/>
      <path id="Path_1050" data-name="Path 1050" d="M313.569-210.127,297.16-226.536" transform="translate(1337.924 586.53)" fill="none" stroke="#000" stroke-linejoin="round" stroke-width="2"/>
      <path id="Path_1051" data-name="Path 1051" d="M323.838-220.4l-16.41-16.41" transform="translate(1338.631 585.823)" fill="none" stroke="#000" stroke-linejoin="round" stroke-width="2"/>
      <path id="Path_1052" data-name="Path 1052" d="M284.209-210.837l39.942-39.942,6.989,25.829-23.81,23.81Z" transform="translate(1337.033 584.861)" fill="none" stroke="#000" stroke-linecap="round" stroke-linejoin="round" stroke-width="2"/>
      <path id="Path_1053" data-name="Path 1053" d="M328.273-220.641a4.738,4.738,0,0,0,0,6.7,4.737,4.737,0,0,0,6.7,0,4.738,4.738,0,0,0,0-6.7A4.737,4.737,0,0,0,328.273-220.641Z" transform="translate(1339.971 586.841)" fill="none" stroke="#000" stroke-linecap="round" stroke-linejoin="round" stroke-width="2"/>
      <path id="Path_1054" data-name="Path 1054" d="M312.787-205.155a4.738,4.738,0,0,0,0,6.7,4.738,4.738,0,0,0,6.7,0,4.738,4.738,0,0,0,0-6.7A4.738,4.738,0,0,0,312.787-205.155Z" transform="translate(1338.905 587.906)" fill="none" stroke="#000" stroke-linecap="round" stroke-linejoin="round" stroke-width="2"/>
      <path id="Path_1055" data-name="Path 1055" d="M289.885-217.129l-14.716-6.8-8.861,8.861" transform="translate(1335.802 586.709)" fill="none" stroke="#000" stroke-linecap="round" stroke-linejoin="round" stroke-width="2"/>
    </g>
    <g id="Group_110" data-name="Group 110" transform="translate(13.088 39)">
      <path id="Path_1042" data-name="Path 1042" d="M104.415-220.443H207.328v-9.329H104.415Z" transform="translate(1101.585 389.697)" fill="#fff" stroke="#000" stroke-linecap="round" stroke-linejoin="round" stroke-width="2" fill-rule="evenodd"/>
      <path id="Path_1043" data-name="Path 1043" d="M104.415-190.841H207.328v-9.329H104.415Z" transform="translate(1101.585 382.252)" fill="#fff" stroke="#000" stroke-linecap="round" stroke-linejoin="round" stroke-width="2" fill-rule="evenodd"/>
      <path id="Path_1058" data-name="Path 1058" d="M105.3-250.567h59.1V-259.9H105.3Z" transform="translate(1101.361 397.273)" fill="none" stroke="#000" stroke-linecap="round" stroke-linejoin="round" stroke-width="2"/>
      <path id="Path_1059" data-name="Path 1059" d="M196.784-259.056a3.2,3.2,0,0,1,3.2,3.2,3.2,3.2,0,0,1-3.2,3.2,3.2,3.2,0,0,1-3.2-3.2A3.2,3.2,0,0,1,196.784-259.056Z" transform="translate(1079.158 397.062)" fill="none" stroke="#000" stroke-linecap="round" stroke-linejoin="round" stroke-width="2"/>
      <path id="Path_1060" data-name="Path 1060" d="M200.975-251.847l3.3,3.3" transform="translate(1077.299 395.249)" fill="none" stroke="#000" stroke-linecap="round" stroke-linejoin="round" stroke-width="2"/>
    </g>
    <path id="Path_1061" data-name="Path 1061" d="M361.113-329.666l-19.826-19.826-19.825,19.826,19.825,19.826Z" transform="translate(1068.627 475.707)" fill="none" stroke="#f53c37" stroke-linecap="round" stroke-linejoin="round" stroke-width="2"/>
    <g id="Group_108" data-name="Group 108" transform="translate(-157.183 275.694)">
      <path id="Path_1062" data-name="Path 1062" d="M372.521-36.326h72.126" transform="translate(1701.07 844.83) rotate(-90)" fill="none" stroke="#000" stroke-linecap="round" stroke-linejoin="round" stroke-width="2"/>
      <path id="Path_1063" data-name="Path 1063" d="M372.521-23.359h72.126" transform="translate(1704.541 844.83) rotate(-90)" fill="none" stroke="#000" stroke-linecap="round" stroke-linejoin="round" stroke-width="2"/>
      <path id="Path_1064" data-name="Path 1064" d="M372.521-10.393h72.126" transform="translate(1708.013 844.83) rotate(-90)" fill="none" stroke="#000" stroke-linecap="round" stroke-linejoin="round" stroke-width="2"/>
    </g>
    <path id="Path_1065" data-name="Path 1065" d="M63.779-46.884a8.96,8.96,0,0,1,8.955,8.955,8.96,8.96,0,0,1-8.955,8.955,8.96,8.96,0,0,1-8.955-8.955A8.96,8.96,0,0,1,63.779-46.884Z" transform="translate(1523.828 294.884)" fill="none" stroke="#000" stroke-linecap="round" stroke-linejoin="round" stroke-width="2"/>
    <path id="Path_1181" data-name="Path 1181" d="M63.779-46.884a8.96,8.96,0,0,1,8.955,8.955,8.96,8.96,0,0,1-8.955,8.955,8.96,8.96,0,0,1-8.955-8.955A8.96,8.96,0,0,1,63.779-46.884Z" transform="translate(1707.602 449.212) rotate(40)" fill="#ffd525" stroke="#000" stroke-linecap="round" stroke-linejoin="round" stroke-width="2"/>
    <path id="Path_1066" data-name="Path 1066" d="M25.876-130.731l-2.4,5.854,4.825,4.095-6.31-.477-2.4,5.854-1.5-6.148-6.31-.477,5.385-3.323-1.5-6.149,4.824,4.095Z" transform="translate(1360.963 592.657)" fill="none" stroke="#000" stroke-linecap="round" stroke-linejoin="round" stroke-width="2"/>
    <g id="Group_109" data-name="Group 109" transform="matrix(0.914, -0.407, 0.407, 0.914, -439.016, 982.665)">
      <path id="Path_1180" data-name="Path 1180" d="M63.779-46.884a8.96,8.96,0,0,1,8.955,8.955,8.96,8.96,0,0,1-8.955,8.955,8.96,8.96,0,0,1-8.955-8.955A8.96,8.96,0,0,1,63.779-46.884Z" transform="translate(1536.44 338.524)" fill="none" stroke="#000" stroke-linecap="round" stroke-linejoin="round" stroke-width="2"/>
      <text id="_" data-name="$" transform="translate(1591 292.552)" fill="#f53c37" font-size="13" font-family="Barlow-Bold, Barlow" font-weight="700"><tspan x="-3.588" y="13">$</tspan></text>
    </g>
    <text id="_2" data-name="$" transform="translate(1778.947 449.065) rotate(40)" font-size="13" font-family="Barlow-Bold, Barlow" font-weight="700"><tspan x="-3.588" y="13">$</tspan></text>
  </g>
</svg>
