<svg xmlns="http://www.w3.org/2000/svg" width="170.818" height="158.308" viewBox="0 0 170.818 158.308">
  <g id="Group_164" data-name="Group 164" transform="translate(-0.5 441.325)">
    <path id="Path_1138" data-name="Path 1138" d="M44.906-298.278a43.427,43.427,0,0,1,43.406,43.406,43.427,43.427,0,0,1-43.406,43.406A43.427,43.427,0,0,1,1.5-254.872,43.427,43.427,0,0,1,44.906-298.278Z" transform="translate(0 -90.164)" fill="none" stroke="#000" stroke-linecap="round" stroke-linejoin="round" stroke-width="2" stroke-dasharray="9 15 0 0"/>
    <path id="Path_1139" data-name="Path 1139" d="M203.9-357.719l20.527-42.967,3.494,32.755,20.527-52.409,5.678,40.18,28.388-59.833" transform="translate(-128.774 0)" fill="none" stroke="#000" stroke-linecap="round" stroke-linejoin="round" stroke-width="2"/>
    <path id="Path_1140" data-name="Path 1140" d="M19.374-251.6l-8.255-8.254L2.865-251.6l8.255,8.255Z" transform="translate(-0.868 -114.61)" fill="none" stroke="#f53c37" stroke-linecap="round" stroke-linejoin="round" stroke-width="2"/>
    <path id="Path_1141" data-name="Path 1141" d="M408.69-79.726h20.7" transform="translate(-259.067 -229.213)" fill="none" stroke="#000" stroke-linecap="round" stroke-linejoin="round" stroke-width="2"/>
    <path id="Path_1142" data-name="Path 1142" d="M408.69-66.76h20.7" transform="translate(-259.067 -237.463)" fill="none" stroke="#000" stroke-linecap="round" stroke-linejoin="round" stroke-width="2"/>
    <path id="Path_1143" data-name="Path 1143" d="M408.69-53.793h20.7" transform="translate(-259.067 -245.712)" fill="none" stroke="#000" stroke-linecap="round" stroke-linejoin="round" stroke-width="2"/>
    <path id="Path_1144" data-name="Path 1144" d="M149.928-351.29a8.259,8.259,0,0,1,8.255,8.255,8.258,8.258,0,0,1-8.255,8.254,8.258,8.258,0,0,1-8.255-8.254A8.259,8.259,0,0,1,149.928-351.29Z" transform="translate(-89.183 -56.436)" fill="none" stroke="#000" stroke-linecap="round" stroke-linejoin="round" stroke-width="2"/>
    <path id="Path_1145" data-name="Path 1145" d="M112.89-51.291l-2.216,5.4,4.447,3.774-5.816-.44-2.215,5.4-1.379-5.667-5.816-.44,4.964-3.063L103.479-52l4.447,3.774Z" transform="translate(-62.602 -246.852)" fill="none" stroke="#000" stroke-linecap="round" stroke-linejoin="round" stroke-width="2"/>
    <path id="Path_1146" data-name="Path 1146" d="M44.64-266.632l49.285,52.48,21.206-28.8,31.14,16.006,20.669-30.1,29.651,14.093-53.031-53.339-28.429-16.79L96.306-288.992l-29.559-7.3Z" transform="translate(-27.447 -80.744)" fill="#fff" stroke="#000" stroke-linecap="round" stroke-linejoin="round" stroke-width="2" fill-rule="evenodd"/>
    <path id="Path_1147" data-name="Path 1147" d="M153.8-213.589,105.41-266.928" transform="translate(-66.111 -110.109)" fill="none" stroke="#000" stroke-linecap="round" stroke-linejoin="round" stroke-width="2"/>
    <path id="Path_1148" data-name="Path 1148" d="M290.231-257.048l-51.809-56.036" transform="translate(-150.737 -80.744)" fill="none" stroke="#000" stroke-linecap="round" stroke-linejoin="round" stroke-width="2"/>
    <path id="Path_1149" data-name="Path 1149" d="M236.635-184.813l-49.966-62.043" transform="translate(-117.81 -122.88)" fill="none" stroke="#000" stroke-linecap="round" stroke-linejoin="round" stroke-width="2"/>
    <path id="Path_1150" data-name="Path 1150" d="M255.8-230.381l-8.12-7.224,3.79-2.623,3.31,2.935,4.309-3.551,2.5,1.989-4.309,3.747,2.311,1.561Z" transform="translate(-156.625 -126.706)" fill="red" stroke="#000" stroke-linecap="round" stroke-linejoin="round" stroke-width="2" fill-rule="evenodd"/>
    <path id="Path_1151" data-name="Path 1151" d="M120.037-221.928c.868,3.491.275,4.7.275,4.7l21.8-9.709,36.041,18.43,19.641-28.634,6.286,1.323a9.679,9.679,0,0,1-2.189-2.736l-7.648-2.428-10.721,15.786-27.65-27.5-2.63,2.122,8.215,8.32-6.834,4.527-6.761,1.02L145-241.989a7.147,7.147,0,0,1-3.694.481l4.659,8.016L157-234.773l6.806-4.562,17.687,17.376-8.711,6.21-35.061-16.765Z" transform="translate(-75.417 -119.169)" fill="#fff" stroke="#000" stroke-linecap="round" stroke-linejoin="round" stroke-width="2" fill-rule="evenodd"/>
    <path id="Path_1152" data-name="Path 1152" d="M98.316-240.075c-2.7-.573.946-17.18,5.359-16.865s1.1-7.092,5.517-4.413,9.3,6,16.707,6.941,5.044-2.8,8.2-5.029,5.94-5.438,9.433-7.378,15-8.718,22.09-4.778,8.354,4.571,12.609,7.566S185-254.417,188.471-250s10.56,9.05,16.077,12.012-6.244,4.19-6.244,4.19-13.215-1.287-15.107,5.175-13.189,15.1-13.189,15.1-3.958-1.661-11.732-5.6a113.141,113.141,0,0,0-17.235-6.639s-14.916,25.469-20.117,21.844-13.938-9.356-15.514-16.449S110.925-237.4,98.316-240.075Z" transform="translate(-61.01 -106.369)" fill="none" stroke="red" stroke-linecap="round" stroke-linejoin="round" stroke-width="2"/>
    <path id="Path_1153" data-name="Path 1153" d="M236.459-360.338c9.571,0,17.342,8.456,17.342,18.872s-17.342,29.828-17.342,29.828-17.342-19.412-17.342-29.828S226.888-360.338,236.459-360.338Z" transform="translate(-138.455 -50.679)" fill="#fff" stroke="red" stroke-linecap="round" stroke-linejoin="round" stroke-width="2" fill-rule="evenodd"/>
    <path id="Path_1154" data-name="Path 1154" d="M251.97-335.81a8.478,8.478,0,0,1,8.474,8.474,8.478,8.478,0,0,1-8.474,8.474,8.478,8.478,0,0,1-8.474-8.474A8.478,8.478,0,0,1,251.97-335.81Z" transform="translate(-153.966 -66.285)" fill="red" fill-rule="evenodd"/>
    <path id="Path_1155" data-name="Path 1155" d="M225.1-202.016l7.186,7-5.139,4.85-8.758-3.579-3.579-4.421,5.924-.306Z" transform="translate(-135.433 -151.409)" fill="#ffd525" stroke="#000" stroke-linecap="round" stroke-linejoin="round" stroke-width="2" fill-rule="evenodd"/>
    <path id="Path_1156" data-name="Path 1156" d="M311.337-190.844l-10.643,14.729,2.183,1.872,6.177-5.865,5.615-4.867h3.12l2.246-2.216-4.277-4.369-2.021-2.358Z" transform="translate(-190.357 -157.17)" fill="#ffd525" stroke="#000" stroke-linecap="round" stroke-linejoin="round" stroke-width="2" fill-rule="evenodd"/>
    <path id="Path_1157" data-name="Path 1157" d="M152.249-167.234l8.986,9.359-5.649,5.376-6.419-5.376-6.419,4.349-3.338-4.349Z" transform="translate(-87.744 -173.538)" fill="#ffd525" stroke="#000" stroke-linecap="round" stroke-linejoin="round" stroke-width="2" fill-rule="evenodd"/>
  </g>
</svg>
