<svg xmlns="http://www.w3.org/2000/svg" width="1559.303" height="771.751" viewBox="0 0 1559.303 771.751">
  <g id="Group_213" data-name="Group 213" transform="translate(-610.697 -98.677)">
    <g id="Component_61_1" data-name="Component 61 – 1" transform="translate(1228.229 178.434)">
      <path id="Path_1007" data-name="Path 1007" d="M200.817,13.177,96.849,66.433H713.26L633.465,13.177V-287.18H200.817Z" transform="translate(227.511 402.24)" fill="#fff" stroke="#000" stroke-linecap="round" stroke-linejoin="round" stroke-width="2" fill-rule="evenodd"/>
      <path id="Path_1008" data-name="Path 1008" d="M136.4-4.132H541.119V-277.265H136.4Z" transform="translate(305.893 405.937)" fill="#fff" stroke="#000" stroke-linecap="round" stroke-linejoin="round" stroke-width="2" fill-rule="evenodd"/>
      <path id="Path_1009" data-name="Path 1009" d="M156.482-211.665H446.993v-22.6H156.482Z" transform="translate(313.379 421.969)" fill="#f53c37" fill-rule="evenodd"/>
      <path id="Path_1010" data-name="Path 1010" d="M156.482-187.034h268v-17.11h-268Z" transform="translate(313.379 433.2)" fill="#fff" stroke="#000" stroke-linecap="round" stroke-linejoin="round" stroke-width="2" fill-rule="evenodd"/>
      <path id="Path_1011" data-name="Path 1011" d="M156.482-248.394h108.4V-265.5h-108.4Z" transform="translate(313.379 410.322)" fill="rgba(0,0,0,0)" stroke="#000" stroke-linecap="round" stroke-linejoin="round" stroke-width="2"/>
      <path id="Path_1012" data-name="Path 1012" d="M156.482-156.914h268v-17.11h-268Z" transform="translate(313.379 444.429)" fill="#fff" stroke="#000" stroke-linecap="round" stroke-linejoin="round" stroke-width="2" fill-rule="evenodd"/>
      <path id="Path_1013" data-name="Path 1013" d="M156.482-126.794h268V-143.9h-268Z" transform="translate(313.379 455.66)" fill="#fff" stroke="#000" stroke-linecap="round" stroke-linejoin="round" stroke-width="2" fill-rule="evenodd"/>
      <path id="Path_1014" data-name="Path 1014" d="M156.482-96.674h268v-17.11h-268Z" transform="translate(313.379 466.89)" fill="#fff" stroke="#000" stroke-linecap="round" stroke-linejoin="round" stroke-width="2" fill-rule="evenodd"/>
      <path id="Path_1015" data-name="Path 1015" d="M383.429-228.033l13.742,14.381" transform="translate(-224.435 827.609)" fill="rgba(0,0,0,0)" stroke="#000" stroke-linecap="round" stroke-linejoin="round" stroke-width="2"/>
      <path id="Path_1016" data-name="Path 1016" d="M428.162-224.127H383.429l13.742-14.381" transform="translate(-224.435 823.704)" fill="rgba(0,0,0,0)" stroke="#000" stroke-linecap="round" stroke-linejoin="round" stroke-width="2"/>
      <path id="Path_1017" data-name="Path 1017" d="M250.633-264.665a5.876,5.876,0,0,1,5.873,5.873,5.876,5.876,0,0,1-5.873,5.873,5.876,5.876,0,0,1-5.874-5.873A5.876,5.876,0,0,1,250.633-264.665Z" transform="translate(346.294 410.635)" fill="rgba(0,0,0,0)" stroke="#000" stroke-linecap="round" stroke-linejoin="round" stroke-width="2"/>
      <path id="Path_1018" data-name="Path 1018" d="M252.153-257.456l6.061,6.061" transform="translate(349.05 413.323)" fill="rgba(0,0,0,0)" stroke="#000" stroke-linecap="round" stroke-linejoin="round" stroke-width="2"/>
      <path id="Path_1219" data-name="Path 1219" d="M97.423-290.9H530.7" transform="translate(330.274 706.138)" fill="none" stroke="#000" stroke-width="2"/>
      <line id="Line_40" data-name="Line 40" x2="46.005" transform="translate(734.03 428.664)" fill="none" stroke="#000" stroke-width="6"/>
      <line id="Line_43" data-name="Line 43" x2="46.005" transform="translate(760.235 448.617)" fill="none" stroke="#000" stroke-width="6"/>
      <line id="Line_41" data-name="Line 41" x2="46.005" transform="translate(810.613 428.664)" fill="none" stroke="#000" stroke-width="6"/>
      <line id="Line_42" data-name="Line 42" x2="46.005" transform="translate(833.615 448.617)" fill="none" stroke="#000" stroke-width="6"/>
      <path id="Path_1220" data-name="Path 1220" d="M643.089-275.725v24.086H26.677v-25.11" transform="translate(297.682 744.398)" fill="none" stroke="#000" stroke-width="2"/>
      <g id="Path_1304" data-name="Path 1304" transform="translate(442.03 422.531)" fill="#fff" stroke-linecap="round" stroke-linejoin="round">
        <path d="M 40.66358947753906 8.191891670227051 L -13.11523818969727 8.191891670227051 L 0.2519366443157196 1.000002861022949 L 54.03076553344727 1.000002861022949 L 40.66358947753906 8.191891670227051 Z" stroke="none"/>
        <path d="M 0.503875732421875 2.000002861022949 L -9.146007537841797 7.191891670227051 L 40.41165161132813 7.191891670227051 L 50.0615348815918 2.000002861022949 L 0.503875732421875 2.000002861022949 M -3.814697265625e-06 2.86102294921875e-06 L 57.99999618530273 2.86102294921875e-06 L 40.91553115844727 9.191891670227051 L -17.08446884155273 9.191891670227051 L -3.814697265625e-06 2.86102294921875e-06 Z" stroke="none" fill="#000"/>
      </g>
      <g id="Path_1311" data-name="Path 1311" transform="translate(408.03 437.582)" fill="#fff" stroke-linecap="round" stroke-linejoin="round">
        <path d="M 40.66358947753906 8.191891670227051 L -13.11523818969727 8.191891670227051 L 0.2519366443157196 1.000002861022949 L 54.03076553344727 1.000002861022949 L 40.66358947753906 8.191891670227051 Z" stroke="none"/>
        <path d="M 0.503875732421875 2.000002861022949 L -9.146007537841797 7.191891670227051 L 40.41165161132813 7.191891670227051 L 50.0615348815918 2.000002861022949 L 0.503875732421875 2.000002861022949 M -3.814697265625e-06 2.86102294921875e-06 L 57.99999618530273 2.86102294921875e-06 L 40.91553115844727 9.191891670227051 L -17.08446884155273 9.191891670227051 L -3.814697265625e-06 2.86102294921875e-06 Z" stroke="none" fill="#000"/>
      </g>
      <g id="Path_1315" data-name="Path 1315" transform="translate(373.945 452.597)" fill="#fff" stroke-linecap="round" stroke-linejoin="round">
        <path d="M 40.66358947753906 8.191891670227051 L -13.11523818969727 8.191891670227051 L 0.2519366443157196 1.000002861022949 L 54.03076553344727 1.000002861022949 L 40.66358947753906 8.191891670227051 Z" stroke="none"/>
        <path d="M 0.503875732421875 2.000002861022949 L -9.146007537841797 7.191891670227051 L 40.41165161132813 7.191891670227051 L 50.0615348815918 2.000002861022949 L 0.503875732421875 2.000002861022949 M -3.814697265625e-06 2.86102294921875e-06 L 57.99999618530273 2.86102294921875e-06 L 40.91553115844727 9.191891670227051 L -17.08446884155273 9.191891670227051 L -3.814697265625e-06 2.86102294921875e-06 Z" stroke="none" fill="#000"/>
      </g>
      <g id="Path_1305" data-name="Path 1305" transform="translate(520.03 422.531)" fill="#fff" stroke-linecap="round" stroke-linejoin="round">
        <path d="M 40.66358947753906 8.191891670227051 L -13.11523818969727 8.191891670227051 L 0.2519366443157196 1.000002861022949 L 54.03076553344727 1.000002861022949 L 40.66358947753906 8.191891670227051 Z" stroke="none"/>
        <path d="M 0.503875732421875 2.000002861022949 L -9.146007537841797 7.191891670227051 L 40.41165161132813 7.191891670227051 L 50.0615348815918 2.000002861022949 L 0.503875732421875 2.000002861022949 M -3.814697265625e-06 2.86102294921875e-06 L 57.99999618530273 2.86102294921875e-06 L 40.91553115844727 9.191891670227051 L -17.08446884155273 9.191891670227051 L -3.814697265625e-06 2.86102294921875e-06 Z" stroke="none" fill="#000"/>
      </g>
      <g id="Path_1310" data-name="Path 1310" transform="translate(486.03 437.582)" fill="#fff" stroke-linecap="round" stroke-linejoin="round">
        <path d="M 40.66358947753906 8.191891670227051 L -13.11523818969727 8.191891670227051 L 0.2519366443157196 1.000002861022949 L 54.03076553344727 1.000002861022949 L 40.66358947753906 8.191891670227051 Z" stroke="none"/>
        <path d="M 0.503875732421875 2.000002861022949 L -9.146007537841797 7.191891670227051 L 40.41165161132813 7.191891670227051 L 50.0615348815918 2.000002861022949 L 0.503875732421875 2.000002861022949 M -3.814697265625e-06 2.86102294921875e-06 L 57.99999618530273 2.86102294921875e-06 L 40.91553115844727 9.191891670227051 L -17.08446884155273 9.191891670227051 L -3.814697265625e-06 2.86102294921875e-06 Z" stroke="none" fill="#000"/>
      </g>
      <g id="Path_1314" data-name="Path 1314" transform="translate(451.945 452.597)" fill="#fff" stroke-linecap="round" stroke-linejoin="round">
        <path d="M 40.66358947753906 8.191891670227051 L -13.11523818969727 8.191891670227051 L 0.2519366443157196 1.000002861022949 L 54.03076553344727 1.000002861022949 L 40.66358947753906 8.191891670227051 Z" stroke="none"/>
        <path d="M 0.503875732421875 2.000002861022949 L -9.146007537841797 7.191891670227051 L 40.41165161132813 7.191891670227051 L 50.0615348815918 2.000002861022949 L 0.503875732421875 2.000002861022949 M -3.814697265625e-06 2.86102294921875e-06 L 57.99999618530273 2.86102294921875e-06 L 40.91553115844727 9.191891670227051 L -17.08446884155273 9.191891670227051 L -3.814697265625e-06 2.86102294921875e-06 Z" stroke="none" fill="#000"/>
      </g>
      <g id="Path_1306" data-name="Path 1306" transform="translate(598.03 422.531)" fill="#fff" stroke-linecap="round" stroke-linejoin="round">
        <path d="M 40.66358947753906 8.191891670227051 L -13.11523818969727 8.191891670227051 L 0.2519366443157196 1.000002861022949 L 54.03076553344727 1.000002861022949 L 40.66358947753906 8.191891670227051 Z" stroke="none"/>
        <path d="M 0.503875732421875 2.000002861022949 L -9.146007537841797 7.191891670227051 L 40.41165161132813 7.191891670227051 L 50.0615348815918 2.000002861022949 L 0.503875732421875 2.000002861022949 M -3.814697265625e-06 2.86102294921875e-06 L 57.99999618530273 2.86102294921875e-06 L 40.91553115844727 9.191891670227051 L -17.08446884155273 9.191891670227051 L -3.814697265625e-06 2.86102294921875e-06 Z" stroke="none" fill="#000"/>
      </g>
      <g id="Path_1309" data-name="Path 1309" transform="translate(564.03 437.582)" fill="#fff" stroke-linecap="round" stroke-linejoin="round">
        <path d="M 40.66358947753906 8.191891670227051 L -13.11523818969727 8.191891670227051 L 0.2519366443157196 1.000002861022949 L 54.03076553344727 1.000002861022949 L 40.66358947753906 8.191891670227051 Z" stroke="none"/>
        <path d="M 0.503875732421875 2.000002861022949 L -9.146007537841797 7.191891670227051 L 40.41165161132813 7.191891670227051 L 50.0615348815918 2.000002861022949 L 0.503875732421875 2.000002861022949 M -3.814697265625e-06 2.86102294921875e-06 L 57.99999618530273 2.86102294921875e-06 L 40.91553115844727 9.191891670227051 L -17.08446884155273 9.191891670227051 L -3.814697265625e-06 2.86102294921875e-06 Z" stroke="none" fill="#000"/>
      </g>
      <g id="Path_1313" data-name="Path 1313" transform="translate(529.945 452.597)" fill="#fff" stroke-linecap="round" stroke-linejoin="round">
        <path d="M 40.66358947753906 8.191891670227051 L -13.11523818969727 8.191891670227051 L 0.2519366443157196 1.000002861022949 L 54.03076553344727 1.000002861022949 L 40.66358947753906 8.191891670227051 Z" stroke="none"/>
        <path d="M 0.503875732421875 2.000002861022949 L -9.146007537841797 7.191891670227051 L 40.41165161132813 7.191891670227051 L 50.0615348815918 2.000002861022949 L 0.503875732421875 2.000002861022949 M -3.814697265625e-06 2.86102294921875e-06 L 57.99999618530273 2.86102294921875e-06 L 40.91553115844727 9.191891670227051 L -17.08446884155273 9.191891670227051 L -3.814697265625e-06 2.86102294921875e-06 Z" stroke="none" fill="#000"/>
      </g>
      <g id="Path_1307" data-name="Path 1307" transform="translate(676.03 422.531)" fill="#fff" stroke-linecap="round" stroke-linejoin="round">
        <path d="M 40.66358947753906 8.191891670227051 L -13.11523818969727 8.191891670227051 L 0.2519366443157196 1.000002861022949 L 54.03076553344727 1.000002861022949 L 40.66358947753906 8.191891670227051 Z" stroke="none"/>
        <path d="M 0.503875732421875 2.000002861022949 L -9.146007537841797 7.191891670227051 L 40.41165161132813 7.191891670227051 L 50.0615348815918 2.000002861022949 L 0.503875732421875 2.000002861022949 M -3.814697265625e-06 2.86102294921875e-06 L 57.99999618530273 2.86102294921875e-06 L 40.91553115844727 9.191891670227051 L -17.08446884155273 9.191891670227051 L -3.814697265625e-06 2.86102294921875e-06 Z" stroke="none" fill="#000"/>
      </g>
      <g id="Path_1308" data-name="Path 1308" transform="translate(642.03 437.582)" fill="#fff" stroke-linecap="round" stroke-linejoin="round">
        <path d="M 40.66358947753906 8.191891670227051 L -13.11523818969727 8.191891670227051 L 0.2519366443157196 1.000002861022949 L 54.03076553344727 1.000002861022949 L 40.66358947753906 8.191891670227051 Z" stroke="none"/>
        <path d="M 0.503875732421875 2.000002861022949 L -9.146007537841797 7.191891670227051 L 40.41165161132813 7.191891670227051 L 50.0615348815918 2.000002861022949 L 0.503875732421875 2.000002861022949 M -3.814697265625e-06 2.86102294921875e-06 L 57.99999618530273 2.86102294921875e-06 L 40.91553115844727 9.191891670227051 L -17.08446884155273 9.191891670227051 L -3.814697265625e-06 2.86102294921875e-06 Z" stroke="none" fill="#000"/>
      </g>
      <g id="Path_1363" data-name="Path 1363" transform="translate(720.03 437.582)" fill="#fff" stroke-linecap="round" stroke-linejoin="round">
        <path d="M 40.66358947753906 8.191891670227051 L -13.11523818969727 8.191891670227051 L 0.2519366443157196 1.000002861022949 L 54.03076553344727 1.000002861022949 L 40.66358947753906 8.191891670227051 Z" stroke="none"/>
        <path d="M 0.503875732421875 2.000002861022949 L -9.146007537841797 7.191891670227051 L 40.41165161132813 7.191891670227051 L 50.0615348815918 2.000002861022949 L 0.503875732421875 2.000002861022949 M -3.814697265625e-06 2.86102294921875e-06 L 57.99999618530273 2.86102294921875e-06 L 40.91553115844727 9.191891670227051 L -17.08446884155273 9.191891670227051 L -3.814697265625e-06 2.86102294921875e-06 Z" stroke="none" fill="#000"/>
      </g>
      <g id="Path_1312" data-name="Path 1312" transform="translate(607.945 452.597)" fill="#fff" stroke-linecap="round" stroke-linejoin="round">
        <path d="M 40.66358947753906 8.191891670227051 L -13.11523818969727 8.191891670227051 L 0.2519366443157196 1.000002861022949 L 54.03076553344727 1.000002861022949 L 40.66358947753906 8.191891670227051 Z" stroke="none"/>
        <path d="M 0.503875732421875 2.000002861022949 L -9.146007537841797 7.191891670227051 L 40.41165161132813 7.191891670227051 L 50.0615348815918 2.000002861022949 L 0.503875732421875 2.000002861022949 M -3.814697265625e-06 2.86102294921875e-06 L 57.99999618530273 2.86102294921875e-06 L 40.91553115844727 9.191891670227051 L -17.08446884155273 9.191891670227051 L -3.814697265625e-06 2.86102294921875e-06 Z" stroke="none" fill="#000"/>
      </g>
      <g id="Path_1316" data-name="Path 1316" transform="translate(685.945 452.597)" fill="#fff" stroke-linecap="round" stroke-linejoin="round">
        <path d="M 40.66358947753906 8.191891670227051 L -13.11523818969727 8.191891670227051 L 0.2519366443157196 1.000002861022949 L 54.03076553344727 1.000002861022949 L 40.66358947753906 8.191891670227051 Z" stroke="none"/>
        <path d="M 0.503875732421875 2.000002861022949 L -9.146007537841797 7.191891670227051 L 40.41165161132813 7.191891670227051 L 50.0615348815918 2.000002861022949 L 0.503875732421875 2.000002861022949 M -3.814697265625e-06 2.86102294921875e-06 L 57.99999618530273 2.86102294921875e-06 L 40.91553115844727 9.191891670227051 L -17.08446884155273 9.191891670227051 L -3.814697265625e-06 2.86102294921875e-06 Z" stroke="none" fill="#000"/>
      </g>
      <path id="Path_1364" data-name="Path 1364" d="M70.026-46.884a15.21,15.21,0,0,1,15.2,15.2,15.21,15.21,0,0,1-15.2,15.2,15.21,15.21,0,0,1-15.2-15.2A15.21,15.21,0,0,1,70.026-46.884Z" transform="translate(305.543 46.884)" fill="none" stroke="#000" stroke-linecap="round" stroke-linejoin="round" stroke-width="2"/>
      <path id="Path_1365" data-name="Path 1365" d="M97.011-57.383,76.183-78.21,55.356-57.383,76.183-36.555Z" transform="translate(-55.356 625.871)" fill="rgba(0,0,0,0)" stroke="#000" stroke-linecap="round" stroke-linejoin="round" stroke-width="2"/>
      <path id="Path_1366" data-name="Path 1366" d="M244.029-360.542a13.563,13.563,0,0,1,13.557,13.557,13.563,13.563,0,0,1-13.557,13.556,13.563,13.563,0,0,1-13.557-13.556A13.563,13.563,0,0,1,244.029-360.542Z" transform="translate(-20.701 533.903)" fill="rgba(0,0,0,0)" stroke="#000" stroke-linecap="round" stroke-linejoin="round" stroke-width="2"/>
      <path id="Path_1367" data-name="Path 1367" d="M462.395-46.884a20.838,20.838,0,0,1,20.828,20.828A20.838,20.838,0,0,1,462.395-5.228a20.838,20.838,0,0,1-20.828-20.828A20.838,20.838,0,0,1,462.395-46.884Z" transform="translate(-2.99 609.319)" fill="rgba(0,0,0,0)" stroke="#000" stroke-linecap="round" stroke-linejoin="round" stroke-width="2"/>
      <path id="Path_1368" data-name="Path 1368" d="M28.872-255.558,43.6-240.518l18.855-9.359L52.7-231.223l14.728,15.04-20.755-3.511L36.923-201.04l-3.075-20.824-20.755-3.51,18.855-9.36Z" transform="translate(50.679 258.703)" fill="#ffd525" stroke="#000" stroke-linecap="round" stroke-linejoin="round" stroke-width="2"/>
    </g>
    <path id="Path_1057" data-name="Path 1057" d="M-55.936,476.431l280.1-399.386,232.049,64.641L820.724-271.656" transform="translate(1124.555 371.656)" fill="none" stroke="#f53c37" stroke-linejoin="round" stroke-width="4"/>
    <path id="Path_1221" data-name="Path 1221" d="M-344.25,459.392,327.983,77.044l274.431,65.034,77.192-301.336,339.95-97.515" transform="translate(955.936 409.298)" fill="none" stroke="#000" stroke-linejoin="round" stroke-width="4"/>
  </g>
</svg>
