<svg xmlns="http://www.w3.org/2000/svg" width="368.442" height="275.847" viewBox="0 0 368.442 275.847">
  <g id="Group_85" data-name="Group 85" transform="translate(-1.121 379.551)">
    <path id="Path_1222" data-name="Path 1222" d="M246.168-378.551a86.7,86.7,0,0,1,86.663,86.663,86.7,86.7,0,0,1-86.663,86.663,86.7,86.7,0,0,1-86.663-86.663A86.7,86.7,0,0,1,246.168-378.551Z" transform="translate(-43.078 0)" fill="none" stroke="#000" stroke-linecap="round" stroke-linejoin="round" stroke-width="2" stroke-dasharray="9 15 0 0"/>
    <path id="Path_1223" data-name="Path 1223" d="M290.1-201.809,331.081-287.6l6.976,65.4L379.04-326.836l11.336,80.223,56.679-119.462" transform="translate(-78.823 -3.415)" fill="none" stroke="#000" stroke-linecap="round" stroke-linejoin="round" stroke-width="2"/>
    <g id="Group_84" data-name="Group 84" transform="translate(76.487 -350.782)">
      <g id="Group">
        <text id="SE" transform="translate(0 78)" font-size="82" font-family="CorporativeSlab-Bold, Corporative Slab" font-weight="700"><tspan x="0" y="0">SE</tspan></text>
        <text id="O" transform="translate(102.514 77)" font-size="81" font-family="CorporativeSlab-Bold, Corporative Slab" font-weight="700"><tspan x="0" y="0">O</tspan></text>
      </g>
    </g>
    <path id="Path_1224" data-name="Path 1224" d="M290.475-136.238l2.384,6.624s-70.663-25.969-116.055,4.448c0,0-64.111-49.84-116.991-4.448l4.113-8.952" transform="translate(-15.791 -62.914)" fill="none" stroke="#000" stroke-linecap="round" stroke-linejoin="round" stroke-width="2"/>
    <path id="Path_1225" data-name="Path 1225" d="M290.475-128.469l2.384,6.624s-70.663-30.514-116.055-.1c0,0-64.111-45.3-116.991.1l4.113-8.951" transform="translate(-15.791 -64.735)" fill="none" stroke="#000" stroke-linecap="round" stroke-linejoin="round" stroke-width="2"/>
    <path id="Path_1226" data-name="Path 1226" d="M290.475-120.809l2.384,6.624s-70.371-34.878-115.764-4.46c0,0-64.4-40.932-117.282,4.46l4.113-8.952" transform="translate(-15.791 -66.503)" fill="none" stroke="#000" stroke-linecap="round" stroke-linejoin="round" stroke-width="2"/>
    <path id="Path_1227" data-name="Path 1227" d="M290.475-113.615l2.384,6.624s-70.371-39.2-115.764-8.786c0,0-64.4-36.606-117.282,8.786l4.113-8.952" transform="translate(-15.791 -68.107)" fill="none" stroke="#000" stroke-linecap="round" stroke-linejoin="round" stroke-width="2"/>
    <path id="Path_1228" data-name="Path 1228" d="M35.083-199.682,18.6-216.162,2.121-199.682,18.6-183.2Z" transform="translate(0 -44.448)" fill="none" stroke="#f53c37" stroke-linecap="round" stroke-linejoin="round" stroke-width="2"/>
    <path id="Path_1229" data-name="Path 1229" d="M23.1-279.314H64.416" transform="translate(-5.741 -27.163)" fill="none" stroke="#000" stroke-linecap="round" stroke-linejoin="round" stroke-width="2"/>
    <path id="Path_1230" data-name="Path 1230" d="M23.1-266.348H64.416" transform="translate(-5.741 -30.712)" fill="none" stroke="#000" stroke-linecap="round" stroke-linejoin="round" stroke-width="2"/>
    <path id="Path_1231" data-name="Path 1231" d="M23.1-253.381H64.416" transform="translate(-5.741 -34.261)" fill="none" stroke="#000" stroke-linecap="round" stroke-linejoin="round" stroke-width="2"/>
    <path id="Path_1232" data-name="Path 1232" d="M81.965-46.884A16.489,16.489,0,0,1,98.446-30.4,16.489,16.489,0,0,1,81.965-13.922,16.488,16.488,0,0,1,65.485-30.4,16.489,16.489,0,0,1,81.965-46.884Z" transform="translate(-17.343 -90.782)" fill="none" stroke="#000" stroke-linecap="round" stroke-linejoin="round" stroke-width="2"/>
    <path id="Path_1233" data-name="Path 1233" d="M86.109-203.04l-11.777-1.636-6.557,9.517H82.488" transform="translate(-17.97 -47.592)" fill="none" stroke="#000" stroke-linecap="round" stroke-linejoin="round" stroke-width="2"/>
    <path id="Path_1234" data-name="Path 1234" d="M365.048-173.916l11.777-1.636,6.557,9.517H368.669" transform="translate(-99.338 -55.564)" fill="none" stroke="#000" stroke-linecap="round" stroke-linejoin="round" stroke-width="2"/>
    <path id="Path_1235" data-name="Path 1235" d="M374.766-149.167l4.289-1.636,2.388,9.517-4.295.18" transform="translate(-101.998 -62.338)" fill="none" stroke="#000" stroke-linecap="round" stroke-linejoin="round" stroke-width="2"/>
    <path id="Path_1236" data-name="Path 1236" d="M78.24-180.468,71.517-182.1l-3.743,9.517,7.414-.505" transform="translate(-17.97 -53.77)" fill="none" stroke="red" stroke-linecap="round" stroke-linejoin="round" stroke-width="2"/>
    <path id="Path_1237" data-name="Path 1237" d="M91.636-233.035s40.245-36.969,81.425-5.616c0,0,47.265-34.629,94.061,3.744l25.738,71.13S222.2-184.13,176.805-153.713c0,0-64.111-55.456-116.991-10.063Z" transform="translate(-15.791 -34.368)" fill="#fff" stroke="red" stroke-linecap="round" stroke-linejoin="round" stroke-width="2" fill-rule="evenodd"/>
    <path id="Path_1238" data-name="Path 1238" d="M319.408-220.527a89.431,89.431,0,0,0-33.434-8.3" transform="translate(-77.694 -40.982)" fill="none" stroke="#000" stroke-linecap="round" stroke-linejoin="round" stroke-width="2"/>
    <path id="Path_1239" data-name="Path 1239" d="M254.124-226.028a50.825,50.825,0,0,0-16.3,7.769" transform="translate(-64.515 -41.748)" fill="none" stroke="#000" stroke-linecap="round" stroke-linejoin="round" stroke-width="2"/>
    <path id="Path_1240" data-name="Path 1240" d="M108.679-220.527a87.335,87.335,0,0,1,8.767-4.149,103.542,103.542,0,0,1,12-4.15" transform="translate(-29.166 -40.982)" fill="none" stroke="#000" stroke-linecap="round" stroke-linejoin="round" stroke-width="2"/>
    <path id="Path_1241" data-name="Path 1241" d="M145.625-231.355a71.121,71.121,0,0,1,10.312-1.331,53.864,53.864,0,0,1,9.461.308,43.035,43.035,0,0,1,7.371,1.567,36.437,36.437,0,0,1,14.561,8.493" transform="translate(-39.279 -39.904)" fill="none" stroke="#000" stroke-linecap="round" stroke-linejoin="round" stroke-width="2"/>
    <path id="Path_1242" data-name="Path 1242" d="M327.808-200.666a86.59,86.59,0,0,0-15.423-5.895,89.787,89.787,0,0,0-10.284-2.289" transform="translate(-82.108 -46.45)" fill="none" stroke="#000" stroke-linecap="round" stroke-linejoin="round" stroke-width="2"/>
    <path id="Path_1243" data-name="Path 1243" d="M276.237-210.149a63.646,63.646,0,0,0-10.087.456,55.29,55.29,0,0,0-6.752,1.286,49.367,49.367,0,0,0-16.694,7.771" transform="translate(-65.851 -46.084)" fill="none" stroke="#000" stroke-linecap="round" stroke-linejoin="round" stroke-width="2"/>
    <path id="Path_1244" data-name="Path 1244" d="M103.375-204.08s39.318-20.855,68.847.4" transform="translate(-27.715 -45.25)" fill="none" stroke="#000" stroke-linecap="round" stroke-linejoin="round" stroke-width="2"/>
    <path id="Path_1245" data-name="Path 1245" d="M315.536-180.674s-43.3-18.862-72.832,2.388" transform="translate(-65.851 -52.049)" fill="none" stroke="#000" stroke-linecap="round" stroke-linejoin="round" stroke-width="2"/>
    <path id="Path_1246" data-name="Path 1246" d="M97.887-183.533a104.908,104.908,0,0,1,18.993-5.675c3.077-.628,6.412-1.171,9.916-1.54" transform="translate(-26.213 -51.404)" fill="none" stroke="#000" stroke-linecap="round" stroke-linejoin="round" stroke-width="2"/>
    <path id="Path_1247" data-name="Path 1247" d="M153.323-191.4a69.149,69.149,0,0,1,12.757,1.471,52.458,52.458,0,0,1,19.814,8.609" transform="translate(-41.386 -51.224)" fill="none" stroke="#000" stroke-linecap="round" stroke-linejoin="round" stroke-width="2"/>
    <path id="Path_1248" data-name="Path 1248" d="M320.44-159.775s-44.853-14.532-74.383,6.719" transform="translate(-66.769 -58.555)" fill="none" stroke="#000" stroke-linecap="round" stroke-linejoin="round" stroke-width="2"/>
    <path id="Path_1249" data-name="Path 1249" d="M93.236-164.031s44.852-14.532,74.383,6.719" transform="translate(-24.939 -57.39)" fill="none" stroke="#000" stroke-linecap="round" stroke-linejoin="round" stroke-width="2"/>
    <path id="Path_1250" data-name="Path 1250" d="M215.74-233.247l3.744,84.938" transform="translate(-58.47 -39.772)" fill="none" stroke="red" stroke-linecap="round" stroke-linejoin="round" stroke-width="2"/>
    <path id="Path_1251" data-name="Path 1251" d="M289.174-260.436l-10.926-.253c5.865-2.775,8.161-8.167,3.191-18.887l13.31-.621C296.764-268.768,294.38-262.838,289.174-260.436Z" transform="translate(-75.58 -26.921)" fill="#fff" stroke="red" stroke-linecap="round" stroke-linejoin="round" stroke-width="2" fill-rule="evenodd"/>
    <path id="Path_1252" data-name="Path 1252" d="M41.133-156.106,11.9-103.45H313.287L293.8-148.8" transform="translate(-2.678 -60.886)" fill="none" stroke="#000" stroke-linecap="round" stroke-linejoin="round" stroke-width="2"/>
    <path id="Path_1253" data-name="Path 1253" d="M11.9-83.606v9.7H313.287v-9.7" transform="translate(-2.678 -80.731)" fill="none" stroke="#000" stroke-linecap="round" stroke-linejoin="round" stroke-width="2"/>
    <path id="Path_1254" data-name="Path 1254" d="M189.558-105.989l6.253,2.347-5.777,3.024Z" transform="translate(-51.304 -74.604)" fill="red" fill-rule="evenodd"/>
    <path id="Path_1255" data-name="Path 1255" d="M151.258-107.652,75-103.371l.5,8.877,76.255-4.281,12.7-5.061Z" transform="translate(-19.949 -74.149)" fill="none" stroke="#000" stroke-linecap="round" stroke-linejoin="round" stroke-width="2"/>
    <path id="Path_1256" data-name="Path 1256" d="M180-107.652l.457,8.145" transform="translate(-48.687 -74.149)" fill="none" stroke="#000" stroke-linecap="round" stroke-linejoin="round" stroke-width="2"/>
    <path id="Path_1257" data-name="Path 1257" d="M80.33-101.369l.457,8.145" transform="translate(-21.407 -75.869)" fill="none" stroke="#000" stroke-linecap="round" stroke-linejoin="round" stroke-width="2"/>
    <path id="Path_1258" data-name="Path 1258" d="M240.7-231.125c-4.462,1.709-10.408,5.327-12.364,9.781a12.543,12.543,0,0,0-1.065,3.068,3.154,3.154,0,0,0,.517,2.433,5.3,5.3,0,0,0,4.605,1.85c2.474-.062,5.284-1.071,7.086-1.561,5.644-1.533,12.205-3.135,17.078-6.545a11.025,11.025,0,0,0,2.132-1.827c1.381-1.765,1.7-3.254,1.408-4.465a4.872,4.872,0,0,0-2.556-2.971,18.913,18.913,0,0,0-8.332-1.872,22.9,22.9,0,0,0-8.041,1.481A.726.726,0,0,0,240.7-231.125Zm5.481.242a1.448,1.448,0,0,0-.226-.028,12.476,12.476,0,0,0-4.278.972c-4.188,1.511-10.127,4.886-12.011,9.179a14.261,14.261,0,0,0-.867,2.243,2.071,2.071,0,0,0,.145,1.793,3.9,3.9,0,0,0,3.414,1.278c2.356-.058,5.027-1.044,6.741-1.51,5.491-1.492,11.886-3.016,16.626-6.334a9.324,9.324,0,0,0,1.822-1.532c1.01-1.291,1.352-2.345,1.139-3.231a3.456,3.456,0,0,0-1.857-2.044,17.269,17.269,0,0,0-7.621-1.685q-.717,0-1.434.049a1,1,0,0,1,.254.6c.018.306-.11.781-.832,1.194a.726.726,0,0,1-.991-.269A.726.726,0,0,1,246.178-230.883Z" transform="translate(-61.613 -39.775)" fill="red" fill-rule="evenodd"/>
    <path id="Path_1259" data-name="Path 1259" d="M427.812-103.973l-12.534-8.343-11.808,9.343,4.061-14.5L395-125.815l15.044-.618,4.061-14.5,5.237,14.117,15.044-.617-11.808,9.342Z" transform="translate(-107.536 -65.04)" fill="#fff" stroke="#000" stroke-linecap="round" stroke-linejoin="round" stroke-width="2" fill-rule="evenodd"/>
  </g>
</svg>
