<svg xmlns="http://www.w3.org/2000/svg" xmlns:xlink="http://www.w3.org/1999/xlink" width="411.991" height="418.385" viewBox="0 0 411.991 418.385">
  <defs>
    <clipPath id="clip-path">
      <rect id="Rectangle_142" data-name="Rectangle 142" width="29.233" height="29.915" fill="none"/>
    </clipPath>
  </defs>
  <g id="Group_189" data-name="Group 189" transform="translate(-973 -5158.58)">
    <path id="Path_1446" data-name="Path 1446" d="M290.1-152.233,343.45-263.912l9.081,85.136,53.352-136.217L420.64-210.559l73.784-155.516" transform="translate(799.902 5657.686)" fill="none" stroke="#000" stroke-linecap="round" stroke-linejoin="round" stroke-width="2"/>
    <g id="Group" transform="matrix(0.966, 0.259, -0.259, 0.966, 1127.204, 5158.58)">
      <text id="No.1" transform="translate(0 85)" fill="#f63d37" font-size="89" font-family="CorporativeSlab-Bold, Corporative Slab" font-weight="700"><tspan x="0" y="0">No.1</tspan></text>
    </g>
    <path id="Path_1455" data-name="Path 1455" d="M254.427-378.551a94.967,94.967,0,0,1,94.921,94.922,94.967,94.967,0,0,1-94.921,94.922,94.967,94.967,0,0,1-94.922-94.922A94.967,94.967,0,0,1,254.427-378.551Z" transform="translate(998.981 5764.672)" fill="none" stroke="#000" stroke-linecap="round" stroke-linejoin="round" stroke-width="2" stroke-dasharray="9 15 0 0"/>
    <path id="Path_1438" data-name="Path 1438" d="M156.482-208.259H490.774v-26.005H156.482Z" transform="translate(817.518 5564.719)" fill="#f53c37" fill-rule="evenodd"/>
    <path id="Path_1439" data-name="Path 1439" d="M156.482-184.455H464.873v-19.689H156.482Z" transform="translate(817.518 5582.18)" fill="#fff" stroke="#000" stroke-linecap="round" stroke-linejoin="round" stroke-width="2" fill-rule="evenodd"/>
    <path id="Path_1440" data-name="Path 1440" d="M156.482-245.815H281.216V-265.5H156.482Z" transform="translate(859.409 5546.605)" fill="rgba(0,0,0,0)" stroke="#000" stroke-linecap="round" stroke-linejoin="round" stroke-width="2"/>
    <path id="Path_1441" data-name="Path 1441" d="M156.482-154.335H464.873v-19.689H156.482Z" transform="translate(817.518 5599.641)" fill="#fff" stroke="#000" stroke-linecap="round" stroke-linejoin="round" stroke-width="2" fill-rule="evenodd"/>
    <path id="Path_1442" data-name="Path 1442" d="M383.429-228.033l15.813,16.548" transform="translate(949.087 5568.33)" fill="rgba(0,0,0,0)" stroke="#000" stroke-linecap="round" stroke-linejoin="round" stroke-width="2"/>
    <path id="Path_1443" data-name="Path 1443" d="M434.9-221.96H383.429l15.813-16.548" transform="translate(949.087 5562.257)" fill="rgba(0,0,0,0)" stroke="#000" stroke-linecap="round" stroke-linejoin="round" stroke-width="2"/>
    <g id="Group_181" data-name="Group 181" transform="translate(41.891)">
      <path id="Path_1444" data-name="Path 1444" d="M251.519-264.665a6.762,6.762,0,0,1,6.758,6.758,6.761,6.761,0,0,1-6.758,6.758,6.762,6.762,0,0,1-6.76-6.758A6.762,6.762,0,0,1,251.519-264.665Z" transform="translate(868.696 5547.093)" fill="rgba(0,0,0,0)" stroke="#000" stroke-linecap="round" stroke-linejoin="round" stroke-width="2"/>
      <path id="Path_1445" data-name="Path 1445" d="M252.153-257.456l6.975,6.974" transform="translate(872.981 5551.273)" fill="rgba(0,0,0,0)" stroke="#000" stroke-linecap="round" stroke-linejoin="round" stroke-width="2"/>
    </g>
    <g id="Group_187" data-name="Group 187" transform="translate(974 5496.705)">
      <g id="Group_186" data-name="Group 186" transform="translate(0 -220.717)">
        <g id="Group_185" data-name="Group 185">
          <g id="Group_184" data-name="Group 184" style="isolation: isolate">
            <g id="Group_183" data-name="Group 183">
              <g id="Group_182" data-name="Group 182" clip-path="url(#clip-path)">
                <path id="Path_1447" data-name="Path 1447" d="M124.3-127.731a12.771,12.771,0,0,0-.315-3.047h-14v5.532h8.215a7.284,7.284,0,0,1-3.047,4.836l-.028.185,4.425,3.428.307.031a14.574,14.574,0,0,0,4.439-10.964" transform="translate(-95.083 142.968)" fill="#4185f4"/>
                <path id="Path_1448" data-name="Path 1448" d="M25.058-77.028a14.208,14.208,0,0,0,9.871-3.611l-4.7-3.644a8.822,8.822,0,0,1-5.167,1.491,8.974,8.974,0,0,1-8.48-6.194l-.175.015-4.6,3.561-.06.167a14.9,14.9,0,0,0,13.316,8.215" transform="translate(-10.151 106.84)" fill="#33a753"/>
                <path id="Path_1449" data-name="Path 1449" d="M6.437-150.93a9.177,9.177,0,0,1-.5-2.948,9.643,9.643,0,0,1,.48-2.948l-.008-.2-4.659-3.618-.152.073a14.92,14.92,0,0,0-1.59,6.691,14.919,14.919,0,0,0,1.59,6.691l4.836-3.743" transform="translate(-0.01 168.784)" fill="#fabc04"/>
                <path id="Path_1450" data-name="Path 1450" d="M25.058-214.954a8.261,8.261,0,0,1,5.764,2.219l4.207-4.108a14.322,14.322,0,0,0-9.97-3.876A14.9,14.9,0,0,0,11.742-212.5l4.82,3.743a9.01,9.01,0,0,1,8.5-6.194" transform="translate(-10.151 220.718)" fill="#eb4234"/>
              </g>
            </g>
          </g>
        </g>
      </g>
    </g>
    <path id="Path_1451" data-name="Path 1451" d="M81.965-46.884A16.489,16.489,0,0,1,98.446-30.4,16.489,16.489,0,0,1,81.965-13.922,16.488,16.488,0,0,1,65.485-30.4,16.489,16.489,0,0,1,81.965-46.884Z" transform="translate(1140.516 5552.336)" fill="#ffd525"/>
    <g id="Group_188" data-name="Group 188">
      <path id="Path_1452" data-name="Path 1452" d="M23.1-279.314H64.416" transform="translate(959.477 5466.334)" fill="none" stroke="#000" stroke-linecap="round" stroke-linejoin="round" stroke-width="2"/>
      <path id="Path_1453" data-name="Path 1453" d="M23.1-266.348H64.416" transform="translate(959.477 5462.785)" fill="none" stroke="#000" stroke-linecap="round" stroke-linejoin="round" stroke-width="2"/>
      <path id="Path_1454" data-name="Path 1454" d="M23.1-253.381H64.416" transform="translate(959.477 5459.236)" fill="none" stroke="#000" stroke-linecap="round" stroke-linejoin="round" stroke-width="2"/>
    </g>
  </g>
</svg>
