<svg xmlns="http://www.w3.org/2000/svg" width="210.399" height="165.603" viewBox="0 0 210.399 165.603">
  <g id="Group_19" data-name="Group 19" transform="translate(-12.093 434.257)">
    <path id="Path_1006" data-name="Path 1006" d="M333.322-345.184l21.891-45.822,3.726,34.932,21.891-55.891,6.055,42.85,30.275-63.809" transform="translate(-195.999)" fill="rgba(0,0,0,0)" stroke="#000" stroke-linecap="round" stroke-linejoin="round" stroke-width="2"/>
    <path id="Path_1007" data-name="Path 1007" d="M126.228-202.3,96.849-187.256H271.035L248.486-202.3V-287.18H126.228Z" transform="translate(-69.246 -89.205)" fill="#fff" stroke="#000" stroke-linecap="round" stroke-linejoin="round" stroke-width="2" fill-rule="evenodd"/>
    <path id="Path_1008" data-name="Path 1008" d="M136.4-200.083H250.767v-77.182H136.4Z" transform="translate(-75.473 -95.273)" fill="#fff" stroke="#000" stroke-linecap="round" stroke-linejoin="round" stroke-width="2" fill-rule="evenodd"/>
    <path id="Path_1009" data-name="Path 1009" d="M156.482-227.878h82.093v-6.386H156.482Z" transform="translate(-87.763 -121.592)" fill="#f53c37" fill-rule="evenodd"/>
    <path id="Path_1010" data-name="Path 1010" d="M156.482-199.309h75.732v-4.835H156.482Z" transform="translate(-87.763 -140.027)" fill="#fff" stroke="#000" stroke-linecap="round" stroke-linejoin="round" stroke-width="2" fill-rule="evenodd"/>
    <path id="Path_1011" data-name="Path 1011" d="M156.482-260.669h30.631V-265.5H156.482Z" transform="translate(-87.763 -102.471)" fill="rgba(0,0,0,0)" stroke="#000" stroke-linecap="round" stroke-linejoin="round" stroke-width="2"/>
    <path id="Path_1012" data-name="Path 1012" d="M156.482-169.189h75.732v-4.835H156.482Z" transform="translate(-87.763 -158.463)" fill="#fff" stroke="#000" stroke-linecap="round" stroke-linejoin="round" stroke-width="2" fill-rule="evenodd"/>
    <path id="Path_1013" data-name="Path 1013" d="M156.482-139.069h75.732V-143.9H156.482Z" transform="translate(-87.763 -176.898)" fill="#fff" stroke="#000" stroke-linecap="round" stroke-linejoin="round" stroke-width="2" fill-rule="evenodd"/>
    <path id="Path_1014" data-name="Path 1014" d="M156.482-108.949h75.732v-4.835H156.482Z" transform="translate(-87.763 -195.333)" fill="#fff" stroke="#000" stroke-linecap="round" stroke-linejoin="round" stroke-width="2" fill-rule="evenodd"/>
    <path id="Path_1015" data-name="Path 1015" d="M383.429-228.033l3.883,4.064" transform="translate(-226.668 -125.406)" fill="rgba(0,0,0,0)" stroke="#000" stroke-linecap="round" stroke-linejoin="round" stroke-width="2"/>
    <path id="Path_1016" data-name="Path 1016" d="M396.07-234.444H383.429l3.883-4.064" transform="translate(-226.668 -118.995)" fill="rgba(0,0,0,0)" stroke="#000" stroke-linecap="round" stroke-linejoin="round" stroke-width="2"/>
    <path id="Path_1017" data-name="Path 1017" d="M246.419-264.665a1.66,1.66,0,0,1,1.66,1.66,1.66,1.66,0,0,1-1.66,1.66,1.661,1.661,0,0,1-1.66-1.66A1.661,1.661,0,0,1,246.419-264.665Z" transform="translate(-141.794 -102.985)" fill="rgba(0,0,0,0)" stroke="#000" stroke-linecap="round" stroke-linejoin="round" stroke-width="2"/>
    <path id="Path_1018" data-name="Path 1018" d="M252.153-257.456l1.713,1.713" transform="translate(-146.319 -107.397)" fill="rgba(0,0,0,0)" stroke="#000" stroke-linecap="round" stroke-linejoin="round" stroke-width="2"/>
    <path id="Path_1019" data-name="Path 1019" d="M72.962-69.407l-8.8-8.8-8.8,8.8,8.8,8.8Z" transform="translate(-32.867 -239.71)" fill="rgba(0,0,0,0)" stroke="#000" stroke-linecap="round" stroke-linejoin="round" stroke-width="2"/>
    <path id="Path_1020" data-name="Path 1020" d="M236.2-360.542a5.732,5.732,0,0,1,5.73,5.73,5.732,5.732,0,0,1-5.73,5.729,5.733,5.733,0,0,1-5.73-5.729A5.733,5.733,0,0,1,236.2-360.542Z" transform="translate(-133.049 -44.303)" fill="rgba(0,0,0,0)" stroke="#000" stroke-linecap="round" stroke-linejoin="round" stroke-width="2"/>
    <path id="Path_1021" data-name="Path 1021" d="M72.294-345.772h22.07" transform="translate(-36.235 -53.343)" fill="rgba(0,0,0,0)" stroke="#000" stroke-linecap="round" stroke-linejoin="round" stroke-width="2"/>
    <path id="Path_1022" data-name="Path 1022" d="M72.294-332.806h22.07" transform="translate(-36.235 -61.279)" fill="rgba(0,0,0,0)" stroke="#000" stroke-linecap="round" stroke-linejoin="round" stroke-width="2"/>
    <path id="Path_1023" data-name="Path 1023" d="M72.294-319.839h22.07" transform="translate(-36.235 -69.215)" fill="rgba(0,0,0,0)" stroke="#000" stroke-linecap="round" stroke-linejoin="round" stroke-width="2"/>
    <path id="Path_1024" data-name="Path 1024" d="M450.37-46.884a8.807,8.807,0,0,1,8.8,8.8,8.807,8.807,0,0,1-8.8,8.8,8.807,8.807,0,0,1-8.8-8.8A8.807,8.807,0,0,1,450.37-46.884Z" transform="translate(-249.252 -266.079)" fill="rgba(0,0,0,0)" stroke="#000" stroke-linecap="round" stroke-linejoin="round" stroke-width="2"/>
    <path id="Path_1025" data-name="Path 1025" d="M19.762-255.558l6.225,6.357,7.969-3.956-4.122,7.884,6.225,6.357L27.287-240.4l-4.122,7.885-1.3-8.8L13.093-242.8l7.969-3.956Z" transform="translate(0 -108.559)" fill="#ffd525" stroke="#000" stroke-linecap="round" stroke-linejoin="round" stroke-width="2"/>
    <path id="Path_1026" data-name="Path 1026" d="M326.251-365.408l-2.363,5.754,4.743,4.025-6.2-.469-2.363,5.754-1.471-6.044-6.2-.469,5.294-3.266-1.471-6.044,4.742,4.025Z" transform="translate(-183.189 -40.86)" fill="rgba(0,0,0,0)" stroke="#000" stroke-linecap="round" stroke-linejoin="round" stroke-width="2"/>
    <path id="Path_1027" data-name="Path 1027" d="M166.646-393.557l3.516,5.131,5.967-1.759-3.793,4.93,3.516,5.131-5.861-2.084-3.793,4.93.171-6.218-5.861-2.084,5.967-1.759Z" transform="translate(-90.227 -24.096)" fill="rgba(0,0,0,0)" stroke="#000" stroke-linecap="round" stroke-linejoin="round" stroke-width="2"/>
    <path id="Path_1219" data-name="Path 1219" d="M97.423-290.9H220.041" transform="translate(-40.8 -1)" fill="none" stroke="#000" stroke-width="2"/>
    <line id="Line_36" data-name="Line 36" x2="13" transform="translate(56.804 -287.766)" fill="none" stroke="#000" stroke-width="2"/>
    <line id="Line_47" data-name="Line 47" x2="13" transform="translate(67.83 -282.128)" fill="none" stroke="#000" stroke-width="2"/>
    <line id="Line_48" data-name="Line 48" x2="13" transform="translate(47.094 -282.128)" fill="none" stroke="#000" stroke-width="2"/>
    <line id="Line_37" data-name="Line 37" x2="13" transform="translate(78.445 -287.766)" fill="none" stroke="#000" stroke-width="2"/>
    <line id="Line_46" data-name="Line 46" x2="13" transform="translate(88.566 -282.128)" fill="none" stroke="#000" stroke-width="2"/>
    <line id="Line_38" data-name="Line 38" x2="13" transform="translate(100.086 -287.766)" fill="none" stroke="#000" stroke-width="2"/>
    <line id="Line_45" data-name="Line 45" x2="13" transform="translate(109.302 -282.128)" fill="none" stroke="#000" stroke-width="2"/>
    <line id="Line_39" data-name="Line 39" x2="13" transform="translate(121.727 -287.766)" fill="none" stroke="#000" stroke-width="2"/>
    <line id="Line_44" data-name="Line 44" x2="13" transform="translate(130.037 -282.128)" fill="none" stroke="#000" stroke-width="2"/>
    <line id="Line_40" data-name="Line 40" x2="13" transform="translate(143.368 -287.766)" fill="none" stroke="#000" stroke-width="2"/>
    <line id="Line_43" data-name="Line 43" x2="13" transform="translate(150.773 -282.128)" fill="none" stroke="#000" stroke-width="2"/>
    <line id="Line_41" data-name="Line 41" x2="13" transform="translate(165.009 -287.766)" fill="none" stroke="#000" stroke-width="2"/>
    <line id="Line_42" data-name="Line 42" x2="13" transform="translate(171.509 -282.128)" fill="none" stroke="#000" stroke-width="2"/>
    <path id="Path_1220" data-name="Path 1220" d="M200.863-276.46v6.806H26.677v-7.1" transform="translate(0.926)" fill="none" stroke="#000" stroke-width="2"/>
  </g>
</svg>
