<svg xmlns="http://www.w3.org/2000/svg" width="272.726" height="218.422" viewBox="0 0 272.726 218.422">
  <g id="Group_178" data-name="Group 178" transform="translate(-0.621 365.019)">
    <path id="Path_1415" data-name="Path 1415" d="M180.324-240.147a71.347,71.347,0,0,1,71.314,71.313A71.347,71.347,0,0,1,180.324-97.52a71.347,71.347,0,0,1-71.313-71.314A71.347,71.347,0,0,1,180.324-240.147Z" transform="translate(-43.007 -50.576)" fill="none" stroke="#000" stroke-linecap="round" stroke-linejoin="round" stroke-width="3" stroke-dasharray="9 15 0 0"/>
    <path id="Path_1416" data-name="Path 1416" d="M29.245-126.443,15.683-140.005,2.121-126.443l13.562,13.562Z" transform="translate(0 -90.869)" fill="none" stroke="#f53c37" stroke-linecap="round" stroke-linejoin="round" stroke-width="3"/>
    <path id="Path_1417" data-name="Path 1417" d="M236.051-68.226h34" transform="translate(-94.122 -119.749)" fill="none" stroke="#000" stroke-linecap="round" stroke-linejoin="round" stroke-width="3"/>
    <path id="Path_1418" data-name="Path 1418" d="M236.051-55.26h34" transform="translate(-94.122 -124.966)" fill="none" stroke="#000" stroke-linecap="round" stroke-linejoin="round" stroke-width="3"/>
    <path id="Path_1419" data-name="Path 1419" d="M236.051-42.293h34" transform="translate(-94.122 -130.183)" fill="none" stroke="#000" stroke-linecap="round" stroke-linejoin="round" stroke-width="3"/>
    <path id="Path_1420" data-name="Path 1420" d="M403.673-123.011a13.568,13.568,0,0,1,13.561,13.561,13.568,13.568,0,0,1-13.561,13.562,13.568,13.568,0,0,1-13.562-13.562A13.568,13.568,0,0,1,403.673-123.011Z" transform="translate(-156.109 -97.706)" fill="none" stroke="#000" stroke-linecap="round" stroke-linejoin="round" stroke-width="3"/>
    <g id="Group_175" data-name="Group 175" transform="translate(81.989 -317.386) rotate(-26.171)">
      <g id="Group_174" data-name="Group 174" transform="translate(0 0)">
        <text id="_10" data-name="10" transform="translate(0 89)" font-size="93" font-family="CorporativeSlab-Black, Corporative Slab" font-weight="800"><tspan x="0" y="0">10</tspan></text>
      </g>
    </g>
    <path id="Path_1421" data-name="Path 1421" d="M51.623-256.076h64.411v60.735L92.178-218.357H51.623Z" transform="translate(-19.917 -44.167)" fill="#fff" stroke="#212829" stroke-miterlimit="10" stroke-width="3"/>
    <path id="Path_1422" data-name="Path 1422" d="M329.76-220.882H265.349v60.735L289.2-183.163H329.76Z" transform="translate(-105.91 -58.328)" fill="#fff" stroke="#212829" stroke-miterlimit="10" stroke-width="3"/>
    <path id="Path_1423" data-name="Path 1423" d="M137.791-131.936H73.38V-71.2L97.236-94.217h40.555Z" transform="translate(-28.671 -94.115)" fill="#fff" stroke="#212829" stroke-miterlimit="10" stroke-width="3"/>
    <path id="Path_1424" data-name="Path 1424" d="M63.6-214H94.611" transform="translate(-24.735 -61.096)" fill="none" stroke="red" stroke-miterlimit="10" stroke-width="3"/>
    <path id="Path_1425" data-name="Path 1425" d="M328.342-178.806H309.257" transform="translate(-123.577 -75.257)" fill="none" stroke="red" stroke-miterlimit="10" stroke-width="3"/>
    <path id="Path_1426" data-name="Path 1426" d="M147.081-89.861H117.288" transform="translate(-46.338 -111.044)" fill="none" stroke="red" stroke-miterlimit="10" stroke-width="3"/>
    <path id="Path_1427" data-name="Path 1427" d="M123.472-214h14.314" transform="translate(-48.826 -61.096)" fill="none" stroke="red" stroke-miterlimit="10" stroke-width="3"/>
    <path id="Path_1428" data-name="Path 1428" d="M291.637-178.806H277.324" transform="translate(-110.729 -75.257)" fill="none" stroke="red" stroke-miterlimit="10" stroke-width="3"/>
    <path id="Path_1429" data-name="Path 1429" d="M99.668-89.861H85.355" transform="translate(-33.489 -111.044)" fill="none" stroke="red" stroke-miterlimit="10" stroke-width="3"/>
    <path id="Path_1430" data-name="Path 1430" d="M63.6-235.038h38.169" transform="translate(-24.735 -52.632)" fill="none" stroke="red" stroke-miterlimit="10" stroke-width="3"/>
    <path id="Path_1431" data-name="Path 1431" d="M325.054-199.844h-47.73" transform="translate(-110.729 -66.792)" fill="none" stroke="red" stroke-miterlimit="10" stroke-width="3"/>
    <path id="Path_1432" data-name="Path 1432" d="M110.4-110.9H85.355" transform="translate(-33.489 -102.58)" fill="none" stroke="red" stroke-miterlimit="10" stroke-width="3"/>
    <path id="Path_1433" data-name="Path 1433" d="M152.14-110.9H137.826" transform="translate(-54.601 -102.58)" fill="none" stroke="red" stroke-miterlimit="10" stroke-width="3"/>
    <g id="Group_177" data-name="Group 177" transform="translate(219.573 -361.006) rotate(5.242)">
      <g id="Group_176" data-name="Group 176" transform="translate(0 0)">
        <text id="x" transform="translate(0 89)" fill="#f53c37" font-size="93" font-family="CorporativeSlab-Black, Corporative Slab" font-weight="800"><tspan x="0" y="0">x</tspan></text>
      </g>
    </g>
  </g>
</svg>
