<svg xmlns="http://www.w3.org/2000/svg" xmlns:xlink="http://www.w3.org/1999/xlink" width="388.781" height="500.302" viewBox="0 0 388.781 500.302">
  <defs>
    <clipPath id="clip-path">
      <rect id="Rectangle_142" data-name="Rectangle 142" width="62.488" height="63.946" fill="none"/>
    </clipPath>
  </defs>
  <g id="Group_195" data-name="Group 195" transform="translate(-973 -6141.194)">
    <g id="Group_190" data-name="Group 190" transform="translate(1119.337 6573.403)">
      <g id="Group_186" data-name="Group 186" transform="translate(0 -220.717)">
        <g id="Group_185" data-name="Group 185">
          <g id="Group_184" data-name="Group 184" style="isolation: isolate">
            <g id="Group_183" data-name="Group 183">
              <g id="Group_182" data-name="Group 182" clip-path="url(#clip-path)">
                <path id="Path_1447" data-name="Path 1447" d="M140.579-124.264a27.3,27.3,0,0,0-.673-6.514H109.991v11.825h17.56a15.571,15.571,0,0,1-6.514,10.338l-.059.4,9.459,7.328.655.065c6.018-5.558,9.488-13.737,9.488-23.437" transform="translate(-78.124 156.836)" fill="#4185f4"/>
                <path id="Path_1448" data-name="Path 1448" d="M40.206-63.425c8.6,0,15.825-2.832,21.1-7.718L51.252-78.932a18.858,18.858,0,0,1-11.046,3.186A19.182,19.182,0,0,1,22.08-88.986l-.374.032-9.835,7.612-.129.358a31.84,31.84,0,0,0,28.464,17.56" transform="translate(-8.34 127.151)" fill="#33a753"/>
                <path id="Path_1449" data-name="Path 1449" d="M13.748-139.882a19.616,19.616,0,0,1-1.062-6.3,20.614,20.614,0,0,1,1.027-6.3l-.018-.422-9.959-7.734-.326.155a31.892,31.892,0,0,0-3.4,14.3,31.892,31.892,0,0,0,3.4,14.3l10.338-8" transform="translate(-0.008 178.047)" fill="#fabc04"/>
                <path id="Path_1450" data-name="Path 1450" d="M40.206-208.4a17.659,17.659,0,0,1,12.32,4.744l8.993-8.78a30.614,30.614,0,0,0-21.313-8.284,31.84,31.84,0,0,0-28.464,17.56l10.3,8A19.26,19.26,0,0,1,40.206-208.4" transform="translate(-8.34 220.717)" fill="#eb4234"/>
              </g>
            </g>
          </g>
        </g>
      </g>
    </g>
    <path id="Path_1456" data-name="Path 1456" d="M-5231,11096.024l-75.22-13.207,47.749-83.307-58.529,17.271-52.208-134.1-63.792,73.147-10.371-43.685L-5549,11118.375l75.151,76.194-75.151-76.194,116-162.55-132.283,79.243,91.434,159.5-43.685-184.9,74.163-97.529,74.163-29.463,4.064,103.626,106.673,13.207-47.749,132.071,75.22-35.558-52.87,78.227-115.816-42.669-74.163,62.987,167.629-62.987Z" transform="translate(6546 -4671)" fill="none" stroke="#000" stroke-width="2"/>
    <circle id="Ellipse_86" data-name="Ellipse 86" cx="7" cy="7" r="7" transform="translate(1095 6236)"/>
    <circle id="Ellipse_87" data-name="Ellipse 87" cx="7" cy="7" r="7" transform="translate(1168 6205)"/>
    <circle id="Ellipse_88" data-name="Ellipse 88" cx="7" cy="7" r="7" transform="translate(1279 6321)"/>
    <circle id="Ellipse_89" data-name="Ellipse 89" cx="7" cy="7" r="7" transform="translate(1308 6418)"/>
    <circle id="Ellipse_90" data-name="Ellipse 90" cx="7" cy="7" r="7" transform="translate(1234 6404)"/>
    <circle id="Ellipse_91" data-name="Ellipse 91" cx="7" cy="7" r="7" transform="translate(1185 6470)"/>
    <circle id="Ellipse_92" data-name="Ellipse 92" cx="7" cy="7" r="7" transform="translate(1065 6514)"/>
    <circle id="Ellipse_93" data-name="Ellipse 93" cx="7" cy="7" r="7" transform="translate(991 6442)"/>
    <circle id="Ellipse_94" data-name="Ellipse 94" cx="7" cy="7" r="7" transform="translate(974 6358)"/>
    <circle id="Ellipse_95" data-name="Ellipse 95" cx="7" cy="7" r="7" transform="translate(1023 6330)"/>
    <circle id="Ellipse_96" data-name="Ellipse 96" cx="7" cy="7" r="7" transform="translate(1175 6309)"/>
    <path id="Path_1457" data-name="Path 1457" d="M246.168-378.551a86.7,86.7,0,0,1,86.663,86.663,86.7,86.7,0,0,1-86.663,86.663,86.7,86.7,0,0,1-86.663-86.663A86.7,86.7,0,0,1,246.168-378.551Z" transform="translate(873.169 6845.721)" fill="none" stroke="#000" stroke-linecap="round" stroke-linejoin="round" stroke-width="2" stroke-dasharray="9 15 0 0"/>
    <path id="Path_1458" data-name="Path 1458" d="M290.1-201.809,331.081-287.6l6.976,65.4L379.04-326.836l11.336,80.223,56.679-119.462" transform="translate(874.946 6508.602)" fill="none" stroke="#f63d37" stroke-linecap="round" stroke-linejoin="round" stroke-width="2"/>
    <path id="Path_1459" data-name="Path 1459" d="M35.083-199.682,18.6-216.162,2.121-199.682,18.6-183.2Z" transform="translate(971.879 6492.201)" fill="none" stroke="#f53c37" stroke-linecap="round" stroke-linejoin="round" stroke-width="2"/>
    <path id="Path_1460" data-name="Path 1460" d="M81.965-46.884A16.489,16.489,0,0,1,98.446-30.4,16.489,16.489,0,0,1,81.965-13.922,16.488,16.488,0,0,1,65.485-30.4,16.489,16.489,0,0,1,81.965-46.884Z" transform="translate(916.035 6567.755)" fill="#ffd525"/>
    <path id="Path_1461" data-name="Path 1461" d="M427.812-103.973l-12.534-8.343-11.808,9.343,4.061-14.5L395-125.815l15.044-.618,4.061-14.5,5.237,14.117,15.044-.617-11.808,9.342Z" transform="matrix(0.809, 0.588, -0.588, 0.809, 927.52, 6193.934)" fill="#f63d37" fill-rule="evenodd"/>
  </g>
</svg>
