<svg xmlns="http://www.w3.org/2000/svg" width="184.676" height="169.827" viewBox="0 0 184.676 169.827">
  <g id="Group_166" data-name="Group 166" transform="translate(-0.167 319.352)">
    <path id="Path_1182" data-name="Path 1182" d="M152.4-231.653a60.925,60.925,0,0,1,60.9,60.9,60.925,60.925,0,0,1-60.9,60.9,60.925,60.925,0,0,1-60.9-60.9A60.925,60.925,0,0,1,152.4-231.653Z" transform="translate(-42.376 -40.664)" fill="none" stroke="#000" stroke-linecap="round" stroke-linejoin="round" stroke-width="2" stroke-dasharray="9 15 0 0"/>
    <path id="Path_1183" data-name="Path 1183" d="M1.5-198.335,31.361-260.84l5.083,47.65L66.3-289.43l8.259,58.451,41.3-87.041" fill="none" stroke="#000" stroke-linecap="round" stroke-linejoin="round" stroke-width="2"/>
    <path id="Path_1184" data-name="Path 1184" d="M317.69-179.233l-15.953-15.953-15.953,15.953,15.953,15.953Z" transform="translate(-133.848 -57.833)" fill="#fff" stroke="#f53c37" stroke-linecap="round" stroke-linejoin="round" stroke-width="2" fill-rule="evenodd"/>
    <path id="Path_1185" data-name="Path 1185" d="M47.69-51.46H77.8" transform="translate(-21.747 -125.503)" fill="none" stroke="#000" stroke-linecap="round" stroke-linejoin="round" stroke-width="2"/>
    <path id="Path_1186" data-name="Path 1186" d="M47.69-38.493H77.8" transform="translate(-21.747 -131.608)" fill="none" stroke="#000" stroke-linecap="round" stroke-linejoin="round" stroke-width="2"/>
    <path id="Path_1187" data-name="Path 1187" d="M47.69-25.527H77.8" transform="translate(-21.747 -137.712)" fill="none" stroke="#000" stroke-linecap="round" stroke-linejoin="round" stroke-width="2"/>
    <path id="Path_1188" data-name="Path 1188" d="M287.268-54.957a12.014,12.014,0,0,1,12.008,12.008,12.014,12.014,0,0,1-12.008,12.008A12.013,12.013,0,0,1,275.26-42.949,12.013,12.013,0,0,1,287.268-54.957Z" transform="translate(-128.893 -123.856)" fill="none" stroke="#000" stroke-linecap="round" stroke-linejoin="round" stroke-width="2"/>
    <path id="Path_1189" data-name="Path 1189" d="M283.76-258.779l-3.223,7.849,6.469,5.491-8.461-.64-3.223,7.849-2.006-8.245-8.461-.639,7.221-4.456-2.006-8.245,6.469,5.491Z" transform="translate(-123.994 -27.405)" fill="red" stroke="#000" stroke-linecap="round" stroke-linejoin="round" stroke-width="2" fill-rule="evenodd"/>
    <path id="Path_1190" data-name="Path 1190" d="M169.435-247.94h38.238v27.364l-14.162-10.37H169.435Z" transform="translate(-79.068 -32.995)" fill="#fff" stroke="#212829" stroke-miterlimit="10" stroke-width="2"/>
    <path id="Path_1191" data-name="Path 1191" d="M177.464-226.53h18.411" transform="translate(-82.848 -43.076)" fill="none" stroke="red" stroke-miterlimit="10" stroke-width="2"/>
    <path id="Path_1192" data-name="Path 1192" d="M217.608-226.53h8.5" transform="translate(-101.749 -43.076)" fill="none" stroke="red" stroke-miterlimit="10" stroke-width="2"/>
    <path id="Path_1193" data-name="Path 1193" d="M190.845-237.235H213.5" transform="translate(-89.148 -38.035)" fill="none" stroke="red" stroke-miterlimit="10" stroke-width="2"/>
    <path id="Path_1194" data-name="Path 1194" d="M93.625-206.488h36.644v24.429L116.7-190.2H93.625Z" transform="translate(-43.375 -52.512)" fill="#fff" stroke="#212829" stroke-miterlimit="10" stroke-width="2"/>
    <path id="Path_1195" data-name="Path 1195" d="M101.319-185.97h10.858" transform="translate(-46.997 -62.172)" fill="none" stroke="red" stroke-miterlimit="10" stroke-width="2"/>
    <path id="Path_1196" data-name="Path 1196" d="M129.532-185.97h13.5" transform="translate(-60.28 -62.172)" fill="none" stroke="red" stroke-miterlimit="10" stroke-width="2"/>
    <path id="Path_1197" data-name="Path 1197" d="M101.319-196.229h21.715" transform="translate(-46.997 -57.342)" fill="none" stroke="red" stroke-miterlimit="10" stroke-width="2"/>
    <path id="Path_1198" data-name="Path 1198" d="M117.584-70.689v-5.447c0-10.894,7.625-9.8,15.251-14.162" transform="translate(-54.655 -107.217)" fill="none" stroke="#212829" stroke-miterlimit="10" stroke-width="2"/>
    <path id="Path_1199" data-name="Path 1199" d="M196.184-108.341v-5.447c0-10.894,7.625-9.8,15.251-14.162" transform="translate(-91.662 -89.489)" fill="none" stroke="#212829" stroke-miterlimit="10" stroke-width="2"/>
    <path id="Path_1200" data-name="Path 1200" d="M251.766-142.36V-138" transform="translate(-117.831 -82.705)" fill="none" stroke="#212829" stroke-miterlimit="10" stroke-width="2"/>
    <path id="Path_1201" data-name="Path 1201" d="M179.342-90.3c7.625,4.357,15.251,3.268,15.251,14.162v5.447" transform="translate(-83.732 -107.217)" fill="none" stroke="#212829" stroke-miterlimit="10" stroke-width="2"/>
    <path id="Path_1202" data-name="Path 1202" d="M231.18-138v-4.358" transform="translate(-108.139 -82.705)" fill="none" stroke="#212829" stroke-miterlimit="10" stroke-width="2"/>
    <path id="Path_1203" data-name="Path 1203" d="M241.936-114.934v-8.139" transform="translate(-113.203 -91.786)" fill="none" stroke="#212829" stroke-miterlimit="10" stroke-width="2"/>
    <path id="Path_1204" data-name="Path 1204" d="M257.942-127.95c7.625,4.358,15.251,3.268,15.251,14.162v5.447" transform="translate(-120.739 -89.489)" fill="none" stroke="#212829" stroke-miterlimit="10" stroke-width="2"/>
    <path id="Path_1205" data-name="Path 1205" d="M242.434-130.857c-5.175,3.427-10.98,3.454-17.429,0l2.179-3.268,6.536,1.089,6.536-1.089Z" transform="translate(-105.231 -86.582)" fill="none" stroke="red" stroke-miterlimit="10" stroke-width="2"/>
    <path id="Path_1206" data-name="Path 1206" d="M173.166-104.707v4.357" transform="translate(-80.824 -100.433)" fill="none" stroke="#212829" stroke-miterlimit="10" stroke-width="2"/>
    <path id="Path_1207" data-name="Path 1207" d="M152.58-100.35v-4.357" transform="translate(-71.132 -100.433)" fill="none" stroke="#212829" stroke-miterlimit="10" stroke-width="2"/>
    <path id="Path_1208" data-name="Path 1208" d="M222.946-171.956s3.668,3.334,6.345-1.361c2.219-3.893,13.936-.656,13.264,1.361" transform="translate(-104.262 -67.27)" fill="none" stroke="red" stroke-miterlimit="10" stroke-width="2"/>
    <path id="Path_1209" data-name="Path 1209" d="M159.477-88.847l-4.358-2.179-4.357,2.179L146.4-93.2l2.179-3.268,6.536,1.089,6.536-1.089,2.179,3.268Z" transform="translate(-68.225 -104.31)" fill="none" stroke="#ffd525" stroke-miterlimit="10" stroke-width="2"/>
    <path id="Path_1210" data-name="Path 1210" d="M144.346-133.421s2.75-2.408,4.357-2.179c2.542.363,8.352,3.994,10.894,4.357,1.608.23,4.358-2.179,4.358-2.179" transform="translate(-67.255 -85.88)" fill="none" stroke="#ffd525" stroke-miterlimit="10" stroke-width="2"/>
    <path id="Path_1211" data-name="Path 1211" d="M163.955-131.469v4.358c-1.09,7.625-4.358,9.8-4.358,9.8a14.581,14.581,0,0,1-5.447,1.089,14.581,14.581,0,0,1-5.447-1.089s-3.268-2.179-4.357-9.8v-4.358" transform="translate(-67.255 -87.833)" fill="none" stroke="#212829" stroke-miterlimit="10" stroke-width="2"/>
    <path id="Path_1212" data-name="Path 1212" d="M242.555-169.121v4.357c-1.09,7.625-4.358,9.8-4.358,9.8a14.575,14.575,0,0,1-5.447,1.09,14.575,14.575,0,0,1-5.447-1.09s-3.268-2.179-4.357-9.8v-4.357" transform="translate(-104.262 -70.105)" fill="none" stroke="#212829" stroke-miterlimit="10" stroke-width="2"/>
    <path id="Path_1213" data-name="Path 1213" d="M144.346-140.192c0-6.618,3.186-9.8,9.8-9.8s9.8,3.186,9.8,9.8" transform="translate(-67.255 -79.11)" fill="none" stroke="#212829" stroke-miterlimit="10" stroke-width="2"/>
    <path id="Path_1214" data-name="Path 1214" d="M222.946-177.844c0-6.618,3.186-9.8,9.8-9.8s9.8,3.187,9.8,9.8" transform="translate(-104.262 -61.382)" fill="none" stroke="#212829" stroke-miterlimit="10" stroke-width="2"/>
    <path id="Path_1215" data-name="Path 1215" d="M134.053-58.446v-5.849" transform="translate(-62.409 -119.46)" fill="none" stroke="#212829" stroke-miterlimit="10" stroke-width="2"/>
    <path id="Path_1216" data-name="Path 1216" d="M212.653-96.1v-5.849" transform="translate(-99.416 -101.732)" fill="none" stroke="#212829" stroke-miterlimit="10" stroke-width="2"/>
    <path id="Path_1217" data-name="Path 1217" d="M191.694-58.446v-5.849" transform="translate(-89.548 -119.46)" fill="none" stroke="#212829" stroke-miterlimit="10" stroke-width="2"/>
    <path id="Path_1218" data-name="Path 1218" d="M270.293-96.1v-5.849" transform="translate(-126.554 -101.732)" fill="none" stroke="#212829" stroke-miterlimit="10" stroke-width="2"/>
  </g>
</svg>
