<svg xmlns="http://www.w3.org/2000/svg" width="1114.372" height="694.354" viewBox="0 0 1114.372 694.354">
  <g id="Group_120" data-name="Group 120" transform="translate(394.854 468.998)">
    <path id="Path_1223" data-name="Path 1223" d="M290.1-37.723,391.67-209.2,408.96-78.479,510.532-287.64l28.095,160.358L679.1-366.075" transform="translate(39.05 -101.554)" fill="none" stroke="#000" stroke-linecap="round" stroke-linejoin="round" stroke-width="2"/>
    <path id="Path_1222" data-name="Path 1222" d="M327.381-378.551c92.652,0,167.874,75.224,167.874,167.876S420.033-42.8,327.381-42.8,159.505-118.023,159.505-210.675,234.727-378.551,327.381-378.551Z" transform="translate(213.287 267.155)" fill="none" stroke="#000" stroke-linecap="round" stroke-linejoin="round" stroke-width="2" stroke-dasharray="9 15 0 0"/>
    <g id="Group_84" data-name="Group 84" transform="matrix(0.966, -0.259, 0.259, 0.966, -14.463, -207.437)">
      <text id="SEO_SEM" data-name="SEO/SEM" transform="translate(0 81)" font-size="85" font-family="CorporativeSlab-Bold, Corporative Slab" font-weight="700"><tspan x="0" y="0">SEO/SEM</tspan></text>
    </g>
    <path id="Path_1224" data-name="Path 1224" d="M506.629-124.563l4.619,12.831s-136.881-50.3-224.81,8.616c0,0-124.189-96.545-226.623-8.616l7.967-17.341" transform="translate(30.965 95.925)" fill="none" stroke="#000" stroke-linecap="round" stroke-linejoin="round" stroke-width="2"/>
    <path id="Path_1225" data-name="Path 1225" d="M506.629-115.747l4.619,12.831s-136.881-59.109-224.81-.187c0,0-124.189-87.742-226.623.187l7.967-17.34" transform="translate(30.965 98.632)" fill="none" stroke="#000" stroke-linecap="round" stroke-linejoin="round" stroke-width="2"/>
    <path id="Path_1226" data-name="Path 1226" d="M506.629-106.963l4.619,12.831S374.931-161.694,287-102.772c0,0-124.753-79.29-227.187,8.64l7.967-17.341" transform="translate(30.965 101.261)" fill="none" stroke="#000" stroke-linecap="round" stroke-linejoin="round" stroke-width="2"/>
    <path id="Path_1227" data-name="Path 1227" d="M506.629-98.517l4.619,12.831S374.931-161.626,287-102.706c0,0-124.753-70.91-227.187,17.02l7.967-17.34" transform="translate(30.965 103.645)" fill="none" stroke="#000" stroke-linecap="round" stroke-linejoin="round" stroke-width="2"/>
    <path id="Path_1228" data-name="Path 1228" d="M65.971-184.238,34.046-216.162,2.121-184.238l31.925,31.925Z" transform="translate(568.104 314.481)" fill="none" stroke="#f53c37" stroke-linecap="round" stroke-linejoin="round" stroke-width="2"/>
    <g id="Group_209" data-name="Group 209">
      <path id="Path_1229" data-name="Path 1229" d="M23.1-279.314h44.2" transform="translate(-653.02 -282.976) rotate(90)" fill="none" stroke="#000" stroke-linecap="round" stroke-linejoin="round" stroke-width="2"/>
      <path id="Path_1230" data-name="Path 1230" d="M23.1-266.348h44.2" transform="translate(-650.127 -282.976) rotate(90)" fill="none" stroke="#000" stroke-linecap="round" stroke-linejoin="round" stroke-width="2"/>
      <path id="Path_1231" data-name="Path 1231" d="M23.1-253.381h44.2" transform="translate(-647.235 -282.976) rotate(90)" fill="none" stroke="#000" stroke-linecap="round" stroke-linejoin="round" stroke-width="2"/>
    </g>
    <path id="Path_1232" data-name="Path 1232" d="M85.161-46.884a19.686,19.686,0,0,1,19.677,19.677A19.686,19.686,0,0,1,85.161-7.53,19.686,19.686,0,0,1,65.485-27.207,19.686,19.686,0,0,1,85.161-46.884Z" transform="translate(-267.487 145.202)" fill="none" stroke="#000" stroke-linecap="round" stroke-linejoin="round" stroke-width="2"/>
    <path id="Path_1233" data-name="Path 1233" d="M103.29-201.506l-22.813-3.17-12.7,18.436h28.5" transform="translate(23.005 98.662)" fill="none" stroke="#000" stroke-linecap="round" stroke-linejoin="round" stroke-width="2"/>
    <path id="Path_1234" data-name="Path 1234" d="M365.048-172.384l22.814-3.168,12.7,18.434h-28.5" transform="translate(155.162 84.998)" fill="none" stroke="#000" stroke-linecap="round" stroke-linejoin="round" stroke-width="2"/>
    <path id="Path_1235" data-name="Path 1235" d="M374.766-147.633l8.308-3.17,4.626,18.435-8.319.349" transform="translate(159.116 95.069)" fill="none" stroke="#000" stroke-linecap="round" stroke-linejoin="round" stroke-width="2"/>
    <path id="Path_1236" data-name="Path 1236" d="M88.048-178.934,75.025-182.1,67.774-163.67l14.362-.979" transform="translate(17.203 118.91)" fill="none" stroke="red" stroke-linecap="round" stroke-linejoin="round" stroke-width="2"/>
    <path id="Path_1237" data-name="Path 1237" d="M121.455-214.336s77.959-71.612,157.729-10.878c0,0,91.556-67.079,182.205,7.252L511.247-80.175S374.367-119.6,286.437-60.681c0,0-124.189-107.423-226.623-19.494Z" transform="translate(30.965 53.49)" fill="#fff" stroke="red" stroke-linecap="round" stroke-linejoin="round" stroke-width="2" fill-rule="evenodd"/>
    <path id="Path_1238" data-name="Path 1238" d="M350.739-212.749s-29.048-14.755-64.765-16.077" transform="translate(122.987 63.322)" fill="none" stroke="#000" stroke-linecap="round" stroke-linejoin="round" stroke-width="2"/>
    <path id="Path_1239" data-name="Path 1239" d="M269.4-226.028a98.454,98.454,0,0,0-31.572,15.05" transform="translate(103.396 64.46)" fill="none" stroke="#000" stroke-linecap="round" stroke-linejoin="round" stroke-width="2"/>
    <path id="Path_1240" data-name="Path 1240" d="M108.679-212.749a169.177,169.177,0,0,1,16.983-8.038,200.564,200.564,0,0,1,23.25-8.039" transform="translate(50.847 63.322)" fill="none" stroke="#000" stroke-linecap="round" stroke-linejoin="round" stroke-width="2"/>
    <path id="Path_1241" data-name="Path 1241" d="M145.625-230.033A137.765,137.765,0,0,1,165.6-232.61a104.333,104.333,0,0,1,18.326.6,83.358,83.358,0,0,1,14.279,3.035,70.582,70.582,0,0,1,28.205,16.452" transform="translate(65.88 61.719)" fill="none" stroke="#000" stroke-linecap="round" stroke-linejoin="round" stroke-width="2"/>
    <path id="Path_1242" data-name="Path 1242" d="M351.9-193a167.734,167.734,0,0,0-29.877-11.418,173.916,173.916,0,0,0-19.922-4.433" transform="translate(129.549 71.45)" fill="none" stroke="#000" stroke-linecap="round" stroke-linejoin="round" stroke-width="2"/>
    <path id="Path_1243" data-name="Path 1243" d="M307.662-210.116a123.289,123.289,0,0,0-19.54.884,107.091,107.091,0,0,0-13.078,2.49A95.631,95.631,0,0,0,242.7-191.689" transform="translate(105.381 70.907)" fill="none" stroke="#000" stroke-linecap="round" stroke-linejoin="round" stroke-width="2"/>
    <path id="Path_1244" data-name="Path 1244" d="M103.375-195.5s76.162-40.4,133.364.765" transform="translate(48.689 69.666)" fill="none" stroke="#000" stroke-linecap="round" stroke-linejoin="round" stroke-width="2"/>
    <path id="Path_1245" data-name="Path 1245" d="M383.787-173.441s-83.882-36.538-141.083,4.626" transform="translate(105.381 79.774)" fill="none" stroke="#000" stroke-linecap="round" stroke-linejoin="round" stroke-width="2"/>
    <path id="Path_1246" data-name="Path 1246" d="M97.887-176.772a203.218,203.218,0,0,1,36.791-10.993c5.96-1.216,12.42-2.269,19.208-2.984" transform="translate(46.456 78.815)" fill="none" stroke="#000" stroke-linecap="round" stroke-linejoin="round" stroke-width="2"/>
    <path id="Path_1247" data-name="Path 1247" d="M153.323-191.4a133.947,133.947,0,0,1,24.711,2.85,101.617,101.617,0,0,1,38.381,16.676" transform="translate(69.012 78.548)" fill="none" stroke="#000" stroke-linecap="round" stroke-linejoin="round" stroke-width="2"/>
    <path id="Path_1248" data-name="Path 1248" d="M390.144-155.232s-86.885-28.149-144.087,13.015" transform="translate(106.745 89.445)" fill="none" stroke="#000" stroke-linecap="round" stroke-linejoin="round" stroke-width="2"/>
    <path id="Path_1249" data-name="Path 1249" d="M93.236-159.488s86.884-28.149,144.087,13.015" transform="translate(44.564 87.713)" fill="none" stroke="#000" stroke-linecap="round" stroke-linejoin="round" stroke-width="2"/>
    <path id="Path_1250" data-name="Path 1250" d="M215.74-233.247l7.253,164.533" transform="translate(94.409 61.523)" fill="none" stroke="red" stroke-linecap="round" stroke-linejoin="round" stroke-width="2"/>
    <path id="Path_1251" data-name="Path 1251" d="M299.413-241.918l-21.165-.491c11.361-5.376,15.808-15.821,6.18-36.586l25.783-1.2C314.115-258.058,309.5-246.57,299.413-241.918Z" transform="translate(119.843 42.419)" fill="#fff" stroke="red" stroke-linecap="round" stroke-linejoin="round" stroke-width="2" fill-rule="evenodd"/>
    <path id="Path_1252" data-name="Path 1252" d="M68.524-156.106l-56.62,102h583.81l-37.747-87.842" transform="translate(11.47 92.911)" fill="none" stroke="#000" stroke-linecap="round" stroke-linejoin="round" stroke-width="2"/>
    <path id="Path_1253" data-name="Path 1253" d="M11.9-83.606v18.783h583.81V-83.606" transform="translate(11.47 122.411)" fill="none" stroke="#000" stroke-linecap="round" stroke-linejoin="round" stroke-width="2"/>
    <g id="Group_133" data-name="Group 133" transform="matrix(1, 0.017, -0.017, 1, 88.566, 109.164)">
      <path id="Path_1254" data-name="Path 1254" d="M0,0,12.113,4.546.923,10.4Z" transform="translate(161.168 2.339)" fill="red" fill-rule="evenodd"/>
      <path id="Path_1255" data-name="Path 1255" d="M147.715,0,0,8.292l.965,17.2L148.68,17.195l24.6-9.8Z" fill="none" stroke="#000" stroke-linecap="round" stroke-linejoin="round" stroke-width="2"/>
      <path id="Path_1256" data-name="Path 1256" d="M0,0,.885,15.777" transform="translate(147.715 0)" fill="none" stroke="#000" stroke-linecap="round" stroke-linejoin="round" stroke-width="2"/>
      <path id="Path_1257" data-name="Path 1257" d="M0,0,.886,15.777" transform="translate(7.496 8.84)" fill="none" stroke="#000" stroke-linecap="round" stroke-linejoin="round" stroke-width="2"/>
    </g>
    <path id="Path_1258" data-name="Path 1258" d="M36.165,4.466C24.189,8.084,8.232,15.743,2.984,25.17,2.031,26.882.554,29.335.127,31.664a5.592,5.592,0,0,0,1.388,5.15c2.891,2.993,7.376,4.013,12.359,3.916,6.641-.131,14.182-2.268,19.018-3.3,15.147-3.245,32.755-6.637,45.832-13.855A28.863,28.863,0,0,0,84.447,19.7c3.705-3.736,4.557-6.887,3.777-9.452-.789-2.6-3.317-4.714-6.859-6.289C75.058,1.158,65.466.009,59,0A76.254,76.254,0,0,0,37.426,3.135,1.632,1.632,0,0,0,36.165,4.466Zm14.71.512a4.871,4.871,0,0,0-.606-.06c-3.818-.065-7.9,1.041-11.48,2.059-11.241,3.2-27.177,10.342-32.235,19.429a26.731,26.731,0,0,0-2.327,4.749c-.431,1.362-.622,2.749.388,3.8,2.125,2.2,5.5,2.777,9.163,2.7,6.323-.123,13.49-2.211,18.092-3.2,14.736-3.158,31.9-6.385,44.62-13.407a24.557,24.557,0,0,0,4.888-3.242c2.711-2.733,3.627-4.964,3.056-6.84-.556-1.834-2.489-3.218-4.984-4.328C73.686,4.077,64.9,3.083,59,3.075q-1.924,0-3.848.1a1.911,1.911,0,0,1,.682,1.276c.049.647-.3,1.653-2.234,2.527a2.254,2.254,0,0,1-2.661-.569A1.255,1.255,0,0,1,50.875,4.978Z" transform="matrix(0.999, 0.035, -0.035, 0.999, 333.915, -152.416)" fill="red" fill-rule="evenodd"/>
    <path id="Path_1259" data-name="Path 1259" d="M425.994-106.021l-11.84-7.881L403-105.077l3.836-13.7L395-126.653l14.211-.584,3.836-13.7L417.99-127.6l14.211-.583-11.154,8.824Z" transform="translate(-562.547 -433.873) rotate(43)" fill="#fff" stroke="#000" stroke-linecap="round" stroke-linejoin="round" stroke-width="2" fill-rule="evenodd"/>
  </g>
</svg>
