<svg xmlns="http://www.w3.org/2000/svg" width="1822.804" height="1041.066" viewBox="0 0 1822.804 1041.066">
  <g id="Group_213" data-name="Group 213" transform="translate(-169.289 36.514)">
    <g id="Group_137" data-name="Group 137" transform="translate(2018.898 653.927) rotate(109)">
      <path id="Path_1322" data-name="Path 1322" d="M67.139,18.984H411.791V-220.284H67.139Z" transform="translate(-32.368 251.102)" fill="#fff" stroke="#000" stroke-linecap="round" stroke-linejoin="round" stroke-width="3" fill-rule="evenodd"/>
      <path id="Path_1351" data-name="Path 1351" d="M62.061,216.768V48.978" transform="translate(30.454 17.578)" fill="none" stroke="#000" stroke-width="3"/>
      <path id="Path_1352" data-name="Path 1352" d="M62.061,216.768V48.978" transform="translate(75.873 17.578)" fill="none" stroke="#f63d37" stroke-width="3"/>
      <path id="Path_1353" data-name="Path 1353" d="M62.061,216.768V48.978" transform="translate(121.293 17.578)" fill="none" stroke="#000" stroke-width="3"/>
      <path id="Path_1354" data-name="Path 1354" d="M62.061,216.768V48.978" transform="translate(168.777 17.578)" fill="none" stroke="#000" stroke-width="3"/>
      <path id="Path_1355" data-name="Path 1355" d="M62.061,216.768V48.978" transform="translate(214.197 17.578)" fill="none" stroke="#000" stroke-width="3"/>
      <path id="Path_1356" data-name="Path 1356" d="M62.061,216.768V48.978" transform="translate(259.616 17.578)" fill="none" stroke="#000" stroke-width="3"/>
    </g>
    <g id="Group_129" data-name="Group 129" transform="translate(1959.971 127.397) rotate(79)">
      <path id="Path_1322-2" data-name="Path 1322" d="M67.139-23.883H350.044v-196.4H67.139Z" transform="translate(-32.368 251.102)" fill="#fff" stroke="#000" stroke-linecap="round" stroke-linejoin="round" stroke-width="3" fill-rule="evenodd"/>
      <path id="Path_1351-2" data-name="Path 1351" d="M62.061,186.707V48.978" transform="translate(20.109 11.176)" fill="none" stroke="#000" stroke-width="3"/>
      <path id="Path_1352-2" data-name="Path 1352" d="M62.061,186.707V48.978" transform="translate(57.391 11.176)" fill="none" stroke="#000" stroke-width="3"/>
      <path id="Path_1353-2" data-name="Path 1353" d="M62.061,186.707V48.978" transform="translate(94.673 11.176)" fill="none" stroke="#000" stroke-width="3"/>
      <path id="Path_1354-2" data-name="Path 1354" d="M62.061,186.707V48.978" transform="translate(133.65 11.176)" fill="none" stroke="#000" stroke-width="3"/>
      <path id="Path_1355-2" data-name="Path 1355" d="M62.061,186.707V48.978" transform="translate(170.932 11.176)" fill="none" stroke="#f63d37" stroke-width="3"/>
      <path id="Path_1356-2" data-name="Path 1356" d="M62.061,186.707V48.978" transform="translate(208.214 11.176)" fill="none" stroke="#000" stroke-width="3"/>
    </g>
    <path id="Path_1349" data-name="Path 1349" d="M429.414-102.168l-13.146-8.75-12.384,9.8,4.26-15.207L395-125.077l15.779-.648,4.26-15.207,5.492,14.806,15.779-.647-12.384,9.8Z" transform="translate(-187.144 426.389) rotate(43)" fill="#fff" stroke="#000" stroke-linecap="round" stroke-linejoin="round" stroke-width="2" fill-rule="evenodd"/>
    <path id="Path_1056" data-name="Path 1056" d="M335.841,265.252l217.714-142.5L615.362-31.771,1644.621-635.819" transform="translate(306.016 635.819)" fill="none" stroke="#000" stroke-linecap="round" stroke-linejoin="round" stroke-width="2"/>
    <path id="Path_1057" data-name="Path 1057" d="M146.064,338.568l266.2-73.5L650.907-184.759l554.557-334.794" transform="translate(479.936 484.751)" fill="none" stroke="#f53c37" stroke-linejoin="round" stroke-width="4"/>
    <path id="Path_1333" data-name="Path 1333" d="M524.353-46.884A82.785,82.785,0,1,1,441.567,35.9,82.825,82.825,0,0,1,524.353-46.884Z" transform="matrix(0.966, -0.259, 0.259, 0.966, 513.075, 233.63)" fill="rgba(0,0,0,0)" stroke="#000" stroke-linecap="round" stroke-linejoin="round" stroke-width="2"/>
    <path id="Path_1350" data-name="Path 1350" d="M81.161-65.307l-12.9-12.9-12.9,12.9,12.9,12.9Z" transform="translate(150.645 299.293)" fill="#ffd525"/>
    <g id="Group_136" data-name="Group 136" transform="translate(-1084.878 -26)">
      <path id="Path_1357" data-name="Path 1357" d="M0,0H96.148" transform="translate(1770.561 675.995) rotate(90)" fill="none" stroke="#000" stroke-linecap="round" stroke-linejoin="round" stroke-width="3"/>
      <path id="Path_1358" data-name="Path 1358" d="M0,0H96.148" transform="translate(1748.647 675.995) rotate(90)" fill="none" stroke="#000" stroke-linecap="round" stroke-linejoin="round" stroke-width="3"/>
      <path id="Path_1359" data-name="Path 1359" d="M0,0H96.148" transform="translate(1726.734 675.995) rotate(90)" fill="none" stroke="#000" stroke-linecap="round" stroke-linejoin="round" stroke-width="3"/>
    </g>
  </g>
</svg>
