<svg xmlns="http://www.w3.org/2000/svg" width="274.009" height="228.604" viewBox="0 0 274.009 228.604">
  <g id="Group_169" data-name="Group 169" transform="translate(0 413.07)">
    <path id="Path_1369" data-name="Path 1369" d="M67.343-240.147A65.874,65.874,0,0,1,133.185-174.3a65.874,65.874,0,0,1-65.842,65.843A65.874,65.874,0,0,1,1.5-174.3,65.874,65.874,0,0,1,67.343-240.147Z" transform="translate(0 -77.505)" fill="none" stroke="#000" stroke-linecap="round" stroke-linejoin="round" stroke-width="3" stroke-dasharray="9 15 0 0"/>
    <g id="Group_170" data-name="Group 170" transform="translate(173.376 -413.07) rotate(27.684)">
      <g id="Group_169-2" data-name="Group 169" transform="translate(0 0)">
        <text id="_144" data-name="144" transform="translate(0 58)" font-size="61" font-family="CorporativeSlab-Black, Corporative Slab" font-weight="800"><tspan x="0" y="0">144</tspan></text>
      </g>
    </g>
    <path id="Path_1370" data-name="Path 1370" d="M197.979-324.326l-3.36,8.185,6.745,5.725-8.822-.667-3.361,8.184-2.092-8.6-8.822-.667,7.529-4.646-2.092-8.6,6.746,5.726Z" transform="translate(-79.227 -39.292)" fill="none" stroke="#000" stroke-linecap="round" stroke-linejoin="round" stroke-width="3"/>
    <path id="Path_1371" data-name="Path 1371" d="M323.689-245.224h31.392" transform="translate(-144.406 -75.229)" fill="none" stroke="#000" stroke-linecap="round" stroke-linejoin="round" stroke-width="3"/>
    <path id="Path_1372" data-name="Path 1372" d="M323.689-232.257h31.392" transform="translate(-144.406 -81.041)" fill="none" stroke="#000" stroke-linecap="round" stroke-linejoin="round" stroke-width="3"/>
    <path id="Path_1373" data-name="Path 1373" d="M323.689-219.291h31.392" transform="translate(-144.406 -86.852)" fill="none" stroke="#000" stroke-linecap="round" stroke-linejoin="round" stroke-width="3"/>
    <path id="Path_1374" data-name="Path 1374" d="M82.574-151.743h173.9V-272.467H82.574Z" transform="translate(-36.337 -63.018)" fill="#fff" stroke="#000" stroke-linecap="round" stroke-linejoin="round" stroke-width="3" fill-rule="evenodd"/>
    <path id="Path_1375" data-name="Path 1375" d="M92.747-152.77H255.418V-262.552H92.747Z" transform="translate(-40.897 -67.462)" fill="#fff" stroke="#000" stroke-linecap="round" stroke-linejoin="round" stroke-width="3" fill-rule="evenodd"/>
    <path id="Path_1376" data-name="Path 1376" d="M112.827-210.468h31.788v-9.083H112.827Z" transform="translate(-49.897 -86.735)" fill="#f53c37" fill-rule="evenodd"/>
    <path id="Path_1435" data-name="Path 1435" d="M112.827-210.468h31.788v-9.083H112.827Z" transform="translate(-11.931 -86.735)" fill="#f53c37" fill-rule="evenodd"/>
    <path id="Path_1436" data-name="Path 1436" d="M112.827-210.468H155.4v-9.083H112.827Z" transform="translate(26.035 -86.735)" fill="#f53c37" fill-rule="evenodd"/>
    <path id="Path_1377" data-name="Path 1377" d="M112.827-181.971h107.72v-9.083H112.827Z" transform="translate(-49.897 -99.508)" fill="#f53c37" fill-rule="evenodd"/>
    <path id="Path_1378" data-name="Path 1378" d="M112.827-151.822h41.259v-9.083H112.827Z" transform="translate(-49.897 -113.021)" fill="#f53c37" fill-rule="evenodd"/>
    <path id="Path_1434" data-name="Path 1434" d="M112.827-151.822h62.72v-9.083h-62.72Z" transform="translate(-4.897 -113.021)" fill="#f53c37" fill-rule="evenodd"/>
    <path id="Path_1379" data-name="Path 1379" d="M112.827-243.914H156.4v-6.877H112.827Z" transform="translate(-49.897 -72.734)" fill="none" stroke="#000" stroke-linecap="round" stroke-linejoin="round" stroke-width="3"/>
    <path id="Path_1380" data-name="Path 1380" d="M112.827-122.314h107.72v-6.877H112.827Z" transform="translate(-49.897 -127.235)" fill="#fff" stroke="#000" stroke-linecap="round" stroke-linejoin="round" stroke-width="3" fill-rule="evenodd"/>
    <path id="Path_1381" data-name="Path 1381" d="M112.827-92.194h107.72v-6.877H112.827Z" transform="translate(-49.897 -140.735)" fill="#fff" stroke="#000" stroke-linecap="round" stroke-linejoin="round" stroke-width="3" fill-rule="evenodd"/>
    <path id="Path_1382" data-name="Path 1382" d="M203.466-249.952a2.361,2.361,0,0,1,2.361,2.361,2.362,2.362,0,0,1-2.361,2.361,2.362,2.362,0,0,1-2.361-2.361A2.361,2.361,0,0,1,203.466-249.952Z" transform="translate(-89.463 -73.11)" fill="none" stroke="#000" stroke-linecap="round" stroke-linejoin="round" stroke-width="3"/>
    <path id="Path_1383" data-name="Path 1383" d="M208.5-242.743l2.436,2.436" transform="translate(-92.777 -76.341)" fill="none" stroke="#000" stroke-linecap="round" stroke-linejoin="round" stroke-width="3"/>
    <path id="Path_1384" data-name="Path 1384" d="M345.209-216.759a4.261,4.261,0,0,1,3.887-2.793,3.968,3.968,0,0,1,3.92,3.949c0,.029,0,.057,0,.086v.022a4.033,4.033,0,0,1-4,4.014,4.155,4.155,0,0,1-3.807-2.793H341.22v2.483h-2.681v-2.483h-1.664v-2.483Zm3.787,2.58a1.345,1.345,0,0,0,1.339-1.339A1.345,1.345,0,0,0,349-216.856a1.345,1.345,0,0,0-1.339,1.339A1.348,1.348,0,0,0,349-214.179Z" transform="translate(-150.316 -86.735)"/>
    <g id="Group_172" data-name="Group 172" transform="translate(223.534 -327.598) rotate(27.684)">
      <g id="Group_171" data-name="Group 171" transform="translate(0 0)">
        <text id="_" data-name="%" transform="translate(0 59)" fill="#f53c37" font-size="62" font-family="CorporativeSlab-Black, Corporative Slab" font-weight="800"><tspan x="0" y="0">%</tspan></text>
      </g>
    </g>
  </g>
</svg>
