<svg xmlns="http://www.w3.org/2000/svg" width="170.904" height="168.188" viewBox="0 0 170.904 168.188">
  <g id="Group_160" data-name="Group 160" transform="translate(-0.945 395.576)">
    <path id="Path_1039" data-name="Path 1039" d="M2.278-304.984,24.548-351.6l3.791,35.537,22.27-56.859,6.16,43.592,30.8-64.914" transform="translate(0 0)" fill="none" stroke="#000" stroke-linecap="round" stroke-linejoin="round" stroke-width="2"/>
    <path id="Path_1040" data-name="Path 1040" d="M75.051-195.227l51.774-.085v11.62h-7.472v6.527h32.023v-6.527h-7.031v-11.62l55.08.085v-86.344H75.051Z" transform="translate(-44.053 -68.206)" fill="#fff" stroke="#000" stroke-linecap="round" stroke-linejoin="round" stroke-width="2" fill-rule="evenodd"/>
    <path id="Path_1041" data-name="Path 1041" d="M85.224-193.138H201.569v-78.518H85.224Z" transform="translate(-50.211 -74.208)" fill="#fff" stroke="#000" stroke-linecap="round" stroke-linejoin="round" stroke-width="2" fill-rule="evenodd"/>
    <path id="Path_1042" data-name="Path 1042" d="M104.415-224.854h54.262v-4.919H104.415Z" transform="translate(-61.828 -99.562)" fill="#fff" stroke="#000" stroke-linecap="round" stroke-linejoin="round" stroke-width="2" fill-rule="evenodd"/>
    <path id="Path_1043" data-name="Path 1043" d="M104.415-195.252h54.262v-4.919H104.415Z" transform="translate(-61.828 -117.481)" fill="#fff" stroke="#000" stroke-linecap="round" stroke-linejoin="round" stroke-width="2" fill-rule="evenodd"/>
    <path id="Path_1044" data-name="Path 1044" d="M308.939-104.4h7.789v-12.931h-7.789Z" transform="translate(-185.636 -167.625)" fill="#fff" stroke="#000" stroke-linecap="round" stroke-linejoin="round" stroke-width="2" fill-rule="evenodd"/>
    <path id="Path_1045" data-name="Path 1045" d="M328.023-115.957h7.789V-136.42h-7.789Z" transform="translate(-197.188 -156.072)" fill="#fff" stroke="#000" stroke-linecap="round" stroke-linejoin="round" stroke-width="2" fill-rule="evenodd"/>
    <path id="Path_1046" data-name="Path 1046" d="M347.108-121.61H354.9v-24.149h-7.789Z" transform="translate(-208.741 -150.419)" fill="#fff" stroke="#000" stroke-linecap="round" stroke-linejoin="round" stroke-width="2" fill-rule="evenodd"/>
    <path id="Path_1047" data-name="Path 1047" d="M322.6-214.464l-3.639,3.639" transform="translate(-192.795 -109.92)" fill="none" stroke="#000" stroke-linejoin="round" stroke-width="1"/>
    <path id="Path_1048" data-name="Path 1048" d="M304.662-242.815l-12.434,12.434" transform="translate(-176.611 -92.757)" fill="none" stroke="#000" stroke-linejoin="round" stroke-width="1"/>
    <path id="Path_1049" data-name="Path 1049" d="M309.2-234.256l-10.608,10.608" transform="translate(-180.462 -97.939)" fill="none" stroke="#000" stroke-linejoin="round" stroke-width="1"/>
    <path id="Path_1050" data-name="Path 1050" d="M303.219-220.477l-6.059-6.059" transform="translate(-179.596 -102.612)" fill="none" stroke="#000" stroke-linejoin="round" stroke-width="1"/>
    <path id="Path_1051" data-name="Path 1051" d="M313.487-230.746l-6.059-6.059" transform="translate(-185.812 -96.396)" fill="none" stroke="#000" stroke-linejoin="round" stroke-width="1"/>
    <path id="Path_1052" data-name="Path 1052" d="M284.209-236.031l14.748-14.748,2.581,9.537-8.792,8.792Z" transform="translate(-171.756 -87.937)" fill="none" stroke="#000" stroke-linecap="round" stroke-linejoin="round" stroke-width="1"/>
    <path id="Path_1053" data-name="Path 1053" d="M327.4-221.515a1.75,1.75,0,0,0,0,2.473,1.749,1.749,0,0,0,2.473,0,1.749,1.749,0,0,0,0-2.473A1.749,1.749,0,0,0,327.4-221.515Z" transform="translate(-197.591 -105.342)" fill="none" stroke="#000" stroke-linecap="round" stroke-linejoin="round" stroke-width="1"/>
    <path id="Path_1054" data-name="Path 1054" d="M311.913-206.029a1.75,1.75,0,0,0,0,2.473,1.75,1.75,0,0,0,2.473,0,1.75,1.75,0,0,0,0-2.473A1.749,1.749,0,0,0,311.913-206.029Z" transform="translate(-188.217 -114.716)" fill="none" stroke="#000" stroke-linecap="round" stroke-linejoin="round" stroke-width="1"/>
    <path id="Path_1055" data-name="Path 1055" d="M275.014-221.416l-5.434-2.509-3.272,3.272" transform="translate(-160.921 -104.192)" fill="none" stroke="#000" stroke-linecap="round" stroke-linejoin="round" stroke-width="1"/>
    <path id="Path_1056" data-name="Path 1056" d="M117.841-171.835l21.343-21.68,36.727,9.009,30.374-30.33" transform="translate(-69.955 -108.604)" fill="none" stroke="#000" stroke-linecap="round" stroke-linejoin="round" stroke-width="2"/>
    <path id="Path_1057" data-name="Path 1057" d="M146.064-210.5l12.361-12.556,36.727,9.009,57.691-57.608" transform="translate(-87.04 -73.117)" fill="none" stroke="#f53c37" stroke-linejoin="round" stroke-width="4"/>
    <path id="Path_1058" data-name="Path 1058" d="M105.3-254.977h31.161V-259.9H105.3Z" transform="translate(-62.366 -81.327)" fill="none" stroke="#000" stroke-linecap="round" stroke-linejoin="round" stroke-width="2"/>
    <path id="Path_1059" data-name="Path 1059" d="M195.27-259.056a1.689,1.689,0,0,1,1.688,1.688,1.689,1.689,0,0,1-1.688,1.688,1.689,1.689,0,0,1-1.688-1.688A1.689,1.689,0,0,1,195.27-259.056Z" transform="translate(-115.805 -81.835)" fill="none" stroke="#000" stroke-linecap="round" stroke-linejoin="round" stroke-width="2"/>
    <path id="Path_1060" data-name="Path 1060" d="M200.975-251.847l1.742,1.742" transform="translate(-120.28 -86.199)" fill="none" stroke="#000" stroke-linecap="round" stroke-linejoin="round" stroke-width="2"/>
    <path id="Path_1061" data-name="Path 1061" d="M339.373-340.536l-8.956-8.956-8.955,8.956,8.955,8.956Z" transform="translate(-193.216 -27.09)" fill="none" stroke="#f53c37" stroke-linecap="round" stroke-linejoin="round" stroke-width="2"/>
    <path id="Path_1062" data-name="Path 1062" d="M372.521-36.326h22.452" transform="translate(-224.125 -216.664)" fill="none" stroke="#000" stroke-linecap="round" stroke-linejoin="round" stroke-width="2"/>
    <path id="Path_1063" data-name="Path 1063" d="M372.521-23.359h22.452" transform="translate(-224.125 -224.513)" fill="none" stroke="#000" stroke-linecap="round" stroke-linejoin="round" stroke-width="2"/>
    <path id="Path_1064" data-name="Path 1064" d="M372.521-10.393h22.452" transform="translate(-224.125 -232.362)" fill="none" stroke="#000" stroke-linecap="round" stroke-linejoin="round" stroke-width="2"/>
    <path id="Path_1065" data-name="Path 1065" d="M63.779-46.884a8.96,8.96,0,0,1,8.955,8.955,8.96,8.96,0,0,1-8.955,8.955,8.96,8.96,0,0,1-8.955-8.955A8.96,8.96,0,0,1,63.779-46.884Z" transform="translate(-31.808 -210.273)" fill="none" stroke="#000" stroke-linecap="round" stroke-linejoin="round" stroke-width="2"/>
    <path id="Path_1180" data-name="Path 1180" d="M63.779-46.884a8.96,8.96,0,0,1,8.955,8.955,8.96,8.96,0,0,1-8.955,8.955,8.96,8.96,0,0,1-8.955-8.955A8.96,8.96,0,0,1,63.779-46.884Z" transform="translate(39.718 -334.273)" fill="none" stroke="#000" stroke-linecap="round" stroke-linejoin="round" stroke-width="2"/>
    <path id="Path_1181" data-name="Path 1181" d="M63.779-46.884a8.96,8.96,0,0,1,8.955,8.955,8.96,8.96,0,0,1-8.955,8.955,8.96,8.96,0,0,1-8.955-8.955A8.96,8.96,0,0,1,63.779-46.884Z" transform="translate(47.88 -253.355) rotate(40)" fill="#ffd525" stroke="#000" stroke-linecap="round" stroke-linejoin="round" stroke-width="2"/>
    <path id="Path_1066" data-name="Path 1066" d="M25.876-130.731l-2.4,5.854,4.825,4.095-6.31-.477-2.4,5.854-1.5-6.148-6.31-.477,5.385-3.323-1.5-6.149,4.824,4.095Z" transform="translate(-5.751 -159.049)" fill="none" stroke="#000" stroke-linecap="round" stroke-linejoin="round" stroke-width="2"/>
    <text id="_" data-name="$" transform="translate(94.278 -380.245)" fill="#f53c37" font-size="13" font-family="Barlow-Bold, Barlow" font-weight="700"><tspan x="-3.588" y="13">$</tspan></text>
    <text id="_2" data-name="$" transform="translate(119.225 -253.502) rotate(40)" font-size="13" font-family="Barlow-Bold, Barlow" font-weight="700"><tspan x="-3.588" y="13">$</tspan></text>
  </g>
</svg>
