<svg xmlns="http://www.w3.org/2000/svg" width="186.166" height="175.771" viewBox="0 0 186.166 175.771">
  <g id="Group_165" data-name="Group 165" transform="translate(-0.219 317.414)">
    <path id="Path_1158" data-name="Path 1158" d="M1.6-103.109l31.078-65.052,5.29,49.592L69.04-197.916l8.6,60.832,42.979-90.587" transform="translate(-0.043 -39.868)" fill="none" stroke="#000" stroke-linecap="round" stroke-linejoin="round" stroke-width="2"/>
    <path id="Path_1159" data-name="Path 1159" d="M141-217.877a23.381,23.381,0,0,1,23.37,23.37A23.381,23.381,0,0,1,141-171.137a23.381,23.381,0,0,1-23.37-23.37A23.381,23.381,0,0,1,141-217.877Z" transform="translate(-52.174 -44.268)" fill="#fff" fill-rule="evenodd"/>
    <path id="Path_1160" data-name="Path 1160" d="M268.452-88.993l-12.5-12.5-12.5,12.5,12.5,12.5Z" transform="translate(-108.701 -96.556)" fill="none" stroke="#f53c37" stroke-linecap="round" stroke-linejoin="round" stroke-width="2"/>
    <path id="Path_1161" data-name="Path 1161" d="M59.1-297.05H90.428" transform="translate(-25.875 -8.699)" fill="none" stroke="#000" stroke-linecap="round" stroke-linejoin="round" stroke-width="2"/>
    <path id="Path_1162" data-name="Path 1162" d="M59.1-284.084H90.428" transform="translate(-25.875 -14.524)" fill="none" stroke="#000" stroke-linecap="round" stroke-linejoin="round" stroke-width="2"/>
    <path id="Path_1163" data-name="Path 1163" d="M59.1-271.117H90.428" transform="translate(-25.875 -20.35)" fill="none" stroke="#000" stroke-linecap="round" stroke-linejoin="round" stroke-width="2"/>
    <path id="Path_1164" data-name="Path 1164" d="M14-171.348a12.5,12.5,0,0,1,12.5,12.5,12.5,12.5,0,0,1-12.5,12.5,12.5,12.5,0,0,1-12.5-12.5A12.5,12.5,0,0,1,14-171.348Z" transform="translate(0 -65.171)" fill="none" stroke="#000" stroke-linecap="round" stroke-linejoin="round" stroke-width="2"/>
    <path id="Path_1165" data-name="Path 1165" d="M313.2-226.365l-3.354,8.169,6.733,5.715-8.806-.666-3.354,8.169-2.088-8.581-8.805-.665,7.515-4.637-2.088-8.581,6.733,5.715Z" transform="translate(-131.195 -39.971)" fill="none" stroke="#000" stroke-linecap="round" stroke-linejoin="round" stroke-width="2"/>
    <path id="Path_1166" data-name="Path 1166" d="M128.254-255.278a44.176,44.176,0,0,0-8.559,0l-1.409,6.862a37.607,37.607,0,0,0-7.973,2.136l-4.652-5.238a44.245,44.245,0,0,0-7.412,4.279l2.211,6.648a37.593,37.593,0,0,0-5.837,5.837l-6.648-2.211a44.254,44.254,0,0,0-4.279,7.412l5.238,4.652a37.607,37.607,0,0,0-2.136,7.973l-6.863,1.409a44.249,44.249,0,0,0,0,8.559l6.863,1.409a37.611,37.611,0,0,0,2.136,7.974l-5.238,4.652a44.254,44.254,0,0,0,4.279,7.412l6.648-2.211a37.594,37.594,0,0,0,5.837,5.837l-2.211,6.648a44.246,44.246,0,0,0,7.412,4.279l4.652-5.238a37.607,37.607,0,0,0,7.973,2.136l1.409,6.863a44.256,44.256,0,0,0,8.559,0l1.409-6.863a37.607,37.607,0,0,0,7.973-2.136l4.652,5.238a44.246,44.246,0,0,0,7.412-4.279l-2.211-6.648a37.6,37.6,0,0,0,5.837-5.837l6.648,2.211a44.245,44.245,0,0,0,4.279-7.412l-5.238-4.652a37.622,37.622,0,0,0,2.136-7.974l6.863-1.409a44.266,44.266,0,0,0,0-8.559l-6.863-1.409a37.617,37.617,0,0,0-2.136-7.973l5.238-4.652a44.244,44.244,0,0,0-4.279-7.412l-6.648,2.211a37.594,37.594,0,0,0-5.837-5.837l2.211-6.648a44.245,44.245,0,0,0-7.412-4.279l-4.652,5.238a37.607,37.607,0,0,0-7.973-2.136Zm-4.28,20.326a23.726,23.726,0,0,1,23.714,23.714,23.726,23.726,0,0,1-23.714,23.714,23.725,23.725,0,0,1-23.714-23.714A23.726,23.726,0,0,1,123.974-234.952Z" transform="translate(-35.143 -27.372)" fill="#fff" stroke="red" stroke-linecap="round" stroke-linejoin="round" stroke-width="2" fill-rule="evenodd"/>
    <path id="Path_1167" data-name="Path 1167" d="M237.31-316.314a23.362,23.362,0,0,0-6.758.361,3.136,3.136,0,0,1-1.084,3.184,20.534,20.534,0,0,0-6.082,2.909,3.136,3.136,0,0,1-3.159-1.155,23.366,23.366,0,0,0-4.523,5.034,3.137,3.137,0,0,1,1.486,3.019,20.532,20.532,0,0,0-2.244,6.357,3.136,3.136,0,0,1-3.051,1.418,23.363,23.363,0,0,0,.361,6.758,3.136,3.136,0,0,1,3.184,1.084,20.532,20.532,0,0,0,2.909,6.082,3.136,3.136,0,0,1-1.155,3.16,23.366,23.366,0,0,0,5.034,4.523,3.138,3.138,0,0,1,3.019-1.485,20.53,20.53,0,0,0,6.357,2.244,3.137,3.137,0,0,1,1.418,3.051,23.364,23.364,0,0,0,6.758-.361,3.137,3.137,0,0,1,1.084-3.185,20.53,20.53,0,0,0,6.082-2.908,3.137,3.137,0,0,1,3.16,1.155,23.366,23.366,0,0,0,4.523-5.034,3.138,3.138,0,0,1-1.485-3.018,20.535,20.535,0,0,0,2.244-6.358,3.137,3.137,0,0,1,3.051-1.417,23.363,23.363,0,0,0-.361-6.758,3.137,3.137,0,0,1-3.185-1.084,20.533,20.533,0,0,0-2.908-6.082,3.136,3.136,0,0,1,1.155-3.159,23.368,23.368,0,0,0-5.034-4.523,3.137,3.137,0,0,1-3.018,1.486,20.535,20.535,0,0,0-6.358-2.244A3.136,3.136,0,0,1,237.31-316.314Zm-2.615,14.467a8.82,8.82,0,0,1,9.274,8.333,8.821,8.821,0,0,1-8.333,9.274,8.82,8.82,0,0,1-9.274-8.333A8.82,8.82,0,0,1,234.695-301.847Z" transform="translate(-94.477)" fill="none" stroke="#000" stroke-linecap="round" stroke-linejoin="round" stroke-width="2"/>
    <path id="Path_1168" data-name="Path 1168" d="M176.776-303.525a12.518,12.518,0,0,0-2.419.129,2.185,2.185,0,0,1-.367,1.611,11.02,11.02,0,0,0-2.3.748,2.182,2.182,0,0,1-1.247-1.084,12.533,12.533,0,0,0-2.03,1.322,2.183,2.183,0,0,1,.487,1.579,11.009,11.009,0,0,0-1.614,1.8,2.18,2.18,0,0,1-1.622-.316,12.54,12.54,0,0,0-1.1,2.16,2.183,2.183,0,0,1,1.212,1.124,11,11,0,0,0-.5,2.363,2.183,2.183,0,0,1-1.562.538,12.518,12.518,0,0,0,.129,2.419,2.181,2.181,0,0,1,1.611.368,11.026,11.026,0,0,0,.748,2.3,2.182,2.182,0,0,1-1.084,1.247,12.535,12.535,0,0,0,1.322,2.03,2.183,2.183,0,0,1,1.579-.487,10.981,10.981,0,0,0,1.8,1.614,2.18,2.18,0,0,1-.316,1.622,12.5,12.5,0,0,0,2.16,1.1,2.182,2.182,0,0,1,1.124-1.211,11,11,0,0,0,2.363.5,2.182,2.182,0,0,1,.538,1.562,12.515,12.515,0,0,0,2.419-.129,2.182,2.182,0,0,1,.368-1.611,11.009,11.009,0,0,0,2.3-.748,2.183,2.183,0,0,1,1.246,1.084,12.558,12.558,0,0,0,2.031-1.321,2.182,2.182,0,0,1-.487-1.579,11.015,11.015,0,0,0,1.614-1.8,2.181,2.181,0,0,1,1.621.316,12.5,12.5,0,0,0,1.1-2.16,2.182,2.182,0,0,1-1.211-1.124,10.993,10.993,0,0,0,.5-2.363,2.185,2.185,0,0,1,1.562-.538,12.518,12.518,0,0,0-.129-2.419,2.185,2.185,0,0,1-1.611-.367,10.955,10.955,0,0,0-.748-2.3,2.184,2.184,0,0,1,1.084-1.247,12.532,12.532,0,0,0-1.321-2.03,2.184,2.184,0,0,1-1.579.487,11.011,11.011,0,0,0-1.8-1.614,2.185,2.185,0,0,1,.316-1.622,12.516,12.516,0,0,0-2.159-1.1,2.181,2.181,0,0,1-1.124,1.211,11.028,11.028,0,0,0-2.363-.5A2.181,2.181,0,0,1,176.776-303.525Zm-.66,10.356a2.16,2.16,0,0,1,2.272,2.041,2.16,2.16,0,0,1-2.041,2.272,2.161,2.161,0,0,1-2.272-2.041A2.16,2.16,0,0,1,176.117-293.168Z" transform="translate(-72.873 -5.785)" fill="none" stroke="#ffd525" stroke-linecap="round" stroke-linejoin="round" stroke-width="2"/>
    <path id="Path_1169" data-name="Path 1169" d="M196.091-279.243a26.507,26.507,0,0,1,26.494,26.494,26.506,26.506,0,0,1-26.494,26.494A26.507,26.507,0,0,1,169.6-252.749,26.507,26.507,0,0,1,196.091-279.243Z" transform="translate(-75.519 -16.699)" fill="none" stroke="#fff" stroke-linecap="round" stroke-linejoin="round" stroke-width="6"/>
    <path id="Path_1170" data-name="Path 1170" d="M196.091-279.243a26.507,26.507,0,0,1,26.494,26.494,26.506,26.506,0,0,1-26.494,26.494A26.507,26.507,0,0,1,169.6-252.749,26.507,26.507,0,0,1,196.091-279.243Z" transform="translate(-75.519 -16.699)" fill="none" stroke="#000" stroke-linecap="round" stroke-linejoin="round" stroke-width="2"/>
    <path id="Path_1171" data-name="Path 1171" d="M198.455-273.981a23.607,23.607,0,0,1,23.6,23.6,23.607,23.607,0,0,1-23.6,23.6,23.607,23.607,0,0,1-23.6-23.6A23.607,23.607,0,0,1,198.455-273.981Z" transform="translate(-77.883 -19.063)" fill="#fff" fill-rule="evenodd"/>
    <path id="Path_1172" data-name="Path 1172" d="M273.6-176.862l-4.834,4.834,14.752,14.752a3.418,3.418,0,0,0,4.834,0h0a3.419,3.419,0,0,0,0-4.834Z" transform="translate(-120.071 -62.694)" fill-rule="evenodd"/>
    <path id="Path_1173" data-name="Path 1173" d="M250.369-198.046l-2.788,2.788,21.275,21.274,2.788-2.788Z" transform="translate(-110.553 -53.177)" fill-rule="evenodd"/>
    <path id="Path_1174" data-name="Path 1174" d="M201.645-213.637h2.963v-13.9h-2.963Z" transform="translate(-89.916 -39.928)" fill="none" stroke="#000" stroke-linecap="round" stroke-linejoin="round" stroke-width="2"/>
    <path id="Path_1175" data-name="Path 1175" d="M211.764-218.582h2.963v-19.964h-2.963Z" transform="translate(-94.462 -34.983)" fill="none" stroke="#000" stroke-linecap="round" stroke-linejoin="round" stroke-width="2"/>
    <path id="Path_1176" data-name="Path 1176" d="M221.884-223.285h2.963v-25.729h-2.963Z" transform="translate(-99.009 -30.279)" fill="none" stroke="red" stroke-linecap="round" stroke-linejoin="round" stroke-width="2"/>
    <path id="Path_1177" data-name="Path 1177" d="M232.236-227.347H235.2v-30.708h-2.963Z" transform="translate(-103.66 -26.218)" fill="none" stroke="#000" stroke-linecap="round" stroke-linejoin="round" stroke-width="2"/>
    <path id="Path_1178" data-name="Path 1178" d="M219.325-264.373l3.5.209-.208,3.5" transform="translate(-97.859 -23.379)" fill="none" stroke="#000" stroke-linecap="round" stroke-miterlimit="10" stroke-width="2"/>
    <path id="Path_1179" data-name="Path 1179" d="M186.449-244.818l21.6-19.176" transform="translate(-83.09 -23.55)" fill="none" stroke="#000" stroke-linecap="round" stroke-linejoin="round" stroke-miterlimit="10" stroke-width="2"/>
  </g>
</svg>
