<svg xmlns="http://www.w3.org/2000/svg" width="488.353" height="725.833" viewBox="0 0 488.353 725.833">
  <g id="Group_194" data-name="Group 194" transform="translate(-925.37 -4466.308)">
    <path id="Path_1487" data-name="Path 1487" d="M453.993-46.884A12.432,12.432,0,0,1,466.42-34.457a12.432,12.432,0,0,1-12.426,12.426,12.432,12.432,0,0,1-12.426-12.426A12.432,12.432,0,0,1,453.993-46.884Z" transform="matrix(0.966, -0.259, 0.259, 0.966, 675.613, 5046.505)" fill="rgba(0,0,0,0)" stroke="#000" stroke-linecap="round" stroke-linejoin="round" stroke-width="2"/>
    <path id="Path_1488" data-name="Path 1488" d="M86.513-62.632,70.934-78.21,55.356-62.632,70.934-47.053Z" transform="translate(1120.645 4675.98)" fill="rgba(0,0,0,0)" stroke="#000" stroke-linecap="round" stroke-linejoin="round" stroke-width="2"/>
    <g id="Group_193" data-name="Group 193">
      <g id="Group_180" data-name="Group 180" transform="translate(993.503 4704.418) rotate(-16)">
        <g id="Group">
          <text id="SE" transform="translate(0 132)" fill="none" stroke="#000" stroke-width="3" font-size="138" font-family="CorporativeSlab-Bold, Corporative Slab" font-weight="700"><tspan x="0" y="0">SE</tspan></text>
          <text id="O" transform="translate(174.36 131)" fill="none" stroke="#000" stroke-width="3" font-size="137" font-family="CorporativeSlab-Bold, Corporative Slab" font-weight="700"><tspan x="0" y="0">O</tspan></text>
        </g>
      </g>
      <path id="Path_1437" data-name="Path 1437" d="M274.586-378.551A115.135,115.135,0,0,1,389.666-263.47a115.135,115.135,0,0,1-115.08,115.081A115.136,115.136,0,0,1,159.505-263.47,115.136,115.136,0,0,1,274.586-378.551Z" transform="translate(833.998 5139.004)" fill="none" stroke="#000" stroke-linecap="round" stroke-linejoin="round" stroke-width="2" stroke-dasharray="9 15 0 0"/>
      <text id="_" data-name="?" transform="translate(978.874 4670.549) rotate(-17)" font-size="191" font-family="CorporativeSlab-Bold, Corporative Slab" font-weight="700"><tspan x="0" y="0">?</tspan></text>
      <text id="_2" data-name="?" transform="translate(1318.962 4530.26) rotate(24)" fill="#ffd525" font-size="109" font-family="CorporativeSlab-Bold, Corporative Slab" font-weight="700"><tspan x="0" y="104">?</tspan></text>
      <text id="_3" data-name="?" transform="matrix(0.978, 0.208, -0.208, 0.978, 1160.743, 5054.469)" fill="none" stroke="#f53c37" stroke-width="4" font-size="348" font-family="CorporativeSlab-Bold, Corporative Slab" font-weight="700"><tspan x="0" y="0">?</tspan></text>
    </g>
  </g>
</svg>
