<svg xmlns="http://www.w3.org/2000/svg" width="314.516" height="211.259" viewBox="0 0 314.516 211.259">
  <g id="Group_173" data-name="Group 173" transform="translate(0 310.115)">
    <path id="Path_1386" data-name="Path 1386" d="M241.019-110.768v6.383H188.25v6.37H312.092v-6.37H259.323v-6.383h73.364V-225.339H167.654v114.571Z" transform="translate(-46.702 -35.493)" fill="#fff" stroke="#000" stroke-linecap="round" stroke-linejoin="round" stroke-width="3" fill-rule="evenodd"/>
    <path id="Path_1387" data-name="Path 1387" d="M175.065-113.93H329.443V-218.116H175.065Z" transform="translate(-48.785 -37.523)" fill="#fff" stroke="#000" stroke-linecap="round" stroke-linejoin="round" stroke-width="3" fill-rule="evenodd"/>
    <path id="Path_1388" data-name="Path 1388" d="M105.344-212.513A9.488,9.488,0,0,0,95.856-222H10.988A9.488,9.488,0,0,0,1.5-212.513v105.948a9.488,9.488,0,0,0,9.488,9.488H95.856a9.488,9.488,0,0,0,9.488-9.488Z" transform="translate(0 -36.431)" fill="#fff" stroke="#000" stroke-linecap="round" stroke-linejoin="round" stroke-width="3" fill-rule="evenodd"/>
    <path id="Path_1389" data-name="Path 1389" d="M98.751-199.258a9.488,9.488,0,0,0-2.779-6.709,9.488,9.488,0,0,0-6.709-2.779H26.045a9.488,9.488,0,0,0-6.709,2.779,9.488,9.488,0,0,0-2.779,6.709v59.474a9.487,9.487,0,0,0,2.779,6.709,9.485,9.485,0,0,0,6.709,2.779H89.264a9.486,9.486,0,0,0,6.709-2.779,9.487,9.487,0,0,0,2.779-6.709Z" transform="translate(-4.232 -40.156)" fill="#fff" stroke="#000" stroke-linecap="round" stroke-linejoin="round" stroke-width="3" fill-rule="evenodd"/>
    <path id="Path_1390" data-name="Path 1390" d="M287.841-134.11h-9.375" transform="translate(-77.849 -61.135)" fill="none" stroke="#f53c37" stroke-linejoin="round" stroke-width="1.7"/>
    <path id="Path_1391" data-name="Path 1391" d="M295.882-157.3H263.85" transform="translate(-73.741 -54.616)" fill="none" stroke="#f53c37" stroke-linejoin="round" stroke-width="1.7"/>
    <path id="Path_1392" data-name="Path 1392" d="M292.9-150.024H265.569" transform="translate(-74.224 -56.662)" fill="none" stroke="#f53c37" stroke-linejoin="round" stroke-width="1.7"/>
    <path id="Path_1393" data-name="Path 1393" d="M278.105-148.975v-15.609" transform="translate(-77.748 -52.569)" fill="none" stroke="#f53c37" stroke-linejoin="round" stroke-width="1.7"/>
    <path id="Path_1394" data-name="Path 1394" d="M292.627-148.975v-15.609" transform="translate(-81.829 -52.569)" fill="none" stroke="#f53c37" stroke-linejoin="round" stroke-width="1.7"/>
    <path id="Path_1395" data-name="Path 1395" d="M259.665-164.459h37.994L288.7-148.85h-22.65Z" transform="translate(-72.564 -52.605)" fill="none" stroke="#f53c37" stroke-linecap="round" stroke-linejoin="round" stroke-width="3"/>
    <path id="Path_1396" data-name="Path 1396" d="M294.691-138.541a3.187,3.187,0,0,0-3.185,3.186,3.186,3.186,0,0,0,3.185,3.185,3.187,3.187,0,0,0,3.186-3.185A3.188,3.188,0,0,0,294.691-138.541Z" transform="translate(-81.514 -59.89)" fill="none" stroke="#f53c37" stroke-linecap="round" stroke-linejoin="round" stroke-width="3"/>
    <path id="Path_1397" data-name="Path 1397" d="M272.791-138.541a3.187,3.187,0,0,0-3.185,3.186,3.186,3.186,0,0,0,3.185,3.185,3.186,3.186,0,0,0,3.185-3.185A3.187,3.187,0,0,0,272.791-138.541Z" transform="translate(-75.359 -59.89)" fill="none" stroke="#f53c37" stroke-linecap="round" stroke-linejoin="round" stroke-width="3"/>
    <path id="Path_1398" data-name="Path 1398" d="M260.777-168.459,257.01-178.69h-8.429" transform="translate(-69.449 -48.605)" fill="none" stroke="#f53c37" stroke-linecap="round" stroke-linejoin="round" stroke-width="3"/>
    <path id="Path_1399" data-name="Path 1399" d="M156.916-84.926,181.86-115.25l40.5,22.546h90.156" transform="translate(-43.684 -66.436)" fill="none" stroke="#000" stroke-linecap="round" stroke-linejoin="round" stroke-width="3"/>
    <path id="Path_1400" data-name="Path 1400" d="M185.14-129.433l22.518-22.874,66.9,16.411,88.191-110.028" transform="translate(-51.617 -29.707)" fill="none" stroke="#f53c37" stroke-linejoin="round" stroke-width="8.669"/>
    <path id="Path_1401" data-name="Path 1401" d="M179.107-31.191,162.794-47.5,146.48-31.191l16.314,16.314Z" transform="translate(-40.751 -85.478)" fill="none" stroke="#f53c37" stroke-linecap="round" stroke-linejoin="round" stroke-width="3"/>
    <path id="Path_1402" data-name="Path 1402" d="M48.77-291.8A16.321,16.321,0,0,1,65.084-275.49,16.321,16.321,0,0,1,48.77-259.176,16.321,16.321,0,0,1,32.457-275.49,16.321,16.321,0,0,1,48.77-291.8Z" transform="translate(-8.701 -16.811)" fill="none" stroke="#000" stroke-linecap="round" stroke-linejoin="round" stroke-width="3"/>
    <path id="Path_1403" data-name="Path 1403" d="M85.438-156.858h-33.4l5.9,14.7h21.6Z" transform="translate(-14.205 -54.741)" fill="none" stroke="#000" stroke-linecap="round" stroke-linejoin="round" stroke-width="3"/>
    <path id="Path_1404" data-name="Path 1404" d="M64.543-156.858v14.7" transform="translate(-17.72 -54.741)" fill="none" stroke="#000" stroke-linecap="round" stroke-linejoin="round" stroke-width="3"/>
    <path id="Path_1405" data-name="Path 1405" d="M75.605-156.858v14.7" transform="translate(-20.829 -54.741)" fill="none" stroke="#000" stroke-linecap="round" stroke-linejoin="round" stroke-width="3"/>
    <path id="Path_1406" data-name="Path 1406" d="M86.668-156.858v14.7" transform="translate(-23.939 -54.741)" fill="none" stroke="#000" stroke-linecap="round" stroke-linejoin="round" stroke-width="3"/>
    <path id="Path_1407" data-name="Path 1407" d="M84.277-149.172H55.8" transform="translate(-15.263 -56.901)" fill="none" stroke="#000" stroke-linecap="round" stroke-linejoin="round" stroke-width="3"/>
    <path id="Path_1408" data-name="Path 1408" d="M82.839-142.075H57.973" transform="translate(-15.873 -58.896)" fill="none" stroke="#000" stroke-linecap="round" stroke-linejoin="round" stroke-width="3"/>
    <path id="Path_1409" data-name="Path 1409" d="M82.073-161.8l-3.435-12.631" transform="translate(-21.682 -49.803)" fill="none" stroke="#000" stroke-linecap="round" stroke-linejoin="round" stroke-width="3"/>
    <path id="Path_1410" data-name="Path 1410" d="M67.795-161.8l3.435-12.631" transform="translate(-18.634 -49.803)" fill="none" stroke="#000" stroke-linecap="round" stroke-linejoin="round" stroke-width="3"/>
    <path id="Path_1411" data-name="Path 1411" d="M75.267-215.7a76.136,76.136,0,0,1,76.1-76.1c46.785,0,78.808,33.643,76.1,80.429" transform="translate(-20.734 -16.811)" fill="none" stroke="#f53c37" stroke-linecap="round" stroke-linejoin="round" stroke-width="3"/>
    <path id="Path_1412" data-name="Path 1412" d="M294.193-200.722l-11.859,14.948-11.858-14.948" transform="translate(-75.603 -42.412)" fill="none" stroke="#f53c37" stroke-linecap="round" stroke-linejoin="round" stroke-width="3"/>
    <path id="Path_1413" data-name="Path 1413" d="M24.214-77.123H36.955V-87.167H24.214Z" transform="translate(-6.384 -74.33)" fill="none" stroke="#000" stroke-linecap="round" stroke-linejoin="round" stroke-width="3"/>
    <path id="Path_1414" data-name="Path 1414" d="M92.651-78.652h23.8v-5.022h-23.8Z" transform="translate(-25.621 -75.311)" fill="none" stroke="#000" stroke-linecap="round" stroke-linejoin="round" stroke-width="3"/>
  </g>
</svg>
