<svg xmlns="http://www.w3.org/2000/svg" width="408.835" height="328.536" viewBox="0 0 408.835 328.536">
  <g id="Group_191" data-name="Group 191" transform="translate(0 329.157)">
    <path id="Path_1462" data-name="Path 1462" d="M344.938-221.182v-64.925H82.655v182.084H344.938" fill="none" stroke="#000" stroke-linecap="round" stroke-linejoin="round" stroke-width="3"/>
    <path id="Path_1463" data-name="Path 1463" d="M336.471-221.57v-56.286H91.121v165.581H317.975" fill="none" stroke="#000" stroke-linecap="round" stroke-linejoin="round" stroke-width="3"/>
    <path id="Path_1464" data-name="Path 1464" d="M119.906-237.1H275.323v-11.644H119.906Z" fill="none" stroke="red" stroke-linecap="round" stroke-linejoin="round" stroke-width="3"/>
    <path id="Path_1465" data-name="Path 1465" d="M384.643-287.958a22.7,22.7,0,0,1,22.692,22.692,22.7,22.7,0,0,1-22.692,22.692,22.7,22.7,0,0,1-22.692-22.692A22.7,22.7,0,0,1,384.643-287.958Z" fill="none" stroke="#000" stroke-linecap="round" stroke-linejoin="round" stroke-width="3"/>
    <path id="Path_1466" data-name="Path 1466" d="M289.881-304.076A115.131,115.131,0,0,1,404.957-189,115.131,115.131,0,0,1,289.881-73.923,115.131,115.131,0,0,1,174.8-189,115.131,115.131,0,0,1,289.881-304.076Z" fill="none" stroke="#000" stroke-linecap="round" stroke-linejoin="round" stroke-width="3" stroke-dasharray="9 15 0 0"/>
    <path id="Path_1467" data-name="Path 1467" d="M189.836-32.268,159.69-62.414,129.543-32.268,159.69-2.121Z" fill="#fff" stroke="#f53c37" stroke-linecap="round" stroke-linejoin="round" stroke-width="3" fill-rule="evenodd"/>
    <path id="Path_1468" data-name="Path 1468" d="M1.5-166.943H58.39" fill="none" stroke="#000" stroke-linecap="round" stroke-linejoin="round" stroke-width="3"/>
    <path id="Path_1469" data-name="Path 1469" d="M1.5-153.977H58.39" fill="none" stroke="#000" stroke-linecap="round" stroke-linejoin="round" stroke-width="3"/>
    <path id="Path_1470" data-name="Path 1470" d="M1.5-141.01H58.39" fill="none" stroke="#000" stroke-linecap="round" stroke-linejoin="round" stroke-width="3"/>
    <path id="Path_1471" data-name="Path 1471" d="M319.033-192.115,314.5-204.67l4.915-1.775a5.228,5.228,0,0,1,6.692,3.14" fill="none" stroke="#f53c37" stroke-linecap="round" stroke-linejoin="round" stroke-width="3"/>
    <path id="Path_1472" data-name="Path 1472" d="M352.085-192.8a103.963,103.963,0,0,1,5.261,29.1c.11,3.2.1,4.564.1,4.564" fill="none" stroke="#f53c37" stroke-linecap="round" stroke-linejoin="round" stroke-width="3"/>
    <path id="Path_1473" data-name="Path 1473" d="M313.094-177.786l-6.574-7.6a6.2,6.2,0,0,0-6.788-1.773,6.2,6.2,0,0,0-3.725,7.933A34.721,34.721,0,0,0,306.643-164.1a40.04,40.04,0,0,0,6.27,4.251,37.222,37.222,0,0,1,13,12.09" fill="none" stroke="#f53c37" stroke-linecap="round" stroke-linejoin="round" stroke-width="3"/>
    <path id="Path_1474" data-name="Path 1474" d="M314.5-204.67l-4.715-13.059a5.226,5.226,0,0,0-6.69-3.141,5.229,5.229,0,0,0-3.142,6.691l13.142,36.4" fill="none" stroke="#f53c37" stroke-linecap="round" stroke-linejoin="round" stroke-width="3"/>
    <path id="Path_1475" data-name="Path 1475" d="M330.191-191.993l-4.533-12.555,4.914-1.774a5.226,5.226,0,0,1,6.692,3.139l4.3,11.9" fill="none" stroke="#f53c37" stroke-linecap="round" stroke-linejoin="round" stroke-width="3"/>
    <path id="Path_1476" data-name="Path 1476" d="M337.756-201.821l4.914-1.774a5.225,5.225,0,0,1,6.691,3.14l2.758,7.64" fill="none" stroke="#f53c37" stroke-linecap="round" stroke-linejoin="round" stroke-width="3"/>
    <path id="Path_1477" data-name="Path 1477" d="M328.579-127.869l-3.76-10.832,38.115-13.763,3.76,10.831" fill="#ffd525" stroke="#f53c37" stroke-linecap="round" stroke-linejoin="round" stroke-width="3"/>
    <path id="Path_1478" data-name="Path 1478" d="M328.782-111.652l-4.916-14.164,49.84-18,13.981,40.277" fill="none" stroke="#f53c37" stroke-linecap="round" stroke-linejoin="round" stroke-width="3"/>
    <path id="Path_1479" data-name="Path 1479" d="M370.615-131.215a3.482,3.482,0,0,0-4.459-2.093,3.484,3.484,0,0,0-2.088,4.457,3.479,3.479,0,0,0,4.452,2.09A3.482,3.482,0,0,0,370.615-131.215Z" fill="none" stroke="#f53c37" stroke-linecap="round" stroke-linejoin="round" stroke-width="3"/>
    <path id="Path_1480" data-name="Path 1480" d="M310.131-242.377a9.875,9.875,0,0,0-9.526-10.214,9.873,9.873,0,0,0-10.212,9.525,9.873,9.873,0,0,0,9.523,10.213A9.875,9.875,0,0,0,310.131-242.377Z" fill="none" stroke="#121212" stroke-linecap="round" stroke-linejoin="round" stroke-width="3"/>
    <path id="Path_1481" data-name="Path 1481" d="M307.893-236.454l6.325,6.782a1.311,1.311,0,0,1-.065,1.847,1.31,1.31,0,0,1-1.849-.064l-6.322-6.783" fill="none" stroke="#121212" stroke-linecap="round" stroke-linejoin="round" stroke-width="3"/>
    <path id="Path_1482" data-name="Path 1482" d="M123.161-212.336H275.323l-151.359,25.7H275.323l-150.957,25.3H275.323" fill="none" stroke="#121212" stroke-linecap="round" stroke-linejoin="round" stroke-width="3"/>
    <path id="Path_1483" data-name="Path 1483" d="M82.65-256.961s-33.578,1.638-60.874-35.33c27.3-36.968,60.874-35.33,60.874-35.33" fill="#fff" stroke="#f53c37" stroke-linecap="round" stroke-linejoin="round" stroke-width="3" fill-rule="evenodd"/>
    <path id="Path_1484" data-name="Path 1484" d="M82.65-256.961s33.587,1.638,60.883-35.33c-27.3-36.968-60.883-35.33-60.883-35.33" fill="#fff" stroke="#f53c37" stroke-linecap="round" stroke-linejoin="round" stroke-width="3" fill-rule="evenodd"/>
    <path id="Path_1485" data-name="Path 1485" d="M117.979-292.291a35.327,35.327,0,0,0-35.329-35.33,35.333,35.333,0,0,0-35.329,35.33,35.335,35.335,0,0,0,35.329,35.33A35.329,35.329,0,0,0,117.979-292.291Z" fill="#fff" stroke="#f53c37" stroke-linecap="round" stroke-linejoin="round" stroke-width="3" fill-rule="evenodd"/>
    <path id="Path_1486" data-name="Path 1486" d="M96.4-292.291A13.753,13.753,0,0,0,82.65-306.045,13.755,13.755,0,0,0,68.9-292.291,13.757,13.757,0,0,0,82.65-278.536,13.755,13.755,0,0,0,96.4-292.291Z" fill="#ffd525" stroke="#f53c37" stroke-linecap="round" stroke-linejoin="round" stroke-width="3" fill-rule="evenodd"/>
  </g>
</svg>
