<svg xmlns="http://www.w3.org/2000/svg" width="591.299" height="492.482" viewBox="0 0 591.299 492.482">
  <g id="Group_217" data-name="Group 217" transform="translate(-1175 -4464.565)">
    <g id="Group_120" data-name="Group 120" transform="translate(1203.879 4854.061)">
      <path id="Path_1222" data-name="Path 1222" d="M293.843-378.551A134.4,134.4,0,0,1,428.179-244.213,134.4,134.4,0,0,1,293.843-109.876,134.4,134.4,0,0,1,159.505-244.213,134.4,134.4,0,0,1,293.843-378.551Z" transform="translate(133.241 211.862)" fill="none" stroke="#000" stroke-linecap="round" stroke-linejoin="round" stroke-width="2" stroke-dasharray="9 15 0 0"/>
      <path id="Path_1223" data-name="Path 1223" d="M290.1-111.445l63.528-132.98L364.44-143.051l63.528-162.2L445.539-180.9,533.4-366.075" transform="translate(9.906 -22.088)" fill="none" stroke="#000" stroke-linecap="round" stroke-linejoin="round" stroke-width="2"/>
      <g id="Group_84" data-name="Group 84" transform="translate(117.396 -335.506)">
        <g id="Group">
          <text id="SE" transform="translate(0 120)" font-size="126" font-family="CorporativeSlab-Bold, Corporative Slab" font-weight="700"><tspan x="0" y="0">SE</tspan></text>
          <text id="O" transform="translate(158.907 118)" font-size="123" font-family="CorporativeSlab-Bold, Corporative Slab" font-weight="700"><tspan x="0" y="0">O</tspan></text>
        </g>
      </g>
      <path id="Path_1224" data-name="Path 1224" d="M417.364-129.385l3.7,10.268s-109.535-40.255-179.9,6.895c0,0-99.379-77.257-181.348-6.895l6.376-13.877" transform="translate(7.259 28.921)" fill="none" stroke="#000" stroke-linecap="round" stroke-linejoin="round" stroke-width="2"/>
      <path id="Path_1225" data-name="Path 1225" d="M417.364-121l3.7,10.268s-109.535-47.3-179.9-.15c0,0-99.379-70.213-181.348.15l6.376-13.876" transform="translate(7.259 29.758)" fill="none" stroke="#000" stroke-linecap="round" stroke-linejoin="round" stroke-width="2"/>
      <path id="Path_1226" data-name="Path 1226" d="M417.364-112.681l3.7,10.267s-109.083-54.064-179.446-6.914c0,0-99.83-63.449-181.8,6.914l6.376-13.877" transform="translate(7.259 30.571)" fill="none" stroke="#000" stroke-linecap="round" stroke-linejoin="round" stroke-width="2"/>
      <path id="Path_1227" data-name="Path 1227" d="M417.364-104.752l3.7,10.268S311.977-155.253,241.614-108.1c0,0-99.83-56.744-181.8,13.62L66.19-108.36" transform="translate(7.259 31.308)" fill="none" stroke="#000" stroke-linecap="round" stroke-linejoin="round" stroke-width="2"/>
      <path id="Path_1228" data-name="Path 1228" d="M53.215-190.616,27.668-216.162,2.121-190.616l25.547,25.547Z" transform="translate(448.615 217.292)" fill="none" stroke="#f53c37" stroke-linecap="round" stroke-linejoin="round" stroke-width="2"/>
      <path id="Path_1229" data-name="Path 1229" d="M23.1-279.314H87.145" transform="translate(125.997 342.486)" fill="none" stroke="#000" stroke-linecap="round" stroke-linejoin="round" stroke-width="2"/>
      <path id="Path_1230" data-name="Path 1230" d="M23.1-266.348H87.145" transform="translate(125.997 344.118)" fill="none" stroke="#000" stroke-linecap="round" stroke-linejoin="round" stroke-width="2"/>
      <path id="Path_1231" data-name="Path 1231" d="M23.1-253.381H87.145" transform="translate(125.997 345.749)" fill="none" stroke="#000" stroke-linecap="round" stroke-linejoin="round" stroke-width="2"/>
      <path id="Path_1232" data-name="Path 1232" d="M91.031-46.884a25.559,25.559,0,0,1,25.547,25.547A25.559,25.559,0,0,1,91.031,4.21,25.559,25.559,0,0,1,65.485-21.337,25.559,25.559,0,0,1,91.031-46.884Z" transform="translate(-93.363 73.559)" fill="none" stroke="#000" stroke-linecap="round" stroke-linejoin="round" stroke-width="2"/>
      <path id="Path_1233" data-name="Path 1233" d="M96.195-202.14l-18.256-2.536L67.774-189.923H90.582" transform="translate(8.261 21.877)" fill="none" stroke="#000" stroke-linecap="round" stroke-linejoin="round" stroke-width="2"/>
      <path id="Path_1234" data-name="Path 1234" d="M365.048-173.017l18.256-2.535L393.468-160.8H370.661" transform="translate(45.664 25.542)" fill="none" stroke="#000" stroke-linecap="round" stroke-linejoin="round" stroke-width="2"/>
      <path id="Path_1235" data-name="Path 1235" d="M374.766-148.267l6.648-2.536,3.7,14.752-6.657.279" transform="translate(46.887 28.656)" fill="none" stroke="#000" stroke-linecap="round" stroke-linejoin="round" stroke-width="2"/>
      <path id="Path_1236" data-name="Path 1236" d="M84-179.568,73.577-182.1l-5.8,14.752,11.492-.784" transform="translate(8.261 24.718)" fill="none" stroke="red" stroke-linecap="round" stroke-linejoin="round" stroke-width="2"/>
      <path id="Path_1237" data-name="Path 1237" d="M109.141-222.058s62.384-57.306,126.218-8.7c0,0,73.265-53.678,145.8,5.8l39.9,110.26s-109.535-31.55-179.9,15.6c0,0-99.379-85.962-181.348-15.6Z" transform="translate(7.259 15.799)" fill="#fff" stroke="red" stroke-linecap="round" stroke-linejoin="round" stroke-width="2" fill-rule="evenodd"/>
      <path id="Path_1238" data-name="Path 1238" d="M337.8-215.961s-23.245-11.808-51.826-12.865" transform="translate(35.715 18.839)" fill="none" stroke="#000" stroke-linecap="round" stroke-linejoin="round" stroke-width="2"/>
      <path id="Path_1239" data-name="Path 1239" d="M263.09-226.028a78.785,78.785,0,0,0-25.265,12.043" transform="translate(29.657 19.191)" fill="none" stroke="#000" stroke-linecap="round" stroke-linejoin="round" stroke-width="2"/>
      <path id="Path_1240" data-name="Path 1240" d="M108.679-215.961a135.379,135.379,0,0,1,13.59-6.432,160.494,160.494,0,0,1,18.605-6.433" transform="translate(13.407 18.839)" fill="none" stroke="#000" stroke-linecap="round" stroke-linejoin="round" stroke-width="2"/>
      <path id="Path_1241" data-name="Path 1241" d="M145.625-230.579a110.244,110.244,0,0,1,15.984-2.062,83.49,83.49,0,0,1,14.665.477,66.706,66.706,0,0,1,11.426,2.428,56.481,56.481,0,0,1,22.57,13.165" transform="translate(18.056 18.343)" fill="none" stroke="#000" stroke-linecap="round" stroke-linejoin="round" stroke-width="2"/>
      <path id="Path_1242" data-name="Path 1242" d="M341.95-196.164a134.224,134.224,0,0,0-23.908-9.137,139.176,139.176,0,0,0-15.942-3.547" transform="translate(37.744 21.352)" fill="none" stroke="#000" stroke-linecap="round" stroke-linejoin="round" stroke-width="2"/>
      <path id="Path_1243" data-name="Path 1243" d="M294.684-210.13a98.658,98.658,0,0,0-15.637.707,85.7,85.7,0,0,0-10.466,1.993A76.526,76.526,0,0,0,242.7-195.384" transform="translate(30.271 21.184)" fill="none" stroke="#000" stroke-linecap="round" stroke-linejoin="round" stroke-width="2"/>
      <path id="Path_1244" data-name="Path 1244" d="M103.375-199.045s60.946-32.328,106.72.612" transform="translate(12.74 20.801)" fill="none" stroke="#000" stroke-linecap="round" stroke-linejoin="round" stroke-width="2"/>
      <path id="Path_1245" data-name="Path 1245" d="M355.6-176.428s-67.124-29.239-112.9,3.7" transform="translate(30.271 23.926)" fill="none" stroke="#000" stroke-linecap="round" stroke-linejoin="round" stroke-width="2"/>
      <path id="Path_1246" data-name="Path 1246" d="M97.887-179.564a162.618,162.618,0,0,1,29.441-8.8c4.769-.973,9.939-1.816,15.371-2.388" transform="translate(12.05 23.63)" fill="none" stroke="#000" stroke-linecap="round" stroke-linejoin="round" stroke-width="2"/>
      <path id="Path_1247" data-name="Path 1247" d="M153.323-191.4a107.186,107.186,0,0,1,19.774,2.281,81.316,81.316,0,0,1,30.714,13.344" transform="translate(19.025 23.547)" fill="none" stroke="#000" stroke-linecap="round" stroke-linejoin="round" stroke-width="2"/>
      <path id="Path_1248" data-name="Path 1248" d="M361.358-157.108s-69.527-22.525-115.3,10.415" transform="translate(30.693 26.917)" fill="none" stroke="#000" stroke-linecap="round" stroke-linejoin="round" stroke-width="2"/>
      <path id="Path_1249" data-name="Path 1249" d="M93.236-161.364s69.526-22.525,115.3,10.415" transform="translate(11.464 26.381)" fill="none" stroke="#000" stroke-linecap="round" stroke-linejoin="round" stroke-width="2"/>
      <path id="Path_1250" data-name="Path 1250" d="M215.74-233.247l5.8,131.663" transform="translate(26.878 18.283)" fill="none" stroke="red" stroke-linecap="round" stroke-linejoin="round" stroke-width="2"/>
      <path id="Path_1251" data-name="Path 1251" d="M295.185-249.566l-16.937-.393c9.091-4.3,12.65-12.66,4.946-29.277l20.632-.963C306.95-262.481,303.255-253.289,295.185-249.566Z" transform="translate(34.743 12.375)" fill="#fff" stroke="red" stroke-linecap="round" stroke-linejoin="round" stroke-width="2" fill-rule="evenodd"/>
      <path id="Path_1252" data-name="Path 1252" d="M57.213-156.106,11.9-74.484H479.081l-30.206-70.293" transform="translate(1.231 27.989)" fill="none" stroke="#000" stroke-linecap="round" stroke-linejoin="round" stroke-width="2"/>
      <path id="Path_1253" data-name="Path 1253" d="M11.9-83.606v15.031H479.081V-83.606" transform="translate(1.231 37.111)" fill="none" stroke="#000" stroke-linecap="round" stroke-linejoin="round" stroke-width="2"/>
      <g id="Group_133" data-name="Group 133" transform="matrix(-0.985, -0.174, 0.174, -0.985, 365.101, -104.326)">
        <path id="Path_1254" data-name="Path 1254" d="M189.558-105.989l9.693,3.638L190.3-97.664Z" transform="translate(23.584 34.295)" fill="red" fill-rule="evenodd"/>
        <path id="Path_1255" data-name="Path 1255" d="M193.207-107.652,75-101.016l.773,13.76,118.2-6.636,19.686-7.846Z" transform="translate(9.17 34.086)" fill="none" stroke="#000" stroke-linecap="round" stroke-linejoin="round" stroke-width="2"/>
        <path id="Path_1256" data-name="Path 1256" d="M180-107.652l.708,12.625" transform="translate(22.381 34.086)" fill="none" stroke="#000" stroke-linecap="round" stroke-linejoin="round" stroke-width="2"/>
        <path id="Path_1257" data-name="Path 1257" d="M80.33-101.369l.709,12.625" transform="translate(9.84 34.877)" fill="none" stroke="#000" stroke-linecap="round" stroke-linejoin="round" stroke-width="2"/>
      </g>
      <path id="Path_1258" data-name="Path 1258" d="M256.16-229.661c-9.583,2.895-22.353,9.024-26.551,16.567a18.48,18.48,0,0,0-2.287,5.2,4.475,4.475,0,0,0,1.111,4.121c2.313,2.4,5.9,3.211,9.89,3.133,5.314-.1,11.349-1.815,15.218-2.644,12.121-2.6,26.211-5.311,36.676-11.087a23.1,23.1,0,0,0,4.579-3.094c2.965-2.989,3.647-5.511,3.023-7.563-.632-2.083-2.655-3.772-5.489-5.033-5.047-2.245-12.723-3.164-17.893-3.172a61.02,61.02,0,0,0-17.268,2.508A1.306,1.306,0,0,0,256.16-229.661Zm11.771.41a3.9,3.9,0,0,0-.485-.048,32.936,32.936,0,0,0-9.187,1.647c-9,2.56-21.747,8.276-25.795,15.548a21.39,21.39,0,0,0-1.862,3.8c-.345,1.09-.5,2.2.31,3.037,1.7,1.759,4.4,2.222,7.332,2.164,5.06-.1,10.795-1.769,14.478-2.558,11.792-2.527,25.527-5.109,35.706-10.729a19.65,19.65,0,0,0,3.912-2.595c2.17-2.187,2.9-3.972,2.446-5.473-.445-1.468-1.992-2.575-3.988-3.463-4.612-2.052-11.64-2.848-16.366-2.854q-1.54,0-3.079.082a1.529,1.529,0,0,1,.546,1.021c.039.518-.237,1.323-1.787,2.022a1.8,1.8,0,0,1-2.129-.455A1,1,0,0,1,267.932-229.252Z" transform="translate(-140.81 -111.693) rotate(31)" fill="red" fill-rule="evenodd"/>
      <path id="Path_1259" data-name="Path 1259" d="M445.864-83.641l-19.43-12.932-18.3,14.482,6.3-22.475L395-117.5l23.32-.958,6.3-22.475,8.117,21.883,23.32-.957-18.3,14.481Z" transform="translate(-412.388 69.237)" fill="#fff" stroke="#000" stroke-linecap="round" stroke-linejoin="round" stroke-width="2" fill-rule="evenodd"/>
    </g>
  </g>
</svg>
