<?xml version="1.0" encoding="UTF-8" standalone="no"?><!DOCTYPE svg PUBLIC "-//W3C//DTD SVG 1.1//EN" "http://www.w3.org/Graphics/SVG/1.1/DTD/svg11.dtd"><svg width="100%" height="100%" viewBox="0 0 3561 3844" version="1.1" xmlns="http://www.w3.org/2000/svg" xmlns:xlink="http://www.w3.org/1999/xlink" xml:space="preserve" xmlns:serif="http://www.serif.com/" style="fill-rule:evenodd;clip-rule:evenodd;stroke-linecap:round;stroke-miterlimit:10;"><rect id="Artboard1" x="0" y="0" width="3560.01" height="3843.44" style="fill:none;"/><clipPath id="_clip1"><rect x="0" y="0" width="3560.01" height="3843.44"/></clipPath><g clip-path="url(#_clip1)"><g><g><path d="M1769.28,118.575l212.721,291.571l-291.571,212.716" style="fill:none;stroke:#f53c37;stroke-width:170.13px;"/><path d="M2100.86,428.729c898.029,173.529 1486.23,1043.5 1312.7,1941.53c-173.529,898.029 -1043.5,1486.23 -1941.53,1312.7c-898.03,-173.529 -1486.23,-1043.5 -1312.7,-1941.53c165.859,-858.333 967.95,-1433.63 1822.67,-1331.29" style="fill:none;stroke:#f53c37;stroke-width:170.13px;stroke-linejoin:round;stroke-miterlimit:1.5;"/></g><g><g><rect x="783.068" y="1747" width="1495.74" height="1167.86" style="fill:#fff;stroke:#000;stroke-width:170.13px;stroke-linecap:butt;stroke-linejoin:round;stroke-miterlimit:2;"/><rect x="2516.67" y="1747" width="273.158" height="1167.86" style="fill:#fff;stroke:#000;stroke-width:170.13px;stroke-linecap:butt;stroke-linejoin:round;stroke-miterlimit:2;"/><rect x="783.068" y="1196.83" width="2006.76" height="316.537" style="fill:#fff;stroke:#000;stroke-width:170.13px;stroke-linecap:butt;stroke-linejoin:round;stroke-miterlimit:2;"/></g><path d="M1091.63,2069.85l920.546,0" style="fill:none;stroke:#f53c37;stroke-width:170.13px;stroke-linejoin:round;stroke-miterlimit:1.5;"/><path d="M1091.63,2306.97l920.546,0" style="fill:none;stroke:#f53c37;stroke-width:170.13px;stroke-linejoin:round;stroke-miterlimit:1.5;"/><path d="M1091.63,2540.76l539.813,0" style="fill:none;stroke:#f53c37;stroke-width:170.13px;stroke-linejoin:round;stroke-miterlimit:1.5;"/></g></g></g></svg>