<?xml version="1.0" encoding="UTF-8" standalone="no"?><!DOCTYPE svg PUBLIC "-//W3C//DTD SVG 1.1//EN" "http://www.w3.org/Graphics/SVG/1.1/DTD/svg11.dtd"><svg width="100%" height="100%" viewBox="0 0 877 691" version="1.1" xmlns="http://www.w3.org/2000/svg" xmlns:xlink="http://www.w3.org/1999/xlink" xml:space="preserve" xmlns:serif="http://www.serif.com/" style="fill-rule:evenodd;clip-rule:evenodd;"><g id="Group_19"><path id="Path_1220" d="M790.4,657.488l0,28.358l-725.775,-0l0,-29.583" style="fill:#fff;fill-rule:nonzero;stroke:#000;stroke-width:8.33px;"/><path id="Path_1006" d="M521.792,371.138l91.212,-190.925l15.525,145.55l91.213,-232.88l25.229,178.542l126.146,-265.871" style="fill-opacity:0;fill-rule:nonzero;stroke:#fff;stroke-width:8.33px;stroke-linecap:round;stroke-linejoin:round;"/><path id="Path_1007" d="M187.038,594.8l-122.413,62.683l725.775,0l-93.954,-62.683l-0,-353.667l-509.408,0l-0,353.667Z" style="fill:#fff;stroke:#000;stroke-width:8.33px;stroke-linecap:round;stroke-linejoin:round;"/><rect id="Path_1008" x="203.475" y="257.163" width="476.529" height="321.592" style="fill:#fff;stroke:#000;stroke-width:8.33px;stroke-linecap:round;stroke-linejoin:round;"/><rect id="Path_1009" x="235.942" y="326.671" width="342.054" height="26.608" style="fill:#f53c37;"/><rect id="Path_1010" x="235.942" y="375.358" width="315.55" height="20.146" style="fill:#fff;stroke:#000;stroke-width:8.33px;stroke-linecap:round;stroke-linejoin:round;"/><rect id="Path_1011" x="235.942" y="276.192" width="127.629" height="20.129" style="fill-opacity:0;fill-rule:nonzero;stroke:#000;stroke-width:8.33px;stroke-linecap:round;stroke-linejoin:round;"/><rect id="Path_1012" x="235.942" y="424.042" width="315.55" height="20.146" style="fill:#fff;stroke:#000;stroke-width:8.33px;stroke-linecap:round;stroke-linejoin:round;"/><rect id="Path_1013" x="235.942" y="472.746" width="315.55" height="20.129" style="fill:#fff;stroke:#000;stroke-width:8.33px;stroke-linecap:round;stroke-linejoin:round;"/><rect id="Path_1014" x="235.942" y="521.417" width="315.55" height="20.146" style="fill:#fff;stroke:#000;stroke-width:8.33px;stroke-linecap:round;stroke-linejoin:round;"/><path id="Path_1015" d="M602.783,336.742l16.179,16.933" style="fill:none;fill-rule:nonzero;stroke:#000;stroke-width:8.33px;stroke-linecap:round;stroke-linejoin:round;"/><path id="Path_1016" d="M655.454,336.742l-52.671,-0l16.179,-16.934" style="fill-opacity:0;fill-rule:nonzero;stroke:#000;stroke-width:8.33px;stroke-linecap:round;stroke-linejoin:round;"/><path id="Path_1017" d="M385.55,277.529c3.794,0 6.917,3.122 6.917,6.917c-0,3.794 -3.123,6.916 -6.917,6.916c-3.794,-0.002 -6.914,-3.123 -6.917,-6.916c0.003,-3.794 3.123,-6.915 6.917,-6.917Z" style="fill-opacity:0;fill-rule:nonzero;stroke:#000;stroke-width:8.33px;stroke-linecap:round;stroke-linejoin:round;"/><path id="Path_1018" d="M390.588,289.183l7.137,7.138" style="fill:none;fill-rule:nonzero;stroke:#000;stroke-width:8.33px;stroke-linecap:round;stroke-linejoin:round;"/><path id="Path_1019" d="M116.675,521.417l-36.667,-36.667l-36.666,36.667l36.666,36.666l36.667,-36.666Z" style="fill-opacity:0;fill-rule:nonzero;stroke:#fff;stroke-width:8.33px;stroke-linecap:round;stroke-linejoin:round;"/><path id="Path_1020" d="M379.408,122.55c13.096,0.005 23.871,10.779 23.875,23.875c-0.007,13.094 -10.781,23.866 -23.875,23.871c-13.093,-0.007 -23.866,-10.778 -23.875,-23.871c0.007,-13.095 10.78,-23.868 23.875,-23.875Z" style="fill-opacity:0;fill-rule:nonzero;stroke:#fff;stroke-width:8.33px;stroke-linecap:round;stroke-linejoin:round;"/><path id="Path_1021" d="M99.858,146.425l91.959,-0" style="fill:none;fill-rule:nonzero;stroke:#fff;stroke-width:8.33px;stroke-linecap:round;stroke-linejoin:round;"/><path id="Path_1022" d="M99.858,167.383l91.959,0" style="fill:none;fill-rule:nonzero;stroke:#fff;stroke-width:8.33px;stroke-linecap:round;stroke-linejoin:round;"/><path id="Path_1023" d="M99.858,188.346l91.959,-0" style="fill:none;fill-rule:nonzero;stroke:#fff;stroke-width:8.33px;stroke-linecap:round;stroke-linejoin:round;"/><path id="Path_1024" d="M787.604,505.392c20.109,0.016 36.651,16.558 36.667,36.666c-0.016,20.109 -16.558,36.651 -36.667,36.667c-20.109,-0.016 -36.651,-16.558 -36.667,-36.667c0.016,-20.108 16.558,-36.65 36.667,-36.666Z" style="fill-opacity:0;fill-rule:nonzero;stroke:#fff;stroke-width:8.33px;stroke-linecap:round;stroke-linejoin:round;"/><path id="Path_1025" d="M31.954,292.25l25.938,26.487l33.204,-16.483l-17.175,32.85l25.937,26.488l-36.55,-6.184l-17.175,32.854l-5.416,-36.666l-36.55,-6.188l33.204,-16.483l-5.417,-36.675Z" style="fill:#ffd525;fill-rule:nonzero;stroke:#fff;stroke-width:8.33px;stroke-linecap:round;stroke-linejoin:round;"/><path id="Path_1026" d="M545.704,116.621l-9.846,23.975l19.763,16.771l-25.833,-1.955l-9.846,23.976l-6.13,-25.184l-25.833,-1.954l22.059,-13.608l-6.13,-25.184l19.759,16.771l22.037,-13.608Z" style="fill-opacity:0;fill-rule:nonzero;stroke:#fff;stroke-width:8.33px;stroke-linecap:round;stroke-linejoin:round;"/><path id="Path_1027" d="M268.025,69.183l14.65,21.379l24.863,-7.329l-15.805,20.542l14.65,21.379l-24.42,-8.683l-15.805,20.542l0.713,-25.909l-24.421,-8.683l24.863,-7.329l0.712,-25.909Z" style="fill-opacity:0;fill-rule:nonzero;stroke:#fff;stroke-width:8.33px;stroke-linecap:round;stroke-linejoin:round;"/><path id="Path_1219" d="M185.542,593.154l510.908,0" style="fill:none;fill-rule:nonzero;stroke:#000;stroke-width:8.33px;"/><path id="Line_36" d="M186.296,610.379l54.167,0" style="fill:none;fill-rule:nonzero;stroke:#000;stroke-width:8.33px;"/><path id="Line_47" d="M232.237,633.871l54.167,-0" style="fill:none;fill-rule:nonzero;stroke:#000;stroke-width:8.33px;"/><path id="Line_48" d="M145.838,633.871l54.166,-0" style="fill:none;fill-rule:nonzero;stroke:#000;stroke-width:8.33px;"/><path id="Line_37" d="M276.467,610.379l54.166,0" style="fill:none;fill-rule:nonzero;stroke:#000;stroke-width:8.33px;"/><path id="Line_46" d="M318.638,633.871l54.166,-0" style="fill:none;fill-rule:nonzero;stroke:#000;stroke-width:8.33px;"/><path id="Line_38" d="M366.638,610.379l54.166,0" style="fill:none;fill-rule:nonzero;stroke:#000;stroke-width:8.33px;"/><path id="Line_45" d="M405.038,633.871l54.166,-0" style="fill:none;fill-rule:nonzero;stroke:#000;stroke-width:8.33px;"/><path id="Line_39" d="M456.808,610.379l54.167,0" style="fill:none;fill-rule:nonzero;stroke:#000;stroke-width:8.33px;"/><path id="Line_44" d="M491.433,633.871l54.167,-0" style="fill:none;fill-rule:nonzero;stroke:#000;stroke-width:8.33px;"/><path id="Line_40" d="M546.979,610.379l54.167,0" style="fill:none;fill-rule:nonzero;stroke:#000;stroke-width:8.33px;"/><path id="Line_43" d="M577.833,633.871l54.167,-0" style="fill:none;fill-rule:nonzero;stroke:#000;stroke-width:8.33px;"/><path id="Line_41" d="M637.15,610.379l54.167,0" style="fill:none;fill-rule:nonzero;stroke:#000;stroke-width:8.33px;"/><path id="Line_42" d="M664.233,633.871l54.167,-0" style="fill:none;fill-rule:nonzero;stroke:#000;stroke-width:8.33px;"/></g></svg>