<?xml version="1.0" encoding="UTF-8" standalone="no"?><!DOCTYPE svg PUBLIC "-//W3C//DTD SVG 1.1//EN" "http://www.w3.org/Graphics/SVG/1.1/DTD/svg11.dtd"><svg width="100%" height="100%" viewBox="0 0 790 790" version="1.1" xmlns="http://www.w3.org/2000/svg" xmlns:xlink="http://www.w3.org/1999/xlink" xml:space="preserve" xmlns:serif="http://www.serif.com/" style="fill-rule:evenodd;clip-rule:evenodd;stroke-linejoin:round;stroke-miterlimit:2;"><g><circle cx="394.578" cy="394.578" r="374.161" style="fill:#fff;"/><clipPath id="_clip1"><circle cx="394.578" cy="394.578" r="374.161"/></clipPath><g clip-path="url(#_clip1)"><g><path d="M267.399,384.884c-0,0 -39.85,-15.343 -42.903,-66.7c-3,-51.342 6.916,-101.349 36.93,-112.968c30.014,-11.614 41.271,-12.204 46.476,-6.177c4.637,5.364 -3.891,26.553 -3.891,26.553c-0,-0 68.48,-66.165 166.733,-47.134c11.328,2.192 -12.236,30.351 -12.236,30.351c0,-0 99.333,-13.286 131.843,155.479c32.56,168.774 19.416,244.04 -78.209,255.837c-97.626,11.802 -244.743,-235.241 -244.743,-235.241Z" style="fill:#f53c37;fill-rule:nonzero;stroke:#000;stroke-width:37.5px;"/><path d="M489.685,533.684l51.622,302.473c-0.061,47.355 -119.949,100.137 -214.918,65.16c-23.61,-8.672 -22.846,-38.298 -5.464,-87.305l61.635,-253.102l107.125,-27.226Z" style="fill:#fff;fill-rule:nonzero;stroke:#000;stroke-width:37.5px;"/><path d="M488.765,497.616l9.453,26.875c13.74,51.909 -16.209,105.442 -67.723,120.565c-41.161,12.088 -67.999,12.76 -121.126,7.466c-44.231,-4.38 -67.776,-46.249 -69.075,-104.104c-1.616,-75.056 18.255,-144.645 30.93,-181.285c28.942,-83.544 130.62,-93.338 173.062,4.023l17.947,51.025c1.568,-3.799 2.983,-7.669 4.3,-11.577c6.157,-18.13 19.495,-43.643 41.935,-21.273c26.457,26.434 12.045,89.751 -19.703,108.285Z" style="fill:#fff;fill-rule:nonzero;stroke:#000;stroke-width:37.5px;"/></g></g><circle cx="394.578" cy="394.578" r="374.161" style="fill:none;stroke:#f53c37;stroke-width:40.83px;stroke-linecap:round;stroke-miterlimit:1.5;"/></g></svg>