<svg xmlns="http://www.w3.org/2000/svg" width="61" height="61" viewBox="0 0 61 61">
  <g id="Group_240" data-name="Group 240" transform="translate(0 45)">
    <path id="Path_1694" data-name="Path 1694" d="M30.5,16A30.535,30.535,0,0,1,0-14.5,30.535,30.535,0,0,1,30.5-45,30.535,30.535,0,0,1,61-14.5,30.535,30.535,0,0,1,30.5,16Z" fill="#f53c37"/>
    <path id="Path_1695" data-name="Path 1695" d="M23.835-21.764v2.858a3.487,3.487,0,0,0,1.017-1A2.053,2.053,0,0,0,25.212-21c0-.375-.117-.617-.35-.714A1.974,1.974,0,0,0,23.835-21.764Zm-.828-1.541v-2.5a4.423,4.423,0,0,0-.853.832,1.526,1.526,0,0,0-.308.95c0,.343.1.56.286.647A1.776,1.776,0,0,0,23.006-23.305Zm.828-4.866v.7a3.929,3.929,0,0,1,1.2-.275,1.37,1.37,0,0,1,.87.259,1.453,1.453,0,0,1,.453.485,1.155,1.155,0,0,1,.16.577,1.174,1.174,0,0,1-.239.667,1.378,1.378,0,0,1-.577.492q-.638.291-.828-.312a.822.822,0,0,0-1.036-.6v2.712a11.535,11.535,0,0,1,1.286-.2,1.657,1.657,0,0,1,.858.14,1.282,1.282,0,0,1,.622.587,2.074,2.074,0,0,1,.22,1,3.821,3.821,0,0,1-.35,1.54,5.246,5.246,0,0,1-1.026,1.517,6.6,6.6,0,0,1-1.61,1.238v1.625a1.894,1.894,0,0,1-.075.6.6.6,0,0,1-.331.332c-.156.075-.264.079-.328.012a.589.589,0,0,1-.095-.4V-17.23a3.757,3.757,0,0,1-1.333.264,1.823,1.823,0,0,1-.953-.249,1.521,1.521,0,0,1-.564-.6,1.72,1.72,0,0,1-.183-.786,1.2,1.2,0,0,1,.244-.667,1.453,1.453,0,0,1,.611-.518.826.826,0,0,1,.5-.087.383.383,0,0,1,.281.258,5.056,5.056,0,0,0,.3.676.833.833,0,0,0,.394.336,1.256,1.256,0,0,0,.7.028v-3.032a6.223,6.223,0,0,1-1.461.145,1.347,1.347,0,0,1-.952-.419,1.787,1.787,0,0,1-.365-1.248,3.723,3.723,0,0,1,.714-2.151,6,6,0,0,1,2.063-1.791v-.69a.742.742,0,0,1,.409-.743C23.695-28.641,23.835-28.529,23.835-28.172Z" transform="matrix(0.819, 0.574, -0.574, 0.819, -0.334, -11.254)" fill="#fff"/>
    <path id="Path_1696" data-name="Path 1696" d="M11.481-10.548a9.163,9.163,0,0,0,5.274,1.656c3.23,0,6.6-1.6,9.855-3.141,3.393-1.609,6.9-3.274,10.435-3.274a10.351,10.351,0,0,1,5.274,1.414V-29.916a9.173,9.173,0,0,0-5.274-1.656c-3.229,0-6.6,1.6-9.854,3.142-3.393,1.608-6.9,3.272-10.435,3.272a10.352,10.352,0,0,1-5.276-1.414Zm5.274,3.012a10.559,10.559,0,0,1-6.348-2.108.676.676,0,0,1-.282-.55V-27.816a.678.678,0,0,1,.369-.6.687.687,0,0,1,.7.053,9.243,9.243,0,0,0,5.558,1.853c3.229,0,6.6-1.6,9.854-3.141,3.393-1.609,6.9-3.274,10.435-3.274a10.559,10.559,0,0,1,6.348,2.108.678.678,0,0,1,.282.55v17.622a.68.68,0,0,1-.369.6.687.687,0,0,1-.7-.053,9.244,9.244,0,0,0-5.556-1.854c-3.229,0-6.6,1.6-9.854,3.142C23.8-9.2,20.29-7.537,16.756-7.536Z" transform="matrix(0.819, 0.574, -0.574, 0.819, -2.312, -14.535)" fill="#fff"/>
    <path id="Path_1697" data-name="Path 1697" d="M16.746-10.027a10.565,10.565,0,0,1-6.339-2.113.677.677,0,0,1-.155-.946.676.676,0,0,1,.946-.155C16.24-9.612,21.277-12,26.61-14.528c5.453-2.588,11.094-5.257,16.783-1.166a.679.679,0,0,1,.155.946.68.68,0,0,1-.946.156C37.56-18.22,32.524-15.831,27.192-13.3,23.772-11.683,20.28-10.027,16.746-10.027Z" transform="matrix(0.819, 0.574, -0.574, 0.819, -5.396, -10.13)" fill="#fff"/>
    <path id="Path_1698" data-name="Path 1698" d="M15.726-23.852a10.485,10.485,0,0,1-2.189-.225.676.676,0,0,1-.522-.8.677.677,0,0,1,.8-.523,12.7,12.7,0,0,0,7.163-.912.674.674,0,0,1,.873.4.68.68,0,0,1-.4.873A16.385,16.385,0,0,1,15.726-23.852Z" transform="matrix(0.819, 0.574, -0.574, 0.819, -2.814, -12.036)" fill="#fff"/>
    <path id="Path_1699" data-name="Path 1699" d="M26.115-27.731a.677.677,0,0,1-.634-.442.678.678,0,0,1,.4-.872,13.961,13.961,0,0,1,7.918-.971.679.679,0,0,1,.523.8.682.682,0,0,1-.8.523,12.7,12.7,0,0,0-7.163.914A.666.666,0,0,1,26.115-27.731Z" transform="matrix(0.819, 0.574, -0.574, 0.819, 1.599, -10.629)" fill="#fff"/>
    <path id="Path_1700" data-name="Path 1700" d="M15.726-16.227a10.485,10.485,0,0,1-2.189-.225.676.676,0,0,1-.522-.8.675.675,0,0,1,.8-.523,12.7,12.7,0,0,0,7.163-.912.674.674,0,0,1,.873.4.68.68,0,0,1-.4.873A16.385,16.385,0,0,1,15.726-16.227Z" transform="matrix(0.819, 0.574, -0.574, 0.819, -4.369, -9.815)" fill="#fff"/>
    <path id="Path_1701" data-name="Path 1701" d="M26.115-20.106a.677.677,0,0,1-.634-.442.678.678,0,0,1,.4-.872A13.961,13.961,0,0,1,33.8-22.39a.679.679,0,0,1,.523.8.685.685,0,0,1-.8.523,12.712,12.712,0,0,0-7.163.914A.666.666,0,0,1,26.115-20.106Z" transform="matrix(0.819, 0.574, -0.574, 0.819, 0.044, -8.408)" fill="#fff"/>
  </g>
</svg>
