<?xml version="1.0" encoding="UTF-8" standalone="no"?><!DOCTYPE svg PUBLIC "-//W3C//DTD SVG 1.1//EN" "http://www.w3.org/Graphics/SVG/1.1/DTD/svg11.dtd"><svg width="100%" height="100%" viewBox="0 0 4691 3811" version="1.1" xmlns="http://www.w3.org/2000/svg" xmlns:xlink="http://www.w3.org/1999/xlink" xml:space="preserve" xmlns:serif="http://www.serif.com/" style="fill-rule:evenodd;clip-rule:evenodd;stroke-linecap:round;stroke-linejoin:round;"><g id="Group_216"><path id="Path_1489" d="M449.446,3805l907.142,-593.75l705.437,-713.55l2467.83,-1926.03" style="fill:none;fill-rule:nonzero;stroke:#fff;stroke-width:8.33px;"/><path id="Path_1490" d="M4.212,3460.27l1858.86,-1089.58l444.463,-668.809l2378.94,-1384.17" style="fill:none;fill-rule:nonzero;stroke:#f53c37;stroke-width:16.67px;stroke-linecap:butt;"/><path id="Path_1182" d="M2902.53,6.25c490.988,0 889.609,398.617 889.609,889.583c-0,490.967 -398.621,889.621 -889.609,889.621c-490.987,0 -889.621,-398.616 -889.621,-889.604c0,-490.987 398.638,-889.6 889.621,-889.6Z" style="fill:none;fill-rule:nonzero;stroke:#fff;stroke-width:12.5px;stroke-dasharray:37.5,62.5,0,0;"/><path id="Path_1184" d="M1116.11,2475.9l-233.046,-233.054l-233.045,233.054l233.045,233.046l233.046,-233.046Z" style="fill:#fff;stroke:#f53c37;stroke-width:12.5px;"/><path id="Path_1185" d="M2382.78,1394.41l0,-439.796" style="fill:none;fill-rule:nonzero;stroke:#fff;stroke-width:12.5px;"/><path id="Path_1186" d="M2483.02,1394.41l-0,-439.796" style="fill:none;fill-rule:nonzero;stroke:#fff;stroke-width:12.5px;"/><path id="Path_1187" d="M2583.25,1394.41l0,-439.796" style="fill:none;fill-rule:nonzero;stroke:#fff;stroke-width:12.5px;"/><path id="Path_1188" d="M3287.22,2170.25c96.212,0.048 175.368,79.204 175.416,175.417c-0.048,96.212 -79.204,175.369 -175.416,175.417c-96.215,-0.044 -175.374,-79.203 -175.417,-175.417c0.043,-96.214 79.202,-175.373 175.417,-175.417Z" style="fill:none;fill-rule:nonzero;stroke:#fff;stroke-width:12.5px;"/><path id="Path_1189" d="M3028.84,629.604l-27.746,67.559l55.683,47.262l-72.829,-5.508l-27.742,67.562l-17.266,-70.966l-72.83,-5.505l62.159,-38.333l-17.267,-70.967l55.679,47.263l62.159,-38.367Z" style="fill:#f00;stroke:#fff;stroke-width:12.5px;"/><path id="Path_1194" d="M2866.1,2342.65l-535.313,-0l0,356.879l198.263,-118.958l337.05,-0l-0,-237.921Z" style="fill-rule:nonzero;stroke:#fff;stroke-width:12.5px;stroke-linecap:butt;stroke-linejoin:miter;stroke-miterlimit:10;"/><path id="Path_1195" d="M2806.63,2501.26l-158.616,0" style="fill:none;fill-rule:nonzero;stroke:#f00;stroke-width:12.5px;stroke-linecap:butt;stroke-linejoin:miter;stroke-miterlimit:10;"/><path id="Path_1196" d="M2588.53,2501.26l-197.142,0" style="fill:none;fill-rule:nonzero;stroke:#f00;stroke-width:12.5px;stroke-linecap:butt;stroke-linejoin:miter;stroke-miterlimit:10;"/><path id="Path_1197" d="M2806.63,2421.95l-317.229,0" style="fill:none;fill-rule:nonzero;stroke:#f00;stroke-width:12.5px;stroke-linecap:butt;stroke-linejoin:miter;stroke-miterlimit:10;"/><path id="Path_1198" d="M1828.9,3456.9l0,-79.584c0,-159.141 111.396,-143.225 222.8,-206.883" style="fill:none;fill-rule:nonzero;stroke:#fff;stroke-width:12.5px;stroke-linecap:butt;stroke-linejoin:miter;stroke-miterlimit:10;"/><path id="Path_1199" d="M3607.36,2255.7l0,-79.583c0,-159.142 111.396,-143.225 222.8,-206.884" style="fill:none;fill-rule:nonzero;stroke:#fff;stroke-width:12.5px;stroke-linecap:butt;stroke-linejoin:miter;stroke-miterlimit:10;"/><path id="Path_1200" d="M4037.04,1857.85l0,63.662" style="fill:none;fill-rule:nonzero;stroke:#fff;stroke-width:12.5px;stroke-linecap:butt;stroke-linejoin:miter;stroke-miterlimit:10;"/><path id="Path_1201" d="M2306.33,3170.43c111.396,63.655 222.796,47.742 222.796,206.884l-0,79.583" style="fill:none;fill-rule:nonzero;stroke:#fff;stroke-width:12.5px;stroke-linecap:butt;stroke-linejoin:miter;stroke-miterlimit:10;"/><path id="Path_1202" d="M3877.9,1921.51l-0,-63.662" style="fill:none;fill-rule:nonzero;stroke:#fff;stroke-width:12.5px;stroke-linecap:butt;stroke-linejoin:miter;stroke-miterlimit:10;"/><path id="Path_1203" d="M3961.05,2125.84l-0,-118.896" style="fill:none;fill-rule:nonzero;stroke:#fff;stroke-width:12.5px;stroke-linecap:butt;stroke-linejoin:miter;stroke-miterlimit:10;"/><path id="Path_1204" d="M4084.78,1969.24c111.396,63.662 222.796,47.741 222.796,206.883l0,79.583" style="fill:none;fill-rule:nonzero;stroke:#fff;stroke-width:12.5px;stroke-linecap:butt;stroke-linejoin:miter;stroke-miterlimit:10;"/><path id="Path_1205" d="M4084.78,1969.25c-75.604,50.071 -160.417,50.466 -254.621,-0l31.825,-47.738l95.479,15.909l95.488,-15.909l31.829,47.738Z" style="fill:none;fill-rule:nonzero;stroke:#f00;stroke-width:12.5px;stroke-linecap:butt;stroke-linejoin:miter;stroke-miterlimit:10;"/><path id="Path_1206" d="M2258.58,3059.05l0,63.654" style="fill:none;fill-rule:nonzero;stroke:#fff;stroke-width:12.5px;stroke-linecap:butt;stroke-linejoin:miter;stroke-miterlimit:10;"/><path id="Path_1207" d="M2099.44,3122.7l-0,-63.654" style="fill:none;fill-rule:nonzero;stroke:#fff;stroke-width:12.5px;stroke-linecap:butt;stroke-linejoin:miter;stroke-miterlimit:10;"/><path id="Path_1208" d="M3814.24,1650.97c-0,-0 53.587,48.708 92.687,-19.875c32.421,-56.867 203.584,-9.584 193.75,19.875" style="fill:none;fill-rule:nonzero;stroke:#f00;stroke-width:12.5px;stroke-linecap:butt;stroke-linejoin:miter;stroke-miterlimit:10;"/><path id="Path_1209" d="M2242.67,3234.1l-63.663,-31.829l-63.654,31.829l-63.671,-63.658l31.825,-47.742l95.479,15.913l95.488,-15.913l31.825,47.742l-63.629,63.658Z" style="fill:none;fill-rule:nonzero;stroke:#ffd525;stroke-width:12.5px;stroke-linecap:butt;stroke-linejoin:miter;stroke-miterlimit:10;"/><path id="Path_1210" d="M2035.79,2852.16c0,-0 40.167,-35.184 63.655,-31.825c37.137,5.304 122.012,58.333 159.141,63.654c23.488,3.354 63.663,-31.825 63.663,-31.825" style="fill:none;fill-rule:nonzero;stroke:#ffd525;stroke-width:12.5px;stroke-linecap:butt;stroke-linejoin:miter;stroke-miterlimit:10;"/><path id="Path_1211" d="M2322.26,2852.16l-0.001,63.662c-15.916,111.396 -63.662,143.225 -63.662,143.225c-31.846,15.9 -79.588,15.9 -79.588,15.9c0.001,0 -47.741,0 -79.583,-15.908c0,-0 -47.737,-31.825 -63.654,-143.225l0,-63.663" style="fill:none;fill-rule:nonzero;stroke:#fff;stroke-width:12.5px;stroke-linecap:butt;stroke-linejoin:miter;stroke-miterlimit:10;"/><path id="Path_1212" d="M4100.72,1650.97l-0,63.654c-15.917,111.396 -63.663,143.225 -63.663,143.225c-31.825,15.917 -79.583,15.917 -79.583,15.917c-0,-0 -47.742,-0 -79.583,-15.917c-0,0 -47.738,-31.825 -63.655,-143.225l0,-63.654" style="fill:none;fill-rule:nonzero;stroke:#fff;stroke-width:12.5px;stroke-linecap:butt;stroke-linejoin:miter;stroke-miterlimit:10;"/><path id="Path_1213" d="M2035.79,2852.16c0,-96.667 46.546,-143.226 143.225,-143.226c96.68,0.001 143.25,46.546 143.25,143.226" style="fill:none;fill-rule:nonzero;stroke:#fff;stroke-width:12.5px;stroke-linecap:butt;stroke-linejoin:miter;stroke-miterlimit:10;"/><path id="Path_1214" d="M3814.24,1650.97c-0,-96.667 46.546,-143.233 143.225,-143.233c96.679,-0 143.25,46.554 143.25,143.233" style="fill:none;fill-rule:nonzero;stroke:#fff;stroke-width:12.5px;stroke-linecap:butt;stroke-linejoin:miter;stroke-miterlimit:10;"/><path id="Path_1215" d="M1956.22,3456.9l-0,-85.442" style="fill:none;fill-rule:nonzero;stroke:#fff;stroke-width:12.5px;stroke-linecap:butt;stroke-linejoin:miter;stroke-miterlimit:10;"/><path id="Path_1216" d="M3734.67,2255.7l-0,-85.446" style="fill:none;fill-rule:nonzero;stroke:#fff;stroke-width:12.5px;stroke-linecap:butt;stroke-linejoin:miter;stroke-miterlimit:10;"/><path id="Path_1217" d="M2401.81,3456.9l0,-85.442" style="fill:none;fill-rule:nonzero;stroke:#fff;stroke-width:12.5px;stroke-linecap:butt;stroke-linejoin:miter;stroke-miterlimit:10;"/><path id="Path_1218" d="M4180.26,2255.7l0,-85.446" style="fill:none;fill-rule:nonzero;stroke:#fff;stroke-width:12.5px;stroke-linecap:butt;stroke-linejoin:miter;stroke-miterlimit:10;"/><path id="Path_1190" d="M3271.55,1054.15l558.604,0l0,399.75l-206.892,-151.487l-351.712,-0l-0,-248.263Z" style="fill-rule:nonzero;stroke:#fff;stroke-width:12.5px;stroke-linecap:butt;stroke-linejoin:miter;stroke-miterlimit:10;"/><path id="Path_1191" d="M3333.62,1219.67l268.962,-0" style="fill:none;fill-rule:nonzero;stroke:#f00;stroke-width:12.5px;stroke-linecap:butt;stroke-linejoin:miter;stroke-miterlimit:10;"/><path id="Path_1192" d="M3643.95,1219.67l124.133,-0" style="fill:none;fill-rule:nonzero;stroke:#f00;stroke-width:12.5px;stroke-linecap:butt;stroke-linejoin:miter;stroke-miterlimit:10;"/><path id="Path_1193" d="M3437.06,1136.91l331.029,-0" style="fill:none;fill-rule:nonzero;stroke:#f00;stroke-width:12.5px;stroke-linecap:butt;stroke-linejoin:miter;stroke-miterlimit:10;"/></g></svg>