<?xml version="1.0" encoding="UTF-8" standalone="no"?><!DOCTYPE svg PUBLIC "-//W3C//DTD SVG 1.1//EN" "http://www.w3.org/Graphics/SVG/1.1/DTD/svg11.dtd"><svg width="100%" height="100%" viewBox="0 0 770 708" version="1.1" xmlns="http://www.w3.org/2000/svg" xmlns:xlink="http://www.w3.org/1999/xlink" xml:space="preserve" xmlns:serif="http://www.serif.com/" style="fill-rule:evenodd;clip-rule:evenodd;stroke-linecap:round;stroke-linejoin:round;"><g id="Group_166"><path id="Path_1182" d="M457.738,195.979c139.181,0.057 253.692,114.569 253.75,253.75c-0.058,139.182 -114.569,253.693 -253.75,253.75c-139.182,-0.057 -253.693,-114.568 -253.751,-253.75c0.058,-139.181 114.569,-253.693 253.751,-253.75Z" style="fill:none;fill-rule:nonzero;stroke:#fff;stroke-width:8.33px;stroke-dasharray:37.5,62.5,0,0;"/><path id="Path_1183" d="M5.554,504.237l124.421,-260.437l21.179,198.542l124.4,-317.667l34.413,243.546l172.083,-362.671" style="fill:none;fill-rule:nonzero;stroke:#fff;stroke-width:8.33px;"/><path id="Path_1184" d="M765.313,342.858l-66.471,-66.47l-66.471,66.47l66.471,66.471l66.471,-66.471Z" style="fill:#fff;stroke:#f53c37;stroke-width:8.33px;"/><path id="Path_1185" d="M107.4,593.287l125.458,0" style="fill:none;fill-rule:nonzero;stroke:#fff;stroke-width:8.33px;"/><path id="Path_1186" d="M107.4,621.879l125.458,0" style="fill:none;fill-rule:nonzero;stroke:#fff;stroke-width:8.33px;"/><path id="Path_1187" d="M107.4,650.471l125.458,-0" style="fill:none;fill-rule:nonzero;stroke:#fff;stroke-width:8.33px;"/><path id="Path_1188" d="M659.2,585.579c27.442,0.014 50.02,22.591 50.033,50.033c-0.013,27.443 -22.591,50.02 -50.033,50.034c-27.443,-0.012 -50.022,-22.59 -50.033,-50.034c0.011,-27.443 22.59,-50.021 50.033,-50.033Z" style="fill:none;fill-rule:nonzero;stroke:#fff;stroke-width:8.33px;"/><path id="Path_1189" d="M664.996,138.2l-13.429,32.704l26.954,22.879l-35.254,-2.666l-13.43,32.704l-8.358,-34.354l-35.254,-2.663l30.087,-18.567l-8.358,-34.354l26.954,22.88l30.088,-18.563Z" style="fill:#f00;stroke:#fff;stroke-width:8.33px;"/><path id="Path_1190" d="M375.833,160.071l159.325,-0l0,114.016l-59.008,-43.208l-100.317,0l0,-70.808Z" style="fill-rule:nonzero;stroke:#fff;stroke-width:8.33px;stroke-linecap:butt;stroke-linejoin:miter;stroke-miterlimit:10;"/><path id="Path_1191" d="M393.538,207.275l76.712,-0" style="fill:none;fill-rule:nonzero;stroke:#f00;stroke-width:8.33px;stroke-linecap:butt;stroke-linejoin:miter;stroke-miterlimit:10;"/><path id="Path_1192" d="M482.05,207.275l35.417,-0" style="fill:none;fill-rule:nonzero;stroke:#f00;stroke-width:8.33px;stroke-linecap:butt;stroke-linejoin:miter;stroke-miterlimit:10;"/><path id="Path_1193" d="M423.042,183.675l94.395,-0" style="fill:none;fill-rule:nonzero;stroke:#f00;stroke-width:8.33px;stroke-linecap:butt;stroke-linejoin:miter;stroke-miterlimit:10;"/><path id="Path_1194" d="M208.679,251.467l152.684,-0l-0,101.787l-56.538,-33.921l-96.146,0l0,-67.866Z" style="fill-rule:nonzero;stroke:#fff;stroke-width:8.33px;stroke-linecap:butt;stroke-linejoin:miter;stroke-miterlimit:10;"/><path id="Path_1195" d="M225.646,296.708l45.242,0" style="fill:none;fill-rule:nonzero;stroke:#f00;stroke-width:8.33px;stroke-linecap:butt;stroke-linejoin:miter;stroke-miterlimit:10;"/><path id="Path_1196" d="M287.854,296.708l56.25,0" style="fill:none;fill-rule:nonzero;stroke:#f00;stroke-width:8.33px;stroke-linecap:butt;stroke-linejoin:miter;stroke-miterlimit:10;"/><path id="Path_1197" d="M225.646,274.088l90.479,-0" style="fill:none;fill-rule:nonzero;stroke:#f00;stroke-width:8.33px;stroke-linecap:butt;stroke-linejoin:miter;stroke-miterlimit:10;"/><path id="Path_1198" d="M261.508,589.358l0,-22.696c0,-45.391 31.771,-40.833 63.546,-59.008" style="fill:none;fill-rule:nonzero;stroke:#fff;stroke-width:8.33px;stroke-linecap:butt;stroke-linejoin:miter;stroke-miterlimit:10;"/><path id="Path_1199" d="M434.813,506.342l-0,-22.696c-0,-45.392 31.77,-40.834 63.545,-59.009" style="fill:none;fill-rule:nonzero;stroke:#fff;stroke-width:8.33px;stroke-linecap:butt;stroke-linejoin:miter;stroke-miterlimit:10;"/><path id="Path_1200" d="M557.367,392.862l-0,18.167" style="fill:none;fill-rule:nonzero;stroke:#fff;stroke-width:8.33px;stroke-linecap:butt;stroke-linejoin:miter;stroke-miterlimit:10;"/><path id="Path_1201" d="M397.679,507.646c31.771,18.154 63.546,13.617 63.546,59.008l0,22.696" style="fill:none;fill-rule:nonzero;stroke:#fff;stroke-width:8.33px;stroke-linecap:butt;stroke-linejoin:miter;stroke-miterlimit:10;"/><path id="Path_1202" d="M511.975,411.029l0,-18.158" style="fill:none;fill-rule:nonzero;stroke:#fff;stroke-width:8.33px;stroke-linecap:butt;stroke-linejoin:miter;stroke-miterlimit:10;"/><path id="Path_1203" d="M535.692,469.3l-0,-33.913" style="fill:none;fill-rule:nonzero;stroke:#fff;stroke-width:8.33px;stroke-linecap:butt;stroke-linejoin:miter;stroke-miterlimit:10;"/><path id="Path_1204" d="M570.983,424.637c31.771,18.159 63.546,13.617 63.546,59.009l0,22.696" style="fill:none;fill-rule:nonzero;stroke:#fff;stroke-width:8.33px;stroke-linecap:butt;stroke-linejoin:miter;stroke-miterlimit:10;"/><path id="Path_1205" d="M570.983,424.637c-21.562,14.28 -45.75,14.392 -72.621,0l9.08,-13.616l27.233,4.537l27.233,-4.537l9.075,13.616Z" style="fill:none;fill-rule:nonzero;stroke:#f00;stroke-width:8.33px;stroke-linecap:butt;stroke-linejoin:miter;stroke-miterlimit:10;"/><path id="Path_1206" d="M384.063,475.883l-0,18.154" style="fill:none;fill-rule:nonzero;stroke:#fff;stroke-width:8.33px;stroke-linecap:butt;stroke-linejoin:miter;stroke-miterlimit:10;"/><path id="Path_1207" d="M338.671,494.038l-0,-18.155" style="fill:none;fill-rule:nonzero;stroke:#fff;stroke-width:8.33px;stroke-linecap:butt;stroke-linejoin:miter;stroke-miterlimit:10;"/><path id="Path_1208" d="M493.821,333.858c-0,0 15.283,13.892 26.437,-5.67c9.246,-16.221 58.067,-2.734 55.267,5.67" style="fill:none;fill-rule:nonzero;stroke:#f00;stroke-width:8.33px;stroke-linecap:butt;stroke-linejoin:miter;stroke-miterlimit:10;"/><path id="Path_1209" d="M379.521,525.813l-18.158,-9.08l-18.155,9.08l-18.175,-18.138l9.08,-13.617l27.233,4.538l27.233,-4.538l9.079,13.617l-18.137,18.137Z" style="fill:none;fill-rule:nonzero;stroke:#ffd525;stroke-width:8.33px;stroke-linecap:butt;stroke-linejoin:miter;stroke-miterlimit:10;"/><path id="Path_1210" d="M320.517,416.879c-0,0 11.458,-10.033 18.154,-9.079c10.592,1.512 34.8,16.642 45.392,18.154c6.7,0.958 18.158,-9.079 18.158,-9.079" style="fill:none;fill-rule:nonzero;stroke:#ffd525;stroke-width:8.33px;stroke-linecap:butt;stroke-linejoin:miter;stroke-miterlimit:10;"/><path id="Path_1211" d="M402.221,416.875l-0,18.158c-4.542,31.771 -18.158,40.834 -18.158,40.834c-7.205,2.952 -14.91,4.493 -22.696,4.537c-7.786,-0.044 -15.492,-1.585 -22.696,-4.537c-7.205,-2.953 -13.617,-9.079 -18.154,-40.834l-0,-18.158" style="fill:none;fill-rule:nonzero;stroke:#fff;stroke-width:8.33px;stroke-linecap:butt;stroke-linejoin:miter;stroke-miterlimit:10;"/><path id="Path_1212" d="M575.525,333.858l0,18.154c-4.542,31.771 -18.158,40.834 -18.158,40.834c-7.204,2.955 -14.91,4.497 -22.696,4.541c-7.786,-0.044 -15.492,-1.586 -22.696,-4.541c-7.204,-2.955 -13.617,-9.079 -18.154,-40.834l-0,-18.154" style="fill:none;fill-rule:nonzero;stroke:#fff;stroke-width:8.33px;stroke-linecap:butt;stroke-linejoin:miter;stroke-miterlimit:10;"/><path id="Path_1213" d="M320.517,416.875c-0,-27.575 13.275,-40.833 40.833,-40.833c27.558,-0 40.833,13.275 40.833,40.833" style="fill:none;fill-rule:nonzero;stroke:#fff;stroke-width:8.33px;stroke-linecap:butt;stroke-linejoin:miter;stroke-miterlimit:10;"/><path id="Path_1214" d="M493.821,333.858c-0,-27.575 13.275,-40.833 40.833,-40.833c27.559,0 40.834,13.279 40.834,40.833" style="fill:none;fill-rule:nonzero;stroke:#fff;stroke-width:8.33px;stroke-linecap:butt;stroke-linejoin:miter;stroke-miterlimit:10;"/><path id="Path_1215" d="M297.821,589.358l-0,-24.371" style="fill:none;fill-rule:nonzero;stroke:#fff;stroke-width:8.33px;stroke-linecap:butt;stroke-linejoin:miter;stroke-miterlimit:10;"/><path id="Path_1216" d="M471.125,506.333l0,-24.371" style="fill:none;fill-rule:nonzero;stroke:#fff;stroke-width:8.33px;stroke-linecap:butt;stroke-linejoin:miter;stroke-miterlimit:10;"/><path id="Path_1217" d="M424.912,589.358l0,-24.371" style="fill:none;fill-rule:nonzero;stroke:#fff;stroke-width:8.33px;stroke-linecap:butt;stroke-linejoin:miter;stroke-miterlimit:10;"/><path id="Path_1218" d="M598.217,506.333l-0,-24.371" style="fill:none;fill-rule:nonzero;stroke:#fff;stroke-width:8.33px;stroke-linecap:butt;stroke-linejoin:miter;stroke-miterlimit:10;"/></g></svg>