<?xml version="1.0" encoding="UTF-8" standalone="no"?><!DOCTYPE svg PUBLIC "-//W3C//DTD SVG 1.1//EN" "http://www.w3.org/Graphics/SVG/1.1/DTD/svg11.dtd"><svg width="100%" height="100%" viewBox="0 0 19546 15880" version="1.1" xmlns="http://www.w3.org/2000/svg" xmlns:xlink="http://www.w3.org/1999/xlink" xml:space="preserve" xmlns:serif="http://www.serif.com/" style="fill-rule:evenodd;clip-rule:evenodd;stroke-linecap:round;stroke-linejoin:round;"><g id="Group_216"><path id="Path_1489" d="M1862.41,15860.5l3785.99,-2478.04l1323.14,-4285.32l6669.04,-3765.72" style="fill:none;fill-rule:nonzero;stroke:#000;stroke-width:34.78px;"/><path id="Path_1490" d="M561.988,16453l7200.27,-6578.65l1854.98,-2791.3l9928.6,-5776.88" style="fill:none;fill-rule:nonzero;stroke:#f53c37;stroke-width:69.56px;stroke-linecap:butt;"/><path id="Path_1182" d="M12100.5,6.25c2049.16,-0 3712.82,1663.64 3712.82,3712.71c-0,2049.07 -1663.66,3712.87 -3712.82,3712.87c-2049.16,-0 -3712.87,-1663.64 -3712.87,-3712.8c-0,-2049.16 1663.73,-3712.78 3712.87,-3712.78Z" style="fill:none;fill-rule:nonzero;stroke:#fff;stroke-width:52.17px;stroke-dasharray:156.51,260.85,0,0;"/><path id="Path_1184" d="M4644.76,10313.4l-972.627,-972.661l-972.626,972.661l972.626,972.627l972.627,-972.627Z" style="fill:#fff;stroke:#f53c37;stroke-width:52.17px;"/><path id="Path_1185" d="M9931.26,5799.79l0,-1835.51" style="fill:none;fill-rule:nonzero;stroke:#fff;stroke-width:52.17px;"/><path id="Path_1186" d="M10349.6,5799.79l0,-1835.51" style="fill:none;fill-rule:nonzero;stroke:#fff;stroke-width:52.17px;"/><path id="Path_1187" d="M10768,5799.79l0,-1835.51" style="fill:none;fill-rule:nonzero;stroke:#fff;stroke-width:52.17px;"/><path id="Path_1188" d="M13706,9037.81c401.548,0.2 731.909,330.562 732.109,732.109c-0.2,401.547 -330.561,731.909 -732.109,732.109c-401.554,-0.181 -731.927,-330.555 -732.108,-732.109c0.181,-401.555 330.554,-731.928 732.108,-732.109Z" style="fill:none;fill-rule:nonzero;stroke:#fff;stroke-width:52.17px;"/><path id="Path_1189" d="M12627.6,2607.85l-115.798,281.958l232.396,197.252l-303.955,-22.99l-115.781,281.975l-72.063,-296.182l-303.956,-22.972l259.42,-159.986l-72.063,-296.182l232.38,197.252l259.42,-160.125Z" style="fill:#f00;stroke:#fff;stroke-width:52.17px;"/><path id="Path_1194" d="M12697.9,7787.67l-2234.15,0l0,1489.45l827.457,-496.477l1406.69,-0l-0,-992.973Z" style="fill:none;fill-rule:nonzero;stroke:#fff;stroke-width:52.17px;stroke-linecap:butt;stroke-linejoin:miter;stroke-miterlimit:10;"/><path id="Path_1195" d="M12449.7,8449.65l-661.993,0" style="fill:none;fill-rule:nonzero;stroke:#f00;stroke-width:52.17px;stroke-linecap:butt;stroke-linejoin:miter;stroke-miterlimit:10;"/><path id="Path_1196" d="M11539.5,8449.65l-822.779,0" style="fill:none;fill-rule:nonzero;stroke:#f00;stroke-width:52.17px;stroke-linecap:butt;stroke-linejoin:miter;stroke-miterlimit:10;"/><path id="Path_1197" d="M12449.7,8118.65l-1323.97,0" style="fill:none;fill-rule:nonzero;stroke:#f00;stroke-width:52.17px;stroke-linecap:butt;stroke-linejoin:miter;stroke-miterlimit:10;"/><path id="Path_1198" d="M8369.15,12438l0,-332.144c0,-664.185 464.915,-597.756 929.865,-863.436" style="fill:none;fill-rule:nonzero;stroke:#fff;stroke-width:52.17px;stroke-linecap:butt;stroke-linejoin:miter;stroke-miterlimit:10;"/><path id="Path_1201" d="M10361.7,11242.5c464.915,265.663 929.848,199.252 929.848,863.436l-0,332.145" style="fill:none;fill-rule:nonzero;stroke:#fff;stroke-width:52.17px;stroke-linecap:butt;stroke-linejoin:miter;stroke-miterlimit:10;"/><path id="Path_1206" d="M10162.4,10777.6l0,265.663" style="fill:none;fill-rule:nonzero;stroke:#fff;stroke-width:52.17px;stroke-linecap:butt;stroke-linejoin:miter;stroke-miterlimit:10;"/><path id="Path_1207" d="M9498.25,11043.2l-0,-265.663" style="fill:none;fill-rule:nonzero;stroke:#fff;stroke-width:52.17px;stroke-linecap:butt;stroke-linejoin:miter;stroke-miterlimit:10;"/><path id="Path_1209" d="M10096,11508.2l-265.698,-132.84l-265.664,132.84l-265.733,-265.68l132.823,-199.252l398.487,66.411l398.521,-66.411l132.823,199.252l-265.559,265.68Z" style="fill:none;fill-rule:nonzero;stroke:#ffd525;stroke-width:52.17px;stroke-linecap:butt;stroke-linejoin:miter;stroke-miterlimit:10;"/><path id="Path_1210" d="M9232.59,9914.14c0,0 167.638,-146.839 265.664,-132.823c154.995,22.137 509.224,243.457 664.184,265.664c98.026,13.998 265.698,-132.823 265.698,-132.823" style="fill:none;fill-rule:nonzero;stroke:#ffd525;stroke-width:52.17px;stroke-linecap:butt;stroke-linejoin:miter;stroke-miterlimit:10;"/><path id="Path_1211" d="M10428.2,9914.14l-0,265.698c-66.429,464.916 -265.698,597.756 -265.698,597.756c-132.91,66.359 -332.162,66.359 -332.162,66.359c0,0 -199.252,0 -332.144,-66.394c-0,0 -199.235,-132.823 -265.664,-597.755l0,-265.699" style="fill:none;fill-rule:nonzero;stroke:#fff;stroke-width:52.17px;stroke-linecap:butt;stroke-linejoin:miter;stroke-miterlimit:10;"/><path id="Path_1213" d="M9232.59,9914.14c0,-403.442 194.261,-597.755 597.756,-597.755c403.495,-0 597.86,194.261 597.86,597.755" style="fill:none;fill-rule:nonzero;stroke:#fff;stroke-width:52.17px;stroke-linecap:butt;stroke-linejoin:miter;stroke-miterlimit:10;"/><path id="Path_1215" d="M8900.5,12438l0,-356.594" style="fill:none;fill-rule:nonzero;stroke:#fff;stroke-width:52.17px;stroke-linecap:butt;stroke-linejoin:miter;stroke-miterlimit:10;"/><path id="Path_1217" d="M10760.2,12438l0,-356.594" style="fill:none;fill-rule:nonzero;stroke:#fff;stroke-width:52.17px;stroke-linecap:butt;stroke-linejoin:miter;stroke-miterlimit:10;"/><path id="Path_1199" d="M15042.1,9394.43l0,-332.145c0,-664.184 464.915,-597.755 929.865,-863.436" style="fill:none;fill-rule:nonzero;stroke:#fff;stroke-width:52.17px;stroke-linecap:butt;stroke-linejoin:miter;stroke-miterlimit:10;"/><path id="Path_1200" d="M16835.4,7733.96l0,265.698" style="fill:none;fill-rule:nonzero;stroke:#fff;stroke-width:52.17px;stroke-linecap:butt;stroke-linejoin:miter;stroke-miterlimit:10;"/><path id="Path_1202" d="M16171.2,7999.66l-0,-265.698" style="fill:none;fill-rule:nonzero;stroke:#fff;stroke-width:52.17px;stroke-linecap:butt;stroke-linejoin:miter;stroke-miterlimit:10;"/><path id="Path_1203" d="M16518.2,8852.46l-0,-496.217" style="fill:none;fill-rule:nonzero;stroke:#fff;stroke-width:52.17px;stroke-linecap:butt;stroke-linejoin:miter;stroke-miterlimit:10;"/><path id="Path_1204" d="M17034.6,8198.88c464.916,265.698 929.848,199.252 929.848,863.436l0,332.145" style="fill:none;fill-rule:nonzero;stroke:#fff;stroke-width:52.17px;stroke-linecap:butt;stroke-linejoin:miter;stroke-miterlimit:10;"/><path id="Path_1205" d="M17034.6,8198.9c-315.537,208.973 -669.505,210.625 -1062.67,0l132.823,-199.234l398.487,66.394l398.521,-66.394l132.84,199.234Z" style="fill:none;fill-rule:nonzero;stroke:#f00;stroke-width:52.17px;stroke-linecap:butt;stroke-linejoin:miter;stroke-miterlimit:10;"/><path id="Path_1208" d="M15905.5,6870.56c-0,0 223.649,203.286 386.835,-82.949c135.31,-237.336 849.663,-39.997 808.624,82.949" style="fill:none;fill-rule:nonzero;stroke:#f00;stroke-width:52.17px;stroke-linecap:butt;stroke-linejoin:miter;stroke-miterlimit:10;"/><path id="Path_1212" d="M17101.1,6870.56l0,265.663c-66.429,464.916 -265.698,597.756 -265.698,597.756c-132.823,66.429 -332.144,66.429 -332.144,66.429c-0,-0 -199.252,-0 -332.145,-66.429c0,0 -199.234,-132.823 -265.663,-597.756l-0,-265.663" style="fill:none;fill-rule:nonzero;stroke:#fff;stroke-width:52.17px;stroke-linecap:butt;stroke-linejoin:miter;stroke-miterlimit:10;"/><path id="Path_1214" d="M15905.5,6870.56c-0,-403.442 194.261,-597.79 597.755,-597.79c403.495,-0 597.86,194.295 597.86,597.79" style="fill:none;fill-rule:nonzero;stroke:#fff;stroke-width:52.17px;stroke-linecap:butt;stroke-linejoin:miter;stroke-miterlimit:10;"/><path id="Path_1216" d="M15573.4,9394.41l0,-356.611" style="fill:none;fill-rule:nonzero;stroke:#fff;stroke-width:52.17px;stroke-linecap:butt;stroke-linejoin:miter;stroke-miterlimit:10;"/><path id="Path_1218" d="M17433.1,9394.41l-0,-356.611" style="fill:none;fill-rule:nonzero;stroke:#fff;stroke-width:52.17px;stroke-linecap:butt;stroke-linejoin:miter;stroke-miterlimit:10;"/><path id="Path_1190" d="M13640.6,4379.72l2331.36,0l0,1668.37l-863.471,-632.24l-1467.89,0l-0,-1036.13Z" style="fill:none;fill-rule:nonzero;stroke:#fff;stroke-width:52.17px;stroke-linecap:butt;stroke-linejoin:miter;stroke-miterlimit:10;"/><path id="Path_1191" d="M13899.6,5070.5l1122.53,-0" style="fill:none;fill-rule:nonzero;stroke:#f00;stroke-width:52.17px;stroke-linecap:butt;stroke-linejoin:miter;stroke-miterlimit:10;"/><path id="Path_1192" d="M15194.8,5070.5l518.076,-0" style="fill:none;fill-rule:nonzero;stroke:#f00;stroke-width:52.17px;stroke-linecap:butt;stroke-linejoin:miter;stroke-miterlimit:10;"/><path id="Path_1193" d="M14331.3,4725.12l1381.56,-0" style="fill:none;fill-rule:nonzero;stroke:#f00;stroke-width:52.17px;stroke-linecap:butt;stroke-linejoin:miter;stroke-miterlimit:10;"/><path id="Path_14891" serif:id="Path_1489" d="M15326,4379.72l3566.17,-2013.66" style="fill:none;fill-rule:nonzero;stroke:#fff;stroke-width:34.78px;"/></g></svg>