<svg xmlns="http://www.w3.org/2000/svg" width="671.486" height="318.432" viewBox="0 0 671.486 318.432">
  <g id="Group_225" data-name="Group 225" transform="translate(-0.004 318.432)">
    <path id="Path_1557" data-name="Path 1557" d="M670.99-12.268C670.99-5.768,526.079-.5,347.319-.5S23.646-5.768,23.646-12.268,168.56-24.036,347.319-24.036,670.99-18.767,670.99-12.268Z" stroke="#fff" stroke-linejoin="round" stroke-width="1"/>
    <path id="Path_1558" data-name="Path 1558" d="M97.994-72.088s28.087-61.171,19.444-64.952-15.666,22.148-16.206,14.586,10.295-35.653,7.308-54.831S94.632-194.357,90.124-186.2c-6.231,11.274-4.3,41.925-9.162,43S68.823-162.97,62.877-153.516s7.293,51.319,4.862,53.48-3.354-9.344-6.139-2.045,8.624,29.993,8.624,29.993Z"/>
    <path id="Path_1559" data-name="Path 1559" d="M86.393-73.386a.571.571,0,0,0,.577-.573c0-.3.177-29.91,4.331-47.4,4.177-17.6,8.023-59.206,8.062-59.625a.57.57,0,0,0-.515-.625.578.578,0,0,0-.631.52c-.039.418-3.877,41.946-8.031,59.465C86-104.006,85.824-74.262,85.824-73.963A.574.574,0,0,0,86.393-73.386Z" fill="#fff"/>
    <path id="Path_1560" data-name="Path 1560" d="M102.106-72.088H33.322S26.845-39.979,42.1-18.875a11.174,11.174,0,0,0,9.062,4.607H81.593a11.187,11.187,0,0,0,8.093-3.443C95.786-24.1,106.351-40.15,102.106-72.088Z" fill="#fff" stroke="#000" stroke-linejoin="round" stroke-width="1"/>
    <path id="Path_1561" data-name="Path 1561" d="M76.924-72.088s17.747-17.158,13.2-21.552C85.632-97.983,77.731-87.881,75.57-92.2s18.393-38.932,12.17-44.585-11.084,2.951-15.139,0,20.639-47.048,8.162-46.744-16.531,3.322-17.347-1.158,13.508-29.6,9.185-37.972-7.854,4.591-12.431,0,.546-29.715-13.5-27.823-6.477,28.092-9.454,30.523-8.639-6.338-13.231,2.1,15.939,35.806,14.047,39.408-11.616-9.169-17.831-2.109,20.532,36.195,19.178,43.777-5.931-5.384-9.039,7.04,21.463,35.113,18.224,37-10.8-2.7-10.8,2.972S49.915-72.088,49.915-72.088Z" fill="#fff" stroke="#000" stroke-linejoin="round" stroke-width="1"/>
    <path id="Path_1562" data-name="Path 1562" d="M64.932-73.386a.547.547,0,0,0,.092-.008.581.581,0,0,0,.477-.661c-.07-.419-6.893-42.071-6.893-52.423,0-11.768-1.908-22.211-3.923-33.266-1.169-6.441-2.385-13.1-3.239-20.214-1.746-14.569-2.454-34.705-2.869-46.735-.131-3.641-.231-6.516-.323-8.047a76.313,76.313,0,0,1,0-10.391.573.573,0,0,0-.515-.626.581.581,0,0,0-.631.519,77.393,77.393,0,0,0,0,10.566c.092,1.517.192,4.386.315,8.018.423,12.049,1.131,32.215,2.885,46.833.854,7.148,2.069,13.825,3.246,20.282,2.008,11.005,3.9,21.4,3.9,33.061,0,10.446,6.631,50.893,6.908,52.61A.578.578,0,0,0,64.932-73.386Z"/>
    <path id="Path_1563" data-name="Path 1563" d="M36.022-72.088s-24.378-28.835-22.57-34.44c2.431-7.553,10.577,6.328,14.085,1.2S2.644-134.693.752-146.168s7.293-7.348,11.885-6.538-7.562-26.471.546-40.38,17.862,37.139,22.839,38.22,5.246-10.535,12.27-4.592-9.531,42.115-5.485,46.446,12.547-10.972,19.3-2.478-8.954,43.4-8.954,43.4Z" fill="#f53c37" stroke="#000" stroke-linejoin="round" stroke-width="1"/>
    <path id="Path_1564" data-name="Path 1564" d="M44.238-73.386a.59.59,0,0,0,.154-.021.574.574,0,0,0,.4-.7c-.1-.392-10.508-39.216-13.031-50.071-.839-3.6-2.254-8.947-3.893-15.138-3.254-12.268-7.3-27.536-8.031-34.117a117.825,117.825,0,0,0-3.293-17.474.575.575,0,0,0-.715-.393.581.581,0,0,0-.392.711,116.062,116.062,0,0,1,3.254,17.283c.746,6.666,4.8,21.98,8.062,34.284,1.639,6.182,3.054,11.522,3.885,15.1C33.168-113.048,43.576-74.2,43.684-73.812A.575.575,0,0,0,44.238-73.386Z" fill="#fff"/>
    <path id="Path_1565" data-name="Path 1565" d="M582.281-126.14H219.074l51.188-111.838a29.04,29.04,0,0,1,26.4-16.953H608.65A20.916,20.916,0,0,1,627.665-225.3Z" stroke="#fff" stroke-linejoin="round" stroke-width="1"/>
    <path id="Path_1566" data-name="Path 1566" d="M169.489-15.856h16.005V-49.593H169.489Z" fill="#fff" stroke="#000" stroke-linecap="round" stroke-linejoin="round" stroke-width="1" fill-rule="evenodd"/>
    <path id="Path_1567" data-name="Path 1567" d="M527.075-11.268H543.08V-45.005H527.075Z" fill="#fff" stroke="#000" stroke-linecap="round" stroke-linejoin="round" stroke-width="1" fill-rule="evenodd"/>
    <path id="Path_1568" data-name="Path 1568" d="M572.3-15.856H588.3V-49.593H572.3Z" fill="#fff" stroke="#000" stroke-linecap="round" stroke-linejoin="round" stroke-width="1" fill-rule="evenodd"/>
    <path id="Path_1569" data-name="Path 1569" d="M549.241-126.14H198.47l51.189-111.838a29.04,29.04,0,0,1,26.4-16.953H575.607A20.92,20.92,0,0,1,594.629-225.3Z" fill="#fff" stroke="#000" stroke-linejoin="round" stroke-width="1"/>
    <path id="Path_1570" data-name="Path 1570" d="M123.069-171.042a206.116,206.116,0,0,1,45.325,0c23.912,2.813,35.266-4.2,48.224,3.8,14.613,9.024,3.168,82.468,1,117.1-.527,8.393-8.719,14.965-18.647,14.965H130.133Z" stroke="#fff" stroke-linejoin="round" stroke-width="1"/>
    <path id="Path_1571" data-name="Path 1571" d="M107.7-11.268h16.005V-45.005H107.7Z" fill="#fff" stroke="#000" stroke-linecap="round" stroke-linejoin="round" stroke-width="1" fill-rule="evenodd"/>
    <path id="Path_1572" data-name="Path 1572" d="M104.706-35.177h24.94c6.19,0,11.4-5.29,12.137-12.324,3.538-33.873,10.47-125.742-18.714-123.54-32.983,2.489-35.546,72.718-30.5,123.5C93.266-40.489,98.506-35.177,104.706-35.177Z" fill="#fff" stroke="#000" stroke-linejoin="round" stroke-width="1"/>
    <path id="Path_1573" data-name="Path 1573" d="M329.257-131.227s-135.547-5.579-147.283,4.783-20.106,17.138-26.482,47.427-5.182,43.84,33.876,43.84H512.182v-97.55S384.258-148.364,329.257-131.227Z" fill="#fff" stroke="#000" stroke-linejoin="round" stroke-width="1"/>
    <path id="Path_1574" data-name="Path 1574" d="M265.856-135.419a59.68,59.68,0,0,0-7.452-.88,21.453,21.453,0,0,0-6.216.426c-4.7,1.28-31.538,10.958-28.544,20.745,2.05,6.7,16.445,2.273,27.837-1.317,5.239-1.65,9.843-3.123,12.317-3.252C271.648-120.1,276.077-133.545,265.856-135.419Z" fill="#fff" stroke="#000" stroke-linejoin="round" stroke-width="1"/>
    <path id="Path_1575" data-name="Path 1575" d="M298.8-139.779l-34.654,6.23s-7.117.575-7.122,8.144c0,3.34,3.622,4.274,3.622,4.274s18.5,2.558,34.724-.251A32.341,32.341,0,0,1,298.8-139.779Z" fill="#fff" stroke="#000" stroke-linejoin="round" stroke-width="1"/>
    <path id="Path_1576" data-name="Path 1576" d="M425.359-182.073s-44.2-51.633-71.491-34.422c-16.525,10.422,42.63,78.641,92.145,82.083a60.365,60.365,0,0,0,11.121.052s17.211,6.568,34.687,4.979,27.007-2.648,32.3-18.8-4.236-24.361-18.27-27.274S425.359-182.073,425.359-182.073Z"/>
    <path id="Path_1577" data-name="Path 1577" d="M379.022-181.072s-31.124,42.984-55.994,48.551c-6.015,1.347-19.157.205-18.188-5.753,2.775-17.071,32.307-63.241,49.028-78.221C363.3-224.947,375.669-198.547,379.022-181.072Z"/>
    <path id="Path_1578" data-name="Path 1578" d="M467.265-156.173l-93.417,9.533s-55.408,5.928-86.168,14.858c-13.412,3.893-5.209,14.864-3.112,15.243,10.543,1.9,70.929,11.885,122.93,10.132,28.977-.976,104.734-11.94,109.993-20.361S510-163.218,467.265-156.173Z"/>
    <path id="Path_1579" data-name="Path 1579" d="M464.813-161.42l-98.121,9.533s-58.2,5.928-90.506,14.858c-14.088,3.893-6.574,19.411-4.372,19.79,11.074,1.9,70.091,5.588,124.71,3.835,30.436-.976,112.579-12.64,118.1-21.06S509.7-168.466,464.813-161.42Z" fill="#fff" stroke="#000" stroke-linejoin="round" stroke-width="1"/>
    <path id="Path_1580" data-name="Path 1580" d="M385.731-153.124s57.606,13.875,69.256,13.345,33.572-14.388,33.572-14.388Z"/>
    <path id="Path_1581" data-name="Path 1581" d="M484.874-276.35c-10.311-4.006-12.982,19.372-37.4,32.271-8.506,4.49-44.352-23.989-50.4-18.7-4.359,3.813,23.533,44.142,55,35.2S495.264-272.311,484.874-276.35Z"/>
    <path id="Path_1582" data-name="Path 1582" d="M396.571-266.036c-2.151-1.89-3.535-5.4-4.412-3.243s1.506,3.963,1.049,5.519-4.558,2.924-4.673,3.266-3.674,5.178-1.342,5.619c-.724.238-1.285.555-1.248.945.1,1.058,18.864.218,15.41-7.483C400.607-263.08,399.884-263.132,396.571-266.036Z" fill="#fff" stroke="#000" stroke-linejoin="round" stroke-width="1"/>
    <path id="Path_1583" data-name="Path 1583" d="M522.965-145.049s35.4-54.479,15.664-123.451c-6.679-23.347-61.689-12.208-65.837,1.646-4.949,16.53-5.508,28.7-8.724,52.007-.653,4.728-18.144,34.023-18.144,34.023s1.51,14.486,33.54,20.64C519.89-152.417,522.965-145.049,522.965-145.049Z" fill="#fff" stroke="#000" stroke-linejoin="round" stroke-width="1"/>
    <path id="Path_1584" data-name="Path 1584" d="M452.52-150.678l37.917-5.661-.1,1.521c-.073,1.133-37.427,6.715-37.427,6.715a5.468,5.468,0,0,1-1.129.042l-79.207-5.123A2.654,2.654,0,0,1,370.1-156v-.005Z" fill="#f53c37"/>
    <path id="Path_1585" data-name="Path 1585" d="M490.437-156.339l-37.917,5.661L370.1-156.009l37.916-5.661Z"/>
    <path id="Path_1586" data-name="Path 1586" d="M538.961-269.212s30.649,42.4,26.736,80.909-92.2,33.7-95.669,30.691-1.862-11.463,2.459-14.533,66.92-21.822,67.992-23.441-20.594-49.77-21.537-61.934S528.138-280.719,538.961-269.212Z" fill="#fff" stroke="#000" stroke-linejoin="round" stroke-width="1"/>
    <path id="Path_1587" data-name="Path 1587" d="M471.988-166.6s-11.058-.506-12.933.034-10.81,7.973-10.393,8.561c1.1,1.551,7.852-3.438,7.852-3.438s-5.842,5.592-5.353,6.6,1.13.953,1.13.953a1.592,1.592,0,0,0,1.138,1.473c.736.273,6.616-3.039,6.616-3.039a17.93,17.93,0,0,0-3.366,3.233c-1.029,1.506,3.613-1.23,5.823-2.128s7.145-.234,11.38-1.811,5.968-3.884,5.543-5.177S475.419-166.487,471.988-166.6Z" fill="#fff" stroke="#000" stroke-linejoin="round" stroke-width="1"/>
    <path id="Path_1588" data-name="Path 1588" d="M452.436-148.094l-80.705-4.922a1.9,1.9,0,0,1-1.779-1.83l-1.82-55.726a3.816,3.816,0,0,1,3.689-3.94l74.8,5.277a3.818,3.818,0,0,1,3.94,3.69Z" fill="#f53c37"/>
    <path id="Path_1589" data-name="Path 1589" d="M410.874-181.443c.209,2.092-.857,3.954-2.381,4.159s-2.928-1.325-3.138-3.416.857-3.954,2.381-4.16S410.664-183.535,410.874-181.443Z" fill="#fff"/>
    <path id="Path_1590" data-name="Path 1590" d="M489.126-316.227c-1.744-1.124-5.7-2.97-8.516.061-1.83,1.97-2.533,3.833-1.027,7.008-.786,2.011-.137,3.012,1.4,4.218a12.881,12.881,0,0,0,2.2,1.572c1.094.705.926,2.23,1.407,1.847s13.2,2.675,13.864,2.261a2.224,2.224,0,0,0,.978-2.52,14.49,14.49,0,0,1-.261-4.428c.651-5.975-6.048-8.461-6.048-8.461A26.8,26.8,0,0,1,489.126-316.227Z" fill="#f53c37" stroke="#000" stroke-linejoin="round" stroke-width="1"/>
    <path id="Path_1591" data-name="Path 1591" d="M491.119-279.07c5.237,1.577,11.879-4.947,11.48-7.194l-4.852-14.3-.254-.582-.19.164-6.284,5.426-.226,2.311-.074.753-.077.809-.026.259.137,5S489.827-279.46,491.119-279.07Z" fill="#fff" stroke="#000" stroke-linejoin="round" stroke-width="1"/>
    <path id="Path_1592" data-name="Path 1592" d="M497.895-301.133a8.642,8.642,0,0,1-1.634,6.712c-.124.17-.254.333-.388.489a5.32,5.32,0,0,1-2.146,1.584c-.247.166-.491.322-.727.473-.2.125-.4.244-.592.356l0,0c-.091.056-.182.108-.271.157l-.01,0c-2.142,1.219-3.624,1.563-4.9,1.272a4.138,4.138,0,0,1-.4-.114,3.117,3.117,0,0,1-.655-.31.046.046,0,0,0-.016-.011,4.572,4.572,0,0,1-1.646-2.071,37.522,37.522,0,0,1-3.179-12.371c-.028-3.038-1.752-4.981,3.613-5.768,1.574-.231,5.493-.713,7.141,2.442a10.813,10.813,0,0,0,2.874,3.322c0-.215,0-.375,0-.455-.048-1.1.136-2.751,1.806-2.019C498.759-306.558,499.293-302.751,497.895-301.133Z" fill="#fff" stroke="#000" stroke-linejoin="round" stroke-width="1"/>
    <path id="Path_1593" data-name="Path 1593" d="M490.62-289.753l.133,4.263a6.921,6.921,0,0,0,3.686-5.138c.022-.123.038-.241.052-.355a2.544,2.544,0,0,0-.106-1.469c-.368-.45-1.35,1.015-3.175,1.513-.167.045-.33.087-.491.126a11.63,11.63,0,0,1-5.443.181,7.972,7.972,0,0,0,5.056.555h.01a.149.149,0,0,1,.084.024A.364.364,0,0,1,490.62-289.753Z"/>
    <path id="Path_1594" data-name="Path 1594" d="M495.157-281.526s-5.181-3.3-5.561-2.866.162,6.682.162,6.682,3.281,3.226,3.866,2.93,2.514-3.81,2.514-3.81,4.18,3.182,4.722,3,6.055-7.754,6.055-7.754-3.694-4.622-4.231-4.179S495.157-281.526,495.157-281.526Z" fill="#fff" stroke="#000" stroke-linejoin="round" stroke-width="1"/>
    <path id="Path_1595" data-name="Path 1595" d="M532.507-171.042h33.877c62.1,0,51.4,86.266,49.217,120.9-.521,8.393-8.718,14.965-18.644,14.965H528.124Z" stroke="#fff" stroke-linejoin="round" stroke-width="1"/>
    <path id="Path_1596" data-name="Path 1596" d="M507.678-35.177H541.4c8.367,0,15.417-5.29,16.411-12.324,4.783-33.873,14.156-125.742-25.306-123.54-44.6,2.489-48.064,72.718-41.246,123.5C492.208-40.489,499.293-35.177,507.678-35.177Z" fill="#fff" stroke="#000" stroke-linejoin="round" stroke-width="1"/>
    <path id="Path_1597" data-name="Path 1597" d="M496.366-278.048s4.428,18.168-5.929,48.181-38,58.525-38,58.525" fill="none" stroke="#000" stroke-linecap="round" stroke-linejoin="round" stroke-width="1"/>
    <path id="Path_1598" data-name="Path 1598" d="M399.408-271.321l-14.8-2.085.035,20.645,9.043,1.211Z" fill="#fff" stroke="#000" stroke-linecap="round" stroke-linejoin="round" stroke-width="1" fill-rule="evenodd"/>
    <path id="Path_1599" data-name="Path 1599" d="M386.188-257.6c-3.533-.381-3.962-9.893.027-9.584,1.32.1,4.432,2.46,5.833,4.111.82.967-5.565-1.939-5.6-1.579s5.109,2.783,4.3,4c-.987,1.493-2.191,1.6-4.5,1.063C386.818-259.081,386.607-257.551,386.188-257.6Z" fill="#fff" stroke="#000" stroke-linejoin="round" stroke-width="1"/>
    <path id="Path_1600" data-name="Path 1600" d="M398.6-274.967l-12.489-1.759-.4,2.827L398.2-272.14Z" fill="#fff" stroke="#000" stroke-linecap="round" stroke-linejoin="round" stroke-width="1" fill-rule="evenodd"/>
    <path id="Path_1601" data-name="Path 1601" d="M399.975-271.89l-16.043-2.26-.4,2.827,16.043,2.26Z" fill="#fff" stroke="#000" stroke-linecap="round" stroke-linejoin="round" stroke-width="1" fill-rule="evenodd"/>
    <path id="Path_1602" data-name="Path 1602" d="M396.571-277.312l-7.87-1.108-.284,2.019,7.869,1.108Z" fill="#fff" stroke="#000" stroke-linecap="round" stroke-linejoin="round" stroke-width="1" fill-rule="evenodd"/>
  </g>
</svg>
