<svg xmlns="http://www.w3.org/2000/svg" width="26.324" height="26.324" viewBox="0 0 26.324 26.324">
  <path fill="#fff" id="Icon_awesome-linkedin-in" data-name="Icon awesome-linkedin-in" d="M5.892,26.325H.435V8.75H5.892ZM3.161,6.352A3.176,3.176,0,1,1,6.321,3.161,3.187,3.187,0,0,1,3.161,6.352ZM26.318,26.325H20.872V17.769c0-2.039-.041-4.654-2.837-4.654-2.837,0-3.272,2.215-3.272,4.507v8.7H9.311V8.75h5.234v2.4h.076a5.734,5.734,0,0,1,5.164-2.838c5.523,0,6.539,3.637,6.539,8.362v9.654Z" transform="translate(0 0)"/>
</svg>
