<?xml version="1.0" encoding="UTF-8" standalone="no"?><!DOCTYPE svg PUBLIC "-//W3C//DTD SVG 1.1//EN" "http://www.w3.org/Graphics/SVG/1.1/DTD/svg11.dtd"><svg width="100%" height="100%" viewBox="0 0 44534 41667" version="1.1" xmlns="http://www.w3.org/2000/svg" xmlns:xlink="http://www.w3.org/1999/xlink" xml:space="preserve" xmlns:serif="http://www.serif.com/" style="fill-rule:evenodd;clip-rule:evenodd;stroke-linecap:round;stroke-linejoin:round;"><g id="Artboard1"><path id="Path_1465" d="M9247.22,25376c3640.43,1.285 6635.69,2996.52 6636.98,6636.98c-1.285,3640.44 -2996.52,6635.69 -6636.98,6636.98c-3640.44,-1.278 -6635.69,-2996.51 -6636.98,-6636.98c1.284,-3640.43 2996.51,-6635.69 6636.98,-6636.98Z" style="fill:none;fill-rule:nonzero;stroke:#000;stroke-width:297.97px;"/><path id="Path_1066" d="M27045.6,32805.6l-602.49,1466.58l1208.64,1025.78l-1580.49,-119.409l-602.181,1466.43l-374.822,-1540.35l-1580.8,-119.563l1349.15,-832.523l-374.596,-1540.43l1208.64,1025.93l1348.93,-832.443l0.015,-0.001Z" style="fill:none;fill-rule:nonzero;stroke:#000;stroke-width:229.35px;"/><path id="Path_1468" d="M16880.6,6487.48l4487.15,-0" style="fill:none;fill-rule:nonzero;stroke:#000;stroke-width:236.62px;"/><path id="Path_1469" d="M16880.6,7510.16l4487.15,0" style="fill:none;fill-rule:nonzero;stroke:#000;stroke-width:236.62px;"/><path id="Path_1470" d="M16880.6,8532.9l4487.15,0" style="fill:none;fill-rule:nonzero;stroke:#000;stroke-width:236.62px;"/><path id="Path_1466" d="M34152.9,17605.8c4261.83,2.036 7768.17,3508.37 7770.2,7770.2c-1.998,4261.86 -3508.35,7768.25 -7770.2,7770.28c-4261.98,-1.85 -7768.55,-3508.27 -7770.53,-7770.28c2.036,-4261.96 3508.57,-7768.35 7770.53,-7770.2Z" style="fill:none;fill-rule:nonzero;stroke:#000;stroke-width:202.57px;stroke-dasharray:607.7,1012.84,0,0;"/><g><path d="M10906.2,25736c-63.371,-520.917 -511.968,-895.522 -1001.14,-836.013l-1660.1,201.954c-489.176,59.509 -834.876,530.741 -771.506,1051.66c63.371,520.917 511.968,895.522 1001.14,836.013l1660.1,-201.954c489.176,-59.509 834.876,-530.741 771.506,-1051.66Zm-435.854,53.022c-37.018,-304.294 -299.067,-523.12 -584.819,-488.358l-1525.55,185.586c-285.753,34.762 -487.694,310.033 -450.676,614.327c37.018,304.294 299.067,523.12 584.82,488.358l1525.55,-185.586c285.753,-34.762 487.694,-310.033 450.676,-614.327Z" style="fill:#fff;stroke:#000;stroke-width:169.58px;stroke-miterlimit:1.5;"/><path d="M15334.9,24427.8c-155.981,-501.039 -664.611,-788.9 -1135.12,-642.423l-1596.75,497.091c-470.51,146.476 -725.868,672.177 -569.887,1173.22c155.98,501.039 664.611,788.9 1135.12,642.423l1596.75,-497.091c470.509,-146.476 725.867,-672.176 569.887,-1173.22Zm-419.222,130.51c-91.116,-292.683 -388.233,-460.837 -663.082,-375.273l-1467.34,456.802c-274.849,85.564 -424.017,392.653 -332.9,685.335c91.116,292.683 388.233,460.837 663.082,375.273l1467.34,-456.802c274.848,-85.564 424.016,-392.653 332.9,-685.335Z" style="fill:#fff;stroke:#000;stroke-width:169.58px;stroke-miterlimit:1.5;"/><path d="M19346.7,22059.7c-253.939,-459.222 -810.218,-638.449 -1241.46,-399.983l-1463.49,809.274c-431.241,238.466 -575.187,804.9 -321.248,1264.12c253.939,459.222 810.218,638.449 1241.46,399.983l1463.49,-809.274c431.241,-238.466 575.187,-804.9 321.248,-1264.12Zm-384.233,212.472c-148.339,-268.255 -473.29,-372.95 -725.2,-233.65l-1344.87,743.681c-251.91,139.3 -335.996,470.183 -187.658,738.439c148.339,268.255 473.29,372.95 725.2,233.65l1344.87,-743.681c251.91,-139.3 335.996,-470.183 187.658,-738.439Z" style="fill:#fff;stroke:#000;stroke-width:169.58px;stroke-miterlimit:1.5;"/><path d="M12680.6,25044.6c-15.391,-70.489 -85.115,-115.221 -155.604,-99.83l-2226.53,486.167c-70.489,15.392 -115.222,85.116 -99.83,155.605l55.775,255.434c15.391,70.489 85.115,115.221 155.604,99.83l2226.53,-486.167c70.489,-15.391 115.221,-85.115 99.83,-155.604l-55.775,-255.435Z" style="fill:#fff;stroke:#000;stroke-width:169.58px;stroke-miterlimit:1.5;"/><path d="M16889.9,23316.2c-30.06,-65.589 -107.715,-94.434 -173.305,-64.374l-2071.77,949.506c-65.589,30.06 -94.435,107.715 -64.375,173.305l108.931,237.68c30.06,65.589 107.715,94.435 173.305,64.374l2071.77,-949.506c65.589,-30.06 94.435,-107.715 64.375,-173.305l-108.931,-237.68Z" style="fill:#fff;stroke:#000;stroke-width:169.58px;stroke-miterlimit:1.5;"/></g><g><path d="M30144.4,16164.6c-333.511,-405.142 -913.162,-479.797 -1293.62,-166.608l-1291.14,1062.86c-380.457,313.189 -418.57,896.384 -85.059,1301.53c333.511,405.143 913.162,479.797 1293.62,166.608l1291.14,-1062.86c380.456,-313.189 418.57,-896.384 85.059,-1301.53Zm-338.985,279.051c-194.821,-236.665 -533.425,-280.274 -755.669,-97.325l-1186.49,976.715c-222.244,182.95 -244.508,523.624 -49.687,760.289c194.821,236.664 533.425,280.274 755.669,97.324l1186.49,-976.715c222.244,-182.95 244.508,-523.624 49.687,-760.288Z" style="fill:#fff;stroke:#000;stroke-width:169.58px;stroke-miterlimit:1.5;"/><path d="M33175.1,12680.4c-400.909,-338.59 -984.537,-307.828 -1302.5,68.652l-1079.04,1277.65c-317.958,376.48 -250.613,957.026 150.295,1295.62c400.908,338.59 984.537,307.827 1302.5,-68.653l1079.05,-1277.65c317.958,-376.48 250.613,-957.026 -150.295,-1295.62Zm-283.3,335.441c-234.191,-197.787 -575.118,-179.817 -760.854,40.104l-991.587,1174.09c-185.735,219.922 -146.396,559.048 87.795,756.835c234.191,197.788 575.119,179.818 760.854,-40.103l991.587,-1174.09c185.736,-219.921 146.396,-559.047 -87.795,-756.835Z" style="fill:#fff;stroke:#000;stroke-width:169.58px;stroke-miterlimit:1.5;"/><path d="M35284.4,8526.76c-461.02,-250.662 -1026.41,-102.685 -1261.8,330.243l-798.831,1469.21c-235.389,432.928 -52.205,987.917 408.814,1238.58c461.019,250.662 1026.41,102.685 1261.8,-330.243l798.831,-1469.21c235.389,-432.928 52.205,-987.917 -408.814,-1238.58Zm-209.73,385.737c-269.305,-146.425 -599.581,-59.984 -737.084,192.912l-734.085,1350.13c-137.502,252.895 -30.496,577.092 238.809,723.517c269.305,146.425 599.581,59.984 737.084,-192.912l734.085,-1350.13c137.502,-252.895 30.496,-577.093 -238.809,-723.517Z" style="fill:#fff;stroke:#000;stroke-width:169.58px;stroke-miterlimit:1.5;"/><path d="M31268.7,14627.6c-50.877,-51.158 -133.716,-51.386 -184.874,-0.509l-1615.92,1607.05c-51.158,50.877 -51.386,133.716 -0.509,184.874l184.365,185.383c50.877,51.158 133.716,51.386 184.874,0.509l1615.92,-1607.05c51.158,-50.877 51.386,-133.716 0.509,-184.874l-184.366,-185.383Z" style="fill:#fff;stroke:#000;stroke-width:169.58px;stroke-miterlimit:1.5;"/><path d="M33888.5,10907.1c-60.61,-39.14 -141.595,-21.708 -180.735,38.903l-1236.31,1914.5c-39.14,60.611 -21.709,141.596 38.902,180.736l219.638,141.833c60.611,39.14 141.596,21.708 180.736,-38.902l1236.31,-1914.5c39.14,-60.611 21.708,-141.596 -38.903,-180.736l-219.638,-141.833Z" style="fill:#fff;stroke:#000;stroke-width:169.58px;stroke-miterlimit:1.5;"/></g><g><path d="M28776.9,26032.5c448.86,-271.837 606.028,-834.746 350.755,-1256.26l-866.31,-1430.46c-255.273,-421.51 -826.94,-543.025 -1275.8,-271.189c-448.86,271.837 -606.028,834.746 -350.755,1256.26l866.31,1430.46c255.273,421.51 826.94,543.026 1275.8,271.19Zm-227.447,-375.564c262.202,-158.793 354.012,-487.617 204.894,-733.843l-796.095,-1314.52c-149.118,-246.226 -483.058,-317.209 -745.26,-158.416c-262.202,158.794 -354.012,487.618 -204.894,733.843l796.095,1314.52c149.118,246.225 483.058,317.209 745.26,158.415Z" style="fill:#fff;stroke:#000;stroke-width:169.58px;stroke-miterlimit:1.5;"/><path d="M31789.5,29532.3c392.681,-348.098 446.098,-930.09 119.212,-1298.84l-1109.35,-1251.43c-326.887,-368.754 -911.085,-385.525 -1303.77,-37.428c-392.682,348.097 -446.099,930.09 -119.212,1298.84l1109.35,1251.43c326.887,368.754 911.085,385.525 1303.77,37.428Zm-291.255,-328.559c229.386,-203.341 260.589,-543.313 69.638,-758.721l-1019.43,-1150c-190.952,-215.408 -532.212,-225.205 -761.597,-21.863c-229.385,203.341 -260.589,543.312 -69.637,758.721l1019.43,1150c190.951,215.408 532.211,225.205 761.596,21.863Z" style="fill:#fff;stroke:#000;stroke-width:169.58px;stroke-miterlimit:1.5;"/><path d="M35596.9,32216.6c314.304,-420.218 249.103,-1001.01 -145.51,-1296.16l-1339.19,-1001.65c-394.613,-295.152 -970.164,-193.614 -1284.47,226.604c-314.304,420.218 -249.102,1001.01 145.511,1296.16l1339.19,1001.65c394.613,295.153 970.164,193.615 1284.47,-226.604Zm-351.598,-262.979c183.601,-245.471 145.513,-584.74 -85.001,-757.154l-1230.64,-920.464c-230.514,-172.414 -566.722,-113.101 -750.323,132.37c-183.601,245.471 -145.514,584.741 85,757.154l1230.64,920.465c230.514,172.413 566.723,113.1 750.324,-132.371Z" style="fill:#fff;stroke:#000;stroke-width:169.58px;stroke-miterlimit:1.5;"/><path d="M30136.4,27366c57.938,-42.998 70.066,-124.945 27.068,-182.883l-1358.18,-1830.06c-42.999,-57.937 -124.946,-70.066 -182.883,-27.068l-209.951,155.815c-57.937,42.999 -70.066,124.946 -27.067,182.883l1358.18,1830.06c42.998,57.938 124.945,70.066 182.883,27.068l209.95,-155.815Z" style="fill:#fff;stroke:#000;stroke-width:169.58px;stroke-miterlimit:1.5;"/><path d="M33441.8,30493.1c47.442,-54.358 41.828,-137.007 -12.53,-184.45l-1717,-1498.57c-54.358,-47.443 -137.007,-41.829 -184.45,12.529l-171.921,196.98c-47.442,54.358 -41.828,137.007 12.53,184.45l1717,1498.57c54.358,47.443 137.007,41.828 184.45,-12.53l171.921,-196.979Z" style="fill:#fff;stroke:#000;stroke-width:169.58px;stroke-miterlimit:1.5;"/></g><g><path d="M11938.1,14717.3c320.133,-415.795 263.036,-997.438 -127.423,-1298.06l-1325.09,-1020.23c-390.46,-300.626 -967.37,-207.124 -1287.5,208.671c-320.133,415.795 -263.037,997.438 127.423,1298.06l1325.09,1020.23c390.459,300.626 967.37,207.124 1287.5,-208.671Zm-347.898,-267.857c187.006,-242.887 153.653,-582.654 -74.434,-758.265l-1217.69,-937.535c-228.088,-175.612 -565.091,-120.992 -752.097,121.895c-187.005,242.887 -153.653,582.654 74.435,758.265l1217.69,937.536c228.087,175.611 565.09,120.991 752.096,-121.896Z" style="fill:#fff;stroke:#000;stroke-width:169.58px;stroke-miterlimit:1.5;"/><path d="M16012.7,16890.4c240.173,-466.569 79.448,-1028.47 -358.693,-1254.01l-1486.9,-765.401c-438.141,-225.539 -988.845,-29.851 -1229.02,436.718c-240.172,466.57 -79.447,1028.47 358.693,1254.01l1486.9,765.401c438.14,225.539 988.844,29.851 1229.02,-436.719Zm-390.381,-200.953c140.297,-272.547 46.409,-600.784 -209.531,-732.533l-1366.39,-703.365c-255.94,-131.748 -577.634,-17.437 -717.931,255.11c-140.297,272.547 -46.41,600.784 209.53,732.533l1366.39,703.365c255.94,131.748 577.635,17.437 717.932,-255.11Z" style="fill:#fff;stroke:#000;stroke-width:169.58px;stroke-miterlimit:1.5;"/><path d="M20533.2,18015.6c141.014,-505.456 -129.861,-1023.33 -604.518,-1155.75l-1610.83,-449.395c-474.657,-132.422 -974.503,170.434 -1115.52,675.89c-141.014,505.456 129.861,1023.33 604.518,1155.75l1610.83,449.395c474.657,132.421 974.503,-170.435 1115.52,-675.89Zm-422.917,-117.988c82.374,-295.262 -75.858,-597.779 -353.13,-675.134l-1480.27,-412.971c-277.272,-77.354 -569.258,99.56 -651.631,394.822c-82.374,295.263 75.859,597.78 353.13,675.134l1480.27,412.971c277.271,77.355 569.257,-99.559 651.63,-394.822Z" style="fill:#fff;stroke:#000;stroke-width:169.58px;stroke-miterlimit:1.5;"/><path d="M13687.9,15468.7c38.461,-61.044 20.125,-141.829 -40.919,-180.29l-1928.2,-1214.84c-61.044,-38.46 -141.829,-20.124 -180.29,40.92l-139.37,221.209c-38.46,61.045 -20.124,141.83 40.92,180.29l1928.2,1214.84c61.044,38.46 141.829,20.125 180.289,-40.92l139.37,-221.209Z" style="fill:#fff;stroke:#000;stroke-width:169.58px;stroke-miterlimit:1.5;"/><path d="M17900.7,17188.4c24.567,-67.838 -10.564,-142.86 -78.402,-167.427l-2142.8,-775.999c-67.838,-24.567 -142.86,10.564 -167.427,78.402l-89.025,245.829c-24.567,67.839 10.564,142.861 78.402,167.428l2142.8,775.999c67.839,24.567 142.86,-10.564 167.428,-78.403l89.025,-245.829Z" style="fill:#fff;stroke:#000;stroke-width:169.58px;stroke-miterlimit:1.5;"/></g><circle cx="24349.5" cy="20881.4" r="6114.38" style="fill:#f53c37;stroke:#000;stroke-width:183.6px;stroke-miterlimit:1.5;"/><circle cx="6017.62" cy="25650.4" r="2720.82" style="fill:#fff;stroke:#000;stroke-width:183.6px;stroke-miterlimit:1.5;"/><circle cx="36215.8" cy="7710.87" r="4694.16" style="fill:#fff;stroke:#000;stroke-width:183.6px;stroke-miterlimit:1.5;"/><g><path d="M23232.5,20598l-5.443,-370.097l-683.341,0l-5.453,370.097l89.85,9.277l-106.2,334.629l-207.094,-714.003l-348.79,0l-209.82,724.192l-117.087,-344.818l92.563,-9.277l-5.444,-370.097l-683.34,0l-5.447,370.097c49.006,0 103.456,2.724 152.46,10.895l356.644,926.094l381.322,-0l212.544,-672.78l212.544,672.78l381.322,-0l353.921,-926.094c46.282,-8.171 98.009,-10.895 144.289,-10.895Z" style="fill:#fff;fill-rule:nonzero;"/><path d="M25447,20598l-5.442,-370.097l-683.341,0l-5.454,370.097l89.851,9.277l-106.2,334.629l-207.094,-714.003l-348.791,0l-209.819,724.192l-117.087,-344.818l92.562,-9.277l-5.443,-370.097l-683.341,0l-5.446,370.097c49.006,0 103.455,2.724 152.46,10.895l356.644,926.094l381.321,-0l212.544,-672.78l212.545,672.78l381.321,-0l353.922,-926.094c46.282,-8.171 98.009,-10.895 144.288,-10.895Z" style="fill:#fff;fill-rule:nonzero;"/><path d="M27661.4,20598l-5.443,-370.097l-683.341,0l-5.453,370.097l89.85,9.277l-106.2,334.629l-207.094,-714.003l-348.79,0l-209.82,724.192l-117.087,-344.818l92.563,-9.277l-5.443,-370.097l-683.341,0l-5.447,370.097c49.006,0 103.456,2.724 152.46,10.895l356.644,926.094l381.322,-0l212.544,-672.78l212.544,672.78l381.322,-0l353.921,-926.094c46.282,-8.171 98.009,-10.895 144.289,-10.895Z" style="fill:#fff;fill-rule:nonzero;"/></g><circle cx="8289.96" cy="10940" r="4694.16" style="fill:#fff;stroke:#000;stroke-width:183.6px;stroke-miterlimit:1.5;"/><circle cx="36604.5" cy="32377.7" r="4006.49" style="fill:#f53c37;stroke:#000;stroke-width:183.6px;stroke-miterlimit:1.5;"/><g><path d="M34385.7,22957.2l506.195,-414.875l-1873.23,-2285.8l-506.187,414.873l1873.22,2285.8Z" style="fill:#fff;fill-rule:nonzero;stroke:#000;stroke-width:145.31px;stroke-linecap:butt;stroke-miterlimit:2;"/><path d="M26101.9,19909.2c1589.94,1939.89 4420.83,2166.44 6360.84,576.513c1939.71,-1589.89 2265.56,-4403.48 675.625,-6343.36c-1589.94,-1939.86 -4461.82,-2224.56 -6401.52,-634.665c-1940.02,1589.92 -2224.9,4461.63 -634.951,6401.52Zm-496.611,407.062c-1814.23,-2213.79 -1489.25,-5490.9 724.458,-7305.25c2213.71,-1814.38 5490.69,-1489.45 7305.23,724.301c1814.23,2213.76 1489.25,5490.87 -724.458,7305.25c-2213.71,1814.38 -5490.69,1489.45 -7305.23,-724.301Z" style="fill-rule:nonzero;"/><path d="M26462.3,19442.9c1589.94,1939.89 4461.81,2224.59 6401.52,634.699c1940.02,-1589.93 2224.57,-4461.63 634.634,-6401.52c-1589.94,-1939.89 -4461.5,-2224.59 -6401.52,-634.665c-1939.71,1589.89 -2224.58,4461.59 -634.638,6401.48Zm-496.61,407.062c-1814.54,-2213.75 -1489.57,-5490.86 724.458,-7305.25c2213.71,-1814.38 5490.69,-1489.45 7305.23,724.271c1814.22,2213.79 1489.25,5490.9 -724.455,7305.28c-2213.71,1814.38 -5491.01,1489.45 -7305.23,-724.301Z" style="fill:#fff;fill-rule:nonzero;stroke:#000;stroke-width:145.31px;stroke-linecap:butt;stroke-miterlimit:2;"/><path d="M34213.9,22178.6c466.514,-370.111 1151.14,-291.199 1521.31,175.339l2643.27,3332.02c370.176,466.507 291.141,1151.15 -175.401,1521.01c-466.506,370.176 -1151.11,291.451 -1521.28,-175.056l-2643.28,-3332.09c-370.18,-466.537 -291.134,-1151.08 175.376,-1521.23Z" style="fill:#fff;fill-rule:nonzero;stroke:#000;stroke-width:145.31px;stroke-linecap:butt;stroke-miterlimit:2;"/><path d="M26598.4,17129.3c-21.679,428.668 59.638,829.5 259.43,1210.64c188.983,360.832 458.717,667.423 744.361,954.797c224.626,225.751 544.099,-150.904 321.562,-374.893c-457.479,-459.835 -874.174,-1020.01 -839.838,-1702.21c6.731,-133.098 -55.313,-260.956 -198.514,-287.056c-118.294,-21.425 -280.379,64.66 -287.001,198.728Z" style="fill:#fff;fill-rule:nonzero;stroke:#000;stroke-width:145.31px;stroke-linecap:butt;stroke-miterlimit:2;"/><path d="M26472.3,16064.1c2.986,32.544 12.063,62.919 26.62,91.262c4.53,40.731 18.471,80.636 41.502,114.051c17.959,27.648 40.935,49.096 69.234,64.382c26.03,20.479 55.947,33.145 89.736,37.939c63.346,8.596 132.047,-0.151 184.632,-39.92c52.004,-39.291 91.302,-93.131 102.372,-158.778c10.436,-62.731 5.533,-112.51 -11.921,-172.672c-10.275,-35.376 -28.801,-70.971 -53.423,-98.731c-17.649,-27.713 -40.629,-49.196 -68.923,-64.447c-26.344,-20.444 -56.261,-33.111 -89.729,-37.94c-33.12,-7.334 -65.597,-6.034 -97.431,3.901c-31.822,4.332 -60.89,16.337 -87.208,36.02c-51.132,38.59 -93.467,93.561 -102.365,158.781c-1.033,22.062 -2.059,44.124 -3.096,66.152Z" style="fill:#fff;fill-rule:nonzero;stroke:#000;stroke-width:145.31px;stroke-linecap:butt;stroke-miterlimit:2;"/></g><g><path d="M35819.7,32178.5l-3.824,-260.026l-480.108,0l-3.831,260.026l63.127,6.518l-74.614,235.107l-145.503,-501.651l-245.056,0l-147.417,508.809l-82.264,-242.265l65.034,-6.518l-3.825,-260.026l-480.108,0l-3.826,260.026c34.431,0 72.687,1.914 107.117,7.655l250.574,650.663l267.912,0l149.331,-472.688l149.331,472.688l267.913,0l248.661,-650.663c32.518,-5.741 68.86,-7.655 101.376,-7.655Z" style="fill:#fff;fill-rule:nonzero;"/><path d="M37375.6,32178.5l-3.824,-260.026l-480.108,0l-3.831,260.026l63.127,6.518l-74.614,235.107l-145.503,-501.651l-245.056,0l-147.417,508.809l-82.264,-242.265l65.034,-6.518l-3.825,-260.026l-480.108,0l-3.826,260.026c34.431,0 72.687,1.914 107.117,7.655l250.574,650.663l267.912,0l149.331,-472.688l149.331,472.688l267.913,0l248.661,-650.663c32.518,-5.741 68.86,-7.655 101.376,-7.655Z" style="fill:#fff;fill-rule:nonzero;"/><path d="M38931.4,32178.5l-3.824,-260.026l-480.108,0l-3.831,260.026l63.127,6.518l-74.614,235.107l-145.503,-501.651l-245.056,0l-147.417,508.809l-82.264,-242.265l65.034,-6.518l-3.825,-260.026l-480.108,0l-3.826,260.026c34.431,0 72.687,1.914 107.117,7.655l250.574,650.663l267.912,0l149.331,-472.688l149.331,472.688l267.913,0l248.661,-650.663c32.518,-5.741 68.86,-7.655 101.376,-7.655Z" style="fill:#fff;fill-rule:nonzero;"/></g><g><path d="M5506.92,25520.8l-2.488,-169.222l-312.448,0l-2.494,169.222l41.083,4.242l-48.558,153.004l-94.691,-326.468l-159.48,0l-95.937,331.127l-53.536,-157.663l42.323,-4.242l-2.489,-169.222l-312.448,0l-2.491,169.222c22.408,-0 47.304,1.245 69.71,4.981l163.071,423.444l174.354,-0l97.183,-307.619l97.183,307.619l174.354,-0l161.825,-423.444c21.162,-3.736 44.814,-4.981 65.974,-4.981Z" style="fill:#f53c37;fill-rule:nonzero;"/><path d="M6519.45,25520.8l-2.488,-169.222l-312.449,0l-2.493,169.222l41.083,4.242l-48.559,153.004l-94.691,-326.468l-159.479,0l-95.937,331.127l-53.537,-157.663l42.323,-4.242l-2.489,-169.222l-312.448,0l-2.49,169.222c22.407,-0 47.303,1.245 69.71,4.981l163.071,423.444l174.354,-0l97.182,-307.619l97.183,307.619l174.354,-0l161.826,-423.444c21.162,-3.736 44.813,-4.981 65.974,-4.981Z" style="fill:#f53c37;fill-rule:nonzero;"/><path d="M7531.98,25520.8l-2.489,-169.222l-312.448,0l-2.494,169.222l41.083,4.242l-48.558,153.004l-94.691,-326.468l-159.48,0l-95.937,331.127l-53.536,-157.663l42.323,-4.242l-2.489,-169.222l-312.448,0l-2.49,169.222c22.407,-0 47.303,1.245 69.71,4.981l163.07,423.444l174.354,-0l97.183,-307.619l97.183,307.619l174.354,-0l161.826,-423.444c21.162,-3.736 44.813,-4.981 65.974,-4.981Z" style="fill:#f53c37;fill-rule:nonzero;"/></g><g><path d="M7473.04,10732.7l-3.98,-270.688l-499.794,-0l-3.989,270.688l65.716,6.785l-77.674,244.747l-151.469,-522.22l-255.104,-0l-153.462,529.672l-85.637,-252.199l67.7,-6.785l-3.981,-270.688l-499.795,-0l-3.983,270.688c35.843,-0 75.667,1.992 111.509,7.969l260.849,677.343l278.897,-0l155.455,-492.07l155.454,492.07l278.898,-0l258.858,-677.343c33.851,-5.977 71.684,-7.969 105.532,-7.969Z" style="fill-rule:nonzero;"/><path d="M9092.68,10732.7l-3.98,-270.688l-499.795,-0l-3.988,270.688l65.716,6.785l-77.674,244.747l-151.469,-522.22l-255.105,-0l-153.461,529.672l-85.637,-252.199l67.7,-6.785l-3.981,-270.688l-499.795,-0l-3.983,270.688c35.843,-0 75.667,1.992 111.509,7.969l260.849,677.343l278.897,-0l155.455,-492.07l155.454,492.07l278.898,-0l258.858,-677.343c33.851,-5.977 71.684,-7.969 105.532,-7.969Z" style="fill-rule:nonzero;"/><path d="M10712.3,10732.7l-3.98,-270.688l-499.795,-0l-3.988,270.688l65.716,6.785l-77.674,244.747l-151.469,-522.22l-255.105,-0l-153.461,529.672l-85.637,-252.199l67.7,-6.785l-3.981,-270.688l-499.795,-0l-3.983,270.688c35.843,-0 75.667,1.992 111.509,7.969l260.848,677.343l278.898,-0l155.455,-492.07l155.454,492.07l278.898,-0l258.858,-677.343c33.851,-5.977 71.684,-7.969 105.532,-7.969Z" style="fill-rule:nonzero;"/></g><g><path d="M35398.9,7503.56l-3.98,-270.689l-499.795,0l-3.988,270.689l65.716,6.785l-77.675,244.747l-151.468,-522.221l-255.105,0l-153.461,529.673l-85.637,-252.199l67.7,-6.785l-3.982,-270.689l-499.794,0l-3.984,270.689c35.843,-0 75.668,1.992 111.509,7.968l260.849,677.343l278.898,0l155.455,-492.069l155.454,492.069l278.898,0l258.858,-677.343c33.85,-5.976 71.683,-7.968 105.532,-7.968Z" style="fill:#f53c37;fill-rule:nonzero;"/><path d="M37018.5,7503.56l-3.98,-270.689l-499.795,0l-3.989,270.689l65.717,6.785l-77.675,244.747l-151.468,-522.221l-255.105,0l-153.461,529.673l-85.638,-252.199l67.701,-6.785l-3.982,-270.689l-499.794,0l-3.984,270.689c35.843,-0 75.667,1.992 111.509,7.968l260.849,677.343l278.898,0l155.454,-492.069l155.455,492.069l278.898,0l258.858,-677.343c33.85,-5.976 71.683,-7.968 105.532,-7.968Z" style="fill:#f53c37;fill-rule:nonzero;"/><path d="M38638.1,7503.56l-3.981,-270.689l-499.794,0l-3.989,270.689l65.717,6.785l-77.675,244.747l-151.468,-522.221l-255.105,0l-153.461,529.673l-85.638,-252.199l67.7,-6.785l-3.981,-270.689l-499.794,0l-3.984,270.689c35.843,-0 75.667,1.992 111.509,7.968l260.849,677.343l278.898,0l155.454,-492.069l155.455,492.069l278.898,0l258.858,-677.343c33.85,-5.976 71.683,-7.968 105.532,-7.968Z" style="fill:#f53c37;fill-rule:nonzero;"/></g></g></svg>