<svg xmlns="http://www.w3.org/2000/svg" width="138.066" height="50.282" viewBox="0 0 138.066 50.282">
  <g id="Group_1" data-name="Group 1" transform="translate(0 0)">
    <path id="Path_1" data-name="Path 1" d="M295.856,183.025a.2.2,0,0,0-.2-.2h-.725a.2.2,0,0,0-.22.2v.681a3.364,3.364,0,0,0-2.623-.988c-1.653,0-3.193.9-3.193,3.654v3.04c0,2.756,1.54,3.657,3.193,3.657a3.364,3.364,0,0,0,2.623-.988v.68a.2.2,0,0,0,.22.2h.725a.2.2,0,0,0,.2-.2Zm-1.143,6.652a2.217,2.217,0,0,1-2.4,2.338c-1.146,0-2.27-.573-2.27-2.689V186.46c0-2.115,1.124-2.689,2.27-2.689a2.216,2.216,0,0,1,2.4,2.336Z" transform="translate(-248.915 -160.99)"/>
    <path id="Path_2" data-name="Path 2" d="M355.981,183.025a.2.2,0,0,0-.2-.2h-.725a.2.2,0,0,0-.22.2v.681a3.364,3.364,0,0,0-2.623-.988c-1.653,0-3.193.9-3.193,3.656v2.534c0,2.754,1.54,3.655,3.193,3.655a3.364,3.364,0,0,0,2.623-.988v1.716a2.049,2.049,0,0,1-2.072,2.316,2,2,0,0,1-1.984-1.324c-.044-.088-.066-.2-.22-.2h-.639a.2.2,0,0,0-.2.2,2.817,2.817,0,0,0,3.041,2.378,3.009,3.009,0,0,0,3.215-3.326Zm-1.143,6.147a2.216,2.216,0,0,1-2.4,2.336c-1.146,0-2.27-.573-2.27-2.689v-2.358c0-2.116,1.124-2.689,2.27-2.689a2.216,2.216,0,0,1,2.4,2.336Z" transform="translate(-298.443 -160.99)"/>
    <path id="Path_3" data-name="Path 3" d="M474.337,192.761a.2.2,0,0,0,.2.2h.724a.2.2,0,0,0,.221-.2v-6.389c0-2.753-1.54-3.654-3.193-3.654a3.363,3.363,0,0,0-2.623.988v-.681a.2.2,0,0,0-.22-.2h-.725a.2.2,0,0,0-.2.2v9.736a.2.2,0,0,0,.2.2h.725a.2.2,0,0,0,.22-.2v-6.654a2.216,2.216,0,0,1,2.4-2.335c1.147,0,2.27.573,2.27,2.688Z" transform="translate(-396.88 -160.99)"/>
    <path id="Path_4" data-name="Path 4" d="M528.021,189.745a3.146,3.146,0,0,0,3.392,3.325,3.193,3.193,0,0,0,3.414-2.862.2.2,0,0,0-.2-.2H533.9a.2.2,0,0,0-.22.2,2.285,2.285,0,0,1-4.519-.507v-3.615a2.285,2.285,0,0,1,4.519-.507.2.2,0,0,0,.22.2h.725a.2.2,0,0,0,.2-.2,3.193,3.193,0,0,0-3.414-2.862,3.146,3.146,0,0,0-3.392,3.325Z" transform="translate(-445.893 -160.99)"/>
    <path id="Path_5" data-name="Path 5" d="M572.572,181.364a.18.18,0,0,0-.176.2v.705a.174.174,0,0,0,.176.176h.551c1.763,0,2.818-.683,2.818-3.349V168.916a.2.2,0,0,0-.2-.2h-.725a.2.2,0,0,0-.22.2v9.826c0,1.366-.044,2.622-2.071,2.622h-.154ZM574.8,165.79a.2.2,0,0,1,.22-.2h.725a.2.2,0,0,1,.2.2v1.738a.2.2,0,0,1-.2.2h-.725a.2.2,0,0,1-.22-.2Z" transform="translate(-482.446 -146.883)"/>
    <path id="Path_6" data-name="Path 6" d="M620.106,183.025a.2.2,0,0,0-.2-.2h-.725a.2.2,0,0,0-.22.2v.681a3.363,3.363,0,0,0-2.623-.988c-1.653,0-3.193.9-3.193,3.654v3.04c0,2.756,1.54,3.657,3.193,3.657a3.363,3.363,0,0,0,2.623-.988v.68a.2.2,0,0,0,.22.2h.725a.2.2,0,0,0,.2-.2Zm-1.143,6.652a2.217,2.217,0,0,1-2.4,2.338c-1.146,0-2.27-.573-2.27-2.689V186.46c0-2.115,1.124-2.689,2.27-2.689a2.216,2.216,0,0,1,2.4,2.336Z" transform="translate(-516.014 -160.99)"/>
    <path id="Path_7" data-name="Path 7" d="M290.793,286.613a.259.259,0,0,0-.22.2l-1.939,8.989-1.7-8.989a.236.236,0,0,0-.22-.2h-.727a.2.2,0,0,0-.22.2l1.961,9.736c.022.088.066.2.2.2h1.277a.241.241,0,0,0,.242-.2l1.7-7.4,1.7,7.4a.241.241,0,0,0,.242.2h1.277c.132,0,.176-.109.2-.2l1.961-9.736a.2.2,0,0,0-.22-.2h-.727a.236.236,0,0,0-.22.2l-1.7,8.989-1.939-8.989a.259.259,0,0,0-.22-.2Z" transform="translate(-246.341 -246.573)"/>
    <path id="Path_8" data-name="Path 8" d="M368.9,286.613a4.506,4.506,0,0,0-3.481,2.178V286.81a.2.2,0,0,0-.22-.2h-.725a.2.2,0,0,0-.2.2v9.736a.2.2,0,0,0,.2.2h.725a.2.2,0,0,0,.22-.2v-4.362a4.379,4.379,0,0,1,3.481-4.45.2.2,0,0,0,.2-.2v-.7A.2.2,0,0,0,368.9,286.613Z" transform="translate(-311.005 -246.573)"/>
    <path id="Path_9" data-name="Path 9" d="M409.038,285.987a3.147,3.147,0,0,0-3.392,3.325v3.7a3.392,3.392,0,0,0,6.784,0v-3.7A3.146,3.146,0,0,0,409.038,285.987Zm0,9.3a2.182,2.182,0,0,1-2.249-2.314v-3.615a2.249,2.249,0,1,1,4.5,0v3.615A2.181,2.181,0,0,1,409.038,295.285Z" transform="translate(-345.087 -246.058)"/>
    <path id="Path_10" data-name="Path 10" d="M462.9,293.015a3.146,3.146,0,0,0,3.392,3.325,3.193,3.193,0,0,0,3.414-2.862.2.2,0,0,0-.2-.2h-.725a.2.2,0,0,0-.22.2,2.285,2.285,0,0,1-4.519-.507v-3.615a2.285,2.285,0,0,1,4.519-.507.2.2,0,0,0,.22.2h.725a.2.2,0,0,0,.2-.2,3.193,3.193,0,0,0-3.414-2.862,3.147,3.147,0,0,0-3.392,3.325Z" transform="translate(-392.246 -246.058)"/>
    <path id="Path_11" data-name="Path 11" d="M523.026,271.753l-2.578.463v-5.155a.2.2,0,0,0-.2-.2h-.725a.2.2,0,0,0-.22.2v5.459l-1.961.374a.268.268,0,0,0-.2.264v.595a.15.15,0,0,0,.154.154l2-.375v6.744a.2.2,0,0,0,.22.2h.725a.2.2,0,0,0,.2-.2v-7.048l2.578-.463a.214.214,0,0,0,.2-.242v-.595C523.225,271.8,523.158,271.753,523.026,271.753Z" transform="translate(-436.934 -230.304)"/>
    <path id="Path_12" data-name="Path 12" d="M571.981,286.295a.2.2,0,0,0-.2-.2h-.725a.2.2,0,0,0-.22.2v.681a3.364,3.364,0,0,0-2.623-.989c-1.653,0-3.193.9-3.193,3.655v3.04c0,2.756,1.54,3.657,3.193,3.657a3.363,3.363,0,0,0,2.623-.989v.68a.2.2,0,0,0,.22.2h.725a.2.2,0,0,0,.2-.2Zm-1.143,6.652a2.217,2.217,0,0,1-2.4,2.338c-1.146,0-2.27-.573-2.27-2.689V289.73c0-2.115,1.124-2.689,2.27-2.689a2.216,2.216,0,0,1,2.4,2.336Z" transform="translate(-476.371 -246.058)"/>
    <path id="Path_13" data-name="Path 13" d="M627.043,286.613a.259.259,0,0,0-.22.2l-1.939,8.989-1.7-8.989a.236.236,0,0,0-.22-.2h-.727a.2.2,0,0,0-.22.2l1.961,9.736c.022.088.066.2.2.2h1.277a.241.241,0,0,0,.242-.2l1.7-7.4,1.7,7.4a.241.241,0,0,0,.242.2h1.277c.132,0,.176-.109.2-.2l1.961-9.736a.2.2,0,0,0-.22-.2h-.727a.236.236,0,0,0-.22.2l-1.7,8.989-1.939-8.989a.259.259,0,0,0-.22-.2Z" transform="translate(-523.324 -246.573)"/>
    <path id="Path_14" data-name="Path 14" d="M701.61,293.874c0,1.279-1.477,1.411-1.874,1.411a1.877,1.877,0,0,1-2.05-1.521.2.2,0,0,0-.22-.2h-.725a.2.2,0,0,0-.2.2c.022,1.1.989,2.576,3.26,2.576,1.323,0,2.951-.791,2.951-2.465,0-2.843-5.089-3.019-5.089-5.223a1.591,1.591,0,0,1,1.829-1.609,1.906,1.906,0,0,1,1.94,1.7.218.218,0,0,0,.22.2h.725a.2.2,0,0,0,.2-.2,3.126,3.126,0,0,0-3.15-2.752,2.671,2.671,0,0,0-2.907,2.686C696.521,291.89,701.61,291.538,701.61,293.874Z" transform="translate(-584.693 -246.058)"/>
    <path id="Path_15" data-name="Path 15" d="M751.039,276.518v-9.474a.2.2,0,0,0-.2-.2h-.725a.2.2,0,0,0-.22.2v13.219a.2.2,0,0,0,.22.2h.725a.2.2,0,0,0,.2-.2V278.5l2.644-4.142,2.269,5.9a.262.262,0,0,0,.242.2h.705a.2.2,0,0,0,.22-.2l-2.688-7.05,1.7-2.688a.2.2,0,0,0-.22-.2h-.771a.4.4,0,0,0-.286.2Z" transform="translate(-628.661 -230.29)"/>
    <path id="Path_16" data-name="Path 16" d="M812.856,286.295a.2.2,0,0,0-.2-.2h-.725a.2.2,0,0,0-.22.2v.681a3.364,3.364,0,0,0-2.623-.989c-1.653,0-3.193.9-3.193,3.655v3.04c0,2.756,1.54,3.657,3.193,3.657a3.363,3.363,0,0,0,2.623-.989v.68a.2.2,0,0,0,.22.2h.725a.2.2,0,0,0,.2-.2Zm-1.143,6.652a2.217,2.217,0,0,1-2.4,2.338c-1.146,0-2.27-.573-2.27-2.689V289.73c0-2.115,1.124-2.689,2.27-2.689a2.216,2.216,0,0,1,2.4,2.336Z" transform="translate(-674.79 -246.058)"/>
    <path id="Path_17" data-name="Path 17" d="M75.364,64.022c-5.844,4.026-9.2,9.218-9.2,14.687v9.978h-3.84V78.709c0-6.939,4.239-13.675,12.01-18.61l1.03-.654,1.029.654c7.771,4.935,12.01,11.671,12.01,18.61v9.978H84.564V78.709c0-5.47-3.356-10.661-9.2-14.687Z" transform="translate(-62.279 -59.446)" fill="#f63d37" fill-rule="evenodd"/>
    <path id="Path_18" data-name="Path 18" d="M62.062,260.305v-14.7l3.713-3.236v12.422l9.3-9.683,9.447,9.721V242.4l3.713,3.2v14.7H84.516l-9.427-9.835L65.774,260.3H62.062Z" transform="translate(-62.062 -210.129)" fill="#f63d37" fill-rule="evenodd"/>
    <rect id="Rectangle_1" data-name="Rectangle 1" width="14.589" height="3.594" transform="translate(1.815 17.466)" fill="#f63d37"/>
    <path id="Path_19" data-name="Path 19" d="M410.289,186.065V189.7a2.182,2.182,0,0,0,2.249,2.315,2.255,2.255,0,0,0,2.16-1.323c.044-.088.066-.2.22-.2h.637a.2.2,0,0,1,.2.2,3.033,3.033,0,0,1-3.215,2.377,3.146,3.146,0,0,1-3.392-3.325v-3.723a3.171,3.171,0,0,1,3.414-3.3,3.126,3.126,0,0,1,3.414,3.3v2.047a.2.2,0,0,1-.2.2h-4.141a.207.207,0,0,1-.206-.206v-.619a.206.206,0,0,1,.206-.207h3.2v-1.169a2.271,2.271,0,1,0-4.541,0Z" transform="translate(-347.97 -160.99)"/>
  </g>
</svg>
