<?xml version="1.0" encoding="UTF-8" standalone="no"?><!DOCTYPE svg PUBLIC "-//W3C//DTD SVG 1.1//EN" "http://www.w3.org/Graphics/SVG/1.1/DTD/svg11.dtd"><svg width="100%" height="100%" viewBox="0 0 2658 1888" version="1.1" xmlns="http://www.w3.org/2000/svg" xmlns:xlink="http://www.w3.org/1999/xlink" xml:space="preserve" xmlns:serif="http://www.serif.com/" style="fill-rule:evenodd;clip-rule:evenodd;stroke-linecap:round;stroke-linejoin:round;"><g id="Group_219"><path id="Path_1182" d="M645.344,636.073c332.866,0.137 606.732,274.002 606.868,606.868c-0.136,332.866 -274.002,606.731 -606.868,606.868c-332.866,-0.137 -606.731,-274.002 -606.868,-606.868c0.137,-332.866 274.002,-606.731 606.868,-606.868Z" style="fill:none;fill-rule:nonzero;stroke:#000;stroke-width:12.5px;stroke-dasharray:56.25,93.75,0,0;"/><path id="Path_1183" d="M157.061,1443.73l297.565,-622.862l50.652,474.832l297.515,-759.731l82.301,582.464l411.554,-867.363" style="fill:none;fill-rule:nonzero;stroke:#000;stroke-width:12.5px;"/><path id="Path_1184" d="M2469.71,1083.97l-158.972,-158.971l-158.971,158.971l158.971,158.972l158.972,-158.972Z" style="fill:#fff;stroke:#f53c37;stroke-width:12.5px;"/><path id="Path_1185" d="M2001.75,1470.85l300.045,0" style="fill:none;fill-rule:nonzero;stroke:#000;stroke-width:12.5px;"/><path id="Path_1186" d="M2001.75,1539.23l300.045,0" style="fill:none;fill-rule:nonzero;stroke:#000;stroke-width:12.5px;"/><path id="Path_1187" d="M2001.75,1607.61l300.045,-0" style="fill:none;fill-rule:nonzero;stroke:#000;stroke-width:12.5px;"/><path id="Path_1188" d="M2109.92,24.647c65.631,0.033 119.627,54.028 119.66,119.659c-0.033,65.631 -54.029,119.627 -119.66,119.66c-65.633,-0.027 -119.632,-54.027 -119.659,-119.66c0.027,-65.633 54.026,-119.632 119.659,-119.659Z" style="fill:none;fill-rule:nonzero;stroke:#000;stroke-width:12.5px;"/><path id="Path_1189" d="M645.834,311.057l-32.117,78.215l64.463,54.718l-84.313,-6.378l-32.118,78.215l-19.989,-82.161l-84.314,-6.368l71.957,-44.404l-19.99,-82.161l64.464,54.718l71.957,-44.394Z" style="fill:#f00;stroke:#000;stroke-width:12.5px;"/><path id="Path_1194" d="M2031.11,311.485l-617.214,-0l0,429.151l135.215,-81.125l481.999,0l-0,-348.026Z" style="fill:#fff;fill-rule:nonzero;stroke:#212829;stroke-width:12.5px;stroke-linecap:butt;stroke-linejoin:miter;stroke-miterlimit:10;"/><path id="Path_1195" d="M1976.07,457.718l-108.2,0" style="fill:none;fill-rule:nonzero;stroke:#f00;stroke-width:12.5px;stroke-linecap:butt;stroke-linejoin:miter;stroke-miterlimit:10;"/><path id="Path_1196" d="M1827.29,457.718l-134.527,0" style="fill:none;fill-rule:nonzero;stroke:#f00;stroke-width:12.5px;stroke-linecap:butt;stroke-linejoin:miter;stroke-miterlimit:10;"/><path id="Path_1197" d="M1976.07,403.618l-484.109,0" style="fill:none;fill-rule:nonzero;stroke:#f00;stroke-width:12.5px;stroke-linecap:butt;stroke-linejoin:miter;stroke-miterlimit:10;"/><path id="Path_11971" serif:id="Path_1197" d="M1976.07,511.052l-484.109,0" style="fill:none;fill-rule:nonzero;stroke:#f00;stroke-width:12.5px;stroke-linecap:butt;stroke-linejoin:miter;stroke-miterlimit:10;"/><path id="Path_11972" serif:id="Path_1197" d="M1976.07,566.835l-484.109,0" style="fill:none;fill-rule:nonzero;stroke:#f00;stroke-width:12.5px;stroke-linecap:butt;stroke-linejoin:miter;stroke-miterlimit:10;"/><path id="Path_1198" d="M1166.35,1308.72l-0,-54.279c-0,-108.558 75.983,-97.657 151.976,-141.124" style="fill:none;fill-rule:nonzero;stroke:#212829;stroke-width:12.5px;stroke-linecap:butt;stroke-linejoin:miter;stroke-miterlimit:10;"/><path id="Path_1199" d="M1470.2,1308.74l0,-54.279c0,-108.558 75.983,-97.657 151.976,-141.124" style="fill:none;fill-rule:nonzero;stroke:#212829;stroke-width:12.5px;stroke-linecap:butt;stroke-linejoin:miter;stroke-miterlimit:10;"/><path id="Path_1200" d="M1763.3,1037.34l-0,43.447" style="fill:none;fill-rule:nonzero;stroke:#212829;stroke-width:12.5px;stroke-linecap:butt;stroke-linejoin:miter;stroke-miterlimit:10;"/><path id="Path_1201" d="M1492.01,1113.29c75.983,43.418 151.976,32.566 151.976,141.124l0,54.28" style="fill:none;fill-rule:nonzero;stroke:#212829;stroke-width:12.5px;stroke-linecap:butt;stroke-linejoin:miter;stroke-miterlimit:10;"/><path id="Path_1202" d="M1654.74,1080.79l-0,-43.427" style="fill:none;fill-rule:nonzero;stroke:#212829;stroke-width:12.5px;stroke-linecap:butt;stroke-linejoin:miter;stroke-miterlimit:10;"/><path id="Path_1203" d="M1711.46,1220.15l-0,-81.105" style="fill:none;fill-rule:nonzero;stroke:#212829;stroke-width:12.5px;stroke-linecap:butt;stroke-linejoin:miter;stroke-miterlimit:10;"/><path id="Path_1204" d="M1795.87,1113.33c75.983,43.427 151.976,32.566 151.976,141.124l0,54.279" style="fill:none;fill-rule:nonzero;stroke:#212829;stroke-width:12.5px;stroke-linecap:butt;stroke-linejoin:miter;stroke-miterlimit:10;"/><path id="Path_1205" d="M1795.87,1113.33c-51.569,34.15 -109.415,34.419 -173.68,-0l21.714,-32.566l65.131,10.852l65.131,-10.852l21.704,32.566Z" style="fill:none;fill-rule:nonzero;stroke:#f00;stroke-width:12.5px;stroke-linecap:butt;stroke-linejoin:miter;stroke-miterlimit:10;"/><path id="Path_1206" d="M1459.45,1037.33l-0,43.417" style="fill:none;fill-rule:nonzero;stroke:#212829;stroke-width:12.5px;stroke-linecap:butt;stroke-linejoin:miter;stroke-miterlimit:10;"/><path id="Path_1207" d="M1350.89,1080.75l0,-43.417" style="fill:none;fill-rule:nonzero;stroke:#212829;stroke-width:12.5px;stroke-linecap:butt;stroke-linejoin:miter;stroke-miterlimit:10;"/><path id="Path_1208" d="M1611.32,896.227c-0,-0 36.551,33.223 63.227,-13.563c22.113,-38.793 138.873,-6.537 132.176,13.563" style="fill:none;fill-rule:nonzero;stroke:#f00;stroke-width:12.5px;stroke-linecap:butt;stroke-linejoin:miter;stroke-miterlimit:10;"/><path id="Path_1209" d="M1448.58,1156.74l-43.427,-21.713l-43.418,21.713l-43.467,-43.377l21.713,-32.566l65.132,10.852l65.131,-10.852l21.714,32.566l-43.378,43.377Z" style="fill:none;fill-rule:nonzero;stroke:#ffd525;stroke-width:12.5px;stroke-linecap:butt;stroke-linejoin:miter;stroke-miterlimit:10;"/><path id="Path_1210" d="M1296.56,849.596c0,0 27.404,23.996 43.418,21.714c25.331,-3.617 83.227,-39.8 108.558,-43.418c16.024,-2.292 43.428,21.714 43.428,21.714" style="fill:none;fill-rule:nonzero;stroke:#ffd525;stroke-width:12.5px;stroke-linecap:butt;stroke-linejoin:miter;stroke-miterlimit:10;"/><path d="M1495.15,877.86l36.082,78.722l-36.082,-0l0,40.506c0,33.281 -32.845,51.055 -77,51.055c-56.17,-0 -121.596,0.344 -121.596,-176.68" style="fill:none;stroke:#212829;stroke-width:12.5px;stroke-miterlimit:1.5;"/><path id="Path_1212" d="M1806.73,896.227l0,43.417c-10.862,75.983 -43.427,97.657 -43.427,97.657c-17.229,7.067 -35.658,10.755 -54.28,10.862c-18.621,-0.107 -37.05,-3.795 -54.279,-10.862c-17.229,-7.067 -32.566,-21.714 -43.417,-97.657l-0,-43.417" style="fill:none;fill-rule:nonzero;stroke:#212829;stroke-width:12.5px;stroke-linecap:butt;stroke-linejoin:miter;stroke-miterlimit:10;"/><path id="Path_1213" d="M1296.65,877.86c-0,-65.948 31.748,-97.657 97.657,-97.657c65.908,0 100.849,31.749 100.849,97.657" style="fill:none;fill-rule:nonzero;stroke:#212829;stroke-width:12.5px;stroke-linecap:butt;stroke-linejoin:miter;stroke-miterlimit:10;"/><path id="Path_1214" d="M1611.32,896.227c-0,-65.949 31.748,-97.657 97.656,-97.657c65.909,-0 97.657,31.758 97.657,97.657" style="fill:none;fill-rule:nonzero;stroke:#212829;stroke-width:12.5px;stroke-linecap:butt;stroke-linejoin:miter;stroke-miterlimit:10;"/><path id="Path_1218" d="M1861,1308.72l0,-58.285" style="fill:none;fill-rule:nonzero;stroke:#212829;stroke-width:12.5px;stroke-linecap:butt;stroke-linejoin:miter;stroke-miterlimit:10;"/></g></svg>