<?xml version="1.0" encoding="UTF-8" standalone="no"?><!DOCTYPE svg PUBLIC "-//W3C//DTD SVG 1.1//EN" "http://www.w3.org/Graphics/SVG/1.1/DTD/svg11.dtd"><svg width="100%" height="100%" viewBox="0 0 2565 2400" version="1.1" xmlns="http://www.w3.org/2000/svg" xmlns:xlink="http://www.w3.org/1999/xlink" xml:space="preserve" xmlns:serif="http://www.serif.com/" style="fill-rule:evenodd;clip-rule:evenodd;stroke-linecap:round;stroke-linejoin:round;"><rect id="Artboard1" x="0" y="0" width="2564.55" height="2399.27" style="fill:none;"/><g id="Artboard11" serif:id="Artboard1"><g id="Group_219"><path id="Path_1182" d="M678.18,1129.31c332.867,0.137 606.732,274.002 606.868,606.868c-0.136,332.866 -274.001,606.731 -606.868,606.868c-332.866,-0.137 -606.731,-274.002 -606.868,-606.868c0.137,-332.866 274.002,-606.731 606.868,-606.868Z" style="fill:none;fill-rule:nonzero;stroke:#000;stroke-width:12.5px;stroke-dasharray:56.25,93.75,0,0;"/><path id="Path_1183" d="M220.478,1795.96l297.565,-622.862l50.652,474.832l297.514,-759.731l82.301,582.464l411.554,-867.363" style="fill:none;fill-rule:nonzero;stroke:#000;stroke-width:12.5px;"/><path id="Path_1184" d="M2516.42,1297.79l-182.834,-182.835l-182.835,182.835l182.835,182.835l182.834,-182.835Z" style="fill:#fff;stroke:#f53c37;stroke-width:12.5px;"/><path id="Path_1185" d="M2026.34,1742.74l345.086,-0" style="fill:none;fill-rule:nonzero;stroke:#000;stroke-width:12.5px;"/><path id="Path_1186" d="M2026.34,1821.39l345.086,0" style="fill:none;fill-rule:nonzero;stroke:#000;stroke-width:12.5px;"/><path id="Path_1187" d="M2026.34,1900.03l345.086,0" style="fill:none;fill-rule:nonzero;stroke:#000;stroke-width:12.5px;"/><path id="Path_1188" d="M2150.75,79.45c75.483,0.037 137.584,62.139 137.622,137.621c-0.038,75.483 -62.139,137.584 -137.622,137.622c-75.485,-0.031 -137.59,-62.136 -137.622,-137.622c0.032,-75.485 62.137,-137.59 137.622,-137.621Z" style="fill:none;fill-rule:nonzero;stroke:#000;stroke-width:12.5px;"/><path id="Path_1189" d="M765.621,504.83l-32.117,78.215l64.464,54.718l-84.314,-6.378l-32.117,78.216l-19.99,-82.162l-84.314,-6.367l71.957,-44.404l-19.99,-82.162l64.464,54.718l71.957,-44.394Z" style="fill:#f00;stroke:#000;stroke-width:12.5px;"/><path id="Path_1194" d="M2060.11,409.345l-709.864,-0l0,493.571l155.513,-93.302l554.351,-0l0,-400.269Z" style="fill:#fff;fill-rule:nonzero;stroke:#212829;stroke-width:12.5px;stroke-linecap:butt;stroke-linejoin:miter;stroke-miterlimit:10;"/><path id="Path_1195" d="M1996.81,577.529l-124.441,0" style="fill:none;fill-rule:nonzero;stroke:#f00;stroke-width:12.5px;stroke-linecap:butt;stroke-linejoin:miter;stroke-miterlimit:10;"/><path id="Path_1196" d="M1825.69,577.529l-154.721,0" style="fill:none;fill-rule:nonzero;stroke:#f00;stroke-width:12.5px;stroke-linecap:butt;stroke-linejoin:miter;stroke-miterlimit:10;"/><path id="Path_1197" d="M1996.81,515.308l-556.779,0" style="fill:none;fill-rule:nonzero;stroke:#f00;stroke-width:12.5px;stroke-linecap:butt;stroke-linejoin:miter;stroke-miterlimit:10;"/><path id="Path_11971" serif:id="Path_1197" d="M1996.81,638.869l-556.779,0" style="fill:none;fill-rule:nonzero;stroke:#f00;stroke-width:12.5px;stroke-linecap:butt;stroke-linejoin:miter;stroke-miterlimit:10;"/><path id="Path_11972" serif:id="Path_1197" d="M1996.81,703.026l-556.779,-0" style="fill:none;fill-rule:nonzero;stroke:#f00;stroke-width:12.5px;stroke-linecap:butt;stroke-linejoin:miter;stroke-miterlimit:10;"/><path id="Path_1198" d="M1065.53,1556.27l-0,-62.427c-0,-124.854 87.389,-112.316 174.789,-162.308" style="fill:none;fill-rule:nonzero;stroke:#212829;stroke-width:12.5px;stroke-linecap:butt;stroke-linejoin:miter;stroke-miterlimit:10;"/><path id="Path_1199" d="M1415,1556.3l0,-62.427c0,-124.854 87.389,-112.316 174.789,-162.308" style="fill:none;fill-rule:nonzero;stroke:#212829;stroke-width:12.5px;stroke-linecap:butt;stroke-linejoin:miter;stroke-miterlimit:10;"/><path id="Path_1200" d="M1752.1,1244.16l-0,49.969" style="fill:none;fill-rule:nonzero;stroke:#212829;stroke-width:12.5px;stroke-linecap:butt;stroke-linejoin:miter;stroke-miterlimit:10;"/><path id="Path_1201" d="M1440.08,1331.51c87.389,49.935 174.79,37.454 174.79,162.308l-0,62.427" style="fill:none;fill-rule:nonzero;stroke:#212829;stroke-width:12.5px;stroke-linecap:butt;stroke-linejoin:miter;stroke-miterlimit:10;"/><path id="Path_1202" d="M1627.24,1294.13l0,-49.946" style="fill:none;fill-rule:nonzero;stroke:#212829;stroke-width:12.5px;stroke-linecap:butt;stroke-linejoin:miter;stroke-miterlimit:10;"/><path id="Path_1203" d="M1692.48,1454.41l0,-93.28" style="fill:none;fill-rule:nonzero;stroke:#212829;stroke-width:12.5px;stroke-linecap:butt;stroke-linejoin:miter;stroke-miterlimit:10;"/><path id="Path_1204" d="M1789.55,1331.56c87.388,49.946 174.789,37.454 174.789,162.308l-0,62.427" style="fill:none;fill-rule:nonzero;stroke:#212829;stroke-width:12.5px;stroke-linecap:butt;stroke-linejoin:miter;stroke-miterlimit:10;"/><path id="Path_1205" d="M1789.55,1331.56c-59.31,39.276 -125.84,39.585 -199.751,-0l24.973,-37.454l74.908,12.48l74.908,-12.48l24.962,37.454Z" style="fill:none;fill-rule:nonzero;stroke:#f00;stroke-width:12.5px;stroke-linecap:butt;stroke-linejoin:miter;stroke-miterlimit:10;"/><path id="Path_1206" d="M1402.63,1244.15l0,49.935" style="fill:none;fill-rule:nonzero;stroke:#212829;stroke-width:12.5px;stroke-linecap:butt;stroke-linejoin:miter;stroke-miterlimit:10;"/><path id="Path_1207" d="M1277.78,1294.08l0,-49.935" style="fill:none;fill-rule:nonzero;stroke:#212829;stroke-width:12.5px;stroke-linecap:butt;stroke-linejoin:miter;stroke-miterlimit:10;"/><path id="Path_1208" d="M1577.31,1081.86c0,0 42.039,38.211 72.719,-15.598c25.432,-44.617 159.719,-7.518 152.017,15.598" style="fill:none;fill-rule:nonzero;stroke:#f00;stroke-width:12.5px;stroke-linecap:butt;stroke-linejoin:miter;stroke-miterlimit:10;"/><path id="Path_1209" d="M1390.14,1381.48l-49.946,-24.973l-49.935,24.973l-49.992,-49.889l24.973,-37.454l74.908,12.481l74.908,-12.481l24.973,37.454l-49.889,49.889Z" style="fill:none;fill-rule:nonzero;stroke:#ffd525;stroke-width:12.5px;stroke-linecap:butt;stroke-linejoin:miter;stroke-miterlimit:10;"/><path id="Path_1210" d="M1215.29,1028.23c-0,0 31.517,27.598 49.934,24.973c29.134,-4.16 95.721,-45.774 124.855,-49.935c18.429,-2.636 49.946,24.974 49.946,24.974" style="fill:none;fill-rule:nonzero;stroke:#ffd525;stroke-width:12.5px;stroke-linecap:butt;stroke-linejoin:miter;stroke-miterlimit:10;"/><path d="M1443.7,1060.74l41.498,90.538l-41.498,0l0,46.587c0,38.277 -37.776,58.719 -88.559,58.719c-64.601,-0 -139.848,0.395 -139.848,-203.202" style="fill:none;stroke:#212829;stroke-width:12.5px;stroke-miterlimit:1.5;"/><path id="Path_1212" d="M1802.04,1081.86l-0,49.935c-12.492,87.389 -49.946,112.316 -49.946,112.316c-19.816,8.128 -41.01,12.369 -62.428,12.493c-21.417,-0.124 -42.611,-4.365 -62.427,-12.493c-19.815,-8.127 -37.454,-24.973 -49.935,-112.316l0,-49.935" style="fill:none;fill-rule:nonzero;stroke:#212829;stroke-width:12.5px;stroke-linecap:butt;stroke-linejoin:miter;stroke-miterlimit:10;"/><path id="Path_1213" d="M1215.39,1060.74c-0,-75.848 36.514,-112.316 112.316,-112.316c75.802,-0 115.988,36.514 115.988,112.316" style="fill:none;fill-rule:nonzero;stroke:#212829;stroke-width:12.5px;stroke-linecap:butt;stroke-linejoin:miter;stroke-miterlimit:10;"/><path id="Path_1214" d="M1577.31,1081.86c0,-75.847 36.515,-112.316 112.317,-112.316c75.802,0 112.316,36.526 112.316,112.316" style="fill:none;fill-rule:nonzero;stroke:#212829;stroke-width:12.5px;stroke-linecap:butt;stroke-linejoin:miter;stroke-miterlimit:10;"/><path id="Path_1218" d="M1864.46,1556.27l-0,-67.034" style="fill:none;fill-rule:nonzero;stroke:#212829;stroke-width:12.5px;stroke-linecap:butt;stroke-linejoin:miter;stroke-miterlimit:10;"/></g></g></svg>