<svg xmlns="http://www.w3.org/2000/svg" width="61" height="61" viewBox="0 0 61 61">
  <g id="Group_239" data-name="Group 239" transform="translate(0 45)">
    <path id="Path_1687" data-name="Path 1687" d="M30.5,16A30.535,30.535,0,0,1,0-14.5,30.535,30.535,0,0,1,30.5-45,30.535,30.535,0,0,1,61-14.5,30.535,30.535,0,0,1,30.5,16Z" fill="#f53c37"/>
    <path id="Path_1688" data-name="Path 1688" d="M37.979-18.482a.678.678,0,0,1-.678-.678A14.1,14.1,0,0,0,23.217-33.242a.677.677,0,0,1-.678-.678.677.677,0,0,1,.678-.678A15.456,15.456,0,0,1,38.657-19.16.677.677,0,0,1,37.979-18.482Z" transform="translate(8.014 3.698)" fill="#fff"/>
    <path id="Path_1689" data-name="Path 1689" d="M33.642-19.619a.678.678,0,0,1-.678-.678,9.758,9.758,0,0,0-9.748-9.746.676.676,0,0,1-.678-.678.677.677,0,0,1,.678-.678,11.116,11.116,0,0,1,11.1,11.1A.677.677,0,0,1,33.642-19.619Z" transform="translate(8.014 4.836)" fill="#fff"/>
    <path id="Path_1690" data-name="Path 1690" d="M16.491-7.428A5.884,5.884,0,0,1,12.3-9.164a5.878,5.878,0,0,1-1.735-4.186A5.878,5.878,0,0,1,12.3-17.535l3.233-3.228a.678.678,0,0,1,.958,0,.678.678,0,0,1,0,.958l-3.233,3.228a4.537,4.537,0,0,0-1.338,3.228,4.537,4.537,0,0,0,1.338,3.228,4.678,4.678,0,0,0,6.461,0l3.228-3.228a.678.678,0,0,1,.958,0,.678.678,0,0,1,0,.958L20.681-9.164A5.888,5.888,0,0,1,16.491-7.428Z" transform="translate(3.758 8.547)" fill="#fff"/>
    <path id="Path_1691" data-name="Path 1691" d="M15.243-18.023a31.633,31.633,0,0,1,8.312,8.31l11.106-5.334A52.48,52.48,0,0,0,20.58-29.129Zm8.078,9.854a.677.677,0,0,1-.567-.305,30.373,30.373,0,0,0-8.749-8.747.674.674,0,0,1-.239-.859L19.7-30.419a.678.678,0,0,1,.428-.359.675.675,0,0,1,.553.087A53.875,53.875,0,0,1,36.224-15.146a.675.675,0,0,1,.087.553.673.673,0,0,1-.359.43L23.614-8.236A.66.66,0,0,1,23.321-8.169Z" transform="translate(4.871 5.048)" fill="#fff"/>
    <path id="Path_1692" data-name="Path 1692" d="M21.459-9.653a5.447,5.447,0,0,1-3.751-1.7.678.678,0,0,1,0-.958.678.678,0,0,1,.958,0,4.148,4.148,0,0,0,2.792,1.3h0a1.873,1.873,0,0,0,1.346-.5.678.678,0,0,1,.958,0,.678.678,0,0,1,0,.958,3.174,3.174,0,0,1-2.306.9Z" transform="translate(0.574 -1.34) rotate(37)" fill="#fff"/>
    <path id="Path_1693" data-name="Path 1693" d="M21.459-9.653a5.447,5.447,0,0,1-3.751-1.7.678.678,0,0,1,0-.958.678.678,0,0,1,.958,0,4.148,4.148,0,0,0,2.792,1.3h0a1.873,1.873,0,0,0,1.346-.5.678.678,0,0,1,.958,0,.678.678,0,0,1,0,.958,3.174,3.174,0,0,1-2.306.9Z" transform="translate(2.793 -2.979) rotate(37)" fill="#fff"/>
  </g>
</svg>
