<svg xmlns="http://www.w3.org/2000/svg" width="149.786" height="51.232" viewBox="0 0 149.786 51.232">
  <g id="Group_346" data-name="Group 346" transform="translate(0 157.807)">
    <path id="Path_2712" data-name="Path 2712" d="M0-98.814H149.786v-11H0Z" transform="translate(0 -7.761)" fill="#fff" fill-rule="evenodd"/>
    <path id="Path_2713" data-name="Path 2713" d="M170.54-106.292a2.549,2.549,0,0,1,2.548,2.548,2.549,2.549,0,0,1-2.548,2.548,2.549,2.549,0,0,1-2.548-2.548A2.549,2.549,0,0,1,170.54-106.292Z" transform="translate(-27.166 -8.33)" fill="none" stroke="#000" stroke-linecap="round" stroke-linejoin="round" stroke-width="1.3"/>
    <path id="Path_2714" data-name="Path 2714" d="M173.5-101.028l1.812,1.781" transform="translate(-28.056 -9.182)" fill="none" stroke="#000" stroke-linecap="round" stroke-linejoin="round" stroke-width="1.3"/>
    <path id="Path_2719" data-name="Path 2719" d="M40.214-135.714H58.193v-17.979H40.214Z" transform="translate(-6.503 -0.665)" fill="#4185f4" fill-rule="evenodd"/>
    <path id="Path_2720" data-name="Path 2720" d="M65.67-134.273H76.176v-10.505H65.67Z" transform="translate(-10.62 -2.107)" fill="#f53c37" fill-rule="evenodd"/>
    <path id="Path_2721" data-name="Path 2721" d="M83.374-134.273H93.88v-10.505H83.374Z" transform="translate(-13.482 -2.107)" fill="#fabc04" fill-rule="evenodd"/>
    <path id="Path_2722" data-name="Path 2722" d="M125.934-134.273h10.505v-10.505H125.934Z" transform="translate(-20.365 -2.107)" fill="#e94234" fill-rule="evenodd"/>
    <path id="Path_2723" data-name="Path 2723" d="M100.077-123.35h10.505v-21.427H100.077Z" transform="translate(-16.183 -2.107)" fill="#4185f4" fill-rule="evenodd"/>
    <path id="Path_2724" data-name="Path 2724" d="M116.513-136.379H120.8v-21.427h-4.288Z" transform="translate(-18.841 0)" fill="#33a753" fill-rule="evenodd"/>
  </g>
</svg>
