<svg xmlns="http://www.w3.org/2000/svg" xmlns:xlink="http://www.w3.org/1999/xlink" width="88.957" height="101.668" viewBox="0 0 88.957 101.668">
  <defs>
    <clipPath id="clip-path">
      <path id="Path_2770" data-name="Path 2770" d="M36.863-97.67A28.09,28.09,0,0,1,64.94-69.593,28.09,28.09,0,0,1,36.863-41.516,28.09,28.09,0,0,1,8.786-69.593,28.09,28.09,0,0,1,36.863-97.67Z" fill="none" clip-rule="evenodd"/>
    </clipPath>
  </defs>
  <g id="Group_350" data-name="Group 350" transform="translate(-3.367 104.015)">
    <path id="Path_2765" data-name="Path 2765" d="M36.863-97.67A28.09,28.09,0,0,1,64.94-69.593,28.09,28.09,0,0,1,36.863-41.516,28.09,28.09,0,0,1,8.786-69.593,28.09,28.09,0,0,1,36.863-97.67Z" fill="#fff" fill-rule="evenodd"/>
    <g id="Group_349" data-name="Group 349" clip-path="url(#clip-path)">
      <path id="Path_2766" data-name="Path 2766" d="M26.2-72.442s-3.08-.843-3.732-4.97-.328-8.274,1.8-9.516,2.957-1.4,3.392-.966c.388.388-.068,2.189-.068,2.189s4.525-6.043,11.963-5.487c.857.064-.655,2.58-.655,2.58s7.25-2.071,11.058,11.265,3.462,19.562-3.673,21.5S26.2-72.442,26.2-72.442Z" fill="#f53c37" stroke="#000" stroke-linejoin="round" stroke-width="2.865"/>
      <path id="Path_2767" data-name="Path 2767" d="M46.079-62.483l7.08,24.018c.448,3.838-8.762,9.264-16.793,7.338-2-.477-2.218-2.885-1.279-7.023l2.572-21.1Z" fill="#fff" stroke="#000" stroke-linejoin="round" stroke-width="2.865"/>
      <path id="Path_2768" data-name="Path 2768" d="M45.659-65.4l1.023,2.088a8.09,8.09,0,0,1-4.334,10.419c-3.22,1.374-5.388,1.685-9.745,1.765-3.626.069-5.935-3.1-6.594-7.775a44.16,44.16,0,0,1,.771-14.987c1.546-7.048,9.692-8.815,14.063-1.331l1.943,3.963c.091-.323.168-.65.238-.979.325-1.528,1.162-3.723,3.195-2.125C48.616-72.472,48.055-67.2,45.659-65.4Z" fill="#fff" stroke="#000" stroke-linejoin="round" stroke-width="2.865"/>
      <path id="Path_2769" data-name="Path 2769" d="M27.879-53.651c.087-.2,10.936,2.227,18.3-4.978,0,0-3.4,12.507-10.3,13.969l.817-6.692c-1.174.134-2.485.2-4.093.225A5.476,5.476,0,0,1,27.879-53.651Z"/>
    </g>
    <path id="Path_2771" data-name="Path 2771" d="M36.863-97.67A28.09,28.09,0,0,1,64.94-69.593,28.09,28.09,0,0,1,36.863-41.516,28.09,28.09,0,0,1,8.786-69.593,28.09,28.09,0,0,1,36.863-97.67Z" fill="none" stroke="#000" stroke-linecap="round" stroke-linejoin="round" stroke-width="3"/>
    <path id="Path_2772" data-name="Path 2772" d="M65.128-31.137l3.141-2.574L56.646-47.894,53.505-45.32Z" fill="#fff" stroke="#000" stroke-linejoin="round" stroke-width="1.939"/>
    <path id="Path_2773" data-name="Path 2773" d="M13.731-50.049A27.911,27.911,0,0,0,53.2-46.472a27.855,27.855,0,0,0,4.192-39.357A28.255,28.255,0,0,0,17.67-89.767,28.254,28.254,0,0,0,13.731-50.049Zm-3.081,2.526a32.245,32.245,0,0,1,4.495-45.325,32.243,32.243,0,0,1,45.325,4.494,32.245,32.245,0,0,1-4.495,45.325A32.243,32.243,0,0,1,10.649-47.523Z"/>
    <path id="Path_2774" data-name="Path 2774" d="M15.967-52.942A28.255,28.255,0,0,0,55.685-49a28.254,28.254,0,0,0,3.938-39.718A28.254,28.254,0,0,0,19.9-92.66,28.255,28.255,0,0,0,15.967-52.942Zm-3.081,2.526a32.241,32.241,0,0,1,4.495-45.325,32.244,32.244,0,0,1,45.325,4.494,32.245,32.245,0,0,1-4.495,45.325A32.243,32.243,0,0,1,12.886-50.417Z" fill="#fff" stroke="#000" stroke-linejoin="round" stroke-width="1.939"/>
    <path id="Path_2775" data-name="Path 2775" d="M64.062-35.969A6.739,6.739,0,0,1,73.5-34.881L89.9-14.207A6.736,6.736,0,0,1,88.812-4.77a6.738,6.738,0,0,1-9.439-1.086L62.974-26.53A6.738,6.738,0,0,1,64.062-35.969Z" fill="#fff" stroke="#000" stroke-linejoin="round" stroke-width="1.939"/>
    <path id="Path_2776" data-name="Path 2776" d="M14.226-67.943a14.26,14.26,0,0,0,1.61,7.511,25.112,25.112,0,0,0,4.618,5.924c1.394,1.4,3.376-.936,2-2.326-2.838-2.853-5.424-6.329-5.211-10.561a1.582,1.582,0,0,0-1.232-1.781A1.539,1.539,0,0,0,14.226-67.943Z" fill="#fff" stroke="#000" stroke-linejoin="round" stroke-width="0.902"/>
    <path id="Path_2777" data-name="Path 2777" d="M13.444-74.552a1.536,1.536,0,0,0,.165.566,1.555,1.555,0,0,0,.258.708,1.168,1.168,0,0,0,.43.4,1.143,1.143,0,0,0,.557.235A1.547,1.547,0,0,0,16-72.891a1.573,1.573,0,0,0,.635-.985,2.246,2.246,0,0,0-.074-1.071,1.623,1.623,0,0,0-.332-.613,1.145,1.145,0,0,0-.428-.4,1.164,1.164,0,0,0-.557-.235,1.155,1.155,0,0,0-.6.024,1.148,1.148,0,0,0-.541.223,1.536,1.536,0,0,0-.635.985Z" fill="#fff" stroke="#000" stroke-linejoin="round" stroke-width="0.902"/>
  </g>
</svg>
