<?xml version="1.0" encoding="UTF-8" standalone="no"?><!DOCTYPE svg PUBLIC "-//W3C//DTD SVG 1.1//EN" "http://www.w3.org/Graphics/SVG/1.1/DTD/svg11.dtd"><svg width="100%" height="100%" viewBox="0 0 44534 41667" version="1.1" xmlns="http://www.w3.org/2000/svg" xmlns:xlink="http://www.w3.org/1999/xlink" xml:space="preserve" xmlns:serif="http://www.serif.com/" style="fill-rule:evenodd;clip-rule:evenodd;stroke-linecap:round;stroke-linejoin:round;stroke-miterlimit:1.5;"><g id="Artboard1"><path d="M35306.4,7829.45l-5746.58,-5746.58l-5746.58,5746.58l5746.58,5746.58l5746.58,-5746.58Z" style="fill:none;stroke:#000;stroke-width:183.6px;"/><path id="Path_1465" d="M27210,19580.2c5219.26,1.842 9513.52,4296.08 9515.37,9515.37c-1.841,5219.27 -4296.07,9513.52 -9515.37,9515.37c-5219.27,-1.832 -9513.52,-4296.07 -9515.37,-9515.37c1.841,-5219.26 4296.07,-9513.52 9515.37,-9515.37Z" style="fill:none;fill-rule:nonzero;stroke:#000;stroke-width:297.97px;stroke-miterlimit:4;"/><path id="Path_1066" d="M27045.6,32805.6l-602.49,1466.58l1208.64,1025.78l-1580.49,-119.409l-602.181,1466.43l-374.822,-1540.35l-1580.8,-119.563l1349.15,-832.523l-374.596,-1540.43l1208.64,1025.93l1348.93,-832.443l0.015,-0.001Z" style="fill:none;fill-rule:nonzero;stroke:#000;stroke-width:229.35px;stroke-miterlimit:4;"/><path id="Path_1466" d="M12643.4,3333.11c4261.83,2.036 7768.17,3508.37 7770.2,7770.2c-1.999,4261.86 -3508.35,7768.25 -7770.2,7770.28c-4261.98,-1.851 -7768.55,-3508.27 -7770.53,-7770.28c2.036,-4261.96 3508.57,-7768.35 7770.53,-7770.2Z" style="fill:none;fill-rule:nonzero;stroke:#000;stroke-width:202.57px;stroke-miterlimit:4;stroke-dasharray:607.7,1012.84,0,0;"/><path d="M28099.1,16132l7753.97,-0" style="fill:none;stroke:#000;stroke-width:412.68px;"/><path d="M29488.2,18873.6l12393.8,-0" style="fill:none;stroke:#f53c37;stroke-width:559.68px;"/><path d="M27210,22612.2l7865.11,0" style="fill:none;stroke:#000;stroke-width:415.88px;"/><path d="M29849.4,25175.8l7865.1,-0" style="fill:none;stroke:#000;stroke-width:415.88px;"/><g><path d="M5375.85,25563.6l2568.96,-16395.6l24519.6,3841.87l-2568.96,16395.6l-24519.6,-3841.87Z" style="fill:#fff;fill-rule:nonzero;stroke:#000;stroke-width:311.75px;stroke-linecap:butt;stroke-miterlimit:2;"/><path d="M8572.11,9715.43l9480.55,11423.3l14411.7,-8128.83"/><path d="M7944.81,9168l9144.57,10510.5l15375,-6668.65" style="fill:#fff;stroke:#000;stroke-width:378.61px;"/></g><path d="M27210,26075.2l5571.09,8775.05l1098.75,-3066.46l4813.13,2350.14l1051.47,-1983.63l-4723.05,-2456.39l3022.57,-1936.46l-10834,-1682.24Z" style="fill:#fff;fill-rule:nonzero;stroke:#000;stroke-width:344.49px;stroke-linecap:butt;stroke-miterlimit:2;"/><g><path d="M14932.9,24828.5c3019.65,-637.245 5988.58,1296.96 6625.82,4316.61c637.245,3019.65 -1296.96,5988.58 -4316.61,6625.82c-3019.65,637.245 -5988.58,-1296.96 -6625.82,-4316.61c-637.244,-3019.65 1296.96,-5988.58 4316.61,-6625.82Z" style="fill:#fff;stroke:#f53c37;stroke-width:481.95px;"/><g><path d="M12475.4,30631.8c-24.649,-116.803 73.514,-201.429 281.779,-245.38c114.01,-24.06 205.251,-31.692 284.946,-25.271l44.603,211.357l389.023,-82.096l-105.626,-514.278c-173.311,-64.794 -415.649,-71.578 -718.439,-7.68c-602.293,127.104 -766.24,393.403 -685.375,776.592c171.035,810.467 1141.89,246.4 1217.38,604.13c22.813,108.1 -55.515,176.744 -288.773,225.969c-150.076,31.671 -270.244,39.659 -349.919,33.311l-45.04,-213.428l-389.025,82.098l110.724,538.425c173.31,64.799 455.711,68.924 766.801,3.274c499.682,-105.45 796.183,-347.597 699.061,-807.82c-168.7,-799.399 -1143.52,-254.123 -1212.12,-579.203Z" style="fill:#f53c37;fill-rule:nonzero;"/><path d="M14602.4,29556.8c-166.607,35.16 -307.191,111.171 -405.831,192.812c-79.427,-46.947 -178.981,-52.006 -300.999,-26.256c-135.898,28.679 -218.413,63.471 -287.053,95.335l88.947,421.486l177.603,-37.48l237.247,1124.22c-53.741,20.053 -121.944,40.253 -177.445,51.966l87.465,386.989l887.796,-187.354l-76.361,-389.333c-55.536,11.72 -151.12,26.084 -211.192,30.05l-38.134,-180.701l255.464,-53.911c505.109,-106.594 761.87,-427.246 668.163,-871.286c-93.706,-444.036 -389.548,-665.454 -905.67,-556.535Zm143.88,984.16l-255.464,53.911l-104.898,-497.067c72.043,-29.707 145.844,-51.083 223.595,-67.491c188.821,-39.847 342.897,3.053 382.746,191.884c39.849,188.83 -79.372,283.603 -245.979,318.763Z" style="fill:#f53c37;fill-rule:nonzero;"/><path d="M17494.8,30613.1l-981.014,-1477.04l-502.402,175.591l-250.786,1667.42c-50.943,19.471 -116.342,39.085 -171.821,50.793l87.463,386.99l837.72,-176.787l-76.362,-389.332c-49.935,10.538 -106,19.463 -154.918,21.066l14.757,-122.288l616.317,-130.064l62.912,105.898c-45.394,18.3 -100.285,32.791 -150.217,43.328l87.464,386.989l837.72,-176.786l-76.365,-389.332c-58.254,12.294 -126.002,20.777 -180.468,23.551Zm-1148.88,-279.263l62.409,-529.128l282.002,456.446l-344.411,72.682Z" style="fill:#f53c37;fill-rule:nonzero;"/><path d="M20217.1,30038.6l-300.931,-1151.38c53.139,-22.812 118.569,-42.42 176.845,-54.718l-87.465,-386.989l-796.142,168.012l-251.293,1131.16l-664.725,-937.848l-823.89,173.868l76.365,389.331c58.276,-12.298 126.049,-20.8 183.292,-24.182l201.649,1175.23c-50.969,19.455 -119.174,39.647 -177.45,51.945l87.465,386.989l859.963,-181.48l-76.363,-389.332c-52.74,11.13 -126.083,20.809 -183.341,24.194l-138.038,-791.422l617.499,837.712l355.304,-74.981l225.763,-1018.57l199.669,781.315c-50.976,19.456 -119.2,39.652 -174.716,51.368l87.466,386.989l859.971,-181.482l-76.365,-389.332c-52.726,11.127 -123.274,20.216 -180.532,23.601Z" style="fill:#f53c37;fill-rule:nonzero;"/></g><path d="M11528.3,27078l9333.69,5940.97" style="fill:none;stroke:#f53c37;stroke-width:481.95px;"/></g></g></svg>