<?xml version="1.0" encoding="UTF-8" standalone="no"?><!DOCTYPE svg PUBLIC "-//W3C//DTD SVG 1.1//EN" "http://www.w3.org/Graphics/SVG/1.1/DTD/svg11.dtd"><svg width="100%" height="100%" viewBox="0 0 1717 1744" version="1.1" xmlns="http://www.w3.org/2000/svg" xmlns:xlink="http://www.w3.org/1999/xlink" xml:space="preserve" xmlns:serif="http://www.serif.com/" style="fill-rule:evenodd;clip-rule:evenodd;stroke-linecap:round;stroke-linejoin:round;"><g id="Group_189"><path id="Path_1446" d="M487.508,1445.3l222.292,-465.329l37.838,354.733l222.3,-567.571l61.487,435.142l307.433,-647.983" style="fill:none;fill-rule:nonzero;stroke:#fff;stroke-width:8.33px;"/><g transform="matrix(0.965886,0.258969,-0.258969,0.965886,107.39,-130.966)"><text x="550.787px" y="342.125px" style="font-family:'CorporativeSlab-Bold', 'Corporative Slab';font-weight:700;font-size:370.877px;fill:#f63d37;">N<tspan x="852.682px " y="342.125px ">o</tspan>.1</text></g><path id="Path_1455" d="M1168.37,948.087c216.929,0.106 395.401,178.58 395.504,395.509c-0.103,216.929 -178.575,395.403 -395.504,395.508c-216.931,-0.103 -395.406,-178.578 -395.509,-395.508c0.103,-216.931 178.578,-395.406 395.509,-395.509Z" style="fill:none;fill-rule:nonzero;stroke:#fff;stroke-width:8.33px;stroke-dasharray:37.5,62.5,0,0;"/><rect id="Path_1438" x="4.167" y="716.146" width="1392.88" height="108.354" style="fill:#f53c37;"/><rect id="Path_1439" x="4.167" y="914.4" width="1284.96" height="82.038" style="fill:#fff;stroke:#fff;stroke-width:8.33px;"/><rect id="Path_1440" x="178.712" y="510.521" width="519.725" height="82.021" style="fill-opacity:0;fill-rule:nonzero;stroke:#fff;stroke-width:8.33px;"/><rect id="Path_1441" x="4.167" y="1112.65" width="1284.96" height="82.037" style="fill:#fff;stroke:#fff;stroke-width:8.33px;"/><path id="Path_1442" d="M1497.98,757.154l65.888,68.95" style="fill:none;fill-rule:nonzero;stroke:#fff;stroke-width:8.33px;"/><path id="Path_1443" d="M1712.45,757.154l-214.463,0l65.888,-68.95" style="fill-opacity:0;fill-rule:nonzero;stroke:#fff;stroke-width:8.33px;"/><path id="Path_1444" d="M787.942,516.033c15.443,0.009 28.149,12.715 28.158,28.159c-0.007,15.444 -12.714,28.151 -28.158,28.158c-15.447,-0.005 -28.158,-12.711 -28.167,-28.158c0.009,-15.447 12.72,-28.154 28.167,-28.159Z" style="fill-opacity:0;fill-rule:nonzero;stroke:#fff;stroke-width:8.33px;"/><path id="Path_1445" d="M808.437,563.488l29.063,29.058" style="fill:none;fill-rule:nonzero;stroke:#fff;stroke-width:8.33px;"/><path id="Path_1447" d="M125.904,552.688c0.074,-4.27 -0.367,-8.532 -1.312,-12.696l-58.334,-0l0,23.05l34.23,-0c-1.31,8.162 -5.899,15.445 -12.696,20.15l-0.117,0.771l18.438,14.283l1.279,0.129c12.339,-11.923 19.064,-28.534 18.496,-45.683" style="fill:#4185f4;fill-rule:nonzero;"/><path id="Path_1448" d="M66.279,613.417c15.124,0.426 29.851,-4.961 41.129,-15.046l-19.583,-15.184c-6.354,4.261 -13.882,6.433 -21.529,6.213c-16.066,-0.094 -30.357,-10.533 -35.333,-25.808l-0.73,0.062l-19.166,14.838l-0.25,0.695c10.517,20.951 32.04,34.229 55.483,34.23" style="fill:#33a753;fill-rule:nonzero;"/><path id="Path_1449" d="M30.946,563.592c-1.361,-3.953 -2.065,-8.103 -2.083,-12.284c0.024,-4.173 0.699,-8.317 2,-12.283l-0.034,-0.833l-19.412,-15.075l-0.634,0.304c-4.349,8.65 -6.617,18.197 -6.625,27.879c0.007,9.682 2.276,19.229 6.625,27.879l20.15,-15.596" style="fill:#fabc04;fill-rule:nonzero;"/><path id="Path_1450" d="M66.279,513.217c8.897,-0.14 17.51,3.176 24.017,9.246l17.529,-17.117c-11.238,-10.543 -26.134,-16.334 -41.542,-16.15c-23.447,0.002 -44.973,13.287 -55.487,34.246l20.083,15.596c5.026,-15.277 19.335,-25.704 35.417,-25.809" style="fill:#eb4234;fill-rule:nonzero;"/><path id="Path_1451" d="M1039.5,1445.3c37.67,0.018 68.66,31.014 68.671,68.683c-0.025,37.66 -31.011,68.64 -68.671,68.659c-37.659,-0.019 -68.644,-30.999 -68.666,-68.659c0.011,-37.668 30.998,-68.662 68.666,-68.683Z" style="fill:#ffd525;fill-rule:nonzero;"/><path id="Path_1452" d="M39.904,118.5l172.15,-0" style="fill:none;fill-rule:nonzero;stroke:#fff;stroke-width:8.33px;"/><path id="Path_1453" d="M39.904,157.737l172.15,0" style="fill:none;fill-rule:nonzero;stroke:#fff;stroke-width:8.33px;"/><path id="Path_1454" d="M39.904,196.979l172.15,0" style="fill:none;fill-rule:nonzero;stroke:#fff;stroke-width:8.33px;"/></g></svg>