<?xml version="1.0" encoding="UTF-8" standalone="no"?><!DOCTYPE svg PUBLIC "-//W3C//DTD SVG 1.1//EN" "http://www.w3.org/Graphics/SVG/1.1/DTD/svg11.dtd"><svg width="100%" height="100%" viewBox="0 0 1866 3212" version="1.1" xmlns="http://www.w3.org/2000/svg" xmlns:xlink="http://www.w3.org/1999/xlink" xml:space="preserve" xmlns:serif="http://www.serif.com/" style="fill-rule:evenodd;clip-rule:evenodd;stroke-linecap:round;stroke-linejoin:round;"><g id="Group_212"><path id="Path_1279" d="M1859.02,1255.64l-148.952,-89.548l-279.323,38.444l-23.462,87.551l266.923,-22.299l93.719,59.27l-175.335,74.571l81.435,261.164l82.027,-25.039l-76.17,-180.438l140.255,-34.14" style="stroke:#fff;stroke-width:8.33px;"/><path id="Path_1280" d="M1388.03,1290.79l-23.868,-6.397l35.337,-131.85c13.092,3.508 20.979,17.168 17.471,30.26l-28.94,107.987Z" style="fill:#fff;stroke:#f63d37;stroke-width:8.33px;"/><path id="Path_1281" d="M1762.14,1659.87l7.314,23.598l-130.387,40.418c-4.013,-12.946 3.337,-26.901 16.283,-30.915l106.79,-33.101Z" style="stroke:#fff;stroke-width:8.33px;"/><path id="Path_1095" d="M1166.2,2171.56c3.845,-27.639 29.736,-47.228 57.379,-43.413c27.638,3.847 47.226,29.737 43.413,57.379c-3.845,27.639 -29.736,47.229 -57.379,43.413c-27.639,-3.845 -47.228,-29.736 -43.413,-57.379Z" style="stroke:#fff;stroke-width:8.33px;"/><path id="Path_1096" d="M1289.11,2237.25l9.055,-112.058l-4.902,-95.099l-90.916,-99.204l27.238,-44.634l71.72,85.787l87.843,149.519l115.038,28.757c15.352,22.484 -50.965,49.047 -95.42,76.143l-64.079,127.431l-55.577,-116.642Z" style="stroke:#fff;stroke-width:8.33px;"/><path id="Path_1113" d="M1196.3,1917.39l-33.665,23.798l-10.581,-13.95l11.666,-14.968l-32.581,-5.127c0,0 3.911,-43.207 23.227,-39.02c19.317,4.187 50.096,20.574 50.096,20.574l-8.162,28.693Z" style="fill-rule:nonzero;stroke:#fff;stroke-width:8.33px;"/><path id="Path_1108" d="M1596.3,497.292c35.617,-8.373 71.819,14.024 80.225,49.633c8.371,35.616 -14.026,71.817 -49.633,80.225c-35.617,8.371 -71.817,-14.026 -80.225,-49.633c-8.373,-35.617 14.024,-71.819 49.633,-80.225Z" style="stroke:#fff;stroke-width:8.33px;"/><path id="Path_1112" d="M1549.95,680.483l203.354,-47.916l27.662,-154.875l-106.916,-55.9l33.07,-48.146l148.646,86.425l-92.946,286.204l102.971,172.171l-94.603,212.021l-197.63,-362.238l-88.05,110l-184.675,-97.887l38.679,-66.217l130.304,76.508l80.134,-110.15Z" style="stroke:#fff;stroke-width:8.33px;"/><path id="Path_1114" d="M1307.1,729.008l-3.959,-53.908l-22.941,0.917l-5.417,24.275l-32.338,-28.717c0,-0 -40.47,39.967 -20.145,56.025c20.325,16.058 62.566,33.562 62.566,33.562l22.234,-32.154Z" style="fill:none;fill-rule:nonzero;stroke:#fff;stroke-width:8.33px;"/><path id="Path_1115" d="M1666.82,399.108l-50.754,18.588l-8.608,-21.288l19.891,-14.941l-39.475,-17.642c0,0 19.759,-53.333 42.763,-41.425c23.004,11.908 56.346,43.204 56.346,43.204l-20.163,33.504Z" style="fill:none;stroke:#fff;stroke-width:8.33px;"/><g id="Group_96"><path id="Path_1017" d="M1089.95,527.609c-8.857,55.732 -61.975,94.324 -117.716,85.526c-55.733,-8.855 -94.327,-61.974 -85.526,-117.716c8.843,-55.745 61.969,-94.355 117.721,-85.554c55.741,8.861 94.334,61.995 85.521,117.744Z" style="fill-opacity:0;fill-rule:nonzero;stroke:#f63d37;stroke-width:8.33px;"/><path id="Path_1018" d="M906.996,574.483l-121.483,88.266" style="fill:none;fill-rule:nonzero;stroke:#f63d37;stroke-width:8.33px;"/></g><path id="Path_1019" d="M1704.53,2304.76l-219.808,-219.808l-219.808,219.808l219.808,219.817l219.808,-219.817Z" style="fill-rule:nonzero;stroke:#fff;stroke-width:8.33px;"/><path id="Path_1275" d="M1224.43,50.23l-73.727,-15.661l-15.658,73.724l73.721,15.661l15.664,-73.724Z" style="fill-opacity:0;fill-rule:nonzero;stroke:#fff;stroke-width:8.34px;"/><path id="Path_1277" d="M230.792,2497.75l309.012,-330.179l160.858,402.141l220.055,-173.479l364.058,431.771l575.758,-1600.17" style="fill-opacity:0;fill-rule:nonzero;stroke:#fff;stroke-width:8.33px;"/><path id="Path_1276" d="M5.529,3205.82l597.784,-1292.23l126.991,516.434l266.667,-516.434l249.75,698.455l465.654,-1481.57" style="fill-opacity:0;fill-rule:nonzero;stroke:#f63d37;stroke-width:8.33px;"/><path id="Path_1274" d="M1092.55,1691.29l-41.379,10.077l-3.205,42.47l-22.369,-36.241l-41.378,10.076l27.553,-32.472l-22.369,-36.241l39.406,16.177l27.553,-32.473l-3.203,42.464l39.391,16.163Z" style="fill-opacity:0;fill-rule:nonzero;stroke:#000;stroke-width:8.33px;"/><path id="Path_1273" d="M754.546,1402.95c36.344,0 66.25,29.906 66.25,66.25c-0,36.344 -29.906,66.25 -66.25,66.25c-36.344,0 -66.25,-29.906 -66.25,-66.25c-0,-36.344 29.906,-66.25 66.25,-66.25Z" style="fill-opacity:0;fill-rule:nonzero;stroke:#f63d37;stroke-width:8.33px;"/><g id="Group_103"><path id="Path_1283" d="M973.508,1008.81l0,121.666" style="fill:none;fill-rule:nonzero;stroke:#fff;stroke-width:8.33px;"/><path id="Path_1284" d="M945.783,1008.81l0,121.666" style="fill:none;fill-rule:nonzero;stroke:#fff;stroke-width:8.33px;"/><path id="Path_1285" d="M918.054,1008.81l0,121.666" style="fill:none;fill-rule:nonzero;stroke:#fff;stroke-width:8.33px;"/></g></g></svg>