<svg xmlns="http://www.w3.org/2000/svg" width="166.367" height="154.451" viewBox="0 0 166.367 154.451">
  <g id="Group_104" data-name="Group 104" transform="translate(-0.5 316.907)">
    <path id="Path_1286" data-name="Path 1286" d="M149.838-242.143l19.838-46.89,7.214,39.075,12.023-45.086,8.628,23.952,23.477-44.464" transform="translate(-55.502)" fill="none" stroke="#000" stroke-linecap="round" stroke-linejoin="round" stroke-width="2"/>
    <path id="Path_1287" data-name="Path 1287" d="M185.986-152.825,132.5-206.309,79.018-152.825,132.5-99.341Z" transform="translate(-36.909 -64.115)" fill="#fff" stroke="#000" stroke-linecap="round" stroke-linejoin="round" stroke-width="2" stroke-dasharray="9 15 0 0" fill-rule="evenodd"/>
    <path id="Path_1288" data-name="Path 1288" d="M120.624-244.674a41.625,41.625,0,0,1,41.606,41.606,41.626,41.626,0,0,1-41.606,41.606,41.626,41.626,0,0,1-41.606-41.606A41.626,41.626,0,0,1,120.624-244.674Z" transform="translate(-36.909 -45.848)" fill="#f53c37" stroke="#000" stroke-linecap="round" stroke-linejoin="round" stroke-width="2" fill-rule="evenodd"/>
    <path id="Path_1289" data-name="Path 1289" d="M188.025-63.736,176.138-75.624,164.25-63.736l11.888,11.888Z" transform="translate(-77.49 -126.338)" fill="none" stroke="#000" stroke-linecap="round" stroke-linejoin="round" stroke-width="2"/>
    <path id="Path_1290" data-name="Path 1290" d="M66.128-254.173a7.741,7.741,0,0,1,7.737,7.738,7.741,7.741,0,0,1-7.737,7.737,7.741,7.741,0,0,1-7.737-7.737A7.741,7.741,0,0,1,66.128-254.173Z" transform="translate(-27.087 -41.325)" fill="none" stroke="#000" stroke-linecap="round" stroke-linejoin="round" stroke-width="2"/>
    <path id="Path_1291" data-name="Path 1291" d="M1.5-183.9H31.3" transform="translate(0 -74.783)" fill="none" stroke="#000" stroke-linecap="round" stroke-linejoin="round" stroke-width="2"/>
    <path id="Path_1292" data-name="Path 1292" d="M1.5-170.938H31.3" transform="translate(0 -80.956)" fill="none" stroke="#000" stroke-linecap="round" stroke-linejoin="round" stroke-width="2"/>
    <path id="Path_1293" data-name="Path 1293" d="M1.5-157.971H31.3" transform="translate(0 -87.13)" fill="none" stroke="#000" stroke-linecap="round" stroke-linejoin="round" stroke-width="2"/>
    <path id="Path_1294" data-name="Path 1294" d="M123.433-271.655,124.6-259.7l11.733,2.586-11.012,4.8,1.166,11.958-7.972-8.989-11.012,4.8,6.085-10.36-7.972-8.989,11.733,2.586Z" transform="translate(-49.572 -33.002)" fill="#fff" stroke="#000" stroke-linecap="round" stroke-linejoin="round" stroke-width="2" fill-rule="evenodd"/>
    <path id="Path_1295" data-name="Path 1295" d="M182.008-228.789l-5.723,4.9,2.9,6.959-6.433-3.927-5.723,4.9,1.747-7.332-6.434-3.927,7.513-.6,1.747-7.333,2.9,6.959Z" transform="translate(-76.58 -50.386)" fill="#fff" stroke="#000" stroke-linecap="round" stroke-linejoin="round" stroke-width="2" fill-rule="evenodd"/>
    <path id="Path_1296" data-name="Path 1296" d="M186.433-175.463a14.916,14.916,0,0,1,3.663-16.98,14.9,14.9,0,0,1,14.492-3.169l-12.141,11,10.1,11.14,12.141-11a14.9,14.9,0,0,1-4.574,14.113,14.917,14.917,0,0,1-17.257,1.981L171.8-149.3a4.78,4.78,0,0,1-6.752-.332h0a4.78,4.78,0,0,1,.332-6.752Z" transform="translate(-77.281 -68.88)" fill="#fff" stroke="#000" stroke-linecap="round" stroke-linejoin="round" stroke-width="2" fill-rule="evenodd"/>
    <path id="Path_1297" data-name="Path 1297" d="M127.529-172.006l-1.8-16.769,11.438,15.865Z" transform="translate(-59.147 -72.463)" fill="#fff" stroke="#000" stroke-linecap="round" stroke-linejoin="round" stroke-width="2" fill-rule="evenodd"/>
    <path id="Path_1298" data-name="Path 1298" d="M75.123-154.9c-2.411,5.491,1.987,10.237,7.239,14.063l17.327,1.772,3.439,11.09c14.074,4.768,25.406,4.131,37.295-3.364L122.8-165.047c-5.613-4.1-17.616-3.737-22.975-1.616L94.442-156.3Z" transform="translate(-34.732 -82.253)" fill="#fff" stroke="#000" stroke-linecap="round" stroke-linejoin="round" stroke-width="2" fill-rule="evenodd"/>
    <path id="Path_1299" data-name="Path 1299" d="M143.779-168.6l-1.8-20.178,11.439,19.091Z" transform="translate(-66.884 -72.463)" fill="#fff" stroke="#000" stroke-linecap="round" stroke-linejoin="round" stroke-width="2" fill-rule="evenodd"/>
    <path id="Path_1300" data-name="Path 1300" d="M80.75-143.539S79.89-136.72,75-138" transform="translate(-34.996 -94.002)" fill="none" stroke="#000" stroke-linecap="round" stroke-linejoin="round" stroke-width="2"/>
  </g>
</svg>
