<svg xmlns="http://www.w3.org/2000/svg" width="160.642" height="158.688" viewBox="0 0 160.642 158.688">
  <g id="Group_46" data-name="Group 46" transform="translate(1 1.332)">
    <path id="Path_1067" data-name="Path 1067" d="M95.645-289.579a47.485,47.485,0,0,1,47.462,47.462,47.485,47.485,0,0,1-47.462,47.462,47.485,47.485,0,0,1-47.462-47.462A47.485,47.485,0,0,1,95.645-289.579Z" transform="translate(-29.861 335.213)" fill="none" stroke="#000" stroke-linecap="round" stroke-linejoin="round" stroke-width="2" stroke-dasharray="9 15 0 0"/>
    <path id="Path_1068" data-name="Path 1068" d="M184.018-314.344l22.445-46.982,3.82,35.816,22.445-57.306,6.208,43.935,31.041-65.424" transform="translate(-111.667 404.306)" fill="none" stroke="#000" stroke-linecap="round" stroke-linejoin="round" stroke-width="2"/>
    <path id="Path_1069" data-name="Path 1069" d="M59.8-174.242s51.787-43.521,70.578-46.075c-9.891-20.4-24.747-36.494-38.737-53.341L23.58-221.489Z" transform="translate(-15.045 325.624)" fill="#f53c37" stroke="#000" stroke-linecap="round" stroke-linejoin="round" stroke-width="2" fill-rule="evenodd"/>
    <path id="Path_1070" data-name="Path 1070" d="M94.5-193.327s31.16-60.042,47.539-69.6c-16.952-15.052-36.841-24.228-56.219-34.428L42.94-223.093Z" transform="translate(-26.704 339.896)" fill="#fff" stroke="#000" stroke-linecap="round" stroke-linejoin="round" stroke-width="2" fill-rule="evenodd"/>
    <g id="Group_47" data-name="Group 47" transform="translate(50.225 70.692) rotate(29.138)">
      <g id="Group_46-2" data-name="Group 46" transform="translate(0)">
        <text id="_1" data-name="1" transform="translate(0 9)" font-size="9" font-family="CorporativeSlab-Regular, Corporative Slab"><tspan x="0" y="0">1</tspan></text>
      </g>
    </g>
    <g id="Group_49" data-name="Group 49" transform="translate(42.23 85.032) rotate(29.138)">
      <g id="Group_48" data-name="Group 48" transform="translate(0)">
        <text id="_5" data-name="5" transform="translate(0 9)" font-size="9" font-family="CorporativeSlab-Regular, Corporative Slab"><tspan x="0" y="0">5</tspan></text>
      </g>
    </g>
    <g id="Group_51" data-name="Group 51" transform="translate(34.752 98.484) rotate(29.138)">
      <g id="Group_50" data-name="Group 50" transform="translate(0 0)">
        <text id="_9" data-name="9" transform="translate(0 9)" font-size="9" font-family="CorporativeSlab-Bold, Corporative Slab" font-weight="700"><tspan x="0" y="0">9</tspan></text>
      </g>
    </g>
    <g id="Group_53" data-name="Group 53" transform="translate(62.118 77.335) rotate(29.138)">
      <g id="Group_52" data-name="Group 52" transform="translate(0)">
        <text id="_2" data-name="2" transform="translate(0 9)" font-size="9" font-family="CorporativeSlab-Regular, Corporative Slab"><tspan x="0" y="0">2</tspan></text>
      </g>
    </g>
    <g id="Group_55" data-name="Group 55" transform="translate(54.163 91.67) rotate(29.138)">
      <g id="Group_54" data-name="Group 54" transform="translate(0)">
        <text id="_6" data-name="6" transform="translate(0 9)" font-size="9" font-family="CorporativeSlab-Regular, Corporative Slab"><tspan x="0" y="0">6</tspan></text>
      </g>
    </g>
    <g id="Group_57" data-name="Group 57" transform="translate(43.741 103.516) rotate(29.138)">
      <g id="Group_56" data-name="Group 56" transform="translate(0 0)">
        <text id="_10" data-name="10" transform="translate(0 9)" font-size="9" font-family="CorporativeSlab-Bold, Corporative Slab" font-weight="700"><tspan x="0" y="0">10</tspan></text>
      </g>
    </g>
    <g id="Group_59" data-name="Group 59" transform="translate(74.051 83.974) rotate(29.138)">
      <g id="Group_58" data-name="Group 58" transform="translate(0 0)">
        <text id="_3" data-name="3" transform="translate(0 9)" font-size="9" font-family="CorporativeSlab-Regular, Corporative Slab"><tspan x="0" y="0">3</tspan></text>
      </g>
    </g>
    <g id="Group_61" data-name="Group 61" transform="translate(66.056 98.309) rotate(29.138)">
      <g id="Group_60" data-name="Group 60" transform="translate(0)">
        <text id="_7" data-name="7" transform="translate(0 9)" font-size="9" font-family="CorporativeSlab-Regular, Corporative Slab"><tspan x="0" y="0">7</tspan></text>
      </g>
    </g>
    <g id="Group_63" data-name="Group 63" transform="translate(56.032 110.349) rotate(29.138)">
      <g id="Group_62" data-name="Group 62" transform="translate(0)">
        <text id="_11" data-name="11" transform="translate(0 9)" font-size="9" font-family="CorporativeSlab-Bold, Corporative Slab" font-weight="700"><tspan x="0" y="0">11</tspan></text>
      </g>
    </g>
    <g id="Group_65" data-name="Group 65" transform="translate(85.944 90.612) rotate(29.138)">
      <g id="Group_64" data-name="Group 64" transform="translate(0)">
        <text id="_4" data-name="4" transform="translate(0 9)" font-size="9" font-family="CorporativeSlab-Bold, Corporative Slab" font-weight="700"><tspan x="0" y="0">4</tspan></text>
      </g>
    </g>
    <g id="Group_67" data-name="Group 67" transform="translate(77.949 104.951) rotate(29.138)">
      <g id="Group_66" data-name="Group 66" transform="translate(0)">
        <text id="_8" data-name="8" transform="translate(0 9)" font-size="9" font-family="CorporativeSlab-Bold, Corporative Slab" font-weight="700"><tspan x="0" y="0">8</tspan></text>
      </g>
    </g>
    <g id="Group_69" data-name="Group 69" transform="translate(66.931 116.427) rotate(29.138)">
      <g id="Group_68" data-name="Group 68" transform="translate(0 0)">
        <text id="_12" data-name="12" transform="translate(0 9)" font-size="9" font-family="CorporativeSlab-Bold, Corporative Slab" font-weight="700"><tspan x="0" y="0">12</tspan></text>
      </g>
    </g>
    <path id="Path_1071" data-name="Path 1071" d="M20.173-68.693l-9.026-9.026L2.121-68.693l9.026,9.026Z" transform="translate(-2.121 207.622)" fill="none" stroke="#000" stroke-linecap="round" stroke-linejoin="round" stroke-width="2"/>
    <path id="Path_1072" data-name="Path 1072" d="M70.688-320.76a5.878,5.878,0,0,1,5.875,5.875,5.877,5.877,0,0,1-5.875,5.875,5.877,5.877,0,0,1-5.875-5.875A5.878,5.878,0,0,1,70.688-320.76Z" transform="translate(-39.877 353.991)" fill="none" stroke="#000" stroke-linecap="round" stroke-linejoin="round" stroke-width="2"/>
    <path id="Path_1073" data-name="Path 1073" d="M107.605-273.658a28.036,28.036,0,0,1,28.023,28.023,28.036,28.036,0,0,1-28.023,28.023,28.036,28.036,0,0,1-28.023-28.023A28.036,28.036,0,0,1,107.605-273.658Z" transform="translate(-48.772 325.624)" fill="#fff" stroke="#000" stroke-linecap="round" stroke-linejoin="round" stroke-width="2" fill-rule="evenodd"/>
    <path id="Path_1074" data-name="Path 1074" d="M127.128-342h22.629" transform="translate(-77.405 366.785)" fill="none" stroke="#000" stroke-linecap="round" stroke-linejoin="round" stroke-width="2"/>
    <path id="Path_1075" data-name="Path 1075" d="M127.128-329.038h22.629" transform="translate(-77.405 358.977)" fill="none" stroke="#000" stroke-linecap="round" stroke-linejoin="round" stroke-width="2"/>
    <path id="Path_1076" data-name="Path 1076" d="M127.128-316.071h22.629" transform="translate(-77.405 351.167)" fill="none" stroke="#000" stroke-linecap="round" stroke-linejoin="round" stroke-width="2"/>
    <path id="Path_1077" data-name="Path 1077" d="M329.062-148.093l-3.166,8.555,7.158,5.655-9.115-.368-3.166,8.555-2.467-8.782-9.115-.368,7.59-5.06-2.467-8.782,7.158,5.655Z" transform="translate(-187.051 250.362)" fill="none" stroke="#000" stroke-linecap="round" stroke-linejoin="round" stroke-width="2"/>
    <path id="Path_1078" data-name="Path 1078" d="M262.034-51.224l-2.422,5.9,4.862,4.127-6.359-.481-2.423,5.9-1.508-6.2-6.359-.481,5.427-3.349L251.744-52l4.863,4.127Z" transform="translate(-150.093 192.134)" fill="none" stroke="#000" stroke-linecap="round" stroke-linejoin="round" stroke-width="2"/>
    <path id="Path_1079" data-name="Path 1079" d="M150.034-232.387v-21.336" transform="translate(-91.2 313.619)" fill="none" stroke="#000" stroke-linecap="round" stroke-linejoin="round" stroke-width="2"/>
    <path id="Path_1080" data-name="Path 1080" d="M150.034-200.082H161.3" transform="translate(-91.2 281.314)" fill="none" stroke="#000" stroke-linecap="round" stroke-linejoin="round" stroke-width="2"/>
    <path id="Path_1081" data-name="Path 1081" d="M208.031-203.207h2.327" transform="translate(-126.129 283.196)" fill="none" stroke="#000" stroke-linecap="round" stroke-linejoin="round" stroke-width="2"/>
    <path id="Path_1082" data-name="Path 1082" d="M85.963-203.207H88.29" transform="translate(-52.614 283.196)" fill="none" stroke="#000" stroke-linecap="round" stroke-linejoin="round" stroke-width="2"/>
    <path id="Path_1083" data-name="Path 1083" d="M191.012-162.118l1.646,1.646" transform="translate(-115.879 258.451)" fill="none" stroke="#000" stroke-linecap="round" stroke-linejoin="round" stroke-width="2"/>
    <path id="Path_1084" data-name="Path 1084" d="M104.7-248.434l1.646,1.646" transform="translate(-63.896 310.434)" fill="none" stroke="#000" stroke-linecap="round" stroke-linejoin="round" stroke-width="2"/>
    <path id="Path_1085" data-name="Path 1085" d="M106.342-162.118l-1.646,1.646" transform="translate(-63.896 258.451)" fill="none" stroke="#000" stroke-linecap="round" stroke-linejoin="round" stroke-width="2"/>
    <path id="Path_1086" data-name="Path 1086" d="M192.658-248.434l-1.646,1.646" transform="translate(-115.879 310.434)" fill="none" stroke="#000" stroke-linecap="round" stroke-linejoin="round" stroke-width="2"/>
    <path id="Path_1087" data-name="Path 1087" d="M149.922-145.1v2.327" transform="translate(-91.133 248.201)" fill="none" stroke="#000" stroke-linecap="round" stroke-linejoin="round" stroke-width="2"/>
    <path id="Path_1088" data-name="Path 1088" d="M149.922-267.167v2.327" transform="translate(-91.133 321.715)" fill="none" stroke="#000" stroke-linecap="round" stroke-linejoin="round" stroke-width="2"/>
    <path id="Path_1089" data-name="Path 1089" d="M104.361-143.743a8.116,8.116,0,0,1,8.112,8.112,8.116,8.116,0,0,1-8.112,8.112,8.116,8.116,0,0,1-8.112-8.112A8.116,8.116,0,0,1,104.361-143.743Z" transform="translate(-58.809 247.384)" fill="none" stroke="#f53c37" stroke-linecap="round" stroke-linejoin="round" stroke-width="2"/>
  </g>
</svg>
