<svg xmlns="http://www.w3.org/2000/svg" width="163.311" height="131.668" viewBox="0 0 163.311 131.668">
  <g id="Group_105" data-name="Group 105" transform="translate(1 1)">
    <path id="Path_1090" data-name="Path 1090" d="M187.306-235.512l22.6-47.31,3.847,36.066,22.6-57.705,6.251,44.241,31.257-65.88" transform="translate(-112.885 351.409)" fill="none" stroke="#000" stroke-linecap="round" stroke-linejoin="round" stroke-width="2"/>
    <path id="Path_1091" data-name="Path 1091" d="M112.823-125.835l-5.62,4.375,3.154-7.634Z" transform="translate(-64.866 233.309)" fill="#fff" stroke="#000" stroke-linecap="round" stroke-linejoin="round" stroke-width="2" fill-rule="evenodd"/>
    <path id="Path_1092" data-name="Path 1092" d="M121.993-149.456c2.508-.355,3.234-2.989,3.441-5.725l-3.215-6.616,3.639-8.856-9.02-11.895-9.088,18.228c-.225,2.928,2.574,7.156,4.527,8.609l4.917-.37Z" transform="translate(-65.186 265.353)" fill="#fff" stroke="#000" stroke-linecap="round" stroke-linejoin="round" stroke-width="2" fill-rule="evenodd"/>
    <path id="Path_1093" data-name="Path 1093" d="M109.322-135.3l-6.844,5.133,4.312-8.351Z" transform="translate(-62.033 238.958)" fill="#fff" stroke="#000" stroke-linecap="round" stroke-linejoin="round" stroke-width="2" fill-rule="evenodd"/>
    <path id="Path_1094" data-name="Path 1094" d="M140.005-105.05s2.639-1.207,3.268.832" transform="translate(-84.53 219.108)" fill="none" stroke="#000" stroke-linecap="round" stroke-linejoin="round" stroke-width="2"/>
    <path id="Path_1095" data-name="Path 1095" d="M38.2-247.1a7.132,7.132,0,0,1,9.052-4.438,7.132,7.132,0,0,1,4.438,9.052,7.132,7.132,0,0,1-9.052,4.438A7.132,7.132,0,0,1,38.2-247.1Z" transform="translate(-23.267 306.944)" fill="#fff" stroke="#000" stroke-linecap="round" stroke-linejoin="round" stroke-width="2" fill-rule="evenodd"/>
    <path id="Path_1096" data-name="Path 1096" d="M70.991-283.753l4.241-15.169,1.869-13.21-9.852-16.075,4.939-5.41,7.57,13.715,8.084,22.912,15.052,7.03c1.51,3.505-8.32,5.383-15.158,7.921L75.516-266.226Z" transform="translate(-40.914 355.915)" fill="#fff" stroke="#000" stroke-linecap="round" stroke-linejoin="round" stroke-width="2" fill-rule="evenodd"/>
    <path id="Path_1097" data-name="Path 1097" d="M236.356-380.2l-9.089-9.088-9.088,9.088,9.088,9.089Z" transform="translate(-131.393 389.288)" fill="none" stroke="#000" stroke-linecap="round" stroke-linejoin="round" stroke-width="2"/>
    <path id="Path_1098" data-name="Path 1098" d="M39.287-129.468a5.919,5.919,0,0,1,5.916,5.916,5.918,5.918,0,0,1-5.916,5.916,5.918,5.918,0,0,1-5.916-5.916A5.919,5.919,0,0,1,39.287-129.468Z" transform="translate(-20.606 233.534)" fill="none" stroke="#000" stroke-linecap="round" stroke-linejoin="round" stroke-width="2"/>
    <path id="Path_1099" data-name="Path 1099" d="M1.5-296.983H24.286" transform="translate(-1.5 333.954)" fill="none" stroke="#000" stroke-linecap="round" stroke-linejoin="round" stroke-width="2"/>
    <path id="Path_1100" data-name="Path 1100" d="M1.5-284.016H24.286" transform="translate(-1.5 326.181)" fill="none" stroke="#000" stroke-linecap="round" stroke-linejoin="round" stroke-width="2"/>
    <path id="Path_1101" data-name="Path 1101" d="M1.5-271.05H24.286" transform="translate(-1.5 318.408)" fill="none" stroke="#000" stroke-linecap="round" stroke-linejoin="round" stroke-width="2"/>
    <path id="Path_1102" data-name="Path 1102" d="M143.95-72.11l-3.188,8.615L147.97-57.8l-9.178-.37L135.6-49.556,133.119-58.4l-9.178-.37,7.643-5.1L129.1-72.709l7.208,5.694Z" transform="translate(-0.631 169.165)" fill="none" stroke="#000" stroke-linecap="round" stroke-linejoin="round" stroke-width="2"/>
    <path id="Path_1103" data-name="Path 1103" d="M161.035-318.084l19.16-6.22,17.877-27.357-5.875-8.71-18.347,25.045-12.311,3.691,6.809-21.007L139.31-365.378l-4.047,9.081,21.576,7.058-7.68,14.865" transform="translate(-81.687 374.955)" fill="#fff" stroke="#000" stroke-linecap="round" stroke-linejoin="round" stroke-width="2" fill-rule="evenodd"/>
    <path id="Path_1104" data-name="Path 1104" d="M281.352-359.235l2.375-1.6,8.846,13.117h0a2.864,2.864,0,0,1-3.976-.773Z" transform="translate(-169.263 372.232)" fill="#fff" stroke="#000" stroke-linecap="round" stroke-linejoin="round" stroke-width="2" fill-rule="evenodd"/>
    <path id="Path_1105" data-name="Path 1105" d="M125.791-368.6l-2.621-1.155,6.379-14.479h0a2.864,2.864,0,0,1,1.466,3.775Z" transform="translate(-74.438 386.258)" fill="#fff" stroke="#000" stroke-linecap="round" stroke-linejoin="round" stroke-width="2" fill-rule="evenodd"/>
    <path id="Path_1106" data-name="Path 1106" d="M119-291.964a31.825,31.825,0,0,1,31.81,31.81A31.825,31.825,0,0,1,119-228.343a31.825,31.825,0,0,1-31.81-31.81A31.825,31.825,0,0,1,119-291.964Z" transform="translate(-52.87 330.945)" fill="#f53c37" stroke="#000" stroke-linecap="round" stroke-linejoin="round" stroke-width="2" fill-rule="evenodd"/>
    <path id="Path_1107" data-name="Path 1107" d="M249.042-132.908a7.132,7.132,0,0,1-10.032.992,7.132,7.132,0,0,1-.993-10.032,7.132,7.132,0,0,1,10.033-.992A7.132,7.132,0,0,1,249.042-132.908Z" transform="translate(-142.317 242.578)" fill="#fff" stroke="#000" stroke-linecap="round" stroke-linejoin="round" stroke-width="2" fill-rule="evenodd"/>
    <path id="Path_1108" data-name="Path 1108" d="M103.976-241a7.132,7.132,0,0,1,8.573,5.3,7.132,7.132,0,0,1-5.3,8.573,7.132,7.132,0,0,1-8.573-5.3A7.132,7.132,0,0,1,103.976-241Z" transform="translate(-59.637 300.511)" fill="#fff" stroke="#000" stroke-linecap="round" stroke-linejoin="round" stroke-width="2" fill-rule="evenodd"/>
    <path id="Path_1109" data-name="Path 1109" d="M191.476-246.279a7.132,7.132,0,0,1,2.434,9.783,7.132,7.132,0,0,1-9.783,2.434,7.132,7.132,0,0,1-2.434-9.783A7.132,7.132,0,0,1,191.476-246.279Z" transform="translate(-108.909 304.17)" fill="#fff" stroke="#000" stroke-linecap="round" stroke-linejoin="round" stroke-width="2" fill-rule="evenodd"/>
    <path id="Path_1110" data-name="Path 1110" d="M193.268-194.853l-14.157,17.264,7.7,14.944,12.7-2.193.317,6.234L181.607-156.3l-12.215-27.139-12.76-4.506c5.47-3.509,5.465-16.521,12.76-16.508l16.178,3.677,6.124-11.1,24.511-5.053,1.013,8.132-18.508,3.338Z" transform="translate(-94.497 285.963)" fill="#fff" stroke="#000" stroke-linecap="round" stroke-linejoin="round" stroke-width="2" fill-rule="evenodd"/>
    <path id="Path_1111" data-name="Path 1111" d="M158.033-236.6l13.937,7.338,13.27-6.317,8.345-15.954,7.127,1.7-8.435,18.49-24.848,14-10.04,13.236c-13.39-.12-3.512-9.266-4.554-16.486Z" transform="translate(-90.699 306.709)" fill="#fff" stroke="#000" stroke-linecap="round" stroke-linejoin="round" stroke-width="2" fill-rule="evenodd"/>
    <path id="Path_1112" data-name="Path 1112" d="M59.992-240.915l21.731-5.119,2.956-16.55-11.426-5.974,3.534-5.145,15.885,9.236-9.932,30.585L84.794-217.4c-6.477-.534-14.042-2.454-20.751-9.53l-1.527-4.612-9.409,11.755L33.371-230.243l4.133-7.076,13.925,8.176Z" transform="translate(-20.606 319.998)" fill="#fff" stroke="#000" stroke-linecap="round" stroke-linejoin="round" stroke-width="2" fill-rule="evenodd"/>
    <path id="Path_1113" data-name="Path 1113" d="M53.071-337.169,47.8-334.8,46.722-337l2-1.746-4.344-1.575s1.694-5.837,4.237-4.745A36.748,36.748,0,0,1,54.96-340.9Z" transform="translate(-27.207 362.859)" fill="none" stroke="#000" stroke-linecap="round" stroke-linejoin="round" stroke-width="2"/>
    <path id="Path_1114" data-name="Path 1114" d="M20.567-188.082l-.423-5.761-2.452.1-.58,2.594-3.455-3.068s-4.325,4.271-2.153,5.987a36.781,36.781,0,0,0,6.686,3.587Z" transform="translate(-7.132 272.35)" fill="none" stroke="#000" stroke-linecap="round" stroke-linejoin="round" stroke-width="2"/>
    <path id="Path_1115" data-name="Path 1115" d="M118.386-279.46l-5.424,1.986-.92-2.275,2.126-1.6-4.218-1.885s2.112-5.7,4.57-4.427a36.779,36.779,0,0,1,6.021,4.617Z" transform="translate(-66.512 328.474)" fill="#fff" stroke="#000" stroke-linecap="round" stroke-linejoin="round" stroke-width="2" fill-rule="evenodd"/>
    <path id="Path_1116" data-name="Path 1116" d="M261.4-270.477l-3.165-4.832,2.006-1.412,2.038,1.707.878-4.536s6.03.763,5.348,3.446a36.765,36.765,0,0,1-3.129,6.912Z" transform="translate(-155.403 323.503)" fill="#fff" stroke="#000" stroke-linecap="round" stroke-linejoin="round" stroke-width="2" fill-rule="evenodd"/>
    <path id="Path_1117" data-name="Path 1117" d="M268.882-92.782l3.2-4.81,2.087,1.29-.769,2.545,4.516-.976s1.669,5.845-1.066,6.272a36.763,36.763,0,0,1-7.586-.16Z" transform="translate(-161.788 214.425)" fill="#fff" stroke="#000" stroke-linecap="round" stroke-linejoin="round" stroke-width="2" fill-rule="evenodd"/>
    <path id="Path_1118" data-name="Path 1118" d="M312.548-213.089l3.934,4.23,1.851-1.61-1.17-2.387,4.615.233s.7-6.037-2.065-6.018a36.761,36.761,0,0,0-7.46,1.384Z" transform="translate(-187.787 286.99)" fill="#fff" stroke="#000" stroke-linecap="round" stroke-linejoin="round" stroke-width="2" fill-rule="evenodd"/>
  </g>
</svg>
