<?xml version="1.0" encoding="UTF-8" standalone="no"?><!DOCTYPE svg PUBLIC "-//W3C//DTD SVG 1.1//EN" "http://www.w3.org/Graphics/SVG/1.1/DTD/svg11.dtd"><svg width="100%" height="100%" viewBox="0 0 2153 3157" version="1.1" xmlns="http://www.w3.org/2000/svg" xmlns:xlink="http://www.w3.org/1999/xlink" xml:space="preserve" xmlns:serif="http://www.serif.com/" style="fill-rule:evenodd;clip-rule:evenodd;stroke-linecap:round;stroke-linejoin:round;"><g id="Group_211"><path id="Path_1111" d="M206.763,1407.29l136.483,71.854l129.95,-61.859l81.725,-156.25l69.787,16.617l-82.604,181.063l-243.333,137.146l-98.333,129.62l-44.584,-161.441l50.909,-156.75Z" style="fill:none;stroke:#fff;stroke-width:8.33px;"/><path id="Path_1116" d="M585.354,1240.03l-31,-47.313l19.646,-13.829l19.954,16.721l8.604,-44.425c0,0 59.054,7.467 52.375,33.75c-6.679,26.284 -30.646,67.688 -30.646,67.688l-38.933,-12.592Z" style="fill:none;stroke:#fff;stroke-width:8.33px;"/><path id="Path_1107" d="M549.553,2683.11c-1.471,35.357 -31.758,63.249 -67.116,61.81c-35.356,-1.472 -63.249,-31.756 -61.813,-67.114c1.472,-35.358 31.76,-63.251 67.119,-61.812c35.356,1.473 63.247,31.759 61.81,67.116Z" style="fill:none;stroke:#fff;stroke-width:8.34px;"/><path id="Path_1110" d="M390.947,2592.25l-8.307,201.895l137.067,66.076l79.893,-85.043l36.244,43.332l-119.192,115.973l-236.089,-129.632l-116.76,36.908c20.429,-55.151 -50.475,-149.188 2.312,-188.808l136.967,-61.528l-16.196,-113.624l149.66,-170.017l51.614,53.264l-115.603,124.933l18.39,106.271Z" style="fill:none;stroke:#fff;stroke-width:8.34px;"/><path id="Path_1117" d="M617.438,2767.64l-3.076,-52.191l22.111,-2.046l8.295,22.585l27.333,-31.648c0,0 43.899,33.155 26.458,51.145c-17.442,17.989 -55.705,40.153 -55.705,40.153l-25.416,-27.998Z" style="fill:none;stroke:#fff;stroke-width:8.34px;"/><path id="Path_1118" d="M485.128,2326.29l51.471,9.152l4.601,-21.733l-21.46,-10.882l34.627,-23.449c0,0 -27.799,-47.466 -47.702,-32.251c-19.903,15.215 -46.407,50.622 -46.407,50.622l24.87,28.541Z" style="fill:none;stroke:#fff;stroke-width:8.34px;"/><path id="Path_1272" d="M1998.88,2597.63l-405.297,-108.612l-108.592,405.305l405.28,108.573l108.609,-405.266Z" style="fill-opacity:0;fill-rule:nonzero;stroke:#fff;stroke-width:8.33px;"/><path id="Path_1282" d="M1543.2,1655.18l-73.727,-15.661l-15.658,73.724l73.721,15.661l15.664,-73.724Z" style="fill-opacity:0;fill-rule:nonzero;stroke:#fff;stroke-width:8.34px;"/><path id="Path_1270" d="M176.65,1142.74l264.975,-473.75l45.104,361.17l264.979,-577.875l73.292,443.038l451.483,-889.721" style="fill-opacity:0;fill-rule:nonzero;stroke:#fff;stroke-width:8.33px;"/><path id="Path_1271" d="M65.879,989.85l366.696,-380.971l183.333,380.971l275.038,-634.95l128.333,29.633l629.709,-349.291" style="fill-opacity:0;fill-rule:nonzero;stroke:#f63d37;stroke-width:8.33px;"/><path id="Path_1026" d="M1118.24,1132.82l-34.12,83.075l68.483,58.125l-89.583,-6.775l-34.113,83.087l-21.25,-87.271l-89.583,-6.771l76.441,-47.166l-21.25,-87.271l68.475,58.117l76.5,-47.15Z" style="fill-opacity:0;fill-rule:nonzero;stroke:#fff;stroke-width:8.33px;"/><path id="Path_1278" d="M1152.59,1878.26c98.129,0.039 178.866,80.771 178.912,178.9c-0.048,98.128 -80.785,178.857 -178.912,178.896c-98.118,-0.052 -178.84,-80.778 -178.888,-178.896c0.046,-98.119 80.768,-178.847 178.888,-178.9Z" style="fill-opacity:0;fill-rule:nonzero;stroke:#f63d37;stroke-width:8.33px;"/><g id="Group_102"><path id="Path_1283" d="M1572.2,1147.22l-0,270.075" style="fill:none;fill-rule:nonzero;stroke:#fff;stroke-width:8.33px;"/><path id="Path_1284" d="M1510.64,1147.22l-0,270.075" style="fill:none;fill-rule:nonzero;stroke:#fff;stroke-width:8.33px;"/><path id="Path_1285" d="M1449.08,1147.22l0,270.075" style="fill:none;fill-rule:nonzero;stroke:#fff;stroke-width:8.33px;"/></g></g></svg>