<svg xmlns="http://www.w3.org/2000/svg" width="133.058" height="147.048" viewBox="0 0 133.058 147.048">
  <g id="Group_71" data-name="Group 71" transform="translate(1 1.332)">
    <path id="Path_1119" data-name="Path 1119" d="M64.855-196.552,92.7-254.84l4.74,44.435,27.846-71.1,7.7,54.507,38.51-81.168" transform="translate(-40.773 308.162)" fill="none" stroke="#000" stroke-linecap="round" stroke-linejoin="round" stroke-width="2"/>
    <path id="Path_1120" data-name="Path 1120" d="M110.387-174.1s-5.236-57.85-17.954-72.963c-23.317,5.493-36.489,11.268-56.3,16.863C50.9-204.979,59.8-180.625,59.96-157.556,84.052-156.411,101.331-161.494,110.387-174.1Z" transform="translate(-26.226 277.211)" fill="#fff" stroke="#000" stroke-linecap="round" stroke-linejoin="round" stroke-width="2" fill-rule="evenodd"/>
    <path id="Path_1121" data-name="Path 1121" d="M55.653-296.964l-11.2-11.2-11.2,11.2,11.2,11.2Z" transform="translate(-24.768 308.162)" fill="none" stroke="#000" stroke-linecap="round" stroke-linejoin="round" stroke-width="2"/>
    <path id="Path_1122" data-name="Path 1122" d="M217.124-110.254a7.292,7.292,0,0,1,7.289,7.288,7.292,7.292,0,0,1-7.289,7.288,7.292,7.292,0,0,1-7.289-7.288A7.292,7.292,0,0,1,217.124-110.254Z" transform="translate(-114.209 207.917)" fill="#f53c37" stroke="#000" stroke-linecap="round" stroke-linejoin="round" stroke-width="2" fill-rule="evenodd"/>
    <path id="Path_1123" data-name="Path 1123" d="M131.553-296.983h28.074" transform="translate(-74.557 302.5)" fill="none" stroke="#000" stroke-linecap="round" stroke-linejoin="round" stroke-width="2"/>
    <path id="Path_1124" data-name="Path 1124" d="M131.553-284.016h28.074" transform="translate(-74.557 295.931)" fill="none" stroke="#000" stroke-linecap="round" stroke-linejoin="round" stroke-width="2"/>
    <path id="Path_1125" data-name="Path 1125" d="M131.553-271.05h28.074" transform="translate(-74.557 289.364)" fill="none" stroke="#000" stroke-linecap="round" stroke-linejoin="round" stroke-width="2"/>
    <path id="Path_1126" data-name="Path 1126" d="M112.968-218.02,76.834-205.866" transform="translate(-46.841 262.503)" fill="none" stroke="#000" stroke-linecap="round" stroke-linejoin="round" stroke-width="2"/>
    <path id="Path_1127" data-name="Path 1127" d="M119.619-194.326,83.485-182.173" transform="translate(-50.209 250.501)" fill="none" stroke="#000" stroke-linecap="round" stroke-linejoin="round" stroke-width="2"/>
    <path id="Path_1128" data-name="Path 1128" d="M126.477-171.88,90.343-159.726" transform="translate(-53.684 239.132)" fill="none" stroke="#000" stroke-linecap="round" stroke-linejoin="round" stroke-width="2"/>
    <path id="Path_1129" data-name="Path 1129" d="M132.5-146.939,96.371-134.785" transform="translate(-56.737 226.498)" fill="none" stroke="#000" stroke-linecap="round" stroke-linejoin="round" stroke-width="2"/>
    <path id="Path_1130" data-name="Path 1130" d="M62.827-194.088l-12.65-2.819L41.6-158.4l7.282-3.845,5.368,6.664Z" transform="translate(-28.992 251.809)" fill="#fff" stroke="#000" stroke-linecap="round" stroke-linejoin="round" stroke-width="2" fill-rule="evenodd"/>
    <path id="Path_1131" data-name="Path 1131" d="M70.173-193.353l-12.1,4.632,14.1,36.847,3.95-7.226,8.155,2.594Z" transform="translate(-37.335 250.008)" fill="#fff" stroke="#000" stroke-linecap="round" stroke-linejoin="round" stroke-width="2" fill-rule="evenodd"/>
    <path id="Path_1132" data-name="Path 1132" d="M53.2-242.49l8.206,2.023-1.237,5.018,3.427-3.869,6.326,5.6-3.427,3.868,4.833-1.833,3,7.9-4.833,1.832,5.131.623L73.6-212.93l-5.131-.623,4.253,2.936-4.8,6.955L63.672-206.6l2.4,4.576-7.483,3.928-2.4-4.576v5.168H47.737v-5.168l-2.4,4.576-7.483-3.928,2.4-4.576L36-203.662l-4.8-6.955,4.253-2.936-5.13.623L29.3-221.32l5.13-.623L29.6-223.775l3-7.9,4.832,1.833L34-233.714l6.326-5.6,3.427,3.869-1.237-5.018,8.206-2.023,1.237,5.018Z" transform="translate(-22.765 274.897)" fill="#f53c37" stroke="#000" stroke-linecap="round" stroke-linejoin="round" stroke-width="2" fill-rule="evenodd"/>
    <path id="Path_1133" data-name="Path 1133" d="M61.112-224.762a13.752,13.752,0,0,1,13.746,13.746,13.753,13.753,0,0,1-13.746,13.746,13.752,13.752,0,0,1-13.746-13.746A13.752,13.752,0,0,1,61.112-224.762Z" transform="translate(-31.914 265.918)" fill="#fff" stroke="#000" stroke-linecap="round" stroke-linejoin="round" stroke-width="2" fill-rule="evenodd"/>
    <g id="Group_71-2" data-name="Group 71" transform="translate(23.336 41.205)">
      <text id="_1" data-name="1" transform="translate(0 20)" font-size="21" font-family="CorporativeSlab-Bold, Corporative Slab" font-weight="700"><tspan x="0" y="0">1</tspan></text>
    </g>
    <path id="Path_1134" data-name="Path 1134" d="M135.9-95.587a3.22,3.22,0,0,1-.034-.334,17.8,17.8,0,0,1,.095-2.037,44.782,44.782,0,0,1,1.546-9.789.494.494,0,0,0-.319-.621.494.494,0,0,0-.62.319,45.775,45.775,0,0,0-1.589,10,13.46,13.46,0,0,0-.022,2.835c.113.489.426.675.681.674a1.931,1.931,0,0,0,1.688-1.361,20.311,20.311,0,0,0,.731-2.69,29.177,29.177,0,0,1,4.661-9.3,13.926,13.926,0,0,1,1.307-1.519,1.851,1.851,0,0,1,.806-.543c0,.021,0,.043,0,.062a2.068,2.068,0,0,1-.074.4,10.126,10.126,0,0,1-.513,1.322c-.929,2.423-2.006,4.749-3.112,7.135-.333.719-.569,1.432-.886,2.151-.04.092-.4,1.073-.453,1.256a.513.513,0,0,0,.308.62.473.473,0,0,0,.384-.023,3.165,3.165,0,0,0,1.19-1.438c.413-.827.723-1.823.949-2.25q.272-.515.553-1.031a.877.877,0,0,0,.007.118.641.641,0,0,0,.439.571,1.231,1.231,0,0,0,1.185-.334,7.452,7.452,0,0,0,1.236-1.784,45.9,45.9,0,0,1,2.557-3.97,11.331,11.331,0,0,0-.7,2.2c-.07.658.3.9.663.864a2.267,2.267,0,0,0,1.376-.926,10.921,10.921,0,0,0,1.129-1.794,1.141,1.141,0,0,0,.3-.158,6.417,6.417,0,0,0,.945-.985.762.762,0,0,0,.611.118,3.063,3.063,0,0,0,.556-.188,1.072,1.072,0,0,1,.308-.1,2.139,2.139,0,0,0,.844-.357c.612-.386,1.415-1.039,1.61-1.192a.493.493,0,0,0,.086-.692.494.494,0,0,0-.693-.086c-.186.146-.947.768-1.53,1.135a4.23,4.23,0,0,1-.39.208,1.82,1.82,0,0,0-.5.126l-.28.1c-.027-.088-.052-.168-.063-.192a.475.475,0,0,0-.439-.284.475.475,0,0,0-.366.15c-.053.054-.167.2-.313.38a.522.522,0,0,0-.089-.1.518.518,0,0,0-.7.028,3.45,3.45,0,0,0-.762,1.232.861.861,0,0,0-.008.4,11.968,11.968,0,0,1-.7,1.2,5.148,5.148,0,0,1-.455.586c.3-.973.9-2.334.988-2.558a6.666,6.666,0,0,0,.307-.984.723.723,0,0,0-.041-.41.5.5,0,0,0-.321-.279.547.547,0,0,0-.56.152,28.051,28.051,0,0,0-4.21,5.858,8.263,8.263,0,0,1-.863,1.37c-.025.029-.051.057-.077.084.052-.252.109-.521.123-.576a23.048,23.048,0,0,1,1.291-3.44c.456-.827.9-1.653,1.331-2.477a4.45,4.45,0,0,0,.262-.47c.068-.145.246-.521.269-.573a.511.511,0,0,0-.246-.653.514.514,0,0,0-.664.264q-.252.5-.515,1.011c-.217.345-.464.677-.636,1.022-.228.458-.46.941-.685,1.434l-.254.458-.022.04q.335-.807.649-1.625a8.594,8.594,0,0,0,.63-1.821,1.269,1.269,0,0,0-.215-1.026.9.9,0,0,0-.794-.283,2.2,2.2,0,0,0-1.117.531,12.5,12.5,0,0,0-1.723,1.9,30.165,30.165,0,0,0-4.826,9.6,19.324,19.324,0,0,1-.7,2.6A1.411,1.411,0,0,1,135.9-95.587Z" transform="translate(-76.24 208.263)" fill="#f53c37" fill-rule="evenodd"/>
    <path id="Path_1135" data-name="Path 1135" d="M40.707-71.971,36.779-61.357l8.88,7.016L34.351-54.8,30.423-44.183l-3.061-10.9-11.308-.456,9.417-6.278-3.061-10.9,8.88,7.016Z" transform="translate(-16.054 188.899)" fill="none" stroke="#000" stroke-linecap="round" stroke-linejoin="round" stroke-width="2"/>
  </g>
</svg>
