<?xml version="1.0" encoding="UTF-8" standalone="no"?><!DOCTYPE svg PUBLIC "-//W3C//DTD SVG 1.1//EN" "http://www.w3.org/Graphics/SVG/1.1/DTD/svg11.dtd"><svg width="100%" height="100%" viewBox="0 0 7775 13384" version="1.1" xmlns="http://www.w3.org/2000/svg" xmlns:xlink="http://www.w3.org/1999/xlink" xml:space="preserve" xmlns:serif="http://www.serif.com/" style="fill-rule:evenodd;clip-rule:evenodd;stroke-linecap:round;stroke-linejoin:round;"><g id="Group_212"><path id="Path_1279" d="M7745.92,5231.83l-620.634,-373.116l-1163.85,160.183l-97.758,364.796l1112.18,-92.913l390.496,246.959l-730.562,310.712l339.312,1088.18l341.779,-104.329l-317.375,-751.825l584.396,-142.25" style="fill:none;stroke:#fff;stroke-width:34.71px;"/><path id="Path_1280" d="M5783.46,5378.29l-99.45,-26.654l147.238,-549.375c54.55,14.616 87.412,71.533 72.796,126.083l-120.584,449.946Z" style="fill:#fff;stroke:#f63d37;stroke-width:34.71px;"/><path id="Path_1281" d="M7342.25,6916.12l30.475,98.325l-543.279,168.408c-16.721,-53.941 13.904,-112.087 67.846,-128.812l444.958,-137.921Z" style="fill:none;stroke:#fff;stroke-width:34.71px;"/><path id="Path_1095" d="M4859.17,9048.17c16.021,-115.163 123.9,-196.784 239.079,-180.888c115.158,16.029 196.775,123.904 180.887,239.079c-16.02,115.163 -123.9,196.788 -239.079,180.888c-115.162,-16.021 -196.783,-123.9 -180.887,-239.079Z" style="fill:none;stroke:#fff;stroke-width:34.71px;"/><path id="Path_1096" d="M5420.52,9453.13l-49.223,-131.251c-0,0 37.729,-466.908 37.729,-466.908l-20.425,-396.246l-378.817,-413.35l113.492,-185.975l298.833,357.446l366.013,622.996l220.225,25.462" style="fill:none;stroke:#fff;stroke-width:34.71px;"/><path id="Path_1113" d="M4984.58,7989.12l-140.271,99.158l-44.087,-58.125l48.608,-62.366l-135.754,-21.363c0,0 16.296,-180.029 96.779,-162.583c80.488,17.446 208.734,85.725 208.734,85.725l-34.009,119.554Z" style="fill:none;fill-rule:nonzero;stroke:#fff;stroke-width:34.71px;"/><path id="Path_1108" d="M6651.25,2072.05c148.404,-34.888 299.246,58.433 334.271,206.804c34.879,148.4 -58.442,299.238 -206.804,334.271c-148.404,34.879 -299.238,-58.442 -334.271,-206.804c-34.888,-148.404 58.433,-299.246 206.804,-334.271Z" style="fill:none;stroke:#fff;stroke-width:34.71px;"/><path id="Path_1112" d="M6458.12,2835.35l847.308,-199.65l115.259,-645.313l-445.484,-232.916l137.792,-200.609l619.358,360.105l-387.275,1192.52l429.046,717.379l-394.179,883.421l-823.458,-1509.33l-366.875,458.333l-769.48,-407.862l161.163,-275.904l542.933,318.783l333.892,-458.958Z" style="fill:none;stroke:#fff;stroke-width:34.71px;"/><path id="Path_1114" d="M5446.25,3037.53l-16.496,-224.616l-95.587,3.821l-22.571,101.145l-134.742,-119.654c0,0 -168.625,166.529 -83.937,233.438c84.687,66.908 260.691,139.841 260.691,139.841l92.642,-133.975Z" style="fill:none;fill-rule:nonzero;stroke:#fff;stroke-width:34.71px;"/><path id="Path_1115" d="M6945.08,1662.95l-211.475,77.45l-35.866,-88.7l82.879,-62.254l-164.479,-73.508c-0,-0 82.329,-222.221 178.179,-172.605c95.85,49.617 234.775,180.017 234.775,180.017l-84.013,139.6Z" style="fill:none;stroke:#fff;stroke-width:34.71px;"/><g id="Group_96"><path id="Path_1017" d="M4541.46,2198.37c-36.904,232.217 -258.229,393.017 -490.483,356.358c-232.221,-36.896 -393.029,-258.225 -356.358,-490.483c36.846,-232.271 258.204,-393.146 490.504,-356.475c232.254,36.921 393.058,258.312 356.337,490.6Z" style="fill-opacity:0;fill-rule:nonzero;stroke:#f63d37;stroke-width:34.71px;"/><path id="Path_1018" d="M3779.15,2393.68l-506.179,367.775" style="fill:none;fill-rule:nonzero;stroke:#f63d37;stroke-width:34.71px;"/></g><path id="Path_1019" d="M7102.21,9603.17l-915.866,-915.867l-915.867,915.867l915.867,915.904l915.866,-915.904Z" style="fill:none;fill-rule:nonzero;stroke:#fff;stroke-width:34.71px;"/><path id="Path_1275" d="M5101.79,209.292l-307.196,-65.255l-65.242,307.184l307.171,65.254l65.267,-307.183Z" style="fill-opacity:0;fill-rule:nonzero;stroke:#fff;stroke-width:34.75px;"/><path id="Path_1277" d="M961.633,10407.3l1287.55,-1375.75l670.242,1675.59l916.896,-722.829l1516.91,1799.05l2398.99,-6667.38" style="fill-opacity:0;fill-rule:nonzero;stroke:#fff;stroke-width:34.71px;"/><path id="Path_1276" d="M23.038,13357.6l2490.77,-5384.29l529.129,2151.81l1111.11,-2151.81l1040.62,2910.23l1940.23,-6173.21" style="fill-opacity:0;fill-rule:nonzero;stroke:#f63d37;stroke-width:34.71px;"/><path id="Path_1274" d="M4552.29,7047.04l-172.413,41.987l-13.354,176.958l-93.204,-151.004l-172.408,41.984l114.804,-135.3l-93.204,-151.005l164.191,67.405l114.804,-135.304l-13.345,176.933l164.129,67.346Z" style="fill:none;fill-rule:nonzero;stroke:#fff;stroke-width:34.71px;"/><path id="Path_1273" d="M3143.94,5845.62c151.433,0 276.041,124.608 276.041,276.042c0,151.433 -124.608,276.041 -276.041,276.041c-151.434,0 -276.042,-124.608 -276.042,-276.041c0,-151.434 124.608,-276.042 276.042,-276.042Z" style="fill-opacity:0;fill-rule:nonzero;stroke:#f63d37;stroke-width:34.71px;"/><g id="Group_103"><path id="Path_1283" d="M4056.28,4203.38l0,506.942" style="fill:none;fill-rule:nonzero;stroke:#fff;stroke-width:34.71px;"/><path id="Path_1284" d="M3940.76,4203.38l-0,506.942" style="fill:none;fill-rule:nonzero;stroke:#fff;stroke-width:34.71px;"/><path id="Path_1285" d="M3825.22,4203.38l0,506.942" style="fill:none;fill-rule:nonzero;stroke:#fff;stroke-width:34.71px;"/></g></g></svg>