<svg xmlns="http://www.w3.org/2000/svg" width="516.697" height="757.668" viewBox="0 0 516.697 757.668">
  <g id="Group_211" data-name="Group 211" transform="translate(-1468.604 -88.467)">
    <path id="Path_1111" data-name="Path 1111" d="M168.479-216.439l32.756,17.245,31.188-14.846,19.614-37.5,16.749,3.988-19.825,43.455-58.4,32.915-23.6,31.109c-31.47-.282-8.254-21.778-10.7-38.746Z" transform="translate(1349.748 642.656)" fill="#fff" stroke="#000" stroke-linecap="round" stroke-linejoin="round" stroke-width="2" fill-rule="evenodd"/>
    <path id="Path_1116" data-name="Path 1116" d="M265.671-258.227l-7.44-11.355,4.715-3.319,4.789,4.013L269.8-279.55s14.173,1.792,12.57,8.1-7.355,16.245-7.355,16.245Z" transform="translate(1343.418 644.3)" fill="#fff" stroke="#000" stroke-linecap="round" stroke-linejoin="round" stroke-width="2" fill-rule="evenodd"/>
    <g id="Group_97" data-name="Group 97" transform="translate(0.737 34.083)">
      <path id="Path_1107" data-name="Path 1107" d="M263.846-119.266a15.485,15.485,0,0,1-21.783,2.154,15.486,15.486,0,0,1-2.155-21.783,15.486,15.486,0,0,1,21.784-2.154A15.486,15.486,0,0,1,263.846-119.266Z" transform="matrix(0.799, -0.602, 0.602, 0.799, 1460.745, 952.458)" fill="#fff" stroke="#000" stroke-linecap="round" stroke-linejoin="round" stroke-width="2" fill-rule="evenodd"/>
      <path id="Path_1110" data-name="Path 1110" d="M236.178-169,205.44-131.515l16.724,32.448,27.585-4.761.689,13.535-39.58,5.014L184.336-144.2l-27.7-9.784c11.876-7.618,11.866-35.872,27.7-35.843l35.126,7.984,13.3-24.109,53.22-10.971,2.2,17.657-40.186,7.249Z" transform="matrix(0.799, -0.602, 0.602, 0.799, 1474.726, 953.734)" fill="#fff" stroke="#000" stroke-linecap="round" stroke-linejoin="round" stroke-width="2" fill-rule="evenodd"/>
      <path id="Path_1117" data-name="Path 1117" d="M268.882-87.149l6.945-10.444,4.532,2.8-1.671,5.525,9.806-2.118s3.625,12.69-2.314,13.619-16.47-.348-16.47-.348Z" transform="matrix(0.799, -0.602, 0.602, 0.799, 1453.679, 950.117)" fill="#fff" stroke="#000" stroke-linecap="round" stroke-linejoin="round" stroke-width="2" fill-rule="evenodd"/>
      <path id="Path_1118" data-name="Path 1118" d="M312.895-206.587l8.541,9.184,4.019-3.5-2.541-5.183,10.02.506s1.526-13.108-4.484-13.066-16.2,3-16.2,3Z" transform="matrix(0.799, -0.602, 0.602, 0.799, 1458.66, 966.12)" fill="#fff" stroke="#000" stroke-linecap="round" stroke-linejoin="round" stroke-width="2" fill-rule="evenodd"/>
    </g>
    <path id="Path_1272" data-name="Path 1272" d="M197.769-7,126.563-78.21,55.356-7,126.563,64.2Z" transform="translate(1780.561 816.845) rotate(-30)" fill="rgba(0,0,0,0)" stroke="#000" stroke-linecap="round" stroke-linejoin="round" stroke-width="2"/>
    <path id="Path_1282" data-name="Path 1282" d="M80.925-65.425,68.14-78.21,55.356-65.425,68.14-52.641Z" transform="matrix(0.839, -0.545, 0.545, 0.839, 1806.732, 584.706)" fill="rgba(0,0,0,0)" stroke="#000" stroke-linecap="round" stroke-linejoin="round" stroke-width="2"/>
    <path id="Path_1270" data-name="Path 1270" d="M333.322-215.2l63.594-113.7,10.825,86.681,63.595-138.69,17.59,106.329L597.282-488.113" transform="translate(1177.678 577.925)" fill="rgba(0,0,0,0)" stroke="#000" stroke-linecap="round" stroke-linejoin="round" stroke-width="2"/>
    <path id="Path_1271" data-name="Path 1271" d="M283.284-269.894l88.007-91.433,44,91.433L481.3-422.282l30.8,7.112L663.23-499" transform="translate(1201.131 595.925)" fill="rgba(0,0,0,0)" stroke="#f63d37" stroke-linecap="round" stroke-linejoin="round" stroke-width="2"/>
    <path id="Path_1026" data-name="Path 1026" d="M360.421-363.538,352.232-343.6l16.436,13.95-21.5-1.626-8.187,19.941-5.1-20.945-21.5-1.625,18.346-11.32-5.1-20.945,16.434,13.948Z" transform="translate(1376.56 723.881)" fill="rgba(0,0,0,0)" stroke="#000" stroke-linecap="round" stroke-linejoin="round" stroke-width="2"/>
    <path id="Path_1278" data-name="Path 1278" d="M484.5-46.884A42.956,42.956,0,0,1,527.439-3.948,42.956,42.956,0,0,1,484.5,38.987,42.956,42.956,0,0,1,441.567-3.948,42.956,42.956,0,0,1,484.5-46.884Z" transform="translate(1260.726 586.133)" fill="rgba(0,0,0,0)" stroke="#f63d37" stroke-linecap="round" stroke-linejoin="round" stroke-width="2"/>
    <g id="Group_102" data-name="Group 102" transform="translate(173.481 -127.558)">
      <path id="Path_1283" data-name="Path 1283" d="M0,0H64.818" transform="translate(1672.45 491.357) rotate(90)" fill="rgba(0,0,0,0)" stroke="#000" stroke-linecap="round" stroke-linejoin="round" stroke-width="2"/>
      <path id="Path_1284" data-name="Path 1284" d="M0,0H64.818" transform="translate(1657.677 491.357) rotate(90)" fill="rgba(0,0,0,0)" stroke="#000" stroke-linecap="round" stroke-linejoin="round" stroke-width="2"/>
      <path id="Path_1285" data-name="Path 1285" d="M0,0H64.818" transform="translate(1642.903 491.357) rotate(90)" fill="rgba(0,0,0,0)" stroke="#000" stroke-linecap="round" stroke-linejoin="round" stroke-width="2"/>
    </g>
  </g>
</svg>
