<svg xmlns="http://www.w3.org/2000/svg" width="447.808" height="770.724" viewBox="0 0 447.808 770.724">
  <g id="Group_212" data-name="Group 212" transform="translate(93.892 -182.23)">
    <g id="Group_101" data-name="Group 101" transform="translate(-15.315 900.831) rotate(-131)">
      <path id="Path_1279" data-name="Path 1279" d="M188.627-267.45,228.3-280.33l37.017-56.647-12.164-18.035-37.989,51.859-25.492,7.643,14.1-43.5-60.127-26.371-8.38,18.8,44.676,14.614-15.9,30.78" transform="translate(-72.725 770.11)" fill="#fff" stroke="#000" stroke-linecap="round" stroke-linejoin="round" stroke-width="2" fill-rule="evenodd"/>
      <path id="Path_1280" data-name="Path 1280" d="M281.352-357.52l4.917-3.316,18.318,27.161h0a5.93,5.93,0,0,1-8.232-1.6Z" transform="translate(-97.656 769.335)" fill="#fff" stroke="#f63d37" stroke-linecap="round" stroke-linejoin="round" stroke-width="2" fill-rule="evenodd"/>
      <path id="Path_1281" data-name="Path 1281" d="M128.6-351.862l-5.426-2.391,13.209-29.981h0a5.93,5.93,0,0,1,3.036,7.817Z" transform="translate(-70.661 773.327)" fill="#fff" stroke="#000" stroke-linecap="round" stroke-linejoin="round" stroke-width="2" fill-rule="evenodd"/>
    </g>
    <g id="Group_100" data-name="Group 100" transform="translate(-1518.587 482.09) rotate(-11)">
      <path id="Path_1095" data-name="Path 1095" d="M38.47-243.665a12.217,12.217,0,0,1,15.506-7.6,12.218,12.218,0,0,1,7.6,15.506,12.217,12.217,0,0,1-15.506,7.6A12.217,12.217,0,0,1,38.47-243.665Z" transform="translate(1592.566 786.162)" fill="#fff" stroke="#000" stroke-linecap="round" stroke-linejoin="round" stroke-width="2" fill-rule="evenodd"/>
      <path id="Path_1096" data-name="Path 1096" d="M73.659-248.2l7.265-25.985,3.2-22.629L67.248-324.349l8.461-9.268,12.968,23.495,13.848,39.248,25.785,12.043c2.587,6-14.253,9.221-25.967,13.569L81.411-218.175Z" transform="translate(1583.326 811.803)" fill="#fff" stroke="#000" stroke-linecap="round" stroke-linejoin="round" stroke-width="2" fill-rule="evenodd"/>
      <path id="Path_1113" data-name="Path 1113" d="M59.265-331.443l-9.021,4.065-1.854-3.771,3.434-2.992-7.441-2.7s2.9-10,7.259-8.129,10.86,7.141,10.86,7.141Z" transform="translate(1590.503 815.439)" fill="none" stroke="#000" stroke-linecap="round" stroke-linejoin="round" stroke-width="2"/>
    </g>
    <g id="Group_99" data-name="Group 99" transform="translate(-1484.863 -237)">
      <path id="Path_1108" data-name="Path 1108" d="M110.822-240.766a16.017,16.017,0,0,1,19.254,11.912A16.018,16.018,0,0,1,118.164-209.6,16.018,16.018,0,0,1,98.91-221.512,16.017,16.017,0,0,1,110.822-240.766Z" transform="translate(1624.557 779.346)" fill="#fff" stroke="#000" stroke-linecap="round" stroke-linejoin="round" stroke-width="2" fill-rule="evenodd"/>
      <path id="Path_1112" data-name="Path 1112" d="M93.159-200.066l48.805-11.5,6.639-37.17-25.66-13.416,7.937-11.555,35.675,20.742-22.307,68.689,4.612,37.025c-14.545-1.2,8.172,59.243-6.9,43.351L98.825-179.007l-21.132,26.4L33.371-176.1l9.283-15.892,31.273,18.362Z" transform="translate(1631.098 782.612)" fill="#fff" stroke="#000" stroke-linecap="round" stroke-linejoin="round" stroke-width="2" fill-rule="evenodd"/>
      <path id="Path_1114" data-name="Path 1114" d="M32.617-180.435l-.95-12.938-5.506.22-1.3,5.826L17.1-194.219s-9.713,9.592-4.835,13.446,15.016,8.055,15.016,8.055Z" transform="translate(1633.356 774.627)" fill="none" stroke="#000" stroke-linecap="round" stroke-linejoin="round" stroke-width="2"/>
      <path id="Path_1115" data-name="Path 1115" d="M128.9-269.017l-12.181,4.461-2.066-5.109,4.774-3.586-9.474-4.234s4.742-12.8,10.263-9.942,13.523,10.369,13.523,10.369Z" transform="translate(1623.404 784.033)" fill="#fff" stroke="#000" stroke-linecap="round" stroke-linejoin="round" stroke-width="2" fill-rule="evenodd"/>
    </g>
    <g id="Group_96" data-name="Group 96" transform="translate(1058.981 -1282.228) rotate(99)">
      <path id="Path_1017" data-name="Path 1017" d="M269.457-264.665a24.706,24.706,0,0,1,24.693,24.693,24.705,24.705,0,0,1-24.693,24.693,24.706,24.706,0,0,1-24.7-24.693A24.707,24.707,0,0,1,269.457-264.665Z" transform="translate(1441.466 896.076)" fill="rgba(0,0,0,0)" stroke="#f63d37" stroke-linecap="round" stroke-linejoin="round" stroke-width="2"/>
      <path id="Path_1018" data-name="Path 1018" d="M252.153-257.456l25.484,25.483" transform="translate(1476.75 930.476)" fill="rgba(0,0,0,0)" stroke="#f63d37" stroke-linecap="round" stroke-linejoin="round" stroke-width="2"/>
    </g>
    <path id="Path_1019" data-name="Path 1019" d="M160.864-25.456,108.11-78.21,55.356-25.456,108.11,27.3Z" transform="translate(154.332 760.828)" fill="#fff" stroke="#000" stroke-linecap="round" stroke-linejoin="round" stroke-width="2"/>
    <path id="Path_1275" data-name="Path 1275" d="M80.925-65.425,68.14-78.21,55.356-65.425,68.14-52.641Z" transform="matrix(0.839, -0.545, 0.545, 0.839, 167.731, 293.281)" fill="rgba(0,0,0,0)" stroke="#000" stroke-linecap="round" stroke-linejoin="round" stroke-width="2"/>
    <path id="Path_1277" data-name="Path 1277" d="M360.8-305.811l74.163-79.243,38.606,96.514,52.813-41.635L613.756-226.55,751.938-610.591" transform="translate(-399.302 1087.5)" fill="rgba(0,0,0,0)" stroke="#000" stroke-linecap="round" stroke-linejoin="round" stroke-width="2"/>
    <path id="Path_1276" data-name="Path 1276" d="M283.284-153.874,426.752-464.01,457.23-340.066l64-123.944,59.94,167.629L692.927-651.958" transform="translate(-375.849 1105.5)" fill="rgba(0,0,0,0)" stroke="#f63d37" stroke-linecap="round" stroke-linejoin="round" stroke-width="2"/>
    <path id="Path_1274" data-name="Path 1274" d="M335.163-364.92l-3.882,9.454,7.792,6.614-10.191-.771L325-340.169l-2.416-9.93-10.191-.771,8.7-5.367-2.416-9.93,7.791,6.613Z" transform="matrix(0.588, 0.809, -0.809, 0.588, -323.976, 531.565)" fill="rgba(0,0,0,0)" stroke="#000" stroke-linecap="round" stroke-linejoin="round" stroke-width="2"/>
    <path id="Path_1273" data-name="Path 1273" d="M457.464-46.884a15.9,15.9,0,0,1,15.9,15.9,15.9,15.9,0,0,1-15.9,15.9,15.9,15.9,0,0,1-15.9-15.9A15.9,15.9,0,0,1,457.464-46.884Z" transform="translate(-370.265 565.823)" fill="rgba(0,0,0,0)" stroke="#f63d37" stroke-linecap="round" stroke-linejoin="round" stroke-width="2"/>
    <g id="Group_103" data-name="Group 103" transform="translate(-1516.462 -67.012)">
      <path id="Path_1283" data-name="Path 1283" d="M0,0H29.2" transform="translate(1656.212 491.357) rotate(90)" fill="rgba(0,0,0,0)" stroke="#000" stroke-linecap="round" stroke-linejoin="round" stroke-width="2"/>
      <path id="Path_1284" data-name="Path 1284" d="M0,0H29.2" transform="translate(1649.558 491.357) rotate(90)" fill="rgba(0,0,0,0)" stroke="#000" stroke-linecap="round" stroke-linejoin="round" stroke-width="2"/>
      <path id="Path_1285" data-name="Path 1285" d="M0,0H29.2" transform="translate(1642.903 491.357) rotate(90)" fill="rgba(0,0,0,0)" stroke="#000" stroke-linecap="round" stroke-linejoin="round" stroke-width="2"/>
    </g>
  </g>
</svg>
