<?xml version="1.0" encoding="UTF-8" standalone="no"?><!DOCTYPE svg PUBLIC "-//W3C//DTD SVG 1.1//EN" "http://www.w3.org/Graphics/SVG/1.1/DTD/svg11.dtd"><svg width="100%" height="100%" viewBox="0 0 5896 4449" version="1.1" xmlns="http://www.w3.org/2000/svg" xmlns:xlink="http://www.w3.org/1999/xlink" xml:space="preserve" xmlns:serif="http://www.serif.com/" style="fill-rule:evenodd;clip-rule:evenodd;stroke-linecap:round;stroke-linejoin:round;"><g id="Group_217"><path id="Path_1518" d="M2053.9,4441.41l649.36,-868.203l418.846,-911.791l1660.26,-2653.92" style="fill:none;fill-rule:nonzero;stroke:#fff;stroke-width:8.33px;"/><path id="Path_1182" d="M3619.27,1806.91c490.987,0 889.608,398.617 889.608,889.584c0,490.966 -398.621,889.62 -889.608,889.62c-490.988,0 -889.621,-398.616 -889.621,-889.604c-0,-490.987 398.637,-889.6 889.621,-889.6Z" style="fill:none;fill-rule:nonzero;stroke:#fff;stroke-width:12.5px;stroke-dasharray:37.5,62.5,0,0;"/><path id="Path_1517" d="M442.538,4352.51l1689.13,-1337.67l347.057,-724.157l2163.15,-1701.78" style="fill:none;fill-rule:nonzero;stroke:#f53c37;stroke-width:16.67px;stroke-linecap:butt;"/><path id="Path_1495" d="M3234.76,2847.89l0,70.654l-584.083,-0l0,70.508l1370.75,0l0,-70.508l-584.071,-0l0,-70.654l812.029,-0l0,-1268.12l-1826.67,-0l-0,1268.12l812.041,-0Z" style="fill:#fff;stroke:#fff;stroke-width:12.5px;"/><rect id="Path_1496" x="2481.68" y="1637.23" width="1708.75" height="1153.19" style="fill:#fff;stroke:#000;stroke-width:12.5px;"/><path id="Path_1497" d="M4627.83,1563.27l-224.366,892.512l-448.263,249.559l-997.917,-0" style="fill:none;fill-rule:nonzero;stroke:#fff;stroke-width:12.5px;"/><path id="Path_1498" d="M2694.96,3149.01l875.325,-637.683l464.434,-148.646l281.062,-1062.78" style="fill:none;fill-rule:nonzero;stroke:#f53c37;stroke-width:36.12px;stroke-linecap:butt;"/><path id="Path_1499" d="M3486.32,1407.83l45.587,-68.371l45.579,68.371l-91.166,0Z" style="fill:#fff;fill-rule:nonzero;stroke:#000;stroke-width:15.91px;stroke-linecap:butt;stroke-linejoin:miter;stroke-miterlimit:10;"/><path id="Path_1500" d="M3531.91,2419.28l0,-1011.45" style="fill:none;fill-rule:nonzero;stroke:#000;stroke-width:15.91px;stroke-linecap:butt;stroke-miterlimit:10;"/><path id="Path_15001" serif:id="Path_1500" d="M3531.91,1573.57l0,-158.085" style="fill:none;fill-rule:nonzero;stroke:#fff;stroke-width:15.81px;stroke-linecap:butt;stroke-miterlimit:10;"/><path id="Path_1501" d="M3279.35,1832.36l74.529,-111.8l74.529,111.8l-149.058,-0Z" style="fill:none;fill-rule:nonzero;stroke:#f53c37;stroke-width:26.02px;stroke-linecap:butt;stroke-linejoin:miter;stroke-miterlimit:10;"/><path id="Path_1502" d="M3353.88,2520.68l0,-688.333" style="fill:none;fill-rule:nonzero;stroke:#f53c37;stroke-width:26.02px;stroke-linecap:butt;stroke-miterlimit:10;"/><path id="Path_1503" d="M3126.44,2029.53l45.579,-68.379l45.579,68.379l-91.158,0Z" style="fill:none;fill-rule:nonzero;stroke:#f53c37;stroke-width:15.91px;stroke-linecap:butt;stroke-linejoin:miter;stroke-miterlimit:10;"/><path id="Path_1504" d="M3172.02,2622.1l-0,-592.579" style="fill:none;fill-rule:nonzero;stroke:#f53c37;stroke-width:15.91px;stroke-linecap:butt;stroke-miterlimit:10;"/><path id="Path_1505" d="M1765,1576.26l345.054,0" style="fill:none;fill-rule:nonzero;stroke:#f53c37;stroke-width:15.91px;stroke-linecap:butt;stroke-miterlimit:10;"/><path id="Path_1506" d="M1905.99,1503.95l345.055,0" style="fill:none;fill-rule:nonzero;stroke:#f53c37;stroke-width:15.91px;stroke-linecap:butt;stroke-miterlimit:10;"/><path id="Path_1507" d="M1899.72,1634.9l345.062,-0" style="fill:none;fill-rule:nonzero;stroke:#f53c37;stroke-width:15.91px;stroke-linecap:butt;stroke-miterlimit:10;"/><path id="Path_1508" d="M1633.34,1528.69l200.454,-0" style="fill:none;fill-rule:nonzero;stroke:#f53c37;stroke-width:15.91px;stroke-linecap:butt;stroke-miterlimit:10;"/><rect id="Path_1509" x="2584.03" y="1731.29" width="373.275" height="67.746" style="fill:#fff;stroke:#000;stroke-width:12.5px;stroke-linecap:butt;stroke-miterlimit:10;"/><rect id="Path_1510" x="2584.03" y="1898.86" width="373.275" height="67.733" style="fill:#fff;stroke:#000;stroke-width:12.5px;stroke-linecap:butt;stroke-miterlimit:10;"/><rect id="Path_1511" x="2584.03" y="2066.43" width="373.275" height="67.733" style="fill:#fff;stroke:#000;stroke-width:12.5px;stroke-linecap:butt;stroke-miterlimit:10;"/><rect id="Path_1512" x="2584.03" y="2233.98" width="373.275" height="67.733" style="fill:#fff;stroke:#000;stroke-width:12.5px;stroke-linecap:butt;stroke-miterlimit:10;"/><path id="Path_1513" d="M2457.33,1401.98c88.466,0.041 161.25,72.822 161.296,161.288c-0.041,88.469 -72.827,161.255 -161.296,161.296c-88.47,-0.039 -161.257,-72.827 -161.296,-161.296c0.044,-88.467 72.83,-161.249 161.296,-161.288Z" style="stroke:#fff;stroke-width:12.5px;stroke-linecap:butt;stroke-miterlimit:10;"/><path id="Path_1514" d="M2477.72,1460.62l-20.396,102.65l101.546,55.708" style="fill:none;fill-rule:nonzero;stroke:#fff;stroke-width:12.5px;stroke-linecap:butt;stroke-miterlimit:10;"/><path id="Path_1515" d="M2457.33,1401.98l-0,-47.154" style="fill:none;fill-rule:nonzero;stroke:#fff;stroke-width:12.5px;stroke-linecap:butt;stroke-miterlimit:10;"/><path id="Path_1516" d="M2394.24,1354.83l126.184,0" style="fill:none;fill-rule:nonzero;stroke:#fff;stroke-width:12.5px;stroke-linecap:butt;stroke-miterlimit:10;"/><path id="Path_1185" d="M1259.17,3586.12l-0,-439.796" style="fill:none;fill-rule:nonzero;stroke:#fff;stroke-width:12.5px;"/><path id="Path_1186" d="M1359.41,3586.12l0,-439.796" style="fill:none;fill-rule:nonzero;stroke:#fff;stroke-width:12.5px;"/><path id="Path_1187" d="M1459.64,3586.12l-0,-439.796" style="fill:none;fill-rule:nonzero;stroke:#fff;stroke-width:12.5px;"/><path id="Path_1188" d="M1138.95,1122.17c39.605,0.018 72.19,32.603 72.208,72.208c-0.027,39.6 -32.608,72.175 -72.208,72.196c-39.605,-0.018 -72.19,-32.603 -72.208,-72.208c0.025,-39.601 32.607,-72.178 72.208,-72.196Z" style="fill:none;fill-rule:nonzero;stroke:#fff;stroke-width:12.5px;"/><path id="Path_1189" d="M3812.95,1110.4l-27.746,67.558l55.683,47.263l-72.829,-5.509l-27.741,67.563l-17.267,-70.967l-72.829,-5.504l62.158,-38.333l-17.267,-70.967l55.68,47.263l62.158,-38.367Z" style="fill:#f00;stroke:#fff;stroke-width:12.5px;"/></g></svg>