<?xml version="1.0" encoding="UTF-8" standalone="no"?><!DOCTYPE svg PUBLIC "-//W3C//DTD SVG 1.1//EN" "http://www.w3.org/Graphics/SVG/1.1/DTD/svg11.dtd"><svg width="100%" height="100%" viewBox="0 0 185559 173613" version="1.1" xmlns="http://www.w3.org/2000/svg" xmlns:xlink="http://www.w3.org/1999/xlink" xml:space="preserve" xmlns:serif="http://www.serif.com/" style="fill-rule:evenodd;clip-rule:evenodd;stroke-linecap:round;stroke-linejoin:round;"><g id="Artboard1"><path id="Path_1465" d="M139932,8378.34c15168.5,5.35 27648.7,12485.5 27654.1,27654.1c-5.35,15168.5 -12485.5,27648.7 -27654.1,27654.1c-15168.5,-5.325 -27648.7,-12485.5 -27654.1,-27654.1c5.35,-15168.5 12485.5,-27648.7 27654.1,-27654.1Z" style="fill:none;fill-rule:nonzero;stroke:#000;stroke-width:1241.54px;"/><path id="Path_14651" serif:id="Path_1465" d="M38490.3,21935.1c12860.7,4.332 23442.3,10111.1 23446.8,22395c-4.536,12283.9 -10586,22390.7 -23446.8,22395c-12860.8,-4.312 -23442.3,-10111.1 -23446.8,-22395c4.536,-12283.8 10586,-22390.7 23446.8,-22395Z" style="fill:none;fill-rule:nonzero;stroke:#000;stroke-width:1029.32px;"/><path id="Path_1466" d="M40138.2,101312c17757.6,8.479 32367.4,14618.2 32375.8,32375.8c-8.325,17757.8 -14618.1,32367.7 -32375.8,32376.2c-17758.2,-7.708 -32369,-14617.8 -32377.2,-32376.2c8.483,-17758.2 14619,-32368.1 32377.2,-32375.8Z" style="fill:none;fill-rule:nonzero;stroke:#000;stroke-width:844.04px;stroke-dasharray:2532.08,4220.17,0,0;"/><g><path d="M93601.9,26995.2l-58885.8,3681.82l3168.43,50674.8l58885.8,-3681.82l-3168.43,-50674.8Z" style="fill:#fff;"/><path d="M87252.3,77587.2l-464.669,-7431.78l8799.86,-550.208l464.67,7431.78l-8799.86,550.208Zm-9814.34,613.638l-464.669,-7431.78l9138.07,-571.355l464.669,7431.78l-9138.07,571.355Zm-9814.34,613.639l-464.669,-7431.78l9138.07,-571.355l464.669,7431.78l-9138.07,571.355Zm-9814.34,613.638l-464.669,-7431.78l9138.07,-571.355l464.67,7431.78l-9138.07,571.355Zm-9814.34,613.638l-464.669,-7431.78l9138.07,-571.355l464.67,7431.78l-9138.07,571.355Zm-9476.12,592.491l-464.67,-7431.78l8799.86,-550.208l464.67,7431.78l-8799.86,550.208Zm5715.99,-49872.6l464.571,7430.2l-8799.86,550.208l-464.571,-7430.2l8799.86,-550.208Zm9814.34,-613.638l464.571,7430.2l-9138.07,571.355l-464.571,-7430.2l9138.07,-571.355Zm9814.34,-613.638l464.571,7430.2l-9138.07,571.355l-464.571,-7430.2l9138.07,-571.355Zm9814.34,-613.638l464.571,7430.2l-9138.07,571.355l-464.57,-7430.2l9138.07,-571.355Zm9814.34,-613.639l464.571,7430.2l-9138.07,571.355l-464.57,-7430.2l9138.07,-571.355Zm1668.97,15834.5l-485.785,-7769.49l8799.86,-550.208l485.785,7769.49l-8799.86,550.209Zm528.12,8446.59l-485.787,-7769.54l8799.86,-550.208l485.788,7769.54l-8799.86,550.209Zm528.022,8445.01l-485.788,-7769.54l8799.86,-550.208l485.788,7769.54l-8799.86,550.209Zm42.335,677.086l8799.86,-550.209l485.788,7769.54l-8799.86,550.208l-485.787,-7769.54Zm-9814.34,613.638l9138.07,-571.355l485.788,7769.54l-9138.07,571.355l-485.787,-7769.54Zm-9814.34,613.638l9138.07,-571.355l485.788,7769.54l-9138.07,571.355l-485.787,-7769.54Zm-9814.34,613.638l9138.07,-571.355l485.788,7769.54l-9138.07,571.356l-485.788,-7769.54Zm-9814.34,613.638l9138.07,-571.355l485.788,7769.54l-9138.07,571.355l-485.788,-7769.54Zm-676.275,42.284l485.787,7769.54l-8799.86,550.208l-485.788,-7769.54l8799.86,-550.209Zm-528.121,-8446.59l485.788,7769.54l-8799.86,550.209l-485.787,-7769.54l8799.86,-550.209Zm-528.021,-8445.01l485.788,7769.54l-8799.86,550.208l-485.788,-7769.54l8799.86,-550.209Zm-42.335,-677.086l-8799.86,550.208l-485.786,-7769.49l8799.86,-550.209l485.785,7769.49Zm9814.34,-613.638l-9138.07,571.355l-485.785,-7769.49l9138.07,-571.355l485.785,7769.49Zm9814.34,-613.638l-9138.07,571.355l-485.785,-7769.49l9138.07,-571.355l485.785,7769.49Zm9814.34,-613.638l-9138.07,571.355l-485.785,-7769.49l9138.07,-571.355l485.785,7769.49Zm676.275,-42.284l-485.785,-7769.49l9138.07,-571.355l485.785,7769.49l-9138.07,571.355Zm528.121,8446.59l-485.788,-7769.54l9138.07,-571.355l485.788,7769.54l-9138.07,571.355Zm42.233,675.468l9138.07,-571.355l485.788,7769.54l-9138.07,571.355l-485.788,-7769.54Zm-9814.34,613.639l9138.07,-571.356l485.788,7769.54l-9138.07,571.355l-485.788,-7769.54Zm-9814.34,613.638l9138.07,-571.355l485.788,7769.54l-9138.07,571.355l-485.788,-7769.54Zm-676.275,42.284l485.788,7769.54l-9138.07,571.355l-485.787,-7769.54l9138.07,-571.355Zm-42.234,-675.469l-9138.07,571.355l-485.788,-7769.54l9138.07,-571.355l485.787,7769.54Zm10004.9,-8425.46l9138.07,-571.355l485.788,7769.54l-9138.07,571.355l-485.788,-7769.54Zm-190.488,7811.82l-9138.07,571.355l-485.788,-7769.54l9138.07,-571.355l485.787,7769.54Zm27584,-26143.1l464.571,7430.2l-8799.86,550.209l-464.571,-7430.2l8799.86,-550.209Zm633.945,-719.37l-58885.8,3681.82l3168.43,50674.8l58885.8,-3681.82l-3168.43,-50674.8Z" style="fill-rule:nonzero;"/><path d="M42504.7,72721.3c-151.737,9.487 -307.417,-31.069 -440.03,-128.228c-302.977,-219.526 -370.21,-643.607 -150.33,-946.122l11372.4,-15661.9c194.271,-268.471 553.982,-355.855 850.309,-208.906l9651.09,4805.23l8802.05,-11158.4c115.418,-146.73 285.533,-238.479 470.742,-254.931c187.898,-14.988 369.509,43.414 509.07,166.094l3583.18,3153.54l12073,-10287.4c217.303,-185.547 527.44,-214.674 775.433,-72.823c248.161,141.849 380.814,423.938 331.834,704.416l-676.743,3890.34c-64.043,369.015 -415.632,614.872 -783.77,551.906c-368.722,-64.546 -615.693,-415.74 -551.484,-784.766l354.896,-2040.3l-11090.8,9450.47c-256.594,218.831 -634.507,214.872 -887.122,-6.178l-3487.14,-3070.32l-8700.15,11028.7c-198.672,252.515 -546.611,331.056 -834.011,186.796l-9630.73,-4793.52l-11035.3,15198c-123.535,169.953 -311.716,266.079 -506.435,278.254l0.027,0.036Z" style="fill:#f53c37;fill-rule:nonzero;"/><path d="M89708.7,43393.5c-26.02,1.627 -52.295,1.645 -78.999,0.075l-3920.38,-207.499c-373.757,-20.428 -660.657,-338.299 -640.905,-712.665c19.744,-374.358 339.455,-660.404 712.459,-641.543l3920.38,207.499c373.915,20.419 660.916,339.907 640.912,712.656c-18.397,346.695 -294.762,620.299 -633.467,641.477Z" style="fill:#f53c37;fill-rule:nonzero;"/><path d="M75016,49723.9c65.372,1045.53 -729.478,1946.92 -1775.32,2012.31c-1045.85,65.391 -1946.78,-729.972 -2012.16,-1775.5c-65.371,-1045.52 729.479,-1946.91 1775.32,-2012.3c1045.85,-65.391 1946.78,729.972 2012.15,1775.49Z" style="fill:#f53c37;fill-rule:nonzero;"/><path d="M65679.6,61117.1c65.371,1045.53 -729.475,1946.92 -1775.32,2012.31c-1045.84,65.391 -1946.78,-729.971 -2012.15,-1775.5c-65.371,-1045.52 729.479,-1946.91 1775.32,-2012.3c1045.85,-65.391 1946.78,729.971 2012.15,1775.49Z" style="fill:#f53c37;fill-rule:nonzero;"/><path d="M55731.6,56312.3c65.372,1045.53 -729.316,1946.91 -1775.32,2012.31c-1045.85,65.391 -1946.78,-729.972 -2012.16,-1775.5c-65.371,-1045.52 729.475,-1946.91 1775.32,-2012.3c1046.01,-65.401 1946.78,729.971 2012.15,1775.49Z" style="fill:#f53c37;fill-rule:nonzero;"/><path d="M79074,53811.6c65.372,1045.53 -729.466,1946.92 -1775.32,2012.31c-1045.85,65.391 -1946.78,-729.972 -2012.16,-1775.5c-65.37,-1045.52 729.479,-1946.91 1775.33,-2012.3c1045.85,-65.391 1946.78,729.972 2012.15,1775.49Z" style="fill:#f53c37;fill-rule:nonzero;"/><path d="M44356.6,71927.5c65.371,1045.52 -729.58,1945.3 -1775.42,2010.69c-1045.85,65.391 -1946.69,-728.354 -2012.06,-1773.87c-65.473,-1047.15 729.478,-1946.92 1775.33,-2012.31c1045.85,-65.391 1946.68,728.354 2012.15,1775.5Z" style="fill:#f53c37;fill-rule:nonzero;"/></g><g><rect x="112278" y="145020" width="6266.5" height="14817.7" style="fill:#fff;stroke:#000;stroke-width:547.71px;stroke-miterlimit:1.5;"/><rect x="123721" y="95160.6" width="6266.5" height="64677.1" style="fill:#fff;stroke:#000;stroke-width:658.46px;stroke-miterlimit:1.5;"/><rect x="135165" y="137391" width="6266.5" height="22446.5" style="fill:#fff;stroke:#000;stroke-width:556.42px;stroke-miterlimit:1.5;"/><rect x="146607" y="100882" width="6266.5" height="58955.4" style="fill:#fff;stroke:#000;stroke-width:640.08px;stroke-miterlimit:1.5;"/><rect x="158051" y="67642.7" width="9535.96" height="92195.4" style="fill:#f53c37;stroke:#000;stroke-width:760.96px;stroke-miterlimit:1.5;"/></g><path id="Path_1066" d="M28630.8,83119.6l-2510.38,6110.75l5036,4274.08l-6585.38,-497.542l-2509.09,6110.12l-1561.76,-6418.12l-6586.67,-498.183l5621.46,-3468.85l-1560.82,-6418.46l5036,4274.71l5620.54,-3468.52l0.063,-0.004l0.016,0.009Z" style="fill:none;fill-rule:nonzero;stroke:#000;stroke-width:955.63px;"/><g><path d="M96100.1,29385.4c2543.97,-2657.35 13202.1,-2337.26 15211,-10141.1c1510.6,-5868.06 -2358.72,-9648.22 -7207.71,-10896.5c-3981.57,-1024.96 -6735.61,-1007.65 -10038.6,199.891l-1726.25,6862.77l5309.04,1366.69l750.906,-2916.97c874.331,-98.069 2098.6,15.153 3501.62,376.33c1099.67,283.085 2974.02,1169.49 2447.41,3215.16c-1404.29,5455.11 -13957.3,2546.78 -16414.2,12090.8l-896.16,3481.22l19627.9,5052.75l1441.64,-5600.2l-12006.7,-3090.84Z" style="fill:#f53c37;fill-rule:nonzero;"/><path d="M120222,42050.9c7877.04,2027.76 12478.2,-2678.6 14623.6,-11012.3c2145.35,-8333.82 388.561,-14676.9 -7488.48,-16704.6c-7877.01,-2027.75 -12478.2,2678.59 -14623.6,11012.4c-2145.32,8333.73 -388.539,14676.8 7488.47,16704.6Zm1500.14,-5827.43c-2879.84,-741.347 -3602.57,-3270.17 -2100.78,-9104.02c1501.79,-5833.85 3469.44,-7670.18 6235.6,-6958.1c2879.84,741.347 3602.58,3270.25 2100.79,9104.11c-1501.79,5833.85 -3355.78,7699.36 -6235.61,6958.01Z" style="fill:#f53c37;fill-rule:nonzero;"/><path d="M142909,41435.2c2543.97,-2657.35 13202.1,-2337.26 15211,-10141.1c1510.6,-5868.06 -2358.72,-9648.22 -7207.71,-10896.5c-3981.57,-1024.96 -6735.61,-1007.65 -10038.6,199.891l-1726.25,6862.77l5309.04,1366.69l750.906,-2916.97c874.331,-98.069 2098.6,15.153 3501.62,376.33c1099.67,283.085 2974.02,1169.49 2447.41,3215.16c-1404.29,5455.11 -13957.3,2546.78 -16414.2,12090.8l-896.16,3481.22l19627.9,5052.75l1441.64,-5600.2l-12006.7,-3090.84Z" style="fill:#f53c37;fill-rule:nonzero;"/><path d="M175043,40861.6c2639.11,-692.232 3942.05,-2618.36 4537.28,-4930.59c1393.76,-5414.2 -1891.71,-8640.53 -6360.55,-9790.93c-3982.06,-1025.09 -7086.11,-1218.94 -10389.1,-11.423l-1726.78,6864.8l5309.04,1366.69l751.353,-2918.71c874.474,-98.225 1985.15,-14.423 3198.73,297.984c1023.96,263.594 2707.7,1262.91 2200.29,3233.98c-400.071,1554.12 -1498.97,2524.16 -3660.65,1967.69l-2009.99,-517.425l-1246.66,4842.78l2085.33,536.82c2654.26,683.278 3473.15,1742.77 2936.51,3827.4c-731.781,2842.68 -3357.88,2207.07 -4381.66,1943.52c-1213.38,-312.355 -2226.29,-775.178 -2944.51,-1283.38l761.053,-2956.39l-5309.04,-1366.69l-1812.25,6882.89c2309.36,2652.28 5121.11,3981.33 8495.81,4850.07c5530.96,1423.82 10462.4,-332.869 11856.3,-5747.87c887.893,-3449.11 29.665,-5445.06 -2290.54,-7091.22Z" style="fill:#f53c37;fill-rule:nonzero;"/></g><g><path d="M48287.2,102607l-6177.12,16586.4l22090.8,48310.8l45936.6,-21005l-27294.9,-59693.1l-34555.5,15800.8l0.049,0.146Z" style="fill:#fff;fill-rule:nonzero;stroke:#000;stroke-width:893.3px;stroke-linecap:butt;stroke-miterlimit:2;"/><path d="M42109.9,119194l10399.8,-5554.23l-4222.65,-11032.2l-2549.01,13903.8l-3628.09,2682.54l-0.024,0.034Z" style="fill-rule:nonzero;"/><path d="M50484.9,113078l-2197.91,-10470.4l-6177.12,16586.4l8375.01,-6115.93l0.025,0Z" style="fill:#fff;fill-rule:nonzero;stroke:#000;stroke-width:893.3px;stroke-linecap:butt;stroke-miterlimit:2;"/><path d="M68382.5,123465l-11849,5418.18l-1671.08,-3654.6l11849.2,-5418.22l1670.92,3654.65l0.01,0.005Z" style="fill-rule:nonzero;"/><path d="M74414.4,120707l-4900.99,2240.43l-1670.66,-3653.85l4900.75,-2241.22l1670.92,3654.65l-0.015,0Z" style="fill-rule:nonzero;"/><path d="M85940.1,115437l-10448.4,4777.41l-1670.75,-3653.83l10448.2,-4778.21l1670.92,3654.64l0.024,0Z" style="fill-rule:nonzero;"/><path d="M75369.8,127606l-15134.2,6919.87l-1670.91,-3653.8l15134.1,-6920.74l1670.93,3654.64l0.025,0.034Z" style="fill-rule:nonzero;"/><path d="M87787.2,121928l-11070.6,5062.78l-1671.73,-3654.46l11071.5,-5062.15l1670.75,3653.83l0.01,-0.005Z" style="fill-rule:nonzero;"/><path d="M90562.3,127996l-17468.8,7988.53l-1670.91,-3654.64l17468.1,-7987.56l1671.54,3653.66l0.005,-0Z" style="fill-rule:nonzero;"/></g><g><path d="M42406.6,142163l-1161.09,-2167.9l9788.81,-5243.37l1161.07,2167.89l-9788.78,5243.38Z" style="fill:#fff;fill-rule:nonzero;stroke:#000;stroke-width:546.01px;stroke-linecap:butt;stroke-miterlimit:2;"/><path d="M75547.2,143487c-8308.11,4449.63 -18461.9,1167.31 -22912,-7140.92c-4449.07,-8307.67 -1536.39,-18544.1 6771.71,-22993.8c8308.05,-4449.52 18687.7,-1310.17 23136.8,6997.49c4450.11,8308.24 1311.62,18687.6 -6996.5,23137.2Zm1139.05,2127c9480.46,-5078.16 13062.4,-16922.6 7984.69,-26403.4c-5077.67,-9480.87 -16921.6,-13062.8 -26403.1,-7985.21c-9480.4,5078.06 -13062.4,16922.5 -7984.68,26403.4c5077.67,9480.87 16921.6,13062.8 26403.1,7985.21Z" style="fill-rule:nonzero;"/><path d="M74965.9,141350c-8308.11,4449.63 -18687.8,1310.29 -23136.8,-6997.38c-4450.1,-8308.25 -1310.5,-18687.1 6997.6,-23136.7c8308.11,-4449.63 18686.7,-1310.74 23136.8,6997.49c4449.06,8307.68 1310.59,18687 -6997.54,23136.6Zm1139.05,2127c9481.5,-5077.59 13063.4,-16922 7984.69,-26403.4c-5077.67,-9480.87 -16921.6,-13062.8 -26403.1,-7985.31c-9480.43,5078.17 -13062.4,16922.6 -7984.74,26403.5c5077.67,9480.87 16922.7,13063.3 26403.1,7985.21Z" style="fill:#fff;fill-rule:nonzero;stroke:#000;stroke-width:546.01px;stroke-linecap:butt;stroke-miterlimit:2;"/><path d="M44122.2,139707c-1087.67,-1955.46 -3577.95,-2665.51 -5533.66,-1577.85l-13965.9,7768.83c-1955.68,1087.55 -2665.32,3578.06 -1577.2,5532.69c1087.55,1955.68 3577.49,2666.35 5533.15,1578.78l13966.1,-7769.05c1955.73,-1087.65 2665.2,-3577.83 1577.59,-5533.41Z" style="fill:#fff;fill-rule:nonzero;stroke:#000;stroke-width:546.01px;stroke-linecap:butt;stroke-miterlimit:2;"/><path d="M77819,133123c-540.861,1519.39 -1399.29,2794.11 -2640.73,3830.17c-1174.73,981.1 -2551.85,1657.82 -3956.58,2244.97c-1104.32,460.9 -1672.09,-1305.94 -577.557,-1763.72c2249.18,-938.906 4500.99,-2284.79 5362.31,-4702.59c167.936,-471.759 567.106,-826.475 1101.78,-711.266c441.483,95.643 880.473,627.474 710.769,1102.44Z" style="fill:#fff;fill-rule:nonzero;stroke:#000;stroke-width:546.01px;stroke-linecap:butt;stroke-miterlimit:2;"/><path d="M79787.8,129606c-57.142,108.696 -132.313,201.104 -223.588,278.58c-74.271,134.898 -180.026,253.401 -308.014,336.309c-102.087,70.172 -212.683,111.614 -332.899,124.009c-119.806,33.684 -241.876,34.659 -366.072,2.736c-232.278,-61.202 -458.219,-190.312 -583.623,-403.962c-124.074,-211.155 -183.123,-454.561 -127.201,-698.382c53.934,-232.787 142.501,-398.56 289.571,-582.343c86.517,-108.048 201.996,-204.997 327.376,-265.987c101.106,-70.844 211.764,-112.399 331.917,-124.681c120.844,-33.113 242.913,-34.088 366.047,-2.75c125.528,22.14 236.411,73.334 332.65,153.58c104.255,60.778 187.915,144.235 250.998,250.397c122.049,207.469 190.017,459.163 127.169,698.38c-28.123,78.081 -56.271,156.147 -84.331,234.114Z" style="fill:#fff;fill-rule:nonzero;stroke:#000;stroke-width:546.01px;stroke-linecap:butt;stroke-miterlimit:2;"/></g></g></svg>