<?xml version="1.0" encoding="UTF-8" standalone="no"?>
<!DOCTYPE svg PUBLIC "-//W3C//DTD SVG 1.1//EN" "http://www.w3.org/Graphics/SVG/1.1/DTD/svg11.dtd">
<svg width="100%" height="100%" viewBox="0 0 5154 3208" version="1.1" xmlns="http://www.w3.org/2000/svg" xmlns:xlink="http://www.w3.org/1999/xlink" xml:space="preserve" xmlns:serif="http://www.serif.com/" style="fill-rule:evenodd;clip-rule:evenodd;stroke-linecap:round;stroke-linejoin:round;">
    <g id="Group_215">
        <path id="Path_1040" d="M3205.89,1765.26L4012.76,1763.93L4012.76,1945.03L3896.31,1945.03L3896.31,2046.74L4395.37,2046.74L4395.37,1945.03L4285.79,1945.03L4285.79,1763.93L5144.17,1765.26L5144.17,419.64L3205.89,419.641L3205.89,1765.26L3205.89,1765.26Z" style="fill:none;stroke:white;stroke-width:8.33px;"/>
        <rect id="Path_1041" x="3268.45" y="480.617" width="1813.16" height="1223.66" style="fill:none;stroke:white;stroke-width:8.33px;"/>
        <path id="Path_1056" d="M5.892,3201.17L893.221,2299.82L2419.47,2439.85L5077.8,5.883" style="fill:none;fill-rule:nonzero;stroke:white;stroke-width:8.33px;"/>
        <path id="Path_1057" d="M468.992,3069L982.929,2546.96L2305.17,2207.05L5149.75,662.01" style="fill:none;fill-rule:nonzero;stroke:rgb(245,60,55);stroke-width:16.67px;stroke-linecap:butt;"/>
        <path id="Path_1039" d="M2058.08,1536.79L2180.48,1280.57L2201.32,1475.9L2323.72,1163.38L2357.58,1402.98L2526.87,1046.19" style="fill:none;fill-rule:nonzero;stroke:white;stroke-width:8.33px;"/>
        <g id="Group_107">
            <path id="Path_1047" d="M2160.49,2145.34L2104.64,2161.36" style="fill:none;fill-rule:nonzero;stroke:white;stroke-width:8.34px;stroke-linecap:butt;"/>
            <path id="Path_1048" d="M2204.36,2025.24L2007.64,2081.65" style="fill:none;fill-rule:nonzero;stroke:white;stroke-width:8.34px;stroke-linecap:butt;"/>
            <path id="Path_1049" d="M2192.66,2062.35L2029.86,2109.03" style="fill:none;fill-rule:nonzero;stroke:white;stroke-width:8.34px;stroke-linecap:butt;"/>
            <path id="Path_1050" d="M2092.32,2124.27L2065.66,2031.29" style="fill:none;fill-rule:nonzero;stroke:white;stroke-width:8.34px;stroke-linecap:butt;"/>
            <path id="Path_1051" d="M2154.53,2106.41L2127.86,2013.42" style="fill:none;fill-rule:nonzero;stroke:white;stroke-width:8.34px;stroke-linecap:butt;"/>
            <path id="Path_1052" d="M1986.84,2054.46L2213.18,1989.55L2186.46,2097.85L2051.54,2136.54L1986.84,2054.46Z" style="fill:none;fill-rule:nonzero;stroke:white;stroke-width:8.34px;"/>
            <path id="Path_1053" d="M2174.01,2120.92C2163.6,2123.91 2157.49,2134.93 2160.47,2145.35C2161.91,2150.38 2165.3,2154.64 2169.88,2157.18C2174.46,2159.72 2179.86,2160.33 2184.9,2158.89C2195.31,2155.9 2201.42,2144.87 2198.44,2134.46C2196.99,2129.43 2193.61,2125.17 2189.03,2122.63C2184.45,2120.09 2179.04,2119.48 2174.01,2120.92Z" style="fill:none;fill-rule:nonzero;stroke:white;stroke-width:8.34px;"/>
            <path id="Path_1054" d="M2080.22,2147.81C2069.81,2150.8 2063.7,2161.82 2066.68,2172.24C2069.67,2182.65 2080.69,2188.76 2091.11,2185.78C2101.52,2182.79 2107.63,2171.76 2104.65,2161.35C2101.66,2150.94 2090.63,2144.82 2080.22,2147.81Z" style="fill:none;fill-rule:nonzero;stroke:white;stroke-width:8.34px;"/>
            <path id="Path_1055" d="M2012.03,2047.24L1972.12,1992.71L1921.91,2007.11" style="fill:none;fill-rule:nonzero;stroke:white;stroke-width:8.34px;"/>
        </g>
        <g id="Group_110">
            <rect id="Path_1042" x="1488.53" y="664.634" width="565.644" height="51.275" style="fill:white;stroke:white;stroke-width:8.33px;"/>
            <rect id="Path_1043" x="1488.53" y="786.416" width="565.644" height="51.275" style="fill:white;stroke:white;stroke-width:8.33px;"/>
            <rect id="Path_1058" x="1492.16" y="540.68" width="324.833" height="51.297" style="fill:none;stroke:white;stroke-width:8.33px;"/>
            <path id="Path_1059" d="M1872.95,544.16C1882.6,544.16 1890.54,552.099 1890.54,561.748C1890.54,571.397 1882.6,579.336 1872.95,579.336C1863.3,579.336 1855.36,571.397 1855.36,561.748C1855.36,552.099 1863.3,544.16 1872.95,544.16Z" style="fill:none;fill-rule:nonzero;stroke:white;stroke-width:8.33px;"/>
            <path id="Path_1060" d="M1885.77,573.818L1903.91,591.956" style="fill:none;fill-rule:nonzero;stroke:white;stroke-width:8.33px;"/>
        </g>
        <path id="Path_1061" d="M2646.34,373.966L2537.37,264.995L2428.41,373.966L2537.37,482.936L2646.34,373.966Z" style="fill:none;fill-rule:nonzero;stroke:rgb(245,60,55);stroke-width:8.33px;"/>
        <g id="Group_108">
            <path id="Path_1062" d="M3137.4,2731.66L3137.4,2431.14" style="fill:none;fill-rule:nonzero;stroke:white;stroke-width:8.33px;"/>
            <path id="Path_1063" d="M3205.89,2731.66L3205.89,2431.14" style="fill:none;fill-rule:nonzero;stroke:white;stroke-width:8.33px;"/>
            <path id="Path_1064" d="M3274.38,2731.66L3274.38,2431.14" style="fill:none;fill-rule:nonzero;stroke:white;stroke-width:8.33px;"/>
        </g>
        <path id="Path_1065" d="M3470.92,648.317C3491.39,648.328 3508.22,665.164 3508.23,685.629C3508.22,706.094 3491.39,722.93 3470.92,722.942C3450.45,722.93 3433.62,706.094 3433.61,685.629C3433.62,665.164 3450.45,648.328 3470.92,648.317Z" style="fill:none;fill-rule:nonzero;stroke:white;stroke-width:8.33px;"/>
        <path id="Path_1181" d="M4318.85,1485.56C4346.94,1509.15 4350.66,1551.67 4327.09,1579.79C4303.5,1607.87 4260.98,1611.59 4232.87,1588.03C4204.78,1564.43 4201.06,1521.92 4224.62,1493.8C4248.22,1465.72 4290.74,1462 4318.85,1485.56Z" style="fill:rgb(255,213,37);fill-rule:nonzero;stroke:white;stroke-width:8.33px;"/>
        <path id="Path_1066" d="M2634.39,1539.67L2624.39,1564.06L2644.49,1581.12L2618.2,1579.14L2608.2,1603.53L2601.95,1577.91L2575.66,1575.92L2598.1,1562.08L2591.85,1536.46L2611.95,1553.52L2634.39,1539.67Z" style="fill:none;fill-rule:nonzero;stroke:white;stroke-width:8.33px;"/>
        <g id="Group_109">
            <path id="Path_1180" d="M1657.16,2087.78C1692.6,2072.02 1734.74,2088.19 1750.53,2123.62C1766.29,2159.06 1750.12,2201.19 1714.7,2216.99C1679.25,2232.75 1637.12,2216.58 1621.32,2181.15C1605.56,2145.71 1621.74,2103.58 1657.16,2087.78Z" style="fill:none;fill-rule:nonzero;stroke:white;stroke-width:8.33px;"/>
            <g transform="matrix(0.913523,-0.406788,0.406788,0.913523,1674.56,2196.94)">
                <g id="_">
                    <g>
                        <text x="0px" y="0px" style="font-family:'Barlow-Bold', 'Barlow';font-weight:700;font-size:102.666px;fill:rgb(245,60,55);stroke:white;stroke-width:1px;stroke-linecap:butt;stroke-miterlimit:2;">$</text>
                    </g>
                </g>
            </g>
        </g>
        <g transform="matrix(0.766044,0.642788,-0.642788,0.766044,4236.34,1545.48)">
            <g id="_2">
                <g>
                    <text x="0px" y="0px" style="font-family:'Barlow-Bold', 'Barlow';font-weight:700;font-size:90.706px;">$</text>
                </g>
            </g>
        </g>
    </g>
</svg>
