<?xml version="1.0" encoding="UTF-8" standalone="no"?><!DOCTYPE svg PUBLIC "-//W3C//DTD SVG 1.1//EN" "http://www.w3.org/Graphics/SVG/1.1/DTD/svg11.dtd"><svg width="100%" height="100%" viewBox="0 0 713 701" version="1.1" xmlns="http://www.w3.org/2000/svg" xmlns:xlink="http://www.w3.org/1999/xlink" xml:space="preserve" xmlns:serif="http://www.serif.com/" style="fill-rule:evenodd;clip-rule:evenodd;stroke-linecap:round;stroke-linejoin:round;"><g id="Group_160"><path id="Path_1039" d="M5.554,377.467l92.792,-194.234l15.796,148.071l92.791,-236.912l25.667,181.633l128.333,-270.475" style="fill:none;fill-rule:nonzero;stroke:#fff;stroke-width:8.33px;"/><path id="Path_1040" d="M125.221,550.596l215.725,-0.354l-0,48.416l-31.133,0l-0,27.196l133.429,0l-0,-27.196l-29.296,0l-0,-48.416l229.5,0.354l-0,-359.767l-518.225,0l-0,359.767Z" style="fill:#fff;stroke:#000;stroke-width:8.33px;"/><rect id="Path_1041" x="141.95" y="207.133" width="484.771" height="327.158" style="fill:#fff;stroke:#000;stroke-width:8.33px;"/><rect id="Path_1042" x="173.508" y="276.004" width="226.092" height="20.496" style="fill:#fff;stroke:#000;stroke-width:8.33px;"/><rect id="Path_1043" x="173.508" y="324.683" width="226.092" height="20.496" style="fill:#fff;stroke:#000;stroke-width:8.33px;"/><rect id="Path_1044" x="509.825" y="460.917" width="32.454" height="53.879" style="fill:#fff;stroke:#000;stroke-width:8.33px;"/><rect id="Path_1045" x="541.208" y="429.517" width="32.454" height="85.262" style="fill:#fff;stroke:#000;stroke-width:8.33px;"/><path id="Path_1046" d="M572.592,514.779l32.466,0l0,-100.621l-32.454,0l-0.012,100.621Z" style="fill:#fff;stroke:#000;stroke-width:8.33px;"/><path id="Path_1047" d="M536.917,296.633l-15.163,15.163" style="fill:none;fill-rule:nonzero;stroke:#000;stroke-width:4.17px;stroke-linecap:butt;"/><path id="Path_1048" d="M529.608,250.017l-51.808,51.808" style="fill:none;fill-rule:nonzero;stroke:#000;stroke-width:4.17px;stroke-linecap:butt;"/><path id="Path_1049" d="M532.471,264.088l-44.2,44.2" style="fill:none;fill-rule:nonzero;stroke:#000;stroke-width:4.17px;stroke-linecap:butt;"/><path id="Path_1050" d="M511.158,302.029l-25.246,-25.246" style="fill:none;fill-rule:nonzero;stroke:#000;stroke-width:4.17px;stroke-linecap:butt;"/><path id="Path_1051" d="M528.042,285.142l-25.246,-25.246" style="fill:none;fill-rule:nonzero;stroke:#000;stroke-width:4.17px;stroke-linecap:butt;"/><path id="Path_1052" d="M464.617,298.367l61.45,-61.45l10.754,39.737l-36.633,36.634l-35.571,-14.921Z" style="fill:none;fill-rule:nonzero;stroke:#000;stroke-width:4.17px;"/><path id="Path_1053" d="M536.933,286.329c-2.823,2.828 -2.823,7.477 0,10.304c2.827,2.826 7.478,2.826 10.304,0c2.826,-2.826 2.826,-7.477 0,-10.304c-2.826,-2.825 -7.477,-2.825 -10.304,0Z" style="fill:none;fill-rule:nonzero;stroke:#000;stroke-width:4.17px;"/><path id="Path_1054" d="M511.462,311.796c-2.823,2.828 -2.823,7.476 0,10.304c2.828,2.823 7.477,2.823 10.305,0c2.823,-2.828 2.823,-7.476 -0,-10.304c-2.827,-2.826 -7.478,-2.826 -10.304,-0Z" style="fill:none;fill-rule:nonzero;stroke:#000;stroke-width:4.17px;"/><path id="Path_1055" d="M471.45,291.533l-22.642,-10.454l-13.633,13.634" style="fill:none;fill-rule:nonzero;stroke:#000;stroke-width:4.17px;"/><path id="Path_1056" d="M195.588,479.738l88.929,-90.334l153.029,37.538l126.558,-126.375" style="fill:none;fill-rule:nonzero;stroke:#000;stroke-width:8.33px;"/><path id="Path_1057" d="M241.996,466.496l51.504,-52.317l153.029,37.538l240.379,-240.034" style="fill:none;fill-rule:nonzero;stroke:#f53c37;stroke-width:16.67px;stroke-linecap:butt;"/><rect id="Path_1058" x="174.954" y="226.454" width="129.838" height="20.513" style="fill:none;fill-rule:nonzero;stroke:#000;stroke-width:8.33px;"/><path id="Path_1059" d="M327.167,227.854c3.857,0.002 7.031,3.176 7.033,7.034c-0.002,3.857 -3.176,7.031 -7.033,7.033c-3.858,-0.002 -7.031,-3.176 -7.034,-7.033c0.003,-3.858 3.176,-7.032 7.034,-7.034Z" style="fill:none;fill-rule:nonzero;stroke:#000;stroke-width:8.33px;"/><path id="Path_1060" d="M332.292,239.708l7.258,7.259" style="fill:none;fill-rule:nonzero;stroke:#000;stroke-width:8.33px;"/><path id="Path_1061" d="M605.05,116.458l-37.317,-37.316l-37.312,37.316l37.312,37.317l37.317,-37.317Z" style="fill:none;fill-rule:nonzero;stroke:#f53c37;stroke-width:8.33px;"/><path id="Path_1062" d="M614.379,594.108l93.55,0" style="fill:none;fill-rule:nonzero;stroke:#fff;stroke-width:8.33px;"/><path id="Path_1063" d="M614.379,615.433l93.55,0" style="fill:none;fill-rule:nonzero;stroke:#fff;stroke-width:8.33px;"/><path id="Path_1064" d="M614.379,636.754l93.55,0" style="fill:none;fill-rule:nonzero;stroke:#fff;stroke-width:8.33px;"/><path id="Path_1065" d="M129.275,576.746c20.465,0.011 37.301,16.848 37.313,37.312c-0.012,20.465 -16.848,37.301 -37.313,37.313c-20.465,-0.012 -37.301,-16.848 -37.312,-37.313c0.011,-20.464 16.847,-37.301 37.312,-37.312Z" style="fill:none;fill-rule:nonzero;stroke:#fff;stroke-width:8.33px;"/><path id="Path_1180" d="M427.3,60.079c20.465,0.012 37.301,16.848 37.313,37.313c-0.012,20.464 -16.848,37.301 -37.313,37.312c-20.465,-0.011 -37.301,-16.848 -37.312,-37.312c0.011,-20.465 16.847,-37.301 37.312,-37.313Z" style="fill:none;fill-rule:nonzero;stroke:#fff;stroke-width:8.33px;"/><path id="Path_1181" d="M524.704,613.759c15.67,13.163 17.745,36.883 4.599,52.567c-13.163,15.669 -36.883,17.745 -52.567,4.599c-15.669,-13.163 -17.745,-36.883 -4.599,-52.567c13.163,-15.67 36.883,-17.745 52.567,-4.599Z" style="fill:#ffd525;fill-rule:nonzero;stroke:#fff;stroke-width:8.33px;"/><path id="Path_1066" d="M79.917,440.817l-10,24.391l20.104,17.063l-26.292,-1.988l-10,24.392l-6.25,-25.617l-26.291,-1.987l22.437,-13.846l-6.25,-25.621l20.1,17.063l22.442,-13.85Z" style="fill:none;fill-rule:nonzero;stroke:#fff;stroke-width:8.33px;"/><g id="_"><text x="411.438px" y="114.921px" style="font-family:'Barlow-Bold', 'Barlow';font-weight:700;font-size:54.167px;fill:#f53c37;">$</text></g><g id="_2"><g transform="matrix(0.766044,0.642788,-0.642788,0.766044,527.862,-155.694)"><text x="477.813px" y="647.297px" style="font-family:'Barlow-Bold', 'Barlow';font-weight:700;font-size:54.167px;">$</text></g></g></g></svg>