<?xml version="1.0" encoding="UTF-8" standalone="no"?><!DOCTYPE svg PUBLIC "-//W3C//DTD SVG 1.1//EN" "http://www.w3.org/Graphics/SVG/1.1/DTD/svg11.dtd"><svg width="100%" height="100%" viewBox="0 0 5154 3208" version="1.1" xmlns="http://www.w3.org/2000/svg" xmlns:xlink="http://www.w3.org/1999/xlink" xml:space="preserve" xmlns:serif="http://www.serif.com/" style="fill-rule:evenodd;clip-rule:evenodd;stroke-linecap:round;stroke-linejoin:round;"><g id="Group_215"><path id="Path_1040" d="M3205.89,1765.26l806.871,-1.325l-0,181.092l-116.45,0l-0,101.717l499.062,-0l0,-101.717l-109.583,0l-0,-181.092l858.383,1.325l0,-1345.62l-1938.28,0.001l-0,1345.62Z" style="fill:none;stroke:#000;stroke-width:8.33px;"/><rect id="Path_1041" x="3268.45" y="480.617" width="1813.16" height="1223.66" style="fill:none;stroke:#000;stroke-width:8.33px;"/><path id="Path_1056" d="M5.892,3201.17l887.329,-901.35l1526.25,140.033l2658.33,-2433.97" style="fill:none;fill-rule:nonzero;stroke:#000;stroke-width:8.33px;"/><path id="Path_1057" d="M468.992,3069l513.937,-522.042l1322.24,-339.908l2844.58,-1545.04" style="fill:none;fill-rule:nonzero;stroke:#f53c37;stroke-width:16.67px;stroke-linecap:butt;"/><path id="Path_1039" d="M2058.08,1536.79l122.403,-256.217l20.837,195.323l122.403,-312.516l33.858,239.597l169.287,-356.79" style="fill:none;fill-rule:nonzero;stroke:#000;stroke-width:8.33px;"/><g id="Group_107"><path id="Path_1047" d="M2160.49,2145.34l-55.845,16.015" style="fill:none;fill-rule:nonzero;stroke:#000;stroke-width:8.34px;stroke-linecap:butt;"/><path id="Path_1048" d="M2204.36,2025.24l-196.718,56.412" style="fill:none;fill-rule:nonzero;stroke:#000;stroke-width:8.34px;stroke-linecap:butt;"/><path id="Path_1049" d="M2192.66,2062.35l-162.801,46.682" style="fill:none;fill-rule:nonzero;stroke:#000;stroke-width:8.34px;stroke-linecap:butt;"/><path id="Path_1050" d="M2092.32,2124.27l-26.665,-92.985" style="fill:none;fill-rule:nonzero;stroke:#000;stroke-width:8.34px;stroke-linecap:butt;"/><path id="Path_1051" d="M2154.53,2106.41l-26.666,-92.99" style="fill:none;fill-rule:nonzero;stroke:#000;stroke-width:8.34px;stroke-linecap:butt;"/><path id="Path_1052" d="M1986.84,2054.46l226.338,-64.906l-26.715,108.292l-134.924,38.691l-64.699,-82.077Z" style="fill:none;fill-rule:nonzero;stroke:#000;stroke-width:8.34px;"/><path id="Path_1053" d="M2174.01,2120.92c-10.414,2.987 -16.525,14.013 -13.54,24.427c1.443,5.033 4.829,9.292 9.409,11.83c4.579,2.538 9.985,3.154 15.018,1.71c10.413,-2.987 16.525,-14.013 13.54,-24.427c-1.443,-5.033 -4.83,-9.292 -9.409,-11.83c-4.58,-2.538 -9.986,-3.154 -15.018,-1.71Z" style="fill:none;fill-rule:nonzero;stroke:#000;stroke-width:8.34px;"/><path id="Path_1054" d="M2080.22,2147.81c-10.413,2.988 -16.525,14.014 -13.54,24.428c2.987,10.413 14.014,16.525 24.427,13.539c10.414,-2.987 16.525,-14.013 13.54,-24.427c-2.987,-10.413 -14.013,-16.525 -24.427,-13.54Z" style="fill:none;fill-rule:nonzero;stroke:#000;stroke-width:8.34px;"/><path id="Path_1055" d="M2012.03,2047.24l-39.91,-54.53l-50.212,14.399" style="fill:none;fill-rule:nonzero;stroke:#000;stroke-width:8.34px;"/></g><g id="Group_110"><rect id="Path_1042" x="1488.53" y="664.634" width="565.644" height="51.275" style="fill:#fff;stroke:#000;stroke-width:8.33px;"/><rect id="Path_1043" x="1488.53" y="786.416" width="565.644" height="51.275" style="fill:#fff;stroke:#000;stroke-width:8.33px;"/><rect id="Path_1058" x="1492.16" y="540.68" width="324.833" height="51.297" style="fill:none;fill-rule:nonzero;stroke:#000;stroke-width:8.33px;"/><path id="Path_1059" d="M1872.95,544.16c9.649,-0 17.589,7.939 17.589,17.588c-0,9.649 -7.94,17.588 -17.589,17.588c-9.648,0 -17.588,-7.939 -17.588,-17.588c0,-9.649 7.94,-17.588 17.588,-17.588Z" style="fill:none;fill-rule:nonzero;stroke:#000;stroke-width:8.33px;"/><path id="Path_1060" d="M1885.77,573.818l18.138,18.138" style="fill:none;fill-rule:nonzero;stroke:#000;stroke-width:8.33px;"/></g><path id="Path_1061" d="M2646.34,373.966l-108.97,-108.971l-108.965,108.971l108.965,108.97l108.97,-108.97Z" style="fill:none;fill-rule:nonzero;stroke:#f53c37;stroke-width:8.33px;"/><g id="Group_108"><path id="Path_1062" d="M3137.4,2731.66l-0,-300.525" style="fill:none;fill-rule:nonzero;stroke:#000;stroke-width:8.33px;"/><path id="Path_1063" d="M3205.89,2731.66l0,-300.525" style="fill:none;fill-rule:nonzero;stroke:#000;stroke-width:8.33px;"/><path id="Path_1064" d="M3274.38,2731.66l0,-300.525" style="fill:none;fill-rule:nonzero;stroke:#000;stroke-width:8.33px;"/></g><path id="Path_1065" d="M3470.92,648.317c20.465,0.011 37.301,16.847 37.312,37.312c-0.011,20.465 -16.847,37.301 -37.312,37.313c-20.465,-0.012 -37.301,-16.848 -37.313,-37.313c0.012,-20.465 16.848,-37.301 37.313,-37.312Z" style="fill:none;fill-rule:nonzero;stroke:#000;stroke-width:8.33px;"/><path id="Path_1181" d="M4318.85,1485.56c28.087,23.595 31.807,66.112 8.244,94.225c-23.595,28.088 -66.112,31.807 -94.226,8.244c-28.087,-23.595 -31.807,-66.112 -8.244,-94.226c23.595,-28.087 66.112,-31.807 94.226,-8.243Z" style="fill:#ffd525;fill-rule:nonzero;stroke:#000;stroke-width:8.33px;"/><path id="Path_1066" d="M2634.39,1539.67l-10,24.392l20.105,17.062l-26.292,-1.987l-10,24.391l-6.25,-25.616l-26.292,-1.988l22.438,-13.846l-6.25,-25.62l20.1,17.062l22.441,-13.85Z" style="fill:none;fill-rule:nonzero;stroke:#000;stroke-width:8.33px;"/><g id="Group_109"><path id="Path_1180" d="M1657.16,2087.78c35.442,-15.759 77.575,0.412 93.373,35.837c15.759,35.443 -0.411,77.575 -35.836,93.374c-35.443,15.758 -77.576,-0.412 -93.374,-35.837c-15.759,-35.443 0.412,-77.575 35.837,-93.374Z" style="fill:none;fill-rule:nonzero;stroke:#000;stroke-width:8.33px;"/><g id="_"><g transform="matrix(0.913523,-0.406788,0.406788,0.913523,-748.876,871.175)"><text x="1674.56px" y="2196.94px" style="font-family:'Barlow-Bold', 'Barlow';font-weight:700;font-size:102.666px;fill:#f53c37;">$</text></g></g></g><g id="_2"><g transform="matrix(0.766044,0.642788,-0.642788,0.766044,1984.53,-2361.49)"><text x="4236.34px" y="1545.47px" style="font-family:'Barlow-Bold', 'Barlow';font-weight:700;font-size:90.706px;">$</text></g></g></g></svg>