<?xml version="1.0" encoding="UTF-8" standalone="no"?><!DOCTYPE svg PUBLIC "-//W3C//DTD SVG 1.1//EN" "http://www.w3.org/Graphics/SVG/1.1/DTD/svg11.dtd"><svg width="100%" height="100%" viewBox="0 0 712 660" version="1.1" xmlns="http://www.w3.org/2000/svg" xmlns:xlink="http://www.w3.org/1999/xlink" xml:space="preserve" xmlns:serif="http://www.serif.com/" style="fill-rule:evenodd;clip-rule:evenodd;stroke-linecap:round;stroke-linejoin:round;"><g id="Group_164"><path id="Path_1138" d="M185.025,220.346c99.198,0.048 180.81,81.66 180.858,180.858c-0.048,99.198 -81.66,180.811 -180.858,180.858c-99.198,-0.047 -180.81,-81.66 -180.858,-180.858c0.048,-99.198 81.66,-180.81 180.858,-180.858Z" style="fill:none;fill-rule:nonzero;stroke:#fff;stroke-width:8.33px;stroke-dasharray:37.5,62.5,0,0;"/><path id="Path_1139" d="M310.942,348.358l85.529,-179.029l14.558,136.479l85.529,-218.371l23.659,167.417l118.283,-249.304" style="fill:none;fill-rule:nonzero;stroke:#fff;stroke-width:8.33px;"/><path id="Path_1140" d="M75.025,312.979l-34.396,-34.391l-34.392,34.391l34.396,34.396l34.392,-34.396Z" style="fill:none;fill-rule:nonzero;stroke:#f53c37;stroke-width:8.33px;"/><path id="Path_1141" d="M621.346,551.608l86.25,0" style="fill:none;fill-rule:nonzero;stroke:#fff;stroke-width:8.33px;"/><path id="Path_1142" d="M621.346,571.258l86.25,0" style="fill:none;fill-rule:nonzero;stroke:#fff;stroke-width:8.33px;"/><path id="Path_1143" d="M621.346,590.917l86.25,-0" style="fill:none;fill-rule:nonzero;stroke:#fff;stroke-width:8.33px;"/><path id="Path_1144" d="M251.021,139.996c18.865,0.009 34.387,15.53 34.396,34.396c-0.009,18.864 -15.531,34.384 -34.396,34.391c-18.865,-0.007 -34.387,-15.527 -34.396,-34.391c0.009,-18.866 15.53,-34.387 34.396,-34.396Z" style="fill:none;fill-rule:nonzero;stroke:#fff;stroke-width:8.33px;"/><path id="Path_1145" d="M207.45,596.592l-9.233,22.5l18.529,15.725l-24.233,-1.834l-9.23,22.5l-5.745,-23.612l-24.234,-1.834l20.684,-12.762l-5.75,-23.638l18.529,15.725l20.683,-12.77Z" style="fill:none;fill-rule:nonzero;stroke:#fff;stroke-width:8.33px;"/><path id="Path_1146" d="M69.554,391.454l205.354,218.667l88.359,-120l129.75,66.692l86.121,-125.417l123.545,58.721l-220.962,-222.246l-118.454,-69.959l-78.438,100.376l-123.162,-30.417l-92.113,123.583Z" style="fill:#fff;stroke:#000;stroke-width:8.33px;"/><path id="Path_1147" d="M363.288,490.113l-201.625,-222.246" style="fill:none;fill-rule:nonzero;stroke:#000;stroke-width:8.33px;"/><path id="Path_1148" d="M579.142,431.388l-215.871,-233.484" style="fill:none;fill-rule:nonzero;stroke:#000;stroke-width:8.33px;"/><path id="Path_1149" d="M493.021,556.8l-208.192,-258.512" style="fill:none;fill-rule:nonzero;stroke:#000;stroke-width:8.33px;"/><path id="Path_1150" d="M411.146,350.992l-33.834,-30.1l15.792,-10.93l13.792,12.23l17.954,-14.796l10.417,8.287l-17.954,15.613l9.629,6.504l-15.796,13.192Z" style="fill:#f00;stroke:#000;stroke-width:8.33px;"/><path id="Path_1151" d="M183.833,417.617c3.617,14.546 1.146,19.583 1.146,19.583l90.834,-40.454l150.17,76.792l81.838,-119.309l26.192,5.513c-3.709,-3.214 -6.8,-7.077 -9.121,-11.4l-31.867,-10.117l-44.671,65.775l-115.208,-114.583l-10.959,8.841l34.23,34.667l-28.475,18.862l-28.171,4.25l-11.925,-22.008c-4.863,2.017 -10.175,2.709 -15.392,2.004l19.413,33.4l45.979,-5.337l28.358,-19.009l73.696,72.4l-36.296,25.875l-146.087,-69.854l-73.684,44.109Z" style="fill:#fff;stroke:#000;stroke-width:8.33px;"/><path id="Path_1152" d="M153.358,395.338c-11.25,-2.388 3.942,-71.584 22.329,-70.271c18.388,1.312 4.584,-29.55 22.988,-18.388c18.404,11.163 38.75,25 69.612,28.921c30.863,3.921 21.017,-11.667 34.167,-20.954c13.15,-9.288 24.75,-22.659 39.304,-30.742c14.554,-8.083 62.5,-36.325 92.042,-19.908c29.542,16.416 34.808,19.046 52.537,31.525c17.73,12.479 28.205,40.058 42.667,58.462c14.463,18.405 44,37.709 66.988,50.05c22.987,12.342 -26.017,17.459 -26.017,17.459c0,-0 -55.062,-5.363 -62.946,21.562c-7.883,26.925 -54.954,62.917 -54.954,62.917c0,-0 -16.492,-6.921 -48.883,-23.333c-23.144,-11.163 -47.161,-20.415 -71.813,-27.663c-24.651,-7.248 -62.15,106.121 -83.821,91.017c-21.67,-15.104 -58.075,-38.984 -64.641,-68.538c-6.567,-29.554 22.979,-70.971 -29.559,-82.116Z" style="fill:none;fill-rule:nonzero;stroke:#f00;stroke-width:8.33px;"/><path id="Path_1153" d="M406.267,126.283c39.879,0 72.258,35.234 72.258,78.634c-0,43.4 -72.258,124.283 -72.258,124.283c-0,-0 -72.259,-80.883 -72.259,-124.283c0,-43.4 32.38,-78.634 72.259,-78.634Z" style="fill:#fff;stroke:#f00;stroke-width:8.33px;"/><path id="Path_1154" d="M406.267,163.458c19.366,0.009 35.299,15.943 35.308,35.309c-0.009,19.366 -15.942,35.299 -35.308,35.308c-19.366,-0.009 -35.3,-15.942 -35.309,-35.308c0.009,-19.366 15.943,-35.3 35.309,-35.309Z" style="fill:#f00;"/><path id="Path_1155" d="M371.529,366.25l29.942,29.167l-21.413,20.208l-36.491,-14.913l-14.913,-18.42l24.683,-1.275l18.192,-14.767Z" style="fill:#ffd525;stroke:#000;stroke-width:8.33px;"/><path id="Path_1156" d="M502,388.796l-44.346,61.371l9.096,7.8l25.737,-24.438l23.396,-20.279l13,0l9.359,-9.233l-17.821,-18.204l-8.421,-9.826l-10,12.809Z" style="fill:#ffd525;stroke:#000;stroke-width:8.33px;"/><path id="Path_1157" d="M266.688,418.971l37.441,38.996l-23.537,22.4l-26.746,-22.4l-26.746,18.12l-13.908,-18.12l53.496,-38.996Z" style="fill:#ffd525;stroke:#000;stroke-width:8.33px;"/></g></svg>