<?xml version="1.0" encoding="UTF-8" standalone="no"?><!DOCTYPE svg PUBLIC "-//W3C//DTD SVG 1.1//EN" "http://www.w3.org/Graphics/SVG/1.1/DTD/svg11.dtd"><svg width="100%" height="100%" viewBox="0 0 6498 3216" version="1.1" xmlns="http://www.w3.org/2000/svg" xmlns:xlink="http://www.w3.org/1999/xlink" xml:space="preserve" xmlns:serif="http://www.serif.com/" style="fill-rule:evenodd;clip-rule:evenodd;"><g id="Group_213"><path id="Path_1220" d="M6492.93,2285.12l0,100.358l-2568.38,0l-0,-104.625" style="fill:#fff;fill-rule:nonzero;stroke:#000;stroke-width:8.33px;"/><path id="Path_1007" d="M4357.75,2063.22l-433.2,221.9l2568.38,0l-332.479,-221.9l0,-1251.49l-1802.7,0l0,1251.49Z" style="fill:#fff;stroke:#000;stroke-width:8.33px;stroke-linecap:round;stroke-linejoin:round;"/><rect id="Path_1008" x="4415.94" y="868.454" width="1686.33" height="1138.05" style="fill:#fff;stroke:#000;stroke-width:8.33px;stroke-linecap:round;stroke-linejoin:round;"/><rect id="Path_1009" x="4530.8" y="1114.42" width="1210.46" height="94.167" style="fill:#f53c37;"/><rect id="Path_1010" x="4530.8" y="1286.72" width="1116.67" height="71.292" style="fill:#fff;stroke:#000;stroke-width:8.33px;stroke-linecap:round;stroke-linejoin:round;"/><rect id="Path_1011" x="4530.8" y="935.746" width="451.667" height="71.275" style="fill-opacity:0;fill-rule:nonzero;stroke:#000;stroke-width:8.33px;stroke-linecap:round;stroke-linejoin:round;"/><rect id="Path_1012" x="4530.8" y="1459.01" width="1116.67" height="71.292" style="fill:#fff;stroke:#000;stroke-width:8.33px;stroke-linecap:round;stroke-linejoin:round;"/><rect id="Path_1013" x="4530.8" y="1631.32" width="1116.67" height="71.275" style="fill:#fff;stroke:#000;stroke-width:8.33px;stroke-linecap:round;stroke-linejoin:round;"/><rect id="Path_1014" x="4530.8" y="1803.6" width="1116.67" height="71.292" style="fill:#fff;stroke:#000;stroke-width:8.33px;stroke-linecap:round;stroke-linejoin:round;"/><path id="Path_1015" d="M3235.53,2830.55l57.258,59.921" style="fill:none;fill-rule:nonzero;stroke:#000;stroke-width:8.33px;stroke-linecap:round;stroke-linejoin:round;"/><path id="Path_1016" d="M3421.91,2830.56l-186.388,0l57.258,-59.921" style="fill-opacity:0;fill-rule:nonzero;stroke:#000;stroke-width:8.33px;stroke-linecap:round;stroke-linejoin:round;"/><path id="Path_1017" d="M5060.25,940.529c13.422,0.007 24.464,11.049 24.471,24.471c-0.007,13.422 -11.049,24.464 -24.471,24.471c-13.423,-0.005 -24.468,-11.048 -24.475,-24.471c0.007,-13.423 11.052,-24.466 24.475,-24.471Z" style="fill-opacity:0;fill-rule:nonzero;stroke:#000;stroke-width:8.33px;stroke-linecap:round;stroke-linejoin:round;"/><path id="Path_1018" d="M5078.06,981.767l25.254,25.254" style="fill:none;fill-rule:nonzero;stroke:#000;stroke-width:8.33px;stroke-linecap:round;stroke-linejoin:round;"/><path id="Path_1219" d="M4355.12,2062.48l1805.32,0" style="fill:none;fill-rule:nonzero;stroke:#000;stroke-width:8.33px;"/><g id="Path_1304"><path d="M4584.27,2127l-224.078,-0l55.696,-29.967l224.079,0l-55.697,29.967Z" style="fill:#fff;fill-rule:nonzero;"/><path d="M4416.94,2101.2l-40.208,21.633l206.491,-0l40.207,-21.633l-206.49,0m-2.099,-8.333l241.666,-0l-71.185,38.299l-241.667,0l71.186,-38.299Z" style="fill-rule:nonzero;"/></g><g id="Path_1311"><path d="M4442.61,2189.71l-224.079,0l55.697,-29.966l224.078,-0l-55.696,29.966Z" style="fill:#fff;fill-rule:nonzero;"/><path d="M4275.27,2163.91l-40.207,21.632l206.49,0l40.208,-21.632l-206.491,-0m-2.099,-8.334l241.667,0l-71.186,38.3l-241.666,-0l71.185,-38.3Z" style="fill-rule:nonzero;"/></g><g id="Path_1315"><path d="M4300.59,2252.28l-224.079,-0l55.697,-29.967l224.078,0l-55.696,29.967Z" style="fill:#fff;fill-rule:nonzero;"/><path d="M4133.25,2226.47l-40.208,21.633l206.49,-0l40.208,-21.633l-206.49,0m-2.1,-8.333l241.667,-0l-71.185,38.299l-241.667,0l71.185,-38.299Z" style="fill-rule:nonzero;"/></g><g id="Path_1305"><path d="M4909.27,2127l-224.078,-0l55.696,-29.967l224.079,0l-55.697,29.967Z" style="fill:#fff;fill-rule:nonzero;"/><path d="M4741.94,2101.2l-40.208,21.633l206.491,-0l40.207,-21.633l-206.49,0m-2.099,-8.333l241.666,-0l-71.185,38.299l-241.667,0l71.186,-38.299Z" style="fill-rule:nonzero;"/></g><g id="Path_1310"><path d="M4767.61,2189.71l-224.079,0l55.697,-29.966l224.078,-0l-55.696,29.966Z" style="fill:#fff;fill-rule:nonzero;"/><path d="M4600.27,2163.91l-40.207,21.632l206.49,0l40.208,-21.632l-206.491,-0m-2.099,-8.334l241.667,0l-71.186,38.3l-241.666,-0l71.185,-38.3Z" style="fill-rule:nonzero;"/></g><g id="Path_1314"><path d="M4625.59,2252.28l-224.079,-0l55.697,-29.967l224.078,0l-55.696,29.967Z" style="fill:#fff;fill-rule:nonzero;"/><path d="M4458.25,2226.47l-40.208,21.633l206.49,-0l40.208,-21.633l-206.49,0m-2.1,-8.333l241.667,-0l-71.185,38.299l-241.667,0l71.185,-38.299Z" style="fill-rule:nonzero;"/></g><g id="Path_1306"><path d="M5234.27,2127l-224.078,-0l55.696,-29.967l224.079,0l-55.697,29.967Z" style="fill:#fff;fill-rule:nonzero;"/><path d="M5066.94,2101.2l-40.208,21.633l206.491,-0l40.207,-21.633l-206.49,0m-2.099,-8.333l241.666,-0l-71.185,38.299l-241.667,0l71.186,-38.299Z" style="fill-rule:nonzero;"/></g><g id="Path_1309"><path d="M5092.61,2189.71l-224.079,0l55.697,-29.966l224.078,-0l-55.696,29.966Z" style="fill:#fff;fill-rule:nonzero;"/><path d="M4925.27,2163.91l-40.207,21.632l206.49,0l40.208,-21.632l-206.491,-0m-2.099,-8.334l241.667,0l-71.186,38.3l-241.666,-0l71.185,-38.3Z" style="fill-rule:nonzero;"/></g><g id="Path_1313"><path d="M4950.59,2252.28l-224.079,-0l55.697,-29.967l224.078,0l-55.696,29.967Z" style="fill:#fff;fill-rule:nonzero;"/><path d="M4783.25,2226.47l-40.208,21.633l206.49,-0l40.208,-21.633l-206.49,0m-2.1,-8.333l241.667,-0l-71.185,38.299l-241.667,0l71.185,-38.299Z" style="fill-rule:nonzero;"/></g><g id="Path_1307"><path d="M5559.27,2127l-224.078,-0l55.696,-29.967l224.079,0l-55.697,29.967Z" style="fill:#fff;fill-rule:nonzero;"/><path d="M5391.94,2101.2l-40.208,21.633l206.491,-0l40.207,-21.633l-206.49,0m-2.099,-8.333l241.666,-0l-71.185,38.299l-241.667,0l71.186,-38.299Z" style="fill-rule:nonzero;"/></g><g id="Path_13071" serif:id="Path_1307"><path d="M5876.64,2127l-224.079,-0l55.697,-29.967l224.078,0l-55.696,29.967Z" style="fill:#fff;fill-rule:nonzero;"/><path d="M5709.31,2101.2l-40.208,21.633l206.49,-0l40.208,-21.633l-206.49,0m-2.1,-8.333l241.667,-0l-71.185,38.299l-241.667,0l71.185,-38.299Z" style="fill-rule:nonzero;"/></g><path d="M6103.32,2127l-128.916,-0l55.697,-29.967l128.916,0l-55.697,29.967Z" style="fill:#fff;fill-rule:nonzero;"/><path d="M6031.15,2101.2l-40.208,21.633l111.329,-0l40.208,-21.633l-111.329,0m-2.099,-8.333l146.504,-0l-71.185,38.299l-146.504,0l71.185,-38.299Z" style="fill-rule:nonzero;"/><g id="Path_1308"><path d="M5417.61,2189.71l-224.079,0l55.697,-29.966l224.078,-0l-55.696,29.966Z" style="fill:#fff;fill-rule:nonzero;"/><path d="M5250.27,2163.91l-40.207,21.632l206.49,0l40.208,-21.632l-206.491,-0m-2.099,-8.334l241.667,0l-71.186,38.3l-241.666,-0l71.185,-38.3Z" style="fill-rule:nonzero;"/></g><g id="Path_1363"><path d="M5742.61,2189.71l-224.079,0l55.697,-29.966l224.078,-0l-55.696,29.966Z" style="fill:#fff;fill-rule:nonzero;"/><path d="M5575.27,2163.91l-40.207,21.632l206.49,0l40.208,-21.632l-206.491,-0m-2.099,-8.334l241.667,0l-71.186,38.3l-241.666,-0l71.185,-38.3Z" style="fill-rule:nonzero;"/></g><g id="Path_13631" serif:id="Path_1363"><path d="M6062.21,2189.71l-224.078,0l55.696,-29.966l224.079,-0l-55.697,29.966Z" style="fill:#fff;fill-rule:nonzero;"/><path d="M5894.88,2163.91l-40.208,21.632l206.49,0l40.208,-21.632l-206.49,-0m-2.099,-8.334l241.666,0l-71.185,38.3l-241.667,-0l71.186,-38.3Z" style="fill-rule:nonzero;"/></g><g id="Path_1312"><path d="M5275.59,2252.28l-224.079,-0l55.697,-29.967l224.078,0l-55.696,29.967Z" style="fill:#fff;fill-rule:nonzero;"/><path d="M5108.25,2226.47l-40.208,21.633l206.49,-0l40.208,-21.633l-206.49,0m-2.1,-8.333l241.667,-0l-71.185,38.299l-241.667,0l71.185,-38.299Z" style="fill-rule:nonzero;"/></g><g id="Path_1316"><path d="M5600.59,2252.28l-224.079,-0l55.697,-29.967l224.078,0l-55.696,29.967Z" style="fill:#fff;fill-rule:nonzero;"/><path d="M5433.25,2226.47l-40.208,21.633l206.49,-0l40.208,-21.633l-206.49,0m-2.1,-8.333l241.667,-0l-71.185,38.299l-241.667,0l71.185,-38.299Z" style="fill-rule:nonzero;"/></g><g id="Path_13161" serif:id="Path_1316"><path d="M5929.13,2252.28l-224.078,-0l55.696,-29.967l224.079,0l-55.697,29.967Z" style="fill:#fff;fill-rule:nonzero;"/><path d="M5761.8,2226.47l-40.208,21.633l206.491,-0l40.207,-21.633l-206.49,0m-2.099,-8.333l241.666,-0l-71.185,38.299l-241.667,0l71.186,-38.299Z" style="fill-rule:nonzero;"/></g><g id="Path_13162" serif:id="Path_1316"><path d="M6242.03,2252.28l-224.079,-0l55.697,-29.967l224.079,0l-55.697,29.967Z" style="fill:#fff;fill-rule:nonzero;"/><path d="M6074.69,2226.47l-40.208,21.633l206.49,-0l40.208,-21.633l-206.49,0m-2.1,-8.333l241.667,-0l-71.185,38.299l-241.667,0l71.185,-38.299Z" style="fill-rule:nonzero;"/></g><path id="Path_1364" d="M4137.92,332.321c34.735,0.023 63.31,28.598 63.333,63.333c-0.023,34.735 -28.598,63.311 -63.333,63.333c-34.735,-0.022 -63.311,-28.598 -63.334,-63.333c0.023,-34.735 28.599,-63.31 63.334,-63.333Z" style="fill:none;fill-rule:nonzero;stroke:#000;stroke-width:8.33px;stroke-linecap:round;stroke-linejoin:round;"/><path id="Path_1365" d="M2746.61,2701.02l-86.784,-86.779l-86.779,86.779l86.779,86.783l86.784,-86.783Z" style="fill-opacity:0;fill-rule:nonzero;stroke:#000;stroke-width:8.33px;stroke-linecap:round;stroke-linejoin:round;"/><path id="Path_1366" d="M3503.58,1054.66c30.983,0.014 56.474,25.505 56.488,56.488c-0.016,30.981 -25.506,56.469 -56.488,56.483c-30.981,-0.014 -56.471,-25.502 -56.487,-56.483c0.014,-30.983 25.504,-56.474 56.487,-56.488Z" style="fill-opacity:0;fill-rule:nonzero;stroke:#000;stroke-width:8.33px;stroke-linecap:round;stroke-linejoin:round;"/><path id="Path_1367" d="M4487.24,2675.8c47.599,0.023 86.76,39.184 86.783,86.783c-0.023,47.6 -39.184,86.761 -86.783,86.784c-47.6,-0.023 -86.761,-39.184 -86.784,-86.784c0.023,-47.599 39.184,-86.76 86.784,-86.783Z" style="fill-opacity:0;fill-rule:nonzero;stroke:#000;stroke-width:8.33px;stroke-linecap:round;stroke-linejoin:round;"/><path id="Path_1368" d="M2904.51,345.425l61.366,62.667l78.563,-38.996l-40.646,77.725l61.367,62.666l-86.48,-14.629l-40.625,77.725l-12.812,-86.766l-86.479,-14.625l78.562,-39l-12.816,-86.767Z" style="fill:#ffd525;fill-rule:nonzero;stroke:#000;stroke-width:8.33px;stroke-linecap:round;stroke-linejoin:round;"/><path id="Path_1057" d="M1908.01,3122.54l1167.08,-1664.11l966.871,269.338l1518.8,-1722.26" style="fill:none;fill-rule:nonzero;stroke:#f53c37;stroke-width:16.67px;stroke-linejoin:round;"/><path id="Path_1221" d="M4.121,3208.39l2800.97,-1593.12l1143.46,270.975l321.634,-1255.57l1416.46,-406.312" style="fill:none;fill-rule:nonzero;stroke:#000;stroke-width:16.67px;stroke-linejoin:round;"/></g></svg>