<?xml version="1.0" encoding="UTF-8" standalone="no"?><!DOCTYPE svg PUBLIC "-//W3C//DTD SVG 1.1//EN" "http://www.w3.org/Graphics/SVG/1.1/DTD/svg11.dtd"><svg width="100%" height="100%" viewBox="0 0 10688 10000" version="1.1" xmlns="http://www.w3.org/2000/svg" xmlns:xlink="http://www.w3.org/1999/xlink" xml:space="preserve" xmlns:serif="http://www.serif.com/" style="fill-rule:evenodd;clip-rule:evenodd;stroke-linecap:round;stroke-linejoin:round;"><rect id="Artboard1" x="0" y="0" width="10685.6" height="9996.96" style="fill:none;"/><g id="Artboard11" serif:id="Artboard1"><path id="Path_1039" d="M726.308,9543.76l1308.5,-2012.52l755.871,1274.58l1437.3,-2007.84l814.752,1124.12l1002.28,-2530.51" style="fill:none;fill-rule:nonzero;stroke:#000;stroke-width:67px;"/><path id="Path_1061" d="M9829.45,8637.38l-596.518,-596.518l-596.497,596.518l596.497,596.436l596.518,-596.436Z" style="fill:none;fill-rule:nonzero;stroke:#f53c37;stroke-width:60.98px;"/><path id="Path_1065" d="M9119.2,1210.52c327.181,0.156 596.361,269.337 596.517,596.517c-0.156,327.181 -269.336,596.362 -596.517,596.518c-327.181,-0.156 -596.361,-269.337 -596.517,-596.518c0.156,-327.18 269.336,-596.361 596.517,-596.517Z" style="fill:none;fill-rule:nonzero;stroke:#000;stroke-width:60.98px;"/><path id="Path_1066" d="M1665.41,4983.21l-160.187,389.928l321.349,272.729l-420.213,-31.748l-160.105,389.886l-99.656,-409.541l-420.294,-31.789l358.707,-221.347l-99.596,-409.562l321.349,272.77l358.646,-221.326Z" style="fill:none;fill-rule:nonzero;stroke:#000;stroke-width:60.98px;"/><clipPath id="_clip1"><rect id="Icon-awesome-facebook.svg" serif:id="Icon awesome-facebook.svg" x="2270.36" y="1248.19" width="3774.65" height="3751.81"/></clipPath><g clip-path="url(#_clip1)"><path id="Icon_awesome-facebook" d="M6045.01,3135.46c-0.192,-1035.25 -852.125,-1887.03 -1887.38,-1887.03c-1035.38,-0 -1887.38,851.993 -1887.38,1887.38c-0,924.51 679.29,1719.72 1592.44,1864.19l-0,-1318.94l-479.475,0l-0,-545.605l479.475,-0l-0,-415.834c-0,-472.981 281.407,-734.257 712.827,-734.257c141.412,1.973 282.491,14.272 422.111,36.799l-0,463.89l-238.114,-0c-11.879,-1.575 -23.848,-2.364 -35.831,-2.364c-149.626,-0 -272.749,123.123 -272.749,272.749c0,8.124 0.363,16.243 1.088,24.335l0,354.682l523.418,-0l-83.665,545.605l-439.212,0l0,1318.94c913.146,-144.745 1592.34,-939.995 1592.44,-1864.54Z" style="fill:#4267b2;fill-rule:nonzero;"/></g><g id="_2"><g transform="matrix(0.913545,0.406737,-0.406737,0.913545,3367.9,444.93)"><text x="637.333px" y="8144.82px" style="font-family:'CorporativeSlab-Bold', 'Corporative Slab';font-weight:700;font-size:4096.77px;fill:#ffd525;">?</text></g></g><path id="Path_1199" d="M6526.74,7044.06l-0,-351.627c-0,-703.255 492.226,-632.633 984.518,-914.218" style="fill:none;fill-rule:nonzero;stroke:#212829;stroke-width:129.11px;stroke-linecap:butt;stroke-linejoin:miter;stroke-miterlimit:10;"/><path id="Path_1200" d="M8425.48,5285.92l-0,281.457" style="fill:none;fill-rule:nonzero;stroke:#212829;stroke-width:129.11px;stroke-linecap:butt;stroke-linejoin:miter;stroke-miterlimit:10;"/><path id="Path_1202" d="M7722.22,5567.38l0,-281.328" style="fill:none;fill-rule:nonzero;stroke:#212829;stroke-width:129.11px;stroke-linecap:butt;stroke-linejoin:miter;stroke-miterlimit:10;"/><path id="Path_1203" d="M8089.66,6470.17l0,-525.407" style="fill:none;fill-rule:nonzero;stroke:#212829;stroke-width:129.11px;stroke-linecap:butt;stroke-linejoin:miter;stroke-miterlimit:10;"/><path id="Path_1204" d="M8636.44,5778.21c492.227,281.327 984.518,210.963 984.518,914.218l0,351.627" style="fill:none;fill-rule:nonzero;stroke:#212829;stroke-width:129.11px;stroke-linecap:butt;stroke-linejoin:miter;stroke-miterlimit:10;"/><path id="Path_1205" d="M8636.44,5778.21c-334.068,221.227 -708.806,222.97 -1125.12,-0l140.664,-210.964l421.927,70.3l421.927,-70.3l140.599,210.964Z" style="fill:none;fill-rule:nonzero;stroke:#4267b2;stroke-width:129.11px;stroke-linecap:butt;stroke-linejoin:miter;stroke-miterlimit:10;"/><path id="Path_1208" d="M7440.96,4371.77c-0,-0 236.785,215.224 409.597,-87.859c143.246,-251.31 899.629,-42.347 856.249,87.859" style="fill:none;fill-rule:nonzero;stroke:#4267b2;stroke-width:129.11px;stroke-linecap:butt;stroke-linejoin:miter;stroke-miterlimit:10;"/><path id="Path_1212" d="M8706.8,4371.77l-0,281.263c-70.365,492.226 -281.328,632.632 -281.328,632.632c-111.612,45.78 -230.994,69.669 -351.628,70.364c-120.633,-0.695 -240.015,-24.584 -351.627,-70.364c-111.612,-45.779 -210.963,-140.664 -281.263,-632.632l-0,-281.263" style="fill:none;fill-rule:nonzero;stroke:#212829;stroke-width:129.11px;stroke-linecap:butt;stroke-linejoin:miter;stroke-miterlimit:10;"/><path id="Path_1214" d="M7440.96,4371.77c-0,-427.221 205.67,-632.633 632.632,-632.633c426.962,0 632.633,205.735 632.633,632.633" style="fill:none;fill-rule:nonzero;stroke:#212829;stroke-width:129.11px;stroke-linecap:butt;stroke-linejoin:miter;stroke-miterlimit:10;"/><path id="Path_1468" d="M552.671,649.822l1193.02,-0" style="fill:none;fill-rule:nonzero;stroke:#000;stroke-width:62.91px;"/><path id="Path_1469" d="M552.671,921.726l1193.02,0" style="fill:none;fill-rule:nonzero;stroke:#000;stroke-width:62.91px;"/><path id="Path_1470" d="M552.671,1193.65l1193.02,0" style="fill:none;fill-rule:nonzero;stroke:#000;stroke-width:62.91px;"/></g></svg>