<?xml version="1.0" encoding="UTF-8" standalone="no"?><!DOCTYPE svg PUBLIC "-//W3C//DTD SVG 1.1//EN" "http://www.w3.org/Graphics/SVG/1.1/DTD/svg11.dtd"><svg width="100%" height="100%" viewBox="0 0 44534 41667" version="1.1" xmlns="http://www.w3.org/2000/svg" xmlns:xlink="http://www.w3.org/1999/xlink" xml:space="preserve" xmlns:serif="http://www.serif.com/" style="fill-rule:evenodd;clip-rule:evenodd;stroke-linecap:round;stroke-linejoin:round;"><rect id="Artboard1" x="0" y="0" width="44523.3" height="41654" style="fill:none;"/><g id="Artboard11" serif:id="Artboard1"><path id="Path_1039" d="M3026.28,39765.7l5452.08,-8385.5l3149.46,5310.75l5988.75,-8366l3394.8,4683.83l4176.17,-10543.8" style="fill:none;fill-rule:nonzero;stroke:#000;stroke-width:279.17px;"/><path id="Path_1061" d="M40956,35989.1l-2485.49,-2485.49l-2485.4,2485.49l2485.4,2485.15l2485.49,-2485.15Z" style="fill:none;fill-rule:nonzero;stroke:#f53c37;stroke-width:254.08px;"/><path id="Path_1065" d="M37996.7,5043.83c1363.25,0.65 2484.84,1122.24 2485.49,2485.49c-0.65,1363.25 -1122.23,2484.84 -2485.49,2485.49c-1363.25,-0.65 -2484.84,-1122.24 -2485.49,-2485.49c0.65,-1363.25 1122.23,-2484.84 2485.49,-2485.49Z" style="fill:none;fill-rule:nonzero;stroke:#000;stroke-width:254.08px;"/><path id="Path_1066" d="M6939.21,20763.4l-667.446,1624.7l1338.95,1136.37l-1750.89,-132.283l-667.104,1624.53l-415.233,-1706.42l-1751.23,-132.454l1494.61,-922.28l-414.983,-1706.51l1338.95,1136.54l1494.36,-922.192Z" style="fill:none;fill-rule:nonzero;stroke:#000;stroke-width:254.08px;"/><g><path id="Icon_awesome-facebook" d="M25187.5,13064.4c-0.8,-4313.54 -3550.52,-7862.62 -7864.08,-7862.62c-4314.08,-0 -7864.08,3549.97 -7864.08,7864.08c-0,3852.12 2830.38,7165.5 6635.17,7767.46l-0,-5495.58l-1997.81,0l0,-2273.35l1997.81,-0l-0,-1732.64c-0,-1970.75 1172.53,-3059.4 2970.11,-3059.4c589.217,8.221 1177.05,59.467 1758.8,153.329l0,1932.88l-992.142,0c-49.495,-6.562 -99.366,-9.85 -149.296,-9.85c-623.441,0 -1136.45,513.013 -1136.45,1136.45c0,33.85 1.513,67.68 4.534,101.396l-0,1477.84l2180.91,-0l-348.604,2273.35l-1830.05,0l-0,5495.58c3804.78,-603.104 6634.75,-3916.64 6635.17,-7768.92l0.029,-0Z" style="fill:#4267b2;fill-rule:nonzero;"/></g><g id="_2"><g><g transform="matrix(0.913545,0.406737,-0.406737,0.913545,14032.9,1853.88)"><text x="2655.55px" y="33936.7px" style="font-family:'CorporativeSlab-Bold', 'Corporative Slab';font-weight:700;font-size:17069.9px;fill:#ffd525;">?</text></g></g></g><path id="Path_1199" d="M27194.8,29350.2l0,-1465.11c0,-2930.23 2050.94,-2635.97 4102.16,-3809.24" style="fill:none;fill-rule:nonzero;stroke:#212829;stroke-width:279.17px;stroke-linecap:butt;stroke-linejoin:miter;stroke-miterlimit:10;"/><path id="Path_1200" d="M35106.2,22024.7l-0,1172.74" style="fill:none;fill-rule:nonzero;stroke:#212829;stroke-width:279.17px;stroke-linecap:butt;stroke-linejoin:miter;stroke-miterlimit:10;"/><path id="Path_1202" d="M32175.9,23197.4l-0,-1172.2" style="fill:none;fill-rule:nonzero;stroke:#212829;stroke-width:279.17px;stroke-linecap:butt;stroke-linejoin:miter;stroke-miterlimit:10;"/><path id="Path_1203" d="M33706.9,26959l-0,-2189.2" style="fill:none;fill-rule:nonzero;stroke:#212829;stroke-width:279.17px;stroke-linecap:butt;stroke-linejoin:miter;stroke-miterlimit:10;"/><path id="Path_1204" d="M35985.2,24075.9c2050.95,1172.2 4102.16,879.013 4102.16,3809.24l0,1465.11" style="fill:none;fill-rule:nonzero;stroke:#212829;stroke-width:279.17px;stroke-linecap:butt;stroke-linejoin:miter;stroke-miterlimit:10;"/><path id="Path_1205" d="M36206.2,24196.8c-0,-0 -3174.4,808.114 -4909.04,-120.928l586.1,-879.017l1758.03,292.917l1758.03,-292.917l806.885,999.945Z" style="fill:none;fill-rule:nonzero;stroke:#4267b2;stroke-width:279.17px;stroke-linecap:butt;stroke-linejoin:miter;stroke-miterlimit:10;"/><path id="Path_1208" d="M31004,18215.7c0,0 986.604,896.767 1706.65,-366.079c596.859,-1047.12 3748.45,-176.446 3567.7,366.079" style="fill:none;fill-rule:nonzero;stroke:#4267b2;stroke-width:279.17px;stroke-linecap:butt;stroke-linejoin:miter;stroke-miterlimit:10;"/><path id="Path_1212" d="M36278.3,18215.7l0,1171.93c-293.187,2050.94 -1172.2,2635.97 -1172.2,2635.97c-465.05,190.75 -962.475,290.288 -1465.12,293.183c-502.638,-2.895 -1000.06,-102.433 -1465.11,-293.183c-465.05,-190.746 -879.012,-586.1 -1171.93,-2635.97l0,-1171.93" style="fill:none;fill-rule:nonzero;stroke:#212829;stroke-width:279.17px;stroke-linecap:butt;stroke-linejoin:miter;stroke-miterlimit:10;"/><path id="Path_1214" d="M31004,18215.7c0,-1780.09 856.958,-2635.97 2635.97,-2635.97c1779.01,-0 2635.97,857.229 2635.97,2635.97" style="fill:none;fill-rule:nonzero;stroke:#212829;stroke-width:279.17px;stroke-linecap:butt;stroke-linejoin:miter;stroke-miterlimit:10;"/><path id="Path_1468" d="M2302.8,2707.59l4970.92,-0" style="fill:none;fill-rule:nonzero;stroke:#000;stroke-width:262.13px;"/><path id="Path_1469" d="M2302.8,3840.53l4970.92,0" style="fill:none;fill-rule:nonzero;stroke:#000;stroke-width:262.13px;"/><path id="Path_1470" d="M2302.8,4973.54l4970.92,-0" style="fill:none;fill-rule:nonzero;stroke:#000;stroke-width:262.13px;"/></g></svg>