<?xml version="1.0" encoding="UTF-8" standalone="no"?><!DOCTYPE svg PUBLIC "-//W3C//DTD SVG 1.1//EN" "http://www.w3.org/Graphics/SVG/1.1/DTD/svg11.dtd"><svg width="100%" height="100%" viewBox="0 0 367 610" version="1.1" xmlns="http://www.w3.org/2000/svg" xmlns:xlink="http://www.w3.org/1999/xlink" xml:space="preserve" xmlns:serif="http://www.serif.com/" style="fill-rule:evenodd;clip-rule:evenodd;stroke-linejoin:round;stroke-miterlimit:2;"><g id="Group_345"><g id="Group_279"><g id="_"><path d="M131.316,344.452l67.965,14.337l8.228,-18.95c34.809,-9.111 87.97,-31.746 100.028,-88.908c13.762,-65.235 -25.948,-104.141 -91.19,-117.904c-52.661,-11.109 -97.248,-0.318 -128.814,42.346l59.831,32.837c8.889,-13.169 28.106,-21.808 51.961,-16.776c27.006,5.697 36.996,25.199 31.394,51.754c-6.932,32.857 -35.984,50.235 -98.319,58.241l-1.084,43.023Zm15.253,116.987c27.889,5.883 51.859,-9.746 57.746,-37.651c5.878,-27.861 -9.74,-51.829 -37.629,-57.713c-27.889,-5.883 -51.857,9.735 -57.74,37.624c-5.881,27.877 9.733,51.857 37.623,57.74Z" style="fill:#f53c37;fill-rule:nonzero;"/></g></g></g></svg>