<svg xmlns="http://www.w3.org/2000/svg" width="203.69" height="122.045" viewBox="0 0 203.69 122.045">
  <g id="Group_335" data-name="Group 335" transform="translate(-1031 -2603.843)">
    <g id="Group_334" data-name="Group 334" transform="translate(1031 2605.343)">
      <path id="Path_2615" data-name="Path 2615" d="M244.37-201.32a7.389,7.389,0,0,1-2.139,5.271,7.389,7.389,0,0,1-5.25,2.19H80.713a7.389,7.389,0,0,1-7.389-7.317C73.082-226.116,72.3-306.251,72.3-306.251a6.654,6.654,0,0,1,6.654-6.653H236.7a6.653,6.653,0,0,1,6.653,6.653S244.125-226.421,244.37-201.32Z" transform="translate(-42.18 312.904)" fill="#fff" stroke="#000" stroke-linejoin="round" stroke-width="3"/>
      <path id="Path_2616" data-name="Path 2616" d="M246.729-191.572H87.108L86.017-299.191h159.62Z" transform="translate(-50.18 304.904)" fill="none" stroke="#000" stroke-linejoin="round" stroke-width="3"/>
      <path id="Path_2617" data-name="Path 2617" d="M245.637-293.223H86.017v-5.968h159.62Z" transform="translate(-50.18 304.904)"/>
      <path id="Path_2618" data-name="Path 2618" d="M456-292.675l3.229-3.229" transform="translate(-266.021 302.987)" fill="none" stroke="#fff" stroke-linecap="round" stroke-linejoin="round" stroke-width="1.602"/>
      <path id="Path_2619" data-name="Path 2619" d="M456-295.9l3.229,3.229" transform="translate(-266.021 302.987)" fill="none" stroke="#fff" stroke-linecap="round" stroke-linejoin="round" stroke-width="1.602"/>
      <path id="Path_2620" data-name="Path 2620" d="M319.134-294.311a1.63,1.63,0,0,1-1.63,1.63H237.971a1.63,1.63,0,0,1-1.63-1.63v0a1.63,1.63,0,0,1,1.63-1.63H317.5a1.632,1.632,0,0,1,1.153.477,1.631,1.631,0,0,1,.477,1.152Z" transform="translate(-137.875 303.009)" stroke="#fff" stroke-linejoin="round" stroke-width="1.602"/>
      <path id="Path_2621" data-name="Path 2621" d="M94.133-294.854a1.008,1.008,0,0,1,1.008,1.007,1.008,1.008,0,0,1-1.008,1.008,1.008,1.008,0,0,1-1.007-1.008A1.008,1.008,0,0,1,94.133-294.854Z" transform="translate(-54.327 302.374)" fill="#fff" fill-rule="evenodd"/>
      <path id="Path_2622" data-name="Path 2622" d="M103.687-294.854a1.008,1.008,0,0,1,1.007,1.007,1.008,1.008,0,0,1-1.007,1.008,1.008,1.008,0,0,1-1.008-1.008A1.008,1.008,0,0,1,103.687-294.854Z" transform="translate(-59.9 302.374)" fill="#fff" fill-rule="evenodd"/>
      <path id="Path_2623" data-name="Path 2623" d="M113.24-294.854a1.008,1.008,0,0,1,1.007,1.007,1.008,1.008,0,0,1-1.007,1.008,1.008,1.008,0,0,1-1.007-1.008A1.008,1.008,0,0,1,113.24-294.854Z" transform="translate(-65.474 302.374)" fill="#f53c37" fill-rule="evenodd"/>
      <path id="Path_2624" data-name="Path 2624" d="M197.666-96.831,137.86-96.8l0,1.442,59.807-.032Z" transform="translate(-80.424 186.853)"/>
      <path id="Path_2625" data-name="Path 2625" d="M191.367-107.2l-53.522.024,0,1.442,53.522-.024Z" transform="translate(-80.415 192.899)"/>
      <path id="Path_2626" data-name="Path 2626" d="M197.636-117.6l-59.806.033,0,1.442,59.806-.032Z" transform="translate(-80.407 198.969)"/>
      <path id="Path_2627" data-name="Path 2627" d="M197.621-127.986l-59.806.033,0,1.442,59.806-.032Z" transform="translate(-80.398 205.028)"/>
      <path id="Path_2628" data-name="Path 2628" d="M197.709-65.678l-59.806.032,0,1.442,59.807-.032Z" transform="translate(-80.449 168.679)"/>
      <path id="Path_2629" data-name="Path 2629" d="M197.694-76.063l-59.806.032,0,1.442,59.806-.032Z" transform="translate(-80.44 174.737)"/>
      <path id="Path_2630" data-name="Path 2630" d="M190.811-86.424l-52.936.023,0,1.442,52.936-.023Z" transform="translate(-80.433 180.781)"/>
      <path id="Path_2631" data-name="Path 2631" d="M56.567-239.8H15.632A15.677,15.677,0,0,0,0-224.166v1.309a15.678,15.678,0,0,0,15.632,15.631H41.14l8.554,6.737v-6.737h6.873A15.678,15.678,0,0,0,72.2-222.857v-1.309A15.678,15.678,0,0,0,56.567-239.8Z" transform="translate(0 270.255)" fill="#f53c37"/>
      <path id="Path_2632" data-name="Path 2632" d="M49.8-205.64a2.816,2.816,0,0,1-2.816,2.816,2.817,2.817,0,0,1-2.817-2.816,2.817,2.817,0,0,1,2.817-2.817A2.817,2.817,0,0,1,49.8-205.64Z" transform="translate(-25.764 251.972)" fill="#fff"/>
      <path id="Path_2633" data-name="Path 2633" d="M85.52-205.64a2.816,2.816,0,0,1-2.816,2.816,2.816,2.816,0,0,1-2.817-2.816,2.817,2.817,0,0,1,2.817-2.817A2.817,2.817,0,0,1,85.52-205.64Z" transform="translate(-46.604 251.972)" fill="#fff"/>
      <path id="Path_2634" data-name="Path 2634" d="M121.242-205.64a2.817,2.817,0,0,1-2.817,2.816,2.816,2.816,0,0,1-2.816-2.816,2.817,2.817,0,0,1,2.816-2.817A2.817,2.817,0,0,1,121.242-205.64Z" transform="translate(-67.443 251.972)" fill="#fff"/>
    </g>
    <g id="Icon_feather-youtube" data-name="Icon feather-youtube" transform="translate(1119.981 2631.49)">
      <path id="Path_2613" data-name="Path 2613" d="M54.908,12A6.893,6.893,0,0,0,50.1,7.041C45.833,6,28.774,6,28.774,6S11.716,6,7.451,7.141A6.893,6.893,0,0,0,2.641,12.1,71.9,71.9,0,0,0,1.5,25.216,71.9,71.9,0,0,0,2.641,38.431a6.893,6.893,0,0,0,4.81,4.761c4.265,1.141,21.323,1.141,21.323,1.141s17.059,0,21.323-1.141a6.893,6.893,0,0,0,4.81-4.959,71.9,71.9,0,0,0,1.141-13.017A71.9,71.9,0,0,0,54.908,12Z" transform="translate(-1.499 -6)" fill="none" stroke="#f53c37" stroke-linecap="round" stroke-linejoin="round" stroke-width="3"/>
      <path id="Path_2614" data-name="Path 2614" d="M14.625,28.936l14.257-8.108L14.625,12.72Z" transform="translate(7.072 -1.612)" fill="none" stroke="#f53c37" stroke-linecap="round" stroke-linejoin="round" stroke-width="3"/>
    </g>
  </g>
</svg>
