<?xml version="1.0" encoding="UTF-8" standalone="no"?><!DOCTYPE svg PUBLIC "-//W3C//DTD SVG 1.1//EN" "http://www.w3.org/Graphics/SVG/1.1/DTD/svg11.dtd"><svg width="100%" height="100%" viewBox="0 0 44534 41667" version="1.1" xmlns="http://www.w3.org/2000/svg" xmlns:xlink="http://www.w3.org/1999/xlink" xml:space="preserve" xmlns:serif="http://www.serif.com/" style="fill-rule:evenodd;clip-rule:evenodd;stroke-linecap:round;stroke-linejoin:round;"><g id="Artboard1"><g><path d="M16298.6,23433.1l4139.04,-7169.54l3586.56,2070.79l-4138.53,7169.54l-3587.07,-2070.79Z" style="fill:#fcba28;fill-rule:nonzero;"/><path d="M28197.9,23408.1l-4141.59,-7172.08c-534.641,-1011.19 -1787.42,-1397.52 -2798.61,-862.875c-1011.19,534.641 -1397.01,1787.42 -862.871,2798.61c23.446,44.342 48.417,87.667 74.921,130.475l4141.59,7172.08c558.6,997.934 1820.55,1354.19 2818.48,795.592c997.933,-558.596 1354.2,-1820.55 795.6,-2818.48c-9.175,-16.309 -18.35,-32.104 -27.525,-47.904l0,4.587Z" style="fill:#4d7cbf;fill-rule:nonzero;"/><path d="M18112.5,22381.7c1143.67,-0 2070.8,927.121 2070.8,2070.8c-0,1143.67 -927.129,2070.79 -2070.8,2070.79c-1143.67,0 -2070.79,-927.121 -2070.79,-2070.79c0,-1143.67 927.125,-2070.8 2070.79,-2070.8" style="fill:#2db161;fill-rule:nonzero;"/></g><path id="Path_1180" d="M11188.8,6343.88c2274.6,-570.929 4616.33,829.613 5189.46,3103.66c570.925,2274.6 -829.616,4616.33 -3103.67,5189.46c-2274.6,570.925 -4616.33,-829.617 -5189.46,-3103.67c-570.925,-2274.6 829.617,-4616.33 3103.67,-5189.46l0,0.004Z" style="fill:none;fill-rule:nonzero;stroke:#000;stroke-width:437.08px;"/><g id="_"><g><g transform="matrix(0.969797,-0.243912,0.243912,0.969797,-2781.43,3125.43)"><text x="11229.5px" y="12793.9px" style="font-family:'Barlow-Bold', 'Barlow';font-weight:700;font-size:5536.21px;fill:#f53c37;">$</text></g></g></g><g id="_1" serif:id="_"><g><g transform="matrix(0.981097,-0.193517,0.193517,0.981097,-5381,6873.62)"><text x="32493.2px" y="30980.3px" style="font-family:'Barlow-Bold', 'Barlow';font-weight:700;font-size:22980.9px;fill:none;stroke:#f53c37;stroke-width:225.71px;stroke-linecap:butt;stroke-miterlimit:2;">?</text></g></g></g><path id="Path_1061" d="M9544.96,35049.3l-2201.05,-2201.05l-2200.97,2201.05l2200.97,2200.75l2201.05,-2200.75Z" style="fill:none;fill-rule:nonzero;stroke:#f53c37;stroke-width:225px;"/><path id="Path_1181" d="M40322.9,34478.9c924.967,776.137 1047.43,2175.94 271.296,3100.9c-776.138,924.967 -2175.94,1047.43 -3100.9,271.296c-924.967,-776.142 -1047.43,-2175.94 -271.296,-3100.91c776.442,-924.429 2175.74,-1046.85 3100.9,-271.292Z" style="fill:#ffd525;fill-rule:nonzero;stroke:#000;stroke-width:225px;"/><path id="Path_11811" serif:id="Path_1181" d="M2504.92,28899.1c594.02,-602.646 1578.73,-609.741 2181.38,-15.721c602.641,594.021 609.737,1578.73 15.716,2181.38c-594.02,602.646 -1578.73,609.742 -2181.37,15.717c-602.255,-594.2 -609.346,-1578.55 -15.721,-2181.37Z" style="fill:#ffd525;fill-rule:nonzero;stroke:#000;stroke-width:225px;"/><path id="Path_1066" d="M5557.5,2742.43l-591.058,1438.76l1185.72,1006.33l-1550.51,-117.146l-590.763,1438.62l-367.716,-1511.14l-1550.81,-117.3l1323.57,-816.729l-367.492,-1511.21l1185.72,1006.48l1323.34,-816.654Z" style="fill:none;fill-rule:nonzero;stroke:#000;stroke-width:225px;"/><g id="_2"><g><g transform="matrix(0.766044,0.642788,-0.642788,0.766044,32239.4,-15594.6)"><text x="37542.5px" y="36491.2px" style="font-family:'Barlow-Bold', 'Barlow';font-weight:700;font-size:3224.92px;">$</text></g></g></g><g id="_21" serif:id="_2"><g><g transform="matrix(0.701993,-0.712184,0.712184,0.701993,-20926.1,11898.6)"><text x="3754.78px" y="30954.1px" style="font-family:'Barlow-Bold', 'Barlow';font-weight:700;font-size:2260.04px;">$</text></g></g></g><path id="Path_1182" d="M19101.5,1650.14c8904.76,3.665 16231.1,7330.02 16234.8,16234.8c-3.638,8904.74 -7329.99,16231.1 -16234.8,16234.8c-8904.74,-3.665 -16231.1,-7330.02 -16234.8,-16234.8c3.665,-8904.74 7330.02,-16231.1 16234.8,-16234.8Z" style="fill:none;fill-rule:nonzero;stroke:#000;stroke-width:334.4px;stroke-dasharray:1504.78,2507.97,0,0;"/></g></svg>