<svg xmlns="http://www.w3.org/2000/svg" width="196.921" height="146.951" viewBox="0 0 196.921 146.951">
  <g id="Group_331" data-name="Group 331" transform="translate(12.148 208.177)">
    <path id="Path_2564" data-name="Path 2564" d="M0-213.374H120.328V-226.5H0Z" transform="translate(-11.648 25.373)" fill="#fff" stroke="#000" stroke-width="1" fill-rule="evenodd"/>
    <path id="Path_2565" data-name="Path 2565" d="M171.031-222.974a3.041,3.041,0,0,1,3.04,3.04,3.041,3.041,0,0,1-3.04,3.039,3.04,3.04,0,0,1-3.039-3.039A3.04,3.04,0,0,1,171.031-222.974Z" transform="translate(-70 24.373)" fill="none" stroke="#000" stroke-linecap="round" stroke-linejoin="round" stroke-width="1.3"/>
    <path id="Path_2566" data-name="Path 2566" d="M173.271-217.611l2.161,2.124" transform="translate(-70 24.373)" fill="none" stroke="#000" stroke-linecap="round" stroke-linejoin="round" stroke-width="1.3"/>
    <path id="Path_2567" data-name="Path 2567" d="M16.036-126.358a.98.98,0,0,0-.981.978v9.285a.981.981,0,0,0,.981.979H25.32a.979.979,0,0,0,.979-.979v-9.285a.978.978,0,0,0-.979-.978Z" transform="translate(-14.812 -6)"/>
    <path id="Path_2568" data-name="Path 2568" d="M42.934-152.322a.98.98,0,0,0-.981.978v9.285a.982.982,0,0,0,.981.98h9.284a.98.98,0,0,0,.979-.98v-9.285a.978.978,0,0,0-.979-.978Z" fill="#f53c37"/>
    <path id="Path_2569" data-name="Path 2569" d="M42.934-179.28a.98.98,0,0,0-.981.979v9.284a.982.982,0,0,0,.981.98h9.284a.98.98,0,0,0,.979-.98V-178.3a.978.978,0,0,0-.979-.979Z" fill="#f53c37"/>
    <path id="Path_2570" data-name="Path 2570" d="M103.571-126.359h-70.3a.9.9,0,0,0-.783.979v9.285a.9.9,0,0,0,.783.979h70.3a.9.9,0,0,0,.783-.979v-9.285A.9.9,0,0,0,103.571-126.359Z" transform="translate(-14.812 -6)"/>
    <path id="Path_2571" data-name="Path 2571" d="M148.339-152.323H60.368a.979.979,0,0,0-.979.979v9.285a.98.98,0,0,0,.979.98h87.971a.98.98,0,0,0,.98-.98v-9.285A.979.979,0,0,0,148.339-152.323Z" fill="#f53c37"/>
    <path id="Path_2572" data-name="Path 2572" d="M148.339-179.281H60.368a.979.979,0,0,0-.979.98v9.284a.98.98,0,0,0,.979.98h87.971a.98.98,0,0,0,.98-.98V-178.3A.979.979,0,0,0,148.339-179.281Z" fill="#f53c37"/>
    <path id="Path_2573" data-name="Path 2573" d="M87.114-101.658a.982.982,0,0,0-.981.98v9.285a.982.982,0,0,0,.981.979H96.4a.98.98,0,0,0,.979-.979v-9.285a.98.98,0,0,0-.979-.98Z" transform="translate(-14.812 -10.738)"/>
    <path id="Path_2574" data-name="Path 2574" d="M174.649-101.658h-70.3a.9.9,0,0,0-.782.98v9.285a.9.9,0,0,0,.782.979h70.3a.9.9,0,0,0,.783-.979v-9.285A.9.9,0,0,0,174.649-101.658Z" transform="translate(-14.812 -10.738)"/>
    <path id="Path_2575" data-name="Path 2575" d="M42.934-76.956a.982.982,0,0,0-.981.979v9.284a.982.982,0,0,0,.981.981h9.284a.98.98,0,0,0,.979-.981v-9.284a.98.98,0,0,0-.979-.979Z" transform="translate(-14.812 -15.475)"/>
    <path id="Path_2576" data-name="Path 2576" d="M130.469-76.956h-70.3a.9.9,0,0,0-.783.979v9.284a.9.9,0,0,0,.783.979h70.3a.9.9,0,0,0,.782-.979v-9.284A.9.9,0,0,0,130.469-76.956Z" transform="translate(-14.812 -15.475)"/>
    <path id="Path_2577" data-name="Path 2577" d="M69.4-52.254a.981.981,0,0,0-.981.978v9.285a.981.981,0,0,0,.981.979h9.284a.979.979,0,0,0,.979-.979v-9.285a.979.979,0,0,0-.979-.978Z" transform="translate(-14.812 -20.214)"/>
    <path id="Path_2578" data-name="Path 2578" d="M156.938-52.254h-70.3a.9.9,0,0,0-.783.978v9.285a.9.9,0,0,0,.783.979h70.3a.9.9,0,0,0,.783-.979v-9.285A.9.9,0,0,0,156.938-52.254Z" transform="translate(-14.812 -20.214)"/>
    <path id="Path_2579" data-name="Path 2579" d="M163.493-150.46,166-152.513l-9.271-11.312-2.5,2.053Z" fill="#fff" stroke="#000" stroke-linejoin="round" stroke-width="0.719"/>
    <path id="Path_2580" data-name="Path 2580" d="M122.5-165.545a22.264,22.264,0,0,0,31.48,2.854,22.219,22.219,0,0,0,3.344-31.394,22.538,22.538,0,0,0-31.681-3.141A22.537,22.537,0,0,0,122.5-165.545Zm-2.457,2.015a25.72,25.72,0,0,1,3.585-36.154,25.72,25.72,0,0,1,36.154,3.585,25.721,25.721,0,0,1-3.586,36.154A25.719,25.719,0,0,1,120.039-163.53Z"/>
    <path id="Path_2581" data-name="Path 2581" d="M124.28-167.852a22.539,22.539,0,0,0,31.682,3.141,22.537,22.537,0,0,0,3.14-31.682,22.538,22.538,0,0,0-31.681-3.141A22.54,22.54,0,0,0,124.28-167.852Zm-2.457,2.014a25.717,25.717,0,0,1,3.585-36.154,25.72,25.72,0,0,1,36.154,3.585,25.721,25.721,0,0,1-3.586,36.154A25.718,25.718,0,0,1,121.823-165.838Z" fill="#fff" stroke="#000" stroke-linejoin="round" stroke-width="0.719"/>
    <path id="Path_2582" data-name="Path 2582" d="M162.643-154.313a5.376,5.376,0,0,1,7.529.867l13.082,16.491a5.372,5.372,0,0,1-.868,7.527,5.375,5.375,0,0,1-7.529-.866l-13.082-16.491A5.374,5.374,0,0,1,162.643-154.313Z" fill="#fff" stroke="#000" stroke-linejoin="round" stroke-width="0.719"/>
    <path id="Path_2583" data-name="Path 2583" d="M124.954-179.3a11.373,11.373,0,0,0,1.283,5.991,20.081,20.081,0,0,0,3.684,4.726c1.112,1.117,2.693-.747,1.592-1.856-2.264-2.276-4.327-5.048-4.157-8.424a1.261,1.261,0,0,0-.982-1.421A1.227,1.227,0,0,0,124.954-179.3Z" fill="#fff" stroke="#000" stroke-linejoin="round" stroke-width="0.719"/>
    <path id="Path_2584" data-name="Path 2584" d="M124.33-184.574a1.216,1.216,0,0,0,.131.452,1.247,1.247,0,0,0,.206.564.933.933,0,0,0,.342.319.909.909,0,0,0,.444.187,1.231,1.231,0,0,0,.914-.2,1.255,1.255,0,0,0,.507-.786,1.806,1.806,0,0,0-.059-.855,1.292,1.292,0,0,0-.265-.488.907.907,0,0,0-.341-.319.928.928,0,0,0-.444-.188.927.927,0,0,0-.482.019.924.924,0,0,0-.432.179,1.225,1.225,0,0,0-.506.785Z" fill="#fff" stroke="#000" stroke-linejoin="round" stroke-width="0.719"/>
  </g>
</svg>
