<svg xmlns="http://www.w3.org/2000/svg" xmlns:xlink="http://www.w3.org/1999/xlink" width="258.189" height="140.734" viewBox="0 0 258.189 140.734">
  <defs>
    <clipPath id="clip-path">
      <path id="Path_2595" data-name="Path 2595" d="M30.251-294.041A28.765,28.765,0,0,1,59-265.29a28.765,28.765,0,0,1-28.751,28.751A28.765,28.765,0,0,1,1.5-265.29,28.765,28.765,0,0,1,30.251-294.041Z" transform="translate(-1.5 294.041)" fill="none" clip-rule="evenodd"/>
    </clipPath>
  </defs>
  <g id="Group_333" data-name="Group 333" transform="translate(0 295.541)">
    <path id="Path_2585" data-name="Path 2585" d="M83.183-258.082a41.39,41.39,0,0,1,41.37,41.37,41.39,41.39,0,0,1-41.37,41.37,41.39,41.39,0,0,1-41.37-41.37A41.39,41.39,0,0,1,83.183-258.082Z" transform="translate(-13.726 -12.244)" fill="none" stroke="#f53c37" stroke-linecap="round" stroke-linejoin="round" stroke-width="5.28"/>
    <path id="Path_2586" data-name="Path 2586" d="M317.491-268.793a34.072,34.072,0,0,1,34.056,34.056,34.073,34.073,0,0,1-34.056,34.056,34.072,34.072,0,0,1-34.056-34.056A34.071,34.071,0,0,1,317.491-268.793Z" transform="translate(-95.997 -8.597)" fill="none" stroke="#f53c37" stroke-linecap="round" stroke-linejoin="round" stroke-width="5.28"/>
    <path id="Path_2587" data-name="Path 2587" d="M189.913-99.358l1.167-16.69,15.855-5.343" transform="translate(-85.717 -57.786)" fill="none" stroke="#f53c37" stroke-linecap="round" stroke-miterlimit="10" stroke-width="4.38"/>
    <path id="Path_2588" data-name="Path 2588" d="M267.715-125.75s-27.972,44.028-76.033,8.217" transform="translate(-86.319 -56.302)" fill="none" stroke="#f53c37" stroke-linecap="round" stroke-linejoin="round" stroke-miterlimit="10" stroke-width="4.38"/>
    <path id="Path_2589" data-name="Path 2589" d="M30.251-294.041A28.765,28.765,0,0,1,59-265.29a28.765,28.765,0,0,1-28.751,28.751A28.765,28.765,0,0,1,1.5-265.29,28.765,28.765,0,0,1,30.251-294.041Z" fill="#fff" fill-rule="evenodd"/>
    <g id="Group_332" data-name="Group 332" transform="translate(1.5 -294.041)" clip-path="url(#clip-path)">
      <path id="Path_2590" data-name="Path 2590" d="M8.5-248.929s-14.871,12.02-20.528,19.417-14.179,33.431-5.09,40.546c0,0,22.965,13.132,40.507-9.879s11.236-47.294,11.422-52.875,2.512-11.27.784-15.768-10.663-10.11-13.486-5.246S15.529-254.019,8.5-248.929Z" transform="translate(6.196 287.425)" fill="#f53c37" stroke="#000" stroke-linejoin="round" stroke-miterlimit="10" stroke-width="3"/>
      <path id="Path_2591" data-name="Path 2591" d="M40.969-241.159,34.5-226.148c-1.095,2.728,2.933,12.415,8.638,10.653,1.674-.514,1.476-4.932,1.389-8.241l1.415-12.833Z" transform="translate(-12.675 276.035)" fill="#fff" stroke="#000" stroke-linejoin="round" stroke-miterlimit="10" stroke-width="3"/>
      <path id="Path_2592" data-name="Path 2592" d="M45.309-258.212a37.242,37.242,0,0,0-1.9,7.631c-.445,4.859,2.535,7.476,7.309,8.575,4.658,1.075,6.387.228,7.746-2.92a10.866,10.866,0,0,0,.82-3.081,14.942,14.942,0,0,0-1.327-7.208,24.523,24.523,0,0,1-1.027-3.282C54.987-264.067,48.159-264.714,45.309-258.212Z" transform="translate(-15.756 283.432)" fill="#fff" stroke="#000" stroke-linejoin="round" stroke-miterlimit="10" stroke-width="3"/>
      <path id="Path_2593" data-name="Path 2593" d="M41.556-251.826a8.484,8.484,0,0,1-.352-1.718c-.123-1.105-.569-2.724-2.128-1.731-2.278,1.445-1.291,7.311,1.516,7.451C42.677-247.718,42.03-250.424,41.556-251.826Z" transform="translate(-13.865 280.947)" fill="#ff8679" stroke="#000" stroke-linejoin="round" stroke-miterlimit="10" stroke-width="3"/>
      <path id="Path_2594" data-name="Path 2594" d="M37.186-265.629a7.826,7.826,0,0,0-6.335,4.645c-1.988,4.422-6.485,20.463-7.787,24.381s-10.1,3.917-16.4,5.73S-6.1-219.009-7.2-216.44c0,0,4.8-16.91,10.1-22.833S13.5-251.361,16.4-255.455s5.09-18.211,10.429-18.294S37.186-265.629,37.186-265.629Z" transform="translate(1.462 287.132)" fill="#f53c37" stroke="#000" stroke-linejoin="round" stroke-miterlimit="10" stroke-width="3"/>
    </g>
    <path id="Path_2596" data-name="Path 2596" d="M30.251-294.041A28.765,28.765,0,0,1,59-265.29a28.765,28.765,0,0,1-28.751,28.751A28.765,28.765,0,0,1,1.5-265.29,28.765,28.765,0,0,1,30.251-294.041Z" fill="none" stroke="#000" stroke-linecap="round" stroke-linejoin="round" stroke-miterlimit="10" stroke-width="3"/>
    <path id="Path_2597" data-name="Path 2597" d="M86.814-161.136h62.273v-48.622H86.814Z" transform="translate(-29.049 -28.698)" fill="#fff" stroke="#000" stroke-linejoin="round" stroke-miterlimit="10" stroke-width="2.028"/>
    <path id="Path_2598" data-name="Path 2598" d="M185.826-161.136h3.5v-48.622h-3.5Z" transform="translate(-62.762 -28.698)" fill="#fff" stroke="#000" stroke-linejoin="round" stroke-miterlimit="10" stroke-width="2.028"/>
    <path id="Path_2599" data-name="Path 2599" d="M86.814-216.612h68.8v-4.034h-68.8Z" transform="translate(-29.049 -24.991)" fill="#fff" stroke="#000" stroke-linejoin="round" stroke-miterlimit="10" stroke-width="2.062"/>
    <path id="Path_2600" data-name="Path 2600" d="M100.534-194.174h31.929v-3.92H100.534Z" transform="translate(-33.721 -32.669)" fill="#f53c37"/>
    <path id="Path_2601" data-name="Path 2601" d="M100.534-184.247h47.877v-1.96H100.534Z" transform="translate(-33.721 -36.717)"/>
    <path id="Path_2602" data-name="Path 2602" d="M100.534-175.331h37.382v-1.96H100.534Z" transform="translate(-33.721 -39.753)"/>
    <path id="Path_2603" data-name="Path 2603" d="M100.534-166.415h42.513v-1.96H100.534Z" transform="translate(-33.721 -42.789)"/>
    <path id="Path_2604" data-name="Path 2604" d="M128.5-159.586H102.1a1.568,1.568,0,0,0-1.568,1.568v4.7a1.569,1.569,0,0,0,1.568,1.568h26.4a1.569,1.569,0,0,0,1.568-1.568v-4.7A1.568,1.568,0,0,0,128.5-159.586Z" transform="translate(-33.721 -45.781)" fill="#f53c37"/>
    <path id="Path_2605" data-name="Path 2605" d="M254.808-170.012h62.273v-48.622H254.808Z" transform="translate(-86.25 -25.676)" stroke="#000" stroke-linejoin="round" stroke-miterlimit="10" stroke-width="2.028"/>
    <path id="Path_2606" data-name="Path 2606" d="M353.82-170.012h3.5v-48.622h-3.5Z" transform="translate(-119.963 -25.676)" fill="#fff" stroke="#000" stroke-linejoin="round" stroke-miterlimit="10" stroke-width="2.028"/>
    <path id="Path_2607" data-name="Path 2607" d="M254.808-225.487h68.8v-4.034h-68.8Z" transform="translate(-86.25 -21.969)" fill="#fff" stroke="#000" stroke-linejoin="round" stroke-miterlimit="10" stroke-width="2.062"/>
    <path id="Path_2608" data-name="Path 2608" d="M268.527-203.05h31.929v-3.92H268.527Z" transform="translate(-90.921 -29.647)" fill="#f53c37"/>
    <path id="Path_2609" data-name="Path 2609" d="M268.527-193.122H316.4v-1.96H268.527Z" transform="translate(-90.921 -33.695)" fill="#fff"/>
    <path id="Path_2610" data-name="Path 2610" d="M268.527-184.206h37.382v-1.96H268.527Z" transform="translate(-90.921 -36.731)" fill="#fff"/>
    <path id="Path_2611" data-name="Path 2611" d="M268.527-175.29H311.04v-1.96H268.527Z" transform="translate(-90.921 -39.767)" fill="#fff"/>
    <path id="Path_2612" data-name="Path 2612" d="M296.5-168.461H270.1a1.568,1.568,0,0,0-1.568,1.568v4.7a1.568,1.568,0,0,0,1.568,1.568h26.4a1.568,1.568,0,0,0,1.568-1.568v-4.7A1.568,1.568,0,0,0,296.5-168.461Z" transform="translate(-90.921 -42.759)" fill="#f53c37"/>
  </g>
</svg>
