<?xml version="1.0" encoding="UTF-8" standalone="no"?><!DOCTYPE svg PUBLIC "-//W3C//DTD SVG 1.1//EN" "http://www.w3.org/Graphics/SVG/1.1/DTD/svg11.dtd"><svg width="100%" height="100%" viewBox="0 0 44534 41667" version="1.1" xmlns="http://www.w3.org/2000/svg" xmlns:xlink="http://www.w3.org/1999/xlink" xml:space="preserve" xmlns:serif="http://www.serif.com/" style="fill-rule:evenodd;clip-rule:evenodd;stroke-linecap:round;stroke-linejoin:round;"><g id="Artboard1"><path id="Path_1465" d="M13429.8,3420.39c3640.43,1.284 6635.69,2996.51 6636.98,6636.98c-1.284,3640.44 -2996.52,6635.69 -6636.98,6636.98c-3640.44,-1.278 -6635.69,-2996.51 -6636.98,-6636.98c1.284,-3640.43 2996.52,-6635.69 6636.98,-6636.98Z" style="fill:none;fill-rule:nonzero;stroke:#000;stroke-width:297.97px;"/><path id="Path_1466" d="M9333.31,23697.8c4261.83,2.035 7768.17,3508.37 7770.2,7770.2c-1.998,4261.86 -3508.35,7768.24 -7770.2,7770.28c-4261.98,-1.85 -7768.55,-3508.27 -7770.53,-7770.28c2.036,-4261.96 3508.57,-7768.35 7770.53,-7770.2Z" style="fill:none;fill-rule:nonzero;stroke:#000;stroke-width:202.57px;stroke-dasharray:607.7,1012.84,0,0;"/><g><rect x="8106.44" y="20833.3" width="14160.2" height="12185.7" style="fill:#fff;fill-rule:nonzero;"/><path d="M19988,32856.6l0,-1787.11l2116.09,-0l0,1787.11l-2116.09,0Zm-2360.04,0l0,-1787.11l2197.42,-0l-0,1787.11l-2197.42,0Zm-2360.04,0l0,-1787.11l2197.42,-0l-0,1787.11l-2197.42,0Zm-2360.04,0l0,-1787.11l2197.42,-0l-0,1787.11l-2197.42,0Zm-2360.04,0l0,-1787.11l2197.42,-0l-0,1787.11l-2197.42,0Zm-2278.71,0l-0,-1787.11l2116.09,-0l-0,1787.11l-2116.09,0Zm2116.09,-11860.5l-0,1786.73l-2116.09,-0l-0,-1786.73l2116.09,0Zm2360.04,0l-0,1786.73l-2197.42,-0l0,-1786.73l2197.42,0Zm2360.04,0l-0,1786.73l-2197.42,-0l0,-1786.73l2197.42,0Zm2360.04,0l-0,1786.73l-2197.42,-0l0,-1786.73l2197.42,0Zm2360.04,0l-0,1786.73l-2197.42,-0l0,-1786.73l2197.42,0Zm162.623,3817.87l0,-1868.32l2116.09,-0l0,1868.32l-2116.09,-0Zm0,2031.14l0,-1868.33l2116.09,-0l0,1868.33l-2116.09,0Zm0,2030.76l0,-1868.33l2116.09,0l0,1868.33l-2116.09,-0Zm0,162.818l2116.09,-0l0,1868.33l-2116.09,-0l0,-1868.33Zm-2360.04,-0l2197.42,-0l-0,1868.33l-2197.42,-0l0,-1868.33Zm-2360.04,-0l2197.42,-0l-0,1868.33l-2197.42,-0l0,-1868.33Zm-2360.04,-0l2197.42,-0l-0,1868.33l-2197.42,-0l0,-1868.33Zm-2360.04,-0l2197.42,-0l-0,1868.33l-2197.42,-0l0,-1868.33Zm-162.623,-0l-0,1868.33l-2116.09,-0l-0,-1868.33l2116.09,-0Zm-0,-2031.14l-0,1868.33l-2116.09,-0l-0,-1868.33l2116.09,0Zm-0,-2030.76l-0,1868.33l-2116.09,0l-0,-1868.33l2116.09,-0Zm-0,-162.818l-2116.09,-0l-0,-1868.32l2116.09,-0l-0,1868.32Zm2360.04,-0l-2197.42,-0l0,-1868.32l2197.42,-0l-0,1868.32Zm2360.04,-0l-2197.42,-0l0,-1868.32l2197.42,-0l-0,1868.32Zm2360.04,-0l-2197.42,-0l0,-1868.32l2197.42,-0l-0,1868.32Zm162.623,-0l0,-1868.32l2197.42,-0l-0,1868.32l-2197.42,-0Zm0,2031.14l0,-1868.33l2197.42,-0l-0,1868.33l-2197.42,0Zm0,162.429l2197.42,0l-0,1868.33l-2197.42,-0l0,-1868.33Zm-2360.04,0l2197.42,0l-0,1868.33l-2197.42,-0l0,-1868.33Zm-2360.04,0l2197.42,0l-0,1868.33l-2197.42,-0l0,-1868.33Zm-162.623,0l-0,1868.33l-2197.42,-0l0,-1868.33l2197.42,0Zm-0,-162.429l-2197.42,0l0,-1868.33l2197.42,-0l-0,1868.33Zm2522.67,-1868.33l2197.42,-0l-0,1868.33l-2197.42,0l0,-1868.33Zm-162.623,1868.33l-2197.42,0l0,-1868.33l2197.42,-0l-0,1868.33Zm6998.8,-5849.01l0,1786.73l-2116.09,-0l0,-1786.73l2116.09,0Zm162.624,-162.818l-14160.2,0l0,12185.7l14160.2,-0l-0,-12185.7Z" style="fill-rule:nonzero;"/><path d="M9342.38,31020.9c-36.488,0 -73.171,-12.046 -103.481,-37.305c-69.285,-57.121 -79.038,-159.709 -21.839,-228.878l2958.62,-3581.22c50.555,-61.398 138.026,-76.942 206.805,-37.305l2239.78,1295.55l2275.49,-2540.97c29.844,-33.418 71.966,-52.847 116.576,-54.014c45.232,-0.776 87.859,15.933 119.451,47.409l811.059,809.038l3045.94,-2283.34c54.83,-41.19 129.554,-43.522 186.832,-5.83c57.318,37.694 84.868,107.25 68.935,173.7l-220.366,921.727c-20.867,87.432 -108.766,141.057 -196.004,120.461c-87.354,-20.983 -141.252,-108.804 -120.345,-196.236l115.566,-483.402l-2798.14,2097.59c-64.74,48.574 -155.203,41.966 -212.402,-14.766l-789.298,-787.667l-2249.14,2511.44c-51.37,57.51 -135.889,71.112 -202.57,32.253l-2235.08,-1292.44l-2870.92,3475.13c-32.136,38.859 -78.651,59.066 -125.475,59.066Z" style="fill:#f53c37;fill-rule:nonzero;"/><path d="M21088.5,24702.9c-6.257,-0 -12.551,-0.389 -18.924,-1.165l-935.95,-108.417c-89.221,-10.491 -153.182,-90.928 -142.844,-180.305c10.336,-89.375 91.201,-153.104 180.265,-143l935.95,108.417c89.259,10.491 153.22,91.317 142.846,180.303c-9.599,82.769 -79.895,144.167 -161.343,144.167Z" style="fill:#f53c37;fill-rule:nonzero;"/><path d="M17474.3,25999.2c-0,251.417 -203.892,455.425 -455.385,455.425c-251.493,0 -455.385,-204.008 -455.385,-455.425c0,-251.415 203.892,-455.423 455.385,-455.423c251.493,0 455.385,204.008 455.385,455.423Z" style="fill:#f53c37;fill-rule:nonzero;"/><path d="M15067.3,28588.4c0,251.417 -203.891,455.425 -455.385,455.425c-251.492,-0 -455.384,-204.008 -455.384,-455.425c-0,-251.415 203.892,-455.423 455.384,-455.423c251.494,-0 455.385,204.008 455.385,455.423Z" style="fill:#f53c37;fill-rule:nonzero;"/><path d="M12756.4,27288.5c-0,251.417 -203.853,455.425 -455.385,455.425c-251.494,0 -455.385,-204.008 -455.385,-455.425c0,-251.415 203.891,-455.423 455.385,-455.423c251.532,0 455.385,204.008 455.385,455.423Z" style="fill:#f53c37;fill-rule:nonzero;"/><path d="M18385.1,27039.1c0,251.417 -203.889,455.425 -455.384,455.425c-251.493,-0 -455.385,-204.008 -455.385,-455.425c-0,-251.415 203.892,-455.423 455.385,-455.423c251.495,0 455.384,204.008 455.384,455.423Z" style="fill:#f53c37;fill-rule:nonzero;"/><path d="M9797.85,30858.5c0,251.415 -203.892,455.034 -455.385,455.034c-251.494,-0 -455.386,-203.619 -455.386,-455.034c0,-251.806 203.892,-455.425 455.386,-455.425c251.493,0 455.385,203.619 455.385,455.425Z" style="fill:#f53c37;fill-rule:nonzero;"/></g><g><rect x="21617.5" y="30261" width="1503.96" height="3556.24" style="fill:#fff;stroke:#000;stroke-width:131.45px;stroke-miterlimit:1.5;"/><rect x="24363.9" y="18294.7" width="1503.96" height="15522.5" style="fill:#fff;stroke:#000;stroke-width:158.03px;stroke-miterlimit:1.5;"/><rect x="27110.3" y="28430.1" width="1503.96" height="5387.15" style="fill:#fff;stroke:#000;stroke-width:133.54px;stroke-miterlimit:1.5;"/><rect x="29856.6" y="19667.9" width="1503.96" height="14149.3" style="fill:#fff;stroke:#000;stroke-width:153.62px;stroke-miterlimit:1.5;"/><rect x="32603" y="11690.4" width="2288.63" height="22126.9" style="fill:#f53c37;stroke:#000;stroke-width:182.63px;stroke-miterlimit:1.5;"/></g><g><path d="M23983.1,12786.8l-541.776,-361.019c364.142,-473.977 412.466,-1106.42 159.997,-1743.36c-388.973,-981.325 -1277.16,-1365.22 -2457.31,-897.439c-457.778,181.451 -747.448,418.93 -933.454,645.981c-214.154,-76.069 -456.439,-49.03 -747.973,66.527c-357.845,141.841 -514.477,249.924 -671.108,358.006l399.165,1007.04l424.34,-168.198l1064.69,2686.05c-124.71,72.483 -285.204,151.466 -417.81,204.028l380.865,922.159l2054.57,-814.381l-354.345,-932.671c-132.606,52.562 -303.628,104.983 -444.13,137.624l-202.672,-511.312l643.14,-254.925l1036.14,755.91c418.774,301.645 658.322,344.684 1188.75,134.437c212.17,-84.099 389.941,-177.562 481.517,-236.859l-335.358,-1078.33c-444.11,176.034 -551.397,195.501 -727.229,80.725Zm-3146.33,-1569.04c168.61,-97.543 366.388,-198.972 591.96,-288.383c530.757,-210.379 829.721,-37.133 977,334.43c147.279,371.564 -41.702,630.732 -585.728,846.371l-544.026,215.638l-439.206,-1108.06Z" style="fill:#f53c37;fill-rule:nonzero;"/><path d="M27808.1,12758.4c1525.12,-604.522 1976.83,-1979.49 1424.78,-3372.22c-552.05,-1392.75 -1823.09,-2084.86 -3348.22,-1480.34c-1525.14,604.528 -1976.83,1979.49 -1424.78,3372.24c552.046,1392.74 1823.08,2084.85 3348.22,1480.32Zm-430.679,-1086.54c-802.562,318.116 -1361.66,-104.919 -1671.87,-887.534c-310.21,-782.616 -172.874,-1481.71 609.789,-1791.94c802.562,-318.116 1361.66,104.932 1671.87,887.548c310.21,782.615 192.774,1473.81 -609.788,1791.93Z" style="fill:#f53c37;fill-rule:nonzero;"/><path d="M30700.4,7185.25c124.719,-72.459 285.219,-151.428 417.825,-203.99l-380.865,-922.159l-2054.57,814.381l354.344,932.671c132.607,-52.562 303.623,-104.997 444.116,-137.662l1104.12,2785.54c-124.719,72.459 -285.219,151.426 -417.826,203.988l380.866,922.158l2054.57,-814.38l-354.344,-932.671c-132.606,52.561 -303.622,104.999 -444.115,137.664l-1104.12,-2785.54Z" style="fill:#f53c37;fill-rule:nonzero;"/></g><g><path d="M20388.3,21599.8l-254.244,-239.816l76.392,-342.75c37.251,-24.14 87.432,-47.159 135.991,-66.407l-150.755,-364.573l-650.099,257.683l139.949,368.857c25.362,-6.924 46.385,-9.008 70.106,-12.161l-14.445,152.586l-366.812,-341.608c-78.43,-71.873 -150.092,-71.55 -338.917,3.295c-107.9,42.769 -221.246,103.299 -243.951,124.779l129.269,341.885c75.538,-29.942 161.303,-57.683 206.047,-62.92l254.244,239.816l-76.391,342.75c-37.252,24.14 -87.434,47.155 -135.99,66.402l150.752,364.574l650.098,-257.683l-139.946,-368.858c-25.363,6.929 -46.386,9.013 -70.107,12.166l14.447,-152.588l369.507,340.539c79.498,74.569 177.066,60.856 338.916,-3.297c105.203,-41.7 218.549,-102.228 241.258,-123.709l-129.27,-341.887c-75.541,29.943 -161.305,57.688 -206.049,62.925Z" style="fill:#f53c37;fill-rule:nonzero;"/><path d="M21664.9,21047l-603.355,-1522.18l-490.867,194.568c-92.15,161.444 -266.341,352.283 -395.014,468.868l253.81,380.328c118.947,-109.607 263.352,-257.41 326.231,-366.653l412.935,1041.78l-350.858,139.072l156.054,393.702l1146.7,-454.522l-156.054,-393.703l-299.579,118.746Z" style="fill:#f53c37;fill-rule:nonzero;"/><path d="M23053.9,20989.5c561.36,-222.509 631.85,-706.03 396.44,-1299.94c-235.412,-593.913 -618.025,-897.833 -1179.38,-675.323c-561.358,222.508 -631.849,706.028 -396.437,1299.94c235.41,593.905 618.024,897.827 1179.38,675.318Zm-164.613,-415.293c-205.232,81.349 -359.112,-38.84 -523.906,-454.592c-164.793,-415.751 -126.945,-611.943 70.186,-690.081c205.233,-81.349 359.117,38.845 523.91,454.596c164.794,415.752 135.043,608.727 -70.19,690.077Z" style="fill:#f53c37;fill-rule:nonzero;"/><path d="M24808.1,20294.1c561.36,-222.51 631.85,-706.03 396.44,-1299.94c-235.412,-593.913 -618.025,-897.833 -1179.38,-675.324c-561.358,222.509 -631.849,706.028 -396.437,1299.94c235.41,593.906 618.024,897.827 1179.38,675.319Zm-164.613,-415.294c-205.232,81.349 -359.112,-38.839 -523.906,-454.591c-164.793,-415.752 -126.945,-611.943 70.186,-690.081c205.233,-81.349 359.117,38.844 523.91,454.596c164.794,415.751 135.043,608.727 -70.19,690.076Z" style="fill:#f53c37;fill-rule:nonzero;"/></g><path d="M35467.9,17017.5l477.637,239.578l878.616,-1565.37c1069.33,-7.34 3379.76,-104.586 4461.73,-2261.65c834.015,-1662.74 223.979,-3203.71 -1553.42,-4095.24c-1556.34,-780.644 -2694.71,-529.125 -3587.51,279.194l366.65,390.141c690.242,-628.697 1619.73,-837.474 2951.47,-169.487c1463.7,734.182 1931.81,1962.7 1270.61,3280.91c-939.206,1872.45 -2719.34,2066.96 -4453.92,2096.84l-811.854,1805.09Zm-1300.49,3244.7c358.897,180.02 770.591,30.911 943.109,-313.032c172.519,-343.943 38.358,-748.139 -320.539,-928.158c-358.896,-180.02 -748.132,-38.355 -920.651,305.588c-172.519,343.942 -60.816,755.583 298.081,935.602Z" style="fill-rule:nonzero;"/><path d="M7613.32,16286.1l602.032,-275.26l-296.395,-804.801c524.86,-573.252 1311.71,-1766.21 636.534,-3242.92c-495.13,-1082.92 -1514.53,-1519.8 -2895.36,-888.462c-995.181,455.014 -1472.22,1207.53 -1400.54,2067.04l626.019,-36.268c-36.071,-495.327 171.397,-1030.6 1008.99,-1413.56c907.545,-414.945 1589.7,-226.915 1963.3,590.199c612.161,1338.88 -88.956,2230.78 -787.908,3050.27l543.323,953.763Zm1313.13,2004.48c353.984,-161.848 503.423,-563.05 341.576,-917.033c-161.847,-353.984 -563.049,-503.423 -917.033,-341.576c-344.151,157.351 -503.423,563.049 -341.576,917.033c161.847,353.984 572.882,498.927 917.033,341.576Z" style="fill-rule:nonzero;"/></g></svg>