<?xml version="1.0" encoding="UTF-8" standalone="no"?><!DOCTYPE svg PUBLIC "-//W3C//DTD SVG 1.1//EN" "http://www.w3.org/Graphics/SVG/1.1/DTD/svg11.dtd"><svg width="100%" height="100%" viewBox="0 0 1536 1150" version="1.1" xmlns="http://www.w3.org/2000/svg" xmlns:xlink="http://www.w3.org/1999/xlink" xml:space="preserve" xmlns:serif="http://www.serif.com/" style="fill-rule:evenodd;clip-rule:evenodd;stroke-linecap:round;stroke-linejoin:round;"><g id="Group_85"><path id="Path_1222" d="M841.538,4.167c198.059,0.084 361.011,163.036 361.095,361.095c-0.084,198.06 -163.036,361.012 -361.096,361.096c-198.059,-0.084 -361.011,-163.036 -361.095,-361.095c0.084,-198.06 163.036,-361.012 361.096,-361.096Z" style="fill:none;fill-rule:nonzero;stroke:#fff;stroke-width:8.33px;stroke-dasharray:37.5,62.5,0,0;"/><path id="Path_1223" d="M875.65,726.362l170.754,-357.462l29.067,272.5l170.762,-435.983l47.234,334.262l236.162,-497.758" style="fill:none;fill-rule:nonzero;stroke:#fff;stroke-width:8.33px;"/><g id="Group_84"><g id="Group"><g id="SE"><text x="314.025px" y="444.871px" style="font-family:'CorporativeSlab-Bold', 'Corporative Slab';font-weight:700;font-size:341.667px;fill:#fff;">SE</text></g><g id="O"><text x="741.167px" y="440.704px" style="font-family:'CorporativeSlab-Bold', 'Corporative Slab';font-weight:700;font-size:337.5px;fill:#fff;">O</text></g></g></g><path id="Path_1224" d="M1139.85,751.663l9.933,27.6c0,-0 -294.429,-108.205 -483.562,18.533c-0,-0 -267.129,-207.667 -487.463,-18.534l17.138,-37.299" style="fill:none;fill-rule:nonzero;stroke:#fff;stroke-width:8.33px;"/><path id="Path_1225" d="M1139.85,776.446l9.933,27.6c0,-0 -294.429,-127.142 -483.562,-0.417c-0,0 -267.129,-188.75 -487.463,0.417l17.138,-37.296" style="fill:none;fill-rule:nonzero;stroke:#fff;stroke-width:8.33px;"/><path id="Path_1226" d="M1139.85,800.996l9.933,27.6c0,-0 -293.212,-145.325 -482.35,-18.583c0,-0 -268.333,-170.55 -488.675,18.583l17.138,-37.3" style="fill:none;fill-rule:nonzero;stroke:#fff;stroke-width:8.33px;"/><path id="Path_1227" d="M1139.85,824.287l9.933,27.6c0,0 -293.212,-163.333 -482.35,-36.608c0,0 -268.333,-152.525 -488.675,36.608l17.138,-37.3" style="fill:none;fill-rule:nonzero;stroke:#fff;stroke-width:8.33px;"/><path id="Path_1228" d="M141.508,564.254l-68.679,-68.667l-68.662,68.667l68.662,68.675l68.679,-68.675Z" style="fill:none;fill-rule:nonzero;stroke:#f53c37;stroke-width:8.33px;"/><path id="Path_1229" d="M67.658,304.475l172.15,-0" style="fill:none;fill-rule:nonzero;stroke:#fff;stroke-width:8.33px;"/><path id="Path_1230" d="M67.658,343.712l172.15,0" style="fill:none;fill-rule:nonzero;stroke:#fff;stroke-width:8.33px;"/><path id="Path_1231" d="M67.658,382.954l172.15,0" style="fill:none;fill-rule:nonzero;stroke:#fff;stroke-width:8.33px;"/><path id="Path_1232" d="M264.588,1007.85c37.669,0.018 68.659,31.014 68.67,68.684c-0.025,37.66 -31.01,68.64 -68.671,68.658c-37.659,-0.018 -68.643,-30.999 -68.666,-68.658c0.011,-37.668 30.999,-68.663 68.666,-68.684Z" style="fill:none;fill-rule:nonzero;stroke:#fff;stroke-width:8.33px;"/><path id="Path_1233" d="M279.242,537.163l-49.071,-6.817l-27.321,39.654l61.304,0" style="fill:none;fill-rule:nonzero;stroke:#fff;stroke-width:8.33px;"/><path id="Path_1234" d="M1102.45,625.296l49.071,-6.817l27.321,39.654l-61.304,0" style="fill:none;fill-rule:nonzero;stroke:#fff;stroke-width:8.33px;"/><path id="Path_1235" d="M1131.86,700.192l17.87,-6.817l9.95,39.654l-17.896,0.75" style="fill:none;fill-rule:nonzero;stroke:#fff;stroke-width:8.33px;"/><path id="Path_1236" d="M246.454,605.471l-28.012,-6.8l-15.596,39.654l30.892,-2.104" style="fill:none;fill-rule:nonzero;stroke:#f00;stroke-width:8.33px;"/><path id="Path_1237" d="M311.35,467.283c0,0 167.688,-154.037 339.271,-23.4c-0,0 196.937,-144.287 391.921,15.6l107.241,296.375c0,0 -294.416,-84.804 -483.562,41.934c-0,-0 -267.129,-231.067 -487.463,-41.929l132.592,-288.58Z" style="fill:#fff;stroke:#f00;stroke-width:8.33px;"/><path id="Path_1238" d="M1002.47,491.842c-43.755,-20.447 -91.071,-32.193 -139.308,-34.584" style="fill:none;fill-rule:nonzero;stroke:#000;stroke-width:8.33px;"/><path id="Path_1239" d="M785.367,465.729c-24.389,6.65 -47.392,17.614 -67.917,32.371" style="fill:none;fill-rule:nonzero;stroke:#000;stroke-width:8.33px;"/><path id="Path_1240" d="M326.633,491.842c11.847,-6.435 24.042,-12.206 36.529,-17.288c16.298,-6.781 32.996,-12.556 50.001,-17.291" style="fill:none;fill-rule:nonzero;stroke:#000;stroke-width:8.33px;"/><path id="Path_1241" d="M438.438,451.217c14.167,-2.895 28.528,-4.748 42.966,-5.546c13.153,-0.73 26.344,-0.301 39.421,1.283c10.409,1.274 20.686,3.459 30.713,6.529c22.71,6.891 43.492,19.013 60.67,35.388" style="fill:none;fill-rule:nonzero;stroke:#000;stroke-width:8.33px;"/><path id="Path_1242" d="M1019.08,551.813c-20.589,-10.216 -42.108,-18.441 -64.262,-24.563c-14.085,-4.015 -28.393,-7.2 -42.85,-9.538" style="fill:none;fill-rule:nonzero;stroke:#000;stroke-width:8.33px;"/><path id="Path_1243" d="M871.938,513.825c-14.038,-0.481 -28.092,0.155 -42.03,1.9c-9.479,1.201 -18.875,2.99 -28.133,5.358c-25.011,6.335 -48.609,17.32 -69.558,32.38" style="fill:none;fill-rule:nonzero;stroke:#000;stroke-width:8.33px;"/><path id="Path_1244" d="M310.579,542.587c0,0 163.825,-86.895 286.863,1.667" style="fill:none;fill-rule:nonzero;stroke:#000;stroke-width:8.33px;"/><path id="Path_1245" d="M1035.68,611.783c0,0 -180.416,-78.591 -303.466,9.95" style="fill:none;fill-rule:nonzero;stroke:#000;stroke-width:8.33px;"/><path id="Path_1246" d="M293.971,602.558c25.574,-10.362 52.071,-18.279 79.137,-23.645c12.821,-2.617 26.717,-4.88 41.317,-6.417" style="fill:none;fill-rule:nonzero;stroke:#000;stroke-width:8.33px;"/><path id="Path_1247" d="M461.733,570.529c17.87,0.39 35.665,2.442 53.154,6.129c29.71,6.1 57.827,18.316 82.559,35.871" style="fill:none;fill-rule:nonzero;stroke:#000;stroke-width:8.33px;"/><path id="Path_1248" d="M1052.29,671.754c-0,0 -186.888,-60.55 -309.929,27.996" style="fill:none;fill-rule:nonzero;stroke:#000;stroke-width:8.33px;"/><path id="Path_1249" d="M279.9,658.875c0,0 186.883,-60.55 309.929,27.996" style="fill:none;fill-rule:nonzero;stroke:#000;stroke-width:8.33px;"/><path id="Path_1250" d="M650.621,443.883l15.6,353.909" style="fill:none;fill-rule:nonzero;stroke:#f00;stroke-width:8.33px;"/><path id="Path_1251" d="M885.304,384.142l-45.525,-1.054c24.438,-11.563 34.004,-34.03 13.296,-78.696l55.458,-2.588c8.396,47.621 -1.537,72.329 -23.229,82.338Z" style="fill:#fff;stroke:#f00;stroke-width:8.33px;"/><path id="Path_1252" d="M155.558,677.329l-121.804,219.4l1255.78,0l-81.195,-188.958" style="fill:none;fill-rule:nonzero;stroke:#fff;stroke-width:8.33px;"/><path id="Path_1253" d="M33.754,896.725l0,40.417l1255.78,-0l0,-40.417" style="fill:none;fill-rule:nonzero;stroke:#fff;stroke-width:8.33px;"/><path id="Path_1254" d="M571.388,828.992l26.054,9.779l-24.071,12.6l-1.983,-22.379Z" style="fill:#f00;"/><path id="Path_1255" d="M542.45,823.958l-317.742,17.838l2.084,36.987l317.729,-17.837l52.917,-21.088l-54.988,-15.9Z" style="fill:none;fill-rule:nonzero;stroke:#fff;stroke-width:8.33px;"/><path id="Path_1256" d="M542.467,823.958l1.904,33.938" style="fill:none;fill-rule:nonzero;stroke:#fff;stroke-width:8.33px;"/><path id="Path_1257" d="M240.842,842.971l1.904,33.937" style="fill:none;fill-rule:nonzero;stroke:#fff;stroke-width:8.33px;"/><path id="Path_1258" d="M741.525,452.713c-18.592,7.12 -43.367,22.195 -51.517,40.754c-2.027,4.05 -3.518,8.348 -4.437,12.783c-0.701,3.53 0.078,7.197 2.154,10.138c4.719,5.584 11.916,8.476 19.188,7.708c10.308,-0.258 22.016,-4.463 29.525,-6.504c23.516,-6.388 50.854,-13.063 71.158,-27.271c3.273,-2.149 6.259,-4.707 8.883,-7.613c5.754,-7.354 7.084,-13.558 5.867,-18.604c-1.66,-5.433 -5.526,-9.927 -10.65,-12.379c-10.826,-5.213 -22.702,-7.881 -34.717,-7.8c-11.447,0.03 -22.797,2.121 -33.504,6.171c-1.103,0.416 -1.867,1.44 -1.95,2.617Zm22.838,1.008c-0.311,-0.064 -0.626,-0.103 -0.942,-0.117c-6.134,0.287 -12.169,1.658 -17.825,4.05c-17.45,6.296 -42.196,20.359 -50.046,38.246c-1.465,3.008 -2.674,6.134 -3.612,9.346c-0.947,2.451 -0.724,5.204 0.604,7.471c3.566,4.014 8.899,6.011 14.225,5.325c9.816,-0.242 20.946,-4.35 28.087,-6.292c22.879,-6.217 49.525,-12.567 69.275,-26.392c2.793,-1.794 5.344,-3.94 7.592,-6.383c4.208,-5.379 5.633,-9.771 4.746,-13.462c-1.283,-3.79 -4.089,-6.878 -7.738,-8.517c-9.91,-4.733 -20.773,-7.135 -31.754,-7.021c-1.992,0 -3.983,0.068 -5.975,0.204c0.622,0.692 0.995,1.572 1.058,2.5c0.075,1.275 -0.458,3.254 -3.466,4.975c-0.458,0.263 -0.977,0.401 -1.505,0.401c-1.083,-0 -2.086,-0.582 -2.625,-1.522c-0.497,-0.861 -0.539,-1.914 -0.112,-2.812l0.013,-0Z" style="fill:#f00;"/><path id="Path_1259" d="M1329.81,877.242l-52.225,-34.763l-49.2,38.929l16.92,-60.416l-52.212,-34.759l62.683,-2.575l16.921,-60.416l21.821,58.821l62.683,-2.571l-49.2,38.925l21.809,58.825Z" style="fill:#fff;stroke:#fff;stroke-width:8.33px;"/></g></svg>