<?xml version="1.0" encoding="UTF-8" standalone="no"?><!DOCTYPE svg PUBLIC "-//W3C//DTD SVG 1.1//EN" "http://www.w3.org/Graphics/SVG/1.1/DTD/svg11.dtd"><svg width="100%" height="100%" viewBox="0 0 2035 3025" version="1.1" xmlns="http://www.w3.org/2000/svg" xmlns:xlink="http://www.w3.org/1999/xlink" xml:space="preserve" xmlns:serif="http://www.serif.com/" style="fill-rule:evenodd;clip-rule:evenodd;stroke-linecap:round;stroke-linejoin:round;"><g id="Group_194"><path id="Path_1487" d="M736.072,1738.85c27.438,-7.345 56.063,9.176 63.429,36.608c7.342,27.436 -9.176,56.056 -36.604,63.425c-27.436,7.341 -56.057,-9.177 -63.425,-36.605c-7.344,-27.436 9.172,-56.057 36.6,-63.428Z" style="fill-opacity:0;fill-rule:nonzero;stroke:#fff;stroke-width:8.33px;"/><path id="Path_1488" d="M1174.12,612.667l-64.913,-64.909l-64.908,64.909l64.908,64.912l64.913,-64.912Z" style="fill-opacity:0;fill-rule:nonzero;stroke:#fff;stroke-width:8.33px;"/><g id="Group_180"><g id="Group"><g id="SE"><g transform="matrix(0.961262,-0.275637,0.275637,0.961262,-402.324,178.951)"><text x="435.488px" y="1520.82px" style="font-family:'CorporativeSlab-Bold', 'Corporative Slab';font-weight:700;font-size:575px;fill:none;stroke:#fff;stroke-width:12.5px;stroke-linecap:butt;stroke-linejoin:miter;">SE</text></g></g><g id="O"><g transform="matrix(0.961262,-0.275637,0.275637,0.961262,-319.015,363.215)"><text x="1132.7px" y="1316.56px" style="font-family:'CorporativeSlab-Bold', 'Corporative Slab';font-weight:700;font-size:570.833px;fill:none;stroke:#fff;stroke-width:12.5px;stroke-linecap:butt;stroke-linejoin:miter;">O</text></g></g></g></g><path id="Path_1437" d="M763.392,1225.6c263,0.126 479.376,216.504 479.5,479.504c-0.124,263 -216.5,479.379 -479.5,479.504c-263.001,-0.125 -479.379,-216.503 -479.504,-479.504c0.125,-263 216.503,-479.378 479.504,-479.504Z" style="fill:none;fill-rule:nonzero;stroke:#fff;stroke-width:8.33px;stroke-dasharray:37.5,62.5,0,0;"/><g id="_"><g transform="matrix(0.956305,-0.292372,0.292372,0.956305,-239.068,102.364)"><text x="222.933px" y="851.004px" style="font-family:'CorporativeSlab-Bold', 'Corporative Slab';font-weight:700;font-size:795.833px;fill:#fff;">?</text></g></g><g id="_2"><g transform="matrix(0.913545,0.406737,-0.406737,0.913545,395.941,-538.084)"><text x="1463.71px" y="662.336px" style="font-family:'CorporativeSlab-Bold', 'Corporative Slab';font-weight:700;font-size:454.167px;fill:#ffd525;">?</text></g></g><g id="_3"><g transform="matrix(0.978123,0.208026,-0.208026,0.978123,531.259,-150.403)"><text x="980.721px" y="2450.67px" style="font-family:'CorporativeSlab-Bold', 'Corporative Slab';font-weight:700;font-size:1449.82px;fill:none;stroke:#f53c37;stroke-width:16.66px;stroke-linecap:butt;stroke-linejoin:miter;">?</text></g></g></g></svg>