<?xml version="1.0" encoding="UTF-8" standalone="no"?><!DOCTYPE svg PUBLIC "-//W3C//DTD SVG 1.1//EN" "http://www.w3.org/Graphics/SVG/1.1/DTD/svg11.dtd"><svg width="100%" height="100%" viewBox="0 0 2464 2053" version="1.1" xmlns="http://www.w3.org/2000/svg" xmlns:xlink="http://www.w3.org/1999/xlink" xml:space="preserve" xmlns:serif="http://www.serif.com/" style="fill-rule:evenodd;clip-rule:evenodd;stroke-linecap:round;stroke-linejoin:round;"><g id="Group_217"><path id="Path_1222" d="M1899.85,928.363c307.008,0.146 559.592,252.733 559.733,559.741c-0.144,307.007 -252.726,559.592 -559.733,559.738c-307.01,-0.142 -559.598,-252.728 -559.742,-559.738c0.142,-307.011 252.73,-559.6 559.742,-559.741Z" style="fill:none;fill-rule:nonzero;stroke:#fff;stroke-width:8.33px;stroke-dasharray:37.5,62.5,0,0;"/><path id="Path_1223" d="M1370.35,1066.51l264.7,-554.084l45.05,422.392l264.7,-675.833l73.213,518.129l366.087,-771.563" style="fill:none;fill-rule:nonzero;stroke:#fff;stroke-width:8.33px;"/><text x="609.479px" y="724.958px" style="font-family:'CorporativeSlab-Bold', 'Corporative Slab';font-weight:700;font-size:525px;fill:#fff;stroke:#fff;stroke-width:4.17px;stroke-linecap:butt;stroke-miterlimit:2;">SE</text><text x="1271.59px" y="716.625px" style="font-family:'CorporativeSlab-Bold', 'Corporative Slab';font-weight:700;font-size:512.5px;fill:#fff;stroke:#fff;stroke-width:4.17px;stroke-linecap:butt;stroke-miterlimit:2;">O</text><path id="Path_1224" d="M1889.59,1204.3l15.416,42.783c0,0 -456.396,-167.729 -749.583,28.73c-0,-0 -414.079,-321.905 -755.617,-28.73l26.567,-57.82" style="fill:none;fill-rule:nonzero;stroke:#fff;stroke-width:8.33px;"/><path id="Path_1225" d="M1889.59,1242.73l15.416,42.783c0,0 -456.396,-197.083 -749.583,-0.625c-0,0 -414.079,-292.554 -755.617,0.625l26.567,-57.816" style="fill:none;fill-rule:nonzero;stroke:#fff;stroke-width:8.33px;"/><path id="Path_1226" d="M1889.59,1280.78l15.416,42.779c0,0 -454.512,-225.266 -747.691,-28.808c-0,-0 -415.959,-264.371 -757.5,28.808l26.566,-57.821" style="fill:none;fill-rule:nonzero;stroke:#fff;stroke-width:8.33px;"/><path id="Path_1227" d="M1889.59,1316.88l15.416,42.784c0,-0 -454.529,-253.204 -747.708,-56.734c-0,0 -415.958,-236.433 -757.5,56.75l26.567,-57.833" style="fill:none;fill-rule:nonzero;stroke:#fff;stroke-width:8.33px;"/><path id="Path_1228" d="M2211.29,1734.05l-106.446,-106.442l-106.446,106.442l106.446,106.446l106.445,-106.446Z" style="fill:none;fill-rule:nonzero;stroke:#f53c37;stroke-width:8.33px;"/><path id="Path_1229" d="M741.567,1886.12l266.854,-0" style="fill:none;fill-rule:nonzero;stroke:#fff;stroke-width:8.33px;"/><path id="Path_1230" d="M741.567,1946.94l266.854,-0" style="fill:none;fill-rule:nonzero;stroke:#fff;stroke-width:8.33px;"/><path id="Path_1231" d="M741.567,2007.77l266.854,-0" style="fill:none;fill-rule:nonzero;stroke:#fff;stroke-width:8.33px;"/><path id="Path_1232" d="M110.612,1734.05c58.385,0.027 106.419,48.062 106.446,106.446c-0.027,58.384 -48.061,106.418 -106.446,106.446c-58.382,-0.03 -106.414,-48.064 -106.441,-106.446c0.027,-58.383 48.059,-106.416 106.441,-106.446Z" style="fill:none;fill-rule:nonzero;stroke:#fff;stroke-width:8.33px;"/><path id="Path_1233" d="M555.562,871.804l-76.066,-10.566l-42.354,61.47l95.033,0" style="fill:none;fill-rule:nonzero;stroke:#fff;stroke-width:8.33px;"/><path id="Path_1234" d="M1831.63,1008.42l76.067,-10.563l42.35,61.467l-95.029,0" style="fill:none;fill-rule:nonzero;stroke:#fff;stroke-width:8.33px;"/><path id="Path_1235" d="M1877.22,1124.52l27.7,-10.567l15.416,61.467l-27.737,1.162" style="fill:none;fill-rule:nonzero;stroke:#fff;stroke-width:8.33px;"/><path id="Path_1236" d="M504.75,977.692l-43.429,-10.55l-24.167,61.466l47.883,-3.266" style="fill:none;fill-rule:nonzero;stroke:#f00;stroke-width:8.33px;"/><path id="Path_1237" d="M605.329,763.488c0,-0 259.933,-238.775 525.908,-36.25c0,-0 305.271,-223.659 607.5,24.166l166.25,459.417c0,-0 -456.395,-131.458 -749.583,65c0,-0 -414.079,-358.175 -755.617,-65l205.542,-447.333Z" style="fill:#fff;stroke:#f00;stroke-width:8.33px;"/><path id="Path_1238" d="M1676.64,801.558c-0,0 -96.855,-49.2 -215.942,-53.604" style="fill:none;fill-rule:nonzero;stroke:#000;stroke-width:8.33px;"/><path id="Path_1239" d="M1340.11,761.079c-37.803,10.309 -73.457,27.304 -105.271,50.179" style="fill:none;fill-rule:nonzero;stroke:#000;stroke-width:8.33px;"/><path id="Path_1240" d="M629.021,801.558c18.364,-9.975 37.268,-18.922 56.625,-26.8c25.267,-10.512 51.156,-19.464 77.521,-26.804" style="fill:none;fill-rule:nonzero;stroke:#000;stroke-width:8.33px;"/><path id="Path_1241" d="M802.333,738.583c21.961,-4.485 44.22,-7.356 66.6,-8.591c20.387,-1.132 40.834,-0.467 61.104,1.987c16.135,1.974 32.066,5.359 47.609,10.117c35.202,10.682 67.414,29.471 94.041,54.854" style="fill:none;fill-rule:nonzero;stroke:#000;stroke-width:8.33px;"/><path id="Path_1242" d="M1702.39,894.517c-31.917,-15.835 -65.274,-28.583 -99.616,-38.071c-21.833,-6.223 -44.013,-11.157 -66.425,-14.779" style="fill:none;fill-rule:nonzero;stroke:#000;stroke-width:8.33px;"/><path id="Path_1243" d="M1474.31,835.625c-21.761,-0.745 -43.548,0.24 -65.154,2.946c-14.694,1.861 -29.258,4.634 -43.608,8.304c-38.775,9.818 -75.359,26.846 -107.838,50.192" style="fill:none;fill-rule:nonzero;stroke:#000;stroke-width:8.33px;"/><path id="Path_1244" d="M604.142,880.217c-0,-0 253.941,-134.7 444.666,2.55" style="fill:none;fill-rule:nonzero;stroke:#000;stroke-width:8.33px;"/><path id="Path_1245" d="M1728.12,987.475c-0,0 -279.683,-121.829 -470.417,15.417" style="fill:none;fill-rule:nonzero;stroke:#000;stroke-width:8.33px;"/><path id="Path_1246" d="M578.4,973.175c39.641,-16.067 80.715,-28.344 122.671,-36.667c19.871,-4.054 41.412,-7.566 64.046,-9.95" style="fill:none;fill-rule:nonzero;stroke:#000;stroke-width:8.33px;"/><path id="Path_1247" d="M838.446,923.512c27.699,0.606 55.282,3.788 82.391,9.505c46.053,9.453 89.638,28.389 127.976,55.6" style="fill:none;fill-rule:nonzero;stroke:#000;stroke-width:8.33px;"/><path id="Path_1248" d="M1753.88,1080.44c-0,-0 -289.696,-93.855 -480.417,43.395" style="fill:none;fill-rule:nonzero;stroke:#000;stroke-width:8.33px;"/><path id="Path_1249" d="M556.579,1060.47c0,-0 289.692,-93.854 480.417,43.396" style="fill:none;fill-rule:nonzero;stroke:#000;stroke-width:8.33px;"/><path id="Path_1250" d="M1131.24,727.217l24.167,548.596" style="fill:none;fill-rule:nonzero;stroke:#f00;stroke-width:8.33px;"/><path id="Path_1251" d="M1495.03,634.604l-70.571,-1.637c37.879,-17.917 52.709,-52.75 20.609,-121.988l85.966,-4.012c13.017,73.825 -2.379,112.125 -36.004,127.637Z" style="fill:#fff;stroke:#f00;stroke-width:8.33px;"/><path id="Path_1252" d="M363.846,1089.08l-188.804,340.092l1946.59,-0l-125.858,-292.888" style="fill:none;fill-rule:nonzero;stroke:#fff;stroke-width:8.33px;"/><path id="Path_1253" d="M175.042,1429.17l-0,62.629l1946.59,0l0,-62.629" style="fill:none;fill-rule:nonzero;stroke:#fff;stroke-width:8.33px;"/><path id="Path_1254" d="M714.835,1327.92l-37.144,-21.959l40.134,-12.747l-2.99,34.706Z" style="fill:#f00;"/><path id="Path_1255" d="M757.659,1343.41l489.952,58.465l6.804,-57.034l-489.924,-58.46l-86.483,17.929l79.651,39.1Z" style="fill:none;fill-rule:nonzero;stroke:#fff;stroke-width:8.34px;"/><path id="Path_1256" d="M757.643,1343.41l6.247,-52.328" style="fill:none;fill-rule:nonzero;stroke:#fff;stroke-width:8.34px;"/><path id="Path_1257" d="M1223.3,1395.73l6.243,-52.329" style="fill:none;fill-rule:nonzero;stroke:#fff;stroke-width:8.34px;"/><path id="Path_1258" d="M941.355,886.989c-40.439,-10.226 -99.2,-15.74 -130.381,2.191c-7.108,3.531 -13.627,8.14 -19.327,13.664c-4.41,4.504 -6.247,10.95 -4.876,17.102c3.111,13.536 14.182,24.13 28.6,32.414c19.193,11.047 44.428,17.872 60.025,23.214c48.87,16.726 105.011,37.281 154.782,39.109c7.686,0.514 15.406,0.103 22.994,-1.224c17.004,-4.312 24.852,-11.856 27.027,-20.524c2.213,-8.795 -1.388,-19.169 -8.804,-29.755c-13.207,-18.848 -38.65,-38.603 -57.098,-49.727c-20.89,-12.53 -43.473,-21.993 -67.055,-28.099c-2.108,-0.711 -4.448,-0.061 -5.887,1.635Zm41.16,26.724c-0.517,-0.437 -1.061,-0.842 -1.629,-1.212c-11.397,-6.313 -23.635,-10.971 -36.346,-13.833c-37.637,-10.171 -95.43,-17.111 -125.493,0.174c-5.24,2.695 -10.199,5.903 -14.805,9.576c-3.572,3.153 -6.507,6.785 -5.411,11.512c2.297,9.931 10.947,17.379 21.543,23.464c18.286,10.501 42.351,16.848 57.198,21.933c47.538,16.281 102.134,36.534 150.549,38.306c6.525,0.491 13.086,0.198 19.541,-0.873c12.444,-3.154 18.881,-7.963 20.481,-14.298c1.561,-6.198 -1.588,-13.471 -6.812,-20.926c-12.068,-17.226 -35.46,-35.151 -52.327,-45.315c-3.666,-2.203 -7.391,-4.308 -11.172,-6.314c0.554,1.575 0.467,3.306 -0.241,4.818c-0.973,1.934 -3.686,4.217 -10.722,3.387c-3.339,-0.342 -6.06,-2.886 -6.627,-6.194c-0.201,-1.738 0.714,-3.425 2.279,-4.206l-0.006,0.001Z" style="fill:#f00;"/><path id="Path_1259" d="M259.812,1562.88l-80.958,-53.883l-76.25,60.342l26.25,-93.646l-80.975,-53.892l97.167,-3.991l26.25,-93.646l33.821,91.179l97.166,-3.988l-76.25,60.338l33.779,91.187Z" style="fill:#fff;stroke:#fff;stroke-width:8.33px;"/></g></svg>