<svg xmlns="http://www.w3.org/2000/svg" width="139.442" height="124.054" viewBox="0 0 139.442 124.054">
  <g id="Group_358" data-name="Group 358" transform="translate(-9.728 230.844)">
    <path id="Path_2828" data-name="Path 2828" d="M15.941-150.066s-4.195,9.471-5.092,14.436,1.435,19.62,7.575,20.8c0,0,14.316.65,17.08-14.78s-6.281-25.574-7.572-28.309-1.577-6.053-3.522-7.794-7.64-2.235-7.8.807S18.068-154.256,15.941-150.066Z" transform="translate(0 -28.568)" fill="#f53c37" stroke="#000" stroke-linejoin="round" stroke-width="1.74"/>
    <path id="Path_2829" data-name="Path 2829" d="M63.171-112.966c.47.988,19.073,7.467,18.8,8.306-1.482,9.283-4.148,17.954-4.771,24.351,3.969,4.445,6.534,4.664,8.12,4.526,7.272-8.674,20.459-34.79,11.9-41.507-13.6-10.67-33.685-12.8-40.932-13.556C54.119-131.071,59.906-119.826,63.171-112.966Z" transform="translate(-20.515 -45.042)" stroke="#000" stroke-linejoin="round" stroke-width="1.74"/>
    <path id="Path_2830" data-name="Path 2830" d="M22.328-67.52c-1.859-3.98.621-22.818-2.146-30.961-5.588-16.44-3.308-26.626-.09-29.52,4.674-4.2,13.531-9.244,21.156-4.04,14.456,9.868,10.012,10.73,11.775,18.182,2.224,9.4,14.461,26.589,18.848,33.752C57.361-66.435,39.327-59.663,22.328-67.52Z" transform="translate(-2.781 -43.493)" fill="#fff" stroke="#000" stroke-linejoin="round" stroke-width="1.74"/>
    <path id="Path_2831" data-name="Path 2831" d="M67.6-65.857a.393.393,0,0,1-.416-.224c-.16-.342-3.9-8.411-4.681-12.331-.3-1.514-.721-3.91-1.2-6.686-.764-4.394-1.631-9.374-2.318-12.423-.824-3.642-4.64-10.491-7.166-15.023-.9-1.616-1.613-2.892-2.014-3.706-1.5-3.03-5.411-6.536-5.451-6.572a.4.4,0,0,1-.032-.557.394.394,0,0,1,.558-.033c.165.148,4.066,3.646,5.633,6.813.392.8,1.136,2.127,1.995,3.671,2.549,4.57,6.4,11.481,7.247,15.233.693,3.068,1.561,8.06,2.328,12.462.482,2.77.9,5.162,1.2,6.667C64.04-74.738,67.858-66.5,67.9-66.413a.4.4,0,0,1-.191.524Z" transform="translate(-15.246 -48.376)" stroke="#000" stroke-linejoin="round" stroke-width="1.74"/>
    <path id="Path_2832" data-name="Path 2832" d="M75.949-71.622c-2.013-3.279-3.97-6.648-5.564-9.8l-22.81-.019S63.937-71.466,75.949-71.622Z" transform="translate(-16.773 -67.492)" stroke="#000" stroke-linejoin="round" stroke-width="1.74"/>
    <path id="Path_2833" data-name="Path 2833" d="M30.7-145.236,31.3-136.4c.147,1.586,4.484,5.258,6.8,3,.679-.662-.508-2.742-1.369-4.315l-2.492-6.535Z" transform="translate(-9.106 -38.504)" fill="#fff" stroke="#000" stroke-linejoin="round" stroke-width="1.74"/>
    <path id="Path_2834" data-name="Path 2834" d="M27.429-157.722a20.173,20.173,0,0,0,.973,4.147c.987,2.452,3.071,2.976,5.644,2.325,2.511-.635,3.135-1.47,3.011-3.324a5.888,5.888,0,0,0-.366-1.688,8.094,8.094,0,0,0-2.422-3.146,13.312,13.312,0,0,1-1.307-1.328C30.646-162.938,27.2-161.561,27.429-157.722Z" transform="translate(-7.613 -30.984)" fill="#fff" stroke="#000" stroke-linejoin="round" stroke-width="1.74"/>
    <path id="Path_2835" data-name="Path 2835" d="M25.72-151.268a4.6,4.6,0,0,1-.594-.741c-.333-.5-.948-1.173-1.454-.308-.741,1.26,1.186,3.843,2.573,3.216C27.276-149.565,26.295-150.71,25.72-151.268Z" transform="translate(-5.836 -35.097)" fill="#ff8679" stroke="#000" stroke-linejoin="round" stroke-width="1.74"/>
    <path id="Path_2836" data-name="Path 2836" d="M25.17-163.187a4.239,4.239,0,0,0-1.9,3.806c.135,2.623,1.935,11.466,2.277,13.677s-3.9,4.386-6.485,6.816-3.218,8.875-3.115,10.386c0,0-1.867-9.339-.782-13.5s2.124-8.449,2.506-11.139-2.051-10.036.5-11.4S25.17-163.187,25.17-163.187Z" transform="translate(-1.889 -29.56)" fill="#f53c37" stroke="#000" stroke-linejoin="round" stroke-width="1.74"/>
    <path id="Path_2837" data-name="Path 2837" d="M100.293-170.915s3.014-.665,3.082-1.3c.063-.594-.849-.981-1.462-1.934a6.2,6.2,0,0,1-.756-2.054l-4.012.54Z" transform="translate(-39.297 -24.432)" fill="#fff" stroke="#000" stroke-linejoin="round" stroke-width="1.74"/>
    <path id="Path_2838" data-name="Path 2838" d="M92.615-177.045s6.756,10.391,10.026,11.082-2.892,4.425-5.582,2.928-9.632-11.288-9.632-11.288Z" transform="translate(-34.881 -24.05)" fill="#fff" stroke="#000" stroke-linejoin="round" stroke-width="1.74"/>
    <path id="Path_2839" data-name="Path 2839" d="M77.932-192.483c1.686-.949,3.986-2.3,6.467-3.944l6.119,11.662a54.118,54.118,0,0,0-7.583,2.366,3.275,3.275,0,0,1-4.109-1.528L76.637-188.1A3.28,3.28,0,0,1,77.932-192.483Z" transform="translate(-29.807 -15.243)" fill="#fff" stroke="#000" stroke-linejoin="round" stroke-width="1.74"/>
    <path id="Path_2840" data-name="Path 2840" d="M106.536-228.393l14.523,27.469A77.174,77.174,0,0,0,97.3-199.29l-6.119-11.662C98.158-215.563,103.312-223.325,106.536-228.393Z" transform="translate(-36.585 -0.718)" fill="#fff" stroke="#000" stroke-linejoin="round" stroke-width="1.74"/>
    <path id="Path_2841" data-name="Path 2841" d="M115.9-228.393c-1.134,1.783-2.506,3.9-4.113,6.093.117,1.973.773,5.556,3.281,11.267a22.214,22.214,0,0,0,7.791,9.827,65.666,65.666,0,0,1,7.565.282Z" transform="translate(-45.95 -0.718)" fill="#fff" stroke="#000" stroke-linejoin="round" stroke-width="1.74"/>
    <path id="Path_2842" data-name="Path 2842" d="M123.557-213.716c4.031,7.685,8.756,13.152,10.55,12.211s-.02-7.935-4.052-15.621S121.3-230.279,119.5-229.337,119.524-221.4,123.557-213.716Z" transform="translate(-49.142 -0.241)" stroke="#000" stroke-linejoin="round" stroke-width="1.74"/>
    <path id="Path_2843" data-name="Path 2843" d="M138.45-216.256l-.329-.626a3.425,3.425,0,0,0-4.324-1.582l-10.791,4.389c.684,1.659,1.509,3.427,2.456,5.232.7,1.341,1.427,2.613,2.154,3.8l9.761-6.808A3.427,3.427,0,0,0,138.45-216.256Z" transform="translate(-51.048 -5.115)" fill="#fff" stroke="#000" stroke-linejoin="round" stroke-width="1.74"/>
    <path id="Path_2844" data-name="Path 2844" d="M125.462-205.432c-.947-1.8-1.772-3.573-2.456-5.232l1.347-.547,5.57,7.966-2.307,1.61C126.89-202.819,126.165-204.091,125.462-205.432Z" transform="translate(-51.048 -8.526)" stroke="#000" stroke-linejoin="round" stroke-width="1.74"/>
    <path id="Path_2845" data-name="Path 2845" d="M133.912-201.448c-1.283.541-3.255-1.308-4.7-2.98a51.557,51.557,0,0,1-6.151-9.4,51.574,51.574,0,0,1-4.234-10.4c-.567-2.188-.975-4.938.3-5.609.829-.435,2.064.146,3.666,1.729a35.16,35.16,0,0,1,4.744,6.2l-.544.22a34.052,34.052,0,0,0-4.605-6.008c-1.344-1.329-2.436-1.923-2.992-1.63-.422.222-.524.942-.536,1.508a13.284,13.284,0,0,0,.522,3.445,50.964,50.964,0,0,0,4.188,10.278,50.981,50.981,0,0,0,6.076,9.286,13.323,13.323,0,0,0,2.539,2.388c.472.312,1.124.638,1.545.416.357-.188.48-.741.519-1.171a9.659,9.659,0,0,0-.248-2.683,40.4,40.4,0,0,0-2.9-8.235l.485-.338a42.1,42.1,0,0,1,2.98,8.457c.514,2.506.324,4.013-.568,4.482Z" transform="translate(-48.903)" fill="#fff" stroke="#fff" stroke-linejoin="round" stroke-width="1.74"/>
    <path id="Path_2846" data-name="Path 2846" d="M93.584-158.321a22.25,22.25,0,0,0-1.467-4.424,30.376,30.376,0,0,0-3.2-4.111c-1.311-1.357-2.765-2.258-2.193-2.475,2.274-.862,3.334,1.82,4.148,1.826s5.2-6.979,6.454-6.92-1.784,3.562-1.527,3.684,2.207-3.293,2.649-2.629a9.136,9.136,0,0,1,1.333,3c-.455,2.288-3.144,6.487-2.812,7.113s1.954,2.988,1.654,3.224A29.17,29.17,0,0,1,93.584-158.321Z" transform="translate(-34.504 -25.241)" fill="#fff" stroke="#000" stroke-linejoin="round" stroke-width="1.74"/>
    <path id="Path_2847" data-name="Path 2847" d="M20.884-131.278c3.413-4.922,36.739,6.129,39.332,4.711,1.646-.9-3.429-23.022,1.7-26.624,1.786-1.254,7.339-1.711,7.7-.249,2.6,10.675,14.752,35.536-4.837,42.243C42.379-103.532,16.395-124.806,20.884-131.278Z" transform="translate(-4.412 -34.363)" fill="#fff" stroke="#000" stroke-linejoin="round" stroke-width="1.74"/>
    <path id="Path_2848" data-name="Path 2848" d="M146.614-171.742l23.034,29.492,38.014-66.231" transform="translate(-61.775 -9.766)" fill="none" stroke="#ef3d31" stroke-linecap="round" stroke-linejoin="round" stroke-width="4.81"/>
  </g>
</svg>
