<svg xmlns="http://www.w3.org/2000/svg" width="535.07" height="406.176" viewBox="0 0 535.07 406.176">
  <g id="Group_224" data-name="Group 224" transform="translate(0 386.504)">
    <path id="Path_1501" data-name="Path 1501" d="M427.658-11.619c49.5,0,89.692,2.618,89.692,5.843S477.16.067,427.658.067s-89.692-2.618-89.692-5.843S378.155-11.619,427.658-11.619Z" transform="translate(17.221 19.105)" fill="#fff" stroke="#000" stroke-linecap="round" stroke-linejoin="round" stroke-width="1" fill-rule="evenodd"/>
    <path id="Path_1502" data-name="Path 1502" d="M90.192-20.819c49.5,0,89.692,2.618,89.692,5.843S139.694-9.132,90.192-9.132.5-11.75.5-14.975,40.69-20.819,90.192-20.819Z" transform="translate(0 18.635)" fill="#fff" stroke="#000" stroke-linecap="round" stroke-linejoin="round" stroke-width="1" fill-rule="evenodd"/>
    <path id="Path_1503" data-name="Path 1503" d="M176.524-374.919h6.764c14.527,0,177.859,11.776,178.469,26.305L375.484-17.483a25.021,25.021,0,0,1-25.2,26.305H192.454a27.667,27.667,0,0,1-27.4-26.305L151.31-348.614A25.032,25.032,0,0,1,176.524-374.919Z" transform="translate(7.695 0.566)"/>
    <path id="Path_1504" data-name="Path 1504" d="M185.31-374.919H343.148a27.671,27.671,0,0,1,27.39,26.314l13.747,331.23A25.055,25.055,0,0,1,359.058,8.938H201.238a27.672,27.672,0,0,1-27.4-26.313L160.1-348.605A25.034,25.034,0,0,1,185.31-374.919Z" transform="translate(8.143 0.566)" fill="#fff"/>
    <path id="Path_1505" data-name="Path 1505" d="M186.158-371.391h155.75a24.571,24.571,0,0,1,24.319,23.341l13.686,329.8A22.36,22.36,0,0,1,357.4,5.237H203.637A26.492,26.492,0,0,1,177.4-19.948l-13.619-328.1A22.213,22.213,0,0,1,186.158-371.391Z" transform="translate(8.331 0.746)"/>
    <path id="Path_1506" data-name="Path 1506" d="M196.881-346.52H335.742a21.941,21.941,0,0,1,21.682,20.883l12.2,295.061A19.974,19.974,0,0,1,349.555-9.56H212.465a23.657,23.657,0,0,1-23.39-22.532L176.933-325.637A19.843,19.843,0,0,1,196.881-346.52Z" transform="translate(9.002 2.015)" fill="#fff"/>
    <path id="Path_1507" data-name="Path 1507" d="M270.305-273.544c-18.324,13.013-28.414,29.791-27.593,47.471l1.5,32.249H231.772l-1.5-32.249c-1.042-22.426,11.678-44.2,36.107-60.148l3.239-2.113,3.431,2.113c25.91,15.951,40.651,37.723,41.692,60.148l1.5,32.249H303.8l-1.5-32.249C301.487-243.752,289.84-260.531,270.305-273.544Z" transform="translate(11.722 4.984)" fill="#f53c37" fill-rule="evenodd"/>
    <path id="Path_1508" data-name="Path 1508" d="M234.65-131.221l-2.206-47.507,11.539-10.458,1.865,40.149,28.668-31.3,32.057,31.421-1.866-40.175,12.505,10.338,2.206,47.528H307.377l-32.009-31.788-28.694,31.786H234.649Z" transform="translate(11.836 10.044)" fill="#f53c37" fill-rule="evenodd"/>
    <path id="Path_1509" data-name="Path 1509" d="M282.719-234.622H235.465L236-223.007h47.254Z" transform="translate(11.99 7.725)" fill="#f53c37" fill-rule="evenodd"/>
    <path id="Path_1510" data-name="Path 1510" d="M238.187-359.318h47.04a1.569,1.569,0,0,0,1.577-1.648l-.021-.435a1.751,1.751,0,0,0-1.724-1.648H238.032a1.573,1.573,0,0,0-1.581,1.648l.017.435A1.741,1.741,0,0,0,238.187-359.318Z" transform="translate(12.04 1.171)" fill="#fff"/>
    <path id="Path_1511" data-name="Path 1511" d="M289.039-361.182a1.953,1.953,0,0,0,1.934,1.865,1.774,1.774,0,0,0,1.787-1.865,1.953,1.953,0,0,0-1.934-1.867A1.775,1.775,0,0,0,289.039-361.182Z" transform="translate(14.724 1.171)" fill="#fff"/>
    <path id="Path_1512" data-name="Path 1512" d="M229.323-361.182a1.964,1.964,0,0,0,1.944,1.865,1.776,1.776,0,0,0,1.789-1.865,1.961,1.961,0,0,0-1.944-1.867A1.775,1.775,0,0,0,229.323-361.182Z" transform="translate(11.677 1.171)" fill="#fff"/>
    <path id="Path_1513" data-name="Path 1513" d="M160.346-231.01h.328a1.189,1.189,0,0,0,1.194-1.244l-2.48-59.734a1.315,1.315,0,0,0-1.3-1.246h-.328a1.189,1.189,0,0,0-1.194,1.246l2.48,59.734A1.313,1.313,0,0,0,160.346-231.01Z" transform="translate(7.964 4.734)" fill="#fff"/>
    <path id="Path_1514" data-name="Path 1514" d="M172.5-133.411l-2.285-55.042ZM369.7-259.281l-2-48.12Z" transform="translate(8.661 4.011)" fill="#fff"/>
    <path id="Path_1515" data-name="Path 1515" d="M452.382-10.443c2.417-1.041,2.823-3.854,3.853-5.876.064-.137,10.118-1.04,10.573-.324,2.757,4.34,1.36,8.981-.553,9.531-4.078,1.175-23.039,2.472-23.4.479C442.649-7.828,448.241-8.645,452.382-10.443Z" transform="translate(22.573 18.834)"/>
    <path id="Path_1516" data-name="Path 1516" d="M59.357-19.37c-2.417-1.041-2.823-3.854-3.853-5.876-.063-.137-10.118-1.04-10.573-.324-2.757,4.34-1.361,8.981.552,9.531,4.078,1.175,23.039,2.472,23.4.479C69.089-16.756,63.5-17.573,59.357-19.37Z" transform="translate(2.188 18.379)"/>
    <path id="Path_1517" data-name="Path 1517" d="M395.043-10.232c2.4-1.041,2.712-3.174,3.742-5.2.084-.137.483-3.044.483-3.277.021-1,2.943-3.655,4.267-1.56,2.649,4.135,6.033-2.174,5.865-.454-.483,5.119,1.408,13.268-.5,13.819-4.057,1.175-23.039,2.472-23.4.479C385.289-7.617,390.881-8.434,395.043-10.232Z" transform="translate(19.646 18.623)"/>
    <path id="Path_1518" data-name="Path 1518" d="M116.636-19.159c-2.4-1.041-2.712-3.174-3.742-5.2-.084-.137-.483-3.044-.483-3.277-.021-1-2.943-3.656-4.267-1.56-2.649,4.135-6.033-2.173-5.865-.454.483,5.119-1.408,13.268.5,13.819,4.057,1.175,23.039,2.472,23.4.479C126.39-16.545,120.8-17.362,116.636-19.159Z" transform="translate(5.175 18.168)"/>
    <path id="Path_1519" data-name="Path 1519" d="M392.807-314.561c-12.867-5.405-25.339,50.408-30.635,52.683-5.05,2.17-48.909,3.666-62.793,3.413-2.827-.054-3.032,14.886.1,18.184,12,12.662,28.389,14.431,67.729,6.769,17.273-3.359,23.646-18.248,27.9-31.277C402.414-287.22,399.644-311.684,392.807-314.561Z" transform="translate(15.14 3.627)" stroke="#fff" stroke-linejoin="round" stroke-width="1"/>
    <path id="Path_1520" data-name="Path 1520" d="M389.809-204.95c.568-12.3,1.114-32.708,1.6-34.2,7.567-23.5-1.355,11.6,3.942,18.031,8.3,9.827,26.748,30,26.748,30-1.051,28.529-2.838,186.64-2.838,186.64s-11.393.238-20.768.994c-6.916.557-8.85-2.649-8.85-2.649S388.506-116.945,389.809-204.95Z" transform="translate(19.834 7.085)"/>
    <path id="Path_1521" data-name="Path 1521" d="M389.809-204.772c.568-12.3,1.114-32.708,1.6-34.2,7.567-23.5,56.587-5.293,61.885,1.139,8.3,9.827,7.82,22.41,9.669,43.523C463.781-184.825,473.072-5.8,473.072-5.8a39.634,39.634,0,0,1-13.853,1.371A62.958,62.958,0,0,1,450.433-5.8C433.679-70.715,422.1-190.947,422.1-190.947c-1.051,28.529-2.838,186.64-2.838,186.64s-11.393.238-20.768.994c-6.916.557-8.85-2.649-8.85-2.649S388.506-116.767,389.809-204.772Z" transform="translate(19.834 6.907)" fill="none" stroke="#000" stroke-linejoin="round" stroke-width="1"/>
    <path id="Path_1522" data-name="Path 1522" d="M459.976-229.014l-61.685,13.378a132.839,132.839,0,0,0,42.361,6.959c9.9-.109,16.992-.352,21.838-.59C462.568-217.1,462.124-223.414,459.976-229.014Z" transform="translate(20.299 8.011)"/>
    <path id="Path_1523" data-name="Path 1523" d="M389.192-212.285c1.966-45.582-17.679-86.563-8.283-98.69,16.41-21.15,44.384-12.713,54.125,1.544,12.827,18.79,33.682,80.649,29.382,89.612-4.525,5.338-11.085,9.142-44.61,10.488C413.457-209.076,395.9-210.968,389.192-212.285Z" transform="translate(19.282 3.178)" fill="#fff" stroke="#000" stroke-linejoin="round" stroke-width="1"/>
    <path id="Path_1524" data-name="Path 1524" d="M382.626-342.052s-3.316-2.2-.453-5.048c8.439-8.316,14.948-2.375,16.584,4.84,1.11,4.836-1.8,9.321-1.8,9.321S384.3-336.6,382.626-342.052Z" transform="translate(19.417 1.779)" fill="#f53c37" stroke="#000" stroke-linejoin="round" stroke-width="1"/>
    <path id="Path_1525" data-name="Path 1525" d="M394.965-337.852l8.324,15.84c.944,2.429-3.948,7.245-7.441,7.489-.959.066-2.513.373-2.511-1.627l-2.557-16.182Z" transform="translate(19.916 2.457)" fill="#fff" stroke="#000" stroke-linejoin="round" stroke-width="1"/>
    <path id="Path_1526" data-name="Path 1526" d="M392.044-350.019s-.753-3.039-4.757-3.154-3.576,2-5.735,5.779c-2.18,3.774.347,7.614,5.414,9.257C390.5-336.986,396.333-345.26,392.044-350.019Z" transform="translate(19.405 1.675)" fill="#f53c37" stroke="#000" stroke-linejoin="round" stroke-width="1"/>
    <path id="Path_1527" data-name="Path 1527" d="M393-343.3l3.084,5.552a6.022,6.022,0,0,1-1.479,7.3c-2.032,1.594-3.385,2.589-6.153,2.767-2.321.149-3.887-1.8-4.436-4.768a28.028,28.028,0,0,1,.055-9.588,4.758,4.758,0,0,1,3.3-4.005C389.2-346.54,389.045-343.878,393-343.3Z" transform="translate(19.551 2.036)" fill="#fff" stroke="#000" stroke-linejoin="round" stroke-width="1"/>
    <path id="Path_1528" data-name="Path 1528" d="M394.107-338.627a8.364,8.364,0,0,0,.132-1.439c-.007-.92.224-2.284,1.589-1.611,1.966.981,1.7,5.877-.584,6.243C393.566-335.159,393.852-337.437,394.107-338.627Z" transform="translate(20.076 2.253)" fill="#fff" stroke="#000" stroke-linejoin="round" stroke-width="1"/>
    <path id="Path_1529" data-name="Path 1529" d="M416.095-318.79c-7.517,11.748,51.918,38.316,50.713,40.678-2.492,4.9-12.676,47.672-18.943,60.186-1.264,2.521,11.919,10.1,15.195,8.733,9.338-3.893,23.424-38.083,26.989-65.435,2.052-15.8-9.116-22.264-20.959-29.137C449.306-315.231,420.085-325.051,416.095-318.79Z" transform="translate(21.174 3.33)" fill="#fff" stroke="#000" stroke-linejoin="round" stroke-width="1"/>
    <path id="Path_1530" data-name="Path 1530" d="M420.039-191.43a1.058,1.058,0,0,1-.954-1.155,18.892,18.892,0,0,0-3.907-13.456,1.082,1.082,0,0,1,.079-1.526,1.071,1.071,0,0,1,1.516.061c.229.231,5.16,5.709,4.451,15.081a1.071,1.071,0,0,1-1.142,1Z" transform="translate(21.147 9.091)"/>
    <path id="Path_1531" data-name="Path 1531" d="M450.645-222.733s-10.931,3.171-12.507,4.66-5.16,9.489-3.952,9.06,4.821-5.335,4.821-5.335-2.767,7.285-1.58,8.041,1.88.2,1.88.2a1.541,1.541,0,0,0,1.81,1.063c1.346-.329,5.636-6.423,5.636-6.423s-1.559,4.885-.828,5.359c.753.476,4.164-5.712,6.037-6.222s4.859-1.547,5.824-4.833S454.366-225.1,450.645-222.733Z" transform="translate(22.118 8.299)" fill="#fff" stroke="#000" stroke-linejoin="round" stroke-width="1"/>
    <path id="Path_1532" data-name="Path 1532" d="M302.9-258.092s-16.3,2.417-19.588,4.055c-3.262,1.637-8.8,4.035-8.52,4.93s8.18-1.567,8.18-1.567,1.578,5.6,4.123,6.708a3.7,3.7,0,0,0,4.175-.689s10.266-.317,13.025-5.152A6.526,6.526,0,0,0,302.9-258.092Z" transform="translate(13.996 6.527)" fill="#fff" stroke="#000" stroke-linejoin="round" stroke-width="1"/>
    <path id="Path_1533" data-name="Path 1533" d="M77.832-315.984s-5.913,13.351-7.177,20.349,2.022,27.656,10.677,29.321c0,0,20.18.915,24.076-20.832s-8.854-36.049-10.673-39.9-2.222-8.532-4.965-10.986S79-341.189,78.778-336.9,80.83-321.89,77.832-315.984Z" transform="translate(3.567 2.348)" fill="#f53c37" stroke="#000" stroke-linejoin="round" stroke-width="1"/>
    <path id="Path_1534" data-name="Path 1534" d="M113.8-288.264c.662,1.393,26.885,10.525,26.5,11.707-2.089,13.085-5.847,25.308-6.724,34.326,5.595,6.265,10.546,7.464,12.782,7.27,10.252-12.226,27.5-49.93,15.434-59.4-19.17-15.04-47.481-18.045-57.7-19.108C101.043-313.784,109.2-297.933,113.8-288.264Z" transform="translate(5.252 3.701)"/>
    <path id="Path_1535" data-name="Path 1535" d="M107.587-169.438c-2.35,17.233,7.535-29.817,7.535-29.817s-.169-10.964,0-24.453c.135-10.788,21.867-15.791,24.374-16.2,13.073,62.166-3.25,224.027-3.25,224.027s-6.483,3.374-18.311,4.313c-11.685.927-18.092-3.3-18.092-3.3C101.056-35.124,105.962-123.632,107.587-169.438Z" transform="translate(5.069 7.455)" stroke="#fff" stroke-linejoin="round" stroke-width="1"/>
    <path id="Path_1536" data-name="Path 1536" d="M85.031-226.456c5.928-10.243,12.4-19.045,12.4-19.045s39.764,6.785,45.32,5.879c13.073,62.166-3.25,224.027-3.25,224.027s-6.483,3.374-18.311,4.313c-11.685.927-18.092-3.3-18.092-3.3,1.213-20.253,6.119-108.761,7.744-154.567-2.35,17.233-12.414,41.186-19.482,66.648C79.535-59.918,69.47-16.126,69.4-14.585c0,0-31.554,1.31-33.17-2.39C33.905-22.3,71.7-203.428,85.031-226.456Z" transform="translate(1.818 7.17)" fill="none" stroke="#000" stroke-linejoin="round" stroke-width="1"/>
    <path id="Path_1537" data-name="Path 1537" d="M140.53-237.9c-6.341,2.176-28.552,9.72-34.5,10.64-6.965,1.076-21.64,2.341-21.64,2.341s6.455,6.575,21.3,6.535c11.1-.033,29.193-6.412,37.6-9.626Q141.955-233.21,140.53-237.9Z" transform="translate(4.281 7.557)"/>
    <path id="Path_1538" data-name="Path 1538" d="M82.686-221.893c-2.62-5.61.876-32.164-3.026-43.643-7.876-23.173-4.663-37.531-.127-41.61,6.588-5.925,19.073-13.03,29.821-5.694,20.376,13.909,14.113,15.124,16.6,25.628,3.134,13.246,20.385,37.48,26.568,47.576C132.067-220.364,106.647-210.818,82.686-221.893Z" transform="translate(3.795 3.574)" fill="#fff" stroke="#000" stroke-linejoin="round" stroke-width="1"/>
    <path id="Path_1539" data-name="Path 1539" d="M127.9-226.833a.555.555,0,0,1-.586-.316c-.226-.481-5.494-11.856-6.6-17.381-.426-2.134-1.016-5.512-1.7-9.424-1.076-6.194-2.3-13.214-3.268-17.511-1.161-5.133-6.541-14.789-10.1-21.176-1.271-2.278-2.274-4.077-2.839-5.224-2.113-4.272-7.626-9.214-7.683-9.265a.556.556,0,0,1-.045-.784.556.556,0,0,1,.786-.047c.232.209,5.732,5.141,7.94,9.6.552,1.124,1.6,3,2.812,5.174,3.593,6.443,9.019,16.184,10.215,21.473.976,4.324,2.2,11.361,3.281,17.566.68,3.9,1.264,7.276,1.69,9.4,1.079,5.4,6.461,17.013,6.515,17.131a.558.558,0,0,1-.269.739Z" transform="translate(4.819 3.975)"/>
    <path id="Path_1540" data-name="Path 1540" d="M137.4-263.475c-2.837-4.621-5.6-9.37-7.842-13.818L97.4-277.319S120.466-263.255,137.4-263.475Z" transform="translate(4.945 5.546)"/>
    <path id="Path_1541" data-name="Path 1541" d="M122.662-209.106a27.179,27.179,0,0,1-6.958,8.118c.32-2.541.565-5.129.7-7.8.071-1.442-2.468-1.438-2.541,0-.807,15.942-5.364,29.008-8.576,44.637-.29,1.408,2.159,2.014,2.449.6,2.552-12.425,5.928-23.27,7.658-35.167,3.824-2.14,6.9-6.144,8.913-9.537C124.875-209.215,123.233-210.062,122.662-209.106Z" transform="translate(5.346 8.988)"/>
    <path id="Path_1542" data-name="Path 1542" d="M85.057-324l.838,12.454c.207,2.236,6.321,7.412,9.582,4.226.958-.933-.717-3.865-1.929-6.083l-3.513-9.211Z" transform="translate(4.315 3.164)" fill="#fff" stroke="#000" stroke-linejoin="round" stroke-width="1"/>
    <path id="Path_1543" data-name="Path 1543" d="M82.669-330.38a28.442,28.442,0,0,0,1.371,5.846c1.391,3.456,4.328,4.2,7.955,3.277,3.539-.893,4.419-2.072,4.245-4.684a8.293,8.293,0,0,0-.517-2.378,11.412,11.412,0,0,0-3.414-4.435,18.6,18.6,0,0,1-1.842-1.872C87.2-337.732,82.338-335.792,82.669-330.38Z" transform="translate(4.192 2.546)" fill="#fff" stroke="#000" stroke-linejoin="round" stroke-width="1"/>
    <path id="Path_1544" data-name="Path 1544" d="M82.91-327.419a6.461,6.461,0,0,1-.838-1.045c-.469-.708-1.336-1.652-2.05-.434-1.044,1.776,1.671,5.417,3.628,4.533C85.1-325.018,83.721-326.631,82.91-327.419Z" transform="translate(4.046 2.884)" fill="#ff8679"/>
    <path id="Path_1545" data-name="Path 1545" d="M88.023-335.959a5.978,5.978,0,0,0-2.685,5.366c.191,3.7,2.728,16.163,3.21,19.278s-5.5,6.182-9.142,9.609-4.537,12.51-4.39,14.641c0,0-2.632-13.164-1.1-19.033s2.994-11.91,3.533-15.7-2.891-14.147.707-16.065S88.023-335.959,88.023-335.959Z" transform="translate(3.722 2.429)" fill="#f53c37" stroke="#000" stroke-linejoin="round" stroke-width="1"/>
    <path id="Path_1546" data-name="Path 1546" d="M138.111-339.2s4.25-.936,4.344-1.835c.089-.837-1.2-1.383-2.06-2.726a8.759,8.759,0,0,1-1.066-2.9l-5.655.761Z" transform="translate(6.796 2.008)" fill="#fff" stroke="#000" stroke-linejoin="round" stroke-width="1"/>
    <path id="Path_1547" data-name="Path 1547" d="M133.876-347.274s9.523,14.647,14.132,15.621-4.076,6.237-7.869,4.127-13.576-15.912-13.576-15.912Z" transform="translate(6.433 1.976)" fill="#fff" stroke="#000" stroke-linejoin="round" stroke-width="1"/>
    <path id="Path_1548" data-name="Path 1548" d="M120.748-355.9c2.376-1.338,5.619-3.249,9.117-5.559l8.625,16.439a76.294,76.294,0,0,0-10.688,3.335,4.618,4.618,0,0,1-5.792-2.154l-3.086-5.883A4.623,4.623,0,0,1,120.748-355.9Z" transform="translate(6.016 1.253)" fill="#fff" stroke="#000" stroke-linejoin="round" stroke-width="1"/>
    <path id="Path_1549" data-name="Path 1549" d="M150.956-384.847l20.473,38.719a108.8,108.8,0,0,0-33.5,2.3l-8.625-16.439C139.148-366.762,146.412-377.7,150.956-384.847Z" transform="translate(6.573 0.059)" fill="#fff" stroke="#000" stroke-linejoin="round" stroke-width="1"/>
    <path id="Path_1550" data-name="Path 1550" d="M150.186-384.847c-1.6,2.512-3.531,5.494-5.8,8.588.165,2.781,1.09,7.832,4.625,15.882,3.071,6.993,7.4,11.568,10.982,13.853a92.646,92.646,0,0,1,10.664.4Z" transform="translate(7.343 0.059)" fill="#fff" stroke="#000" stroke-linejoin="round" stroke-width="1"/>
    <path id="Path_1551" data-name="Path 1551" d="M156.217-363.448c5.683,10.833,12.342,18.539,14.871,17.212s-.027-11.185-5.71-22.019-12.342-18.539-14.873-17.212S150.532-374.282,156.217-363.448Z" transform="translate(7.605 0.02)"/>
    <path id="Path_1552" data-name="Path 1552" d="M174.367-374.3l-.464-.883a4.828,4.828,0,0,0-6.095-2.23L152.6-371.223c.964,2.34,2.127,4.831,3.462,7.375.99,1.889,2.012,3.683,3.035,5.352l13.759-9.6A4.829,4.829,0,0,0,174.367-374.3Z" transform="translate(7.762 0.42)" fill="#fff" stroke="#000" stroke-linejoin="round" stroke-width="1"/>
    <path id="Path_1553" data-name="Path 1553" d="M156.06-364.128c-1.335-2.545-2.5-5.035-3.462-7.375l1.9-.771,7.852,11.229-3.252,2.269C158.072-360.446,157.05-362.24,156.06-364.128Z" transform="translate(7.762 0.701)"/>
    <path id="Path_1554" data-name="Path 1554" d="M171.17-345.8c-1.809.763-4.589-1.845-6.625-4.2a72.685,72.685,0,0,1-8.671-13.244,72.691,72.691,0,0,1-5.969-14.66c-.8-3.086-1.375-6.961.43-7.908,1.169-.613,2.909.207,5.168,2.438a49.468,49.468,0,0,1,6.687,8.737l-.767.31a47.972,47.972,0,0,0-6.491-8.468c-1.895-1.872-3.433-2.71-4.218-2.3-.594.312-.739,1.327-.756,2.125a18.663,18.663,0,0,0,.736,4.857,71.778,71.778,0,0,0,5.9,14.487,71.85,71.85,0,0,0,8.565,13.09,18.8,18.8,0,0,0,3.579,3.365c.666.439,1.585.9,2.178.585.5-.264.676-1.044.73-1.65a13.593,13.593,0,0,0-.349-3.783,56.927,56.927,0,0,0-4.086-11.607l.683-.477a59.391,59.391,0,0,1,4.2,11.921c.724,3.533.455,5.658-.8,6.318Z" transform="translate(7.585)" fill="#fff" stroke="#fff" stroke-linejoin="round" stroke-width="1"/>
    <path id="Path_1555" data-name="Path 1555" d="M135.8-322.657s-1.1-4.72-2.068-6.236a42.823,42.823,0,0,0-4.507-5.8c-1.849-1.913-3.9-3.184-3.092-3.488,3.206-1.215,4.7,2.566,5.848,2.574s7.324-9.839,9.1-9.756-2.514,5.022-2.151,5.193,3.111-4.641,3.734-3.706,2,3.61,1.879,4.231c-.641,3.226-4.431,9.144-3.963,10.027s2.755,4.212,2.332,4.545A41.167,41.167,0,0,1,135.8-322.657Z" transform="translate(6.402 2.074)" fill="#fff" stroke="#000" stroke-linejoin="round" stroke-width="1"/>
    <path id="Path_1556" data-name="Path 1556" d="M78.218-298.145c4.811-6.938,51.787,8.639,55.442,6.64,2.32-1.271-4.834-32.452,2.392-37.529,2.517-1.767,10.345-2.411,10.849-.351,3.668,15.048,20.795,50.091-6.819,59.545C108.517-259.035,71.89-289.022,78.218-298.145Z" transform="translate(3.929 2.824)" fill="#fff" stroke="#000" stroke-linejoin="round" stroke-width="1"/>
  </g>
</svg>
