<svg xmlns="http://www.w3.org/2000/svg" xmlns:xlink="http://www.w3.org/1999/xlink" width="694.564" height="464.428" viewBox="0 0 694.564 464.428">
  <defs>
    <clipPath id="clip-path">
      <path id="Path_1924" data-name="Path 1924" d="M198.668-267.307H180.813a4.393,4.393,0,0,1-4.393-4.393,4.393,4.393,0,0,0,4.393,4.393h17.855a4.393,4.393,0,0,0,4.393-4.393v0A4.392,4.392,0,0,1,198.668-267.307Z" fill="none" clip-rule="evenodd"/>
    </clipPath>
    <linearGradient id="linear-gradient" x1="0.089" y1="0.679" x2="0.533" y2="0.679" gradientUnits="objectBoundingBox">
      <stop offset="0" stop-color="#99d2f2"/>
      <stop offset="0.1" stop-color="#97cfef"/>
      <stop offset="0.2" stop-color="#95ccec"/>
      <stop offset="0.3" stop-color="#92c9ea"/>
      <stop offset="0.4" stop-color="#90c7e7"/>
      <stop offset="0.5" stop-color="#8dc4e4"/>
      <stop offset="0.6" stop-color="#8bc1e1"/>
      <stop offset="0.7" stop-color="#89bede"/>
      <stop offset="0.8" stop-color="#86bbdc"/>
      <stop offset="0.9" stop-color="#84b9d9"/>
      <stop offset="1" stop-color="#82b6d6"/>
    </linearGradient>
  </defs>
  <g id="Group_278" data-name="Group 278" transform="translate(0 464.407)">
    <path id="Path_1908" data-name="Path 1908" d="M128.008-464.407h6.435c13.822,0,169.224,11.2,169.8,25.028l13.06,315.054A23.808,23.808,0,0,1,293.328-99.3H143.164A26.325,26.325,0,0,1,117.1-124.325L104.018-439.379A23.817,23.817,0,0,1,128.008-464.407Z"/>
    <path id="Path_1909" data-name="Path 1909" d="M136.794-464.407H286.968a26.328,26.328,0,0,1,26.06,25.036l13.079,315.149a23.838,23.838,0,0,1-24,25.035H151.947a26.329,26.329,0,0,1-26.066-25.035L112.806-439.371A23.819,23.819,0,0,1,136.794-464.407Z" fill="#fff"/>
    <path id="Path_1910" data-name="Path 1910" d="M137.78-460.879H285.968a23.377,23.377,0,0,1,23.137,22.208l13.022,313.784a21.274,21.274,0,0,1-21.42,22.35H154.41A25.206,25.206,0,0,1,129.449-126.5L116.492-438.671A21.134,21.134,0,0,1,137.78-460.879Z"/>
    <path id="Path_1911" data-name="Path 1911" d="M148.62-436.007H280.739a20.875,20.875,0,0,1,20.629,19.869L312.978-135.4a19,19,0,0,1-19.1,20H163.447a22.508,22.508,0,0,1-22.254-21.438L129.641-416.138A18.878,18.878,0,0,1,148.62-436.007Z" fill="#fff"/>
    <path id="Path_1912" data-name="Path 1912" d="M190.811-448.987h44.756a1.493,1.493,0,0,0,1.5-1.568l-.02-.414a1.664,1.664,0,0,0-1.64-1.568H190.664a1.5,1.5,0,0,0-1.5,1.568l.016.414A1.655,1.655,0,0,0,190.811-448.987Z" fill="#fff"/>
    <path id="Path_1913" data-name="Path 1913" d="M241.748-450.761a1.857,1.857,0,0,0,1.839,1.774,1.688,1.688,0,0,0,1.7-1.774,1.858,1.858,0,0,0-1.84-1.776A1.688,1.688,0,0,0,241.748-450.761Z" fill="#fff"/>
    <path id="Path_1914" data-name="Path 1914" d="M182.031-450.761a1.869,1.869,0,0,0,1.85,1.774,1.688,1.688,0,0,0,1.7-1.774,1.865,1.865,0,0,0-1.85-1.776A1.689,1.689,0,0,0,182.031-450.761Z" fill="#fff"/>
    <path id="Path_1915" data-name="Path 1915" d="M125.1-231.347l-2.175-52.37Zm187.63-119.758-1.9-45.784Z" fill="#fff"/>
    <path id="Path_1916" data-name="Path 1916" d="M0-392.081H290.306v-37.808H0Z" fill="#f53c37" fill-rule="evenodd"/>
    <path id="Path_1917" data-name="Path 1917" d="M22.383-403.129H236.365v-15.714H22.383Z" fill="#fff" fill-rule="evenodd"/>
    <path id="Path_1918" data-name="Path 1918" d="M262.286-419.7a8.287,8.287,0,0,1,8.283,8.283,8.287,8.287,0,0,1-8.283,8.283A8.287,8.287,0,0,1,254-411.412,8.287,8.287,0,0,1,262.286-419.7Z" fill="#fff" fill-rule="evenodd"/>
    <path id="Path_1919" data-name="Path 1919" d="M227.205-414.625a3.642,3.642,0,0,1,3.64,3.64,3.642,3.642,0,0,1-3.64,3.64,3.642,3.642,0,0,1-3.64-3.64A3.642,3.642,0,0,1,227.205-414.625Z" fill="none" stroke="#000" stroke-linecap="round" stroke-linejoin="round" stroke-width="1.3"/>
    <path id="Path_1920" data-name="Path 1920" d="M229.887-408.2l2.588,2.543" fill="none" stroke="#000" stroke-linecap="round" stroke-linejoin="round" stroke-width="1.3"/>
    <path id="Path_1921" data-name="Path 1921" d="M272.207-310.755h3.912v-1.286a9.657,9.657,0,0,0-2.833-6.84,9.654,9.654,0,0,0-6.839-2.833H248.46v1.956l1.9.475a22.177,22.177,0,0,1,1.013-3.055,13.064,13.064,0,0,1,2.091-3.538,15.339,15.339,0,0,0,1.894-2.8,27.615,27.615,0,0,0,2.3-5.864,27.556,27.556,0,0,0,.987-7.143,21.2,21.2,0,0,0-.588-5.057,18.237,18.237,0,0,0-3.6-7.526,9.642,9.642,0,0,0-2.555-2.158,6.109,6.109,0,0,0-2.987-.834,4.979,4.979,0,0,0-3.181,1.142,5.631,5.631,0,0,0-1.4,1.839,21.922,21.922,0,0,0-1.386,3.976c-.6,2.2-1.2,4.708-2.093,7.043a15.728,15.728,0,0,1-3.67,5.969,50.186,50.186,0,0,0-4.646,5.156c-2.266,2.826-4.433,5.872-6.276,8.326-.919,1.225-1.758,2.3-2.46,3.106a13.385,13.385,0,0,1-.921.975,3.107,3.107,0,0,1-.511.411l.963,1.7v-1.956H208.026v48.006h13.107v-1.956l-1.469,1.292a8.929,8.929,0,0,0,3.228,2.045,26.652,26.652,0,0,0,10.244,1.681h.081c.134,0,1.217-.041,28.252-.041a9.1,9.1,0,0,0,3.945-.87,9.1,9.1,0,0,0,3.935-3.674,9.719,9.719,0,0,0,1.329-4.835,7.635,7.635,0,0,0-.632-3.112,5.989,5.989,0,0,0-2.1-2.541l-1.1,1.619.991,1.686a9.855,9.855,0,0,0,3.424-3.39,8.744,8.744,0,0,0,1.3-4.493,7.1,7.1,0,0,0-.706-3.126,7.22,7.22,0,0,0-2.215-2.637l-1.167,1.569,1.03,1.662a12.772,12.772,0,0,0,4.356-4.269,9.4,9.4,0,0,0,1.359-4.82,8.57,8.57,0,0,0-1.048-4.14,6.823,6.823,0,0,0-2.833-2.821l-.883,1.745.838,1.768a8.585,8.585,0,0,0,3.4-3.072,8.31,8.31,0,0,0,1.424-4.46h-3.912a4.463,4.463,0,0,1-.787,2.32,4.743,4.743,0,0,1-1.8,1.677l-3.612,1.71,3.567,1.8a2.943,2.943,0,0,1,1.176,1.225,4.658,4.658,0,0,1,.559,2.245,5.491,5.491,0,0,1-.81,2.821,8.882,8.882,0,0,1-3.054,2.943l-2.444,1.515,2.306,1.716a3.326,3.326,0,0,1,1.033,1.211,3.212,3.212,0,0,1,.312,1.415,4.86,4.86,0,0,1-.742,2.472,5.949,5.949,0,0,1-2.057,2.039l-2.668,1.568,2.561,1.737a2.057,2.057,0,0,1,.724.9,3.734,3.734,0,0,1,.292,1.517A5.621,5.621,0,0,1,266.41-276a5.642,5.642,0,0,1-1.794,2.505,4.992,4.992,0,0,1-3.147,1.036c-14.424,0-21.458.01-24.914.021-1.728.005-2.562.01-2.982.014l-.385.005h-.064l0,.071v-.071h0l0,.071v-.071l.011.777v-.777h-.011l.011.777v-.777a22.822,22.822,0,0,1-8.74-1.38,7.8,7.8,0,0,1-1.553-.834,2.971,2.971,0,0,1-.259-.206l-.02-.018,0,0-.694.69.734-.646-.04-.044-.694.69.734-.646-.584-.664h-10.08v-40.182h11.91l.447-.253a7.812,7.812,0,0,0,1.655-1.349,39.73,39.73,0,0,0,2.974-3.583c1.613-2.124,3.431-4.671,5.314-7.121a55.636,55.636,0,0,1,5.621-6.474,17.759,17.759,0,0,0,3.857-5.545,52.313,52.313,0,0,0,2.838-8.671,32.228,32.228,0,0,1,.965-3.165,6.145,6.145,0,0,1,.439-.937,1.374,1.374,0,0,1,.253-.335,1.048,1.048,0,0,1,.7-.258,2.224,2.224,0,0,1,1.07.333,7,7,0,0,1,2.289,2.358,16.068,16.068,0,0,1,1.986,4.85,17.293,17.293,0,0,1,.474,4.123,24.435,24.435,0,0,1-1.429,7.98,22.336,22.336,0,0,1-1.388,3.164,11.665,11.665,0,0,1-1.391,2.081,16.87,16.87,0,0,0-2.765,4.614,26,26,0,0,0-1.2,3.613l-.608,2.431h20.492a5.734,5.734,0,0,1,4.073,1.687,5.738,5.738,0,0,1,1.687,4.074Z"/>
    <path id="Path_1922" data-name="Path 1922" d="M176.42-271.7a4.393,4.393,0,0,0,4.393,4.393h17.855a4.393,4.393,0,0,0,4.393-4.393v-47.49a4.393,4.393,0,0,0-4.393-4.393H180.813a4.393,4.393,0,0,0-4.393,4.393Z" fill="#f53c37"/>
    <g id="Group_277" data-name="Group 277" clip-path="url(#clip-path)">
      <g id="Group_276" data-name="Group 276" transform="translate(223.032 -423.262) rotate(90)">
        <path id="Path_1923" data-name="Path 1923" d="M-41.145,223.032v-694.47H423.262v694.47Z" fill="url(#linear-gradient)"/>
      </g>
    </g>
    <path id="Path_1925" data-name="Path 1925" d="M178.376-271.7h-3.912a6.338,6.338,0,0,0,1.86,4.49,6.34,6.34,0,0,0,4.489,1.859h17.855a6.34,6.34,0,0,0,4.489-1.859,6.338,6.338,0,0,0,1.86-4.49v-47.49a6.335,6.335,0,0,0-1.86-4.489,6.337,6.337,0,0,0-4.489-1.86H180.813a6.337,6.337,0,0,0-4.489,1.86,6.335,6.335,0,0,0-1.86,4.489v47.49h3.912v-47.49a2.425,2.425,0,0,1,.714-1.724,2.42,2.42,0,0,1,1.723-.713h17.855a2.424,2.424,0,0,1,1.723.713,2.425,2.425,0,0,1,.714,1.724v47.49a2.419,2.419,0,0,1-.714,1.723,2.422,2.422,0,0,1-1.723.715H180.813a2.422,2.422,0,0,1-1.723-.715A2.419,2.419,0,0,1,178.376-271.7Z"/>
    <path id="Path_1926" data-name="Path 1926" d="M490.449-273.727c4,51.9-71.34,174.808-133.56,174.187-34.455-.342-51.88-58.517-59.913-103.416-7.575-42.3-11.757-73.356.226-74.668C315.783-279.66,366.68-170.64,366.68-170.64s63.714-102.8,97-116.931C492.427-299.773,489.641-284.255,490.449-273.727Z"/>
    <path id="Path_1927" data-name="Path 1927" d="M607.5-126.284c4.4-63.8,15.951-99.041,9.856-120.815-7.807-27.921-48.648-46.955-72.018-50.2-19.228-2.669-66.435-1.047-83.542,10.936C434.356-267.148,418.3-29.156,418.3-29.156s22.531,14.891,85.365,22.9c81.868,10.444,109.589,0,109.589,0S602.28-50.614,607.5-126.284Z" fill="#fff" stroke="#000" stroke-linejoin="round" stroke-width="3.232"/>
    <path id="Path_1928" data-name="Path 1928" d="M606.031-242.45S681.674-128.466,653.4-73.032c-11.861,23.259-50.635-3.457-44.086,46.959-47.829-8.066-99.267-38.509-94.029-52.738,6.457-17.541,124.128-16,124.128-16s-16.161-56.439-26.438-69.22c-3.871-4.813-2.57,37.631-5.567,31.864-12.839-24.707-26.511-56.02-25.339-75.5C583.953-238.837,606.031-242.45,606.031-242.45Z"/>
    <path id="Path_1929" data-name="Path 1929" d="M613.08-256.962S716.218-118.115,687.949-62.681c-30.4,59.616-174.2-7.31-165.611-30.642,6.457-17.541,113.428-16,113.428-16s-48.816-76.756-46.645-112.852C591-253.349,613.08-256.962,613.08-256.962Z" fill="#fff" stroke="#000" stroke-linejoin="round" stroke-width="3.232"/>
    <path id="Path_1930" data-name="Path 1930" d="M536.369-97.207s-5.48-6.2-7.781-12.215c-1.849-4.854-2.993-16.054-4.925-12.383s1.028,16.772-1.668,17.974-23.137-11.97-26.369-9.488-1.493,15.227,9.268,22.233,19.79,12.325,25.769,7.433S536.369-97.207,536.369-97.207Z" fill="#fff" stroke="#000" stroke-linejoin="round" stroke-width="3.232"/>
    <path id="Path_1931" data-name="Path 1931" d="M356.036-155.194l-.95-.258a1.9,1.9,0,0,1-.692-2.6c6.47-11.149,11.091-14.09,11.285-14.206a1.9,1.9,0,0,1,2.617.62,1.9,1.9,0,0,1-.607,2.6c-.11.078-4.169,2.825-10.012,12.894A1.893,1.893,0,0,1,356.036-155.194Z" fill="#fff"/>
    <path id="Path_1932" data-name="Path 1932" d="M667.635-83.653a1.912,1.912,0,0,1-1.7-1.054c-6.547-13.1-30.628-22.757-30.874-22.847a1.912,1.912,0,0,1-1.066-2.469,1.9,1.9,0,0,1,2.469-1.066c1.04.413,25.665,10.289,32.871,24.682a1.91,1.91,0,0,1-.853,2.553Z"/>
    <path id="Path_1933" data-name="Path 1933" d="M515.571-375.6s1.341-9.156,9.707-9.321,11.731,12.077,16.2,13.637,5.863-.819,7.2,2.1-2.433,4.716-2.433,4.716a19.472,19.472,0,0,1,3.841,9.91c.336,5.593-6.053,8.348-6.094,10.476s2.921,1.939,1.635,7.412-12.052,9.768-15.964,9.76-21.49-16.812-24.148-20.924S496.148-374.773,515.571-375.6Z" fill="#f53c37" stroke="#000" stroke-linejoin="round" stroke-width="3.232"/>
    <path id="Path_1934" data-name="Path 1934" d="M516.675-321.766a63.51,63.51,0,0,1-6.992-.675c-5.636-.786-8.43-6.256-8.3-13.659a69.057,69.057,0,0,1,4.869-23.006c1.933-4.925,5.2-8.174,9.144-8.418,1.148,4.144,9.153,10.488,18.218,13.976l-1.023,3.387c.233-.446.424-.828.543-1.085.975-2.125,2.167-5.292,4.594-2.022,2.527,3.411.318,8.636-2.4,11.108l7.671,47.027c-1.015,4.654-21.012,10.173-27,2.624C514.88-293.906,516.48-308.908,516.675-321.766Z" fill="#fff" stroke="#000" stroke-linejoin="round" stroke-width="3.232"/>
    <path id="Path_1935" data-name="Path 1935" d="M304.376-269.313a7.494,7.494,0,0,0-4.3-8.021c-8.5-3.851-25.982-10.651-37.04-7.232-6.5,2.01-24.334,3.335-23.054,6.2s17.877.453,18.026,1.319-.653,8.906,6.9,13.508,30.583,10.244,34.92,6.347C302.327-259.437,303.678-265.008,304.376-269.313Z" fill="#fff" stroke="#000" stroke-linejoin="round" stroke-width="3.232"/>
    <path id="Path_1936" data-name="Path 1936" d="M521.478-291.895l25.549-7.607,3.077,8.46-19.441,12.319-10.458-7.413-12.118,3.361,2.876-10.768,3.574-5.959Z" fill="#fff" stroke="#000" stroke-linejoin="round" stroke-width="3.232"/>
    <path id="Path_1937" data-name="Path 1937" d="M331.8-385.861,138.447-384.2l.288,18.182,193.356-1.664Z" fill="#fff" stroke="#f53c37" stroke-linecap="round" stroke-linejoin="round" stroke-width="1.3" fill-rule="evenodd"/>
    <path id="Path_1938" data-name="Path 1938" d="M268.264-248.158,74.908-246.495l.289,18.183,193.355-1.664Z" fill="#fff" stroke="#f53c37" stroke-linecap="round" stroke-linejoin="round" stroke-width="1.3" fill-rule="evenodd"/>
    <path id="Path_1939" data-name="Path 1939" d="M341.492-215.038l-193.356,1.664.288,18.182,193.356-1.663Z" fill="#fff" stroke="#f53c37" stroke-linecap="round" stroke-linejoin="round" stroke-width="1.3" fill-rule="evenodd"/>
    <path id="Path_1940" data-name="Path 1940" d="M291.858-181.918,98.5-180.254l.289,18.183,193.356-1.664Z" fill="#fff" stroke="#f53c37" stroke-linecap="round" stroke-linejoin="round" stroke-width="1.3" fill-rule="evenodd"/>
    <path id="Path_1941" data-name="Path 1941" d="M288.514-373.634l-126.4,1.088-.077-4.839,126.4-1.088Z" fill-rule="evenodd"/>
    <path id="Path_1942" data-name="Path 1942" d="M224.975-235.931l-126.4,1.088-.077-4.839,126.4-1.088Z" fill-rule="evenodd"/>
    <path id="Path_1943" data-name="Path 1943" d="M298.2-202.81l-126.4,1.087-.077-4.839,126.4-1.088Z" fill-rule="evenodd"/>
    <path id="Path_1944" data-name="Path 1944" d="M248.57-169.69l-126.4,1.088-.077-4.839,126.4-1.088Z" fill-rule="evenodd"/>
    <path id="Path_1945" data-name="Path 1945" d="M151.555-380.313a5.219,5.219,0,0,1,5.254,5.127,5.127,5.127,0,0,1-5.089,5.215,5.219,5.219,0,0,1-5.254-5.126A5.128,5.128,0,0,1,151.555-380.313Z" fill-rule="evenodd"/>
    <path id="Path_1946" data-name="Path 1946" d="M88.017-242.61a5.219,5.219,0,0,1,5.254,5.126,5.13,5.13,0,0,1-5.09,5.216,5.22,5.22,0,0,1-5.254-5.127A5.128,5.128,0,0,1,88.017-242.61Z" fill-rule="evenodd"/>
    <path id="Path_1947" data-name="Path 1947" d="M161.244-209.49a5.22,5.22,0,0,1,5.254,5.127,5.127,5.127,0,0,1-5.089,5.215,5.219,5.219,0,0,1-5.254-5.126A5.129,5.129,0,0,1,161.244-209.49Z" fill-rule="evenodd"/>
    <path id="Path_1948" data-name="Path 1948" d="M111.611-176.37a5.22,5.22,0,0,1,5.254,5.127,5.13,5.13,0,0,1-5.09,5.216,5.221,5.221,0,0,1-5.254-5.127A5.13,5.13,0,0,1,111.611-176.37Z" fill-rule="evenodd"/>
  </g>
</svg>
