<svg xmlns="http://www.w3.org/2000/svg" width="541.124" height="708.773" viewBox="0 0 541.124 708.773">
  <g id="Group_283" data-name="Group 283" transform="translate(0 601.594)">
    <path id="Path_1949" data-name="Path 1949" d="M162.08-31.339a2.582,2.582,0,0,1-.679-.089,2.633,2.633,0,0,1-1.867-3.226l24.595-92.4a2.639,2.639,0,0,1,3.226-1.868,2.635,2.635,0,0,1,1.868,3.222l-24.6,92.4A2.641,2.641,0,0,1,162.08-31.339Z" transform="translate(28.484 84.426)" fill="#424a58"/>
    <path id="Path_1950" data-name="Path 1950" d="M103.271,5.184a3.2,3.2,0,0,1-3.091-2.373L70.322-109.346a3.2,3.2,0,0,1,2.269-3.915,3.2,3.2,0,0,1,3.917,2.269L106.362,1.164a3.2,3.2,0,0,1-3.091,4.021Z" transform="translate(12.543 87.219)"/>
    <path id="Path_1951" data-name="Path 1951" d="M31.812,5.184a3.237,3.237,0,0,1-.826-.108,3.2,3.2,0,0,1-2.265-3.913L58.576-110.993a3.2,3.2,0,0,1,3.917-2.269,3.2,3.2,0,0,1,2.269,3.915L34.9,2.811A3.2,3.2,0,0,1,31.812,5.184Z" transform="translate(5.111 87.219)"/>
    <path id="Path_1952" data-name="Path 1952" d="M168.273-158.48c-11.387-12.043-36.032-9.786-45.317-19.322s-49.395-51.07-86.315-52.69C-2.9-232.228.05-207.849.05-207.849l1.219,19.714L3.26-169.177s21.84,41.81,29.619,50.843,82.047,32.116,91.081,32.868c3.179.266,9.688,1.79,17.271,2.995l43.565-40.47C183.237-132.1,177.723-148.486,168.273-158.48Z" transform="translate(0 66.28)"/>
    <path id="Path_1953" data-name="Path 1953" d="M166-139.256l-49.267,28.932c-3.628,4.438-11.534,15.952-11.534,15.952,5.965.07,11.568.127,16.6.2,19.193.3,29.063-2.747,34.115-5.714a13.842,13.842,0,0,0,4.9-4.175c5.749-8.045,5.023-12.256,5.19-27.552A57.8,57.8,0,0,0,166-139.256Z" transform="translate(18.794 82.595)" fill="#f53c37"/>
    <path id="Path_1954" data-name="Path 1954" d="M147.4-7.253c-3.917-3.373-3.6-4.256-4.935-6.98-.09-.185-.545-4.129-.545-4.445.012-1.366-3.871-4.908-5.777-2.026-3.759,5.676-8.137-2.825-7.976-.49.482,6.95-2.384,18.07.2,18.776,5.515,1.509,31.746,7.208,32.294,4.491C160.993.441,152.018-3.283,147.4-7.253Z" transform="translate(22.737 103.577)" stroke="#fff" stroke-linejoin="round" stroke-width="1.864"/>
    <path id="Path_1955" data-name="Path 1955" d="M181.655-10.642c-4.205-3.006-3.971-3.917-5.549-6.51-.1-.174-.915-4.063-.937-4.38-.112-1.358-4.3-4.538-5.939-1.5-3.229,6-8.358-2.076-7.988.232,1.108,6.88-.748,18.213,1.9,18.684C168.763-3.11,195.4.2,195.7-2.554,195.882-4.206,186.605-7.1,181.655-10.642Z" transform="translate(28.802 103.13)" stroke="#fff" stroke-linejoin="round" stroke-width="1.864"/>
    <path id="Path_1956" data-name="Path 1956" d="M121.445-260.771c16.512-5.333,19.494,81.476,19.494,81.476s76.105,20.593,71.243,31.035-67.388,7.27-85.223-3.754C102.6-167.075,94.025-251.913,121.445-260.771Z" transform="translate(18.656 60.844)"/>
    <path id="Path_1957" data-name="Path 1957" d="M131.837-124.283s10.272-5.19,8.578-18.564-11.171-20.035-13.428-12.927S124.842-127.555,131.837-124.283Z" transform="translate(22.452 79.128)" fill="#424a58"/>
    <path id="Path_1958" data-name="Path 1958" d="M106.358-169.241s-67.778,2.839-33.895,32c25.081,21.586,93.226,15.01,96.784,17.773,4.46,3.472,2.245,16.527,3.993,40.2,3.423,46.351.305,74.708.684,83.8.158,3.774,22.129,2.026,22.129,2.026s23.1-103.358,17.669-138.4C210.211-154.521,152.215-165.027,106.358-169.241Z" transform="translate(11.251 77.238)" stroke="#fff" stroke-linejoin="round" stroke-width="1.864"/>
    <path id="Path_1959" data-name="Path 1959" d="M141.657-197.446s-4.816,3.114-16.848,3.89c-4.614.3-18.479-1.065-18.479-1.065s-4.962-35.449,1.258-49.221,13.478-19.178,13.478-19.178a19.8,19.8,0,0,1,11.67,12.488C136.119-240.613,141.657-197.446,141.657-197.446Z" transform="translate(18.66 60.485)" stroke="#fff" stroke-linejoin="round" stroke-width="1.864"/>
    <path id="Path_1960" data-name="Path 1960" d="M183.238-175.83s32.085,11.333,27.115,17.1c0,0-26.952-1.2-30.862-2.023S174.78-177.338,183.238-175.83Z" transform="translate(31.559 76.043)" fill="#f17c78"/>
    <path id="Path_1961" data-name="Path 1961" d="M82.022-163.118s42.457,6.055,74.523,17C203.354-133.147,160.7,8.166,160.7,8.166S141.874,13.88,136.915,9.4c.305-4.237-.93-83.9-3.647-107.646-.479-4.183.248-3.265-1.833-7.64-9.727.112-58.779-7.482-71.617-11.85-28.014-9.535-21.755-49.778-21.755-49.778Z" transform="translate(6.693 77.547)" fill="#fff" stroke="#000" stroke-linejoin="round" stroke-width="1.864"/>
    <path id="Path_1962" data-name="Path 1962" d="M58.439-255.064c6.317-10.152,18.2-17.321,33.748-17.017,23.371.456,38.429,6.738,43.692,11.7,10.506,9.917-1.929,33.914-7.93,59.527a104.894,104.894,0,0,0,1.558,52.467c.1.772-8.119,10.688-46.188,5.132-37.726-5.51-51.691-1.852-50.6-12.807C36.749-196.5,47.2-237.01,58.439-255.064Z" transform="translate(5.835 58.864)" fill="#fff" stroke="#000" stroke-linejoin="round" stroke-width="1.864"/>
    <path id="Path_1963" data-name="Path 1963" d="M138.186-193.058a27.081,27.081,0,0,0-11.565,2.4c-1.018.455-.231,2,.784,1.543a24.916,24.916,0,0,1,10.681-2.215C139.2-191.317,139.3-193.042,138.186-193.058Z" transform="translate(22.535 72.983)" fill="#fff"/>
    <path id="Path_1964" data-name="Path 1964" d="M250.587-150.364l5.546,1.208v.007a2.96,2.96,0,0,1-2.96,2.956s-106.608-.042-107.021-.127L93.7-157.179a2.332,2.332,0,0,1-2.273-2.334v-1.7l56.19,10.847Z" transform="translate(16.334 78.672)"/>
    <path id="Path_1965" data-name="Path 1965" d="M250.587-150.364H147.622l-56.19-10.847H200.79Z" transform="translate(16.334 78.672)"/>
    <path id="Path_1966" data-name="Path 1966" d="M138.385-138.245l109.359-1.076,4.845-72.691a4.253,4.253,0,0,0-4.251-4.253H147.488a4.254,4.254,0,0,0-4.253,4.253Z" transform="translate(24.722 68.837)" stroke="#fff" stroke-linejoin="round" stroke-width="1.864"/>
    <path id="Path_1967" data-name="Path 1967" d="M184.768-181.253c0,2.377,1.509,4.3,3.369,4.3s3.37-1.926,3.37-4.3-1.51-4.3-3.37-4.3S184.768-183.629,184.768-181.253Z" transform="translate(33.008 74.323)" fill="#f53c37"/>
    <path id="Path_1968" data-name="Path 1968" d="M67.551-263.713c14.034-3.338,7.937,55.125,12.819,85.03.652,3.986,1.895,8.833,7.412,11.858,15.967,8.759,57.614,26.64,53,34.8-5.672,10.021-63.7-.652-78.524-15.473C40.988-168.751,39.518-257.046,67.551-263.713Z" transform="translate(8.287 60.336)" fill="#fff" stroke="#000" stroke-linejoin="round" stroke-width="1.864"/>
    <path id="Path_1969" data-name="Path 1969" d="M131.618-159.584c3.886-2.265,7.3-7.224,7.713-3.689s-3.769,5.607-3.727,8.1,15.214,4.1,14.2,6.7c-.671,1.728-8.728-.962-8.7-.405s8.234,2.393,7.3,4.511c-1.146,2.593-4.02,4.407-7.59,4.422.957.567,1.652,1.207,1.444,1.794-.563,1.578-27.544-5-19.448-15.747C124.56-156.219,125.636-156.092,131.618-159.584Z" transform="translate(21.669 78.084)" fill="#fff" stroke="#000" stroke-linejoin="round" stroke-width="1.864"/>
    <path id="Path_1970" data-name="Path 1970" d="M46.161-194.087c-1.563-22.655,1.47-49.3,9.936-62.449,3.083-4.784,7.088-6.112,11.564-7.177,11.866-2.82,9.338,38.537,11.229,69.46C74.322-192.852,59.127-188.932,46.161-194.087Z" transform="translate(8.176 60.336)" fill="#fff" stroke="#000" stroke-linejoin="round" stroke-width="1.864"/>
    <path id="Path_1971" data-name="Path 1971" d="M126.4-120.021c-6.112-12.912-15.231-22.631-29.516-22.631H49.171c-.127,0-.258,0-.39,0a39.5,39.5,0,0,1-37.495-27.917L.366-206.062S.3-197.7,1.474-184.851c2.8,30.831,9.631,84.787,19.4,91.563,13.64,9.457,65.524,10.4,103.054,10.851l12.479-15.11C131.836-102.352,129.227-114.052,126.4-120.021Z" transform="translate(0.065 70.66)" fill="#f53c37"/>
    <path id="Path_1972" data-name="Path 1972" d="M95.752-299.05a12.412,12.412,0,0,1,9.155-5.194c4.68-.376,9.066,6.519,7.368,8.285s-2.045,1.615-2.036,2.2,1.1,1.926.892,3.389-1.967,3.575-2.645,3.4S96-278.138,95.122-278.264s-4.824-2.66-5.239-3.688-1.82-7.59-.383-10a5.989,5.989,0,0,1,4.8-2.823A20.847,20.847,0,0,1,95.752-299.05Z" transform="translate(15.876 53.117)" fill="#f53c37" stroke="#000" stroke-linejoin="round" stroke-width="1.864"/>
    <path id="Path_1973" data-name="Path 1973" d="M98.692-287.7l-7.783,18.616c-.513,2.169,2.527,12.637,12.12,11.11,1.3-.209,2.724-6.217,2.292-8.687l-.629-15.235Z" transform="translate(16.231 56.076)" fill="#fff" stroke="#000" stroke-linejoin="round" stroke-width="1.864"/>
    <path id="Path_1974" data-name="Path 1974" d="M102.936-278.963l-5.881-.49s.359,6.577,7.3,6.23Z" transform="translate(17.338 57.549)"/>
    <path id="Path_1975" data-name="Path 1975" d="M96.77-286.849a21.25,21.25,0,0,0-.906-2.325c-.39-1-1.2-2.4-2.4-1.091-1.7,1.856.014,6.525,2.534,6.274l-.643,2.367a6.248,6.248,0,0,0,4.8,7.268,17.282,17.282,0,0,0,7.646-.085c2.762-.477,4.05-3.218,3.861-6.859a34,34,0,0,0-2.771-11.249c-2.2-5.117-8.634-5.267-10.857,1.045Z" transform="translate(16.574 54.536)" fill="#fff" stroke="#000" stroke-linejoin="round" stroke-width="1.864"/>
    <path id="Path_1976" data-name="Path 1976" d="M105.812-269.907s1.814,3.08,1.8,5.132.147,9.62-.513,9.562-4.465-2.844-4.465-2.844-3.129,2.778-5.541,2.956-9.6-11.669-8.971-13.983,3.782-3.84,3.782-3.84,3.944,7.255,5.475,8.914a13.826,13.826,0,0,0,4.422,2.758,27.49,27.49,0,0,0,2.35-3.06A41.688,41.688,0,0,0,105.812-269.907Z" transform="translate(15.736 58.715)" fill="#fff" stroke="#000" stroke-linejoin="round" stroke-width="1.864"/>
    <g id="Group_280" data-name="Group 280" transform="translate(291.616 -601.594) rotate(11.912)">
      <g id="Group_279" data-name="Group 279" transform="translate(0 0)">
        <text id="_" data-name="?" transform="translate(0 440)" fill="#f53c37" font-size="460" font-family="CorporativeSlab-Black, Corporative Slab" font-weight="800"><tspan x="0" y="0">?</tspan></text>
      </g>
    </g>
    <g id="Group_282" data-name="Group 282" transform="translate(150.008 -383.163) rotate(-12.552)">
      <g id="Group_281" data-name="Group 281" transform="translate(0 0)">
        <text id="_2" data-name="?" transform="translate(0 161)" fill="#f53c37" font-size="168" font-family="CorporativeSlab-Black, Corporative Slab" font-weight="800"><tspan x="0" y="0">?</tspan></text>
      </g>
    </g>
  </g>
</svg>
