<svg xmlns="http://www.w3.org/2000/svg" width="116.926" height="100.622" viewBox="0 0 116.926 100.622">
  <g id="Group_298" data-name="Group 298" transform="translate(0 313.59)">
    <path id="Path_2322" data-name="Path 2322" d="M0-212.968H116.926V-313.59H0Z" fill="#fff"/>
    <path id="Path_2323" data-name="Path 2323" d="M98.11-214.31v-14.757h17.473v14.757Zm-19.488,0v-14.757H96.767v14.757Zm-19.488,0v-14.757H77.279v14.757Zm-19.488,0v-14.757H57.792v14.757Zm-19.488,0v-14.757H38.3v14.757Zm-18.816,0v-14.757H18.816v14.757Zm17.473-97.936v14.754H1.343v-14.754Zm19.488,0v14.754H20.159v-14.754Zm19.488,0v14.754H39.647v-14.754Zm19.488,0v14.754H59.134v-14.754Zm19.488,0v14.754H78.622v-14.754ZM98.11-280.72v-15.427h17.473v15.427Zm0,16.772v-15.427h17.473v15.427Zm0,16.769v-15.427h17.473v15.427Zm0,1.344h17.473v15.427H98.11Zm-19.488,0H96.767v15.427H78.622Zm-19.488,0H77.279v15.427H59.134Zm-19.488,0H57.792v15.427H39.647Zm-19.488,0H38.3v15.427H20.159Zm-1.343,0v15.427H1.343v-15.427Zm0-16.772v15.427H1.343v-15.427Zm0-16.769v15.427H1.343v-15.427Zm0-1.344H1.343v-15.427H18.816Zm19.488,0H20.159v-15.427H38.3Zm19.488,0H39.647v-15.427H57.792Zm19.488,0H59.134v-15.427H77.279Zm1.343,0v-15.427H96.767v15.427Zm0,16.772v-15.427H96.767v15.427Zm0,1.341H96.767v15.427H78.622Zm-19.488,0H77.279v15.427H59.134Zm-19.488,0H57.792v15.427H39.647Zm-1.343,0v15.427H20.159v-15.427Zm0-1.341H20.159v-15.427H38.3Zm20.831-15.427H77.279v15.427H59.134Zm-1.343,15.427H39.647v-15.427H57.792Zm57.792-48.3v14.754H98.11v-14.754Zm1.343-1.344H0v100.622H116.926Z"/>
    <path id="Path_2324" data-name="Path 2324" d="M28.965-167.53a1.328,1.328,0,0,1-.854-.308,1.342,1.342,0,0,1-.18-1.89L52.36-199.3a1.343,1.343,0,0,1,1.708-.308l18.495,10.7,18.79-20.982a1.336,1.336,0,0,1,.963-.446,1.353,1.353,0,0,1,.986.391l6.7,6.681,25.151-18.854a1.341,1.341,0,0,1,1.543-.048,1.343,1.343,0,0,1,.569,1.434l-1.82,7.611a1.345,1.345,0,0,1-1.618.995,1.345,1.345,0,0,1-.994-1.62l.954-3.992-23.105,17.321a1.345,1.345,0,0,1-1.754-.122l-6.518-6.5L73.836-186.307a1.338,1.338,0,0,1-1.673.266L53.707-196.713,30-168.017A1.342,1.342,0,0,1,28.965-167.53Z" transform="translate(-18.759 -61.938)" fill="#f53c37"/>
    <path id="Path_2325" data-name="Path 2325" d="M314.881-221.594a1.287,1.287,0,0,1-.156-.01L307-222.5a1.343,1.343,0,0,1-1.18-1.489,1.345,1.345,0,0,1,1.489-1.181l7.728.9a1.345,1.345,0,0,1,1.18,1.489A1.345,1.345,0,0,1,314.881-221.594Z" transform="translate(-207.683 -60.044)" fill="#f53c37"/>
    <path id="Path_2326" data-name="Path 2326" d="M225.158-188.609a3.761,3.761,0,0,1-3.76,3.761,3.761,3.761,0,0,1-3.76-3.761,3.761,3.761,0,0,1,3.76-3.761A3.761,3.761,0,0,1,225.158-188.609Z" transform="translate(-147.804 -82.324)" fill="#f53c37"/>
    <path id="Path_2327" data-name="Path 2327" d="M163.215-121.979a3.761,3.761,0,0,1-3.76,3.761,3.761,3.761,0,0,1-3.76-3.761,3.761,3.761,0,0,1,3.76-3.761A3.761,3.761,0,0,1,163.215-121.979Z" transform="translate(-105.736 -127.575)" fill="#f53c37"/>
    <path id="Path_2328" data-name="Path 2328" d="M103.747-155.429a3.761,3.761,0,0,1-3.76,3.761,3.761,3.761,0,0,1-3.76-3.761,3.761,3.761,0,0,1,3.76-3.761A3.761,3.761,0,0,1,103.747-155.429Z" transform="translate(-65.35 -104.858)" fill="#f53c37"/>
    <path id="Path_2329" data-name="Path 2329" d="M248.6-161.849a3.761,3.761,0,0,1-3.76,3.761,3.761,3.761,0,0,1-3.76-3.761,3.761,3.761,0,0,1,3.76-3.761A3.761,3.761,0,0,1,248.6-161.849Z" transform="translate(-163.721 -100.498)" fill="#f53c37"/>
    <path id="Path_2330" data-name="Path 2330" d="M27.61-63.559a3.758,3.758,0,0,1-3.76,3.757,3.758,3.758,0,0,1-3.76-3.757,3.759,3.759,0,0,1,3.76-3.761A3.759,3.759,0,0,1,27.61-63.559Z" transform="translate(-13.643 -167.249)" fill="#f53c37"/>
  </g>
</svg>
