<svg xmlns="http://www.w3.org/2000/svg" xmlns:xlink="http://www.w3.org/1999/xlink" width="162.58" height="84.183" viewBox="0 0 162.58 84.183">
  <defs>
    <clipPath id="clip-path">
      <path id="Path_2354" data-name="Path 2354" d="M1.2-1.2H161.38V-66.982H1.2Z" fill="none" clip-rule="evenodd"/>
    </clipPath>
  </defs>
  <g id="Group_300" data-name="Group 300" transform="translate(0 84.183)">
    <g id="Group_299" data-name="Group 299" clip-path="url(#clip-path)">
      <path id="Path_2331" data-name="Path 2331" d="M53.206-45.763s.835-4.573,5.039-4.508S63.92-44,66.138-43.137s2.958-.307,3.578,1.181-1.305,2.325-1.305,2.325a9.779,9.779,0,0,1,1.753,5.044c.07,2.814-3.187,4.084-3.245,5.152s1.432,1.025.689,3.75S61.384-21,59.42-21.069,48.929-29.891,47.667-32,43.439-45.692,53.206-45.763Z" fill="#f53c37" stroke="#000" stroke-linejoin="round" stroke-width="2.4"/>
      <path id="Path_2332" data-name="Path 2332" d="M52.806-18.715a31.99,31.99,0,0,1-3.5-.463c-2.816-.495-4.121-3.291-3.925-7.005a34.7,34.7,0,0,1,2.852-11.465c1.058-2.439,2.757-4.012,4.74-4.065.5,2.1,4.41,5.428,8.9,7.34L61.3-32.689c.125-.22.227-.408.292-.535.528-1.049,1.182-2.618,2.343-.934,1.208,1.757.006,4.342-1.4,5.535L65.548-4.877c-.592,2.318-10.73,4.735-13.6.839C51.41-4.759,52.48-12.263,52.806-18.715Z" fill="#fff" stroke="#000" stroke-linejoin="round" stroke-width="2.4"/>
      <path id="Path_2333" data-name="Path 2333" d="M54.688-3.632,67.65-7l1.395,4.3-9.979,5.84L53.946-.763,47.8.709l1.635-5.355,1.9-2.929Z" fill="#fff" stroke="#000" stroke-linejoin="round" stroke-width="2.4"/>
      <path id="Path_2334" data-name="Path 2334" d="M120.946-36.621s-2.01-5-9.407-2.021-6.765,13.382-5.406,19.916S94.974-2.2,94.721,2.251s15.638,6.6,16.417,5.306c0,0,8.966-8.165,13.219-11s4.148-3.629,4.148-3.629,6.668,1.691,7.893-4.879a14.228,14.228,0,0,0-3.958-11.222C130.123-25.5,126.028-43.822,120.946-36.621Z" fill="#f53c37" stroke="#000" stroke-linejoin="round" stroke-width="2.328"/>
      <path id="Path_2335" data-name="Path 2335" d="M120.649-9.415a7.622,7.622,0,0,1-6.175-4.793l4.479-.2Z" fill="#311d69"/>
      <path id="Path_2336" data-name="Path 2336" d="M118.937-13.085a10,10,0,0,0,5.476-.943,10.36,10.36,0,0,0,2.374-3.032l-.04.227c-1.015,4.61-4.8,6.378-8.425,5.352a7.316,7.316,0,0,1-4.916-4.823A9.46,9.46,0,0,0,118.937-13.085Z" fill="#ac253c"/>
      <path id="Path_2337" data-name="Path 2337" d="M113.866-23.1l.7-2.671c1.916-5.62,7.627-5.544,9.625-1.022.307.7.825,1.626,1.329,2.716.225-.3.592-.421,1.186-.1,1.514.807,1.5,4.091.229,5.347a8.262,8.262,0,0,1-.186,2c-.854,3.883-3.672,5.75-6.707,5.629l2.135,6.282c1.18,2.155,2.808,5,1.889,5.911C120.923,4.091,115-.931,114.791-3.1l-1.15-12.571a7.956,7.956,0,0,1-.586-2.218c-1.915-.553-2.331-4.771-.611-5.752C113.284-24.125,113.681-23.695,113.866-23.1Z" fill="#fff" stroke="#000" stroke-linejoin="round" stroke-width="2.328"/>
      <path id="Path_2338" data-name="Path 2338" d="M118.7-30.695a6.754,6.754,0,0,0,3.17,3.818,12.988,12.988,0,0,0,5.048,1.82c.722.088-.12-.526-1.109-2.362s-3.081-4.289-4.113-4.246S118-32.174,118.7-30.695Z" fill="#f53c37"/>
      <path id="Path_2339" data-name="Path 2339" d="M120.792-29.836s-3.057,3.654-5.432,4.817-4.413-.03-4.557-.715,1.667-2.172,2.461-3.225,4.053-3.17,5.652-2.718S120.917-30.937,120.792-29.836Z" fill="#f53c37"/>
      <path id="Path_2340" data-name="Path 2340" d="M142.08-34.345s-3.317-3.555.893-6.129c12.385-7.492,18.439,1.413,18.34,10.452-.052,6.062-4.783,10.567-4.783,10.567S142.53-27.389,142.08-34.345Z" fill="#f53c37" stroke="#000" stroke-linejoin="round" stroke-width="2.4"/>
      <path id="Path_2341" data-name="Path 2341" d="M155.957-24.909l5.4,21.186C161.8-.568,154.617,3.77,150.4,3.069c-1.158-.193-3.093-.269-2.523-2.644l1.545-19.959Z" fill="#fff" stroke="#000" stroke-linejoin="round" stroke-width="2.4"/>
      <path id="Path_2342" data-name="Path 2342" d="M155.546-41.272s-.033-3.824-4.76-5.1-4.817,1.366-8.454,5.243c-3.661,3.869-1.745,9.148,3.811,12.538C150.017-26.219,159.295-34.4,155.546-41.272Z" fill="#f53c37" stroke="#000" stroke-linejoin="round" stroke-width="2.4"/>
      <path id="Path_2343" data-name="Path 2343" d="M154.85-32.545l2.091,7.473a7.358,7.358,0,0,1-3.825,8.252c-2.866,1.319-4.757,2.117-8.1,1.546-2.8-.481-4.108-3.247-3.921-6.925a34.2,34.2,0,0,1,2.782-11.38,5.811,5.811,0,0,1,5.062-3.824C151.255-37.471,150.313-34.353,154.85-32.545Z" fill="#fff" stroke="#000" stroke-linejoin="round" stroke-width="2.4"/>
      <path id="Path_2344" data-name="Path 2344" d="M155.4-26.271a10.184,10.184,0,0,0,.565-1.672c.252-1.1.913-2.652,2.345-1.465,2.061,1.722.351,7.466-2.463,7.255C153.779-22.3,154.765-24.928,155.4-26.271Z" fill="#fff" stroke="#000" stroke-linejoin="round" stroke-width="2.4"/>
      <path id="Path_2345" data-name="Path 2345" d="M77.431-28.266a4.862,4.862,0,0,1-3.124-4.161c-.543-3.455-.275-6.927,1.507-7.967s2.476-1.174,2.84-.809c.325.325-.057,1.832-.057,1.832s3.789-5.059,10.016-4.594c.718.054-.548,2.16-.548,2.16s6.07-1.734,9.258,9.431,2.9,16.378-3.075,18S77.431-28.266,77.431-28.266Z" fill="#f53c37" stroke="#000" stroke-linejoin="round" stroke-width="2.399"/>
      <path id="Path_2346" data-name="Path 2346" d="M94.072-19.928,100,.18c.375,3.214-7.336,7.756-14.06,6.144-1.671-.4-1.857-2.415-1.071-5.88l2.153-17.667Z" fill="#fff" stroke="#000" stroke-linejoin="round" stroke-width="2.399"/>
      <path id="Path_2347" data-name="Path 2347" d="M93.72-22.368l.857,1.748A6.773,6.773,0,0,1,90.948-11.9c-2.7,1.15-4.511,1.411-8.159,1.477-3.036.057-4.969-2.595-5.521-6.51a36.973,36.973,0,0,1,.645-12.548c1.294-5.9,8.114-7.38,11.774-1.114l1.627,3.318c.076-.27.141-.544.2-.82.272-1.28.973-3.117,2.675-1.78C96.2-28.292,95.726-23.88,93.72-22.368Z" fill="#fff" stroke="#000" stroke-linejoin="round" stroke-width="2.399"/>
      <path id="Path_2348" data-name="Path 2348" d="M78.834-12.534c.073-.168,9.156,1.865,15.322-4.167,0,0-2.848,10.471-8.623,11.7l.684-5.6c-.983.112-2.08.165-3.427.189A4.585,4.585,0,0,1,78.834-12.534Z"/>
      <path id="Path_2349" data-name="Path 2349" d="M6.716-21.756S-7.584-10.2-13.024-3.084s-13.634,32.148-4.9,38.99c0,0,22.084,12.628,38.952-9.5s10.8-45.479,10.984-50.845,2.415-10.837.754-15.163S22.516-49.324,19.8-44.647,13.472-26.65,6.716-21.756Z" fill="#f53c37" stroke="#000" stroke-linejoin="round" stroke-width="2.4"/>
      <path id="Path_2350" data-name="Path 2350" d="M19.789-25.237,13.568-10.8C12.515-8.178,16.388,1.136,21.874-.558c1.609-.495,1.419-4.742,1.336-7.924l1.361-12.34Z" fill="#fff" stroke="#000" stroke-linejoin="round" stroke-width="2.4"/>
      <path id="Path_2351" data-name="Path 2351" d="M21-34.523a35.817,35.817,0,0,0-1.824,7.338C18.747-22.512,21.612-20,26.2-18.939c4.479,1.033,6.142.219,7.449-2.809a10.447,10.447,0,0,0,.789-2.962,14.368,14.368,0,0,0-1.276-6.931,23.6,23.6,0,0,1-.988-3.157C30.306-40.153,23.74-40.775,21-34.523Z" fill="#fff" stroke="#000" stroke-linejoin="round" stroke-width="2.4"/>
      <path id="Path_2352" data-name="Path 2352" d="M19.209-30.771a8.161,8.161,0,0,1-.338-1.652c-.118-1.063-.547-2.62-2.047-1.665-2.191,1.389-1.242,7.03,1.458,7.165C20.287-26.821,19.665-29.424,19.209-30.771Z" fill="#ff8679" stroke="#000" stroke-linejoin="round" stroke-width="2.4"/>
      <path id="Path_2353" data-name="Path 2353" d="M29.746-38.1a7.526,7.526,0,0,0-6.092,4.467c-1.912,4.252-6.236,19.677-7.488,23.445S6.454-6.418.4-4.675-11.876,6.734-12.937,9.2c0,0,4.619-16.262,9.708-21.958s10.2-11.623,12.985-15.56,4.895-17.512,10.028-17.592S29.746-38.1,29.746-38.1Z" fill="#f53c37" stroke="#000" stroke-linejoin="round" stroke-width="2.4"/>
    </g>
    <path id="Path_2355" data-name="Path 2355" d="M1.2-1.2H161.38V-66.982H1.2Z" fill="none" stroke="#000" stroke-linecap="round" stroke-linejoin="round" stroke-width="2.4"/>
    <path id="Path_2356" data-name="Path 2356" d="M74.056-66.982l7.234-16,5.744,16" fill="none" stroke="#000" stroke-linecap="round" stroke-linejoin="round" stroke-width="2.4"/>
  </g>
</svg>
