<svg xmlns="http://www.w3.org/2000/svg" width="433.843" height="299.293" viewBox="0 0 433.843 299.293">
  <g id="Group_253" data-name="Group 253" transform="translate(0 420.741)">
    <path id="Path_1772" data-name="Path 1772" d="M216.922-21.643C97.2-21.643,0-18.194,0-13.945s97.2,7.7,216.922,7.7,216.921-3.449,216.921-7.7S336.643-21.643,216.922-21.643Z" transform="translate(0 -115.201)" fill-rule="evenodd"/>
    <path id="Path_1773" data-name="Path 1773" d="M402.455-355.148,377.236-364.3l-2.071,5.183.009,0c-.415,1.15,4.969,4.151,12.03,6.7s13.12,3.685,13.535,2.535Z" transform="translate(-108.289 -16.291)" fill="#f53c37" stroke="#fff" stroke-linejoin="round" stroke-width="2.4"/>
    <path id="Path_1774" data-name="Path 1774" d="M403.306-355.371c-.416,1.151-6.4.042-13.369-2.476s-12.28-5.49-11.864-6.641,6.4-.043,13.369,2.475S403.721-356.522,403.306-355.371Z" transform="translate(-109.125 -16.107)" fill="#f53c37" stroke="#fff" stroke-linejoin="round" stroke-width="2.4"/>
    <path id="Path_1775" data-name="Path 1775" d="M311.406-296.2l-17.861,20.022,4.044,3.846.007-.008c.914.812,5.7-3.074,10.687-8.684s8.291-10.815,7.377-11.628Z" transform="translate(-84.733 -35.948)" fill="#f53c37" stroke="#fff" stroke-linejoin="round" stroke-width="2.4"/>
    <path id="Path_1776" data-name="Path 1776" d="M311.312-296.287c.914.813-2.337,5.96-7.26,11.5s-9.655,9.366-10.57,8.553,2.336-5.96,7.26-11.5S310.4-297.1,311.312-296.287Z" transform="translate(-84.67 -35.893)" fill="#f53c37" stroke="#fff" stroke-linejoin="round" stroke-width="2.4"/>
    <path id="Path_1777" data-name="Path 1777" d="M440.831-414.763l-17.86,20.022,4.044,3.846.007-.008c.913.813,5.7-3.074,10.687-8.684s8.29-10.815,7.377-11.628Z" transform="translate(-122.092 -1.726)" fill="#f53c37" stroke="#fff" stroke-linejoin="round" stroke-width="2.4"/>
    <path id="Path_1778" data-name="Path 1778" d="M440.738-414.845c.915.813-2.336,5.96-7.259,11.5s-9.656,9.366-10.57,8.553,2.336-5.96,7.259-11.5S439.824-415.658,440.738-414.845Z" transform="translate(-122.029 -1.671)" fill="#f53c37" stroke="#fff" stroke-linejoin="round" stroke-width="2.4"/>
    <path id="Path_1779" data-name="Path 1779" d="M187.11-346.985s-8.394,39.971-4.421,46.1c5.982,9.245,51.273,13.276,55.9,20.762s-51.248,6.327-65.318,2.592-13.146-27.052-3.492-42.558S187.11-346.985,187.11-346.985Z" transform="translate(-46.934 -21.29)"/>
    <path id="Path_1780" data-name="Path 1780" d="M320.321-59.458s1.67,10.422,3.908,12.724a5.2,5.2,0,0,1-3.409,2.819,55.672,55.672,0,0,1-10.742,1.81c-.094-4.27-1.952-11.421-2.448-13.708Z" transform="translate(-88.798 -104.286)" fill="#fff"/>
    <path id="Path_1781" data-name="Path 1781" d="M324.585-32.157a82.765,82.765,0,0,1-13.092,1.691,12.351,12.351,0,0,1-.5-5.14,10.877,10.877,0,0,0,.034-1.336,55.672,55.672,0,0,0,10.742-1.81,5.2,5.2,0,0,0,3.409-2.819l.152.148c1.01.861,3.225,1.039,6.292,1.326,4.529.776,9.08-1.769,11.233,2.1A125.5,125.5,0,0,1,324.585-32.157Z" transform="translate(-89.749 -109.449)" stroke="#fff" stroke-linejoin="round" stroke-width="2.4"/>
    <path id="Path_1782" data-name="Path 1782" d="M232.686-228.59s-7.088-7.138-26.345-10.836-46.063-9.4-42.519,0,96.491,131.784,101.459,137.518,17.086,1.118,21.933-4.451C291.6-111.4,253.218-209.9,232.686-228.59Z" transform="translate(-47.196 -50.858)"/>
    <path id="Path_1783" data-name="Path 1783" d="M42.786-70.048l-.418-.042a2.085,2.085,0,0,1-1.625-2.457l18.74-91.844a2.089,2.089,0,0,1,2.459-1.625,2.086,2.086,0,0,1,1.623,2.458L44.824-71.715A2.084,2.084,0,0,1,42.786-70.048Z" transform="translate(-11.749 -73.516)"/>
    <path id="Path_1784" data-name="Path 1784" d="M197.138-70.048l.418-.042a2.084,2.084,0,0,0,1.625-2.457L180.444-164.39a2.088,2.088,0,0,0-2.457-1.625,2.084,2.084,0,0,0-1.625,2.458L195.1-71.715A2.084,2.084,0,0,0,197.138-70.048Z" transform="translate(-50.895 -73.516)"/>
    <path id="Path_1785" data-name="Path 1785" d="M132.969-70.048l-.418-.042a2.081,2.081,0,0,1-1.623-2.457l18.74-91.844a2.085,2.085,0,0,1,2.455-1.625,2.083,2.083,0,0,1,1.623,2.458L135.007-71.715A2.082,2.082,0,0,1,132.969-70.048Z" transform="translate(-37.781 -73.516)"/>
    <path id="Path_1786" data-name="Path 1786" d="M101.945-70.048l.418-.042a2.084,2.084,0,0,0,1.625-2.457L85.25-164.39a2.087,2.087,0,0,0-2.456-1.625,2.084,2.084,0,0,0-1.625,2.458l18.74,91.841A2.084,2.084,0,0,0,101.945-70.048Z" transform="translate(-23.417 -73.516)"/>
    <path id="Path_1787" data-name="Path 1787" d="M69.973-210.936s.057,11.932,5.35,16.491S94.5-199.833,94.5-199.833l-16.657-11.1Z" transform="translate(-20.198 -60.561)" fill="#ac253c"/>
    <path id="Path_1788" data-name="Path 1788" d="M53.623-180.911s-1.186-11.716,7.647-14.036,28.433-4.474,52.23-2.09,39.043,5.473,45.061,13.286S162-164.747,128.01-164.428,50.67-164.18,53.623-180.911Z" transform="translate(-15.437 -64.273)" fill="#fff" stroke="#000" stroke-linejoin="round" stroke-width="2.4"/>
    <path id="Path_1789" data-name="Path 1789" d="M94.9-332.585c-5.439-9.781-14.6-30.027-39.351-16.194-22.077,12.338-31.519,88.328-12.087,102.121,9.731,6.907,45.974-1.9,59.695-8.617S108.435-308.246,94.9-332.585Z" transform="translate(-9.504 -19.419)" fill="#fff" stroke="#000" stroke-linejoin="round" stroke-width="2.4"/>
    <path id="Path_1790" data-name="Path 1790" d="M68.52-264.522c-8.99-54.849,12.1-108.462,19.567-114.784,19.731-16.695,64.6-6.614,70.791,12.626,6.135,19.079-30.047,43.772-4.508,79.3,2.48,3.451-2.527,4.09-32.951,13.464-3.547,1.095-15.569,1.369-19.949,1.652C87.239-271.325,69.084-261.064,68.52-264.522Z" transform="translate(-19.146 -9.523)" fill="#f53c37" stroke="#000" stroke-linejoin="round" stroke-width="2.4"/>
    <path id="Path_1791" data-name="Path 1791" d="M143.572-386.242s-7.685-1.421-11.763.79,9.211,35.274,10.1,44.493c.874,9.071,3.594,7.709,5.159,4.141S174.554-383.478,143.572-386.242Z" transform="translate(-37.823 -9.828)" fill="#fff" stroke="#000" stroke-linejoin="round" stroke-width="2.4"/>
    <path id="Path_1792" data-name="Path 1792" d="M273.985-45.919s1.14,10.492,3.261,12.906A5.2,5.2,0,0,1,273.7-30.37a55.808,55.808,0,0,1-10.821,1.264c.123-4.27-1.371-11.508-1.752-13.818Z" transform="translate(-75.375 -108.194)" fill="#fff"/>
    <path id="Path_1793" data-name="Path 1793" d="M276.779-18.4a82.442,82.442,0,0,1-13.161,1.027,12.365,12.365,0,0,1-.238-5.159,10.9,10.9,0,0,0,.1-1.332A55.808,55.808,0,0,0,274.3-25.132a5.2,5.2,0,0,0,3.547-2.643l.144.155c.965.91,3.167,1.2,6.217,1.644,4.485,1,9.158-1.311,11.112,2.664A125.689,125.689,0,0,1,276.779-18.4Z" transform="translate(-75.979 -113.431)" stroke="#fff" stroke-linejoin="round" stroke-width="2.4"/>
    <path id="Path_1794" data-name="Path 1794" d="M94.668-245.847a123.19,123.19,0,0,1,67.393,2.569c5.14,1.69,10.4,3.638,15.518,5.863,25.535,11.1,30.1,50.484,32.344,58.362s20.529,72.482,10.221,83.507c-6.723,7.189-22.695,2.59-26.791-5.628s-21.19-85.583-32.824-91.877c-4.575-2.473-60.931-.161-80.974-13.867s-11.243-34.818-11.243-34.818Z" transform="translate(-19.163 -49.473)" fill="#fff" stroke="#000" stroke-linejoin="round" stroke-width="2.4"/>
    <path id="Path_1795" data-name="Path 1795" d="M204.036-109.148c-4.724-14.173-17.255-58.746-28.345-82.573s-46.422-18.9-74.627-22.375c-18.363-2.266-29.285-6.46-34.676-9.114.013,7.185,2.52,16.557,13.167,23.838,20.042,13.706,76.4,11.394,80.974,13.867,11.633,6.294,28.723,83.659,32.824,91.877,2.828,5.67,11.309,9.616,18.5,9.156C210.3-89.621,207.288-99.4,204.036-109.148Z" transform="translate(-19.163 -57.018)"/>
    <path id="Path_1796" data-name="Path 1796" d="M107.661-378.515c8.872,4.994-3.9,65.019,0,70.361s68.265,13.4,61.282,21.163-69.6,16.394-87.917-3.341c-8.844-9.527-5.229-73.39,14.2-86.672C98.82-379.466,103.31-380.965,107.661-378.515Z" transform="translate(-22.07 -11.828)" fill="#f53c37" stroke="#fff" stroke-linejoin="round" stroke-width="2.4"/>
    <path id="Path_1797" data-name="Path 1797" d="M165.04-271.348c-3.7-1.736-14.994-.728-27.306-1.922s-33.907.577-43.356-3.341-9.652-6.765-12.734-19.294C79.6-304.23,79.58-321.542,79.8-332.229c-4.951,22.726-4.27,49.688,1.23,55.617,16.54,17.817,69.189,12.514,84.4,5.6Z" transform="translate(-22.07 -25.549)"/>
    <path id="Path_1798" data-name="Path 1798" d="M191.586-252.1s2.446-3.736,5.639-4.846,11,.327,14.7,3.1,5.342,3.768,1.847,3.528S186.346-249.735,191.586-252.1Z" transform="translate(-55.086 -47.172)" fill="#fff"/>
    <path id="Path_1799" data-name="Path 1799" d="M109.932-246.562a3.212,3.212,0,0,0-3.823,2.022L86.4-175.4,66.7-244.54a3.208,3.208,0,0,0-3.82-2.022,2.788,2.788,0,0,0-2.287,3.379L83.156-164,60.591-84.816a2.785,2.785,0,0,0,2.287,3.377,3.2,3.2,0,0,0,3.82-2.02L86.4-152.606l19.705,69.147a3.21,3.21,0,0,0,3.823,2.02,2.782,2.782,0,0,0,2.284-3.377L89.654-164l22.563-79.184A2.785,2.785,0,0,0,109.932-246.562Z" transform="translate(-17.463 -50.254)" fill="#f53c37"/>
    <path id="Path_1800" data-name="Path 1800" d="M480.993-164l22.567-79.184a2.787,2.787,0,0,0-2.285-3.379,3.211,3.211,0,0,0-3.823,2.022l-19.7,69.145L458.042-244.54a3.214,3.214,0,0,0-3.825-2.022,2.788,2.788,0,0,0-2.285,3.379L474.5-164,451.933-84.816a2.786,2.786,0,0,0,2.285,3.377,3.211,3.211,0,0,0,3.825-2.02l19.705-69.147,19.7,69.147a3.208,3.208,0,0,0,3.823,2.02,2.784,2.784,0,0,0,2.285-3.377Z" transform="translate(-130.425 -50.254)" fill="#f53c37"/>
    <path id="Path_1801" data-name="Path 1801" d="M43.486-238.4H402.361V-251H43.486Z" transform="translate(-12.552 -48.996)" stroke="#fff" stroke-linejoin="round" stroke-width="2.4"/>
    <path id="Path_1802" data-name="Path 1802" d="M163.353-405.076a3.13,3.13,0,0,0,2.482-2.253c.765-2.12.32-4.332-.681-5.206l-1-.876-.186,1.167a8.82,8.82,0,0,0-3.429-3.227,11.7,11.7,0,0,0-2.348-.9l.844,1.655s-4.389-2.058-7.768,4.618-3.827,10.011-.244,11.761S163.353-405.076,163.353-405.076Z" transform="translate(-42.873 -1.262)" fill="#f53c37" stroke="#000" stroke-linejoin="round" stroke-width="2.4"/>
    <path id="Path_1803" data-name="Path 1803" d="M151.126-400.1l-7.192,10.692c-.465,1.657,7.206,8.676,10.395,7.291.933-.405,1.15-2.054.9-3.971l-1.743-10.541Z" transform="translate(-41.541 -5.957)" fill="#fff" stroke="#000" stroke-linejoin="round" stroke-width="2.4"/>
    <path id="Path_1804" data-name="Path 1804" d="M156.135-387.789c-1.739-.819-4.1-1.971-4.1-1.971a8.192,8.192,0,0,0,1.322,5.836,7.867,7.867,0,0,0,3.922,3.019Z" transform="translate(-43.856 -8.943)"/>
    <path id="Path_1805" data-name="Path 1805" d="M156.84-405.428l-4.306,5.712a4.364,4.364,0,0,0,1.235,5.961,12.014,12.014,0,0,0,4.979,1.928c1.917.408,3.462-1.037,4.287-3.447a23.693,23.693,0,0,0,1.118-8.016C164.052-407.181,159.918-408.948,156.84-405.428Z" transform="translate(-43.832 -3.873)" fill="#fff" stroke="#000" stroke-linejoin="round" stroke-width="2.4"/>
    <path id="Path_1806" data-name="Path 1806" d="M156.658-402.207a6.039,6.039,0,0,1,.309-1.285c.272-.8.492-2.047-.888-1.869-2.011.261-3.358,4.128-1.5,5.123C155.964-399.5,156.526-401.1,156.658-402.207Z" transform="translate(-44.365 -4.435)" fill="#fff" stroke="#000" stroke-linejoin="round" stroke-width="2.4"/>
    <path id="Path_1807" data-name="Path 1807" d="M259.454-369.568q11.2-16.3,22.4-32.6c10,2.4,26.012-3.219,41.781-8.757,8.181-2.874,16.3-5.726,23.478-7.426,8.964-2.122,16.894-3.05,23.1-1.871q-12.662,15.09-25.269,30.171c-9.491-1.066-23.422,3.395-37.15,8.19C289.343-375.421,274.385-370.709,259.454-369.568Z" transform="translate(-74.892 0)" fill="#fff"/>
    <path id="Path_1808" data-name="Path 1808" d="M347.586-397.216c-2.051-.024-7.654,3.21-10.485,4.987-10.005,1.381-21.67,5.534-33.359,9.693-11.34,4.036-22.7,8.079-32.591,9.607.23-1.328-1.831-3.208-2.963-4.528l11.493-16.729c2.4-.777,7.4-2.919,9.713-5.046,9.809-.982,21.432-5.108,33.082-9.242,7.677-2.724,15.365-5.452,22.553-7.287a85.67,85.67,0,0,1,12.426-2.351c.235,1.367,1.073,4.354,4.026,4.251Q354.522-405.537,347.586-397.216Zm-.477-21.138c-7.18,1.7-15.3,4.552-23.481,7.426-15.768,5.539-31.778,11.157-41.779,8.757q-11.2,16.3-22.4,32.6c14.931-1.14,29.889-5.852,48.339-12.3,13.728-4.8,27.658-9.255,37.15-8.19q12.608-15.082,25.269-30.171C364-421.4,356.073-420.477,347.109-418.354Z" transform="translate(-74.892 0)" fill="#f53c37"/>
    <path id="Path_1809" data-name="Path 1809" d="M336.459-399.994c7.16-2.553,13.353-1.611,8.811,4.154-4.7,5.964-15.232,11.986-23.289,14.848-7.3,2.592-13.16,1.351-8.659-4.38C317.969-391.289,328.536-397.169,336.459-399.994Z" transform="translate(-89.987 -5.602)" fill="#f53c37"/>
    <path id="Path_1810" data-name="Path 1810" d="M330.267-385.5l.2-.046a3.98,3.98,0,0,0,1.551-1.007c.168-.169.363-.364.528-.561.445-.533.554-.868.313-.96a1.046,1.046,0,0,0-.359.053,3.418,3.418,0,0,0-1.48.97c-.336.414-.505.621-.842,1.034C329.9-385.667,329.932-385.5,330.267-385.5Zm2.007-6.394-.187.23c-.552.679-.6,1.128-.117,1.32l.148-.044a1.092,1.092,0,0,0,.319-.254l2.286-2.811c.3-.366.348-.514.171-.462a8.332,8.332,0,0,0-1.918,1.321A6.6,6.6,0,0,0,332.274-391.889Zm6.961-6.2c.459-.14.675,0,.489.3-.233.376-.435.721-.154.738.876-.1,1.436.031,1.625.4a.889.889,0,0,1-.058,1.01l-.162.2a4.976,4.976,0,0,1-1.759,1.225,3.2,3.2,0,0,1-.322.122l-.067.021c-.474.144-.7.047-.69-.279-.075-.095-.232-.1-.461-.031a3.494,3.494,0,0,0-1.5.99l-1.759,2.163q-.51.626.458.449c1.058.023,1.463.475,1.224,1.358a5.5,5.5,0,0,1-.925,1.524,20.124,20.124,0,0,1-5.406,4.31c-.537.3-1.244.654-2.127,1.064a4.025,4.025,0,0,0-1.1.939,4.124,4.124,0,0,1-1.423.825c-.471.142-.639-.037-.378-.421.244-.361.183-.575-.481-.448-1.047-.026-1.465-.452-1.27-1.256a3.2,3.2,0,0,1,.241-.373,5.106,5.106,0,0,1,1.829-1.282l.32-.12c.564-.167.791-.044.687.357a.4.4,0,0,0,.405.053l.216-.065a3.46,3.46,0,0,0,1.184-.743l.17-.186,1.929-2.37c.263-.323.221-.484-.114-.485-1.048.024-1.469-.4-1.3-1.246a5.076,5.076,0,0,1,.955-1.637,18.949,18.949,0,0,1,4.591-3.8,27.291,27.291,0,0,1,2.529-1.371,4.98,4.98,0,0,0,1.075-.972A3.9,3.9,0,0,1,339.235-398.084Z" transform="translate(-93.219 -6.524)" fill="#fff"/>
    <path id="Path_1811" data-name="Path 1811" d="M337.3-292.339q16.748-10.514,33.5-21.028c8.225,6.174,25.151,7.375,41.823,8.554,8.649.612,17.232,1.218,24.5,2.508,9.07,1.612,16.715,3.91,21.946,7.458q-17.613,8.82-35.173,17.656c-8.287-4.748-22.843-6.186-37.347-7.237C367.061-285.841,351.462-287.456,337.3-292.339Z" transform="translate(-97.364 -30.994)" fill="#fff"/>
    <path id="Path_1812" data-name="Path 1812" d="M429.169-282.715c-1.873-.837-8.3-.094-11.6.414-9.731-2.706-22.085-3.527-34.465-4.351-12.01-.8-24.043-1.6-33.727-4.125.74-1.128-.406-3.671-.92-5.332l17.191-10.79c2.515.241,7.946.258,10.918-.774,9.392,2.994,21.7,3.823,34.032,4.655,8.127.548,16.266,1.1,23.591,2.268a85.624,85.624,0,0,1,12.338,2.776c-.327,1.347-.744,4.422,2.007,5.5Q438.839-287.6,429.169-282.715Zm7.957-19.59c-7.266-1.291-15.849-1.9-24.5-2.509-16.671-1.179-33.6-2.38-41.821-8.553q-16.752,10.513-33.5,21.028c14.157,4.883,29.756,6.5,49.247,7.911,14.5,1.051,29.059,2.489,37.347,7.237q17.561-8.836,35.173-17.656C453.84-298.395,446.2-300.693,437.126-302.3Z" transform="translate(-97.364 -30.994)" fill="#f53c37"/>
    <path id="Path_1813" data-name="Path 1813" d="M425.12-295.779c7.585.5,12.9,3.824,6.437,7.311-6.679,3.607-18.738,4.952-27.27,4.378-7.729-.52-12.614-3.986-6.207-7.458C404.693-295.133,416.727-296.333,425.12-295.779Z" transform="translate(-114.053 -36.034)" fill="#f53c37"/>
    <path id="Path_1814" data-name="Path 1814" d="M414.32-286.722c.081.014.121.022.2.038a3.984,3.984,0,0,0,1.823-.308c.222-.089.478-.191.708-.306.62-.312.853-.577.669-.756a1.058,1.058,0,0,0-.351-.094,3.425,3.425,0,0,0-1.743.3l-1.184.615C414.048-287.026,414.013-286.855,414.32-286.722Zm4.38-5.07-.262.137c-.776.4-1,.8-.632,1.164l.154.018a1.1,1.1,0,0,0,.393-.107l3.214-1.672c.419-.217.524-.334.34-.356a8.335,8.335,0,0,0-2.284.451A6.6,6.6,0,0,0,418.7-291.793Zm8.849-2.922c.477.054.621.266.33.469-.363.253-.686.489-.435.616.844.255,1.306.6,1.331,1.016a.887.887,0,0,1-.455.9l-.227.118a4.971,4.971,0,0,1-2.1.425,3.151,3.151,0,0,1-.344-.016l-.07-.008c-.492-.055-.662-.235-.522-.529-.031-.117-.173-.185-.41-.212a3.493,3.493,0,0,0-1.768.314l-2.473,1.286q-.717.372.242.594c.962.442,1.155,1.017.583,1.732a5.5,5.5,0,0,1-1.453,1.031,20.121,20.121,0,0,1-6.673,1.809c-.61.059-1.4.107-2.374.132a4,4,0,0,0-1.381.425,4.131,4.131,0,0,1-1.634.191c-.489-.056-.572-.287-.181-.537.367-.235.4-.455-.263-.6-.95-.44-1.165-1-.666-1.657a3.164,3.164,0,0,1,.369-.246,5.1,5.1,0,0,1,2.187-.45l.341.018c.585.07.744.273.489.6a.4.4,0,0,0,.351.209l.224.027a3.463,3.463,0,0,0,1.382-.211l.23-.1,2.712-1.409c.37-.192.395-.357.087-.491-.971-.394-1.191-.946-.694-1.658a5.064,5.064,0,0,1,1.527-1.123,18.948,18.948,0,0,1,5.724-1.668,27.358,27.358,0,0,1,2.866-.255,4.962,4.962,0,0,0,1.372-.465A3.9,3.9,0,0,1,427.549-294.714Z" transform="translate(-117.292 -36.374)" fill="#fff"/>
  </g>
</svg>
