<svg xmlns="http://www.w3.org/2000/svg" xmlns:xlink="http://www.w3.org/1999/xlink" width="1041.89" height="1080.337" viewBox="0 0 1041.89 1080.337">
  <defs>
    <clipPath id="clip-path">
      <path id="Path_1888" data-name="Path 1888" d="M492.865-393.808c-1.124-3.7-1.9-55.211-2.823-59.82-2.99-15.034-15.008-22.318-21.312-27.605-.477-.4-.947-.783-1.414-1.157-19.376,11.794-32.522,10.627-39.044,8.6-1.7,23.8-4.3,134.49,32.6,171.668,1.488,1.5,8.771-.15,12.187-1.027a2.118,2.118,0,0,0,1.578-2.269c-.932-9.086-4.56-46.6-15.877-69.344-3.47-6.974-6.048-64.213-4.449-63.7,2.949.942,5.586,14.927,13.147,49.412,5.7,26.024,25.889,32.651,54.209,40.135,1.692.447,11.809-5.716,11.809-5.716a4.217,4.217,0,0,0-.082-3.137C525.054-369.813,497.59-378.291,492.865-393.808Z" transform="translate(-427.449 482.391)" fill="none"/>
    </clipPath>
  </defs>
  <g id="Group_275" data-name="Group 275" transform="translate(0 657.471)">
    <path id="Path_1816" data-name="Path 1816" d="M694.2-186.931H19.274L14.965-630.418A26.256,26.256,0,0,1,41.222-656.67H663.643A26.253,26.253,0,0,1,689.9-630.418Z" transform="translate(9.637 0)" fill="#fff" stroke="#000" stroke-linejoin="round" stroke-width="1.602"/>
    <path id="Path_1817" data-name="Path 1817" d="M662.83-218.307H32.987l-4.309-424.65H658.521Z" transform="translate(18.468 8.831)" fill="none" stroke="#000" stroke-linejoin="round" stroke-width="1.602"/>
    <path id="Path_1818" data-name="Path 1818" d="M356.523-317.486,14.965-370.933v10.48c0,7.82,6.228,14.649,14.048,14.855l323.679,46.041a38.288,38.288,0,0,0,7.736.794h652.76c10.087,0,18.263-8.609,18.263-18.69v-.033Z" transform="translate(9.637 184.002)" fill="#fff" stroke="#000" stroke-linejoin="round" stroke-width="1.602"/>
    <path id="Path_1819" data-name="Path 1819" d="M14.965-370.933l341.557,53.447h674.929L689.9-370.933Z" transform="translate(9.637 184.002)" fill="#fff" stroke="#000" stroke-linejoin="round" stroke-width="1.602"/>
    <path id="Path_1820" data-name="Path 1820" d="M844.784-334.371,638.226-360.477,95.2-362.644l219.273,28.273Z" transform="translate(61.306 189.339)" fill="none" stroke="#000" stroke-linejoin="round" stroke-width="1.602"/>
    <path id="Path_1821" data-name="Path 1821" d="M421.081-506.1h65.926l-5.136-46.631H415.859Zm5.808,52.608.092.835h66.011l-.033-.266-5.188-46.368H421.841Zm6.03,53.861h66.011L494.8-436.52c-.021-.1-.049-.206-.066-.319l-1.034-9.415h-66Zm5.936,53.026h65.617a2.409,2.409,0,0,1,.4.044l-5.223-46.672H433.635Zm5.933,53.027H510.8l-5.244-46.851a2.857,2.857,0,0,1-1.083.222h-64.9Zm5.938,53.026h66.011l-5.216-46.628H445.509Zm5.936,53.032h66.015l-5.219-46.634H451.447ZM462.6-134.49h66.013l-5.244-46.844H457.357ZM414.164-567.864l.98,8.741h66.013l-.981-8.741h6l14.564,130.272c.01.109,0,.217,0,.319L540.11-86.144a3.163,3.163,0,0,1-2.643,3.554,2.637,2.637,0,0,1-.358.021,3.089,3.089,0,0,1-3-2.823l-4.805-42.917H463.295l4.725,42.164a3.169,3.169,0,0,1-2.645,3.554,2.718,2.718,0,0,1-.362.021,3.092,3.092,0,0,1-3-2.823L408.058-567.864Z" transform="translate(262.771 57.187)"/>
    <path id="Path_1822" data-name="Path 1822" d="M451.7-233.432h65.926l-5.136-46.631H446.481Zm5.808,52.608.092.835h66.011l-.033-.266-5.188-46.368H452.463Zm6.03,53.861h66.011l-4.133-36.894c-.021-.1-.049-.206-.066-.319l-1.034-9.415h-66Zm5.936,53.026h65.617a2.415,2.415,0,0,1,.4.044l-5.223-46.672H464.257Zm5.933,53.027h66.011l-5.244-46.851a2.89,2.89,0,0,1-1.083.222h-64.9Zm5.938,53.026H547.36l-5.216-46.627H476.131Zm5.936,53.032H553.3l-5.22-46.634H482.069Zm5.938,53.026h66.013l-5.244-46.845H487.979ZM444.786-295.2l.98,8.741h66.013L510.8-295.2h6l14.564,130.272c.01.108,0,.217,0,.319L570.732,186.52a3.163,3.163,0,0,1-2.643,3.554,2.665,2.665,0,0,1-.358.022,3.089,3.089,0,0,1-3-2.823l-4.805-42.917H493.917l4.725,42.164A3.169,3.169,0,0,1,496,190.074a2.748,2.748,0,0,1-.362.022,3.093,3.093,0,0,1-3-2.823L438.68-295.2Z" transform="translate(282.49 232.77)"/>
    <path id="Path_1823" data-name="Path 1823" d="M0-610.885H624.78v-38.808H0Z" transform="translate(0 4.492)" fill="#f53c37" fill-rule="evenodd"/>
    <path id="Path_1824" data-name="Path 1824" d="M91.5-573.085H373.05v-29.9H91.5Z" transform="translate(58.92 34.574)" fill="#fff" stroke="#f53c37" stroke-linecap="round" stroke-linejoin="round" stroke-width="1.3" fill-rule="evenodd"/>
    <path id="Path_1825" data-name="Path 1825" d="M91.5-492.115H373.05v-86.751H91.5Z" transform="translate(58.92 50.102)" fill="#fff" stroke="#f53c37" stroke-linecap="round" stroke-linejoin="round" stroke-width="1.3" fill-rule="evenodd"/>
    <path id="Path_1826" data-name="Path 1826" d="M91.5-383.687H373.05v-56.291H91.5Z" transform="translate(58.92 139.54)" fill="#fff" stroke="#f53c37" stroke-linecap="round" stroke-linejoin="round" stroke-width="1.3" fill-rule="evenodd"/>
    <path id="Path_1827" data-name="Path 1827" d="M267.093-505.995H371.274V-602.98H267.093Z" transform="translate(171.996 34.574)" fill="#fff" stroke="#f53c37" stroke-linecap="round" stroke-linejoin="round" stroke-width="1.3" fill-rule="evenodd"/>
    <path id="Path_1828" data-name="Path 1828" d="M361.007-394.07h62.867v-53.495H361.007Z" transform="translate(232.472 134.655)" fill="#fff" stroke="#f53c37" stroke-linecap="round" stroke-linejoin="round" stroke-width="1.3" fill-rule="evenodd"/>
    <path id="Path_1829" data-name="Path 1829" d="M246.564-462.15H350.745v-96.985H246.564Z" transform="translate(158.776 62.808)" fill="#f53c37" stroke="#f53c37" stroke-linecap="round" stroke-linejoin="round" stroke-width="1.3" fill-rule="evenodd"/>
    <path id="Path_1830" data-name="Path 1830" d="M361.007-460.989h62.867v-58.525H361.007Z" transform="translate(232.472 88.322)" fill="#f53c37" fill-rule="evenodd"/>
    <path id="Path_1831" data-name="Path 1831" d="M267.093-378.285H371.274V-475.27H267.093Z" transform="translate(171.996 116.813)" fill="#fff" stroke="#f53c37" stroke-linecap="round" stroke-linejoin="round" stroke-width="1.3" fill-rule="evenodd"/>
    <path id="Path_1832" data-name="Path 1832" d="M57.912-626.666H277.552V-642.8H57.912Z" transform="translate(37.293 8.935)" fill="#fff" fill-rule="evenodd"/>
    <path id="Path_1833" data-name="Path 1833" d="M218.14-634.266h23.386v-5.209H218.14Z" transform="translate(140.472 11.073)" fill="#fff" fill-rule="evenodd"/>
    <path id="Path_1834" data-name="Path 1834" d="M61.231-586.369H84.617v-5.209H61.231Z" transform="translate(39.43 41.917)" fill-rule="evenodd"/>
    <path id="Path_1835" data-name="Path 1835" d="M380.673-586.369h23.386v-5.209H380.673Z" transform="translate(245.136 41.917)" fill-rule="evenodd"/>
    <path id="Path_1836" data-name="Path 1836" d="M380.673-566.528h23.386v-5.209H380.673Z" transform="translate(245.136 54.693)" fill-rule="evenodd"/>
    <path id="Path_1837" data-name="Path 1837" d="M380.673-546.687h23.386V-551.9H380.673Z" transform="translate(245.136 67.47)" fill-rule="evenodd"/>
    <path id="Path_1838" data-name="Path 1838" d="M115.672-563.025h42.887v-5.209H115.672Z" transform="translate(74.488 56.949)" fill-rule="evenodd"/>
    <path id="Path_1839" data-name="Path 1839" d="M115.672-424.138h42.887v-5.209H115.672Z" transform="translate(74.488 146.386)" fill-rule="evenodd"/>
    <path id="Path_1840" data-name="Path 1840" d="M115.672-558.452h23.386v-2.722H115.672Z" transform="translate(74.488 61.495)" fill-rule="evenodd"/>
    <path id="Path_1841" data-name="Path 1841" d="M115.672-419.564h23.386v-2.722H115.672Z" transform="translate(74.488 150.933)" fill-rule="evenodd"/>
    <path id="Path_1842" data-name="Path 1842" d="M114.98-588.008H322.769v-7.956H114.98Z" transform="translate(74.042 39.091)" fill-rule="evenodd"/>
    <path id="Path_1843" data-name="Path 1843" d="M114.98-541.507H322.769v-7.956H114.98Z" transform="translate(74.042 69.036)" fill-rule="evenodd"/>
    <path id="Path_1844" data-name="Path 1844" d="M114.98-407.106H322.769v-7.956H114.98Z" transform="translate(74.042 155.584)" fill-rule="evenodd"/>
    <path id="Path_1845" data-name="Path 1845" d="M114.98-532.089H276.544v-7.956H114.98Z" transform="translate(74.042 75.101)" fill-rule="evenodd"/>
    <path id="Path_1846" data-name="Path 1846" d="M61.231-565.652H84.617v-5.209H61.231Z" transform="translate(39.43 55.257)" fill-rule="evenodd"/>
    <path id="Path_1847" data-name="Path 1847" d="M61.231-544.936H84.617v-5.209H61.231Z" transform="translate(39.43 68.598)" fill-rule="evenodd"/>
    <path id="Path_1848" data-name="Path 1848" d="M61.231-524.219H84.617v-5.209H61.231Z" transform="translate(39.43 81.938)" fill-rule="evenodd"/>
    <path id="Path_1849" data-name="Path 1849" d="M61.231-503.5H84.617v-5.209H61.231Z" transform="translate(39.43 95.279)" fill-rule="evenodd"/>
    <path id="Path_1850" data-name="Path 1850" d="M61.231-482.787H84.617V-488H61.231Z" transform="translate(39.43 108.619)" fill-rule="evenodd"/>
    <path id="Path_1851" data-name="Path 1851" d="M255.216-634.266H278.6v-5.209H255.216Z" transform="translate(164.348 11.073)" fill="#fff" fill-rule="evenodd"/>
    <path id="Path_1852" data-name="Path 1852" d="M292.293-634.266h23.386v-5.209H292.293Z" transform="translate(188.223 11.073)" fill="#fff" fill-rule="evenodd"/>
    <path id="Path_1853" data-name="Path 1853" d="M329.369-634.266h23.386v-5.209H329.369Z" transform="translate(212.099 11.073)" fill="#fff" fill-rule="evenodd"/>
    <path id="Path_1854" data-name="Path 1854" d="M211.033-643.328a8.507,8.507,0,0,1,8.5,8.5,8.508,8.508,0,0,1-8.5,8.5,8.507,8.507,0,0,1-8.5-8.5A8.506,8.506,0,0,1,211.033-643.328Z" transform="translate(130.42 8.592)" fill="#fff" fill-rule="evenodd"/>
    <path id="Path_1855" data-name="Path 1855" d="M54.124-595.431a8.506,8.506,0,0,1,8.5,8.5,8.507,8.507,0,0,1-8.5,8.5,8.507,8.507,0,0,1-8.5-8.5A8.506,8.506,0,0,1,54.124-595.431Z" transform="translate(29.378 39.435)" fill-rule="evenodd"/>
    <path id="Path_1856" data-name="Path 1856" d="M373.566-595.431a8.507,8.507,0,0,1,8.5,8.5,8.508,8.508,0,0,1-8.5,8.5,8.507,8.507,0,0,1-8.5-8.5A8.506,8.506,0,0,1,373.566-595.431Z" transform="translate(235.084 39.435)" fill-rule="evenodd"/>
    <path id="Path_1857" data-name="Path 1857" d="M373.566-575.59a8.507,8.507,0,0,1,8.5,8.5,8.508,8.508,0,0,1-8.5,8.5,8.507,8.507,0,0,1-8.5-8.5A8.506,8.506,0,0,1,373.566-575.59Z" transform="translate(235.084 52.212)" fill-rule="evenodd"/>
    <path id="Path_1858" data-name="Path 1858" d="M373.566-555.749a8.507,8.507,0,0,1,8.5,8.5,8.508,8.508,0,0,1-8.5,8.5,8.507,8.507,0,0,1-8.5-8.5A8.506,8.506,0,0,1,373.566-555.749Z" transform="translate(235.084 64.989)" fill-rule="evenodd"/>
    <path id="Path_1859" data-name="Path 1859" d="M108.565-569.048a8.507,8.507,0,0,1,8.5,8.5,8.506,8.506,0,0,1-8.5,8.5,8.507,8.507,0,0,1-8.5-8.5A8.508,8.508,0,0,1,108.565-569.048Z" transform="translate(64.435 56.425)" fill-rule="evenodd"/>
    <path id="Path_1860" data-name="Path 1860" d="M108.565-430.16a8.506,8.506,0,0,1,8.5,8.5,8.507,8.507,0,0,1-8.5,8.5,8.508,8.508,0,0,1-8.5-8.5A8.507,8.507,0,0,1,108.565-430.16Z" transform="translate(64.435 145.862)" fill-rule="evenodd"/>
    <path id="Path_1861" data-name="Path 1861" d="M107.873-598.983a8.507,8.507,0,0,1,8.5,8.5,8.508,8.508,0,0,1-8.5,8.5,8.508,8.508,0,0,1-8.5-8.5A8.507,8.507,0,0,1,107.873-598.983Z" transform="translate(63.99 37.148)" fill-rule="evenodd"/>
    <path id="Path_1862" data-name="Path 1862" d="M54.124-574.715a8.507,8.507,0,0,1,8.5,8.5,8.506,8.506,0,0,1-8.5,8.5,8.506,8.506,0,0,1-8.5-8.5A8.507,8.507,0,0,1,54.124-574.715Z" transform="translate(29.378 52.775)" fill-rule="evenodd"/>
    <path id="Path_1863" data-name="Path 1863" d="M54.124-554a8.506,8.506,0,0,1,8.5,8.5,8.507,8.507,0,0,1-8.5,8.5,8.507,8.507,0,0,1-8.5-8.5A8.506,8.506,0,0,1,54.124-554Z" transform="translate(29.378 66.116)" fill-rule="evenodd"/>
    <path id="Path_1864" data-name="Path 1864" d="M54.124-533.282a8.507,8.507,0,0,1,8.5,8.5,8.507,8.507,0,0,1-8.5,8.5,8.507,8.507,0,0,1-8.5-8.5A8.507,8.507,0,0,1,54.124-533.282Z" transform="translate(29.378 79.456)" fill-rule="evenodd"/>
    <path id="Path_1865" data-name="Path 1865" d="M54.124-512.565a8.506,8.506,0,0,1,8.5,8.5,8.506,8.506,0,0,1-8.5,8.5,8.506,8.506,0,0,1-8.5-8.5A8.505,8.505,0,0,1,54.124-512.565Z" transform="translate(29.378 92.797)" fill-rule="evenodd"/>
    <path id="Path_1866" data-name="Path 1866" d="M54.124-491.849a8.506,8.506,0,0,1,8.5,8.5,8.507,8.507,0,0,1-8.5,8.5,8.507,8.507,0,0,1-8.5-8.5A8.506,8.506,0,0,1,54.124-491.849Z" transform="translate(29.378 106.137)" fill-rule="evenodd"/>
    <path id="Path_1867" data-name="Path 1867" d="M187.262-640.163A3.739,3.739,0,0,1,191-636.426a3.739,3.739,0,0,1-3.737,3.737,3.74,3.74,0,0,1-3.737-3.737A3.74,3.74,0,0,1,187.262-640.163Z" transform="translate(118.182 10.63)" fill="none" stroke="#000" stroke-linecap="round" stroke-linejoin="round" stroke-width="1.3"/>
    <path id="Path_1868" data-name="Path 1868" d="M187.473-636.153l2.657,2.611" transform="translate(120.724 13.212)" fill="none" stroke="#000" stroke-linecap="round" stroke-linejoin="round" stroke-width="1.3"/>
    <path id="Path_1869" data-name="Path 1869" d="M353.716-602.98v315.164" transform="translate(227.777 34.574)" fill="none" stroke="#f53c37" stroke-linecap="round" stroke-linejoin="round" stroke-width="1.3"/>
    <g id="Group_271" data-name="Group 271" transform="translate(424.13 -469.553)">
      <text id="Ads" transform="translate(0 32)" fill="#fff" font-size="33" font-family="CorporativeSlab-Black, Corporative Slab" font-weight="800"><tspan x="0" y="0">Ads</tspan></text>
    </g>
    <g id="Group_272" data-name="Group 272" transform="translate(604.819 -413.932)">
      <text id="Ads-2" data-name="Ads" transform="translate(0 18)" fill="#fff" font-size="19" font-family="CorporativeSlab-Black, Corporative Slab" font-weight="800"><tspan x="0" y="0">Ads</tspan></text>
    </g>
    <path id="Path_1870" data-name="Path 1870" d="M228.269-384.529H461.648v-108.06H228.269Z" transform="translate(146.995 105.661)" fill="#fff" stroke="#000" stroke-linejoin="round" stroke-width="0.913"/>
    <path id="Path_1871" data-name="Path 1871" d="M307.27-417.629,338.6-441.187l31.337,23.558Z" transform="translate(197.868 138.761)" fill="#fff" stroke="#000" stroke-linejoin="round" stroke-width="0.913"/>
    <path id="Path_1872" data-name="Path 1872" d="M257.005-409.77l58.028-43.622L373.06-409.77Z" transform="translate(165.5 130.902)"/>
    <path id="Path_1873" data-name="Path 1873" d="M235.242-414.527,277.112-446l41.872,31.478Z" transform="translate(151.485 135.659)" fill="#f53c37"/>
    <path id="Path_1874" data-name="Path 1874" d="M214.328-450.416h45.836V-453.2H214.328Z" transform="translate(138.018 131.025)"/>
    <path id="Path_1875" data-name="Path 1875" d="M224.669-441.946H270.5v-2.785H224.669Z" transform="translate(144.677 136.479)"/>
    <path id="Path_1876" data-name="Path 1876" d="M203.758-446.181h34.378v-2.785H203.758Z" transform="translate(131.211 133.752)"/>
    <path id="Path_1877" data-name="Path 1877" d="M235.416-465.853a15.828,15.828,0,0,1-15.828,15.828,15.829,15.829,0,0,1-15.83-15.828,15.83,15.83,0,0,1,15.83-15.83A15.828,15.828,0,0,1,235.416-465.853Z" transform="translate(131.211 112.684)" fill="#f53c37"/>
    <path id="Path_1878" data-name="Path 1878" d="M222.679-469.989a6.955,6.955,0,0,1-4.965,2.08,6.965,6.965,0,0,1-4.966-2.08c-3.605,1.45-6.081,4.7-6.081,8.146,0,.021,0,.044,0,.069a15.769,15.769,0,0,0,11.044,4.491,15.769,15.769,0,0,0,11.044-4.491c0-.025,0-.048,0-.069C228.76-465.287,226.288-468.539,222.679-469.989Z" transform="translate(133.084 120.214)" fill="#fff"/>
    <path id="Path_1879" data-name="Path 1879" d="M215.414-476.116a5.175,5.175,0,0,0-5.175,5.172,5.174,5.174,0,0,0,5.175,5.175,5.174,5.174,0,0,0,5.175-5.175A5.175,5.175,0,0,0,215.414-476.116Z" transform="translate(135.384 116.269)" fill="#fff"/>
    <path id="Path_1880" data-name="Path 1880" d="M448.162-508.643c.763,7.748,4.061,39.925-9.91,46.2-11.736,5.272-39.812-9.8-32.133-17.459,6.691-6.676,23.172,4.955,26.017,2.813,1.706-1.284,3.7-19.366,8.244-26.775C441.515-505.71,448.032-509.959,448.162-508.643Z" transform="translate(260.678 95.163)"/>
    <path id="Path_1881" data-name="Path 1881" d="M485.091-399.756c.09.968,3.845,2.418,3.855,2.486.03.261-1.812,2.576-3.033,4.743-.349,1.266-.543,2.724.539,2.423,1.854-.516,10.832-6.433,10.694-8.471a4.757,4.757,0,0,1,.245-1.882c-1.72-.71-2.846-2.265-4-3.332C492.66-404.466,484.488-406.158,485.091-399.756Z" transform="translate(312.356 162.382)" fill="#fff" stroke="#000" stroke-linejoin="round" stroke-width="1"/>
    <path id="Path_1882" data-name="Path 1882" d="M498.226-400.162c.138,2.038-8.84,7.955-10.694,8.471-1.082.3-.888-1.157-.539-2.423-1.833,3.252-4.044,7.344-3.536,8.369.843,1.71,17.137-9.114,18.838-12.432.891-1.736-1.235-2.8-3.824-3.868A4.757,4.757,0,0,0,498.226-400.162Z" transform="translate(311.277 163.968)" fill="#f53c37" stroke="#000" stroke-linejoin="round" stroke-width="1"/>
    <path id="Path_1883" data-name="Path 1883" d="M451.484-372.232c.24.944,1.1,5.225,1.075,5.29-.077.252-2.7,1.614-4.7,3.1-.833,1.013-1.6,2.264-.492,2.431,1.9.284,12.509-1.458,13.216-3.38a4.745,4.745,0,0,1,.993-1.618c-1.281-1.346-1.493-6.089-1.757-7.639C459.423-376.348,449.975-378.137,451.484-372.232Z" transform="translate(287.726 180.599)" fill="#fff" stroke="#000" stroke-linejoin="round" stroke-width="1"/>
    <path id="Path_1884" data-name="Path 1884" d="M462.773-368.634c-.707,1.922-11.314,3.664-13.216,3.38-1.113-.168-.342-1.419.492-2.431-3,2.221-6.684,5.057-6.64,6.2.076,1.9,19.364-1.337,22.272-3.674,1.521-1.222.013-3.059-1.915-5.091A4.744,4.744,0,0,0,462.773-368.634Z" transform="translate(285.535 184.44)" fill="#f53c37" stroke="#000" stroke-linejoin="round" stroke-width="1"/>
    <path id="Path_1885" data-name="Path 1885" d="M492.865-393.808c-1.124-3.7-1.9-55.211-2.823-59.82-2.99-15.034-15.008-22.318-21.312-27.605-.477-.4-.947-.783-1.414-1.157-19.376,11.794-32.522,10.627-39.044,8.6-1.7,23.8-4.3,134.49,32.6,171.668,1.488,1.5,8.771-.15,12.187-1.027a2.118,2.118,0,0,0,1.578-2.269c-.932-9.086-4.56-46.6-15.877-69.344-3.47-6.974-6.048-64.213-4.449-63.7,2.949.942,5.586,14.927,13.147,49.412,5.7,26.024,25.889,32.651,54.209,40.135,1.692.447,11.809-5.716,11.809-5.716a4.217,4.217,0,0,0-.082-3.137C525.054-369.813,497.59-378.291,492.865-393.808Z" transform="translate(275.257 112.228)" fill="#fff"/>
    <g id="Group_273" data-name="Group 273" transform="translate(702.706 -370.163)" clip-path="url(#clip-path)">
      <path id="Path_1886" data-name="Path 1886" d="M442.182-470.708S435.866-407.694,444.85-385s25.366,78.668,25.366,78.668l-10.8-.837-16.329-39.749L425.92-406.724l-4.873-57.946Z" transform="translate(-431.571 489.914)" fill-rule="evenodd"/>
      <path id="Path_1887" data-name="Path 1887" d="M463.39-464.971s-6.316,63.013,2.668,85.708S491.426-300.6,491.426-300.6l-10.8-.837L464.3-341.181l-17.171-59.805-4.873-57.948Z" transform="translate(-417.914 493.609)" fill-rule="evenodd"/>
    </g>
    <path id="Path_1889" data-name="Path 1889" d="M454.674-468.841c-21.2-9.264-33.856-32.956-26.287-48.705,0,0,2.436-10.871,13.875-10.025,11.5.85,14.5,17.194,21.475,22.619l.087.067.069.053.04.03.067.048.043.031.061.044c.2.141.4.275.608.4l.015.008.072.043.02.012.067.039.023.013.09.048.089.048c7.98,4.212,20.964.23,24.538,9.887,3.114,8.411-3.272,25.976-16.661,28.643l-.181.034a18.654,18.654,0,0,1-6.216.094l-.242-.036-.058-.01-.03,0-.041,0-.112-.018-.141-.023-.048-.008c-.207-.033-.414-.067-.621-.105l-.033,0c-.319-.058-.638-.117-.954-.179l0,0a46.543,46.543,0,0,1-6.867-1.928l-.013,0c-.2-.072-.4-.146-.592-.22l-.183-.071-.09-.034-.028-.012-.028-.01-.074-.03-.173-.067-.031-.013-.265-.105-.026-.01-.058-.025-.1-.041-.072-.031-.063-.025-.044-.018-.038-.015-.128-.054-.084-.034-.107-.046-.113-.048-.074-.031-.1-.043-.044-.018-.044-.02-.107-.046Z" transform="translate(274.44 83.103)" fill="#f53c37" stroke="#000" stroke-linejoin="round" stroke-width="1"/>
    <path id="Path_1890" data-name="Path 1890" d="M427.541-478.115c-.348,2.763-2.6,12.108-4.335,19.131,4.7-5.008,7.732-12.731,9.68-21.057-3.1-8.923-6.308-16.823-6.308-16.823S428.12-482.72,427.541-478.115Z" transform="translate(272.525 102.908)"/>
    <path id="Path_1891" data-name="Path 1891" d="M492.872-393.772c-1.124-3.7-1.9-55.212-2.823-59.822-2.99-15.032-15.008-22.317-21.312-27.6-.477-.4-.948-.784-1.414-1.159-19.377,11.8-32.524,10.626-39.044,8.6-1.7,23.8-4.3,134.49,32.6,171.668,1.486,1.5,8.769-.15,12.187-1.027a2.118,2.118,0,0,0,1.578-2.269c-.934-9.086-4.562-46.6-15.877-69.344-3.47-6.974-6.048-64.213-4.449-63.7,2.949.942,5.585,14.925,13.145,49.412,5.706,26.024,26.991,32.739,54.1,41.249,1.669.524,11.808-5.716,11.808-5.716a4.51,4.51,0,0,0-.082-3.135C524.334-372.081,497.6-378.254,492.872-393.772Z" transform="translate(275.262 112.25)" fill="none" stroke="#000" stroke-linejoin="round" stroke-width="1"/>
    <path id="Path_1892" data-name="Path 1892" d="M478.22-455.866c-3.031-2.433-10.119-9.971-11.452-15.261-1.636-6.489,9.178-25.039-3.623-35.705-5.516-4.593-15.136-6.868-27.817-4.491-2.458.46-8.547,11.786-10.1,14.848-3.224,6.357,4.547,13.6,4.539,28.386,0,5.335-1.72,20.157-2.2,26.869C434.089-439.2,458.846-444.071,478.22-455.866Z" transform="translate(273.322 92.982)" fill="#fff" stroke="#000" stroke-linejoin="round" stroke-width="1"/>
    <path id="Path_1893" data-name="Path 1893" d="M459.3-472.825c-1.636-6.489,9.178-25.039-3.623-35.705a18.269,18.269,0,0,0-1.489-1.111c-1.036,5.7.243,18.831-3.413,22.739-3.709,3.962-12.284,2.856-14.49,5.826s10.724,1.368,15.506,6.734c3.171,3.554,2.689,16.221,5.665,23.548a103.5,103.5,0,0,0,13.3-6.77C467.723-460,460.636-467.534,459.3-472.825Z" transform="translate(280.788 94.68)"/>
    <path id="Path_1894" data-name="Path 1894" d="M439.937-516.8l1.915,10.857c.307,1.789-3.35,7.11-6.546,5.307-.937-.526-.251-3.168.224-5.154l.6-9.693Z" transform="translate(280.017 90.071)" fill="#fff" stroke="#000" stroke-linejoin="round" stroke-width="1"/>
    <path id="Path_1895" data-name="Path 1895" d="M435.452-510.08a6.676,6.676,0,0,0,3.835-5.575l-3.633.832Z" transform="translate(280.411 90.807)"/>
    <path id="Path_1896" data-name="Path 1896" d="M432.989-466.053l3.735-6.5L407.379-489.42l-3.735,6.5Z" transform="translate(259.928 107.701)"/>
    <path id="Path_1897" data-name="Path 1897" d="M416.136-478.97a11.723,11.723,0,0,1,15.959-4.309l39.81,22.882a11.725,11.725,0,0,1,4.31,15.96,11.724,11.724,0,0,1-15.961,4.309l-39.812-22.882A11.724,11.724,0,0,1,416.136-478.97Z" transform="translate(266.977 110.66)" fill="#fff" stroke="#000" stroke-linejoin="round" stroke-width="1"/>
    <path id="Path_1898" data-name="Path 1898" d="M415.887-480.984c2.083.538,5.233,2.1,8.167,6.512,4.958,7.459,12.456,16.111,20.7,16.645s11.685-.827,15.912,3.273,12.792,6.6,17.012.427a11.614,11.614,0,0,1-1.458,7.215,11.724,11.724,0,0,1-15.961,4.309l-39.812-22.882A11.723,11.723,0,0,1,415.887-480.984Z" transform="translate(266.977 113.134)"/>
    <path id="Path_1899" data-name="Path 1899" d="M375.1-441.692a45.188,45.188,0,0,0,61.627-16.64,45.187,45.187,0,0,0-16.64-61.627,45.187,45.187,0,0,0-61.627,16.638A45.189,45.189,0,0,0,375.1-441.692Zm-3.178,5.524a51.566,51.566,0,0,1-18.986-70.327,51.567,51.567,0,0,1,70.327-18.989,51.57,51.57,0,0,1,18.989,70.328A51.572,51.572,0,0,1,371.92-436.168Z" transform="translate(222.867 80.072)"/>
    <path id="Path_1900" data-name="Path 1900" d="M402.129-478.057a44.78,44.78,0,0,0,4.33-15.621,45.2,45.2,0,0,0-.61-12.387A44.931,44.931,0,0,1,402.129-478.057Z" transform="translate(258.953 96.983)" fill="#d38aba"/>
    <path id="Path_1901" data-name="Path 1901" d="M377.03-445.053a45.191,45.191,0,0,0,61.627-16.638,45.19,45.19,0,0,0-16.64-61.629,45.189,45.189,0,0,0-61.627,16.64A45.187,45.187,0,0,0,377.03-445.053Zm-3.176,5.525a51.57,51.57,0,0,1-18.989-70.328,51.567,51.567,0,0,1,70.328-18.988,51.566,51.566,0,0,1,18.988,70.327A51.569,51.569,0,0,1,373.854-439.528Z" transform="translate(224.111 77.908)" fill="#f53c37"/>
    <path id="Path_1902" data-name="Path 1902" d="M443.923-511.27c10.656,1.844,54.966,9.326,58.206,30.357,2.722,17.664-38.158,59.794-45.577,46.677-6.466-11.427,25.521-39.3,23.7-43.9-1.088-2.76-24.566-12.114-32.807-20.941C445.393-501.283,442.11-511.581,443.923-511.27Z" transform="translate(285.527 93.626)" fill="#fff" stroke="#000" stroke-linejoin="round" stroke-width="1"/>
    <path id="Path_1903" data-name="Path 1903" d="M455.3-465.894c-.834.171-2.573,1.986-3.334,3.056a6.316,6.316,0,0,1-4.021,2.864c-1.034.186.281,1.549,1.754,1.095s3.528-2.218,3.14-.926-4.089,4.978-1.833,7.036c1.881,1.716,7.684-3.183,9.111-8.744C460.527-463.089,459.953-466.841,455.3-465.894Z" transform="translate(288.221 122.754)" fill="#fff" stroke="#000" stroke-linejoin="round" stroke-width="1"/>
    <path id="Path_1904" data-name="Path 1904" d="M432.421-517.481c.363-.932.745-1.729.965-2.325,1.427-3.853,6.16-4.212,8.039.355l.715,2.178c.125-.5.434-.876,1.152-.523,1.478.727,1.351,4.245-.212,4.8a6.186,6.186,0,0,1-4.041,5.591c-2.957,1.039-6.185-.235-7.265-4.01a6.792,6.792,0,0,1-.256-1.647c-1.12-.978-1.3-3.7-.085-4.45C431.909-517.8,432.218-517.721,432.421-517.481Z" transform="translate(277.284 86.215)" fill="#fff" stroke="#000" stroke-linejoin="round" stroke-width="1"/>
    <path id="Path_1905" data-name="Path 1905" d="M5.864-386.668H287.417V-512.8H5.864Z" transform="translate(3.776 92.645)" fill="#f53c37" stroke="#f53c37" stroke-linecap="round" stroke-linejoin="round" stroke-width="1.3" fill-rule="evenodd"/>
    <g id="Group_274" data-name="Group 274" transform="translate(103.776 -388.477)">
      <text id="Ads-3" data-name="Ads" transform="translate(0 46)" fill="#fff" font-size="48" font-family="CorporativeSlab-Black, Corporative Slab" font-weight="800"><tspan x="0" y="0">Ads</tspan></text>
    </g>
    <path id="Path_1906" data-name="Path 1906" d="M150.106-491.05l-12.538,7.24L155.467-453l-9.08,5.331,13.679,23.673,3.842-2.218,4.389,7.6,3.842-2.218,4.389,7.6,3.842-2.218,4.569,7.914L223.8-429.961l-4.569-7.914,3.84-2.218-6.681-11.572,3.842-2.218L204.4-481.157l-3.633,2.1-2.216-3.84-7.48,4.319-2.218-3.842-12.231,7.061L174.4-479.2l-11.522,6.653Z" transform="translate(88.588 106.652)" fill="#fff" fill-rule="evenodd"/>
    <path id="Path_1907" data-name="Path 1907" d="M146.149-492.589l-7.782,4.495,2.218,3.84,7.782-4.493Zm41.017,7.317-12.231,7.061-2.218-3.84L161.195-475.4l-8.986-15.565-3.842,2.218,20.163,34.921,3.84-2.218-8.958-15.514,11.522-6.653,8.958,15.516,3.842-2.218-6.74-11.675,8.389-4.843Zm2.218,3.84,9.042,15.662,3.84-2.218-6.824-11.82,3.64-2.1-2.218-3.842Zm-37,26.484-7.682,4.435,2.218,3.839-3.83,2.211,13.669,23.678L160.6-423l-13.669-23.678,7.672-4.429,11.233,19.458,3.84-2.218-29.09-50.387-3.84,2.218Zm16.446,37.333-4.389-7.6L160.6-423l4.391,7.6Zm8.231,5.386-4.389-7.6-3.842,2.218,4.391,7.6Zm27.875-67.941-2.216-3.839-3.638,2.1,2.216,3.84,3.633-2.1L220.7-452.853l-3.776,2.18L223.6-439.1l-3.84,2.218,4.569,7.914,3.842-2.218L223.6-439.1l3.842-2.218-6.681-11.572,3.776-2.18-15.77-27.314Zm-19.464,73.638-4.569-7.914-3.842,2.218,4.569,7.914Zm38.9-22.461-38.916,22.468,2.219,3.842,38.914-22.468Z" transform="translate(88.057 105.661)" fill="#140e16" fill-rule="evenodd"/>
  </g>
</svg>
