<svg xmlns="http://www.w3.org/2000/svg" width="94.217" height="94.217" viewBox="0 0 94.217 94.217">
  <g id="Group_286" data-name="Group 286" transform="translate(0 94.217)">
    <path id="Path_2060" data-name="Path 2060" d="M26.424-23.811a52.811,52.811,0,0,1,11.7-2.813.009.009,0,0,1,0,.005,52.786,52.786,0,0,0-11.7,2.808M47.109-93.217A46.161,46.161,0,0,0,1-47.108,45.966,45.966,0,0,0,15.037-14.026c.8-3.922,5.049-7.393,11.385-9.785C27.1-16.228,36.1-10.227,47.109-10.227s20-6,20.686-13.58l-.176-.067c-.287-.106-.58-.211-.875-.313-.1-.035-.195-.071-.295-.1q-.591-.2-1.2-.386c-.1-.033-.214-.063-.32-.1-.336-.1-.677-.2-1.022-.293-.094-.027-.192-.053-.289-.079a58.26,58.26,0,0,0-7.526-1.474v-.005a57.842,57.842,0,0,1,7.526,1.479c.1.025.193.052.289.079q.517.142,1.022.293c.106.033.214.063.32.1q.61.186,1.2.386c.1.033.2.069.295.1.295.1.588.207.875.313l.177.063s0,0,0,0c6.332,2.391,10.592,5.855,11.391,9.774A45.965,45.965,0,0,0,93.217-47.108,46.16,46.16,0,0,0,47.109-93.217" fill="#fff"/>
    <path id="Path_2061" data-name="Path 2061" d="M27.517-23.146c1.159,6.743,9.56,11.92,19.592,11.92S65.538-16.4,66.7-23.143l-.2-.071-.04-.015h0l-.012,0h0l-.013,0-.014-.005-.283-.1c-.388-.131-.779-.257-1.177-.378l-.323-.1c-.321-.1-.654-.192-.991-.286h0l-.043-.012-.058-.016-.18-.049-.067-.018a57.339,57.339,0,0,0-7.331-1.43,1,1,0,0,1-.87-.992,1.007,1.007,0,0,1,.34-.754,1,1,0,0,1,.79-.242,58.948,58.948,0,0,1,7.656,1.5l.3.082.023.006c.339.093.68.191,1.018.293l.327.1.311.1c.287.09.573.183.856.278l.011,0,.031.011.02.006.3.1q.458.159.9.322l.179.063c.031.012.061.025.092.04,5.916,2.249,9.882,5.331,11.4,8.807A44.694,44.694,0,0,0,92.217-47.108,45.159,45.159,0,0,0,47.109-92.217,45.16,45.16,0,0,0,2-47.108,44.694,44.694,0,0,0,14.587-15.894c1.522-3.5,5.518-6.6,11.482-8.852l.043-.015.549-.2A54.354,54.354,0,0,1,38-27.615a1,1,0,0,1,1.025.545,1.02,1.02,0,0,1,.106.451,1,1,0,0,1-.87.992,52.7,52.7,0,0,0-10.74,2.481M47.109-9.226c-10.809,0-19.915-5.7-21.488-13.191-5.475,2.284-8.951,5.378-9.6,8.59a1,1,0,0,1-.684.756,1,1,0,0,1-.992-.237A46.72,46.72,0,0,1,0-47.108,47.162,47.162,0,0,1,47.109-94.217,47.162,47.162,0,0,1,94.217-47.108,46.722,46.722,0,0,1,79.882-13.315a.99.99,0,0,1-.991.237,1,1,0,0,1-.685-.755c-.653-3.2-4.131-6.3-9.61-8.58C67.021-14.92,57.914-9.226,47.109-9.226"/>
    <path id="Path_2062" data-name="Path 2062" d="M27.729-24.278c.333-.113.675-.221,1.018-.327l.363-.116c.381-.116.768-.224,1.158-.332l.252-.072c.432-.117.87-.228,1.314-.336.04-.008.077-.019.115-.027a58.826,58.826,0,0,1,6.177-1.134,11.992,11.992,0,0,1-.136-1.74v-7.457a14.445,14.445,0,0,0,9.119,3.229,14.432,14.432,0,0,0,9.118-3.229v7.457a11.853,11.853,0,0,1-.137,1.74,59.155,59.155,0,0,1,6.194,1.136c.023.006.047.013.071.018.46.112.913.227,1.358.348l.18.05c.414.114.826.231,1.229.354.085.024.166.053.25.079a34.848,34.848,0,0,1,7.464,3.214q-2.815-18.73-5.628-37.463c-2.11-11.821-11.125-19.122-20.1-19.122s-17.989,7.3-20.1,19.122Q24.195-40.154,21.38-21.423a33.079,33.079,0,0,1,5.947-2.712c.134-.047.265-.1.4-.143" fill="#ee3d30"/>
    <path id="Path_2063" data-name="Path 2063" d="M47.109-77.008c-7.876,0-16.971,6.285-19.115,18.3L22.669-23.264A37.2,37.2,0,0,1,27-25.079l.415-.147c.339-.115.688-.226,1.039-.335l.362-.115c.4-.121.792-.231,1.19-.342l.259-.073c.437-.119.884-.232,1.337-.342l.116-.028c1.7-.409,3.482-.751,5.31-1.019-.022-.3-.034-.595-.034-.883v-7.457a1,1,0,0,1,.569-.9,1,1,0,0,1,1.06.125,13.357,13.357,0,0,0,8.49,3.007A13.35,13.35,0,0,0,55.6-36.6a1,1,0,0,1,1.06-.125,1,1,0,0,1,.569.9v7.457c0,.289-.011.582-.034.883,1.824.267,3.611.609,5.324,1.021.543.133,1,.25,1.458.373l.115.033c.491.134.912.254,1.323.379l.155.049.1.032a38.95,38.95,0,0,1,5.879,2.327l-5.33-35.472C64.08-70.724,54.985-77.008,47.109-77.008M21.38-20.423a1,1,0,0,1-.557-.17,1,1,0,0,1-.432-.978L26.02-59.035c2.068-11.585,10.936-19.974,21.089-19.974S66.13-70.619,68.192-59.062L73.826-21.57a1,1,0,0,1-.432.978,1,1,0,0,1-1.07.028,33.736,33.736,0,0,0-7.249-3.118l-.235-.075c-.4-.122-.806-.237-1.21-.348l.083-1.015-.261.966c-.437-.119-.882-.232-1.333-.342a58.659,58.659,0,0,0-6.157-1.134,1,1,0,0,1-.669-.389,1,1,0,0,1-.192-.749,10.79,10.79,0,0,0,.126-1.594v-5.527a15.547,15.547,0,0,1-8.118,2.3,15.55,15.55,0,0,1-8.119-2.3v5.527a10.973,10.973,0,0,0,.126,1.6,1,1,0,0,1-.192.748,1,1,0,0,1-.668.388,58.27,58.27,0,0,0-6.073,1.114l-.348-.944.236.972q-.654.158-1.289.329l-.248.07c-.381.1-.761.212-1.134.325l-.352.113c-.339.105-.673.21-1,.321l-.394.14a32.133,32.133,0,0,0-5.763,2.626.989.989,0,0,1-.512.142"/>
    <path id="Path_2064" data-name="Path 2064" d="M47.109-92.217A45.159,45.159,0,0,0,2-47.108,45.159,45.159,0,0,0,47.109-2,45.159,45.159,0,0,0,92.217-47.108,45.159,45.159,0,0,0,47.109-92.217M47.109,0A47.161,47.161,0,0,1,0-47.108,47.161,47.161,0,0,1,47.109-94.217,47.161,47.161,0,0,1,94.217-47.108,47.161,47.161,0,0,1,47.109,0"/>
    <path id="Path_2065" data-name="Path 2065" d="M56.09-26.619a11.872,11.872,0,0,0,.137-1.743v-7.457a14.437,14.437,0,0,1-9.118,3.229,14.453,14.453,0,0,1-9.12-3.229v7.457a11.861,11.861,0,0,0,.138,1.743,52.818,52.818,0,0,0-11.7,2.808C27.1-16.228,36.1-10.226,47.109-10.226s20.005-6,20.687-13.585A52.87,52.87,0,0,0,56.09-26.619" fill="#fff"/>
    <path id="Path_2066" data-name="Path 2066" d="M27.517-23.147c1.159,6.743,9.56,11.92,19.592,11.92S65.542-16.4,66.7-23.147a52.654,52.654,0,0,0-10.742-2.48,1,1,0,0,1-.668-.389,1,1,0,0,1-.191-.749,10.829,10.829,0,0,0,.126-1.6v-5.522a15.3,15.3,0,0,1-8.118,2.294,15.548,15.548,0,0,1-8.119-2.3v5.528a10.887,10.887,0,0,0,.127,1.6,1,1,0,0,1-.192.749,1,1,0,0,1-.668.39,52.556,52.556,0,0,0-10.74,2.48M47.109-9.227c-11.428,0-20.952-6.367-21.683-14.5a1,1,0,0,1,.643-1.025,52.549,52.549,0,0,1,10.955-2.729c-.023-.3-.034-.6-.034-.886v-7.457a1,1,0,0,1,.569-.9,1,1,0,0,1,1.06.125,13.351,13.351,0,0,0,8.49,3.007A13.347,13.347,0,0,0,55.6-36.6a1,1,0,0,1,1.06-.125,1,1,0,0,1,.569.9v7.457c0,.289-.012.583-.034.885a52.742,52.742,0,0,1,10.957,2.73,1,1,0,0,1,.642,1.025c-.73,8.128-10.254,14.5-21.683,14.5"/>
    <path id="Path_2067" data-name="Path 2067" d="M61.755-55.8H26.7a1,1,0,0,1-.757-.348,1,1,0,0,1-.232-.8l.314-2.087C28.088-70.62,36.955-79.009,47.109-79.009s19.02,8.389,21.083,19.947l.318,2.113-1.977.3-.314-2.088c-2.14-11.987-11.235-18.272-19.11-18.272s-16.971,6.285-19.116,18.3l-.136.912h33.9Z"/>
    <path id="Path_2068" data-name="Path 2068" d="M32.6-56.8v9.7A14.508,14.508,0,0,0,47.109-32.59,14.51,14.51,0,0,0,61.619-47.1v-9.7Z" fill="#fff"/>
    <path id="Path_2069" data-name="Path 2069" d="M33.6-55.8v8.7A13.524,13.524,0,0,0,47.109-33.59,13.525,13.525,0,0,0,60.619-47.1v-8.7ZM47.109-31.59A15.526,15.526,0,0,1,31.6-47.1v-9.7a1,1,0,0,1,1-1H61.619a1,1,0,0,1,1,1v9.7A15.527,15.527,0,0,1,47.109-31.59"/>
  </g>
</svg>
