<svg xmlns="http://www.w3.org/2000/svg" width="222.382" height="476.623" viewBox="0 0 222.382 476.623">
  <g id="Group_308" data-name="Group 308" transform="translate(0.685 375.801)">
    <path id="Path_2386" data-name="Path 2386" d="M108.318-11.59c59.507,0,107.819,3.148,107.819,7.024S167.825,2.459,108.318,2.459.5-.689.5-4.565,48.812-11.59,108.318-11.59Z" transform="translate(0 97.179)" stroke="#fff" stroke-linecap="round" stroke-linejoin="round" stroke-width="2.37" fill-rule="evenodd"/>
    <path id="Path_2387" data-name="Path 2387" d="M62.471-8.82c-2.906-1.251-3.394-4.633-4.632-7.064-.076-.164-12.162-1.25-12.709-.389-3.314,5.217-1.636,10.8.664,11.458,4.9,1.413,27.695,2.972,28.124.576C74.17-5.677,67.449-6.66,62.471-8.82Z" transform="translate(11.412 95.841)" stroke="#fff" stroke-linejoin="round" stroke-width="2.37"/>
    <path id="Path_2388" data-name="Path 2388" d="M119.342-7.72c-2.881-1.251-3.26-3.816-4.5-6.247-.1-.164-.581-3.659-.581-3.939-.025-1.208-3.537-4.394-5.129-1.875-3.184,4.97-7.253-2.613-7.05-.546.58,6.153-1.694,15.95.606,16.612,4.877,1.413,27.7,2.972,28.125.576C131.066-4.576,124.346-5.559,119.342-7.72Z" transform="translate(26.985 94.741)" stroke="#fff" stroke-linejoin="round" stroke-width="2.37"/>
    <path id="Path_2389" data-name="Path 2389" d="M79.148-301.049S72.041-285,70.521-276.588s2.431,33.245,12.835,35.247c0,0,24.259,1.1,28.942-25.044s-10.644-43.333-12.83-47.968S96.8-324.611,93.5-327.56s-12.945-3.788-13.212,1.367S82.753-308.15,79.148-301.049Z" transform="translate(18.599 12.242)" fill="#f53c37" stroke="#000" stroke-linejoin="round" stroke-width="2.37"/>
    <path id="Path_2390" data-name="Path 2390" d="M115.623-273.16c.8,1.675,32.319,12.652,31.857,14.074-2.512,15.729-7.03,30.421-8.085,41.262,6.726,7.531,12.678,8.974,15.365,8.74,12.324-14.7,33.06-60.022,18.555-71.4-23.046-18.079-57.079-21.691-69.357-22.969C100.286-303.837,110.091-284.782,115.623-273.16Z" transform="translate(27.39 19.301)"/>
    <path id="Path_2391" data-name="Path 2391" d="M108.887-145.382c-2.825,20.715,9.058-35.842,9.058-35.842s-.2-13.181,0-29.4c.162-12.967,26.285-18.981,29.3-19.472,15.715,74.73-3.906,269.3-3.906,269.3s-7.793,4.056-22.012,5.185c-14.046,1.114-21.749-3.972-21.749-3.972C101.036,16.075,106.934-90.318,108.887-145.382Z" transform="translate(26.436 38.878)" stroke="#fff" stroke-linejoin="round" stroke-width="2.37"/>
    <path id="Path_2392" data-name="Path 2392" d="M94.819-212.779c7.126-12.314,14.9-22.893,14.9-22.893s47.8,8.157,54.479,7.068c15.715,74.73-3.906,269.3-3.906,269.3s-7.793,4.056-22.012,5.185C124.235,47,116.533,41.91,116.533,41.91c1.458-24.347,7.356-130.74,9.308-185.8-2.825,20.715-14.923,49.509-23.419,80.117C88.212-12.584,76.113,40.058,76.032,41.91c0,0-37.931,1.574-39.874-2.873C33.361,32.637,78.791-185.1,94.819-212.779Z" transform="translate(9.481 37.389)" fill="none" stroke="#000" stroke-linejoin="round" stroke-width="2.37"/>
    <path id="Path_2393" data-name="Path 2393" d="M151.651-228.1c-7.621,2.616-34.322,11.685-41.472,12.79-8.373,1.295-26.013,2.815-26.013,2.815s7.76,7.9,25.6,7.854c13.348-.038,35.093-7.707,45.2-11.571C153.9-220.371,152.794-224.342,151.651-228.1Z" transform="translate(22.324 39.41)"/>
    <path id="Path_2394" data-name="Path 2394" d="M84.067-192.864c-3.149-6.745,1.053-38.665-3.637-52.463-9.468-27.856-5.606-45.117-.153-50.02,7.92-7.122,22.928-15.663,35.848-6.845,24.494,16.721,16.965,18.18,19.952,30.808,3.768,15.923,24.5,45.054,31.937,57.191C143.427-191.027,112.87-179.551,84.067-192.864Z" transform="translate(19.791 18.638)" fill="#fff" stroke="#000" stroke-linejoin="round" stroke-width="2.37"/>
    <path id="Path_2395" data-name="Path 2395" d="M134.312-200.414a.666.666,0,0,1-.706-.38c-.271-.579-6.6-14.252-7.932-20.894-.511-2.564-1.22-6.625-2.04-11.328-1.293-7.445-2.764-15.883-3.928-21.049-1.4-6.172-7.862-17.777-12.142-25.457-1.528-2.738-2.734-4.9-3.413-6.278-2.54-5.136-9.168-11.076-9.236-11.138a.668.668,0,0,1-.054-.943.67.67,0,0,1,.945-.057c.279.251,6.89,6.18,9.544,11.545.664,1.35,1.926,3.6,3.381,6.22,4.319,7.745,10.841,19.455,12.278,25.811,1.174,5.2,2.645,13.656,3.945,21.117.817,4.692,1.52,8.746,2.032,11.3,1.3,6.486,7.767,20.452,7.831,20.592a.669.669,0,0,1-.323.888Z" transform="translate(25.132 20.73)"/>
    <path id="Path_2396" data-name="Path 2396" d="M145.221-250.764c-3.41-5.555-6.727-11.263-9.428-16.609l-38.649-.032S124.868-250.5,145.221-250.764Z" transform="translate(25.787 28.922)"/>
    <path id="Path_2397" data-name="Path 2397" d="M125.9-199.218a32.65,32.65,0,0,1-8.364,9.758c.384-3.054.68-6.166.844-9.377.086-1.733-2.966-1.728-3.054,0-.97,19.163-6.449,34.87-10.309,53.659-.35,1.692,2.594,2.42,2.943.717,3.068-14.936,7.126-27.973,9.206-42.275,4.6-2.572,8.29-7.386,10.714-11.463C128.559-199.35,126.585-200.368,125.9-199.218Z" transform="translate(27.879 46.871)"/>
    <path id="Path_2398" data-name="Path 2398" d="M84.831-313.961l1.008,14.971c.249,2.687,7.6,8.91,11.519,5.08,1.151-1.122-.861-4.647-2.319-7.313L90.816-312.3Z" transform="translate(22.501 16.5)" fill="#fff" stroke="#000" stroke-linejoin="round" stroke-width="2.37"/>
    <path id="Path_2399" data-name="Path 2399" d="M82.453-319.151a34.189,34.189,0,0,0,1.649,7.027c1.673,4.154,5.2,5.043,9.563,3.94,4.255-1.074,5.312-2.491,5.1-5.632a9.982,9.982,0,0,0-.621-2.859,13.718,13.718,0,0,0-4.1-5.331,22.531,22.531,0,0,1-2.214-2.25C87.9-327.99,82.056-325.656,82.453-319.151Z" transform="translate(21.861 13.277)" fill="#fff" stroke="#000" stroke-linejoin="round" stroke-width="2.37"/>
    <path id="Path_2400" data-name="Path 2400" d="M83.329-316.949a7.76,7.76,0,0,1-1.007-1.255c-.564-.851-1.606-1.986-2.464-.522-1.255,2.135,2.009,6.511,4.361,5.45C85.966-314.063,84.3-316,83.329-316.949Z" transform="translate(21.1 15.04)" fill="#ff8679"/>
    <path id="Path_2401" data-name="Path 2401" d="M90.776-325.388a7.184,7.184,0,0,0-3.227,6.448c.229,4.444,3.279,19.429,3.858,23.175s-6.606,7.431-10.989,11.551-5.454,15.038-5.278,17.6c0,0-3.165-15.824-1.325-22.879s3.6-14.318,4.247-18.874-3.475-17.006.851-19.31S90.776-325.388,90.776-325.388Z" transform="translate(19.409 12.667)" fill="#f53c37" stroke="#000" stroke-linejoin="round" stroke-width="2.37"/>
    <path id="Path_2402" data-name="Path 2402" d="M138.654-327.6s5.108-1.125,5.222-2.206c.106-1.006-1.439-1.662-2.478-3.276a10.535,10.535,0,0,1-1.281-3.481l-6.8.915Z" transform="translate(35.439 10.47)" fill="#fff" stroke="#000" stroke-linejoin="round" stroke-width="2.37"/>
    <path id="Path_2403" data-name="Path 2403" d="M135.017-337.174s11.447,17.608,16.988,18.778-4.9,7.5-9.458,4.962-16.32-19.128-16.32-19.128Z" transform="translate(33.546 10.306)" fill="#fff" stroke="#000" stroke-linejoin="round" stroke-width="2.37"/>
    <path id="Path_2404" data-name="Path 2404" d="M120.909-344.637c2.858-1.608,6.755-3.9,10.959-6.682l10.368,19.761a91.636,91.636,0,0,0-12.848,4.009,5.551,5.551,0,0,1-6.962-2.589l-3.709-7.071A5.557,5.557,0,0,1,120.909-344.637Z" transform="translate(31.372 6.532)" fill="#fff" stroke="#000" stroke-linejoin="round" stroke-width="2.37"/>
    <path id="Path_2405" data-name="Path 2405" d="M154.988-374.647,179.6-328.1a130.8,130.8,0,0,0-40.266,2.769l-10.368-19.761C140.792-352.906,149.526-366.06,154.988-374.647Z" transform="translate(34.277 0.308)" fill="#fff" stroke="#000" stroke-linejoin="round" stroke-width="2.37"/>
    <path id="Path_2406" data-name="Path 2406" d="M150.975-374.647c-1.922,3.02-4.246,6.605-6.97,10.323.2,3.343,1.31,9.415,5.56,19.092,3.692,8.407,8.891,13.906,13.2,16.652a111.313,111.313,0,0,1,12.819.476Z" transform="translate(38.29 0.308)" fill="#fff" stroke="#000" stroke-linejoin="round" stroke-width="2.37"/>
    <path id="Path_2407" data-name="Path 2407" d="M157.17-348.765c6.832,13.023,14.837,22.286,17.877,20.69s-.034-13.445-6.865-26.468-14.837-22.286-17.879-20.691S150.337-361.788,157.17-348.765Z" transform="translate(39.658 0.103)"/>
    <path id="Path_2408" data-name="Path 2408" d="M178.361-363.414l-.557-1.06a5.8,5.8,0,0,0-7.327-2.682l-18.284,7.438c1.159,2.812,2.556,5.807,4.162,8.865,1.191,2.271,2.418,4.428,3.65,6.434l16.54-11.537A5.806,5.806,0,0,0,178.361-363.414Z" transform="translate(41.474 1.192)" fill="#fff" stroke="#000" stroke-linejoin="round" stroke-width="2.37"/>
    <path id="Path_2409" data-name="Path 2409" d="M156.354-352.315c-1.605-3.058-3-6.053-4.162-8.865l2.282-.927,9.439,13.5L160-345.881C158.772-347.888,157.544-350.044,156.354-352.315Z" transform="translate(40.474 3.653)"/>
    <path id="Path_2410" data-name="Path 2410" d="M175.225-327.466c-2.175.917-5.516-2.217-7.963-5.048a87.414,87.414,0,0,1-10.423-15.921,87.434,87.434,0,0,1-7.175-17.623c-.96-3.709-1.652-8.367.517-9.506,1.406-.736,3.5.25,6.212,2.931a59.574,59.574,0,0,1,8.038,10.5l-.922.374a57.7,57.7,0,0,0-7.8-10.18c-2.279-2.25-4.127-3.257-5.071-2.76-.714.375-.888,1.6-.908,2.555a22.525,22.525,0,0,0,.884,5.839,86.288,86.288,0,0,0,7.1,17.415A86.3,86.3,0,0,0,168-333.155a22.587,22.587,0,0,0,4.3,4.046c.8.528,1.905,1.082,2.619.7.606-.318.812-1.255.879-1.985a16.392,16.392,0,0,0-.421-4.547,68.471,68.471,0,0,0-4.911-13.953l.821-.573a71.41,71.41,0,0,1,5.051,14.33c.87,4.246.547,6.8-.963,7.593Z" transform="translate(39.555)"/>
    <path id="Path_2411" data-name="Path 2411" d="M137.459-307.975s-1.323-5.673-2.486-7.5a51.62,51.62,0,0,0-5.418-6.966c-2.222-2.3-4.686-3.827-3.717-4.193,3.852-1.461,5.649,3.085,7.028,3.094s8.8-11.826,10.936-11.726-3.023,6.035-2.587,6.242,3.741-5.579,4.49-4.455,2.407,4.34,2.259,5.088c-.772,3.878-5.327,10.992-4.765,12.053s3.311,5.062,2.8,5.464A49.5,49.5,0,0,1,137.459-307.975Z" transform="translate(33.385 10.816)" fill="#fff" stroke="#000" stroke-linejoin="round" stroke-width="2.37"/>
    <path id="Path_2412" data-name="Path 2412" d="M78.158-281.517c5.783-8.339,62.252,10.385,66.647,7.983,2.788-1.528-5.81-39.01,2.876-45.114,3.026-2.124,12.436-2.9,13.041-.423,4.41,18.089,25,60.214-8.2,71.579C114.581-234.5,70.551-270.55,78.158-281.517Z" transform="translate(20.49 14.725)" fill="#fff" stroke="#000" stroke-linejoin="round" stroke-width="2.37"/>
  </g>
</svg>
