<svg xmlns="http://www.w3.org/2000/svg" width="379.497" height="445" viewBox="0 0 379.497 445">
  <g id="Group_305" data-name="Group 305" transform="translate(-11.555 444.996)">
    <path id="Path_2362" data-name="Path 2362" d="M119.35-408.416s23.075,138.252,142.985,185.422,127.774,3.908,127.774,3.908-22.924-2.2-44.085-19.838,0-30.86,0-30.86c-72.608,21.271-135.029-28.771-192.65-112.415Z" fill="#f53c37" stroke="#000" stroke-linecap="round" stroke-linejoin="round" stroke-width="1.887" fill-rule="evenodd"/>
    <path id="Path_2363" data-name="Path 2363" d="M73.776-382.461c4.66-10.634,12.042-36.282,2.209-30.965-4.922,2.656-39.935,36-50.135,50.592-2.573,3.684-4.935,7.3-6.879,10.631-7.064,12.108-8.005,21.164-4.716,32.682,6.143,21.533,16.553,27.738,17.656,26.831,3.063-2.52,5.887-12.36,5.144-14.915-.38-1.331.968-25.208.968-25.208s3.084-4.123,7.237-10.186C45.655-342.878,69.591-372.932,73.776-382.461Z" fill="#fff" stroke="#000" stroke-linejoin="round" stroke-width="1.79"/>
    <path id="Path_2364" data-name="Path 2364" d="M31.6-15.771c3.9-1.68,4.56-6.224,6.223-9.49.1-.221,16.34-1.679,17.075-.523,4.452,7.009,2.2,14.5-.892,15.393-5.3,1.527-27.554,5.127-35.8,4.037-2-.264-1.871-2.635-1.983-3.263C15.886-11.548,24.916-12.869,31.6-15.771Z" stroke="#fff" stroke-linejoin="round" stroke-width="2.368"/>
    <path id="Path_2365" data-name="Path 2365" d="M173.792-11.149c-3.905-1.68-4.56-6.224-6.224-9.49-.1-.221-16.34-1.679-17.075-.523-4.452,7.009-2.2,14.5.892,15.393,4.966,1.431,24.45,5.2,33.564,4.5a4.825,4.825,0,0,0,4.221-3.722C189.51-6.926,180.479-8.246,173.792-11.149Z" stroke="#fff" stroke-linejoin="round" stroke-width="2.368"/>
    <path id="Path_2366" data-name="Path 2366" d="M40.292-300.395l84.2,16.021L170.1-20c-8.466,5.577-16.862,4.27-24.925,2.135L80.98-231.629s-4.56,43.4-9.925,90.62C64.66-84.659,57.153-22.862,54.929-22.862H36.636C24.18-229.854,40.292-300.395,40.292-300.395Z" fill="#fff" stroke="#000" stroke-linejoin="round" stroke-width="2.368"/>
    <path id="Path_2367" data-name="Path 2367" d="M40.292-300.395,80.98-231.629s-4.56,43.4-9.925,90.62C64.66-84.659,57.153-22.862,54.929-22.862H36.636C24.18-229.854,40.292-300.395,40.292-300.395Z"/>
    <path id="Path_2368" data-name="Path 2368" d="M124.878-254.388l-.255-15.056-4.666-1.661a218.545,218.545,0,0,1-29.107-1.163c-20.226-2.376-49.9-7.333-49.9-7.333s.153,5.56,22.425,13.432C79.085-260.616,108.729-256.382,124.878-254.388Z"/>
    <path id="Path_2369" data-name="Path 2369" d="M125.485-266.294c1.641-11.865,3.9-34.944,7.086-45.738,3.967-13.438,15.3-47.73,15.8-57.517.927-18.6-10.316-34.92-55.212-45.667-22.177-5.308-29.6,15.549-33.484,29.085-2.29,7.97-21.013,82.33-21.653,101.26C37.834-279.454,48.9-273,64.486-269.345,95.772-262,125.346-265.3,125.485-266.294Z" fill="#fff" stroke="#000" stroke-linejoin="round" stroke-width="2.368"/>
    <path id="Path_2370" data-name="Path 2370" d="M118.829-261.558s-18.072-2.931-19.476.773-5.866,11.988-3.792,12.311,4.531-6.185,4.531-6.185-2.192,9.248-1.184,10.1,2.128-.3,2.128-.3a4.241,4.241,0,0,0,2.12,1.752c1.27.337,4.989-6.6,4.989-6.6s18.03,5.834,18.507-4.415S118.829-261.558,118.829-261.558Z" fill="#fff" stroke="#000" stroke-linejoin="round" stroke-width="2.368"/>
    <path id="Path_2371" data-name="Path 2371" d="M130.627-363.676c-7.155-13.2-5.217-37.324,9.262-30.454,7.247,3.432,30.31,27.083,45.657,45.332,3.872,4.606,7.434,9.127,10.379,13.274,10.7,15.09,12.4,26.219,8.033,40.212-8.146,26.16-78.746,50.485-80.383,49.334-4.54-3.2-9-15.356-8.013-18.46.5-1.617,53.382-48.019,53.382-48.019s-4.63-5.162-10.884-12.741C157.491-325.064,137.052-351.85,130.627-363.676Z" fill="#fff" stroke="#000" stroke-linejoin="round" stroke-width="2.368"/>
    <path id="Path_2372" data-name="Path 2372" d="M117.342-406.946a4.332,4.332,0,0,1,3.2,3.767,25.293,25.293,0,0,1-.606,7.816c-1.615,7.24-28.254,56.159-33.785,67.982s-6.581,13.787-8.78,13.543,3.755-46.39,7.632-65.147,8.751-33.6,16.813-31.8C107.377-409.542,113.856-407.866,117.342-406.946Z" fill="#fff"/>
    <path id="Path_2373" data-name="Path 2373" d="M128.205-428.615s-.243,1.885-.723,3.94c-1.141,4.88-8.164,8.116-9.353,7.539s-4.34-14.1-3.345-16.107,6.48-1.814,7.93-.493S128.205-428.615,128.205-428.615Z" fill="#f53c37" stroke="#000" stroke-linejoin="round" stroke-width="2.368"/>
    <path id="Path_2374" data-name="Path 2374" d="M103.893-409.118c2.7,3.522,13.3,2.563,13.8.428l-.521-19.158-6.59,2.4-2,3.351-2.337,3.921-3.211,6.193C101.567-409.995,103.111-410.149,103.893-409.118Z" fill="#fff" stroke="#000" stroke-linejoin="round" stroke-width="2.368"/>
    <path id="Path_2375" data-name="Path 2375" d="M106.613-418.561a8.639,8.639,0,0,0,9.222-1.843l-6-1.4Z"/>
    <path id="Path_2376" data-name="Path 2376" d="M81.456-352.457l20.783-49.162a13.794,13.794,0,0,1,.749-4.837c.847-1.923,5.127-1.31,5.542,1.822a39.821,39.821,0,0,1-3.935,4.058l-9.309,51.283s-1.241,4.289-2.635,9.018c-2.893,5.6-5.239,10.207-6.5,12.894-5.531,11.822-6.581,13.787-8.78,13.543-1.272-.141.177-15.577,2.374-32.211C80.754-349.921,81.456-352.457,81.456-352.457Z" fill="#f53c37" stroke="#000" stroke-linejoin="round" stroke-width="2.368"/>
    <path id="Path_2377" data-name="Path 2377" d="M119.1-423.446a6.35,6.35,0,0,1-7.253,3.334,10.676,10.676,0,0,1-5.794-2.9c-1.848-1.666-1.532-4.35.342-7.011a30.448,30.448,0,0,1,7.427-7.183,5.906,5.906,0,0,1,3.08-1.082,1.6,1.6,0,0,1,1.025.324c1.941,1.481,3.84,3.634,3.605,6.7l-1.258,4.118a10.381,10.381,0,0,0,.782-.981c.625-.876,1.749-2.041,2.6-.481,1.233,2.265-1.738,6.565-4.17,5.392A2.226,2.226,0,0,1,119.1-423.446Z" fill="#fff" stroke="#000" stroke-linejoin="round" stroke-width="2.368"/>
    <path id="Path_2378" data-name="Path 2378" d="M106.6-407.859s-2.055-5.443-1.425-8.234c-3.322-.077-6.985,9.949-6.985,9.949l7.744-.5,3.318,5.636s8.945-1.8,9.833-3.906-.575-8.09-1.62-7.152C114.128-409.077,106.6-407.859,106.6-407.859Z" fill="#fff" stroke="#000" stroke-linejoin="round" stroke-width="2.368"/>
    <path id="Path_2379" data-name="Path 2379" d="M122.606-431.76c-.118-.006-4.809-2.3-6.4-4.492s-1.383-5.853-.794-5.747,1.079,1.2,1.079,1.2-1.162-2.685.242-2.976,2.32,1.011,3.115,1.593c0,0-.159-1.2.712-.832a46.4,46.4,0,0,1,8.893,6.573c2.53,2.658.327,7.211-1.323,8.517S122.606-431.76,122.606-431.76Z" fill="#f53c37" stroke="#000" stroke-linejoin="round" stroke-width="2.368"/>
    <path id="Path_2380" data-name="Path 2380" d="M179.618-299.46a.7.7,0,0,0,.448-.074.72.72,0,0,0,.305-.972c-2.631-4.987-10.618-12.184-10.95-12.488a.727.727,0,0,0-1.021.053.717.717,0,0,0,.053,1.019c.087.074,8.134,7.33,10.633,12.086A.72.72,0,0,0,179.618-299.46Z" stroke="#000" stroke-linejoin="round" stroke-width="0.985"/>
    <path id="Path_2381" data-name="Path 2381" d="M70.749-265.463l.182.006a.723.723,0,0,0,.656-.785c-1.152-12.176,3.859-39.395,3.938-39.724A.714.714,0,0,0,75-306.84a.709.709,0,0,0-.869.526c-.337,1.357-5.155,27.788-3.985,40.208A.721.721,0,0,0,70.749-265.463Z" stroke="#000" stroke-linejoin="round" stroke-width="0.574"/>
    <path id="Path_2382" data-name="Path 2382" d="M121.443-295.045a.718.718,0,0,0,.77-.428.718.718,0,0,0-.374-.946L91.194-309.63a.716.716,0,0,0-.945.377.718.718,0,0,0,.374.947l30.645,13.21Z" stroke="#000" stroke-linejoin="round" stroke-width="0.574"/>
    <path id="Path_2383" data-name="Path 2383" d="M50.419-313.2h.2l14.45-1.846a.721.721,0,0,0,.619-.806.721.721,0,0,0-.8-.624l-14.438,1.849a.718.718,0,0,0-.631.8A.724.724,0,0,0,50.419-313.2Z" stroke="#000" stroke-linejoin="round" stroke-width="0.574"/>
    <path id="Path_2384" data-name="Path 2384" d="M36.809-304.257s15.477,3.3,15.448,6.726.97,11.495-.8,11.106-1.713-6.4-1.713-6.4-1.131,8.137-2.209,8.505-1.621-.9-1.621-.9a3.665,3.665,0,0,1-2.257.747c-1.129-.126-1.952-6.88-1.952-6.88s-16.353-.95-13.526-9.356S36.809-304.257,36.809-304.257Z" fill="#fff" stroke="#000" stroke-linejoin="round" stroke-width="2.047"/>
  </g>
</svg>
