<svg xmlns="http://www.w3.org/2000/svg" width="160.256" height="94.42" viewBox="0 0 160.256 94.42">
  <g id="Group_297" data-name="Group 297" transform="translate(0 294.756)">
    <path id="Path_2273" data-name="Path 2273" d="M207.857-194.212l-30.38-81.18a3.524,3.524,0,0,0-3.338-2.3H72.152L104.679-193h103.4A3.356,3.356,0,0,0,207.857-194.212Z" transform="translate(-49.214 -11.637)" fill="#fff" stroke="#000" stroke-linejoin="round" stroke-width="2.78"/>
    <path id="Path_2274" data-name="Path 2274" d="M171.67-12.283l-1.259,2.863a.506.506,0,0,0,.464.711l101.353-.076a3.578,3.578,0,0,0,2.206-1.452,3.6,3.6,0,0,0,.636-2.045Z" transform="translate(-116.204 -192.669)" fill="#ef3d31" stroke="#000" stroke-linejoin="round" stroke-width="2.087"/>
    <path id="Path_2275" data-name="Path 2275" d="M23.059-275.54a2.44,2.44,0,0,1,4.577,0l14.654,39.6,15.724,42.492a2.441,2.441,0,0,1-2.289,3.287H5.974a2.44,2.44,0,0,1-2.288-3.287Z" transform="translate(-2.409 -12.02)" fill="#f53c37"/>
    <path id="Path_2276" data-name="Path 2276" d="M54.4-193.572a1.3,1.3,0,0,1-1.081.567H3.565a1.3,1.3,0,0,1-1.079-.567,1.321,1.321,0,0,1-.154-1.218l19.374-82.748a1.281,1.281,0,0,1,1.233-.865,1.281,1.281,0,0,1,1.234.865L54.55-194.79A1.319,1.319,0,0,1,54.4-193.572Zm2.264-2L26.283-278.324a3.535,3.535,0,0,0-3.344-2.346,3.535,3.535,0,0,0-3.344,2.346L.221-195.577a3.619,3.619,0,0,0,.418,3.3,3.557,3.557,0,0,0,2.925,1.54H53.316a3.543,3.543,0,0,0,2.925-1.54A3.609,3.609,0,0,0,56.661-195.577Z" transform="translate(0 -9.607)"/>
    <path id="Path_2277" data-name="Path 2277" d="M126.733-271.946a.958.958,0,0,1-.942,1.307,1.856,1.856,0,0,1-1.672-1.307.959.959,0,0,1,.942-1.307A1.856,1.856,0,0,1,126.733-271.946Z" transform="translate(-84.625 -14.667)"/>
    <path id="Path_2278" data-name="Path 2278" d="M113.735-286.763l-.008-.031a.633.633,0,0,1,.432-.837,2.037,2.037,0,0,0,1.263-2.843A3.935,3.935,0,0,0,112.188-293a2.015,2.015,0,0,0-2.164,2.723h-1.748a3.306,3.306,0,0,1,3.574-4.464,6.45,6.45,0,0,1,5.272,4.12c.8,2.254-.169,4.193-2.1,4.7A1.175,1.175,0,0,1,113.735-286.763Z" transform="translate(-73.735)" fill="#f53c37"/>
    <path id="Path_2279" data-name="Path 2279" d="M166.427-271.946a.96.96,0,0,1-.941,1.307,1.847,1.847,0,0,1-1.672-1.307.956.956,0,0,1,.941-1.307A1.861,1.861,0,0,1,166.427-271.946Z" transform="translate(-111.699 -14.667)"/>
    <path id="Path_2280" data-name="Path 2280" d="M153.423-286.763l-.006-.031a.631.631,0,0,1,.432-.837,2.034,2.034,0,0,0,1.259-2.843,3.927,3.927,0,0,0-3.23-2.527,2.015,2.015,0,0,0-2.166,2.723h-1.749a3.307,3.307,0,0,1,3.577-4.464,6.453,6.453,0,0,1,5.271,4.12c.795,2.254-.172,4.193-2.1,4.7A1.176,1.176,0,0,1,153.423-286.763Z" transform="translate(-100.806)" fill="#f53c37"/>
    <path id="Path_2281" data-name="Path 2281" d="M206.108-271.946a.955.955,0,0,1-.941,1.307,1.86,1.86,0,0,1-1.672-1.307.958.958,0,0,1,.941-1.307A1.854,1.854,0,0,1,206.108-271.946Z" transform="translate(-138.765 -14.667)"/>
    <path id="Path_2282" data-name="Path 2282" d="M193.115-286.763l-.013-.031a.635.635,0,0,1,.432-.837,2.037,2.037,0,0,0,1.265-2.843A3.936,3.936,0,0,0,191.563-293a2.014,2.014,0,0,0-2.162,2.723h-1.749a3.3,3.3,0,0,1,3.573-4.464,6.443,6.443,0,0,1,5.27,4.12c.8,2.254-.165,4.193-2.091,4.7A1.172,1.172,0,0,1,193.115-286.763Z" transform="translate(-127.876)" fill="#f53c37"/>
    <path id="Path_2283" data-name="Path 2283" d="M245.807-271.946a.96.96,0,0,1-.941,1.307,1.847,1.847,0,0,1-1.672-1.307.956.956,0,0,1,.941-1.307A1.861,1.861,0,0,1,245.807-271.946Z" transform="translate(-165.843 -14.667)"/>
    <path id="Path_2284" data-name="Path 2284" d="M232.8-286.763l-.007-.031a.631.631,0,0,1,.433-.837,2.035,2.035,0,0,0,1.259-2.843,3.937,3.937,0,0,0-3.23-2.527,2.015,2.015,0,0,0-2.168,2.723h-1.749a3.308,3.308,0,0,1,3.58-4.464,6.454,6.454,0,0,1,5.271,4.12c.795,2.254-.172,4.193-2.1,4.7A1.172,1.172,0,0,1,232.8-286.763Z" transform="translate(-154.946)" fill="#f53c37"/>
    <path id="Path_2285" data-name="Path 2285" d="M285.488-271.946a.958.958,0,0,1-.941,1.307,1.854,1.854,0,0,1-1.672-1.307.958.958,0,0,1,.941-1.307A1.855,1.855,0,0,1,285.488-271.946Z" transform="translate(-192.909 -14.667)"/>
    <path id="Path_2286" data-name="Path 2286" d="M272.495-286.763l-.013-.031a.635.635,0,0,1,.432-.837,2.041,2.041,0,0,0,1.265-2.843A3.936,3.936,0,0,0,270.943-293a2.014,2.014,0,0,0-2.162,2.723h-1.749a3.3,3.3,0,0,1,3.573-4.464,6.453,6.453,0,0,1,5.271,4.12c.8,2.254-.172,4.193-2.092,4.7A1.172,1.172,0,0,1,272.495-286.763Z" transform="translate(-182.02)" fill="#f53c37"/>
    <path id="Path_2287" data-name="Path 2287" d="M325.179-271.946a.961.961,0,0,1-.947,1.307,1.861,1.861,0,0,1-1.672-1.307.962.962,0,0,1,.947-1.307A1.861,1.861,0,0,1,325.179-271.946Z" transform="translate(-219.978 -14.667)"/>
    <path id="Path_2288" data-name="Path 2288" d="M312.179-286.763l-.006-.031a.631.631,0,0,1,.432-.837,2.034,2.034,0,0,0,1.259-2.843,3.936,3.936,0,0,0-3.23-2.527,2.015,2.015,0,0,0-2.168,2.723h-1.749a3.307,3.307,0,0,1,3.573-4.464,6.454,6.454,0,0,1,5.277,4.12c.795,2.254-.172,4.193-2.1,4.7A1.172,1.172,0,0,1,312.179-286.763Z" transform="translate(-209.089)" fill="#f53c37"/>
    <path id="Path_2289" data-name="Path 2289" d="M364.868-271.946a.958.958,0,0,1-.941,1.307,1.854,1.854,0,0,1-1.672-1.307.958.958,0,0,1,.941-1.307A1.855,1.855,0,0,1,364.868-271.946Z" transform="translate(-247.052 -14.667)"/>
    <path id="Path_2290" data-name="Path 2290" d="M351.868-286.763l-.006-.031a.631.631,0,0,1,.432-.837,2.041,2.041,0,0,0,1.265-2.843A3.936,3.936,0,0,0,350.323-293a2.014,2.014,0,0,0-2.162,2.723h-1.749a3.3,3.3,0,0,1,3.573-4.464,6.453,6.453,0,0,1,5.271,4.12c.8,2.254-.172,4.193-2.1,4.7A1.176,1.176,0,0,1,351.868-286.763Z" transform="translate(-236.163)" fill="#f53c37"/>
    <path id="Path_2291" data-name="Path 2291" d="M216.791-165.2l-3.682-9.335H201.524L205.2-165.2Z" transform="translate(-137.455 -82)" fill="none" stroke="#000" stroke-linejoin="round" stroke-width="1"/>
    <path id="Path_2292" data-name="Path 2292" d="M188.084-208.633l3.682,9.335H203.35l-3.681-9.335Z" transform="translate(-128.288 -58.743)" fill="none" stroke="#000" stroke-linejoin="round" stroke-width="1"/>
    <path id="Path_2293" data-name="Path 2293" d="M230.231-131.1l-3.682-9.335H214.964l3.682,9.335Z" transform="translate(-146.623 -105.259)" fill="none" stroke="#000" stroke-linejoin="round" stroke-width="1"/>
    <path id="Path_2294" data-name="Path 2294" d="M229.622-208.633,233.3-199.3h11.585l-3.682-9.335Z" transform="translate(-156.621 -58.743)" fill="none" stroke="#000" stroke-linejoin="round" stroke-width="1"/>
    <path id="Path_2295" data-name="Path 2295" d="M285.191-97l-3.682-9.335H269.924L273.605-97Z" transform="translate(-184.11 -128.517)" fill="none" stroke="#000" stroke-linejoin="round" stroke-width="1"/>
    <path id="Path_2296" data-name="Path 2296" d="M326.724-97l-3.682-9.335H311.464L315.139-97Z" transform="translate(-212.443 -128.517)" fill="none" stroke="#000" stroke-linejoin="round" stroke-width="1"/>
    <path id="Path_2297" data-name="Path 2297" d="M368.244-97l-3.675-9.335H352.984L356.666-97Z" transform="translate(-240.763 -128.517)" fill="none" stroke="#000" stroke-linejoin="round" stroke-width="1"/>
    <path id="Path_2298" data-name="Path 2298" d="M243.671-97l-3.682-9.335H228.4L232.086-97Z" transform="translate(-155.79 -128.517)" fill="none" stroke="#000" stroke-linejoin="round" stroke-width="1"/>
    <path id="Path_2299" data-name="Path 2299" d="M271.144-208.633l3.681,9.335H286.4l-3.675-9.335Z" transform="translate(-184.942 -58.743)" fill="none" stroke="#000" stroke-linejoin="round" stroke-width="1"/>
    <path id="Path_2300" data-name="Path 2300" d="M312.664-208.633l3.681,9.335h11.585l-3.682-9.335Z" transform="translate(-213.262 -58.743)" fill="none" stroke="#000" stroke-linejoin="round" stroke-width="1"/>
    <path id="Path_2301" data-name="Path 2301" d="M243.064-174.535l3.675,9.335h11.586l-3.682-9.335Z" transform="translate(-165.789 -82)" fill="none" stroke="#000" stroke-linejoin="round" stroke-width="1"/>
    <path id="Path_2302" data-name="Path 2302" d="M299.844-165.2l-3.675-9.335H284.584l3.682,9.335Z" transform="translate(-194.109 -82)" fill="none" stroke="#000" stroke-linejoin="round" stroke-width="1"/>
    <path id="Path_2303" data-name="Path 2303" d="M398.186-97H409.77l-3.681-9.335H394.5Z" transform="translate(-269.083 -128.517)" fill="#f53c37"/>
    <path id="Path_2304" data-name="Path 2304" d="M271.764-131.1l-3.681-9.335H256.5l3.675,9.335Z" transform="translate(-174.956 -105.259)" fill="none" stroke="#000" stroke-linejoin="round" stroke-width="1"/>
    <path id="Path_2305" data-name="Path 2305" d="M384.746-131.1h11.585l-3.681-9.335H381.064Z" transform="translate(-259.916 -105.259)" fill="#f53c37"/>
    <path id="Path_2306" data-name="Path 2306" d="M326.1-174.535l3.682,9.335h11.579l-3.675-9.335Z" transform="translate(-222.429 -82)" fill="none" stroke="#000" stroke-linejoin="round" stroke-width="1"/>
    <path id="Path_2307" data-name="Path 2307" d="M313.284-131.1l-3.675-9.335H298.024L301.7-131.1Z" transform="translate(-203.276 -105.259)" fill="none" stroke="#000" stroke-linejoin="round" stroke-width="1"/>
    <path id="Path_2308" data-name="Path 2308" d="M354.8-131.1l-3.675-9.335H339.544l3.681,9.335Z" transform="translate(-231.596 -105.259)" fill="none" stroke="#000" stroke-linejoin="round" stroke-width="1"/>
    <path id="Path_2309" data-name="Path 2309" d="M324.9-72.237l3.675,9.335h11.585l-3.682-9.335Z" transform="translate(-221.61 -151.775)" fill="none" stroke="#000" stroke-linejoin="round" stroke-width="1"/>
    <path id="Path_2310" data-name="Path 2310" d="M198.468-106.337H186.884L190.566-97h11.579Z" transform="translate(-127.47 -128.517)" fill="none" stroke="#000" stroke-linejoin="round" stroke-width="1"/>
    <path id="Path_2311" data-name="Path 2311" d="M371.306-165.2h11.585l-3.682-9.335H367.624Z" transform="translate(-250.749 -82)" fill="#f53c37"/>
    <path id="Path_2312" data-name="Path 2312" d="M185.029-140.435H173.444l3.682,9.335H188.7Z" transform="translate(-118.303 -105.259)" fill="none" stroke="#000" stroke-linejoin="round" stroke-width="1"/>
    <path id="Path_2313" data-name="Path 2313" d="M241.842-72.237l3.682,9.335H257.1l-3.675-9.335Z" transform="translate(-164.956 -151.775)" fill="none" stroke="#000" stroke-linejoin="round" stroke-width="1"/>
    <path id="Path_2314" data-name="Path 2314" d="M200.324-72.237l3.682,9.335h11.578l-3.675-9.335Z" transform="translate(-136.637 -151.775)" fill="none" stroke="#000" stroke-linejoin="round" stroke-width="1"/>
    <path id="Path_2315" data-name="Path 2315" d="M419.529-72.237H407.944l3.681,9.335H423.2Z" transform="translate(-278.25 -151.775)" fill="#f53c37"/>
    <path id="Path_2316" data-name="Path 2316" d="M283.364-72.237l3.681,9.335h11.585l-3.682-9.335Z" transform="translate(-193.277 -151.775)" fill="none" stroke="#000" stroke-linejoin="round" stroke-width="1"/>
    <path id="Path_2317" data-name="Path 2317" d="M366.424-72.237l3.681,9.335h11.579l-3.675-9.335Z" transform="translate(-249.93 -151.775)" fill="none" stroke="#000" stroke-linejoin="round" stroke-width="1"/>
    <path id="Path_2318" data-name="Path 2318" d="M171.589-174.535H160l3.682,9.335h11.579Z" transform="translate(-109.136 -82)" fill="none" stroke="#000" stroke-linejoin="round" stroke-width="1"/>
    <path id="Path_2319" data-name="Path 2319" d="M158.152-208.633H146.568l3.679,9.335h11.586Z" transform="translate(-99.971 -58.743)" fill="none" stroke="#000" stroke-linejoin="round" stroke-width="1"/>
    <path id="Path_2320" data-name="Path 2320" d="M357.866-199.3h11.585l-3.682-9.335H354.184Z" transform="translate(-241.582 -58.743)" fill="#f53c37"/>
    <path id="Path_2321" data-name="Path 2321" d="M301.572-230.754a1.009,1.009,0,0,0-1.38-.376,30.077,30.077,0,0,0-2.683,1.729c-.852.63-1.685,1.293-2.48,1.993a46.787,46.787,0,0,0-4.438,4.518,61.85,61.85,0,0,0-3.866,5q-.858,1.228-1.66,2.5c-.343-.314-.693-.617-1.036-.912-1.189-1.008-2.4-1.931-3.631-2.824s-2.467-1.745-3.713-2.579-2.505-1.641-3.8-2.435a1.072,1.072,0,0,0-1.386.224,1.075,1.075,0,0,0,.134,1.516l.006.008c1.119.938,2.238,1.914,3.325,2.9s2.168,1.984,3.211,3,2.054,2.058,2.988,3.119c.471.53.916,1.066,1.316,1.6a9.154,9.154,0,0,1,.96,1.522,2.217,2.217,0,0,0,.839.947,2.225,2.225,0,0,0,3.065-.706l.286-.458c.032-.082.076-.2.121-.308l.146-.331.293-.667c.2-.446.413-.891.623-1.335q.649-1.33,1.361-2.636a56.52,56.52,0,0,1,3.09-5.069,43,43,0,0,1,3.656-4.654c.661-.729,1.354-1.422,2.073-2.09s1.488-1.277,2.276-1.855l.019-.013A1.01,1.01,0,0,0,301.572-230.754Z" transform="translate(-185.015 -43.306)" fill="#f53c37"/>
  </g>
</svg>
