<svg xmlns="http://www.w3.org/2000/svg" xmlns:xlink="http://www.w3.org/1999/xlink" width="740.94" height="547.682" viewBox="0 0 740.94 547.682">
  <defs>
    <clipPath id="clip-path">
      <rect id="Rectangle_225" data-name="Rectangle 225" width="170.214" height="170.214"/>
    </clipPath>
  </defs>
  <g id="Group_252" data-name="Group 252" transform="translate(0 586.517)">
    <path id="Path_1708" data-name="Path 1708" d="M359.925-36.363c78.5,0,142.239,7.584,142.239,16.925S438.428-2.512,359.925-2.512,217.686-10.1,217.686-19.438,281.421-36.363,359.925-36.363Z" transform="translate(-15.041 -36.322)" fill-rule="evenodd"/>
    <path id="Path_1709" data-name="Path 1709" d="M646.023-522.38a34.4,34.4,0,0,1,34.357,34.359,34.4,34.4,0,0,1-34.357,34.358,34.4,34.4,0,0,1-34.358-34.358A34.4,34.4,0,0,1,646.023-522.38Zm68.785,64.526H721l-.077-24.509-15.309-3.818c.019-.61.03-1.225.03-1.84q0-3.033-.3-5.993l15-4.874-1.618-24.024h-6.188l-15.019,4.879a59.922,59.922,0,0,0-6.923-9.536l9.6-14.653-14.939-13.846H679.07l-8.882,13.553a59.164,59.164,0,0,0-11.535-3.772v-15.774H633.392v15.774a58.807,58.807,0,0,0-7.534,2.162L617.5-557.5l-21.424,13.386,8.378,13.4a60.3,60.3,0,0,0-5.239,5.809l-14.2-6.926-11.074,22.7,14.177,6.912a59.048,59.048,0,0,0-1.357,7.721l-15.69,1.65,2.64,25.122L589.4-469.37a58.868,58.868,0,0,0,2.942,7.264L579.9-452.389l15.552,19.9,12.456-9.729a60.2,60.2,0,0,0,6.323,4.606l-5.4,14.843,23.735,8.639,5.4-14.823a59.962,59.962,0,0,0,7.82.543l3.28,15.433h6.189l18.518-5.251-3.279-15.433a59.438,59.438,0,0,0,6.907-3.692l10.972,11.361h6.189l11.983-17.545L695.566-454.9a59.725,59.725,0,0,0,3.925-6.775Z" transform="translate(-551.593 -23.291)" fill="#f53c37"/>
    <path id="Path_1710" data-name="Path 1710" d="M654.027-522.38a34.4,34.4,0,0,1,34.359,34.359,34.4,34.4,0,0,1-34.359,34.358,34.4,34.4,0,0,1-34.359-34.358A34.4,34.4,0,0,1,654.027-522.38Zm68.785,64.526,6.111-24.509-15.309-3.818c.019-.61.03-1.225.03-1.84a59.752,59.752,0,0,0-.3-5.993l15-4.874-7.807-24.024-15.018,4.879a59.973,59.973,0,0,0-6.925-9.536l9.6-14.653-21.128-13.846-8.88,13.553a59.173,59.173,0,0,0-11.536-3.772v-15.774H641.4v15.774a58.952,58.952,0,0,0-7.534,2.162L625.5-557.5,604.08-544.117l8.378,13.4a59.89,59.89,0,0,0-5.239,5.809l-14.2-6.926-11.074,22.7,14.177,6.912a59.051,59.051,0,0,0-1.359,7.721l-15.69,1.65,2.641,25.122L597.4-469.37a59.115,59.115,0,0,0,2.944,7.264l-12.437,9.717,15.552,19.9,12.454-9.729a60.139,60.139,0,0,0,6.326,4.606l-5.4,14.843,23.735,8.639,5.4-14.823a59.963,59.963,0,0,0,7.819.543l3.281,15.433,24.707-5.251-3.281-15.433a59.589,59.589,0,0,0,6.909-3.692l10.972,11.361,18.171-17.545L703.573-454.9a59.684,59.684,0,0,0,3.922-6.775Z" transform="translate(-553.41 -23.291)" fill="#fff" stroke="#000" stroke-linejoin="round" stroke-width="2.328"/>
    <path id="Path_1711" data-name="Path 1711" d="M427.573-51.754c-20.845-1.748-45.264-2.755-71.376-2.755S305.67-53.5,284.823-51.754H217.686v19.386c0,10.654,62.014,19.293,138.51,19.293s138.515-8.639,138.515-19.293V-51.754Z" transform="translate(-15.041 -35.069)" stroke="#fff" stroke-linejoin="round" stroke-width="2.328"/>
    <path id="Path_1712" data-name="Path 1712" d="M494.712-52.981c0,10.656-62.015,19.291-138.515,19.291s-138.51-8.636-138.51-19.291S279.7-72.273,356.2-72.273,494.712-63.635,494.712-52.981Z" transform="translate(-15.041 -33.841)" fill="#fff" stroke="#000" stroke-linejoin="round" stroke-width="2.328"/>
    <path id="Path_1713" data-name="Path 1713" d="M404.769-61.214H321.891a10.258,10.258,0,0,1-9.946-12.826c12-45.8,10.761-91.408-3.706-137.248H412.416c15.03,47.624,15.776,95,2.243,142.6A10.285,10.285,0,0,1,404.769-61.214Z" transform="translate(-21.297 -24.236)" fill="#fff" stroke="#000" stroke-linejoin="round" stroke-width="2.328"/>
    <path id="Path_1714" data-name="Path 1714" d="M416.527-196.975a189.225,189.225,0,0,0-22.277-1.7c-30.338-.651-62.861-1.025-82.675-1.213a247.8,247.8,0,0,1,8.377,51.154l104.4,21.592A243.132,243.132,0,0,0,416.527-196.975Z" transform="translate(-21.528 -25.024)"/>
    <path id="Path_1715" data-name="Path 1715" d="M601.765-511.806H125.606a13.453,13.453,0,0,0-13.412,13.412v297.531a13.45,13.45,0,0,0,13.412,13.411H601.765a13.45,13.45,0,0,0,13.413-13.411V-498.394A13.452,13.452,0,0,0,601.765-511.806Z" transform="translate(-7.752 -3.472)" fill="#311d69"/>
    <path id="Path_1716" data-name="Path 1716" d="M609.289-201.564a8.231,8.231,0,0,1-8.223,8.223H125.492a8.232,8.232,0,0,1-8.224-8.223V-498.506a8.233,8.233,0,0,1,8.224-8.225H601.066a8.232,8.232,0,0,1,8.223,8.225Zm-8.223-316.129H125.492a19.207,19.207,0,0,0-19.187,19.187v296.942a19.209,19.209,0,0,0,19.187,19.189H601.066a19.21,19.21,0,0,0,19.187-19.189V-498.506A19.209,19.209,0,0,0,601.066-517.693Z" transform="translate(-7.345 -3.066)"/>
    <path id="Path_1717" data-name="Path 1717" d="M601.88-505.917H126.306a8.232,8.232,0,0,0-8.224,8.223V-200.75a8.232,8.232,0,0,0,8.224,8.223H601.88a8.231,8.231,0,0,0,8.223-8.223V-497.694A8.231,8.231,0,0,0,601.88-505.917Z" transform="translate(-8.159 -3.879)" fill="#fff"/>
    <path id="Path_1718" data-name="Path 1718" d="M126.927-193.671V-490.618a8.234,8.234,0,0,1,8.225-8.223h474.86a8.23,8.23,0,0,0-8.132-7.077H126.306a8.232,8.232,0,0,0-8.224,8.223V-200.75a8.232,8.232,0,0,0,8.224,8.223h.713A8.163,8.163,0,0,1,126.927-193.671Z" transform="translate(-8.159 -3.879)" fill="#f53c37"/>
    <path id="Path_1719" data-name="Path 1719" d="M90.265-217.913a41.424,41.424,0,0,1,41.374,41.376,41.424,41.424,0,0,1-41.374,41.376,41.423,41.423,0,0,1-41.376-41.376A41.423,41.423,0,0,1,90.265-217.913Zm82.834,77.7h7.451l-.093-29.515-18.436-4.6c.022-.734.036-1.475.036-2.216q0-3.653-.359-7.217l18.064-5.869-1.948-28.931h-7.451l-18.087,5.875a72.062,72.062,0,0,0-8.337-11.484L155.5-241.809l-17.991-16.673h-7.451l-10.7,16.321a71.288,71.288,0,0,0-13.892-4.543v-19H75.054v19a70.881,70.881,0,0,0-9.073,2.6L55.914-260.21l-25.8,16.12L40.2-227.947a72.471,72.471,0,0,0-6.309,7l-17.1-8.341L3.457-201.952l17.072,8.325a71.224,71.224,0,0,0-1.634,9.3L0-182.343,3.179-152.09l18.893-1.986a70.953,70.953,0,0,0,3.543,8.748l-14.977,11.7,18.728,23.97,15-11.716a72.363,72.363,0,0,0,7.616,5.546l-6.5,17.875,28.583,10.4,6.5-17.851a72.062,72.062,0,0,0,9.416.654l3.95,18.586h7.453l22.3-6.323-3.949-18.586a71.708,71.708,0,0,0,8.318-4.446l13.213,13.681h7.453l14.431-21.128-13.217-13.687a71.763,71.763,0,0,0,4.727-8.158Z" transform="translate(0 -20.477)" fill="#f53c37"/>
    <path id="Path_1720" data-name="Path 1720" d="M98.269-217.913a41.424,41.424,0,0,1,41.376,41.376,41.424,41.424,0,0,1-41.376,41.376,41.423,41.423,0,0,1-41.376-41.376A41.423,41.423,0,0,1,98.269-217.913Zm82.834,77.7,7.36-29.515-18.436-4.6c.022-.734.036-1.475.036-2.216a71.981,71.981,0,0,0-.361-7.217l18.066-5.869-9.4-28.931-18.085,5.875a72.253,72.253,0,0,0-8.34-11.484l11.567-17.646-25.444-16.673-10.693,16.321a71.306,71.306,0,0,0-13.894-4.543v-19H83.058v19a71.064,71.064,0,0,0-9.073,2.6L63.919-260.21l-25.8,16.12L48.21-227.947a72.009,72.009,0,0,0-6.309,7l-17.1-8.341-13.336,27.34,17.072,8.325a71.211,71.211,0,0,0-1.636,9.3L8-182.343l3.181,30.253,18.891-1.986a71.241,71.241,0,0,0,3.545,8.748l-14.977,11.7,18.728,23.97,15-11.716a72.386,72.386,0,0,0,7.618,5.546l-6.5,17.875,28.583,10.4,6.5-17.851a72.083,72.083,0,0,0,9.416.654l3.952,18.586,29.754-6.323-3.951-18.586a71.887,71.887,0,0,0,8.32-4.446l13.213,13.681,21.882-21.128-13.213-13.687a71.6,71.6,0,0,0,4.723-8.158Z" transform="translate(-0.553 -20.477)" fill="#fff" stroke="#000" stroke-linejoin="round" stroke-width="2.328"/>
    <path id="Path_1721" data-name="Path 1721" d="M138.359-468.81H611.5V-498.2H138.359Z" transform="translate(-9.56 -3.482)" fill="#f53c37" fill-rule="evenodd"/>
    <path id="Path_1722" data-name="Path 1722" d="M219.1-423.774H432.32v-22.64H219.1Z" transform="translate(-15.138 -7.991)" fill="#fff" stroke="#f53c37" stroke-linecap="round" stroke-linejoin="round" stroke-width="1.3" fill-rule="evenodd"/>
    <path id="Path_1723" data-name="Path 1723" d="M219.1-348.468H432.32v-65.7H219.1Z" transform="translate(-15.138 -10.219)" fill="#fff" stroke="#f53c37" stroke-linecap="round" stroke-linejoin="round" stroke-width="1.3" fill-rule="evenodd"/>
    <path id="Path_1724" data-name="Path 1724" d="M219.1-185.792H432.32v-42.629H219.1Z" transform="translate(-15.138 -23.052)" fill="#fff" stroke="#f53c37" stroke-linecap="round" stroke-linejoin="round" stroke-width="1.3" fill-rule="evenodd"/>
    <path id="Path_1725" data-name="Path 1725" d="M219.1-241.511H432.32v-95.52H219.1Z" transform="translate(-15.138 -15.548)" fill="#f53c37" stroke="#f53c37" stroke-linecap="round" stroke-linejoin="round" stroke-width="1.3" fill-rule="evenodd"/>
    <g id="Group_244" data-name="Group 244" transform="translate(275.251 -327.543)">
      <text id="Ads" transform="translate(0 35)" fill="#fff" font-size="37" font-family="CorporativeSlab-Black, Corporative Slab" font-weight="800"><tspan x="0" y="0">Ads</tspan></text>
    </g>
    <path id="Path_1726" data-name="Path 1726" d="M453.937-372.967h78.9v-73.447h-78.9Z" transform="translate(-31.364 -7.991)" fill="#fff" stroke="#f53c37" stroke-linecap="round" stroke-linejoin="round" stroke-width="1.3" fill-rule="evenodd"/>
    <path id="Path_1727" data-name="Path 1727" d="M579.535-239.965h47.609v-40.511H579.535Z" transform="translate(-40.042 -19.456)" fill="#fff" stroke="#f53c37" stroke-linecap="round" stroke-linejoin="round" stroke-width="1.3" fill-rule="evenodd"/>
    <path id="Path_1728" data-name="Path 1728" d="M453.937-288.069h78.9v-73.447h-78.9Z" transform="translate(-31.364 -13.856)" fill="#f53c37" stroke="#f53c37" stroke-linecap="round" stroke-linejoin="round" stroke-width="1.3" fill-rule="evenodd"/>
    <path id="Path_1729" data-name="Path 1729" d="M579.535-290.47h47.609V-334.79H579.535Z" transform="translate(-40.042 -15.703)" fill="#f53c37" fill-rule="evenodd"/>
    <path id="Path_1730" data-name="Path 1730" d="M453.937-202.171h78.9v-73.447h-78.9Z" transform="translate(-31.364 -19.791)" fill="#fff" stroke="#f53c37" stroke-linecap="round" stroke-linejoin="round" stroke-width="1.3" fill-rule="evenodd"/>
    <path id="Path_1731" data-name="Path 1731" d="M182.027-476.761H348.361v-12.215H182.027Z" transform="translate(-12.577 -4.119)" fill="#fff" fill-rule="evenodd"/>
    <path id="Path_1732" data-name="Path 1732" d="M396.31-480.589h17.71v-3.945H396.31Z" transform="translate(-27.382 -4.426)" fill="#fff" fill-rule="evenodd"/>
    <path id="Path_1733" data-name="Path 1733" d="M178.625-427.22h17.71v-3.945h-17.71Z" transform="translate(-12.342 -9.044)" fill-rule="evenodd"/>
    <path id="Path_1734" data-name="Path 1734" d="M605.835-427.22h17.71v-3.945h-17.71Z" transform="translate(-41.859 -9.044)" fill-rule="evenodd"/>
    <path id="Path_1735" data-name="Path 1735" d="M605.835-400.685h17.71v-3.945h-17.71Z" transform="translate(-41.859 -10.878)" fill-rule="evenodd"/>
    <path id="Path_1736" data-name="Path 1736" d="M605.835-374.15h17.71v-3.945h-17.71Z" transform="translate(-41.859 -12.711)" fill-rule="evenodd"/>
    <path id="Path_1737" data-name="Path 1737" d="M605.835-347.615h17.71v-3.945h-17.71Z" transform="translate(-41.859 -14.544)" fill-rule="evenodd"/>
    <path id="Path_1738" data-name="Path 1738" d="M251.432-396h32.479v-3.945H251.432Z" transform="translate(-17.372 -11.201)" fill-rule="evenodd"/>
    <path id="Path_1739" data-name="Path 1739" d="M251.432-210.257h32.479V-214.2H251.432Z" transform="translate(-17.372 -24.035)" fill-rule="evenodd"/>
    <path id="Path_1740" data-name="Path 1740" d="M251.432-388.442h17.71V-390.5h-17.71Z" transform="translate(-17.372 -11.854)" fill-rule="evenodd"/>
    <path id="Path_1741" data-name="Path 1741" d="M251.432-202.7h17.71v-2.061h-17.71Z" transform="translate(-17.372 -24.687)" fill-rule="evenodd"/>
    <path id="Path_1742" data-name="Path 1742" d="M250.506-431.007H407.865v-6.025H250.506Z" transform="translate(-17.308 -8.639)" fill-rule="evenodd"/>
    <path id="Path_1743" data-name="Path 1743" d="M250.506-368.818H407.865v-6.025H250.506Z" transform="translate(-17.308 -12.936)" fill-rule="evenodd"/>
    <path id="Path_1744" data-name="Path 1744" d="M250.506-189.075H407.865V-195.1H250.506Z" transform="translate(-17.308 -25.355)" fill-rule="evenodd"/>
    <path id="Path_1745" data-name="Path 1745" d="M250.506-356.223H372.858v-6.025H250.506Z" transform="translate(-17.308 -13.806)" fill-rule="evenodd"/>
    <path id="Path_1746" data-name="Path 1746" d="M178.625-399.514h17.71v-3.945h-17.71Z" transform="translate(-12.342 -10.958)" fill-rule="evenodd"/>
    <path id="Path_1747" data-name="Path 1747" d="M178.625-371.809h17.71v-3.945h-17.71Z" transform="translate(-12.342 -12.873)" fill-rule="evenodd"/>
    <path id="Path_1748" data-name="Path 1748" d="M178.625-344.1h17.71v-3.945h-17.71Z" transform="translate(-12.342 -14.787)" fill-rule="evenodd"/>
    <path id="Path_1749" data-name="Path 1749" d="M178.625-316.4h17.71v-3.945h-17.71Z" transform="translate(-12.342 -16.701)" fill-rule="evenodd"/>
    <path id="Path_1750" data-name="Path 1750" d="M178.625-288.692h17.71v-3.945h-17.71Z" transform="translate(-12.342 -18.616)" fill-rule="evenodd"/>
    <path id="Path_1751" data-name="Path 1751" d="M445.895-480.589h17.71v-3.945h-17.71Z" transform="translate(-30.808 -4.426)" fill="#fff" fill-rule="evenodd"/>
    <path id="Path_1752" data-name="Path 1752" d="M495.48-480.589h17.71v-3.945H495.48Z" transform="translate(-34.234 -4.426)" fill="#fff" fill-rule="evenodd"/>
    <path id="Path_1753" data-name="Path 1753" d="M545.065-480.589h17.71v-3.945h-17.71Z" transform="translate(-37.66 -4.426)" fill="#fff" fill-rule="evenodd"/>
    <path id="Path_1754" data-name="Path 1754" d="M381.873-489.687a6.441,6.441,0,0,1,6.439,6.438,6.442,6.442,0,0,1-6.439,6.439,6.442,6.442,0,0,1-6.439-6.439A6.442,6.442,0,0,1,381.873-489.687Z" transform="translate(-25.94 -4.07)" fill="#fff" fill-rule="evenodd"/>
    <path id="Path_1755" data-name="Path 1755" d="M164.187-436.318a6.441,6.441,0,0,1,6.439,6.438,6.442,6.442,0,0,1-6.439,6.439,6.441,6.441,0,0,1-6.438-6.439A6.441,6.441,0,0,1,164.187-436.318Z" transform="translate(-10.899 -8.688)" fill-rule="evenodd"/>
    <path id="Path_1756" data-name="Path 1756" d="M591.4-436.318a6.441,6.441,0,0,1,6.438,6.438,6.441,6.441,0,0,1-6.438,6.439,6.442,6.442,0,0,1-6.439-6.439A6.441,6.441,0,0,1,591.4-436.318Z" transform="translate(-40.417 -8.688)" fill-rule="evenodd"/>
    <path id="Path_1757" data-name="Path 1757" d="M591.4-409.784a6.442,6.442,0,0,1,6.438,6.439,6.441,6.441,0,0,1-6.438,6.439,6.442,6.442,0,0,1-6.439-6.439A6.442,6.442,0,0,1,591.4-409.784Z" transform="translate(-40.417 -10.521)" fill-rule="evenodd"/>
    <path id="Path_1758" data-name="Path 1758" d="M591.4-383.249a6.441,6.441,0,0,1,6.438,6.439,6.442,6.442,0,0,1-6.438,6.439,6.442,6.442,0,0,1-6.439-6.439A6.442,6.442,0,0,1,591.4-383.249Z" transform="translate(-40.417 -12.355)" fill-rule="evenodd"/>
    <path id="Path_1759" data-name="Path 1759" d="M591.4-356.714a6.441,6.441,0,0,1,6.438,6.439,6.441,6.441,0,0,1-6.438,6.438,6.441,6.441,0,0,1-6.439-6.438A6.442,6.442,0,0,1,591.4-356.714Z" transform="translate(-40.417 -14.188)" fill-rule="evenodd"/>
    <path id="Path_1760" data-name="Path 1760" d="M236.994-401.034a6.442,6.442,0,0,1,6.439,6.439,6.442,6.442,0,0,1-6.439,6.439,6.442,6.442,0,0,1-6.438-6.439A6.441,6.441,0,0,1,236.994-401.034Z" transform="translate(-15.93 -11.126)" fill-rule="evenodd"/>
    <path id="Path_1761" data-name="Path 1761" d="M236.994-215.29a6.441,6.441,0,0,1,6.439,6.438,6.442,6.442,0,0,1-6.439,6.439,6.441,6.441,0,0,1-6.438-6.439A6.441,6.441,0,0,1,236.994-215.29Z" transform="translate(-15.93 -23.96)" fill-rule="evenodd"/>
    <path id="Path_1762" data-name="Path 1762" d="M236.069-441.069a6.442,6.442,0,0,1,6.438,6.439,6.442,6.442,0,0,1-6.438,6.439,6.442,6.442,0,0,1-6.439-6.439A6.442,6.442,0,0,1,236.069-441.069Z" transform="translate(-15.866 -8.36)" fill-rule="evenodd"/>
    <path id="Path_1763" data-name="Path 1763" d="M164.187-408.613a6.442,6.442,0,0,1,6.439,6.439,6.442,6.442,0,0,1-6.439,6.439,6.442,6.442,0,0,1-6.438-6.439A6.441,6.441,0,0,1,164.187-408.613Z" transform="translate(-10.899 -10.602)" fill-rule="evenodd"/>
    <path id="Path_1764" data-name="Path 1764" d="M164.187-380.907a6.441,6.441,0,0,1,6.439,6.438,6.442,6.442,0,0,1-6.439,6.439,6.441,6.441,0,0,1-6.438-6.439A6.441,6.441,0,0,1,164.187-380.907Z" transform="translate(-10.899 -12.517)" fill-rule="evenodd"/>
    <path id="Path_1765" data-name="Path 1765" d="M164.187-353.2a6.442,6.442,0,0,1,6.439,6.439,6.442,6.442,0,0,1-6.439,6.439,6.442,6.442,0,0,1-6.438-6.439A6.441,6.441,0,0,1,164.187-353.2Z" transform="translate(-10.899 -14.431)" fill-rule="evenodd"/>
    <path id="Path_1766" data-name="Path 1766" d="M164.187-325.5a6.442,6.442,0,0,1,6.439,6.439,6.442,6.442,0,0,1-6.439,6.439,6.441,6.441,0,0,1-6.438-6.439A6.442,6.442,0,0,1,164.187-325.5Z" transform="translate(-10.899 -16.345)" fill-rule="evenodd"/>
    <path id="Path_1767" data-name="Path 1767" d="M164.187-297.791a6.442,6.442,0,0,1,6.439,6.439,6.441,6.441,0,0,1-6.439,6.438,6.441,6.441,0,0,1-6.438-6.438A6.441,6.441,0,0,1,164.187-297.791Z" transform="translate(-10.899 -18.259)" fill-rule="evenodd"/>
    <path id="Path_1768" data-name="Path 1768" d="M352.848-485.454a2.831,2.831,0,0,1,2.829,2.83,2.831,2.831,0,0,1-2.829,2.829,2.831,2.831,0,0,1-2.83-2.829A2.831,2.831,0,0,1,352.848-485.454Z" transform="translate(-24.184 -4.362)" fill="none" stroke="#000" stroke-linecap="round" stroke-linejoin="round" stroke-width="1.3"/>
    <path id="Path_1769" data-name="Path 1769" d="M355.3-480.091l2.012,1.977" transform="translate(-24.549 -4.733)" fill="none" stroke="#000" stroke-linecap="round" stroke-linejoin="round" stroke-width="1.3"/>
    <path id="Path_1770" data-name="Path 1770" d="M569.784-446.414v238.673" transform="translate(-39.368 -7.991)" fill="none" stroke="#f53c37" stroke-linecap="round" stroke-linejoin="round" stroke-width="1.3"/>
    <g id="Group_245" data-name="Group 245" transform="translate(436.803 -355.018)">
      <text id="Ads-2" data-name="Ads" transform="translate(0 25)" fill="#fff" font-size="26" font-family="CorporativeSlab-Black, Corporative Slab" font-weight="800"><tspan x="0" y="0">Ads</tspan></text>
    </g>
    <g id="Group_246" data-name="Group 246" transform="translate(548.08 -338.307)">
      <text id="Ads-3" data-name="Ads" transform="translate(0 15)" fill="#fff" font-size="16" font-family="CorporativeSlab-Black, Corporative Slab" font-weight="800"><tspan x="0" y="0">Ads</tspan></text>
    </g>
    <g id="Group_251" data-name="Group 251" transform="translate(570.726 -230.84)">
      <g id="Group_250" data-name="Group 250">
        <g id="Group_249" data-name="Group 249" style="isolation: isolate">
          <g id="Group_248" data-name="Group 248">
            <g id="Group_247" data-name="Group 247" clip-path="url(#clip-path)">
              <path id="Path_1771" data-name="Path 1771" d="M151.977-182.847H18.237A18.324,18.324,0,0,0,0-164.61V-30.871A18.324,18.324,0,0,0,18.237-12.634H70.382V-70.5H46.471V-97.74H70.409V-118.5c0-23.614,14.049-36.658,35.588-36.658a145.012,145.012,0,0,1,21.074,1.837v23.16H115.183a13.651,13.651,0,0,0-1.789-.118,13.688,13.688,0,0,0-13.623,13.623q0,.605.054,1.209V-97.74h26.132L121.781-70.5H99.832v57.867h52.145a18.324,18.324,0,0,0,18.237-18.237V-164.61A18.324,18.324,0,0,0,151.977-182.847Z" transform="translate(0 182.847)"/>
            </g>
          </g>
        </g>
      </g>
    </g>
  </g>
</svg>
