<svg xmlns="http://www.w3.org/2000/svg" width="200.241" height="220.335" viewBox="0 0 200.241 220.335">
  <g id="Group_291" data-name="Group 291" transform="translate(0 220.642)">
    <path id="Path_2193" data-name="Path 2193" d="M161.062-159.66,50.232-182.276,17.915-23.9,128.745-1.285Z" fill="#fff" fill-rule="evenodd"/>
    <path id="Path_2194" data-name="Path 2194" d="M160.021-158.125l-109.6-22.359L18.573-24.384,128.17-2.025ZM128.175-2.024,128-1.183Zm-.343,1.682L18.228-22.707a1.714,1.714,0,0,1-1.336-2.02l31.853-156.1a1.714,1.714,0,0,1,2.021-1.335L160.37-159.8a1.713,1.713,0,0,1,1.333,2.019L129.85-1.678a1.714,1.714,0,0,1-2.018,1.336"/>
    <path id="Path_2195" data-name="Path 2195" d="M159.214-149.877l1.648-8.076a.854.854,0,0,0-.664-1.008l-109.6-22.365a.855.855,0,0,0-1.008.667l-1.648,8.076Z" fill="#f53c37"/>
    <path id="Path_2196" data-name="Path 2196" d="M48.95-173.252l109.595,22.363,1.476-7.235-109.6-22.361Zm110.093,24.216L47.766-171.742a.858.858,0,0,1-.669-1.013l1.648-8.076a1.716,1.716,0,0,1,2.021-1.336L160.37-159.8a1.714,1.714,0,0,1,1.333,2.021l-1.648,8.076a.857.857,0,0,1-1.012.669"/>
    <path id="Path_2197" data-name="Path 2197" d="M63.68-174.1a1.456,1.456,0,0,1-1.716,1.136,1.456,1.456,0,0,1-1.137-1.718,1.455,1.455,0,0,1,1.719-1.134A1.454,1.454,0,0,1,63.68-174.1" fill="#fff"/>
    <path id="Path_2198" data-name="Path 2198" d="M62.374-174.971a.6.6,0,0,0-.705.465.6.6,0,0,0,.466.707.6.6,0,0,0,.7-.468.6.6,0,0,0-.465-.7m-.582,2.853a2.317,2.317,0,0,1-1.805-2.731,2.317,2.317,0,0,1,2.73-1.8,2.316,2.316,0,0,1,1.8,2.729,2.317,2.317,0,0,1-2.729,1.806"/>
    <path id="Path_2199" data-name="Path 2199" d="M59.021-175.046a1.456,1.456,0,0,1-1.716,1.137,1.455,1.455,0,0,1-1.135-1.718,1.454,1.454,0,0,1,1.717-1.135,1.454,1.454,0,0,1,1.134,1.716" fill="#fff"/>
    <path id="Path_2200" data-name="Path 2200" d="M57.716-175.921a.6.6,0,0,0-.7.465.6.6,0,0,0,.465.706.6.6,0,0,0,.7-.468.6.6,0,0,0-.464-.7m-.582,2.853a2.317,2.317,0,0,1-1.8-2.731,2.315,2.315,0,0,1,2.729-1.8,2.316,2.316,0,0,1,1.8,2.729,2.316,2.316,0,0,1-2.728,1.806"/>
    <path id="Path_2201" data-name="Path 2201" d="M54.366-176a1.458,1.458,0,0,1-1.72,1.136,1.455,1.455,0,0,1-1.135-1.718,1.454,1.454,0,0,1,1.717-1.135A1.457,1.457,0,0,1,54.366-176" fill="#fff"/>
    <path id="Path_2202" data-name="Path 2202" d="M53.056-176.872a.6.6,0,0,0-.7.465.6.6,0,0,0,.465.706.6.6,0,0,0,.708-.467.6.6,0,0,0-.469-.7m-.582,2.853a2.317,2.317,0,0,1-1.8-2.731,2.315,2.315,0,0,1,2.729-1.8,2.318,2.318,0,0,1,1.807,2.73,2.318,2.318,0,0,1-2.733,1.805"/>
    <path id="Path_2203" data-name="Path 2203" d="M54.395-157.857,74.3-153.8l-.343,1.682-19.9-4.061Z" fill-rule="evenodd"/>
    <path id="Path_2204" data-name="Path 2204" d="M63.321-152.24l27.684,5.649-.343,1.682-27.684-5.649Z" fill-rule="evenodd"/>
    <path id="Path_2205" data-name="Path 2205" d="M62.578-148.6l24.947,5.09-.343,1.682-24.947-5.09Z" fill-rule="evenodd"/>
    <path id="Path_2206" data-name="Path 2206" d="M61.834-144.953l19.9,4.061-.343,1.682-19.9-4.061Z" fill-rule="evenodd"/>
    <path id="Path_2207" data-name="Path 2207" d="M45.987-116.653l19.9,4.061-.343,1.682-19.9-4.061Z" fill-rule="evenodd"/>
    <path id="Path_2208" data-name="Path 2208" d="M54.914-111.036l53.331,10.883-.343,1.682L54.57-109.354Z" fill-rule="evenodd"/>
    <path id="Path_2209" data-name="Path 2209" d="M54.17-107.392l44.985,9.179-.343,1.682L53.827-105.71Z" fill-rule="evenodd"/>
    <path id="Path_2210" data-name="Path 2210" d="M58.472-102.719l19.9,4.061-.343,1.682-19.9-4.061Z" fill-rule="evenodd"/>
    <path id="Path_2211" data-name="Path 2211" d="M50.019-136.414l19.9,4.061-.343,1.682-19.9-4.061Z" fill-rule="evenodd"/>
    <path id="Path_2212" data-name="Path 2212" d="M58.946-130.8l81.779,16.687-.343,1.682L58.6-129.115Z" fill-rule="evenodd"/>
    <path id="Path_2213" data-name="Path 2213" d="M58.2-127.153l79.042,16.128-.343,1.682L57.859-125.471Z" fill-rule="evenodd"/>
    <path id="Path_2214" data-name="Path 2214" d="M57.459-123.51l19.9,4.061-.343,1.682-19.9-4.061Z" fill-rule="evenodd"/>
    <path id="Path_2215" data-name="Path 2215" d="M38.208-78.532l19.9,4.061-.343,1.682-19.9-4.061Z" fill-rule="evenodd"/>
    <path id="Path_2216" data-name="Path 2216" d="M47.135-72.915l53.332,10.882-.343,1.682L46.792-71.233Z" fill-rule="evenodd"/>
    <path id="Path_2217" data-name="Path 2217" d="M46.392-69.271l44.985,9.179-.343,1.682L46.048-67.59Z" fill-rule="evenodd"/>
    <path id="Path_2218" data-name="Path 2218" d="M50.694-64.6l19.9,4.061-.343,1.682-19.9-4.061Z" fill-rule="evenodd"/>
    <path id="Path_2219" data-name="Path 2219" d="M42.241-98.293l19.9,4.061L61.8-92.55,41.9-96.611Z" fill-rule="evenodd"/>
    <path id="Path_2220" data-name="Path 2220" d="M51.167-92.676l81.78,16.687-.343,1.682L50.824-90.994Z" fill-rule="evenodd"/>
    <path id="Path_2221" data-name="Path 2221" d="M50.424-89.033,129.465-72.9l-.343,1.682L50.081-87.351Z" fill-rule="evenodd"/>
    <path id="Path_2222" data-name="Path 2222" d="M49.68-85.389l19.9,4.061-.343,1.682-19.9-4.061Z" fill-rule="evenodd"/>
    <path id="Path_2223" data-name="Path 2223" d="M30.43-40.411l19.9,4.061-.343,1.682-19.9-4.061Z" fill-rule="evenodd"/>
    <path id="Path_2224" data-name="Path 2224" d="M39.356-34.795,92.688-23.912l-.343,1.682L39.013-33.113Z" fill-rule="evenodd"/>
    <path id="Path_2225" data-name="Path 2225" d="M38.613-31.151,83.6-21.972l-.343,1.682L38.27-29.469Z" fill-rule="evenodd"/>
    <path id="Path_2226" data-name="Path 2226" d="M42.915-26.478l19.9,4.061-.343,1.682L42.572-24.8Z" fill-rule="evenodd"/>
    <path id="Path_2227" data-name="Path 2227" d="M34.462-60.173l19.9,4.061L54.02-54.43l-19.9-4.061Z" fill-rule="evenodd"/>
    <path id="Path_2228" data-name="Path 2228" d="M43.389-54.556l81.779,16.687-.343,1.682L43.046-52.874Z" fill-rule="evenodd"/>
    <path id="Path_2229" data-name="Path 2229" d="M42.645-50.912l79.042,16.129-.343,1.682L42.3-49.23Z" fill-rule="evenodd"/>
    <path id="Path_2230" data-name="Path 2230" d="M41.9-47.269l19.9,4.061-.343,1.682-19.9-4.061Z" fill-rule="evenodd"/>
    <path id="Path_2231" data-name="Path 2231" d="M2.483-111.628a1,1,0,0,1-.312-.05,1,1,0,0,1-.638-1.262l7.019-21.449a1,1,0,0,1,.951-.689,1,1,0,0,1,.95.689L17.47-112.94a1,1,0,0,1-.639,1.262,1,1,0,0,1-1.261-.639L9.5-130.862l-6.07,18.545a1,1,0,0,1-.95.689" fill="#ef3d31"/>
    <path id="Path_2232" data-name="Path 2232" d="M4.35-111.628H1a1,1,0,0,1-1-1,1,1,0,0,1,1-1H4.35a1,1,0,0,1,1,1,1,1,0,0,1-1,1" fill="#ef3d31"/>
    <path id="Path_2233" data-name="Path 2233" d="M18-111.628h-3.35a1,1,0,0,1-1-1,1,1,0,0,1,1-1H18a1,1,0,0,1,1,1,1,1,0,0,1-1,1" fill="#ef3d31"/>
    <path id="Path_2234" data-name="Path 2234" d="M13.985-118.245H5.01a1,1,0,0,1-1-1,1,1,0,0,1,1-1h8.975a1,1,0,0,1,1,1,1,1,0,0,1-1,1" fill="#ef3d31"/>
    <path id="Path_2235" data-name="Path 2235" d="M22.073-128.087c-.391.1-.831.209-1.326.319-1.1.243-1.869.417-2.289.531a2.154,2.154,0,0,0-.836.471.756.756,0,0,0-.246.656,1.121,1.121,0,0,0,.382.871,1.47,1.47,0,0,0,1.118.378,3.577,3.577,0,0,0,1.725-.416,2.552,2.552,0,0,0,1.074-.984,4.253,4.253,0,0,0,.4-1.826m-3.2,5.226a3.472,3.472,0,0,1-2.5-.931,3.091,3.091,0,0,1-1-2.318,2.724,2.724,0,0,1,.941-2.171,4.14,4.14,0,0,1,1.613-.886c.444-.119,1.242-.3,2.385-.554a19.571,19.571,0,0,0,2.427-.661,1,1,0,0,1,.922.113,1,1,0,0,1,.43.823v.589a7.313,7.313,0,0,1-.677,3.579,4.5,4.5,0,0,1-1.874,1.765,5.592,5.592,0,0,1-2.667.652" fill="#ef3d31"/>
    <path id="Path_2236" data-name="Path 2236" d="M23.19-122.956a1,1,0,0,1-1-1v-6.526a2.01,2.01,0,0,0-1.92-2.086h-.687a1.921,1.921,0,0,0-1.761,1.256,1,1,0,0,1-1.3.557,1,1,0,0,1-.558-1.3,3.913,3.913,0,0,1,3.619-2.513h.687a4.01,4.01,0,0,1,3.92,4.086v6.526a1,1,0,0,1-1,1" fill="#ef3d31"/>
    <path id="Path_2237" data-name="Path 2237" d="M171.241-169.64a1,1,0,0,1-.707-.293l-8.57-8.574a1,1,0,0,1,0-1.414l8.57-8.576a1,1,0,0,1,1.414,0,1,1,0,0,1,0,1.415l-7.863,7.869,7.863,7.867a1,1,0,0,1,0,1.414,1,1,0,0,1-.707.293"/>
    <path id="Path_2238" data-name="Path 2238" d="M177.991-169.639a.986.986,0,0,1-.377-.075,1,1,0,0,1-.549-1.3l7-17.151a1,1,0,0,1,1.3-.548,1,1,0,0,1,.547,1.3l-7,17.15a1,1,0,0,1-.926.623"/>
    <path id="Path_2239" data-name="Path 2239" d="M190.671-169.64a1,1,0,0,1-.707-.293,1,1,0,0,1,0-1.414l7.863-7.867-7.863-7.869a1,1,0,0,1,0-1.415,1,1,0,0,1,1.414,0l8.57,8.576a1,1,0,0,1,0,1.414l-8.57,8.574a1,1,0,0,1-.707.293"/>
    <path id="Path_2240" data-name="Path 2240" d="M36.357-199.141H39.69v-19.5H36.357Zm4.333,2H35.357a1,1,0,0,1-1-1v-21.5a1,1,0,0,1,1-1H40.69a1,1,0,0,1,1,1v21.5a1,1,0,0,1-1,1"/>
    <path id="Path_2241" data-name="Path 2241" d="M27.607-199.141H30.94v-7.168H27.607Zm4.333,2H26.607a1,1,0,0,1-1-1v-9.168a1,1,0,0,1,1-1H31.94a1,1,0,0,1,1,1v9.168a1,1,0,0,1-1,1" fill="#ef3d31"/>
    <path id="Path_2242" data-name="Path 2242" d="M18.857-199.141H22.19v-11.668H18.857Zm4.333,2H17.857a1,1,0,0,1-1-1v-13.668a1,1,0,0,1,1-1H23.19a1,1,0,0,1,1,1v13.668a1,1,0,0,1-1,1"/>
    <path id="Path_2243" data-name="Path 2243" d="M156.859-45.97h18.529V-60.3H156.859Zm19.529,2H155.859a1,1,0,0,1-1-1V-61.3a1,1,0,0,1,1-1h20.529a1,1,0,0,1,1,1V-44.97a1,1,0,0,1-1,1"/>
    <path id="Path_2244" data-name="Path 2244" d="M172.554-58.636a1,1,0,0,1-1-1v-3.333a1,1,0,0,1,1-1,1,1,0,0,1,1,1v3.333a1,1,0,0,1-1,1"/>
    <path id="Path_2245" data-name="Path 2245" d="M159.8-58.636a1,1,0,0,1-1-1v-3.333a1,1,0,0,1,1-1,1,1,0,0,1,1,1v3.333a1,1,0,0,1-1,1"/>
    <path id="Path_2246" data-name="Path 2246" d="M176.332-55.4H156a.5.5,0,0,1-.5-.5.5.5,0,0,1,.5-.5h20.332a.5.5,0,0,1,.5.5.5.5,0,0,1-.5.5"/>
    <path id="Path_2247" data-name="Path 2247" d="M158.6-51.431h1.939V-53.37H158.6Z" fill-rule="evenodd"/>
    <path id="Path_2248" data-name="Path 2248" d="M161.955-51.431h1.939V-53.37h-1.939Z" fill-rule="evenodd"/>
    <path id="Path_2249" data-name="Path 2249" d="M165.312-51.431h1.941V-53.37h-1.941Z" fill="#ee3d30" fill-rule="evenodd"/>
    <path id="Path_2250" data-name="Path 2250" d="M168.67-51.431h1.941V-53.37H168.67Z" fill-rule="evenodd"/>
    <path id="Path_2251" data-name="Path 2251" d="M172.029-51.431h1.939V-53.37h-1.939Z" fill-rule="evenodd"/>
    <path id="Path_2252" data-name="Path 2252" d="M158.6-48.314h1.939v-1.939H158.6Z" fill-rule="evenodd"/>
    <path id="Path_2253" data-name="Path 2253" d="M161.955-48.314h1.939v-1.939h-1.939Z" fill-rule="evenodd"/>
    <path id="Path_2254" data-name="Path 2254" d="M165.312-48.314h1.941v-1.939h-1.941Z" fill-rule="evenodd"/>
    <path id="Path_2255" data-name="Path 2255" d="M168.67-48.314h1.941v-1.939H168.67Z" fill-rule="evenodd"/>
    <path id="Path_2256" data-name="Path 2256" d="M172.029-48.314h1.939v-1.939h-1.939Z" fill-rule="evenodd"/>
  </g>
</svg>
