<svg xmlns="http://www.w3.org/2000/svg" width="243.786" height="141.587" viewBox="0 0 243.786 141.587">
  <g id="Group_290" data-name="Group 290" transform="translate(0 141.587)">
    <path id="Path_2139" data-name="Path 2139" d="M40.1-79.18l146.867-21.138,8.679,63.71L49.261-16.016Z" fill="#fff" fill-rule="evenodd"/>
    <path id="Path_2140" data-name="Path 2140" d="M38.369-95.846h9.879V-110.84H38.369Zm10.878,2H37.369a1,1,0,0,1-1-1V-111.84a1,1,0,0,1,1-1H49.247a1,1,0,0,1,1,1v16.994a1,1,0,0,1-1,1" fill="#1b1b1b"/>
    <path id="Path_2141" data-name="Path 2141" d="M43.345-94.623a.5.5,0,0,1-.5-.5v-16.439a.5.5,0,0,1,.5-.5.5.5,0,0,1,.5.5v16.439a.5.5,0,0,1-.5.5" fill="#1b1b1b"/>
    <path id="Path_2142" data-name="Path 2142" d="M49.324-105.788H37.367a.5.5,0,0,1-.5-.5.5.5,0,0,1,.5-.5H49.324a.5.5,0,0,1,.5.5.5.5,0,0,1-.5.5" fill="#1b1b1b"/>
    <path id="Path_2143" data-name="Path 2143" d="M49.324-100.1H37.367a.5.5,0,0,1-.5-.5.5.5,0,0,1,.5-.5H49.324a.5.5,0,0,1,.5.5.5.5,0,0,1-.5.5" fill="#1b1b1b"/>
    <path id="Path_2144" data-name="Path 2144" d="M34.539-102.7H30.83a1,1,0,0,1-1-1,1,1,0,0,1,1-1h3.709a1,1,0,0,1,1,1,1,1,0,0,1-1,1" fill="#ef3d31"/>
    <path id="Path_2145" data-name="Path 2145" d="M26.476-114.588a1,1,0,0,1-1-1v-2.177a1,1,0,0,1,1-1,1,1,0,0,1,1,1v2.177a1,1,0,0,1-1,1" fill="#ef3d31"/>
    <path id="Path_2146" data-name="Path 2146" d="M38.892-114.588a1,1,0,0,1-1-1v-2.177a1,1,0,0,1,1-1,1,1,0,0,1,1,1v2.177a1,1,0,0,1-1,1" fill="#ef3d31"/>
    <path id="Path_2147" data-name="Path 2147" d="M32.685-103.058a1,1,0,0,1-1-1V-117.12a1,1,0,0,1,1-1,1,1,0,0,1,1,1v13.062a1,1,0,0,1-1,1" fill="#ef3d31"/>
    <path id="Path_2148" data-name="Path 2148" d="M38.892-116.765H26.476a1,1,0,0,1-1-1,1,1,0,0,1,1-1H38.892a1,1,0,0,1,1,1,1,1,0,0,1-1,1" fill="#ef3d31"/>
    <path id="Path_2149" data-name="Path 2149" d="M186.619-100.318,40.1-79.486l9.024,63.47L195.643-36.848Z" fill="none" stroke="#000" stroke-linejoin="round" stroke-width="1"/>
    <path id="Path_2150" data-name="Path 2150" d="M187.468-101.449,38.966-80.335l9.306,65.45L196.774-36ZM194.513-37.7,49.97-17.146l-8.743-61.49L185.77-99.186Z" fill="#1b1b1b"/>
    <path id="Path_2151" data-name="Path 2151" d="M62.013-72.346,51.542-70.858l1.489,10.473L63.5-61.874Zm-.773,8.774-6.511.926L53.8-69.159l6.511-.926Z"/>
    <path id="Path_2152" data-name="Path 2152" d="M76.516-74.409,66.042-72.919l1.489,10.473L78-63.936Zm-.773,8.774-6.514.926L68.3-71.221l6.513-.926Z"/>
    <path id="Path_2153" data-name="Path 2153" d="M91.021-76.471,80.548-74.982l1.489,10.473L92.51-66ZM90.248-67.7l-6.513.926-.926-6.513,6.514-.926Z"/>
    <path id="Path_2154" data-name="Path 2154" d="M105.521-78.533,95.048-77.043l1.489,10.473L107.01-68.06Zm-.772,8.774-6.514.926-.926-6.513,6.514-.926Z"/>
    <path id="Path_2155" data-name="Path 2155" d="M120.021-80.594l-10.472,1.489,1.489,10.473,10.472-1.489Zm-.772,8.774-6.513.926-.926-6.513,6.513-.926Z"/>
    <path id="Path_2156" data-name="Path 2156" d="M134.526-82.656l-10.473,1.489,1.489,10.473,10.473-1.489Zm-.773,8.774-6.512.926-.926-6.513,6.512-.926Z"/>
    <path id="Path_2157" data-name="Path 2157" d="M149.027-84.718l-10.474,1.489,1.489,10.473,10.474-1.489Zm-.773,8.774-6.513.926-.926-6.513,6.513-.926Z"/>
    <path id="Path_2158" data-name="Path 2158" d="M163.527-86.78l-10.47,1.489,1.489,10.473,10.47-1.489Zm-.773,8.774-6.509.925-.926-6.512,6.509-.925Z"/>
    <path id="Path_2159" data-name="Path 2159" d="M178.032-88.842l-10.474,1.489,1.489,10.473,10.474-1.489Zm-.773,8.774-6.513.926-.926-6.513,6.514-.926Z"/>
    <path id="Path_2160" data-name="Path 2160" d="M64.068-57.889,53.6-56.4l1.489,10.474,10.471-1.489ZM63.3-49.114l-6.511.926L55.859-54.7l6.51-.926Z"/>
    <path id="Path_2161" data-name="Path 2161" d="M78.572-59.951,68.1-58.462l1.489,10.474,10.474-1.489ZM77.8-51.176l-6.514.926-.926-6.514,6.514-.926Z"/>
    <path id="Path_2162" data-name="Path 2162" d="M93.077-62.013,82.6-60.524,84.092-50.05,94.566-51.54ZM92.3-53.238l-6.513.926-.926-6.514,6.513-.926Z"/>
    <path id="Path_2163" data-name="Path 2163" d="M107.577-64.075,97.1-62.586l1.489,10.474L109.066-53.6ZM106.8-55.3l-6.513.926-.926-6.514,6.513-.926Z"/>
    <path id="Path_2164" data-name="Path 2164" d="M122.077-66.137,111.6-64.648l1.49,10.474,10.472-1.489Zm-.772,8.775-6.513.926-.926-6.514,6.513-.926Z"/>
    <path id="Path_2165" data-name="Path 2165" d="M136.581-68.2,126.109-66.71,127.6-56.236l10.472-1.489Zm-.772,8.775L129.3-58.5l-.926-6.514,6.513-.926Z"/>
    <path id="Path_2166" data-name="Path 2166" d="M151.082-70.26l-10.473,1.489L142.1-58.3l10.474-1.489Zm-.772,8.775-6.514.926-.926-6.514L149.384-68Z"/>
    <path id="Path_2167" data-name="Path 2167" d="M165.583-72.322l-10.47,1.488L156.6-60.36l10.47-1.489Zm-.773,8.775-6.509.926-.927-6.514,6.51-.925Z"/>
    <path id="Path_2168" data-name="Path 2168" d="M180.088-74.384,169.614-72.9,171.1-62.422l10.474-1.489Zm-.773,8.775-6.513.926-.926-6.514,6.513-.926Z"/>
    <path id="Path_2169" data-name="Path 2169" d="M66.125-43.426,55.654-41.938l1.489,10.474,10.471-1.489Zm-.772,8.775-6.511.926-.926-6.514,6.511-.926Z"/>
    <path id="Path_2170" data-name="Path 2170" d="M138.638-53.737,70.154-44l1.489,10.474,68.483-9.737Zm-1.7,2.262.926,6.514L73.342-35.788,72.416-42.3Z"/>
    <path id="Path_2171" data-name="Path 2171" d="M153.139-55.8l-10.474,1.489,1.489,10.474,10.474-1.489Zm-.773,8.775-6.513.926-.926-6.513,6.513-.926Z"/>
    <path id="Path_2172" data-name="Path 2172" d="M167.639-57.86l-10.47,1.489L158.658-45.9l10.47-1.489Zm-.773,8.775-6.509.925-.926-6.513,6.509-.926Z"/>
    <path id="Path_2173" data-name="Path 2173" d="M182.144-59.922,171.67-58.433l1.489,10.474,10.474-1.489Zm-.773,8.775-6.513.926-.926-6.514,6.513-.926Z"/>
    <path id="Path_2174" data-name="Path 2174" d="M2-22.479H27.626V-48.106H2Zm26.626,2H1a1,1,0,0,1-1-1V-49.1a1,1,0,0,1,1-1H28.626a1,1,0,0,1,1,1v27.626a1,1,0,0,1-1,1" fill="#1b1b1b"/>
    <path id="Path_2175" data-name="Path 2175" d="M93.1-103.733h20.251v-20.252H93.1Zm21.251,2H92.1a1,1,0,0,1-1-1v-22.252a1,1,0,0,1,1-1h22.251a1,1,0,0,1,1,1v22.252a1,1,0,0,1-1,1" fill="#1b1b1b"/>
    <path id="Path_2176" data-name="Path 2176" d="M88.12-4h61.5V-6H88.12Z" fill="#1b1b1b" fill-rule="evenodd"/>
    <path id="Path_2177" data-name="Path 2177" d="M120.12-5.25A4.25,4.25,0,0,1,115.87-1a4.25,4.25,0,0,1-4.25-4.25,4.25,4.25,0,0,1,4.25-4.25,4.25,4.25,0,0,1,4.25,4.25" fill="#ef3d31"/>
    <path id="Path_2178" data-name="Path 2178" d="M115.87-8.5a3.254,3.254,0,0,0-3.25,3.25A3.254,3.254,0,0,0,115.87-2a3.254,3.254,0,0,0,3.25-3.25,3.254,3.254,0,0,0-3.25-3.25m0,8.5a5.256,5.256,0,0,1-5.25-5.25,5.256,5.256,0,0,1,5.25-5.25,5.256,5.256,0,0,1,5.25,5.25A5.256,5.256,0,0,1,115.87,0" fill="#ef3d31"/>
    <path id="Path_2179" data-name="Path 2179" d="M6.857-35.381l2.4,8.14,3.122-.919L9.977-36.3ZM8.578-25a1,1,0,0,1-.959-.717L4.656-35.774a1,1,0,0,1,.676-1.242L10.371-38.5a1,1,0,0,1,.761.08,1,1,0,0,1,.481.6l2.963,10.061a1,1,0,0,1-.676,1.241L8.859-25.041A.985.985,0,0,1,8.578-25" fill="#ef3d31"/>
    <path id="Path_2180" data-name="Path 2180" d="M14.344-31.4c.384,0,.827.02,1.338.065l1.3.112c.911.077,1.709.145,2.227.212a3.6,3.6,0,0,0,.441.03,1.367,1.367,0,0,0,.7-.128.582.582,0,0,1,.015-.168,1,1,0,0,1,.659-.828.641.641,0,0,0,.437-.56.534.534,0,0,0-.009-.15,1,1,0,0,1,.48-1.034.612.612,0,0,0,.311-.494.583.583,0,0,0-.052-.287,1,1,0,0,1,.244-1.145.912.912,0,0,0,.312-.684.935.935,0,0,0-.933-.934l-.367,0c-3.743,0-4.41-.685-4.662-.943a1.378,1.378,0,0,1-.4-1c0-.259.015-.564.042-.905l.065-.477c.029-.192.057-.376.072-.546a3.534,3.534,0,0,0-.387-2.332c-.046.006-.095.014-.142.022a9.442,9.442,0,0,1-.309,3.159,1.066,1.066,0,0,1-.077.184,20.37,20.37,0,0,1-3.566,4.188l1.377,4.672q.412-.036.881-.036m5.306,2.419a5.9,5.9,0,0,1-.69-.045c-.506-.066-1.272-.13-2.146-.2l-1.31-.112a8.3,8.3,0,0,0-2.519.069,1,1,0,0,1-1.194-.69L9.985-36.1a1,1,0,0,1,.336-1.065A19.528,19.528,0,0,0,13.845-41.1a8.148,8.148,0,0,0,.172-2.667,1.431,1.431,0,0,1,.359-1.125A2.835,2.835,0,0,1,16.3-45.6a1.814,1.814,0,0,1,1.323.628,5.191,5.191,0,0,1,.934,3.88c-.019.212-.051.438-.086.673l-.055.391c-.009.115-.016.234-.021.353a12.046,12.046,0,0,0,3.054.285l.342,0h0a2.941,2.941,0,0,1,2.957,2.933,2.869,2.869,0,0,1-.532,1.675,2.49,2.49,0,0,1,.025.559,2.577,2.577,0,0,1-.785,1.713,2.6,2.6,0,0,1-1.224,2.031c-.014.043-.029.085-.044.126-.194.517-.778,1.374-2.542,1.374" fill="#ef3d31"/>
    <path id="Path_2181" data-name="Path 2181" d="M101.624-116.352v4.987l4.318-2.493Zm-.6,7.4a1.428,1.428,0,0,1-1.4-1.513v-6.785a1.43,1.43,0,0,1,1.4-1.515,1.635,1.635,0,0,1,.822.234l5.874,3.391a1.478,1.478,0,0,1,.8,1.28,1.484,1.484,0,0,1-.8,1.285l-5.875,3.392a1.638,1.638,0,0,1-.821.231" fill="#ef3d31"/>
    <path id="Path_2182" data-name="Path 2182" d="M203.248-117.509h9.113v-2h-9.113Z" fill="#f53c37" fill-rule="evenodd"/>
    <path id="Path_2183" data-name="Path 2183" d="M197.816-117.385h2.25v-2.25h-2.25Z" fill="#f53c37" fill-rule="evenodd"/>
    <path id="Path_2184" data-name="Path 2184" d="M203.248-111.434h9.113v-2h-9.113Z" fill="#f53c37" fill-rule="evenodd"/>
    <path id="Path_2185" data-name="Path 2185" d="M197.816-111.309h2.25v-2.25h-2.25Z" fill="#f53c37" fill-rule="evenodd"/>
    <path id="Path_2186" data-name="Path 2186" d="M203.248-105.357h9.113v-2h-9.113Z" fill="#f53c37" fill-rule="evenodd"/>
    <path id="Path_2187" data-name="Path 2187" d="M197.816-105.232h2.25v-2.25h-2.25Z" fill="#f53c37" fill-rule="evenodd"/>
    <path id="Path_2188" data-name="Path 2188" d="M224.409-69.52a17.394,17.394,0,0,0-17.375,17.374,17.394,17.394,0,0,0,17.375,17.375,17.4,17.4,0,0,0,17.376-17.375A17.4,17.4,0,0,0,224.409-69.52m0,36.749a19.4,19.4,0,0,1-19.375-19.375A19.4,19.4,0,0,1,224.409-71.52a19.4,19.4,0,0,1,19.376,19.374,19.4,19.4,0,0,1-19.376,19.375" fill="#1b1b1b"/>
    <path id="Path_2189" data-name="Path 2189" d="M224.409-69.52c-5.22,0-9.63,7.956-9.63,17.374s4.41,17.375,9.63,17.375,9.626-7.957,9.626-17.375-4.408-17.374-9.626-17.374m0,36.749c-6.521,0-11.63-8.511-11.63-19.375s5.109-19.374,11.63-19.374,11.626,8.51,11.626,19.374-5.106,19.375-11.626,19.375" fill="#1b1b1b"/>
    <path id="Path_2190" data-name="Path 2190" d="M225.409-69.492V-34.8a17.4,17.4,0,0,0,16.376-17.346,17.4,17.4,0,0,0-16.376-17.346m-1,36.721a1,1,0,0,1-1-1V-70.52a1,1,0,0,1,1-1,19.4,19.4,0,0,1,19.376,19.374,19.4,19.4,0,0,1-19.376,19.375" fill="#1b1b1b"/>
    <path id="Path_2191" data-name="Path 2191" d="M207.935-46.668h32.948a17.207,17.207,0,0,0,.9-5.479,17.227,17.227,0,0,0-.9-5.477H207.938a17.189,17.189,0,0,0-.9,5.477,17.25,17.25,0,0,0,.9,5.479m33.653,2H207.229a1,1,0,0,1-.936-.647,19.347,19.347,0,0,1-1.258-6.832,19.276,19.276,0,0,1,1.262-6.831,1,1,0,0,1,.936-.646h34.355a1,1,0,0,1,.936.647,19.3,19.3,0,0,1,1.262,6.83,19.289,19.289,0,0,1-1.262,6.833,1,1,0,0,1-.936.646" fill="#1b1b1b"/>
    <path id="Path_2192" data-name="Path 2192" d="M160.788-134.254v1a1.916,1.916,0,0,0-1.908,1.892,1.894,1.894,0,0,0,.545,1.354,1.893,1.893,0,0,0,1.343.572,1.918,1.918,0,0,0,1.929-1.888,1.912,1.912,0,0,0-1.889-1.93Zm0,6.818a3.9,3.9,0,0,1-2.794-1.172,3.891,3.891,0,0,1-1.115-2.776,3.922,3.922,0,0,1,3.908-3.87h.041A3.915,3.915,0,0,1,164.7-131.3a3.918,3.918,0,0,1-3.908,3.869M160-123.121l1.411.014.011-1.031a1.885,1.885,0,0,1,1.268-1.725l.581-.238a1.731,1.731,0,0,1,.718-.145,1.872,1.872,0,0,1,1.331.538l.725.74,1.007-.99-.721-.735a1.885,1.885,0,0,1-.321-2.122l.245-.581a1.857,1.857,0,0,1,1.712-1.17l1.045.011.015-1.411-1.03-.011a1.874,1.874,0,0,1-1.731-1.282l-.233-.57a1.858,1.858,0,0,1,.389-2.049l.738-.722-.986-1.01-.739.722a1.935,1.935,0,0,1-2.118.321l-.576-.242a1.859,1.859,0,0,1-1.172-1.729l.011-1.03-1.411-.015-.012,1.03a1.882,1.882,0,0,1-1.272,1.729l-.583.236a1.737,1.737,0,0,1-.717.145,1.873,1.873,0,0,1-1.332-.539l-.721-.737-1.009.988.721.735a1.9,1.9,0,0,1,.327,2.116l-.245.583a1.868,1.868,0,0,1-1.713,1.172l-1.049-.011-.013,1.412,1.029.011a1.884,1.884,0,0,1,1.729,1.268l.237.589a1.87,1.87,0,0,1-.392,2.045l-.741.724.988,1.009.734-.721a1.937,1.937,0,0,1,2.118-.328l.586.248a1.862,1.862,0,0,1,1.172,1.726Zm1.8,2.018-2.226-.022a1.584,1.584,0,0,1-1.125-.48,1.587,1.587,0,0,1-.458-1.14l.014-1.316-.553-.233-.939.922a1.651,1.651,0,0,1-2.266-.023l-1.546-1.577a1.607,1.607,0,0,1,.023-2.266l.944-.922-.223-.554-1.318-.014a1.6,1.6,0,0,1-1.585-1.621l.021-2.2a1.611,1.611,0,0,1,1.6-1.588l1.336.014.231-.549-.923-.94a1.593,1.593,0,0,1-.456-1.142,1.584,1.584,0,0,1,.483-1.126l1.575-1.544a1.654,1.654,0,0,1,2.264.023l.929.95.548-.231.016-1.317a1.6,1.6,0,0,1,1.6-1.585l2.225.022a1.589,1.589,0,0,1,1.129.483,1.591,1.591,0,0,1,.459,1.139l-.014,1.316.548.229.941-.919a1.649,1.649,0,0,1,2.264.02l1.545,1.584a1.578,1.578,0,0,1,.457,1.128,1.591,1.591,0,0,1-.482,1.136l-.939.919.226.554,1.314.014a1.607,1.607,0,0,1,1.587,1.614l-.023,2.211a1.609,1.609,0,0,1-1.6,1.586l-1.335-.014-.233.553.92.939a1.578,1.578,0,0,1,.458,1.134,1.589,1.589,0,0,1-.486,1.134l-1.568,1.542a1.648,1.648,0,0,1-2.268-.018l-.932-.954-.542.23-.015,1.316a1.6,1.6,0,0,1-1.6,1.586" fill="#ef3d31"/>
  </g>
</svg>
