<svg xmlns="http://www.w3.org/2000/svg" width="124.496" height="149.058" viewBox="0 0 124.496 149.058">
  <g id="Group_288" data-name="Group 288" transform="translate(-0.238 149.296)">
    <path id="Path_2091" data-name="Path 2091" d="M80.507-26.326l43.649-66.823-5.545-26.434-44.6-29.136L19.913-65.906Z" fill="#fff"/>
    <path id="Path_2092" data-name="Path 2092" d="M20.714-66.074,80.339-27.126l43.2-66.138-5.447-25.965L74.175-147.917ZM80.19-25.841,19.6-65.422a.578.578,0,0,1-.168-.8l54.094-82.812a.578.578,0,0,1,.8-.168l44.6,29.136a.578.578,0,0,1,.25.365l5.545,26.434a.576.576,0,0,1-.082.435L80.991-26.009a.578.578,0,0,1-.8.168"/>
    <path id="Path_2093" data-name="Path 2093" d="M108.167-103.593l15.989,10.445-5.545-26.434Z" fill="#ef3d31"/>
    <path id="Path_2094" data-name="Path 2094" d="M108.967-103.761,123.3-94.4l-4.971-23.7Zm14.873,11.1-15.99-10.445a.577.577,0,0,1-.168-.8L118.127-119.9a.575.575,0,0,1,.59-.252.577.577,0,0,1,.46.449l5.545,26.434a.577.577,0,0,1-.24.6.577.577,0,0,1-.642.007"/>
    <path id="Path_2095" data-name="Path 2095" d="M68.322-97.42,85.653-86.1l-.633.968L67.689-96.452Z" fill-rule="evenodd"/>
    <path id="Path_2096" data-name="Path 2096" d="M66.779-95.058,91.4-78.977l-.633.968L66.146-94.09Z" fill-rule="evenodd"/>
    <path id="Path_2097" data-name="Path 2097" d="M65.235-92.694l19.5,12.736-.633.969L64.6-91.726Z" fill-rule="evenodd"/>
    <path id="Path_2098" data-name="Path 2098" d="M99.512-22.223v-95.869l-22.94-22.94H12.579V-22.223Z" fill="#fff"/>
    <path id="Path_2099" data-name="Path 2099" d="M13.274-22.917H98.817v-94.888L76.284-140.337H13.274Zm86.238,1.389H12.579a.694.694,0,0,1-.695-.695V-141.032a.694.694,0,0,1,.695-.7H76.571a.7.7,0,0,1,.491.2L100-118.583a.693.693,0,0,1,.2.491v95.869a.694.694,0,0,1-.694.695"/>
    <path id="Path_2100" data-name="Path 2100" d="M76.572-118.092h22.94l-22.94-22.94Z" fill="#ef3d31"/>
    <path id="Path_2101" data-name="Path 2101" d="M77.266-118.787H97.834L77.266-139.355ZM99.512-117.4H76.572a.694.694,0,0,1-.695-.694v-22.94a.693.693,0,0,1,.429-.641.693.693,0,0,1,.757.15L100-118.584a.693.693,0,0,1,.15.758.692.692,0,0,1-.641.428"/>
    <path id="Path_2102" data-name="Path 2102" d="M40.558-84.323H65.423v-1.389H40.558Z" fill-rule="evenodd"/>
    <path id="Path_2103" data-name="Path 2103" d="M40.558-80.934H75.877v-1.389H40.558Z" fill-rule="evenodd"/>
    <path id="Path_2104" data-name="Path 2104" d="M40.558-77.542H68.53v-1.39H40.558Z" fill-rule="evenodd"/>
    <path id="Path_2105" data-name="Path 2105" d="M9.018-2.956,42.7-61.3a2.162,2.162,0,0,0-2.508.686L7.434-3.871Z" fill="#ef3d31"/>
    <path id="Path_2106" data-name="Path 2106" d="M8.78-3.845l32.87-56.932a1.476,1.476,0,0,0-.914.528L8.323-4.109ZM43.027-61.862a.649.649,0,0,1,.288.348.652.652,0,0,1-.05.541L9.581-2.631a.65.65,0,0,1-.889.238L7.109-3.307A.651.651,0,0,1,6.87-4.2L39.63-60.938a.672.672,0,0,1,.045-.068,2.824,2.824,0,0,1,3.262-.9.622.622,0,0,1,.09.043"/>
    <path id="Path_2107" data-name="Path 2107" d="M3.665-6.047,7.434-3.871l32.76-56.741h0a.178.178,0,0,0,.007-.023l-.014.021a2.171,2.171,0,0,0-.939-2.71,2.168,2.168,0,0,0-2.815.543c0-.007.008-.017.01-.024a.121.121,0,0,0-.016.019l0,0Z" fill="#ef3d31"/>
    <path id="Path_2108" data-name="Path 2108" d="M39.58-60.85l.007-.017a1.52,1.52,0,0,0-.665-1.894,1.519,1.519,0,0,0-1.971.372l-.021.026L4.554-6.285,7.2-4.76Zm-.008-3.038h0a2.828,2.828,0,0,1,1.258,3.415.559.559,0,0,1-.017.056,1.027,1.027,0,0,1-.056.13L8-3.545a.649.649,0,0,1-.4.3.651.651,0,0,1-.494-.065L3.34-5.483A.65.65,0,0,1,3.1-6.372l32.76-56.741A.651.651,0,0,1,36-63.278a2.826,2.826,0,0,1,3.575-.61"/>
    <path id="Path_2109" data-name="Path 2109" d="M36.425-62.789a2.16,2.16,0,0,0-.658-2.515L2.082-6.961l1.583.914Z" fill="#ef3d31"/>
    <path id="Path_2110" data-name="Path 2110" d="M35.839-63.075a1.472,1.472,0,0,0,0-1.056L2.971-7.2l.456.263Zm.252-2.791a.629.629,0,0,1,.082.056,2.817,2.817,0,0,1,.851,3.275.677.677,0,0,1-.036.073L4.228-5.721a.65.65,0,0,1-.889.238L1.757-6.4a.65.65,0,0,1-.238-.889L35.2-65.628a.648.648,0,0,1,.444-.314.654.654,0,0,1,.445.076"/>
    <path id="Path_2111" data-name="Path 2111" d="M35.763-65.307a2.159,2.159,0,0,1,.662,2.518l0,0a.128.128,0,0,1,.016-.019c0,.006-.008.016-.01.024a2.168,2.168,0,0,1,2.815-.543,2.171,2.171,0,0,1,.939,2.71l.014-.021c0,.006,0,.016-.007.024h0a2.16,2.16,0,0,1,2.513-.685l-.981-6.321Z" fill="#fff"/>
    <path id="Path_2112" data-name="Path 2112" d="M41.923-62.1l-.717-4.62L36.848-65.03a2.831,2.831,0,0,1,.343.922,2.856,2.856,0,0,1,2.38.22,2.862,2.862,0,0,1,1.383,1.952,2.847,2.847,0,0,1,.969-.163m.127-6.082a.648.648,0,0,1,.318.464l.981,6.32a.649.649,0,0,1-.236.608.652.652,0,0,1-.645.1,1.512,1.512,0,0,0-1.757.473.651.651,0,0,1-.81.188.668.668,0,0,1-.306-.323.626.626,0,0,1-.01-.514,1.521,1.521,0,0,0-.666-1.894,1.519,1.519,0,0,0-1.97.373.651.651,0,0,1-.8.192.648.648,0,0,1-.137-.089c-.013-.011-.025-.022-.037-.034a.654.654,0,0,1-.148-.721,1.509,1.509,0,0,0-.468-1.756.652.652,0,0,1-.237-.607.65.65,0,0,1,.408-.508l5.963-2.311a.649.649,0,0,1,.56.043"/>
    <path id="Path_2113" data-name="Path 2113" d="M41.394-65.513l-.187-1.207-1.138.441a7.716,7.716,0,0,0,1.326.765m.657-2.669a.652.652,0,0,1,.318.464l.482,3.1a.651.651,0,0,1-.216.59.65.65,0,0,1-.615.133,9.206,9.206,0,0,1-3.668-2.118.65.65,0,0,1-.192-.6.649.649,0,0,1,.4-.482l2.927-1.135a.653.653,0,0,1,.56.043"/>
    <path id="Path_2114" data-name="Path 2114" d="M8.114-2.693,2.305-6.046l-.528.915L7.586-1.778ZM2.393-7.5l6.935,4a.65.65,0,0,1,.238.889L8.388-.563A.65.65,0,0,1,7.5-.325l-6.935-4a.65.65,0,0,1-.238-.889L1.5-7.26A.65.65,0,0,1,2.393-7.5"/>
  </g>
</svg>
