<svg xmlns="http://www.w3.org/2000/svg" width="820.881" height="486.272" viewBox="0 0 820.881 486.272">
  <g id="Group_284" data-name="Group 284" transform="translate(0 517.693)">
    <path id="Path_1977" data-name="Path 1977" d="M476.321-36.363c79.213,0,143.522,7.652,143.522,17.078S555.534-2.207,476.321-2.207,332.8-9.859,332.8-19.285,397.11-36.363,476.321-36.363Z" transform="translate(-20.16 -29.214)" fill-rule="evenodd"/>
    <path id="Path_1978" data-name="Path 1978" d="M544.581-51.729c-21.034-1.763-45.673-2.78-72.02-2.78s-50.984,1.016-72.018,2.78H332.8v19.561c0,10.75,62.575,19.467,139.761,19.467s139.764-8.717,139.764-19.467V-51.729Z" transform="translate(-20.16 -28.112)" stroke="#fff" stroke-linejoin="round" stroke-width="2.328"/>
    <path id="Path_1979" data-name="Path 1979" d="M612.324-52.807c0,10.752-62.574,19.465-139.764,19.465S332.8-42.056,332.8-52.807,395.374-72.273,472.56-72.273,612.324-63.557,612.324-52.807Z" transform="translate(-20.16 -27.034)" fill="#fff" stroke="#000" stroke-linejoin="round" stroke-width="2.328"/>
    <path id="Path_1980" data-name="Path 1980" d="M520.753-59.859H437.128A10.351,10.351,0,0,1,427.091-72.8c12.1-46.215,10.859-92.233-3.738-138.486H528.469c15.166,48.054,15.918,95.855,2.264,143.883A10.378,10.378,0,0,1,520.753-59.859Z" transform="translate(-25.656 -18.597)" fill="#fff" stroke="#000" stroke-linejoin="round" stroke-width="2.328"/>
    <path id="Path_1981" data-name="Path 1981" d="M532.587-196.949a190.9,190.9,0,0,0-22.477-1.716c-30.613-.657-63.428-1.034-83.422-1.224a250.035,250.035,0,0,1,8.454,51.616l105.343,21.787A245.261,245.261,0,0,0,532.587-196.949Z" transform="translate(-25.858 -19.289)"/>
    <path id="Path_1982" data-name="Path 1982" d="M721.3-511.806H240.842a13.574,13.574,0,0,0-13.534,13.534v300.215a13.571,13.571,0,0,0,13.534,13.532H721.3a13.571,13.571,0,0,0,13.533-13.532V-498.272A13.574,13.574,0,0,0,721.3-511.806Z" transform="translate(-13.757 -0.357)" fill="#311d69"/>
    <path id="Path_1983" data-name="Path 1983" d="M728.94-198.711a8.306,8.306,0,0,1-8.3,8.3H240.779a8.307,8.307,0,0,1-8.3-8.3V-498.333a8.308,8.308,0,0,1,8.3-8.3H720.643a8.306,8.306,0,0,1,8.3,8.3Zm-8.3-318.982H240.779a19.381,19.381,0,0,0-19.36,19.36v299.622a19.382,19.382,0,0,0,19.36,19.362H720.643A19.384,19.384,0,0,0,740-198.711V-498.333A19.383,19.383,0,0,0,720.643-517.693Z" transform="translate(-13.4)"/>
    <path id="Path_1984" data-name="Path 1984" d="M721.358-505.917H241.494a8.307,8.307,0,0,0-8.3,8.3V-198a8.307,8.307,0,0,0,8.3,8.3H721.358a8.306,8.306,0,0,0,8.3-8.3V-497.62A8.306,8.306,0,0,0,721.358-505.917Z" transform="translate(-14.115 -0.715)" fill="#fff"/>
    <path id="Path_1985" data-name="Path 1985" d="M242.121-190.854V-490.479a8.308,8.308,0,0,1,8.3-8.3H729.565a8.306,8.306,0,0,0-8.207-7.141H241.494a8.307,8.307,0,0,0-8.3,8.3V-198a8.307,8.307,0,0,0,8.3,8.3h.72A8.234,8.234,0,0,1,242.121-190.854Z" transform="translate(-14.115 -0.715)" fill="#f53c37"/>
    <path id="Path_1986" data-name="Path 1986" d="M365.619-464.335H843.033V-493.99H365.619Z" transform="translate(-22.152 -1.439)" fill="#f53c37" fill-rule="evenodd"/>
    <path id="Path_1987" data-name="Path 1987" d="M350.914-423.57H566.058v-22.844H350.914Z" transform="translate(-21.259 -4.326)" fill="#fff" stroke="#f53c37" stroke-linecap="round" stroke-linejoin="round" stroke-width="1.3" fill-rule="evenodd"/>
    <path id="Path_1988" data-name="Path 1988" d="M283.694-185.407H498.838v-43.014H283.694Z" transform="translate(-17.179 -17.557)" fill="#fff" stroke="#f53c37" stroke-linecap="round" stroke-linejoin="round" stroke-width="1.3" fill-rule="evenodd"/>
    <path id="Path_1989" data-name="Path 1989" d="M334.214-240.649H549.358v-96.382H334.214Z" transform="translate(-20.246 -10.965)" fill="none" stroke="#f53c37" stroke-linecap="round" stroke-linejoin="round" stroke-width="1.3"/>
    <path id="Path_1990" data-name="Path 1990" d="M585.615-372.3h79.608v-74.109H585.615Z" transform="translate(-35.504 -4.326)" fill="#fff" stroke="#f53c37" stroke-linecap="round" stroke-linejoin="round" stroke-width="1.3" fill-rule="evenodd"/>
    <path id="Path_1991" data-name="Path 1991" d="M801.1-239.6H849.14v-40.877H801.1Z" transform="translate(-48.583 -14.398)" fill="#fff" stroke="#f53c37" stroke-linecap="round" stroke-linejoin="round" stroke-width="1.3" fill-rule="evenodd"/>
    <path id="Path_1992" data-name="Path 1992" d="M663.355-287.407h79.608v-74.109H663.355Z" transform="translate(-40.223 -9.479)" fill="#f53c37" stroke="#f53c37" stroke-linecap="round" stroke-linejoin="round" stroke-width="1.3" fill-rule="evenodd"/>
    <path id="Path_1993" data-name="Path 1993" d="M801.1-290.07H849.14V-334.79H801.1Z" transform="translate(-48.583 -11.101)" fill="#f53c37" fill-rule="evenodd"/>
    <path id="Path_1994" data-name="Path 1994" d="M627.991-201.509H707.6v-74.109H627.991Z" transform="translate(-38.076 -14.692)" fill="#fff" stroke="#f53c37" stroke-linecap="round" stroke-linejoin="round" stroke-width="1.3" fill-rule="evenodd"/>
    <path id="Path_1995" data-name="Path 1995" d="M409.287-472.44H577.122v-12.325H409.287Z" transform="translate(-24.802 -1.999)" fill="#fff" fill-rule="evenodd"/>
    <path id="Path_1996" data-name="Path 1996" d="M623.571-476.343h17.87v-3.98h-17.87Z" transform="translate(-37.808 -2.268)" fill="#fff" fill-rule="evenodd"/>
    <path id="Path_1997" data-name="Path 1997" d="M293.738-427.184h17.87v-3.98h-17.87Z" transform="translate(-17.789 -5.252)" fill-rule="evenodd"/>
    <path id="Path_1998" data-name="Path 1998" d="M827.4-427.184h17.87v-3.98H827.4Z" transform="translate(-50.179 -5.252)" fill-rule="evenodd"/>
    <path id="Path_1999" data-name="Path 1999" d="M827.4-400.649h17.87v-3.98H827.4Z" transform="translate(-50.179 -6.862)" fill-rule="evenodd"/>
    <path id="Path_2000" data-name="Path 2000" d="M827.4-374.114h17.87v-3.98H827.4Z" transform="translate(-50.179 -8.473)" fill-rule="evenodd"/>
    <path id="Path_2001" data-name="Path 2001" d="M827.4-347.579h17.87v-3.98H827.4Z" transform="translate(-50.179 -10.083)" fill-rule="evenodd"/>
    <path id="Path_2002" data-name="Path 2002" d="M366.545-319.729h32.772v-3.98H366.545Z" transform="translate(-22.208 -11.774)" fill-rule="evenodd"/>
    <path id="Path_2003" data-name="Path 2003" d="M316.025-210.221H348.8v-3.98H316.025Z" transform="translate(-19.142 -18.42)" fill-rule="evenodd"/>
    <path id="Path_2004" data-name="Path 2004" d="M366.545-312.186h17.87v-2.08h-17.87Z" transform="translate(-22.208 -12.347)" fill-rule="evenodd"/>
    <path id="Path_2005" data-name="Path 2005" d="M316.025-202.679H333.9v-2.08h-17.87Z" transform="translate(-19.142 -18.993)" fill-rule="evenodd"/>
    <path id="Path_2006" data-name="Path 2006" d="M382.32-430.953H541.1v-6.08H382.32Z" transform="translate(-23.165 -4.896)" fill-rule="evenodd"/>
    <path id="Path_2007" data-name="Path 2007" d="M365.619-292.528H524.4v-6.08H365.619Z" transform="translate(-22.152 -13.297)" fill-rule="evenodd"/>
    <path id="Path_2008" data-name="Path 2008" d="M315.1-189.021H473.877v-6.08H315.1Z" transform="translate(-19.086 -19.579)" fill-rule="evenodd"/>
    <path id="Path_2009" data-name="Path 2009" d="M365.619-279.933H489.075v-6.08H365.619Z" transform="translate(-22.152 -14.062)" fill-rule="evenodd"/>
    <path id="Path_2010" data-name="Path 2010" d="M365.619-266.122H489.075v-6.08H365.619Z" transform="translate(-22.152 -14.9)" fill-rule="evenodd"/>
    <path id="Path_2011" data-name="Path 2011" d="M365.619-252.311H489.075v-6.08H365.619Z" transform="translate(-22.152 -15.738)" fill-rule="evenodd"/>
    <path id="Path_2012" data-name="Path 2012" d="M293.738-399.478h17.87v-3.98h-17.87Z" transform="translate(-17.789 -6.933)" fill-rule="evenodd"/>
    <path id="Path_2013" data-name="Path 2013" d="M293.738-371.773h17.87v-3.98h-17.87Z" transform="translate(-17.789 -8.615)" fill-rule="evenodd"/>
    <path id="Path_2014" data-name="Path 2014" d="M293.738-344.067h17.87v-3.98h-17.87Z" transform="translate(-17.789 -10.296)" fill-rule="evenodd"/>
    <path id="Path_2015" data-name="Path 2015" d="M293.738-316.362h17.87v-3.98h-17.87Z" transform="translate(-17.789 -11.978)" fill-rule="evenodd"/>
    <path id="Path_2016" data-name="Path 2016" d="M293.738-288.656h17.87v-3.98h-17.87Z" transform="translate(-17.789 -13.66)" fill-rule="evenodd"/>
    <path id="Path_2017" data-name="Path 2017" d="M673.156-476.343h17.87v-3.98h-17.87Z" transform="translate(-40.817 -2.268)" fill="#fff" fill-rule="evenodd"/>
    <path id="Path_2018" data-name="Path 2018" d="M722.741-476.343h17.87v-3.98h-17.87Z" transform="translate(-43.827 -2.268)" fill="#fff" fill-rule="evenodd"/>
    <path id="Path_2019" data-name="Path 2019" d="M772.326-476.343H790.2v-3.98h-17.87Z" transform="translate(-46.836 -2.268)" fill="#fff" fill-rule="evenodd"/>
    <path id="Path_2020" data-name="Path 2020" d="M609.192-485.477a6.5,6.5,0,0,1,6.5,6.5,6.5,6.5,0,0,1-6.5,6.5,6.5,6.5,0,0,1-6.5-6.5A6.5,6.5,0,0,1,609.192-485.477Z" transform="translate(-36.541 -1.955)" fill="#fff" fill-rule="evenodd"/>
    <path id="Path_2021" data-name="Path 2021" d="M279.359-436.318a6.5,6.5,0,0,1,6.5,6.5,6.5,6.5,0,0,1-6.5,6.5,6.5,6.5,0,0,1-6.5-6.5A6.5,6.5,0,0,1,279.359-436.318Z" transform="translate(-16.522 -4.939)" fill-rule="evenodd"/>
    <path id="Path_2022" data-name="Path 2022" d="M813.022-436.318a6.5,6.5,0,0,1,6.5,6.5,6.5,6.5,0,0,1-6.5,6.5,6.5,6.5,0,0,1-6.5-6.5A6.5,6.5,0,0,1,813.022-436.318Z" transform="translate(-48.912 -4.939)" fill-rule="evenodd"/>
    <path id="Path_2023" data-name="Path 2023" d="M813.022-409.784a6.5,6.5,0,0,1,6.5,6.5,6.5,6.5,0,0,1-6.5,6.5,6.5,6.5,0,0,1-6.5-6.5A6.5,6.5,0,0,1,813.022-409.784Z" transform="translate(-48.912 -6.549)" fill-rule="evenodd"/>
    <path id="Path_2024" data-name="Path 2024" d="M813.022-383.249a6.5,6.5,0,0,1,6.5,6.5,6.5,6.5,0,0,1-6.5,6.5,6.5,6.5,0,0,1-6.5-6.5A6.5,6.5,0,0,1,813.022-383.249Z" transform="translate(-48.912 -8.16)" fill-rule="evenodd"/>
    <path id="Path_2025" data-name="Path 2025" d="M813.022-356.714a6.5,6.5,0,0,1,6.5,6.5,6.5,6.5,0,0,1-6.5,6.5,6.5,6.5,0,0,1-6.5-6.5A6.5,6.5,0,0,1,813.022-356.714Z" transform="translate(-48.912 -9.77)" fill-rule="evenodd"/>
    <path id="Path_2026" data-name="Path 2026" d="M352.166-324.8a6.5,6.5,0,0,1,6.5,6.5,6.5,6.5,0,0,1-6.5,6.5,6.5,6.5,0,0,1-6.5-6.5A6.5,6.5,0,0,1,352.166-324.8Z" transform="translate(-20.941 -11.708)" fill-rule="evenodd"/>
    <path id="Path_2027" data-name="Path 2027" d="M301.646-215.29a6.5,6.5,0,0,1,6.5,6.5,6.5,6.5,0,0,1-6.5,6.5,6.5,6.5,0,0,1-6.5-6.5A6.5,6.5,0,0,1,301.646-215.29Z" transform="translate(-17.875 -18.354)" fill-rule="evenodd"/>
    <path id="Path_2028" data-name="Path 2028" d="M367.94-441.069a6.5,6.5,0,0,1,6.5,6.5,6.5,6.5,0,0,1-6.5,6.5,6.5,6.5,0,0,1-6.5-6.5A6.5,6.5,0,0,1,367.94-441.069Z" transform="translate(-21.898 -4.651)" fill-rule="evenodd"/>
    <path id="Path_2029" data-name="Path 2029" d="M279.359-408.613a6.5,6.5,0,0,1,6.5,6.5,6.5,6.5,0,0,1-6.5,6.5,6.5,6.5,0,0,1-6.5-6.5A6.5,6.5,0,0,1,279.359-408.613Z" transform="translate(-16.522 -6.62)" fill-rule="evenodd"/>
    <path id="Path_2030" data-name="Path 2030" d="M279.359-380.907a6.5,6.5,0,0,1,6.5,6.5,6.5,6.5,0,0,1-6.5,6.5,6.5,6.5,0,0,1-6.5-6.5A6.5,6.5,0,0,1,279.359-380.907Z" transform="translate(-16.522 -8.302)" fill-rule="evenodd"/>
    <path id="Path_2031" data-name="Path 2031" d="M279.359-353.2a6.5,6.5,0,0,1,6.5,6.5,6.5,6.5,0,0,1-6.5,6.5,6.5,6.5,0,0,1-6.5-6.5A6.5,6.5,0,0,1,279.359-353.2Z" transform="translate(-16.522 -9.984)" fill-rule="evenodd"/>
    <path id="Path_2032" data-name="Path 2032" d="M279.359-325.5a6.5,6.5,0,0,1,6.5,6.5,6.5,6.5,0,0,1-6.5,6.5,6.5,6.5,0,0,1-6.5-6.5A6.5,6.5,0,0,1,279.359-325.5Z" transform="translate(-16.522 -11.665)" fill-rule="evenodd"/>
    <path id="Path_2033" data-name="Path 2033" d="M279.359-297.791a6.5,6.5,0,0,1,6.5,6.5,6.5,6.5,0,0,1-6.5,6.5,6.5,6.5,0,0,1-6.5-6.5A6.5,6.5,0,0,1,279.359-297.791Z" transform="translate(-16.522 -13.347)" fill-rule="evenodd"/>
    <path id="Path_2034" data-name="Path 2034" d="M580.134-481.244a2.856,2.856,0,0,1,2.855,2.855,2.856,2.856,0,0,1-2.855,2.855,2.856,2.856,0,0,1-2.855-2.855A2.857,2.857,0,0,1,580.134-481.244Z" transform="translate(-34.998 -2.212)" fill="none" stroke="#000" stroke-linecap="round" stroke-linejoin="round" stroke-width="1.3"/>
    <path id="Path_2035" data-name="Path 2035" d="M582.559-475.881l2.03,2" transform="translate(-35.319 -2.538)" fill="none" stroke="#000" stroke-linecap="round" stroke-linejoin="round" stroke-width="1.3"/>
    <path id="Path_2036" data-name="Path 2036" d="M791.351-446.414v240.827" transform="translate(-47.991 -4.326)" fill="none" stroke="#f53c37" stroke-linecap="round" stroke-linejoin="round" stroke-width="1.3"/>
    <path id="Path_2037" data-name="Path 2037" d="M103.582-22.819C46.768-22.819.642-19.814.642-16.113S46.768-9.406,103.582-9.406s102.94-3.005,102.94-6.707S160.4-22.819,103.582-22.819Z" transform="translate(0 -30.036)" stroke="#fff" stroke-linecap="round" stroke-linejoin="round" stroke-width="1.284" fill-rule="evenodd"/>
    <path id="Path_2038" data-name="Path 2038" d="M72.3-22.192c-2.774-1.194-3.24-4.423-4.423-6.744-.072-.157-11.612-1.193-12.134-.371-3.164,4.981-1.562,10.307.634,10.939,4.68,1.349,26.442,2.837,26.852.55C83.469-19.191,77.052-20.129,72.3-22.192Z" transform="translate(-3.236 -29.623)" stroke="#fff" stroke-linejoin="round" stroke-width="1.284"/>
    <path id="Path_2039" data-name="Path 2039" d="M146.029-22.514c-2.75-1.194-3.112-3.643-4.295-5.964-.1-.157-.555-3.493-.555-3.761-.024-1.153-3.377-4.2-4.9-1.79-3.04,4.745-6.924-2.495-6.731-.521.555,5.875-1.617,15.228.58,15.86,4.656,1.349,26.441,2.837,26.851.55C157.222-19.513,150.805-20.451,146.029-22.514Z" transform="translate(-7.798 -29.301)" stroke="#fff" stroke-linejoin="round" stroke-width="1.284"/>
    <path id="Path_2040" data-name="Path 2040" d="M154.867-411.911c14.767-6.2,29.082,57.854,35.16,60.463,5.8,2.492,56.133,4.208,72.067,3.918,3.245-.062,3.481,17.084-.117,20.869-13.777,14.532-32.583,16.562-77.732,7.768-19.824-3.854-27.138-20.943-32.016-35.9C143.841-380.531,147.02-408.61,154.867-411.911Z" transform="translate(-8.899 -6.395)" stroke="#fff" stroke-linejoin="round" stroke-width="1.284"/>
    <path id="Path_2041" data-name="Path 2041" d="M150.891-276.858c-.652-14.116-1.278-37.539-1.834-39.257-8.685-26.974,1.555,13.313-4.524,20.695-9.53,11.279-30.7,34.429-30.7,34.429,1.206,32.743,3.257,214.207,3.257,214.207s13.076.273,23.836,1.141c7.938.639,10.157-3.04,10.157-3.04S152.386-175.856,150.891-276.858Z" transform="translate(-6.87 -11.677)"/>
    <path id="Path_2042" data-name="Path 2042" d="M147.11-277.13c-.652-14.116-1.278-37.539-1.834-39.257-8.685-26.974-64.946-6.074-71.025,1.308-9.53,11.279-8.975,25.72-11.1,49.952-.941,10.889-11.6,216.359-11.6,216.359a45.487,45.487,0,0,0,15.9,1.573,72.258,72.258,0,0,0,10.085-1.573c19.228-74.5,32.521-212.494,32.521-212.494,1.206,32.743,3.257,214.207,3.257,214.207s13.076.273,23.836,1.141c7.938.639,10.157-3.04,10.157-3.04S148.606-176.127,147.11-277.13Z" transform="translate(-3.09 -11.405)" fill="none" stroke="#000" stroke-linejoin="round" stroke-width="1.284"/>
    <path id="Path_2043" data-name="Path 2043" d="M66.8-302l70.8,15.354a152.455,152.455,0,0,1-48.617,7.987c-11.369-.126-19.5-.4-25.064-.677C63.822-288.325,64.331-295.573,66.8-302Z" transform="translate(-3.839 -13.091)"/>
    <path id="Path_2044" data-name="Path 2044" d="M149.093-295.73C146.836-348.046,169.384-395.08,158.6-409c-18.832-24.274-50.94-14.59-62.118,1.772-14.722,21.566-38.658,92.56-33.722,102.848,5.194,6.125,12.722,10.492,51.2,12.037C121.245-292.048,141.393-294.219,149.093-295.73Z" transform="translate(-3.73 -5.708)" fill="#fff" stroke="#000" stroke-linejoin="round" stroke-width="1.284"/>
    <path id="Path_2045" data-name="Path 2045" d="M161.358-448.408s3.805-2.526.519-5.794c-9.685-9.544-17.156-2.726-19.034,5.555-1.274,5.549,2.068,10.7,2.068,10.7S159.431-442.15,161.358-448.408Z" transform="translate(-8.613 -3.571)" fill="#f53c37" stroke="#000" stroke-linejoin="round" stroke-width="1.284"/>
    <path id="Path_2046" data-name="Path 2046" d="M146.26-441.772l-9.553,18.18c-1.085,2.788,4.53,8.315,8.539,8.594,1.1.076,2.885.428,2.882-1.866l2.935-18.573Z" transform="translate(-8.25 -4.608)" fill="#fff" stroke="#000" stroke-linejoin="round" stroke-width="1.284"/>
    <path id="Path_2047" data-name="Path 2047" d="M150.968-457.828s.864-3.487,5.46-3.62,4.1,2.3,6.582,6.632c2.5,4.332-.4,8.738-6.213,10.625C152.74-442.87,146.046-452.365,150.968-457.828Z" transform="translate(-9.018 -3.413)" fill="#f53c37" stroke="#000" stroke-linejoin="round" stroke-width="1.284"/>
    <path id="Path_2048" data-name="Path 2048" d="M149.46-449.151l-3.539,6.372a6.911,6.911,0,0,0,1.7,8.373c2.331,1.83,3.885,2.971,7.061,3.177,2.664.171,4.462-2.072,5.092-5.473a32.163,32.163,0,0,0-.063-11,5.461,5.461,0,0,0-3.793-4.6C153.817-452.869,154-449.814,149.46-449.151Z" transform="translate(-8.775 -3.965)" fill="#fff" stroke="#000" stroke-linejoin="round" stroke-width="1.284"/>
    <path id="Path_2049" data-name="Path 2049" d="M147.514-443.209a9.538,9.538,0,0,1-.152-1.65c.008-1.057-.256-2.623-1.824-1.85-2.257,1.125-1.946,6.745.671,7.166C148.135-439.228,147.806-441.842,147.514-443.209Z" transform="translate(-8.703 -4.296)" fill="#fff" stroke="#000" stroke-linejoin="round" stroke-width="1.284"/>
    <path id="Path_2050" data-name="Path 2050" d="M114.029-417.559c8.627,13.484-59.587,43.976-58.2,46.686,2.859,5.628,14.549,54.713,21.741,69.076,1.451,2.894-13.679,11.6-17.439,10.023-10.718-4.468-26.884-43.708-30.976-75.1C26.8-385,39.612-392.426,53.2-400.315,75.912-413.475,109.449-424.745,114.029-417.559Z" transform="translate(-1.713 -5.942)" fill="#fff" stroke="#000" stroke-linejoin="round" stroke-width="1.284"/>
    <path id="Path_2051" data-name="Path 2051" d="M114.652-255.976a1.214,1.214,0,0,0,1.1-1.325c-.717-9.636,4.418-15.384,4.484-15.444a1.242,1.242,0,0,0-.091-1.752,1.23,1.23,0,0,0-1.74.07c-.262.266-5.921,6.553-5.109,17.309a1.23,1.23,0,0,0,1.312,1.148Z" transform="translate(-6.832 -14.741)"/>
    <path id="Path_2052" data-name="Path 2052" d="M75.622-294.022s12.546,3.64,14.355,5.347,5.923,10.891,4.535,10.4-5.533-6.123-5.533-6.123,3.176,8.361,1.814,9.23-2.159.231-2.159.231a1.767,1.767,0,0,1-2.077,1.22c-1.545-.378-6.468-7.373-6.468-7.373s1.79,5.608.95,6.152c-.864.546-4.779-6.556-6.928-7.142s-5.577-1.775-6.684-5.546S71.352-296.736,75.622-294.022Z" transform="translate(-4.044 -13.53)" fill="#fff" stroke="#000" stroke-linejoin="round" stroke-width="1.284"/>
    <path id="Path_2053" data-name="Path 2053" d="M266.437-339.343s18.713,2.775,22.481,4.654c3.743,1.88,10.1,4.631,9.777,5.658s-9.388-1.8-9.388-1.8-1.81,6.432-4.731,7.7a4.252,4.252,0,0,1-4.792-.792s-11.782-.363-14.949-5.913C261.644-335.38,266.437-339.343,266.437-339.343Z" transform="translate(-15.968 -10.825)" fill="#fff" stroke="#000" stroke-linejoin="round" stroke-width="1.284"/>
    <path id="Path_2054" data-name="Path 2054" d="M399.618-347.875H614.762v-66.289H399.618Z" transform="translate(-24.215 -6.284)" fill="#fff" stroke="#f53c37" stroke-linecap="round" stroke-linejoin="round" stroke-width="1.3" fill-rule="evenodd"/>
    <path id="Path_2055" data-name="Path 2055" d="M431.949-395.965h32.772v-3.98H431.949Z" transform="translate(-26.178 -7.147)" fill-rule="evenodd"/>
    <path id="Path_2056" data-name="Path 2056" d="M431.949-388.423h17.87v-2.08h-17.87Z" transform="translate(-26.178 -7.72)" fill-rule="evenodd"/>
    <path id="Path_2057" data-name="Path 2057" d="M431.024-368.764H589.8v-6.08H431.024Z" transform="translate(-26.121 -8.67)" fill-rule="evenodd"/>
    <path id="Path_2058" data-name="Path 2058" d="M431.024-356.169H554.48v-6.08H431.024Z" transform="translate(-26.121 -9.435)" fill-rule="evenodd"/>
    <path id="Path_2059" data-name="Path 2059" d="M417.57-401.034a6.5,6.5,0,0,1,6.5,6.5,6.5,6.5,0,0,1-6.5,6.5,6.5,6.5,0,0,1-6.5-6.5A6.5,6.5,0,0,1,417.57-401.034Z" transform="translate(-24.911 -7.08)" fill-rule="evenodd"/>
  </g>
</svg>
