<svg xmlns="http://www.w3.org/2000/svg" width="225.328" height="131.454" viewBox="0 0 225.328 131.454">
  <g id="Group_289" data-name="Group 289" transform="translate(0 131.454)">
    <path id="Path_2115" data-name="Path 2115" d="M18.48-12.023H206.831V-125.769a4.683,4.683,0,0,0-4.674-4.685H23.17a4.694,4.694,0,0,0-4.69,4.685Z" fill="#fff"/>
    <path id="Path_2116" data-name="Path 2116" d="M30.159-24.508h166.01v-44.08H30.159Z" fill="#ef3d31" fill-rule="evenodd"/>
    <path id="Path_2117" data-name="Path 2117" d="M174.368-100.928a7.086,7.086,0,0,1-1.949-.276l.178-.492a6.575,6.575,0,0,0,1.771.246,6.558,6.558,0,0,0,6.132-4.187,6.492,6.492,0,0,0,.235-.769l.518.076a6.663,6.663,0,0,1-.265.876,7.082,7.082,0,0,1-6.62,4.526" stroke="#000" stroke-linejoin="round" stroke-width="1"/>
    <path id="Path_2118" data-name="Path 2118" d="M186.291-99.655a.255.255,0,0,1-.087-.015,9.258,9.258,0,0,1-5.523-5.541l.5-.149a8.789,8.789,0,0,0,4.081,4.7l.768.407V-102a6.851,6.851,0,0,0-4.138-6.3l.172-.494a7.363,7.363,0,0,1,4.487,6.8v2.082a.26.26,0,0,1-.11.213.262.262,0,0,1-.151.048" stroke="#000" stroke-linejoin="round" stroke-width="1"/>
    <path id="Path_2119" data-name="Path 2119" d="M180.295-104.105a7.029,7.029,0,0,1-5.243,3.144l-.472.046v2.842a4.576,4.576,0,0,0,4.571,4.571,4.576,4.576,0,0,0,4.571-4.571v-2.958l-.191-.157a9.353,9.353,0,0,1-2.338-2.874l-.412-.786ZM179.151-92.98a5.1,5.1,0,0,1-5.093-5.093v-3.119a.282.282,0,0,1,.288-.259l.054,0a6.5,6.5,0,0,0,6.148-4.346.261.261,0,0,1,.246-.176.262.262,0,0,1,.25.185,8.779,8.779,0,0,0,3.1,4.413.263.263,0,0,1,.1.209v3.091a5.1,5.1,0,0,1-5.093,5.093" stroke="#000" stroke-linejoin="round" stroke-width="1"/>
    <path id="Path_2120" data-name="Path 2120" d="M180.295-104.105a7.029,7.029,0,0,1-5.243,3.144l-.472.046v2.842a4.576,4.576,0,0,0,4.571,4.571,4.576,4.576,0,0,0,4.571-4.571v-2.958l-.191-.157a9.353,9.353,0,0,1-2.338-2.874l-.412-.786Z" fill="#fff" stroke="#000" stroke-linejoin="round" stroke-width="1"/>
    <path id="Path_2121" data-name="Path 2121" d="M176.375-91.833c0,1.436,2.087,2.764,2.505,3.015l.269.162.27-.162c.589-.355,2.509-1.623,2.509-3.015v-1.9l-.731.321a5.139,5.139,0,0,1-2.046.421,5.138,5.138,0,0,1-2.045-.421l-.731-.321Zm2.776,3.726a.262.262,0,0,1-.12-.029c-.325-.166-3.178-1.684-3.178-3.7v-2.484a.26.26,0,0,1,.149-.235.255.255,0,0,1,.111-.026.262.262,0,0,1,.165.058,4.576,4.576,0,0,0,2.874,1,4.571,4.571,0,0,0,2.873-1,.263.263,0,0,1,.164-.058.26.26,0,0,1,.112.025.262.262,0,0,1,.149.236v2.484c0,2.012-2.855,3.531-3.181,3.7a.257.257,0,0,1-.118.028" stroke="#000" stroke-linejoin="round" stroke-width="1"/>
    <path id="Path_2122" data-name="Path 2122" d="M175.544-90.9c-3.231.53-5.743,1.763-6.559,3.219l-.211.378.333.277A15.623,15.623,0,0,0,179.09-83.4a15.628,15.628,0,0,0,10.069-3.687l.342-.289-.233-.382c-.866-1.416-3.359-2.618-6.51-3.135l-.385-.063-.17.351a6.683,6.683,0,0,1-2.944,2.478.257.257,0,0,1-.109.024.256.256,0,0,1-.106-.023,6.689,6.689,0,0,1-2.945-2.479l-.17-.351Zm3.546,8.014A16.108,16.108,0,0,1,168.333-87a.262.262,0,0,1-.078-.261c.55-2.059,3.568-3.687,7.877-4.249h0a.271.271,0,0,1,.287.22c.176,1.187,1.943,2.22,2.48,2.508l.247.132.246-.132c.538-.288,2.306-1.32,2.481-2.508a.265.265,0,0,1,.26-.222c4.254.552,7.262,2.143,7.882,4.154a.262.262,0,0,1-.073.27,16.1,16.1,0,0,1-10.857,4.206" stroke="#000" stroke-linejoin="round" stroke-width="1"/>
    <path id="Path_2123" data-name="Path 2123" d="M175.544-90.9c-3.231.53-5.743,1.763-6.559,3.219l-.211.378.333.277A15.623,15.623,0,0,0,179.09-83.4a15.628,15.628,0,0,0,10.069-3.687l.342-.289-.233-.382c-.866-1.416-3.359-2.618-6.51-3.135l-.385-.063-.17.351a6.683,6.683,0,0,1-2.944,2.478.257.257,0,0,1-.109.024.256.256,0,0,1-.106-.023,6.689,6.689,0,0,1-2.945-2.479l-.17-.351Zm3.36,2.114.247.132.246-.132" fill="#ef3d31" stroke="#000" stroke-linejoin="round" stroke-width="1"/>
    <path id="Path_2124" data-name="Path 2124" d="M176.114-94.578a.262.262,0,0,1,.164.058,4.575,4.575,0,0,0,2.874,1,4.571,4.571,0,0,0,2.873-1,.263.263,0,0,1,.164-.058.257.257,0,0,1,.112.025.251.251,0,0,1,.1.081l.249.343.387-.172a6.987,6.987,0,0,0,2.9-2.29l.1-.135V-102a6.888,6.888,0,0,0-6.88-6.88,6.887,6.887,0,0,0-6.879,6.88v5.273l.1.135a6.977,6.977,0,0,0,2.9,2.29l.388.172.247-.344a.254.254,0,0,1,.1-.08.256.256,0,0,1,.112-.025m3.037,1.6a5.117,5.117,0,0,1-2.325-.564l-.32-.164-.267.241a.321.321,0,0,1-.126.026.262.262,0,0,1-.078-.012,7.758,7.758,0,0,1-4.244-3.057.268.268,0,0,1-.041-.141V-102a7.41,7.41,0,0,1,7.4-7.4,7.41,7.41,0,0,1,7.4,7.4v5.346a.261.261,0,0,1-.041.141,7.754,7.754,0,0,1-4.243,3.058.262.262,0,0,1-.079.013.26.26,0,0,1-.154-.051l-.255-.186-.294.129a5.136,5.136,0,0,1-2.335.568" stroke="#000" stroke-linejoin="round" stroke-width="1"/>
    <path id="Path_2125" data-name="Path 2125" d="M19.48-13.023H205.832V-125.769a3.685,3.685,0,0,0-3.674-3.685H23.17a3.692,3.692,0,0,0-3.69,3.685Zm187.352,2H18.48a1,1,0,0,1-1-1V-125.769a5.694,5.694,0,0,1,5.69-5.685H202.158a5.686,5.686,0,0,1,5.674,5.685V-12.023a1,1,0,0,1-1,1"/>
    <path id="Path_2126" data-name="Path 2126" d="M31.159-24.553h163.01v-93.63H31.159Zm164.01,2H30.159a1,1,0,0,1-1-1v-95.63a1,1,0,0,1,1-1h165.01a1,1,0,0,1,1,1v95.63a1,1,0,0,1-1,1" fill="#2c5770"/>
    <path id="Path_2127" data-name="Path 2127" d="M31.159-24.553H194.168v-93.63H31.159Zm164.01,2H30.159a1,1,0,0,1-1-1v-95.63a1,1,0,0,1,1-1h165.01a1,1,0,0,1,1,1v95.63a1,1,0,0,1-1,1"/>
    <path id="Path_2128" data-name="Path 2128" d="M2-10.461c0,.042,0,.085,0,.128v3.4C2-2.686,4.7-2,11.167-2H214.161c6.465,0,9.167-.686,9.167-4.936v-3.4c0-.043,0-.086,0-.128H147.809a4.1,4.1,0,0,1-3.874,2.854H81.388a4.087,4.087,0,0,1-3.87-2.854ZM214.161,0H11.167C6.454,0,0,0,0-6.936v-3.4a5.656,5.656,0,0,1,.074-.821c.018-.127.037-.255.047-.384a1,1,0,0,1,1-.923h77.2a1,1,0,0,1,1,.9,2.126,2.126,0,0,0,2.072,1.958h62.547a2.136,2.136,0,0,0,2.078-1.96,1,1,0,0,1,.994-.894h77.2a1,1,0,0,1,1,.907c.011.124.03.245.048.367a5.708,5.708,0,0,1,.08.854v3.4C225.328,0,218.874,0,214.161,0"/>
    <path id="Path_2129" data-name="Path 2129" d="M47.8-99.175H78.64v-3.206H47.8Z" fill-rule="evenodd"/>
    <path id="Path_2130" data-name="Path 2130" d="M86.709-99.175h30.836v-3.206H86.709Z" fill-rule="evenodd"/>
    <path id="Path_2131" data-name="Path 2131" d="M75.916-39h74.5v-3.206h-74.5Z" fill-rule="evenodd"/>
    <path id="Path_2132" data-name="Path 2132" d="M99.175-31.971h27.978v-3.206H99.175Z" fill-rule="evenodd"/>
    <path id="Path_2133" data-name="Path 2133" d="M125.614-99.175H156.45v-3.206H125.614Z" fill-rule="evenodd"/>
    <path id="Path_2134" data-name="Path 2134" d="M63.222-51.048H161.2v-6.665H63.222Z" fill="#fff" stroke="#000" stroke-linecap="round" stroke-linejoin="round" stroke-width="2" fill-rule="evenodd"/>
    <path id="Path_2135" data-name="Path 2135" d="M43.572-36.557l-3-3,3-3" fill="none" stroke="#000" stroke-linecap="round" stroke-miterlimit="10" stroke-width="2"/>
    <path id="Path_2136" data-name="Path 2136" d="M50.109-39.557H40.572" fill="none" stroke="#000" stroke-linecap="round" stroke-linejoin="round" stroke-miterlimit="10" stroke-width="2"/>
    <path id="Path_2137" data-name="Path 2137" d="M181.367-42.557l3,3-3,3" fill="none" stroke="#000" stroke-linecap="round" stroke-miterlimit="10" stroke-width="2"/>
    <path id="Path_2138" data-name="Path 2138" d="M174.831-39.557h9.536" fill="none" stroke="#000" stroke-linecap="round" stroke-linejoin="round" stroke-miterlimit="10" stroke-width="2"/>
  </g>
</svg>
