<?xml version="1.0" encoding="UTF-8" standalone="no"?><!DOCTYPE svg PUBLIC "-//W3C//DTD SVG 1.1//EN" "http://www.w3.org/Graphics/SVG/1.1/DTD/svg11.dtd"><svg width="100%" height="100%" viewBox="0 0 16267 2017" version="1.1" xmlns="http://www.w3.org/2000/svg" xmlns:xlink="http://www.w3.org/1999/xlink" xml:space="preserve" xmlns:serif="http://www.serif.com/" style="fill-rule:evenodd;clip-rule:evenodd;stroke-linejoin:round;stroke-miterlimit:2;"><rect id="Artboard1" x="0" y="0" width="16266.7" height="2016.67" style="fill:none;"/><g id="Artboard11" serif:id="Artboard1"><g><path d="M12861.8,1455.65c-2.625,-23.867 -4.546,-48.133 -4.546,-72.821c0,-338.221 274.134,-612.562 612.563,-612.562c95.746,-0 185.9,22.504 266.796,61.658c92.95,-319.125 387.35,-552.583 736.612,-552.583c381.933,-0 697.471,278.783 757.225,643.487c196.208,34.438 368.833,137.838 490.783,285.213c40.188,-13.175 83.167,-20.321 127.721,-20.321c228.879,-0 414.259,185.375 414.259,414.012c-0,225.821 -181.009,409.104 -405.696,413.646l-0.175,0.367l-2962.87,-0l-0.875,-2.15c-7.688,0.525 -15.2,2.15 -22.888,2.15c-155.15,-0 -280.595,-125.484 -280.595,-280.425c-0,-151.967 120.904,-275.004 271.687,-279.671Z" style="fill:#fff;fill-rule:nonzero;"/><path d="M271.688,1455.65c-2.621,-23.867 -4.542,-48.133 -4.542,-72.821c-0,-338.221 274.129,-612.562 612.558,-612.562c95.746,-0 185.9,22.504 266.796,61.658c92.95,-319.125 387.35,-552.583 736.613,-552.583c381.933,-0 697.475,278.783 757.229,643.487c196.208,34.438 368.829,137.838 490.783,285.213c40.183,-13.175 83.167,-20.321 127.721,-20.321c228.879,-0 414.254,185.375 414.254,414.012c0,225.821 -181.008,409.104 -405.696,413.646l-0.175,0.367l-2962.87,-0l-0.87,-2.15c-7.688,0.525 -15.205,2.15 -22.892,2.15c-155.146,-0 -280.596,-125.484 -280.596,-280.425c0,-151.967 120.904,-275.004 271.688,-279.671Z" style="fill:#fff;fill-rule:nonzero;"/><path d="M14810,1365.54c3.042,-27.704 5.271,-55.875 5.271,-84.538c-0,-392.629 -318.229,-711.104 -711.104,-711.104c-111.146,0 -215.809,26.125 -309.717,71.575c-107.9,-370.458 -449.662,-641.475 -855.112,-641.475c-443.375,0 -809.675,323.629 -879.042,747.008c-227.775,39.975 -428.167,160.009 -569.738,331.092c-46.65,-15.296 -96.546,-23.592 -148.266,-23.592c-265.7,0 -480.9,215.2 -480.9,480.617c-0,262.154 210.129,474.917 470.962,480.192l0.2,0.425l3439.52,-0l1.012,-2.496c8.925,0.608 17.646,2.496 26.575,2.496c180.104,-0 325.734,-145.671 325.734,-325.538c-0,-176.416 -140.355,-319.246 -315.392,-324.662Z" style="fill:#681414;fill-rule:nonzero;"/><path d="M6481.71,1455.65c2.621,-23.867 4.542,-48.133 4.542,-72.821c-0,-338.221 -274.129,-612.562 -612.558,-612.562c-95.746,-0 -185.9,22.504 -266.796,61.658c-92.95,-319.125 -387.35,-552.583 -736.613,-552.583c-381.933,-0 -697.475,278.783 -757.229,643.487c-196.208,34.438 -368.829,137.838 -490.783,285.213c-40.184,-13.175 -83.163,-20.321 -127.717,-20.321c-228.883,-0 -414.258,185.375 -414.258,414.012c-0,225.821 181.008,409.104 405.696,413.646l0.175,0.367l2962.87,-0l0.875,-2.15c7.688,0.525 15.2,2.15 22.888,2.15c155.15,-0 280.596,-125.484 280.596,-280.425c-0,-151.967 -120.904,-275.004 -271.688,-279.671Z" style="fill:#adadad;fill-rule:nonzero;"/><path d="M9369.58,1636.62c105.871,-0 204.546,30.641 288.188,82.971c4.158,-454.034 373.266,-820.984 828.421,-820.984c357.275,0 660.491,226.088 777.079,542.438c88.279,-32.067 183.275,-50.425 282.433,-50.425c353.275,-0 697.983,314.333 817.45,625.121c-70.992,-0 -208.133,-2.321 -307.287,-0.367l-0.321,0.367l-3197.72,-0l-0.959,-2.4c-1.92,0.158 -3.837,0.321 -5.6,0.558c70.688,-218.729 275.875,-377.279 518.321,-377.279Z" style="fill:#f53c37;fill-rule:nonzero;"/><path d="M1095.24,2000.77c-47.259,-97.513 -74.463,-206.675 -74.463,-322.242c0,-409.917 332.434,-742.417 742.554,-742.417c409.892,0 742.555,332.5 742.555,742.417c-0,115.567 -27.205,224.729 -74.463,322.242l-1336.18,-0Z" style="fill:#f53c37;fill-rule:nonzero;"/><path d="M2056.96,1378.23c-2.984,-27.163 -5.171,-54.788 -5.171,-82.888c-0,-384.97 312.025,-697.233 697.233,-697.233c108.979,0 211.596,25.613 303.675,70.179c105.796,-363.233 440.892,-628.962 838.429,-628.962c434.729,-0 793.883,317.316 861.9,732.433c223.329,39.2 419.813,156.888 558.621,324.633c45.742,-14.991 94.663,-23.125 145.375,-23.125c260.517,0 471.517,211 471.517,471.238c-0,257.037 -206.029,465.654 -461.771,470.825l-0.2,0.417l-3372.42,-0l-0.996,-2.446c-8.75,0.596 -17.3,2.446 -26.05,2.446c-176.596,-0 -319.383,-142.83 -319.383,-319.188c-0,-172.975 137.617,-313.017 309.242,-318.329Z" style="fill:#681414;fill-rule:nonzero;"/><path d="M8562.62,1655.4c-1.683,-15.358 -2.921,-30.971 -2.921,-46.854c0,-217.596 176.367,-394.096 394.096,-394.096c61.6,-0 119.604,14.475 171.646,39.667c59.8,-205.313 249.208,-355.509 473.908,-355.509c245.721,0 448.729,179.354 487.171,413.996c126.233,22.154 237.292,88.675 315.75,183.492c25.854,-8.475 53.508,-13.075 82.171,-13.075c147.254,-0 266.517,119.267 266.517,266.362c-0,145.284 -116.455,263.2 -261.009,266.121l-0.112,0.238l-1906.2,-0l-0.563,-1.384c-4.945,0.338 -9.779,1.384 -14.725,1.384c-99.816,-0 -180.525,-80.734 -180.525,-180.413c0,-97.771 77.788,-176.929 174.792,-179.929Z" style="fill:#adadad;fill-rule:nonzero;"/><path d="M13819.1,1469.23c-152.616,0 -294.858,44.171 -415.425,119.6c-5.996,-654.487 -538.071,-1183.45 -1194.18,-1183.45c-515.012,0 -952.108,325.909 -1120.17,781.934c-127.254,-46.225 -264.191,-72.688 -407.125,-72.688c-509.254,0 -977.983,453.117 -1150.2,901.117c142.963,-0 271.855,-3.342 414.788,-0.529l1859.04,0.529l2750.98,-0l1.383,-3.459c2.767,0.23 5.533,0.459 8.071,0.809c-101.9,-315.304 -397.675,-543.859 -747.167,-543.859Z" style="fill:#f53c37;fill-rule:nonzero;"/></g></g></svg>