<svg xmlns="http://www.w3.org/2000/svg" width="138.953" height="113.244" viewBox="0 0 138.953 113.244">
  <g id="Group_357" data-name="Group 357" transform="translate(0 193.408)">
    <path id="Path_2817" data-name="Path 2817" d="M70.473-60.134h97.842v-84.2H70.473Z" transform="translate(-29.362 -20.03)" fill="#fff"/>
    <path id="Path_2818" data-name="Path 2818" d="M152.57-61.257V-73.605h14.621v12.348Zm-16.307,0V-73.605h15.184v12.348Zm-16.307,0V-73.605h15.183v12.348Zm-16.307,0V-73.605h15.183v12.348Zm-16.307,0V-73.605h15.183v12.348Zm-15.745,0V-73.605H86.218v12.348Zm14.621-81.951v12.345H71.6v-12.345Zm16.307,0v12.345H87.342v-12.345Zm16.307,0v12.345H103.649v-12.345Zm16.307,0v12.345H119.956v-12.345Zm16.307,0v12.345H136.262v-12.345Zm1.124,26.38v-12.909h14.621v12.909Zm0,14.034V-115.7h14.621v12.909Zm0,14.032v-12.909h14.621v12.909Zm0,1.125h14.621v12.909H152.57Zm-16.307,0h15.184v12.909H136.262Zm-16.307,0h15.183v12.909H119.956Zm-16.307,0h15.183v12.909H103.649Zm-16.307,0h15.183v12.909H87.342Zm-1.124,0v12.909H71.6V-87.637Zm0-14.034v12.909H71.6v-12.909Zm0-14.032v12.909H71.6V-115.7Zm0-1.125H71.6v-12.909H86.218Zm16.307,0H87.342v-12.909h15.183Zm16.307,0H103.649v-12.909h15.183Zm16.307,0H119.956v-12.909h15.183Zm1.124,0v-12.909h15.184v12.909Zm0,14.034V-115.7h15.184v12.909Zm0,1.122h15.184v12.909H136.262Zm-16.307,0h15.183v12.909H119.956Zm-16.307,0h15.183v12.909H103.649Zm-1.124,0v12.909H87.342v-12.909Zm0-1.122H87.342V-115.7h15.183ZM119.956-115.7h15.183v12.909H119.956Zm-1.124,12.909H103.649V-115.7h15.183Zm48.359-40.414v12.345H152.57v-12.345Zm1.124-1.125H70.473v84.2h97.842Z" transform="translate(-29.362 -20.03)"/>
    <path id="Path_2819" data-name="Path 2819" d="M84.31-56.452a1.111,1.111,0,0,1-.715-.258,1.123,1.123,0,0,1-.151-1.581l20.443-24.745a1.123,1.123,0,0,1,1.429-.258l15.476,8.952L136.514-91.9a1.118,1.118,0,0,1,.806-.373,1.133,1.133,0,0,1,.825.328l5.6,5.59L164.8-102.131a1.122,1.122,0,0,1,1.291-.041,1.125,1.125,0,0,1,.476,1.2L165.04-94.6a1.126,1.126,0,0,1-1.355.832,1.125,1.125,0,0,1-.831-1.356l.8-3.34L144.318-83.973a1.125,1.125,0,0,1-1.467-.1L137.4-89.517,121.857-72.164a1.119,1.119,0,0,1-1.4.223l-15.444-8.93L85.177-56.86A1.123,1.123,0,0,1,84.31-56.452Z" transform="translate(-34.658 -37.519)" fill="#f53c37"/>
    <path id="Path_2820" data-name="Path 2820" d="M218.816-100.641a1.09,1.09,0,0,1-.131-.008l-6.467-.749a1.124,1.124,0,0,1-.987-1.246,1.125,1.125,0,0,1,1.245-.988l6.467.749a1.125,1.125,0,0,1,.987,1.245A1.126,1.126,0,0,1,218.816-100.641Z" transform="translate(-88.004 -36.984)" fill="#f53c37"/>
    <path id="Path_2821" data-name="Path 2821" d="M176.935-85.393a3.147,3.147,0,0,1-3.147,3.147,3.147,3.147,0,0,1-3.147-3.147,3.147,3.147,0,0,1,3.147-3.147A3.147,3.147,0,0,1,176.935-85.393Z" transform="translate(-71.096 -43.275)" fill="#f53c37"/>
    <path id="Path_2822" data-name="Path 2822" d="M148.425-54.726a3.147,3.147,0,0,1-3.147,3.147,3.147,3.147,0,0,1-3.147-3.147,3.147,3.147,0,0,1,3.147-3.147A3.147,3.147,0,0,1,148.425-54.726Z" transform="translate(-59.217 -56.052)" fill="#f53c37"/>
    <path id="Path_2823" data-name="Path 2823" d="M121.055-70.122a3.147,3.147,0,0,1-3.146,3.147,3.147,3.147,0,0,1-3.147-3.147,3.147,3.147,0,0,1,3.147-3.147A3.147,3.147,0,0,1,121.055-70.122Z" transform="translate(-47.814 -49.638)" fill="#f53c37"/>
    <path id="Path_2824" data-name="Path 2824" d="M187.723-73.077a3.147,3.147,0,0,1-3.146,3.147,3.147,3.147,0,0,1-3.147-3.147,3.147,3.147,0,0,1,3.147-3.147A3.147,3.147,0,0,1,187.723-73.077Z" transform="translate(-75.59 -48.407)" fill="#f53c37"/>
    <path id="Path_2825" data-name="Path 2825" d="M86.012-27.838a3.145,3.145,0,0,1-3.147,3.144,3.145,3.145,0,0,1-3.147-3.144,3.145,3.145,0,0,1,3.147-3.147A3.145,3.145,0,0,1,86.012-27.838Z" transform="translate(-33.214 -67.255)" fill="#f53c37"/>
    <path id="Path_2826" data-name="Path 2826" d="M26.035-178.625a11.947,11.947,0,0,1,11.933,11.934,11.947,11.947,0,0,1-11.933,11.934A11.947,11.947,0,0,1,14.1-166.691,11.947,11.947,0,0,1,26.035-178.625Zm23.892,22.412h2.149l-.027-8.514-5.317-1.326c.006-.212.011-.425.011-.639q0-1.054-.1-2.081l5.21-1.694-.562-8.344H49.137l-5.217,1.694a20.8,20.8,0,0,0-2.4-3.312l3.335-5.09-5.189-4.809H37.513l-3.085,4.708a20.527,20.527,0,0,0-4.007-1.31v-5.479H21.648v5.479a20.3,20.3,0,0,0-2.617.751l-2.9-4.646-7.441,4.649,2.91,4.656a20.788,20.788,0,0,0-1.82,2.018l-4.933-2.406L1-174.022l4.924,2.4a20.544,20.544,0,0,0-.471,2.682L0-168.366l.917,8.726,5.449-.573a20.474,20.474,0,0,0,1.022,2.523l-4.32,3.375,5.4,6.913L12.8-150.78a20.889,20.889,0,0,0,2.2,1.6l-1.876,5.156,8.244,3,1.874-5.149a20.85,20.85,0,0,0,2.716.189l1.139,5.361h2.15l6.432-1.824-1.139-5.361a20.729,20.729,0,0,0,2.4-1.283l3.811,3.946h2.15l4.162-6.094-3.812-3.948a20.7,20.7,0,0,0,1.363-2.353Z" fill="#f53c37"/>
    <path id="Path_2827" data-name="Path 2827" d="M29.719-178.625a11.948,11.948,0,0,1,11.934,11.934,11.948,11.948,0,0,1-11.934,11.934,11.947,11.947,0,0,1-11.934-11.934A11.947,11.947,0,0,1,29.719-178.625Zm23.892,22.412,2.123-8.514-5.317-1.326c.006-.212.011-.425.011-.639a20.736,20.736,0,0,0-.1-2.081l5.211-1.694-2.712-8.344-5.216,1.694a20.836,20.836,0,0,0-2.405-3.312l3.336-5.09L41.2-190.327l-3.084,4.708a20.533,20.533,0,0,0-4.007-1.31v-5.479H25.332v5.479a20.345,20.345,0,0,0-2.617.751l-2.9-4.646-7.441,4.649,2.91,4.656a20.652,20.652,0,0,0-1.82,2.018l-4.933-2.406-3.846,7.886,4.924,2.4a20.554,20.554,0,0,0-.472,2.682l-5.45.573L4.6-159.64l5.449-.573a20.55,20.55,0,0,0,1.022,2.523l-4.32,3.375,5.4,6.913,4.326-3.379a20.89,20.89,0,0,0,2.2,1.6L16.8-144.025l8.244,3,1.874-5.149a20.856,20.856,0,0,0,2.716.189l1.14,5.361,8.582-1.824-1.139-5.361a20.781,20.781,0,0,0,2.4-1.283l3.811,3.946,6.311-6.094-3.811-3.948a20.7,20.7,0,0,0,1.362-2.353Z" transform="translate(-1.535)" fill="#fff" stroke="#000" stroke-linejoin="round" stroke-width="2"/>
  </g>
</svg>
