<?xml version="1.0" encoding="UTF-8" standalone="no"?><!DOCTYPE svg PUBLIC "-//W3C//DTD SVG 1.1//EN" "http://www.w3.org/Graphics/SVG/1.1/DTD/svg11.dtd"><svg width="100%" height="100%" viewBox="0 0 1006 671" version="1.1" xmlns="http://www.w3.org/2000/svg" xmlns:xlink="http://www.w3.org/1999/xlink" xml:space="preserve" xmlns:serif="http://www.serif.com/" style="fill-rule:evenodd;clip-rule:evenodd;stroke-linejoin:round;stroke-miterlimit:2;"><g><path d="M263.742,20.417l1.749,133.942l132.411,0l-1.741,-133.942l-132.419,-0Z" style="fill:none;fill-rule:nonzero;stroke:#000;stroke-width:40.83px;"/><path d="M20.417,20.417l1.749,133.942l132.411,0l-1.741,-133.942l-132.419,-0Z" style="fill:none;fill-rule:nonzero;stroke:#000;stroke-width:40.83px;"/><path d="M401.91,402.19l-1.747,-133.949l-132.418,-0l1.746,133.949l132.419,0Z" style="fill:none;fill-rule:nonzero;stroke:#000;stroke-width:40.83px;"/><path d="M158.585,402.19l-1.747,-133.949l-132.419,-0l1.747,133.949l132.419,0Z" style="fill:none;fill-rule:nonzero;stroke:#000;stroke-width:40.83px;"/><path d="M500.162,20.417l1.75,133.942l132.346,0l-1.677,-133.942l-132.419,-0Z" style="fill:none;fill-rule:nonzero;stroke:#000;stroke-width:40.83px;"/><path d="M742.26,402.19l132.418,0l-1.745,-133.949l-132.419,-0l1.746,133.949Z" style="fill:none;fill-rule:nonzero;stroke:#000;stroke-width:40.83px;"/><path d="M638.258,402.19l-1.674,-133.949l-132.418,-0l1.673,133.949l132.419,0Z" style="fill:none;fill-rule:nonzero;stroke:#000;stroke-width:40.83px;"/><path d="M508.168,516.065l1.677,133.942l132.418,0l-1.749,-133.942l-132.346,-0Z" style="fill:none;fill-rule:nonzero;stroke:#000;stroke-width:40.83px;"/><path d="M271.74,516.065l1.756,133.942l132.346,0l-1.675,-133.942l-132.427,-0Z" style="fill:none;fill-rule:nonzero;stroke:#000;stroke-width:40.83px;"/><path d="M28.415,516.065l1.756,133.942l132.346,0l-1.676,-133.942l-132.426,-0Z" style="fill:none;fill-rule:nonzero;stroke:#000;stroke-width:40.83px;"/><path d="M876.935,516.065l-132.419,-0l1.75,133.942l132.346,0l-1.677,-133.942Z" style="fill:none;fill-rule:nonzero;stroke:#000;stroke-width:40.83px;"/><path d="M738.26,154.359l132.419,0l-1.75,-133.942l-132.418,-0l1.749,133.942Z" style="fill:none;fill-rule:nonzero;stroke:#000;stroke-width:40.83px;"/><path d="M1004.19,360.983c-3.125,-5.56 -10.247,-7.478 -15.77,-4.302c-10.612,6.047 -20.786,12.653 -30.671,19.768c-9.739,7.203 -19.259,14.775 -28.344,22.777c-18.169,16.019 -34.958,33.396 -50.73,51.638c-15.697,18.264 -30.451,37.349 -44.187,57.096c-6.542,9.36 -12.865,18.867 -18.969,28.533c-3.925,-3.59 -7.922,-7.05 -11.847,-10.422c-13.59,-11.527 -27.472,-22.072 -41.498,-32.276c-14.028,-10.19 -28.199,-19.95 -42.445,-29.478c-14.317,-9.529 -28.635,-18.759 -43.388,-27.836c-5.087,-3.161 -11.92,-2.173 -15.844,2.558c-4.361,5.211 -3.706,12.966 1.526,17.334l0.073,0.094c12.791,10.72 25.583,21.876 38.01,33.098c12.501,11.265 24.784,22.683 36.703,34.347c11.918,11.643 23.475,23.519 34.158,35.649c5.378,6.061 10.465,12.188 15.044,18.293c4.506,6.047 8.649,12.29 10.975,17.399c2.035,4.324 5.233,8.118 9.594,10.829c11.919,7.442 27.544,3.83 35.03,-8.067l3.271,-5.233c0.363,-0.938 0.872,-2.319 1.38,-3.525l1.672,-3.779l3.344,-7.624c2.325,-5.095 4.723,-10.19 7.122,-15.263c4.941,-10.138 10.102,-20.197 15.553,-30.132c10.756,-19.892 22.53,-39.275 35.321,-57.939c12.792,-18.641 26.6,-36.534 41.79,-53.199c7.558,-8.329 15.48,-16.259 23.693,-23.89c8.357,-7.515 17.006,-14.593 26.018,-21.2l0.219,-0.145c4.724,-3.438 6.177,-9.928 3.197,-15.103Z" style="fill:#f53c37;fill-rule:nonzero;"/></g></svg>