<?xml version="1.0" encoding="UTF-8" standalone="no"?><!DOCTYPE svg PUBLIC "-//W3C//DTD SVG 1.1//EN" "http://www.w3.org/Graphics/SVG/1.1/DTD/svg11.dtd"><svg width="100%" height="100%" viewBox="0 0 835 835" version="1.1" xmlns="http://www.w3.org/2000/svg" xmlns:xlink="http://www.w3.org/1999/xlink" xml:space="preserve" xmlns:serif="http://www.serif.com/" style="fill-rule:evenodd;clip-rule:evenodd;stroke-linecap:round;stroke-linejoin:round;stroke-miterlimit:1.5;"><g><g><circle cx="417.053" cy="417.053" r="396.636" style="fill:#fff;stroke:#f53c37;stroke-width:40.83px;"/></g><g><path d="M215.804,208.581l1.158,88.703l87.69,-0l-1.154,-88.703l-87.694,-0Z" style="fill:none;fill-rule:nonzero;stroke:#000;stroke-width:40.83px;stroke-linecap:butt;stroke-miterlimit:2;"/><path d="M307.306,461.409l-1.157,-88.707l-87.694,-0l1.157,88.707l87.694,0Z" style="fill:none;fill-rule:nonzero;stroke:#000;stroke-width:40.83px;stroke-linecap:butt;stroke-miterlimit:2;"/><path d="M372.373,208.581l1.159,88.703l87.645,-0l-1.11,-88.703l-87.694,-0Z" style="fill:none;fill-rule:nonzero;stroke:#000;stroke-width:40.83px;stroke-linecap:butt;stroke-miterlimit:2;"/><path d="M532.702,461.409l87.694,0l-1.157,-88.707l-87.694,-0l1.157,88.707Z" style="fill:none;fill-rule:nonzero;stroke:#000;stroke-width:40.83px;stroke-linecap:butt;stroke-miterlimit:2;"/><path d="M463.827,461.409l-1.109,-88.707l-87.694,-0l1.108,88.707l87.695,0Z" style="fill:none;fill-rule:nonzero;stroke:#000;stroke-width:40.83px;stroke-linecap:butt;stroke-miterlimit:2;"/><path d="M377.675,536.823l1.11,88.703l87.694,-0l-1.158,-88.703l-87.646,-0Z" style="fill:none;fill-rule:nonzero;stroke:#000;stroke-width:40.83px;stroke-linecap:butt;stroke-miterlimit:2;"/><path d="M221.101,536.823l1.163,88.703l87.646,-0l-1.11,-88.703l-87.699,-0Z" style="fill:none;fill-rule:nonzero;stroke:#000;stroke-width:40.83px;stroke-linecap:butt;stroke-miterlimit:2;"/><path d="M621.89,536.823l-87.694,-0l1.158,88.703l87.646,-0l-1.11,-88.703Z" style="fill:none;fill-rule:nonzero;stroke:#000;stroke-width:40.83px;stroke-linecap:butt;stroke-miterlimit:2;"/><path d="M530.053,297.284l87.694,-0l-1.159,-88.703l-87.694,-0l1.159,88.703Z" style="fill:none;fill-rule:nonzero;stroke:#000;stroke-width:40.83px;stroke-linecap:butt;stroke-miterlimit:2;"/><path d="M706.164,434.12c-2.07,-3.682 -6.786,-4.952 -10.444,-2.849c-7.028,4.004 -13.766,8.379 -20.312,13.091c-6.449,4.77 -12.754,9.785 -18.77,15.085c-12.033,10.608 -23.152,22.116 -33.596,34.197c-10.396,12.095 -20.167,24.734 -29.263,37.811c-4.332,6.199 -8.52,12.495 -12.563,18.896c-2.599,-2.377 -5.246,-4.668 -7.845,-6.902c-9,-7.633 -18.193,-14.617 -27.482,-21.375c-9.29,-6.748 -18.675,-13.212 -28.109,-19.521c-9.482,-6.31 -18.963,-12.423 -28.734,-18.434c-3.369,-2.094 -7.893,-1.44 -10.492,1.694c-2.888,3.451 -2.455,8.586 1.01,11.479l0.049,0.062c8.471,7.1 16.942,14.488 25.172,21.919c8.278,7.46 16.413,15.022 24.306,22.747c7.893,7.71 15.546,15.575 22.621,23.608c3.562,4.014 6.931,8.071 9.963,12.114c2.984,4.005 5.728,8.139 7.268,11.523c1.348,2.864 3.466,5.376 6.354,7.171c7.893,4.929 18.241,2.537 23.198,-5.342l2.166,-3.466c0.241,-0.62 0.578,-1.535 0.915,-2.334l1.107,-2.503l2.214,-5.049c1.54,-3.374 3.128,-6.748 4.717,-10.107c3.272,-6.714 6.69,-13.376 10.3,-19.955c7.123,-13.173 14.92,-26.01 23.391,-38.37c8.471,-12.345 17.616,-24.195 27.675,-35.232c5.006,-5.515 10.252,-10.766 15.691,-15.82c5.535,-4.977 11.262,-9.665 17.231,-14.04l0.144,-0.096c3.129,-2.277 4.091,-6.575 2.118,-10.002Z" style="fill:#f53c37;fill-rule:nonzero;"/></g></g></svg>