<?xml version="1.0" encoding="UTF-8" standalone="no"?><!DOCTYPE svg PUBLIC "-//W3C//DTD SVG 1.1//EN" "http://www.w3.org/Graphics/SVG/1.1/DTD/svg11.dtd"><svg width="100%" height="100%" viewBox="0 0 5251 10017" version="1.1" xmlns="http://www.w3.org/2000/svg" xmlns:xlink="http://www.w3.org/1999/xlink" xml:space="preserve" xmlns:serif="http://www.serif.com/" style="fill-rule:evenodd;clip-rule:evenodd;stroke-linejoin:round;stroke-miterlimit:2;"><rect id="Artboard1" x="0" y="0" width="5250.53" height="10016" style="fill:none;"/><clipPath id="_clip1"><rect x="0" y="0" width="5250.53" height="10016"/></clipPath><g clip-path="url(#_clip1)"><g><path d="M760.986,8915.56l1858.32,-1934.96l1887.7,1942.6l-0,-2483.81l741.85,639.121l-0,2938.44l-742.871,0l-1883.72,-1965.32l-1861.28,1965.17l-741.85,-0l0,-2936.99l741.85,-646.587l0,2482.33Zm34.767,-4716.75l-0,1634.81l-767.363,0l0,-1993.78c0,-1386.53 847.067,-2732.57 2399.85,-3718.75l205.9,-130.6l205.617,130.6c1552.78,986.175 2399.84,2332.21 2399.84,3718.75l0,1993.78l-767.212,0l-0,-1993.78c-0,-1093.04 -670.529,-2130.43 -1838.39,-2934.95c-1039.03,715.85 -1684.42,1616.1 -1814.03,2575.84l2477.07,-0l-0,718.079l-2501.28,-0Z" style="fill:#ef3f3d;"/></g></g></svg>