<svg width="100%" height="100%" viewBox="0 0 3134 3655" version="1.1" xmlns="http://www.w3.org/2000/svg" xmlns:xlink="http://www.w3.org/1999/xlink" xml:space="preserve" xmlns:serif="http://www.serif.com/" style="fill-rule:evenodd;clip-rule:evenodd;stroke-linejoin:round;stroke-miterlimit:2;"><g><path d="M2305.03,149.721l-0,2.946c0.175,53.345 15.792,824.591 825.158,872.7c0,717.5 0.367,-0 0.367,595.908c-60.808,3.604 -532.742,-30.496 -826.438,-292.442l-0.904,1160.08c7.263,525.304 -285.158,1040.44 -832.608,1144.26c-153.383,29.046 -291.488,32.317 -523.325,-18.333c-1335.56,-399.504 -891.763,-2380.38 449.267,-2168.39c-0,639.504 0.366,-0.179 0.366,639.504c-553.987,-81.504 -739.312,379.359 -592.104,709.35c133.979,300.417 685.579,365.571 877.983,-58.258c21.784,-82.954 32.68,-177.525 32.68,-283.713l-0,-2303.62l589.558,-0Z"/></g></svg>