<?xml version="1.0" encoding="UTF-8" standalone="no"?><!DOCTYPE svg PUBLIC "-//W3C//DTD SVG 1.1//EN" "http://www.w3.org/Graphics/SVG/1.1/DTD/svg11.dtd"><svg width="100%" height="100%" viewBox="0 0 10688 10000" version="1.1" xmlns="http://www.w3.org/2000/svg" xmlns:xlink="http://www.w3.org/1999/xlink" xml:space="preserve" xmlns:serif="http://www.serif.com/" style="fill-rule:evenodd;clip-rule:evenodd;stroke-linecap:round;stroke-linejoin:round;"><g id="Artboard1"><path id="Path_1465" d="M8421.76,6521.3c564.146,0.199 1028.31,464.36 1028.51,1028.51c-0.199,564.147 -464.36,1028.31 -1028.51,1028.51c-564.147,-0.198 -1028.31,-464.359 -1028.51,-1028.51c0.199,-564.146 464.36,-1028.31 1028.51,-1028.51Z" style="fill:none;fill-rule:nonzero;stroke:#000;stroke-width:96.98px;"/><g><path d="M3210.97,4690.93c-286.27,0 -519.18,232.939 -519.18,519.21l-0,870.264c-0,286.271 232.91,519.181 519.18,519.181l870.265,-0c286.3,-0 519.21,-232.91 519.21,-519.181l-0,-870.264c-0,-286.271 -232.91,-519.21 -519.21,-519.21l-870.265,0Zm870.265,2076.75l-870.265,-0c-378.974,-0 -687.277,-308.303 -687.277,-687.277l0,-870.264c0,-378.974 308.303,-687.277 687.277,-687.277l870.265,-0c379.003,-0 687.305,308.303 687.305,687.277l0,870.264c0,378.974 -308.302,687.277 -687.305,687.277Z" style="fill:url(#_Radial1);"/><path d="M3646.11,5249.54c-218.193,-0 -395.703,177.538 -395.703,395.731c0,218.193 177.51,395.702 395.703,395.702c218.192,0 395.702,-177.509 395.702,-395.702c-0,-218.193 -177.51,-395.731 -395.702,-395.731Zm-0,963.58c-313.111,-0 -567.821,-254.738 -567.821,-567.849c0,-313.111 254.71,-567.849 567.821,-567.849c313.11,-0 567.848,254.738 567.848,567.849c0,313.111 -254.738,567.849 -567.848,567.849Z" style="fill:url(#_Radial2);"/><path d="M4423.58,5015.64c-0,81.658 -66.185,147.842 -147.842,147.842c-81.659,-0 -147.843,-66.184 -147.843,-147.842c0,-81.658 66.184,-147.842 147.843,-147.842c81.657,0 147.842,66.184 147.842,147.842Z" style="fill:url(#_Radial3);"/></g><path id="Path_1471" d="M6188.05,3818.99l-359.2,321.595l125.889,140.633c69.08,77.156 189.403,83.826 266.586,14.777" style="fill:none;fill-rule:nonzero;stroke:#f53c37;stroke-width:108.36px;"/><path id="Path_1472" d="M7227.35,4406.92c260.58,-245.268 484.767,-526.531 665.749,-835.244c58.311,-99.874 81.357,-143.419 81.357,-143.419" style="fill:none;fill-rule:nonzero;stroke:#f53c37;stroke-width:108.36px;"/><path id="Path_1473" d="M6244.63,3261.61l-339.229,129.069c-86.373,32.785 -184.558,8.903 -246.223,-59.892c-81.857,-91.498 -73.991,-234.127 17.432,-316.069c168.418,-151.753 374.875,-255.035 597.31,-298.813c89.65,-17.841 180.791,-27.143 272.197,-27.78c216.836,-3.091 429.739,-58.601 620.48,-161.777" style="fill:none;fill-rule:nonzero;stroke:#f53c37;stroke-width:108.36px;"/><path id="Path_1474" d="M5828.85,4140.59l-373.621,334.504c-77.145,69.074 -197.465,62.434 -266.54,-14.711c-69.051,-77.17 -62.419,-197.476 14.697,-266.588l1041.4,-932.387" style="fill:none;fill-rule:nonzero;stroke:#f53c37;stroke-width:108.36px;"/><path id="Path_1475" d="M6544.95,4006.24l-359.201,321.595l125.875,140.583c14.59,16.31 31.905,29.96 51.171,40.338c69.844,37.622 156.284,27.377 215.398,-25.529l340.572,-304.757" style="fill:none;fill-rule:nonzero;stroke:#f53c37;stroke-width:108.36px;"/><path id="Path_1476" d="M6617.17,4448.34l125.875,140.584c14.586,16.304 31.895,29.948 51.155,40.322c69.848,37.625 156.297,27.365 215.399,-25.562l218.568,-195.705" style="fill:none;fill-rule:nonzero;stroke:#f53c37;stroke-width:108.36px;"/><path id="Path_1477" d="M7592.07,1939.52l-305.107,280.046l976.285,1090.52l305.089,-280.013" style="fill:#ffd525;fill-rule:nonzero;stroke:#f53c37;stroke-width:108.36px;"/><path id="Path_1478" d="M7876.31,1427.31l-398.94,366.199l1276.56,1426.1l1134.49,-1041.3" style="fill:none;fill-rule:nonzero;stroke:#f53c37;stroke-width:108.36px;"/><path id="Path_1479" d="M8871.48,2765.96c-39.386,35.281 -97.004,42.122 -143.557,17.046c-12.833,-6.913 -24.368,-16.004 -34.087,-26.868c-45.883,-51.442 -41.397,-131.501 9.947,-177.495c51.349,-45.937 131.393,-41.516 177.37,9.798c46.008,51.357 41.643,131.465 -9.673,177.519Z" style="fill:none;fill-rule:nonzero;stroke:#f53c37;stroke-width:108.36px;"/><path id="Path_1466" d="M4298.1,1791.23c1697.64,0.811 3094.34,1397.51 3095.15,3095.15c-0.796,1697.65 -1397.5,3094.37 -3095.15,3095.18c-1697.7,-0.737 -3094.49,-1397.47 -3095.28,-3095.18c0.811,-1697.69 1397.59,-3094.41 3095.28,-3095.15Z" style="fill:none;fill-rule:nonzero;stroke:#000;stroke-width:80.69px;stroke-dasharray:242.07,403.45,0,0;"/><path id="Path_1467" d="M1723.35,7916.68l-661.617,-661.617l-661.639,661.617l661.639,661.638l661.617,-661.638Z" style="fill:#fff;stroke:#f53c37;stroke-width:65.84px;"/><path id="Path_1480" d="M6619.61,909.595c0.088,-2.522 0.132,-5.046 0.132,-7.571c0,-116.053 -93.216,-212.566 -209.2,-216.596c-2.522,-0.088 -5.046,-0.132 -7.57,-0.132c-116.038,-0 -212.534,93.21 -216.553,209.178c-0.089,2.53 -0.133,5.062 -0.133,7.593c-0,116.022 93.184,212.511 209.135,216.552c2.53,0.089 5.062,0.133 7.594,0.133c116.037,0 212.542,-93.19 216.595,-209.157Z" style="fill:none;fill-rule:nonzero;stroke:#121212;stroke-width:65.84px;"/><path id="Path_1481" d="M6570.49,1039.59l138.815,148.845c10.678,11.53 10.036,29.785 -1.427,40.536c-11.524,10.725 -29.824,10.091 -40.58,-1.404l-138.749,-148.867" style="fill:none;fill-rule:nonzero;stroke:#121212;stroke-width:65.84px;"/><path id="Path_1066" d="M1619.3,465.977l-207.963,506.227l417.193,354.073l-545.544,-41.218l-207.858,506.174l-129.38,-531.691l-545.65,-41.271l465.695,-287.364l-129.301,-531.717l417.193,354.126l465.615,-287.339Z" style="fill:none;fill-rule:nonzero;stroke:#000;stroke-width:79.16px;"/><path id="Path_1039" d="M3620.22,9738.19l1628.01,-3407.88l277.104,2597.98l1628.01,-4156.61l450.301,3186.72l2251.5,-4745.44" style="fill:none;fill-rule:nonzero;stroke:#000;stroke-width:66.92px;"/></g><defs><radialGradient id="_Radial1" cx="0" cy="0" r="1" gradientUnits="userSpaceOnUse" gradientTransform="matrix(3233.4,-2586.72,2586.72,3233.4,2322.87,6866.67)"><stop offset="0" style="stop-color:#f2ec57;stop-opacity:1"/><stop offset="0.1" style="stop-color:#febe49;stop-opacity:1"/><stop offset="0.2" style="stop-color:#f7934b;stop-opacity:1"/><stop offset="0.3" style="stop-color:#f37758;stop-opacity:1"/><stop offset="0.4" style="stop-color:#f15d6e;stop-opacity:1"/><stop offset="0.5" style="stop-color:#e74a85;stop-opacity:1"/><stop offset="0.6" style="stop-color:#ab489b;stop-opacity:1"/><stop offset="0.7" style="stop-color:#714b9e;stop-opacity:1"/><stop offset="0.8" style="stop-color:#4b4fa2;stop-opacity:1"/><stop offset="1" style="stop-color:#2358a8;stop-opacity:1"/></radialGradient><radialGradient id="_Radial2" cx="0" cy="0" r="1" gradientUnits="userSpaceOnUse" gradientTransform="matrix(3233.4,-2586.72,2586.72,3233.4,2322.87,6866.67)"><stop offset="0" style="stop-color:#f2ec57;stop-opacity:1"/><stop offset="0.1" style="stop-color:#febe49;stop-opacity:1"/><stop offset="0.2" style="stop-color:#f7934b;stop-opacity:1"/><stop offset="0.3" style="stop-color:#f37758;stop-opacity:1"/><stop offset="0.4" style="stop-color:#f15d6e;stop-opacity:1"/><stop offset="0.5" style="stop-color:#e74a85;stop-opacity:1"/><stop offset="0.6" style="stop-color:#ab489b;stop-opacity:1"/><stop offset="0.7" style="stop-color:#714b9e;stop-opacity:1"/><stop offset="0.8" style="stop-color:#4b4fa2;stop-opacity:1"/><stop offset="1" style="stop-color:#2358a8;stop-opacity:1"/></radialGradient><radialGradient id="_Radial3" cx="0" cy="0" r="1" gradientUnits="userSpaceOnUse" gradientTransform="matrix(3233.4,-2586.72,2586.72,3233.4,2322.87,6866.67)"><stop offset="0" style="stop-color:#f2ec57;stop-opacity:1"/><stop offset="0.1" style="stop-color:#febe49;stop-opacity:1"/><stop offset="0.2" style="stop-color:#f7934b;stop-opacity:1"/><stop offset="0.3" style="stop-color:#f37758;stop-opacity:1"/><stop offset="0.4" style="stop-color:#f15d6e;stop-opacity:1"/><stop offset="0.5" style="stop-color:#e74a85;stop-opacity:1"/><stop offset="0.6" style="stop-color:#ab489b;stop-opacity:1"/><stop offset="0.7" style="stop-color:#714b9e;stop-opacity:1"/><stop offset="0.8" style="stop-color:#4b4fa2;stop-opacity:1"/><stop offset="1" style="stop-color:#2358a8;stop-opacity:1"/></radialGradient></defs></svg>