<?xml version="1.0" encoding="UTF-8" standalone="no"?><!DOCTYPE svg PUBLIC "-//W3C//DTD SVG 1.1//EN" "http://www.w3.org/Graphics/SVG/1.1/DTD/svg11.dtd"><svg width="100%" height="100%" viewBox="0 0 773163 723388" version="1.1" xmlns="http://www.w3.org/2000/svg" xmlns:xlink="http://www.w3.org/1999/xlink" xml:space="preserve" xmlns:serif="http://www.serif.com/" style="fill-rule:evenodd;clip-rule:evenodd;stroke-linecap:round;stroke-linejoin:round;stroke-miterlimit:1.5;"><g id="Artboard1"><path d="M733334,116257l-99767.1,-99767.1l-99767.1,99767.1l99767.1,99767.1l99767.1,-99767.1Z" style="fill:none;stroke:#000;stroke-width:3187.5px;"/><path id="Path_1465" d="M468369,347468c90612.1,31.963 165165,74584.6 165198,165198c-31.962,90612.5 -74584.6,165165 -165198,165198c-90612.5,-31.804 -165165,-74584.6 -165198,-165198c31.963,-90612.1 74584.6,-165165 165198,-165198Z" style="fill:none;fill-rule:nonzero;stroke:#000;stroke-width:5173.08px;stroke-miterlimit:4;"/><path id="Path_1066" d="M104781,608325l-10459.9,25461.5l20983.3,17808.7l-27439.1,-2073.07l-10454.5,25458.8l-6507.33,-26742.2l-27444.5,-2075.76l23422.8,-14453.5l-6503.42,-26743.6l20983.3,17811.3l23418.9,-14452.2l0.258,-0.016l0.071,0.016l0.088,0.046Z" style="fill:none;fill-rule:nonzero;stroke:#000;stroke-width:3981.79px;stroke-miterlimit:4;"/><path id="Path_1466" d="M214287,44963.8c73990,35.346 134864,60909.2 134899,134899c-34.704,73990.8 -60908.8,134865 -134899,134901c-73992.5,-32.137 -134871,-60907.5 -134905,-134901c35.346,-73992.5 60912.5,-134867 134905,-134899Z" style="fill:none;fill-rule:nonzero;stroke:#000;stroke-width:3516.83px;stroke-miterlimit:4;stroke-dasharray:10550.3,17584,0,0;"/><circle cx="374430" cy="639974" r="70426.2" style="fill:#f53c37;"/><g><rect x="33161.2" y="108147" width="615870" height="343849" style="fill:#fff;fill-rule:nonzero;stroke:#000;stroke-width:2133.5px;stroke-linecap:butt;stroke-miterlimit:2;"/><path d="M642817,66520.6l-603509,0c-3394.41,0 -6147.08,2583.79 -6147.08,5764.52l0,36073.4l615803,0l-0,-36073.4c-0,-3180.74 -2752.67,-5764.52 -6146.97,-5764.52Z" style="fill-rule:nonzero;stroke:#000;stroke-width:2007.64px;stroke-linecap:butt;stroke-miterlimit:2;"/><rect x="83899.7" y="86738.3" width="481311" height="16192.6" style="fill:#fff;fill-rule:nonzero;"/><rect x="571493" y="86738.3" width="47285" height="14444.7" style="fill:#f53c37;fill-rule:nonzero;"/><rect x="329907" y="120196" width="47817" height="5180.25" style="fill-rule:nonzero;"/><rect x="384766" y="120196" width="47816.9" height="5180.25" style="fill-rule:nonzero;"/><rect x="557746" y="118553" width="77218.1" height="3880.76" style="fill:#f53c37;fill-rule:nonzero;"/><rect x="574110" y="127855" width="60854.1" height="3887.51" style="fill:#f53c37;fill-rule:nonzero;"/><path d="M59893.1,77778.6c0,2060.28 -1671.85,3738.88 -3732.07,3738.88c-2060.33,-0 -3723.72,-1678.6 -3723.72,-3738.88c-0,-2054.4 1663.39,-3731.3 3723.72,-3731.3c2060.23,-0 3732.07,1676.9 3732.07,3731.3Z" style="fill:#fff;fill-rule:nonzero;"/><path d="M48925.7,77778.6c-0,2060.28 -1671.85,3738.88 -3732.07,3738.88c-2060.33,-0 -3723.72,-1678.6 -3723.72,-3738.88c0,-2054.4 1663.39,-3731.3 3723.72,-3731.3c2060.23,-0 3732.07,1676.9 3732.07,3731.3Z" style="fill:#fff;fill-rule:nonzero;"/><path d="M70844.7,77778.6c-0,2060.28 -1671.85,3738.88 -3723.62,3738.88c-2068.78,-0 -3732.18,-1678.6 -3732.18,-3738.88c0,-2054.4 1663.39,-3731.3 3732.18,-3731.3c2051.77,-0 3723.62,1676.9 3723.62,3731.3Z" style="fill:#fff;fill-rule:nonzero;"/><rect x="41469.9" y="92592.4" width="10841.8" height="3082.82" style="fill:#fff;fill-rule:nonzero;"/><path d="M68709.4,100004l-2178.45,-2180.15l3681.46,-3689.09l-3681.46,-3686.51l2178.45,-2178.5l5868.37,5865.02l-5868.37,5869.24Z" style="fill:#fff;fill-rule:nonzero;"/><rect x="60248.8" y="92592.4" width="10841.8" height="3082.82" style="fill:#fff;fill-rule:nonzero;"/><rect x="165313" y="120196" width="47825.4" height="5180.25" style="fill-rule:nonzero;"/><rect x="220180" y="120196" width="47817" height="5180.25" style="fill-rule:nonzero;"/><rect x="275039" y="120196" width="47825.4" height="5180.25" style="fill-rule:nonzero;"/><rect x="103412" y="115877" width="50552.7" height="13825.8" style="fill:#f53c37;fill-rule:nonzero;"/><g><rect x="92565.2" y="188554" width="236636" height="132700" style="fill:#f53c37;fill-rule:nonzero;"/><rect x="10856.1" y="311124" width="292316" height="80088.6" style="fill:#fff;fill-rule:nonzero;stroke:#000;stroke-width:1968.76px;stroke-linecap:butt;stroke-miterlimit:2;"/><rect x="24593" y="322333" width="105771" height="5267.86" style="fill-rule:nonzero;"/><rect x="24593" y="333624" width="256628" height="3952.98" style="fill-rule:nonzero;"/><rect x="23500" y="342854" width="224087" height="3955.46" style="fill-rule:nonzero;"/><rect x="22605.8" y="358431" width="51444.9" height="14065.6" style="fill:#f53c37;fill-rule:nonzero;"/><g><path d="M222518,266185l-32523,0l0,-24745.5l32523,-0l-0,24745.5Zm-35170.6,-27396.5l0,30046.9l37825,-0l0,-30046.9l-37825,0Z" style="fill:#fff;fill-rule:nonzero;"/><path d="M203079,247537c0,1707.91 -1387.57,3093.43 -3096.78,3093.43c-1709.3,0 -3090.07,-1385.52 -3090.07,-3093.43c-0,-1707.95 1380.78,-3092.77 3090.07,-3092.77c1709.22,-0 3096.78,1384.83 3096.78,3092.77Z" style="fill:#fff;fill-rule:nonzero;"/><path d="M220929,254650l-7426.98,-5786.7l-9893.55,8129.39l-7071.7,-2827.99l-4946.82,2238.78l-0,8189.74l29339,-0l-0,-9943.22Z" style="fill:#fff;fill-rule:nonzero;"/></g></g><rect x="35477.4" y="477888" width="261697" height="4031.06" style="fill-rule:nonzero;"/><rect x="357525" y="406014" width="261697" height="4031.06" style="fill-rule:nonzero;"/><rect x="34362.8" y="487300" width="228513" height="4033.59" style="fill-rule:nonzero;"/><rect x="356410" y="415426" width="228513" height="4033.59" style="fill-rule:nonzero;"/><rect x="33450.9" y="500283" width="52461" height="14343.4" style="fill:#f53c37;fill-rule:nonzero;"/><rect x="355498" y="428409" width="52461" height="14343.4" style="fill:#f53c37;fill-rule:nonzero;"/><rect x="342758" y="149428" width="294249" height="77232.7" style="fill-rule:nonzero;"/><rect x="443756" y="231569" width="294249" height="77232.7" style="fill-rule:nonzero;"/><rect x="354785" y="165064" width="112844" height="5278.12" style="fill:#fff;fill-rule:nonzero;"/><rect x="455782" y="247205" width="112844" height="5278.12" style="fill:#fff;fill-rule:nonzero;"/><rect x="354785" y="176380" width="270820" height="3965.86" style="fill:#fff;fill-rule:nonzero;"/><rect x="455782" y="258520" width="270820" height="3965.86" style="fill:#fff;fill-rule:nonzero;"/><rect x="354785" y="185631" width="235598" height="3973.31" style="fill:#fff;fill-rule:nonzero;"/><rect x="455782" y="267771" width="235598" height="3973.31" style="fill:#fff;fill-rule:nonzero;"/><rect x="354785" y="201248" width="53872.6" height="14098.8" style="fill:#fff;fill-rule:nonzero;"/><rect x="455782" y="283389" width="53872.6" height="14098.8" style="fill:#fff;fill-rule:nonzero;"/></g><g><path d="M672944,444896c14108.6,-0 25588.6,11480 25588.6,25589.7c0,14109.7 -11480,25589.7 -25588.6,25589.7c-14110.9,0 -25589.7,-11480 -25589.7,-25589.7c0,-14109.7 11478.8,-25589.7 25589.7,-25589.7Zm51230.3,48057.8l4608.26,-0l-57.62,-18254.5l-11402,-2843.41c13.594,-454.505 22.634,-912.391 22.634,-1370.28c-0,-1505.94 -75.769,-2994.91 -222.75,-4463.56l11172.5,-3630.31l-1205.25,-17892.7l-4608.26,-0l-11186,3633.69c-1484.45,-2538.16 -3214.28,-4915.75 -5156.65,-7102.33l7152.15,-10913.6l-11126.1,-10312.1l-4608.33,0l-6615.01,10093.9c-2730.41,-1215.39 -5605.46,-2162.77 -8591.33,-2809.49l-0,-11747.9l-18814.1,0l-0,11747.9c-1919.74,414.93 -3793.13,954.208 -5611.12,1609.97l-6226.13,-9962.75l-15956,9969.51l6239.72,9984.21c-1391.77,1355.62 -2696.46,2800.45 -3901.64,4326.79l-10577.8,-5158.86l-8247.61,16909.1l10558.5,5148.68c-459.025,1874.5 -799.326,3793.13 -1010.76,5750.16l-11685.7,1228.95l1966.11,18710.1l11684.6,-1227.82c613.908,1860.98 1345.4,3666.51 2191.06,5409.86l-9262.89,7236.89l11582.9,14824.3l9276.49,-7245.93c1491.24,1241.38 3063.88,2388.94 4710.01,3430.2l-4022.61,11054.9l17677.8,6434.15l4019.26,-11040.2c1906.14,257.771 3848.51,397.955 5823.65,404.752l2443.21,11494.7l4609.36,-0l13792.1,-3910.68l-2442.11,-11494.7c1780.69,-804.95 3498.03,-1726.38 5144.16,-2749.56l8171.91,8461.29l4609.36,-0l8924.9,-13067.3l-8174.19,-8464.7c1080.83,-1611.11 2057.68,-3295.67 2923.7,-5045.82l11407.7,2844.55Z" style="fill:#f53c37;fill-rule:nonzero;stroke:#000;stroke-width:2047.86px;stroke-linecap:butt;stroke-miterlimit:2;"/><path d="M677552,444896c14109.7,-0 25589.7,11480 25589.7,25589.7c0,14109.7 -11480,25589.7 -25589.7,25589.7c-14110.8,0 -25589.7,-11480 -25589.7,-25589.7c0,-14109.7 11478.9,-25589.7 25589.7,-25589.7Zm51230.3,48057.8l4551.74,-18254.5l-11402,-2843.41c13.594,-454.505 22.634,-912.391 22.634,-1370.28c-0,-1505.94 -75.769,-2994.91 -223.854,-4463.56l11173.6,-3630.31l-5814.61,-17892.7l-11184.9,3633.69c-1485.55,-2538.16 -3215.38,-4915.75 -5157.68,-7102.33l7153.19,-10913.6l-15735.5,-10312.1l-6613.98,10093.9c-2730.34,-1215.39 -5606.56,-2162.77 -8592.43,-2809.49l-0,-11747.9l-18814.1,0l0,11747.9c-1918.63,414.93 -3791.99,954.208 -5611.12,1609.97l-6226.16,-9962.75l-15954.8,9969.51l6239.72,9984.21c-1392.88,1355.62 -2697.57,2800.45 -3901.64,4326.79l-10577.8,-5158.86l-8247.61,16909.1l10558.5,5148.68c-459.025,1874.5 -800.465,3793.13 -1011.86,5750.16l-11685.7,1228.95l1967.21,18710.1l11683.5,-1227.82c615.046,1860.98 1346.54,3666.51 2192.24,5409.86l-9262.93,7236.89l11582.9,14824.3l9275.31,-7245.93c1491.24,1241.38 3065.02,2388.94 4711.15,3430.2l-4022.61,11054.9l17677.8,6434.15l4018.12,-11040.2c1907.31,257.771 3848.51,397.955 5823.65,404.752l2444.32,11494.7l18401.4,-3910.68l-2443.21,-11494.7c1780.69,-804.95 3498.03,-1726.38 5145.33,-2749.56l8171.84,8461.29l13533.2,-13067.3l-8171.91,-8464.7c1079.73,-1611.11 2056.57,-3295.67 2921.49,-5045.82l11407.6,2844.55Z" style="fill:#fff;fill-rule:nonzero;stroke:#000;stroke-width:2047.86px;stroke-linecap:butt;stroke-miterlimit:2;"/></g><g><g><path d="M394258,376776l-144382,-0c-2069.03,-0 -3747.58,1678.54 -3747.58,3747.58l-0,155968c-0,2067.63 1678.54,3747.58 3747.58,3747.58l144382,0c2070.44,0 3747.58,-1679.95 3747.58,-3747.58l-0,-155968c-0,-2069.03 -1677.14,-3747.58 -3747.58,-3747.58" style="fill:#fff;fill-rule:nonzero;stroke:#000;stroke-width:2148.21px;stroke-linecap:butt;stroke-miterlimit:2;"/></g><path d="M278015,441703c-5801.16,8527.57 -9191.96,18825 -9191.96,29916c0,9586.67 2535.38,18580.6 6969.82,26353.8c9168.08,16062.1 26456.4,26889 46274.4,26889c29404.7,-0 53242.9,-23838.1 53242.9,-53242.9c-0,-11091 -3392.2,-21388.4 -9191.96,-29916c-9582.45,-14080.1 -25737.2,-23328.3 -44050.9,-23328.3c-18316.5,0 -34471.3,9248.15 -44052.3,23328.3Zm15521.3,46162.1c-2734.83,-4789.82 -4296.79,-10333.9 -4296.79,-16246.1c-0,-6840.6 2090.1,-13186.8 5667.72,-18444.3c5907.91,-8682.08 15868.2,-14383.5 27160.1,-14383.5c11291.9,-0 21250.8,5701.43 27158.7,14383.5c3577.62,5257.57 5666.32,11603.7 5666.32,18444.3c-0,18129.7 -14696.7,32826.4 -32825,32826.4c-12220.4,-0 -22880.2,-6674.85 -28531,-16580.4Z" style="fill:#f53c37;fill-rule:nonzero;"/><path d="M266322,386315c-561.856,0 -1019.77,456.508 -1019.77,1019.77l0,5309.54c0,564.665 457.913,1021.17 1019.77,1021.17l111489,-0c564.665,-0 1021.17,-456.508 1021.17,-1021.17l-0,-5309.54c-0,-563.261 -456.508,-1019.77 -1021.17,-1019.77l-111489,0Z" style="fill-rule:nonzero;"/><g><path d="M295218,398127l-28896.2,0c-563.261,0 -1019.77,456.508 -1019.77,1021.17l0,5309.54c0,563.261 456.508,1019.77 1019.77,1019.77l28896.2,-0c564.666,-0 1021.17,-456.508 1021.17,-1019.77l0,-5309.54c0,-564.665 -456.507,-1021.17 -1021.17,-1021.17Z" style="fill-rule:nonzero;"/><path d="M336515,398127l-28896.2,0c-563.26,0 -1021.17,456.508 -1021.17,1021.17l0,5309.54c0,563.261 457.913,1019.77 1021.17,1019.77l28896.2,-0c564.665,-0 1021.17,-456.508 1021.17,-1019.77l0,-5309.54c0,-564.665 -456.508,-1021.17 -1021.17,-1021.17Z" style="fill-rule:nonzero;"/><path d="M377813,398127l-28897.7,0c-563.261,0 -1019.77,456.508 -1019.77,1021.17l-0,5309.54c-0,563.261 456.507,1019.77 1019.77,1019.77l28897.7,-0c563.261,-0 1019.77,-456.508 1019.77,-1019.77l-0,-5309.54c-0,-564.665 -456.508,-1021.17 -1019.77,-1021.17Z" style="fill-rule:nonzero;"/></g><path d="M366117,441703l-16890.8,11471.7c-5907.91,-8682.08 -15866.8,-14383.5 -27158.7,-14383.5c-11291.9,-0 -21253.6,5701.43 -27160.1,14383.5l-16892.2,-11471.7c9581.05,-14080.1 25735.8,-23328.3 44052.3,-23328.3c18313.7,0 34468.5,9248.15 44049.5,23328.3Z" style="fill-rule:nonzero;"/></g><g><path d="M402597,640435c4181.3,-5732.53 12252.5,-6996.48 17982.9,-2812.95c5730.34,4182.66 6993.97,12248.7 2812.67,17981.2c-4180.52,5735.86 -12251.9,6998.97 -17982.3,2815.44c-5730.34,-4182.66 -6993.97,-12248.7 -2813.25,-17983.7Zm-11342.5,-8275.32c-9957.63,13653.5 -5153.58,33637.5 11407.6,40741.1c9121.22,3912.81 20084.7,2200.88 27632.5,-4242.3c8528.86,-7281.28 11021.2,-17803.9 8664.56,-27191.6l139408,-191107c5961.8,-8179.09 15036.4,-12989.4 24855,-15457.1c838.386,-210.295 1670.02,-486.712 2486.19,-828.918c14378.4,-6030.09 24915.6,-18939.1 27369.1,-34337.4c1003.86,-6311.03 615.67,-12672.7 -2626.27,-17824.6l-11753.2,16110.7c-3384.08,4637.04 -9532.26,6303.26 -14792.6,4007.25l-4250.56,-1853.05c-3535.76,-1541.17 -6132.01,-4656.97 -7022.66,-8407.57l-990.628,-4213.24c-1102.56,-4652.81 609.5,-9521.71 4373.89,-12465.5l17391.2,-13592.3c0,0 -18816.4,-11274.5 -37911.3,3969.26c-8126.32,6487.81 -10870.6,22369.3 -11556.7,33733c-560.733,9205.2 -3777.37,18031 -9207.69,25479.5l-143422,196615c-7707.24,493.6 -15162.4,4153.11 -20054.3,10864Z" style="fill:#fff;fill-rule:nonzero;stroke:#000;stroke-width:3307.97px;stroke-linecap:butt;stroke-miterlimit:2;"/></g></g></svg>