<svg xmlns="http://www.w3.org/2000/svg" width="156.997" height="93.38" viewBox="0 0 156.997 93.38">
  <g id="Group_359" data-name="Group 359" transform="translate(-23.726 322.153)">
    <path id="Path_2849" data-name="Path 2849" d="M472.212-307.1l5.259-.692-1.384,5.121" transform="translate(-301.79 -9.131)" fill="none" stroke="#000" stroke-linecap="round" stroke-miterlimit="10" stroke-width="2.24"/>
    <path id="Path_2850" data-name="Path 2850" d="M32.181-221.207l27.281-20.012,25,9.9,38.493-50.365,11.767,9.727,40.957-35.839" transform="translate(0 -9.131)" fill="none" stroke="#000" stroke-linecap="round" stroke-linejoin="round" stroke-miterlimit="10" stroke-width="2.24"/>
    <path id="Path_2851" data-name="Path 2851" d="M86.531-310.948a8.807,8.807,0,0,1,8.8,8.8,8.807,8.807,0,0,1-8.8,8.8,8.807,8.807,0,0,1-8.8-8.8A8.807,8.807,0,0,1,86.531-310.948Zm17.612,16.521h1.584l-.02-6.275-3.92-.978c0-.156.008-.314.008-.471q0-.776-.077-1.534l3.841-1.248-.414-6.151h-1.584l-3.845,1.249a15.345,15.345,0,0,0-1.773-2.442l2.459-3.752-3.825-3.545H94.992l-2.274,3.47a15.136,15.136,0,0,0-2.954-.966v-4.039H83.3v4.039a15.043,15.043,0,0,0-1.929.553l-2.14-3.425-5.485,3.427,2.145,3.432a15.364,15.364,0,0,0-1.341,1.488l-3.636-1.774-2.835,5.813,3.63,1.77a15.155,15.155,0,0,0-.347,1.977l-4.017.422.676,6.432,4.017-.422a15.093,15.093,0,0,0,.753,1.86L69.6-293.028l3.982,5.1,3.189-2.491a15.408,15.408,0,0,0,1.619,1.179l-1.383,3.8,6.077,2.212,1.382-3.8a15.353,15.353,0,0,0,2,.139l.84,3.952h1.585l4.741-1.344-.839-3.952a15.239,15.239,0,0,0,1.768-.945l2.809,2.909h1.585l3.068-4.492-2.81-2.91a15.278,15.278,0,0,0,1.005-1.735Z" transform="translate(-42.568 27.304)" fill="#f53c37" stroke="#000" stroke-linejoin="round" stroke-miterlimit="10" stroke-width="2.09"/>
    <path id="Path_2852" data-name="Path 2852" d="M105.806-304.981a13.98,13.98,0,0,1,13.964,13.964,13.979,13.979,0,0,1-13.964,13.964,13.979,13.979,0,0,1-13.964-13.964A13.979,13.979,0,0,1,105.806-304.981Zm27.955,26.224,2.484-9.961-6.222-1.552c.008-.248.013-.5.013-.748a24.3,24.3,0,0,0-.122-2.436l6.1-1.981-3.173-9.763-6.1,1.983a24.378,24.378,0,0,0-2.815-3.875l3.9-5.955-8.586-5.627-3.609,5.508a24.03,24.03,0,0,0-4.689-1.533v-6.411H100.673v6.411a23.937,23.937,0,0,0-3.062.878l-3.4-5.436-8.706,5.44,3.4,5.448a24.223,24.223,0,0,0-2.129,2.361l-5.772-2.815-4.5,9.227,5.761,2.809a24.046,24.046,0,0,0-.552,3.138l-6.377.67,1.073,10.21,6.375-.67a24.06,24.06,0,0,0,1.2,2.952l-5.054,3.949,6.321,8.089,5.061-3.954a24.467,24.467,0,0,0,2.571,1.872l-2.2,6.032,9.646,3.511,2.193-6.024a24.376,24.376,0,0,0,3.178.221l1.334,6.272,10.041-2.134-1.333-6.272a24.251,24.251,0,0,0,2.808-1.5l4.459,4.617,7.385-7.13-4.459-4.619a24.239,24.239,0,0,0,1.594-2.753Z" transform="translate(-29.602 0)" fill="#fff" stroke="#000" stroke-linejoin="round" stroke-miterlimit="10" stroke-width="2.09"/>
    <path id="Path_2853" data-name="Path 2853" d="M282.055-176.645A4.247,4.247,0,0,1,286.3-172.4a4.247,4.247,0,0,1-4.242,4.242,4.247,4.247,0,0,1-4.242-4.242A4.247,4.247,0,0,1,282.055-176.645Zm8.493,7.967h.764l-.01-3.026-1.89-.471c0-.075,0-.151,0-.227q0-.374-.037-.74l1.852-.6-.2-2.966h-.764l-1.854.6a7.4,7.4,0,0,0-.855-1.177l1.186-1.809L286.9-180.8h-.764l-1.1,1.673a7.3,7.3,0,0,0-1.424-.466v-1.948H280.5v1.948a7.272,7.272,0,0,0-.93.267l-1.032-1.652-2.645,1.653,1.034,1.655a7.449,7.449,0,0,0-.647.717l-1.754-.855-1.367,2.8,1.75.853a7.317,7.317,0,0,0-.167.953l-1.937.2.326,3.1,1.937-.2a7.277,7.277,0,0,0,.363.9l-1.536,1.2,1.92,2.458,1.538-1.2a7.412,7.412,0,0,0,.781.569l-.667,1.833,2.931,1.067.666-1.83a7.389,7.389,0,0,0,.965.067l.405,1.906h.764l2.286-.648-.4-1.906a7.357,7.357,0,0,0,.853-.456l1.355,1.4h.764l1.479-2.166-1.355-1.4a7.383,7.383,0,0,0,.485-.836Z" transform="translate(-111.634 -109.268)" fill="#f53c37" stroke="#000" stroke-linejoin="round" stroke-miterlimit="10" stroke-width="2.09"/>
    <path id="Path_2854" data-name="Path 2854" d="M296.173-171.745a8.494,8.494,0,0,1,8.484,8.484,8.494,8.494,0,0,1-8.484,8.484,8.494,8.494,0,0,1-8.484-8.484A8.494,8.494,0,0,1,296.173-171.745Zm16.985,15.934,1.509-6.052-3.78-.943c0-.15.008-.3.008-.454a14.768,14.768,0,0,0-.074-1.48l3.7-1.2-1.928-5.932-3.708,1.2a14.794,14.794,0,0,0-1.71-2.355l2.372-3.618-5.217-3.419-2.193,3.346a14.606,14.606,0,0,0-2.849-.931v-3.895h-6.238v3.895a14.572,14.572,0,0,0-1.86.534l-2.064-3.3-5.29,3.305,2.069,3.31a14.78,14.78,0,0,0-1.294,1.434l-3.507-1.71-2.734,5.606,3.5,1.707a14.582,14.582,0,0,0-.336,1.907l-3.874.407.652,6.2,3.874-.407a14.638,14.638,0,0,0,.727,1.794l-3.071,2.4,3.84,4.915,3.075-2.4a14.864,14.864,0,0,0,1.562,1.137l-1.334,3.665,5.861,2.133,1.332-3.66a14.781,14.781,0,0,0,1.931.134l.811,3.811,6.1-1.3-.81-3.811a14.714,14.714,0,0,0,1.706-.912l2.71,2.805,4.487-4.332-2.71-2.806a14.7,14.7,0,0,0,.969-1.673Z" transform="translate(-168.362 -95.718)" fill="#fff" stroke="#000" stroke-linejoin="round" stroke-miterlimit="10" stroke-width="2.09"/>
  </g>
</svg>
