<?xml version="1.0" encoding="UTF-8" standalone="no"?><!DOCTYPE svg PUBLIC "-//W3C//DTD SVG 1.1//EN" "http://www.w3.org/Graphics/SVG/1.1/DTD/svg11.dtd"><svg width="100%" height="100%" viewBox="0 0 1704 1369" version="1.1" xmlns="http://www.w3.org/2000/svg" xmlns:xlink="http://www.w3.org/1999/xlink" xml:space="preserve" xmlns:serif="http://www.serif.com/" style="fill-rule:evenodd;clip-rule:evenodd;stroke-linecap:round;stroke-linejoin:round;"><g id="Group_191"><path id="Path_1462" d="M1437.24,449.896l-0,-270.521l-1092.85,0l-0,758.683l1092.85,0" style="fill:none;fill-rule:nonzero;stroke:#fff;stroke-width:12.5px;"/><path id="Path_1463" d="M1401.96,448.279l-0,-234.525l-1022.29,0l-0,689.921l945.225,-0" style="fill:none;fill-rule:nonzero;stroke:#fff;stroke-width:12.5px;"/><rect id="Path_1464" x="499.608" y="335.054" width="647.571" height="48.517" style="fill:none;fill-rule:nonzero;stroke:#f00;stroke-width:12.5px;"/><path id="Path_1465" d="M1602.68,171.662c51.862,0.019 94.532,42.689 94.55,94.55c-0.018,51.862 -42.688,94.532 -94.55,94.55c-51.862,-0.018 -94.532,-42.688 -94.55,-94.55c0.018,-51.861 42.688,-94.531 94.55,-94.55Z" style="fill:none;fill-rule:nonzero;stroke:#fff;stroke-width:12.5px;"/><path id="Path_1466" d="M1207.84,104.504c262.99,0.126 479.358,216.494 479.484,479.484c-0.123,262.99 -216.493,479.361 -479.484,479.487c-262.998,-0.114 -479.38,-216.489 -479.504,-479.488c0.126,-262.997 216.507,-479.369 479.504,-479.483Z" style="fill:none;fill-rule:nonzero;stroke:#fff;stroke-width:12.5px;stroke-dasharray:37.5,62.5,0,0;"/><path id="Path_1467" d="M790.983,1237.04l-125.608,-125.608l-125.612,125.608l125.612,125.613l125.608,-125.613Z" style="fill:#fff;stroke:#f53c37;stroke-width:12.5px;"/><path id="Path_1468" d="M6.25,675.892l237.042,-0" style="fill:none;fill-rule:nonzero;stroke:#fff;stroke-width:12.5px;"/><path id="Path_1469" d="M6.25,729.917l237.042,-0" style="fill:none;fill-rule:nonzero;stroke:#fff;stroke-width:12.5px;"/><path id="Path_1470" d="M6.25,783.946l237.042,-0" style="fill:none;fill-rule:nonzero;stroke:#fff;stroke-width:12.5px;"/><path id="Path_1471" d="M1329.3,571.008l-18.887,-52.312l20.479,-7.396c11.237,-4.057 23.822,1.848 27.883,13.083" style="fill:none;fill-rule:nonzero;stroke:#f53c37;stroke-width:12.5px;"/><path id="Path_1472" d="M1467.02,568.154c13.047,39.166 20.429,79.996 21.921,121.25c0.458,13.333 0.416,19.017 0.416,19.017" style="fill:none;fill-rule:nonzero;stroke:#f53c37;stroke-width:12.5px;"/><path id="Path_1473" d="M1304.56,630.712l-27.391,-31.666c-6.979,-8.055 -18.257,-11.001 -28.284,-7.388c-13.319,4.815 -20.323,19.731 -15.52,33.054c8.802,24.626 24.12,46.411 44.316,63.026c8.129,6.716 16.877,12.647 26.125,17.712c21.853,12.176 40.439,29.461 54.167,50.375" style="fill:none;fill-rule:nonzero;stroke:#f53c37;stroke-width:12.5px;"/><path id="Path_1474" d="M1310.42,518.696l-19.646,-54.413c-4.056,-11.235 -16.639,-17.143 -27.875,-13.087c-11.235,4.06 -17.143,16.641 -13.092,27.879l54.759,151.667" style="fill:none;fill-rule:nonzero;stroke:#f53c37;stroke-width:12.5px;"/><path id="Path_1475" d="M1375.8,571.517l-18.888,-52.313l20.475,-7.392c2.374,-0.858 4.88,-1.297 7.404,-1.297c9.152,0 17.37,5.77 20.48,14.377l17.916,49.583" style="fill:none;fill-rule:nonzero;stroke:#f53c37;stroke-width:12.5px;"/><path id="Path_1476" d="M1407.32,530.567l20.475,-7.392c2.373,-0.858 4.877,-1.297 7.401,-1.297c9.152,0 17.371,5.772 20.478,14.38l11.491,31.834" style="fill:none;fill-rule:nonzero;stroke:#f53c37;stroke-width:12.5px;"/><path id="Path_1477" d="M1369.08,838.7l-15.666,-45.133l158.812,-57.346l15.667,45.129" style="fill:#ffd525;fill-rule:nonzero;stroke:#f53c37;stroke-width:12.5px;"/><path id="Path_1478" d="M1369.92,906.271l-20.483,-59.017l207.666,-75l58.255,167.821" style="fill:none;fill-rule:nonzero;stroke:#f53c37;stroke-width:12.5px;"/><path id="Path_1479" d="M1544.23,824.758c-2.07,-5.738 -7.547,-9.584 -13.647,-9.584c-1.682,-0 -3.351,0.292 -4.932,0.863c-7.474,2.715 -11.398,11.091 -8.7,18.571c2.702,7.475 11.073,11.405 18.55,8.709c7.482,-2.699 11.421,-11.074 8.729,-18.559Z" style="fill:none;fill-rule:nonzero;stroke:#f53c37;stroke-width:12.5px;"/><path id="Path_1480" d="M1292.21,361.583c0.017,-0.479 0.026,-0.958 0.026,-1.437c-0,-22.033 -17.698,-40.356 -39.717,-41.121c-0.479,-0.017 -0.958,-0.025 -1.437,-0.025c-22.03,-0 -40.35,17.696 -41.113,39.712c-0.017,0.481 -0.025,0.961 -0.025,1.442c-0,22.027 17.691,40.345 39.704,41.113c0.48,0.017 0.961,0.025 1.442,0.025c22.03,-0 40.351,-17.692 41.121,-39.709Z" style="fill:none;fill-rule:nonzero;stroke:#fff;stroke-width:12.5px;"/><path id="Path_1481" d="M1282.89,386.262l26.354,28.259c2.027,2.189 1.905,5.655 -0.271,7.696c-2.188,2.036 -5.662,1.915 -7.704,-0.267l-26.342,-28.263" style="fill:none;fill-rule:nonzero;stroke:#fff;stroke-width:12.5px;"/><path id="Path_1482" d="M513.171,486.754l634.008,0l-630.662,107.083l630.662,0l-628.987,105.417l628.987,0" style="fill:none;fill-rule:nonzero;stroke:#fff;stroke-width:12.5px;"/><path id="Path_1483" d="M344.375,300.817c0,-0 -139.908,6.825 -253.642,-147.209c113.75,-154.033 253.642,-147.208 253.642,-147.208" style="fill:#fff;stroke:#f53c37;stroke-width:12.5px;"/><path id="Path_1484" d="M344.375,300.817c0,-0 139.946,6.825 253.679,-147.209c-113.75,-154.033 -253.679,-147.208 -253.679,-147.208" style="fill:#fff;stroke:#f53c37;stroke-width:12.5px;"/><path id="Path_1485" d="M491.579,153.612l0,-0.016c0,-80.749 -66.446,-147.196 -147.196,-147.196c-0.002,-0 -0.005,-0 -0.008,-0c-80.752,0.009 -147.197,66.456 -147.204,147.208c0.011,80.751 66.454,147.195 147.204,147.209c80.754,-0 147.204,-66.451 147.204,-147.205Z" style="fill:#fff;stroke:#f53c37;stroke-width:12.5px;"/><path id="Path_1486" d="M401.667,153.608c0.002,-31.433 -25.859,-57.301 -57.292,-57.308c-31.431,0.011 -57.289,25.877 -57.292,57.308c0.005,31.431 25.861,57.297 57.292,57.313c31.433,-0.012 57.292,-25.88 57.292,-57.313Z" style="fill:#ffd525;stroke:#f53c37;stroke-width:12.5px;"/></g></svg>