<svg xmlns="http://www.w3.org/2000/svg" width="91.072" height="86.162" viewBox="0 0 91.072 86.162">
  <g id="Group_347" data-name="Group 347" transform="translate(-36.431 178.818) rotate(7)">
    <path id="Path_2726" data-name="Path 2726" d="M59.857-63.271,46.194-61.394l-4-29.079,13.689-1.88Z" transform="translate(-16.809 -38.144)" stroke="#fff" stroke-linejoin="round" stroke-width="1.603"/>
    <path id="Path_2727" data-name="Path 2727" d="M92.2-70.522,78.508-68.645,73.8-103.134l13.663-1.88Z" transform="translate(-27.483 -33.868)" stroke="#fff" stroke-linejoin="round" stroke-width="1.603"/>
    <path id="Path_2728" data-name="Path 2728" d="M124.362-79l-13.689,1.88-5.792-42.318,13.663-1.877Z" transform="translate(-37.983 -28.36)" stroke="#fff" stroke-linejoin="round" stroke-width="1.603"/>
    <path id="Path_2729" data-name="Path 2729" d="M156.622-86.706l-13.689,1.88-6.687-48.61,13.69-1.877Z" transform="translate(-48.577 -23.634)" fill="#fff" stroke="#f53c37" stroke-linejoin="round" stroke-width="1.603"/>
    <path id="Path_2730" data-name="Path 2730" d="M46.684-127.191a201.6,201.6,0,0,0,37.882-20.3,109.087,109.087,0,0,0,15.111-12.486l4.791,2.261,1.053-14.89-17.138,3.744,3.685,3.6S85.436-155.872,46.684-127.191Z" transform="translate(-18.326 -11.038)" fill="#f53c37"/>
  </g>
</svg>
